<svg width="479" height="164" viewBox="0 0 479 164" fill="none" xmlns="http://www.w3.org/2000/svg">
<path d="M22.3882 134.14C20.0645 134.14 18.1759 132.23 18.1759 129.88V33.2C18.1759 30.85 20.0645 28.94 22.3882 28.94H39.02C41.3437 28.94 43.2323 30.85 43.2323 33.2V129.88C43.2323 132.23 41.3437 134.14 39.02 134.14H22.3882V134.14Z" fill="#D84E34"/>
<path d="M39.02 30.22C40.6515 30.22 41.9666 31.56 41.9666 33.2V129.88C41.9666 131.53 40.6416 132.86 39.02 132.86H22.3882C20.7567 132.86 19.4416 131.52 19.4416 129.88V33.2C19.4416 31.55 20.7666 30.22 22.3882 30.22H39.02ZM39.02 27.66H22.3882C19.3625 27.66 16.9102 30.14 16.9102 33.2V129.88C16.9102 132.94 19.3625 135.42 22.3882 135.42H39.02C42.0457 135.42 44.498 132.94 44.498 129.88V33.2C44.498 30.14 42.0457 27.66 39.02 27.66Z" fill="#C43E2F"/>
<path d="M30.7041 133.46C32.6318 133.46 34.1946 131.88 34.1946 129.93C34.1946 127.98 32.6318 126.4 30.7041 126.4C28.7763 126.4 27.2136 127.98 27.2136 129.93C27.2136 131.88 28.7763 133.46 30.7041 133.46Z" fill="#FF763E"/>
<path d="M30.7041 36.65C32.6318 36.65 34.1946 35.0696 34.1946 33.12C34.1946 31.1704 32.6318 29.59 30.7041 29.59C28.7763 29.59 27.2136 31.1704 27.2136 33.12C27.2136 35.0696 28.7763 36.65 30.7041 36.65Z" fill="#FF763E"/>
<path d="M30.7041 35.12C29.5769 35.12 28.5979 34.27 28.4496 33.11L25.5524 9.77C25.3942 8.51 26.2841 7.35999 27.53 7.19999C28.7759 7.03999 29.9131 7.92999 30.0713 9.19999L32.9685 32.54C33.1267 33.8 32.2367 34.95 30.9908 35.11C30.892 35.11 30.7931 35.12 30.7041 35.12Z" fill="#B02F28"/>
<path d="M27.8167 155.91C27.7179 155.91 27.6289 155.9 27.53 155.89C26.2841 155.73 25.4041 154.58 25.5524 153.32L28.4496 129.98C28.6078 128.72 29.7449 127.83 30.9908 127.98C32.2367 128.14 33.1168 129.29 32.9684 130.55L30.0712 153.89C29.9229 155.06 28.944 155.91 27.8167 155.91Z" fill="#B02F28"/>
<path d="M55.3353 134.14C53.0116 134.14 51.123 132.23 51.123 129.88V33.2C51.123 30.85 53.0116 28.94 55.3353 28.94H77.4846C79.8083 28.94 81.697 30.85 81.697 33.2V129.88C81.697 132.23 79.8083 134.14 77.4846 134.14H55.3353V134.14Z" fill="#D84E34"/>
<path d="M77.4846 30.22C79.1162 30.22 80.4313 31.56 80.4313 33.2V129.88C80.4313 131.53 79.1063 132.86 77.4846 132.86H55.3353C53.7038 132.86 52.3887 131.52 52.3887 129.88V33.2C52.3887 31.55 53.7137 30.22 55.3353 30.22H77.4846ZM77.4846 27.66H55.3353C52.3096 27.66 49.8573 30.14 49.8573 33.2V129.88C49.8573 132.94 52.3096 135.42 55.3353 135.42H77.4846C80.5104 135.42 82.9626 132.94 82.9626 129.88V33.2C82.9626 30.14 80.5104 27.66 77.4846 27.66Z" fill="#C43E2F"/>
<path d="M66.41 133.46C68.3377 133.46 69.9005 131.88 69.9005 129.93C69.9005 127.98 68.3377 126.4 66.41 126.4C64.4822 126.4 62.9195 127.98 62.9195 129.93C62.9195 131.88 64.4822 133.46 66.41 133.46Z" fill="#FF763E"/>
<path d="M66.41 36.65C68.3377 36.65 69.9005 35.0696 69.9005 33.12C69.9005 31.1704 68.3377 29.59 66.41 29.59C64.4822 29.59 62.9195 31.1704 62.9195 33.12C62.9195 35.0696 64.4822 36.65 66.41 36.65Z" fill="#FF763E"/>
<path d="M66.4001 35.12C65.2333 35.12 64.2445 34.22 64.1357 33.02L62.2273 11.21C62.1185 9.95 63.0381 8.82995 64.2939 8.71995C65.5398 8.60995 66.6473 9.53998 66.756 10.81L68.6645 32.62C68.7732 33.88 67.8536 35 66.5978 35.11C66.5385 35.11 66.4693 35.12 66.4001 35.12Z" fill="#B02F28"/>
<path d="M64.4917 154.37C64.4225 154.37 64.3532 154.37 64.284 154.36C63.0381 154.25 62.1087 153.13 62.2174 151.87L64.1258 130.06C64.2346 128.8 65.3421 127.87 66.588 127.97C67.8339 128.08 68.7633 129.2 68.6546 130.46L66.7462 152.27C66.6572 153.47 65.6585 154.37 64.4917 154.37Z" fill="#B02F28"/>
<path d="M93.622 134.14C91.3872 134.14 89.5777 132.31 89.5777 130.05V33.03C89.5777 30.77 91.3971 28.94 93.622 28.94H110.046C112.281 28.94 114.09 30.78 114.09 33.03V130.05C114.09 132.31 112.271 134.14 110.046 134.14H93.622Z" fill="#D84E34"/>
<path d="M110.056 30.22C111.589 30.22 112.835 31.48 112.835 33.03V130.05C112.835 131.6 111.589 132.86 110.056 132.86H93.6319C92.0992 132.86 90.8533 131.6 90.8533 130.05V33.03C90.8533 31.48 92.0992 30.22 93.6319 30.22H110.056ZM110.056 27.66H93.6319C90.705 27.66 88.322 30.06 88.322 33.03V130.05C88.322 133.01 90.6951 135.42 93.6319 135.42H110.056C112.983 135.42 115.366 133.02 115.366 130.05V33.03C115.356 30.07 112.983 27.66 110.056 27.66Z" fill="#C43E2F"/>
<path d="M101.839 133.46C103.767 133.46 105.329 131.88 105.329 129.93C105.329 127.98 103.767 126.4 101.839 126.4C99.9113 126.4 98.3485 127.98 98.3485 129.93C98.3485 131.88 99.9113 133.46 101.839 133.46Z" fill="#FF763E"/>
<path d="M101.839 36.65C103.767 36.65 105.329 35.0696 105.329 33.12C105.329 31.1704 103.767 29.59 101.839 29.59C99.9113 29.59 98.3485 31.1704 98.3485 33.12C98.3485 35.0696 99.9113 36.65 101.839 36.65Z" fill="#FF763E"/>
<path d="M101.839 35.12C100.652 35.12 99.6537 34.19 99.5746 32.98L98.1507 12.39C98.0617 11.12 99.011 10.02 100.257 9.94001C101.513 9.86001 102.6 10.81 102.679 12.07L104.103 32.66C104.192 33.93 103.243 35.03 101.997 35.11C101.938 35.11 101.888 35.12 101.839 35.12Z" fill="#B02F28"/>
<path d="M100.415 153.16C100.366 153.16 100.306 153.16 100.257 153.15C99.0011 153.06 98.0617 151.96 98.1507 150.7L99.5746 130.11C99.6636 128.84 100.741 127.89 101.997 127.98C103.253 128.07 104.192 129.17 104.103 130.43L102.679 151.02C102.6 152.23 101.602 153.16 100.415 153.16Z" fill="#B02F28"/>
<path d="M126.193 134.14C123.959 134.14 122.149 132.31 122.149 130.05V33.03C122.149 30.77 123.969 28.94 126.193 28.94H142.617C144.852 28.94 146.662 30.78 146.662 33.03V130.05C146.662 132.31 144.842 134.14 142.617 134.14H126.193Z" fill="#D84E34"/>
<path d="M142.617 30.22C144.15 30.22 145.396 31.48 145.396 33.03V130.05C145.396 131.6 144.15 132.86 142.617 132.86H126.193C124.661 132.86 123.415 131.6 123.415 130.05V33.03C123.415 31.48 124.661 30.22 126.193 30.22H142.617ZM142.617 27.66H126.193C123.266 27.66 120.883 30.06 120.883 33.03V130.05C120.883 133.01 123.257 135.42 126.193 135.42H142.617C145.544 135.42 147.927 133.02 147.927 130.05V33.03C147.927 30.07 145.554 27.66 142.617 27.66Z" fill="#C43E2F"/>
<path d="M134.499 133.46C136.427 133.46 137.99 131.88 137.99 129.93C137.99 127.98 136.427 126.4 134.499 126.4C132.572 126.4 131.009 127.98 131.009 129.93C131.009 131.88 132.572 133.46 134.499 133.46Z" fill="#FF763E"/>
<path d="M134.499 36.65C136.427 36.65 137.99 35.0696 137.99 33.12C137.99 31.1704 136.427 29.59 134.499 29.59C132.572 29.59 131.009 31.1704 131.009 33.12C131.009 35.0696 132.572 36.65 134.499 36.65Z" fill="#FF763E"/>
<path d="M134.499 35.12C133.253 35.12 132.235 34.11 132.225 32.84L132.037 13.87C132.027 12.6 133.036 11.56 134.292 11.55C134.302 11.55 134.311 11.55 134.311 11.55C135.557 11.55 136.576 12.56 136.586 13.83L136.774 32.8C136.783 34.07 135.775 35.11 134.519 35.12C134.509 35.12 134.509 35.12 134.499 35.12Z" fill="#B02F28"/>
<path d="M134.311 151.53C134.302 151.53 134.292 151.53 134.292 151.53C133.036 151.52 132.027 150.48 132.037 149.21L132.225 130.24C132.235 128.98 133.253 127.96 134.499 127.96C134.509 127.96 134.519 127.96 134.519 127.96C135.775 127.97 136.783 129.01 136.774 130.28L136.586 149.25C136.576 150.52 135.557 151.53 134.311 151.53Z" fill="#B02F28"/>
<path d="M196.903 134.14C194.836 134.14 193.155 132.44 193.155 130.35V32.72C193.155 30.63 194.836 28.93 196.903 28.93H214.415C216.481 28.93 218.162 30.63 218.162 32.72V130.35C218.162 132.44 216.481 134.14 214.415 134.14H196.903Z" fill="#D84E34"/>
<path d="M214.415 30.22C215.779 30.22 216.897 31.35 216.897 32.73V130.36C216.897 131.74 215.779 132.87 214.415 132.87H196.903C195.538 132.87 194.421 131.74 194.421 130.36V32.73C194.421 31.35 195.538 30.22 196.903 30.22H214.415ZM214.415 27.66H196.903C194.134 27.66 191.9 29.93 191.9 32.72V130.35C191.9 133.15 194.144 135.41 196.903 135.41H214.415C217.184 135.41 219.418 133.14 219.418 130.35V32.72C219.418 29.93 217.184 27.66 214.415 27.66Z" fill="#C43E2F"/>
<path d="M205.654 133.46C207.582 133.46 209.145 131.88 209.145 129.93C209.145 127.98 207.582 126.4 205.654 126.4C203.726 126.4 202.164 127.98 202.164 129.93C202.164 131.88 203.726 133.46 205.654 133.46Z" fill="#FF763E"/>
<path d="M205.654 36.65C207.582 36.65 209.145 35.0696 209.145 33.12C209.145 31.1704 207.582 29.59 205.654 29.59C203.726 29.59 202.164 31.1704 202.164 33.12C202.164 35.0696 203.726 36.65 205.654 36.65Z" fill="#FF763E"/>
<path d="M205.654 35.12C204.398 35.12 203.38 34.09 203.38 32.82V14.39C203.38 13.12 204.398 12.09 205.654 12.09C206.91 12.09 207.928 13.12 207.928 14.39V32.82C207.928 34.09 206.91 35.12 205.654 35.12Z" fill="#B02F28"/>
<path d="M205.654 150.99C204.398 150.99 203.38 149.96 203.38 148.69V130.26C203.38 128.99 204.398 127.96 205.654 127.96C206.91 127.96 207.928 128.99 207.928 130.26V148.69C207.928 149.96 206.91 150.99 205.654 150.99Z" fill="#B02F28"/>
<path d="M286.331 134.14C288.398 134.14 290.078 132.44 290.078 130.35V32.72C290.078 30.63 288.398 28.93 286.331 28.93H268.819C266.752 28.93 265.072 30.63 265.072 32.72V130.35C265.072 132.44 266.752 134.14 268.819 134.14H286.331Z" fill="#D84E34"/>
<path d="M268.819 30.22H286.331C287.695 30.22 288.813 31.35 288.813 32.73V130.36C288.813 131.74 287.695 132.87 286.331 132.87H268.819C267.455 132.87 266.337 131.74 266.337 130.36V32.73C266.337 31.34 267.455 30.22 268.819 30.22ZM268.819 27.66C266.05 27.66 263.816 29.93 263.816 32.72V130.35C263.816 133.15 266.06 135.41 268.819 135.41H286.331C289.1 135.41 291.334 133.14 291.334 130.35V32.72C291.334 29.92 289.09 27.66 286.331 27.66H268.819Z" fill="#C43E2F"/>
<path d="M277.57 133.46C279.498 133.46 281.061 131.88 281.061 129.93C281.061 127.98 279.498 126.4 277.57 126.4C275.642 126.4 274.08 127.98 274.08 129.93C274.08 131.88 275.642 133.46 277.57 133.46Z" fill="#FF763E"/>
<path d="M277.57 36.65C279.498 36.65 281.061 35.0696 281.061 33.12C281.061 31.1704 279.498 29.59 277.57 29.59C275.642 29.59 274.08 31.1704 274.08 33.12C274.08 35.0696 275.642 36.65 277.57 36.65Z" fill="#FF763E"/>
<path d="M277.57 35.12C278.826 35.12 279.844 34.09 279.844 32.82V14.39C279.844 13.12 278.826 12.09 277.57 12.09C276.314 12.09 275.296 13.12 275.296 14.39V32.82C275.296 34.09 276.314 35.12 277.57 35.12Z" fill="#B02F28"/>
<path d="M277.57 150.99C278.826 150.99 279.844 149.96 279.844 148.69V130.26C279.844 128.99 278.826 127.96 277.57 127.96C276.314 127.96 275.296 128.99 275.296 130.26V148.69C275.296 149.96 276.314 150.99 277.57 150.99Z" fill="#B02F28"/>
<path d="M230.888 134.14C228.565 134.14 226.676 132.23 226.676 129.88V33.2C226.676 30.85 228.565 28.94 230.888 28.94H253.038C255.361 28.94 257.25 30.85 257.25 33.2V129.88C257.25 132.23 255.361 134.14 253.038 134.14H230.888V134.14Z" fill="#D84E34"/>
<path d="M253.038 30.22C254.669 30.22 255.984 31.56 255.984 33.2V129.88C255.984 131.53 254.659 132.86 253.038 132.86H230.888C229.257 132.86 227.942 131.52 227.942 129.88V33.2C227.942 31.55 229.267 30.22 230.888 30.22H253.038ZM253.038 27.66H230.888C227.863 27.66 225.41 30.14 225.41 33.2V129.88C225.41 132.94 227.863 135.42 230.888 135.42H253.038C256.064 135.42 258.516 132.94 258.516 129.88V33.2C258.516 30.14 256.064 27.66 253.038 27.66Z" fill="#C43E2F"/>
<path d="M241.963 133.46C243.891 133.46 245.454 131.88 245.454 129.93C245.454 127.98 243.891 126.4 241.963 126.4C240.035 126.4 238.473 127.98 238.473 129.93C238.473 131.88 240.035 133.46 241.963 133.46Z" fill="#FF763E"/>
<path d="M241.963 36.65C243.891 36.65 245.454 35.0696 245.454 33.12C245.454 31.1704 243.891 29.59 241.963 29.59C240.035 29.59 238.473 31.1704 238.473 33.12C238.473 35.0696 240.035 36.65 241.963 36.65Z" fill="#FF763E"/>
<path d="M241.963 35.12C240.707 35.12 239.689 34.09 239.689 32.82V14.39C239.689 13.12 240.707 12.09 241.963 12.09C243.219 12.09 244.237 13.12 244.237 14.39V32.82C244.237 34.09 243.219 35.12 241.963 35.12Z" fill="#B02F28"/>
<path d="M241.963 150.99C240.707 150.99 239.689 149.96 239.689 148.69V130.26C239.689 128.99 240.707 127.96 241.963 127.96C243.219 127.96 244.237 128.99 244.237 130.26V148.69C244.237 149.96 243.219 150.99 241.963 150.99Z" fill="#B02F28"/>
<path d="M159.14 134.14C156.817 134.14 154.928 132.23 154.928 129.88V33.2C154.928 30.85 156.817 28.94 159.14 28.94H181.29C183.614 28.94 185.502 30.85 185.502 33.2V129.88C185.502 132.23 183.614 134.14 181.29 134.14H159.14V134.14Z" fill="#D84E34"/>
<path d="M181.3 30.22C182.931 30.22 184.246 31.56 184.246 33.2V129.88C184.246 131.53 182.921 132.86 181.3 132.86H159.15C157.519 132.86 156.204 131.52 156.204 129.88V33.2C156.204 31.55 157.529 30.22 159.15 30.22H181.3ZM181.3 27.66H159.15C156.125 27.66 153.672 30.14 153.672 33.2V129.88C153.672 132.94 156.125 135.42 159.15 135.42H181.3C184.325 135.42 186.778 132.94 186.778 129.88V33.2C186.768 30.14 184.325 27.66 181.3 27.66Z" fill="#C43E2F"/>
<path d="M170.225 133.46C172.153 133.46 173.716 131.88 173.716 129.93C173.716 127.98 172.153 126.4 170.225 126.4C168.297 126.4 166.735 127.98 166.735 129.93C166.735 131.88 168.297 133.46 170.225 133.46Z" fill="#FF763E"/>
<path d="M170.225 36.65C172.153 36.65 173.716 35.0696 173.716 33.12C173.716 31.1704 172.153 29.59 170.225 29.59C168.297 29.59 166.735 31.1704 166.735 33.12C166.735 35.0696 168.297 36.65 170.225 36.65Z" fill="#FF763E"/>
<path d="M170.225 35.12C168.969 35.12 167.951 34.09 167.951 32.82V14.26C167.951 12.99 168.969 11.96 170.225 11.96C171.481 11.96 172.499 12.99 172.499 14.26V32.82C172.489 34.09 171.481 35.12 170.225 35.12Z" fill="#B02F28"/>
<path d="M170.225 151.12C168.969 151.12 167.951 150.09 167.951 148.82V130.26C167.951 128.99 168.969 127.96 170.225 127.96C171.481 127.96 172.499 128.99 172.499 130.26V148.82C172.489 150.09 171.481 151.12 170.225 151.12Z" fill="#B02F28"/>
<path d="M456.169 134.14C458.492 134.14 460.381 132.23 460.381 129.88V33.2C460.381 30.85 458.492 28.94 456.169 28.94H439.537C437.213 28.94 435.325 30.85 435.325 33.2V129.88C435.325 132.23 437.213 134.14 439.537 134.14H456.169V134.14Z" fill="#D84E34"/>
<path d="M439.537 30.22H456.169C457.8 30.22 459.115 31.56 459.115 33.2V129.88C459.115 131.53 457.79 132.86 456.169 132.86H439.537C437.905 132.86 436.59 131.52 436.59 129.88V33.2C436.59 31.56 437.915 30.22 439.537 30.22ZM439.537 27.66C436.511 27.66 434.059 30.14 434.059 33.2V129.88C434.059 132.94 436.511 135.42 439.537 135.42H456.169C459.194 135.42 461.647 132.94 461.647 129.88V33.2C461.647 30.14 459.194 27.66 456.169 27.66H439.537V27.66Z" fill="#C43E2F"/>
<path d="M447.853 133.46C449.781 133.46 451.343 131.88 451.343 129.93C451.343 127.98 449.781 126.4 447.853 126.4C445.925 126.4 444.362 127.98 444.362 129.93C444.362 131.88 445.925 133.46 447.853 133.46Z" fill="#FF763E"/>
<path d="M447.853 36.65C449.781 36.65 451.343 35.0696 451.343 33.12C451.343 31.1704 449.781 29.59 447.853 29.59C445.925 29.59 444.362 31.1704 444.362 33.12C444.362 35.0696 445.925 36.65 447.853 36.65Z" fill="#FF763E"/>
<path d="M447.863 35.12C448.99 35.12 449.969 34.27 450.117 33.11L453.014 9.77C453.173 8.51 452.283 7.35999 451.037 7.19999C449.791 7.03999 448.654 7.92999 448.496 9.19999L445.598 32.54C445.44 33.8 446.33 34.95 447.576 35.11C447.665 35.11 447.764 35.12 447.863 35.12Z" fill="#B02F28"/>
<path d="M450.75 155.91C450.849 155.91 450.938 155.9 451.037 155.89C452.283 155.73 453.163 154.58 453.014 153.32L450.117 129.98C449.959 128.72 448.822 127.83 447.576 127.98C446.33 128.14 445.45 129.29 445.598 130.55L448.496 153.89C448.634 155.06 449.613 155.91 450.75 155.91Z" fill="#B02F28"/>
<path d="M423.232 134.14C425.555 134.14 427.444 132.23 427.444 129.88V33.2C427.444 30.85 425.555 28.94 423.232 28.94H401.082C398.758 28.94 396.87 30.85 396.87 33.2V129.88C396.87 132.23 398.758 134.14 401.082 134.14H423.232V134.14Z" fill="#D84E34"/>
<path d="M401.082 30.22H423.232C424.863 30.22 426.178 31.56 426.178 33.2V129.88C426.178 131.53 424.853 132.86 423.232 132.86H401.082C399.451 132.86 398.136 131.52 398.136 129.88V33.2C398.126 31.55 399.451 30.22 401.082 30.22ZM401.082 27.66C398.056 27.66 395.604 30.14 395.604 33.2V129.88C395.604 132.94 398.056 135.42 401.082 135.42H423.232C426.257 135.42 428.71 132.94 428.71 129.88V33.2C428.71 30.14 426.257 27.66 423.232 27.66H401.082V27.66Z" fill="#C43E2F"/>
<path d="M412.157 133.46C414.085 133.46 415.647 131.88 415.647 129.93C415.647 127.98 414.085 126.4 412.157 126.4C410.229 126.4 408.666 127.98 408.666 129.93C408.666 131.88 410.229 133.46 412.157 133.46Z" fill="#FF763E"/>
<path d="M412.157 36.65C414.085 36.65 415.647 35.0696 415.647 33.12C415.647 31.1704 414.085 29.59 412.157 29.59C410.229 29.59 408.666 31.1704 408.666 33.12C408.666 35.0696 410.229 36.65 412.157 36.65Z" fill="#FF763E"/>
<path d="M412.157 35.12C413.324 35.12 414.312 34.22 414.421 33.02L416.33 11.21C416.438 9.95 415.519 8.82995 414.263 8.71995C413.017 8.60995 411.91 9.53998 411.801 10.81L409.892 32.62C409.784 33.88 410.703 35 411.959 35.11C412.018 35.11 412.088 35.12 412.157 35.12Z" fill="#B02F28"/>
<path d="M414.065 154.37C414.134 154.37 414.204 154.37 414.273 154.36C415.519 154.25 416.448 153.13 416.339 151.87L414.431 130.06C414.322 128.8 413.215 127.87 411.969 127.97C410.723 128.08 409.794 129.2 409.902 130.46L411.811 152.27C411.91 153.47 412.898 154.37 414.065 154.37Z" fill="#B02F28"/>
<path d="M384.589 134.14C386.824 134.14 388.633 132.31 388.633 130.05V33.03C388.633 30.77 386.814 28.94 384.589 28.94H368.165C365.93 28.94 364.12 30.78 364.12 33.03V130.05C364.12 132.31 365.94 134.14 368.165 134.14H384.589Z" fill="#D84E34"/>
<path d="M368.155 30.22H384.579C386.112 30.22 387.357 31.48 387.357 33.03V130.05C387.357 131.6 386.112 132.86 384.579 132.86H368.155C366.622 132.86 365.376 131.6 365.376 130.05V33.03C365.376 31.48 366.622 30.22 368.155 30.22ZM368.155 27.66C365.228 27.66 362.845 30.06 362.845 33.03V130.05C362.845 133.01 365.218 135.42 368.155 135.42H384.579C387.506 135.42 389.889 133.02 389.889 130.05V33.03C389.889 30.07 387.516 27.66 384.579 27.66H368.155Z" fill="#C43E2F"/>
<path d="M376.372 133.46C378.3 133.46 379.862 131.88 379.862 129.93C379.862 127.98 378.3 126.4 376.372 126.4C374.444 126.4 372.881 127.98 372.881 129.93C372.881 131.88 374.444 133.46 376.372 133.46Z" fill="#FF763E"/>
<path d="M376.372 36.65C378.3 36.65 379.862 35.0696 379.862 33.12C379.862 31.1704 378.3 29.59 376.372 29.59C374.444 29.59 372.881 31.1704 372.881 33.12C372.881 35.0696 374.444 36.65 376.372 36.65Z" fill="#FF763E"/>
<path d="M376.372 35.12C377.558 35.12 378.557 34.19 378.636 32.98L380.06 12.39C380.149 11.12 379.2 10.02 377.954 9.94001C376.698 9.86001 375.61 10.81 375.531 12.07L374.107 32.66C374.018 33.93 374.968 35.03 376.214 35.11C376.263 35.11 376.322 35.12 376.372 35.12Z" fill="#B02F28"/>
<path d="M377.796 153.16C377.845 153.16 377.905 153.16 377.954 153.15C379.21 153.06 380.149 151.96 380.06 150.7L378.636 130.11C378.547 128.84 377.469 127.89 376.214 127.98C374.958 128.07 374.018 129.17 374.107 130.43L375.531 151.02C375.61 152.23 376.609 153.16 377.796 153.16Z" fill="#B02F28"/>
<path d="M351.108 134.14C353.342 134.14 355.152 132.31 355.152 130.05V33.03C355.152 30.77 353.333 28.94 351.108 28.94H334.684C332.449 28.94 330.639 30.78 330.639 33.03V130.05C330.639 132.31 332.459 134.14 334.684 134.14H351.108Z" fill="#D84E34"/>
<path d="M334.674 30.22H351.098C352.631 30.22 353.876 31.48 353.876 33.03V130.05C353.876 131.6 352.631 132.86 351.098 132.86H334.674C333.141 132.86 331.895 131.6 331.895 130.05V33.03C331.895 31.48 333.141 30.22 334.674 30.22ZM334.674 27.66C331.747 27.66 329.364 30.06 329.364 33.03V130.05C329.364 133.01 331.737 135.42 334.674 135.42H351.098C354.025 135.42 356.408 133.02 356.408 130.05V33.03C356.408 30.07 354.035 27.66 351.098 27.66H334.674Z" fill="#C43E2F"/>
<path d="M342.802 133.46C344.73 133.46 346.292 131.88 346.292 129.93C346.292 127.98 344.73 126.4 342.802 126.4C340.874 126.4 339.311 127.98 339.311 129.93C339.311 131.88 340.874 133.46 342.802 133.46Z" fill="#FF763E"/>
<path d="M342.802 36.65C344.73 36.65 346.292 35.0696 346.292 33.12C346.292 31.1704 344.73 29.59 342.802 29.59C340.874 29.59 339.311 31.1704 339.311 33.12C339.311 35.0696 340.874 36.65 342.802 36.65Z" fill="#FF763E"/>
<path d="M342.802 35.12C344.048 35.12 345.066 34.11 345.076 32.84L345.264 13.87C345.274 12.6 344.265 11.56 343.009 11.55C343 11.55 342.99 11.55 342.99 11.55C341.744 11.55 340.725 12.56 340.715 13.83L340.528 32.8C340.518 34.07 341.526 35.11 342.782 35.12C342.782 35.12 342.792 35.12 342.802 35.12Z" fill="#B02F28"/>
<path d="M342.98 151.53C342.99 151.53 343 151.53 343 151.53C344.255 151.52 345.264 150.48 345.254 149.21L345.066 130.24C345.056 128.98 344.038 127.96 342.792 127.96C342.782 127.96 342.772 127.96 342.772 127.96C341.516 127.97 340.508 129.01 340.518 130.28L340.706 149.25C340.725 150.52 341.734 151.53 342.98 151.53Z" fill="#B02F28"/>
<path d="M319.09 134.14C321.157 134.14 322.838 132.44 322.838 130.35V32.72C322.838 30.63 321.157 28.93 319.09 28.93H301.578C299.512 28.93 297.831 30.63 297.831 32.72V130.35C297.831 132.44 299.512 134.14 301.578 134.14H319.09Z" fill="#D84E34"/>
<path d="M301.578 30.22H319.09C320.455 30.22 321.572 31.35 321.572 32.73V130.36C321.572 131.74 320.455 132.87 319.09 132.87H301.578C300.214 132.87 299.096 131.74 299.096 130.36V32.73C299.096 31.34 300.214 30.22 301.578 30.22ZM301.578 27.66C298.81 27.66 296.575 29.93 296.575 32.72V130.35C296.575 133.15 298.82 135.41 301.578 135.41H319.09C321.859 135.41 324.094 133.14 324.094 130.35V32.72C324.094 29.92 321.849 27.66 319.09 27.66H301.578Z" fill="#C43E2F"/>
<path d="M310.329 133.46C312.257 133.46 313.82 131.88 313.82 129.93C313.82 127.98 312.257 126.4 310.329 126.4C308.402 126.4 306.839 127.98 306.839 129.93C306.839 131.88 308.402 133.46 310.329 133.46Z" fill="#FF763E"/>
<path d="M310.329 36.65C312.257 36.65 313.82 35.0696 313.82 33.12C313.82 31.1704 312.257 29.59 310.329 29.59C308.402 29.59 306.839 31.1704 306.839 33.12C306.839 35.0696 308.402 36.65 310.329 36.65Z" fill="#FF763E"/>
<path d="M310.329 35.12C311.585 35.12 312.604 34.09 312.604 32.82V14.26C312.604 12.99 311.585 11.96 310.329 11.96C309.074 11.96 308.055 12.99 308.055 14.26V32.82C308.055 34.09 309.074 35.12 310.329 35.12Z" fill="#B02F28"/>
<path d="M310.329 151.12C311.585 151.12 312.604 150.09 312.604 148.82V130.26C312.604 128.99 311.585 127.96 310.329 127.96C309.074 127.96 308.055 128.99 308.055 130.26V148.82C308.055 150.09 309.074 151.12 310.329 151.12Z" fill="#B02F28"/>
<path d="M8.01093 154.62C9.01951 154.56 110.145 148.44 241.053 148.44C377.598 148.44 469.132 154.56 470.042 154.62" stroke="#EB6A39" stroke-width="6.6" stroke-miterlimit="10"/>
<path d="M8.01093 8.46002C9.01951 8.52002 110.145 14.64 241.053 14.64C377.598 14.64 469.132 8.52002 470.042 8.46002" stroke="#EB6A39" stroke-width="6.6" stroke-miterlimit="10"/>
<path d="M8.24822 15.14C4.48086 15.14 1.40567 12.03 1.40567 8.21997C1.40567 4.39997 4.47098 1.29999 8.24822 1.29999C9.41502 1.29999 10.562 1.59998 11.5706 2.16998C13.5384 3.26998 14.8436 5.27998 15.0611 7.53998C15.0809 7.77998 15.0908 8.00997 15.0908 8.21997C15.0908 8.83997 15.0117 9.45003 14.8535 10.03C14.0525 13.04 11.3333 15.14 8.24822 15.14Z" fill="#D44C33"/>
<path d="M8.24836 2.57001C9.19762 2.57001 10.137 2.81003 10.9676 3.28003C12.5695 4.18003 13.6275 5.81002 13.8055 7.65002C13.8252 7.85002 13.8351 8.04002 13.8351 8.21002C13.8351 8.72002 13.7659 9.21 13.6374 9.69C12.9848 12.14 10.7698 13.85 8.24836 13.85C5.17317 13.85 2.67148 11.32 2.67148 8.20001C2.67148 5.08001 5.17317 2.57001 8.24836 2.57001ZM8.24836 0.0200195C3.76906 0.0200195 0.150024 3.68997 0.150024 8.21997C0.150024 12.75 3.77895 16.42 8.24836 16.42C11.9959 16.42 15.1404 13.86 16.0698 10.37C16.2577 9.69 16.3566 8.96997 16.3566 8.21997C16.3566 7.94997 16.3368 7.67997 16.317 7.40997C16.0501 4.66997 14.4581 2.31999 12.1937 1.04999C11.017 0.389988 9.68214 0.0200195 8.24836 0.0200195Z" fill="#B02F28"/>
<path d="M8.24822 161.78C4.47098 161.78 1.40567 158.67 1.40567 154.86C1.40567 151.05 4.48086 147.94 8.24822 147.94C12.0255 147.94 15.0908 151.05 15.0908 154.86C15.0908 158.67 12.0255 161.78 8.24822 161.78Z" fill="#D44C33"/>
<path d="M8.24824 149.22C11.3234 149.22 13.8251 151.75 13.8251 154.86C13.8251 157.97 11.3234 160.5 8.24824 160.5C5.17305 160.5 2.67136 157.97 2.67136 154.86C2.67136 151.75 5.17305 149.22 8.24824 149.22ZM8.24824 146.66C3.76894 146.66 0.140015 150.33 0.140015 154.86C0.140015 159.39 3.76894 163.06 8.24824 163.06C12.7275 163.06 16.3565 159.39 16.3565 154.86C16.3565 150.33 12.7275 146.66 8.24824 146.66Z" fill="#B02F28"/>
<path d="M470.032 161.78C466.255 161.78 463.189 158.67 463.189 154.86C463.189 151.05 466.264 147.94 470.032 147.94C473.809 147.94 476.874 151.05 476.874 154.86C476.874 158.67 473.809 161.78 470.032 161.78Z" fill="#D44C33"/>
<path d="M470.032 149.22C473.107 149.22 475.609 151.75 475.609 154.86C475.609 157.97 473.107 160.5 470.032 160.5C466.957 160.5 464.455 157.97 464.455 154.86C464.455 151.75 466.957 149.22 470.032 149.22ZM470.032 146.66C465.552 146.66 461.924 150.33 461.924 154.86C461.924 159.39 465.552 163.06 470.032 163.06C474.511 163.06 478.14 159.39 478.14 154.86C478.14 150.33 474.511 146.66 470.032 146.66Z" fill="#B02F28"/>
<path d="M470.032 15.14C466.255 15.14 463.189 12.03 463.189 8.21997C463.189 4.39997 466.264 1.29999 470.032 1.29999C473.809 1.29999 476.874 4.40997 476.874 8.21997C476.874 12.03 473.809 15.14 470.032 15.14Z" fill="#D44C33"/>
<path d="M470.032 2.57001C473.107 2.57001 475.609 5.10002 475.609 8.21002C475.609 11.32 473.107 13.85 470.032 13.85C466.957 13.85 464.455 11.32 464.455 8.21002C464.455 5.10002 466.957 2.57001 470.032 2.57001ZM470.032 0.0200195C465.552 0.0200195 461.924 3.68997 461.924 8.21997C461.924 12.75 465.552 16.42 470.032 16.42C474.511 16.42 478.14 12.75 478.14 8.21997C478.14 3.68997 474.511 0.0200195 470.032 0.0200195Z" fill="#B02F28"/>
</svg>
