<svg width="801" height="273" viewBox="0 0 801 273" fill="none" xmlns="http://www.w3.org/2000/svg">
<path d="M37.6651 224.23C33.7728 224.23 30.6154 221.04 30.6154 217.13V56C30.6154 52.08 33.7827 48.9 37.6651 48.9H65.4972C69.3895 48.9 72.5471 52.09 72.5471 56V217.13C72.5471 221.05 69.3795 224.23 65.4972 224.23H37.6651Z" fill="#7A542D"/>
<path d="M65.4972 51.02C68.2178 51.02 70.432 53.25 70.432 55.99V217.12C70.432 219.86 68.2178 222.09 65.4972 222.09H37.6651C34.9444 222.09 32.7302 219.86 32.7302 217.12V55.99C32.7302 53.25 34.9444 51.02 37.6651 51.02H65.4972V51.02ZM65.4972 46.76H37.6651C32.6011 46.76 28.5003 50.89 28.5003 55.99V217.12C28.5003 222.22 32.6011 226.35 37.6651 226.35H65.4972C70.5611 226.35 74.6619 222.22 74.6619 217.12V55.99C74.6619 50.89 70.5611 46.76 65.4972 46.76Z" fill="#634425"/>
<path d="M51.5861 223.08C54.8106 223.08 57.4247 220.447 57.4247 217.2C57.4247 213.953 54.8106 211.32 51.5861 211.32C48.3616 211.32 45.7477 213.953 45.7477 217.2C45.7477 220.447 48.3616 223.08 51.5861 223.08Z" fill="#A67C52"/>
<path d="M51.5861 61.74C54.8106 61.74 57.4247 59.1074 57.4247 55.86C57.4247 52.6126 54.8106 49.98 51.5861 49.98C48.3616 49.98 45.7477 52.6126 45.7477 55.86C45.7477 59.1074 48.3616 61.74 51.5861 61.74Z" fill="#A67C52"/>
<path d="M51.5761 59.18C49.6895 59.18 48.0511 57.7599 47.8029 55.8199L42.9574 16.91C42.6993 14.81 44.1788 12.89 46.264 12.63C48.3492 12.36 50.2556 13.8499 50.5138 15.9599L55.3592 54.87C55.6174 56.97 54.1378 58.89 52.0527 59.15C51.8938 59.18 51.7349 59.18 51.5761 59.18Z" fill="#4A3A2B"/>
<path d="M46.7406 260.5C46.5817 260.5 46.4229 260.49 46.264 260.47C44.1788 260.21 42.6993 258.29 42.9574 256.19L47.8029 217.28C48.061 215.18 49.9675 213.69 52.0527 213.95C54.1378 214.21 55.6174 216.13 55.3592 218.23L50.5138 257.14C50.2755 259.08 48.6371 260.5 46.7406 260.5Z" fill="#4A3A2B"/>
<path d="M92.793 224.23C88.9007 224.23 85.7433 221.04 85.7433 217.13V56C85.7433 52.08 88.9106 48.9 92.793 48.9H129.869C133.762 48.9 136.919 52.09 136.919 56V217.13C136.919 221.05 133.752 224.23 129.869 224.23H92.793Z" fill="#7A542D"/>
<path d="M129.869 51.02C132.59 51.02 134.804 53.25 134.804 55.99V217.12C134.804 219.86 132.59 222.09 129.869 222.09H92.793C90.0723 222.09 87.8581 219.86 87.8581 217.12V55.99C87.8581 53.25 90.0723 51.02 92.793 51.02H129.869V51.02ZM129.869 46.76H92.793C87.729 46.76 83.6282 50.89 83.6282 55.99V217.12C83.6282 222.22 87.729 226.35 92.793 226.35H129.869C134.933 226.35 139.034 222.22 139.034 217.12V55.99C139.034 50.89 134.933 46.76 129.869 46.76Z" fill="#634425"/>
<path d="M111.331 223.08C114.556 223.08 117.17 220.447 117.17 217.2C117.17 213.953 114.556 211.32 111.331 211.32C108.107 211.32 105.493 213.953 105.493 217.2C105.493 220.447 108.107 223.08 111.331 223.08Z" fill="#A67C52"/>
<path d="M111.331 61.74C114.556 61.74 117.17 59.1074 117.17 55.86C117.17 52.6126 114.556 49.98 111.331 49.98C108.107 49.98 105.493 52.6126 105.493 55.86C105.493 59.1074 108.107 61.74 111.331 61.74Z" fill="#A67C52"/>
<path d="M111.331 59.1801C109.385 59.1801 107.717 57.68 107.548 55.69L104.351 19.35C104.162 17.24 105.711 15.38 107.806 15.19C109.892 15.01 111.748 16.5601 111.937 18.6701L115.134 55.0101C115.323 57.1201 113.774 58.9801 111.679 59.1701C111.56 59.1801 111.441 59.1801 111.331 59.1801Z" fill="#4A3A2B"/>
<path d="M108.134 257.94C108.025 257.94 107.906 257.94 107.796 257.93C105.701 257.74 104.152 255.88 104.341 253.77L107.538 217.43C107.727 215.32 109.574 213.78 111.669 213.95C113.764 214.14 115.313 216 115.124 218.11L111.927 254.45C111.748 256.44 110.09 257.94 108.134 257.94Z" fill="#4A3A2B"/>
<path d="M156.887 224.23C153.154 224.23 150.115 221.17 150.115 217.41V55.71C150.115 51.95 153.154 48.89 156.887 48.89H184.382C188.115 48.89 191.153 51.95 191.153 55.71V217.41C191.153 221.17 188.115 224.23 184.382 224.23H156.887Z" fill="#7A542D"/>
<path d="M184.382 51.02C186.953 51.02 189.038 53.12 189.038 55.71V217.41C189.038 220 186.953 222.1 184.382 222.1H156.887C154.315 222.1 152.23 220 152.23 217.41V55.71C152.23 53.12 154.315 51.02 156.887 51.02H184.382V51.02ZM184.382 46.76H156.887C151.982 46.76 148 50.77 148 55.71V217.41C148 222.35 151.982 226.36 156.887 226.36H184.382C189.287 226.36 193.268 222.35 193.268 217.41V55.71C193.258 50.77 189.287 46.76 184.382 46.76Z" fill="#634425"/>
<path d="M170.63 223.08C173.854 223.08 176.468 220.447 176.468 217.2C176.468 213.953 173.854 211.32 170.63 211.32C167.405 211.32 164.791 213.953 164.791 217.2C164.791 220.447 167.405 223.08 170.63 223.08Z" fill="#A67C52"/>
<path d="M170.63 61.74C173.854 61.74 176.468 59.1074 176.468 55.86C176.468 52.6126 173.854 49.98 170.63 49.98C167.405 49.98 164.791 52.6126 164.791 55.86C164.791 59.1074 167.405 61.74 170.63 61.74Z" fill="#A67C52"/>
<path d="M170.63 59.18C168.654 59.18 166.975 57.6399 166.836 55.6199L164.453 21.3C164.305 19.19 165.883 17.3599 167.988 17.2099C170.083 17.0799 171.9 18.65 172.049 20.77L174.432 55.0899C174.581 57.1999 173.003 59.03 170.898 59.18C170.808 59.18 170.719 59.18 170.63 59.18Z" fill="#4A3A2B"/>
<path d="M168.256 255.92C168.167 255.92 168.078 255.92 167.988 255.91C165.893 255.76 164.314 253.93 164.453 251.82L166.836 217.5C166.985 215.39 168.783 213.81 170.898 213.94C172.993 214.09 174.571 215.92 174.432 218.03L172.049 252.35C171.91 254.37 170.232 255.92 168.256 255.92Z" fill="#4A3A2B"/>
<path d="M211.389 224.23C207.656 224.23 204.618 221.17 204.618 217.41V55.71C204.618 51.95 207.656 48.89 211.389 48.89H238.884C242.617 48.89 245.656 51.95 245.656 55.71V217.41C245.656 221.17 242.617 224.23 238.884 224.23H211.389Z" fill="#7A542D"/>
<path d="M238.884 51.02C241.456 51.02 243.541 53.12 243.541 55.71V217.41C243.541 220 241.456 222.1 238.884 222.1H211.389C208.818 222.1 206.733 220 206.733 217.41V55.71C206.733 53.12 208.818 51.02 211.389 51.02H238.884V51.02ZM238.884 46.76H211.389C206.484 46.76 202.503 50.77 202.503 55.71V217.41C202.503 222.35 206.484 226.36 211.389 226.36H238.884C243.789 226.36 247.771 222.35 247.771 217.41V55.71C247.771 50.77 243.799 46.76 238.884 46.76Z" fill="#634425"/>
<path d="M225.291 223.08C228.515 223.08 231.129 220.447 231.129 217.2C231.129 213.953 228.515 211.32 225.291 211.32C222.066 211.32 219.452 213.953 219.452 217.2C219.452 220.447 222.066 223.08 225.291 223.08Z" fill="#A67C52"/>
<path d="M225.291 61.74C228.515 61.74 231.129 59.1074 231.129 55.86C231.129 52.6126 228.515 49.98 225.291 49.98C222.066 49.98 219.452 52.6126 219.452 55.86C219.452 59.1074 222.066 61.74 225.291 61.74Z" fill="#A67C52"/>
<path d="M225.29 59.1801C223.205 59.1801 221.508 57.49 221.488 55.39L221.18 23.77C221.16 21.65 222.848 19.92 224.943 19.9C224.953 19.9 224.973 19.9 224.983 19.9C227.068 19.9 228.766 21.5899 228.786 23.6899L229.093 55.3101C229.113 57.4301 227.425 59.1601 225.33 59.1801C225.32 59.1801 225.31 59.1801 225.29 59.1801Z" fill="#4A3A2B"/>
<path d="M224.983 253.21C224.973 253.21 224.953 253.21 224.943 253.21C222.838 253.19 221.16 251.46 221.18 249.34L221.488 217.72C221.508 215.62 223.205 213.93 225.29 213.93C225.3 213.93 225.32 213.93 225.33 213.93C227.435 213.95 229.113 215.68 229.093 217.8L228.786 249.42C228.766 251.52 227.068 253.21 224.983 253.21Z" fill="#4A3A2B"/>
<path d="M329.738 224.22C326.282 224.22 323.472 221.39 323.472 217.91V55.2C323.472 51.72 326.282 48.89 329.738 48.89H359.049C362.505 48.89 365.315 51.72 365.315 55.2V217.92C365.315 221.4 362.505 224.23 359.049 224.23H329.738V224.22Z" fill="#7A542D"/>
<path d="M359.039 51.02C361.333 51.02 363.19 52.9 363.19 55.2V217.92C363.19 220.23 361.323 222.1 359.039 222.1H329.728C327.434 222.1 325.577 220.22 325.577 217.92V55.2C325.577 52.89 327.444 51.02 329.728 51.02H359.039ZM359.039 46.76H329.728C325.101 46.76 321.347 50.54 321.347 55.2V217.92C321.347 222.58 325.101 226.36 329.728 226.36H359.039C363.666 226.36 367.42 222.58 367.42 217.92V55.2C367.42 50.54 363.666 46.76 359.039 46.76Z" fill="#634425"/>
<path d="M344.384 223.08C347.608 223.08 350.222 220.447 350.222 217.2C350.222 213.953 347.608 211.32 344.384 211.32C341.159 211.32 338.545 213.953 338.545 217.2C338.545 220.447 341.159 223.08 344.384 223.08Z" fill="#A67C52"/>
<path d="M344.384 61.74C347.608 61.74 350.222 59.1074 350.222 55.86C350.222 52.6126 347.608 49.98 344.384 49.98C341.159 49.98 338.545 52.6126 338.545 55.86C338.545 59.1074 341.159 61.74 344.384 61.74Z" fill="#A67C52"/>
<path d="M344.384 59.1801C342.279 59.1801 340.581 57.46 340.581 55.35V24.63C340.581 22.51 342.289 20.8 344.384 20.8C346.489 20.8 348.186 22.52 348.186 24.63V55.35C348.196 57.47 346.489 59.1801 344.384 59.1801Z" fill="#4A3A2B"/>
<path d="M344.384 252.31C342.279 252.31 340.581 250.59 340.581 248.48V217.76C340.581 215.64 342.289 213.93 344.384 213.93C346.489 213.93 348.186 215.65 348.186 217.76V248.48C348.196 250.6 346.489 252.31 344.384 252.31Z" fill="#4A3A2B"/>
<path d="M479.403 224.22C482.859 224.22 485.669 221.39 485.669 217.91V55.2C485.669 51.72 482.859 48.89 479.403 48.89H450.092C446.636 48.89 443.826 51.72 443.826 55.2V217.92C443.826 221.4 446.636 224.23 450.092 224.23H479.403V224.22Z" fill="#7A542D"/>
<path d="M450.092 51.02H479.403C481.697 51.02 483.554 52.9 483.554 55.2V217.92C483.554 220.23 481.687 222.1 479.403 222.1H450.092C447.798 222.1 445.941 220.22 445.941 217.92V55.2C445.941 52.89 447.808 51.02 450.092 51.02ZM450.092 46.76C445.465 46.76 441.711 50.54 441.711 55.2V217.92C441.711 222.58 445.465 226.36 450.092 226.36H479.403C484.03 226.36 487.784 222.58 487.784 217.92V55.2C487.784 50.54 484.03 46.76 479.403 46.76H450.092Z" fill="#634425"/>
<path d="M464.747 223.08C467.972 223.08 470.586 220.447 470.586 217.2C470.586 213.953 467.972 211.32 464.747 211.32C461.523 211.32 458.909 213.953 458.909 217.2C458.909 220.447 461.523 223.08 464.747 223.08Z" fill="#A67C52"/>
<path d="M464.747 61.74C467.972 61.74 470.586 59.1074 470.586 55.86C470.586 52.6126 467.972 49.98 464.747 49.98C461.523 49.98 458.909 52.6126 458.909 55.86C458.909 59.1074 461.523 61.74 464.747 61.74Z" fill="#A67C52"/>
<path d="M464.747 59.1801C466.852 59.1801 468.55 57.46 468.55 55.35V24.63C468.55 22.51 466.842 20.8 464.747 20.8C462.652 20.8 460.945 22.52 460.945 24.63V55.35C460.945 57.47 462.642 59.1801 464.747 59.1801Z" fill="#4A3A2B"/>
<path d="M464.747 252.31C466.852 252.31 468.55 250.59 468.55 248.48V217.76C468.55 215.64 466.842 213.93 464.747 213.93C462.652 213.93 460.945 215.65 460.945 217.76V248.48C460.945 250.6 462.642 252.31 464.747 252.31Z" fill="#4A3A2B"/>
<path d="M386.613 224.22C382.721 224.22 379.563 221.03 379.563 217.12V55.99C379.563 52.07 382.731 48.89 386.613 48.89H423.69C427.582 48.89 430.739 52.08 430.739 55.99V217.12C430.739 221.04 427.572 224.22 423.69 224.22H386.613Z" fill="#7A542D"/>
<path d="M423.69 51.02C426.41 51.02 428.624 53.25 428.624 55.99V217.12C428.624 219.86 426.41 222.09 423.69 222.09H386.613C383.893 222.09 381.678 219.86 381.678 217.12V55.99C381.678 53.25 383.893 51.02 386.613 51.02H423.69V51.02ZM423.69 46.76H386.613C381.549 46.76 377.448 50.89 377.448 55.99V217.12C377.448 222.22 381.549 226.35 386.613 226.35H423.69C428.754 226.35 432.854 222.22 432.854 217.12V55.99C432.854 50.89 428.754 46.76 423.69 46.76Z" fill="#634425"/>
<path d="M405.151 223.08C408.376 223.08 410.99 220.447 410.99 217.2C410.99 213.953 408.376 211.32 405.151 211.32C401.927 211.32 399.313 213.953 399.313 217.2C399.313 220.447 401.927 223.08 405.151 223.08Z" fill="#A67C52"/>
<path d="M405.151 61.74C408.376 61.74 410.99 59.1074 410.99 55.86C410.99 52.6126 408.376 49.98 405.151 49.98C401.927 49.98 399.313 52.6126 399.313 55.86C399.313 59.1074 401.927 61.74 405.151 61.74Z" fill="#A67C52"/>
<path d="M405.151 59.1801C403.046 59.1801 401.348 57.46 401.348 55.35V24.63C401.348 22.51 403.056 20.8 405.151 20.8C407.246 20.8 408.954 22.52 408.954 24.63V55.35C408.954 57.47 407.256 59.1801 405.151 59.1801Z" fill="#4A3A2B"/>
<path d="M405.151 252.31C403.046 252.31 401.348 250.59 401.348 248.48V217.76C401.348 215.64 403.056 213.93 405.151 213.93C407.246 213.93 408.954 215.65 408.954 217.76V248.48C408.954 250.6 407.256 252.31 405.151 252.31Z" fill="#4A3A2B"/>
<path d="M266.537 224.22C262.645 224.22 259.487 221.03 259.487 217.12V55.99C259.487 52.07 262.655 48.89 266.537 48.89H303.614C307.506 48.89 310.664 52.08 310.664 55.99V217.12C310.664 221.04 307.496 224.22 303.614 224.22H266.537Z" fill="#7A542D"/>
<path d="M303.614 51.02C306.334 51.02 308.548 53.25 308.548 55.99V217.12C308.548 219.86 306.334 222.09 303.614 222.09H266.537C263.817 222.09 261.602 219.86 261.602 217.12V55.99C261.602 53.25 263.817 51.02 266.537 51.02H303.614V51.02ZM303.614 46.76H266.537C261.473 46.76 257.372 50.89 257.372 55.99V217.12C257.372 222.22 261.473 226.35 266.537 226.35H303.614C308.678 226.35 312.778 222.22 312.778 217.12V55.99C312.778 50.89 308.678 46.76 303.614 46.76Z" fill="#634425"/>
<path d="M285.075 223.08C288.3 223.08 290.914 220.447 290.914 217.2C290.914 213.953 288.3 211.32 285.075 211.32C281.851 211.32 279.237 213.953 279.237 217.2C279.237 220.447 281.851 223.08 285.075 223.08Z" fill="#A67C52"/>
<path d="M285.075 61.74C288.3 61.74 290.914 59.1074 290.914 55.86C290.914 52.6126 288.3 49.98 285.075 49.98C281.851 49.98 279.237 52.6126 279.237 55.86C279.237 59.1074 281.851 61.74 285.075 61.74Z" fill="#A67C52"/>
<path d="M285.075 59.1801C282.97 59.1801 281.272 57.46 281.272 55.35V24.42C281.272 22.3 282.98 20.59 285.075 20.59C287.171 20.59 288.878 22.31 288.878 24.42V55.35C288.878 57.47 287.181 59.1801 285.075 59.1801Z" fill="#4A3A2B"/>
<path d="M285.075 252.52C282.97 252.52 281.272 250.8 281.272 248.69V217.76C281.272 215.64 282.98 213.93 285.075 213.93C287.171 213.93 288.878 215.65 288.878 217.76V248.69C288.878 250.81 287.181 252.52 285.075 252.52Z" fill="#4A3A2B"/>
<path d="M763.651 224.23C767.544 224.23 770.701 221.04 770.701 217.13V56C770.701 52.08 767.534 48.9 763.651 48.9H735.819C731.927 48.9 728.77 52.09 728.77 56V217.13C728.77 221.05 731.937 224.23 735.819 224.23H763.651Z" fill="#7A542D"/>
<path d="M735.819 51.02H763.651C766.372 51.02 768.586 53.25 768.586 55.99V217.12C768.586 219.86 766.372 222.09 763.651 222.09H735.819C733.099 222.09 730.885 219.86 730.885 217.12V55.99C730.875 53.25 733.099 51.02 735.819 51.02ZM735.819 46.76C730.755 46.76 726.654 50.89 726.654 55.99V217.12C726.654 222.22 730.755 226.35 735.819 226.35H763.651C768.715 226.35 772.816 222.22 772.816 217.12V55.99C772.816 50.89 768.715 46.76 763.651 46.76H735.819V46.76Z" fill="#634425"/>
<path d="M749.731 223.08C752.955 223.08 755.569 220.447 755.569 217.2C755.569 213.953 752.955 211.32 749.731 211.32C746.506 211.32 743.892 213.953 743.892 217.2C743.892 220.447 746.506 223.08 749.731 223.08Z" fill="#A67C52"/>
<path d="M749.731 61.74C752.955 61.74 755.569 59.1074 755.569 55.86C755.569 52.6126 752.955 49.98 749.731 49.98C746.506 49.98 743.892 52.6126 743.892 55.86C743.892 59.1074 746.506 61.74 749.731 61.74Z" fill="#A67C52"/>
<path d="M749.74 59.18C751.627 59.18 753.266 57.7599 753.514 55.8199L758.359 16.91C758.617 14.81 757.138 12.89 755.053 12.63C752.967 12.36 751.061 13.8499 750.803 15.9599L745.957 54.87C745.699 56.97 747.179 58.89 749.264 59.15C749.423 59.18 749.581 59.18 749.74 59.18Z" fill="#4A3A2B"/>
<path d="M754.576 260.5C754.735 260.5 754.894 260.49 755.053 260.47C757.138 260.21 758.617 258.29 758.359 256.19L753.514 217.28C753.256 215.18 751.349 213.69 749.264 213.95C747.179 214.21 745.699 216.13 745.957 218.23L750.803 257.14C751.041 259.08 752.68 260.5 754.576 260.5Z" fill="#4A3A2B"/>
<path d="M708.524 224.22C712.416 224.22 715.574 221.03 715.574 217.12V55.99C715.574 52.07 712.406 48.89 708.524 48.89H671.447C667.555 48.89 664.398 52.08 664.398 55.99V217.12C664.398 221.04 667.565 224.22 671.447 224.22H708.524Z" fill="#7A542D"/>
<path d="M671.447 51.02H708.524C711.244 51.02 713.458 53.25 713.458 55.99V217.12C713.458 219.86 711.244 222.09 708.524 222.09H671.447C668.727 222.09 666.512 219.86 666.512 217.12V55.99C666.512 53.25 668.727 51.02 671.447 51.02ZM671.447 46.76C666.383 46.76 662.283 50.89 662.283 55.99V217.12C662.283 222.22 666.383 226.35 671.447 226.35H708.524C713.588 226.35 717.688 222.22 717.688 217.12V55.99C717.688 50.89 713.588 46.76 708.524 46.76H671.447V46.76Z" fill="#634425"/>
<path d="M689.986 223.08C693.21 223.08 695.824 220.447 695.824 217.2C695.824 213.953 693.21 211.32 689.986 211.32C686.761 211.32 684.147 213.953 684.147 217.2C684.147 220.447 686.761 223.08 689.986 223.08Z" fill="#A67C52"/>
<path d="M689.986 61.73C693.21 61.73 695.824 59.0974 695.824 55.85C695.824 52.6025 693.21 49.97 689.986 49.97C686.761 49.97 684.147 52.6025 684.147 55.85C684.147 59.0974 686.761 61.73 689.986 61.73Z" fill="#A67C52"/>
<path d="M689.986 59.1801C691.932 59.1801 693.6 57.68 693.769 55.69L696.966 19.35C697.154 17.24 695.605 15.38 693.51 15.19C691.425 15.01 689.568 16.5601 689.38 18.6701L686.183 55.0101C685.994 57.1201 687.543 58.9801 689.638 59.1701C689.767 59.1801 689.876 59.1801 689.986 59.1801Z" fill="#4A3A2B"/>
<path d="M693.183 257.94C693.292 257.94 693.411 257.94 693.52 257.93C695.616 257.74 697.165 255.88 696.976 253.77L693.778 217.43C693.59 215.32 691.743 213.78 689.648 213.95C687.552 214.14 686.004 216 686.192 218.11L689.39 254.45C689.568 256.44 691.236 257.94 693.183 257.94Z" fill="#4A3A2B"/>
<path d="M643.843 224.22C647.577 224.22 650.616 221.16 650.616 217.4V55.7C650.616 51.94 647.577 48.88 643.843 48.88H616.349C612.616 48.88 609.577 51.94 609.577 55.7V217.4C609.577 221.16 612.616 224.22 616.349 224.22H643.843Z" fill="#7A542D"/>
<path d="M616.349 51.02H643.844C646.415 51.02 648.5 53.12 648.5 55.71V217.41C648.5 220 646.415 222.1 643.844 222.1H616.349C613.777 222.1 611.692 220 611.692 217.41V55.71C611.692 53.12 613.787 51.02 616.349 51.02ZM616.349 46.76C611.444 46.76 607.462 50.77 607.462 55.71V217.41C607.462 222.35 611.444 226.36 616.349 226.36H643.844C648.749 226.36 652.731 222.35 652.731 217.41V55.71C652.731 50.77 648.749 46.76 643.844 46.76H616.349V46.76Z" fill="#634425"/>
<path d="M630.101 223.08C633.326 223.08 635.94 220.447 635.94 217.2C635.94 213.953 633.326 211.32 630.101 211.32C626.877 211.32 624.263 213.953 624.263 217.2C624.263 220.447 626.877 223.08 630.101 223.08Z" fill="#A67C52"/>
<path d="M630.101 61.73C633.326 61.73 635.94 59.0974 635.94 55.85C635.94 52.6025 633.326 49.97 630.101 49.97C626.877 49.97 624.263 52.6025 624.263 55.85C624.263 59.0974 626.877 61.73 630.101 61.73Z" fill="#A67C52"/>
<path d="M630.101 59.18C632.077 59.18 633.755 57.6399 633.894 55.6199L636.277 21.3C636.426 19.19 634.848 17.3599 632.743 17.2099C630.648 17.0799 628.83 18.65 628.681 20.77L626.298 55.0899C626.149 57.1999 627.728 59.03 629.833 59.18C629.923 59.18 630.012 59.18 630.101 59.18Z" fill="#4A3A2B"/>
<path d="M632.474 255.92C632.564 255.92 632.653 255.92 632.743 255.91C634.838 255.76 636.416 253.93 636.277 251.82L633.894 217.5C633.745 215.39 631.948 213.81 629.833 213.94C627.738 214.09 626.159 215.92 626.298 218.03L628.681 252.35C628.82 254.37 630.498 255.92 632.474 255.92Z" fill="#4A3A2B"/>
<path d="M587.812 224.22C591.546 224.22 594.584 221.16 594.584 217.4V55.7C594.584 51.94 591.546 48.88 587.812 48.88H560.317C556.584 48.88 553.546 51.94 553.546 55.7V217.4C553.546 221.16 556.584 224.22 560.317 224.22H587.812Z" fill="#7A542D"/>
<path d="M560.317 51.02H587.812C590.384 51.02 592.469 53.12 592.469 55.71V217.41C592.469 220 590.384 222.1 587.812 222.1H560.317C557.746 222.1 555.661 220 555.661 217.41V55.71C555.661 53.12 557.746 51.02 560.317 51.02ZM560.317 46.76C555.412 46.76 551.431 50.77 551.431 55.71V217.41C551.431 222.35 555.412 226.36 560.317 226.36H587.812C592.717 226.36 596.699 222.35 596.699 217.41V55.71C596.699 50.77 592.717 46.76 587.812 46.76H560.317V46.76Z" fill="#634425"/>
<path d="M573.911 223.08C577.136 223.08 579.75 220.447 579.75 217.2C579.75 213.953 577.136 211.32 573.911 211.32C570.687 211.32 568.072 213.953 568.072 217.2C568.072 220.447 570.687 223.08 573.911 223.08Z" fill="#A67C52"/>
<path d="M573.911 61.73C577.136 61.73 579.75 59.0974 579.75 55.85C579.75 52.6025 577.136 49.97 573.911 49.97C570.687 49.97 568.072 52.6025 568.072 55.85C568.072 59.0974 570.687 61.73 573.911 61.73Z" fill="#A67C52"/>
<path d="M573.911 59.1801C575.997 59.1801 577.694 57.49 577.714 55.39L578.022 23.77C578.042 21.65 576.354 19.92 574.259 19.9C574.249 19.9 574.229 19.9 574.219 19.9C572.134 19.9 570.436 21.5899 570.416 23.6899L570.108 55.3101C570.088 57.4301 571.777 59.1601 573.872 59.1801C573.891 59.1801 573.901 59.1801 573.911 59.1801Z" fill="#4A3A2B"/>
<path d="M574.219 253.21C574.229 253.21 574.249 253.21 574.259 253.21C576.364 253.19 578.042 251.46 578.022 249.34L577.714 217.72C577.694 215.62 575.997 213.93 573.911 213.93C573.901 213.93 573.882 213.93 573.872 213.93C571.767 213.95 570.089 215.68 570.108 217.8L570.416 249.42C570.436 251.52 572.134 253.21 574.219 253.21Z" fill="#4A3A2B"/>
<path d="M534.223 224.22C537.679 224.22 540.489 221.39 540.489 217.91V55.2C540.489 51.72 537.679 48.89 534.223 48.89H504.912C501.456 48.89 498.646 51.72 498.646 55.2V217.92C498.646 221.4 501.456 224.23 504.912 224.23H534.223V224.22Z" fill="#7A542D"/>
<path d="M504.921 51.02H534.233C536.527 51.02 538.384 52.9 538.384 55.2V217.92C538.384 220.23 536.517 222.1 534.233 222.1H504.921C502.628 222.1 500.771 220.22 500.771 217.92V55.2C500.771 52.89 502.628 51.02 504.921 51.02ZM504.921 46.76C500.294 46.76 496.541 50.54 496.541 55.2V217.92C496.541 222.58 500.294 226.36 504.921 226.36H534.233C538.86 226.36 542.614 222.58 542.614 217.92V55.2C542.614 50.54 538.86 46.76 534.233 46.76H504.921Z" fill="#634425"/>
<path d="M519.577 223.08C522.802 223.08 525.416 220.447 525.416 217.2C525.416 213.953 522.802 211.32 519.577 211.32C516.353 211.32 513.739 213.953 513.739 217.2C513.739 220.447 516.353 223.08 519.577 223.08Z" fill="#A67C52"/>
<path d="M519.577 61.73C522.802 61.73 525.416 59.0974 525.416 55.85C525.416 52.6025 522.802 49.97 519.577 49.97C516.353 49.97 513.739 52.6025 513.739 55.85C513.739 59.0974 516.353 61.73 519.577 61.73Z" fill="#A67C52"/>
<path d="M519.577 59.1801C521.683 59.1801 523.381 57.46 523.381 55.35V24.42C523.381 22.3 521.673 20.59 519.577 20.59C517.482 20.59 515.774 22.31 515.774 24.42V55.35C515.774 57.47 517.472 59.1801 519.577 59.1801Z" fill="#4A3A2B"/>
<path d="M519.577 252.52C521.683 252.52 523.381 250.8 523.381 248.69V217.76C523.381 215.64 521.673 213.93 519.577 213.93C517.482 213.93 515.774 215.65 515.774 217.76V248.69C515.774 250.81 517.472 252.52 519.577 252.52Z" fill="#4A3A2B"/>
<path d="M13.5963 258.36C15.2843 258.26 184.531 248.07 403.612 248.07C632.137 248.07 785.327 258.27 786.846 258.37" stroke="#8F704D" stroke-width="11" stroke-miterlimit="10"/>
<path d="M13.5963 14.76C15.2843 14.86 184.531 25.05 403.612 25.05C632.137 25.05 785.327 14.85 786.846 14.75" stroke="#8F704D" stroke-width="11" stroke-miterlimit="10"/>
<path d="M13.9936 25.89C7.67853 25.89 2.54501 20.71 2.54501 14.35C2.54501 7.98998 7.67853 2.81006 13.9936 2.81006C15.9497 2.81006 17.8659 3.31001 19.5539 4.26001C22.8505 6.10001 25.0251 9.43996 25.3925 13.21C25.4322 13.61 25.4519 13.99 25.4519 14.35C25.4519 15.39 25.3229 16.4 25.0548 17.36C23.7144 22.39 19.1668 25.89 13.9936 25.89Z" fill="#75512B"/>
<path d="M13.9936 4.94995C15.5823 4.94995 17.151 5.36001 18.5411 6.14001C21.222 7.64001 22.9994 10.3601 23.2874 13.4301C23.3172 13.7701 23.3371 14.08 23.3371 14.37C23.3371 15.21 23.2278 16.04 23.0093 16.84C21.9171 20.93 18.2136 23.78 13.9936 23.78C8.8502 23.78 4.65986 19.56 4.65986 14.37C4.65986 9.17 8.8502 4.94995 13.9936 4.94995ZM13.9936 0.689941C6.50686 0.689941 0.429932 6.79999 0.429932 14.36C0.429932 21.9 6.49693 28.03 13.9936 28.03C20.259 28.03 25.5315 23.7599 27.0904 17.9399C27.3982 16.7999 27.567 15.6 27.567 14.36C27.567 13.91 27.5371 13.46 27.4974 13.01C27.0605 8.44001 24.3896 4.53003 20.5866 2.41003C18.6405 1.31003 16.3866 0.689941 13.9936 0.689941Z" fill="#4A3A2B"/>
<path d="M14.0036 270.3C7.68847 270.3 2.54501 265.12 2.54501 258.76C2.54501 252.4 7.68847 247.22 14.0036 247.22C20.3186 247.22 25.4618 252.4 25.4618 258.76C25.4618 265.12 20.3186 270.3 14.0036 270.3Z" fill="#75512B"/>
<path d="M14.0036 249.35C19.1569 249.35 23.347 253.57 23.347 258.76C23.347 263.95 19.1569 268.17 14.0036 268.17C8.85021 268.17 4.65986 263.95 4.65986 258.76C4.65986 253.57 8.85021 249.35 14.0036 249.35ZM14.0036 245.1C6.50687 245.1 0.429932 251.22 0.429932 258.77C0.429932 266.32 6.50687 272.44 14.0036 272.44C21.5002 272.44 27.5769 266.32 27.5769 258.77C27.5769 251.22 21.5002 245.1 14.0036 245.1Z" fill="#4A3A2B"/>
<path d="M786.857 270.3C780.541 270.3 775.398 265.12 775.398 258.76C775.398 252.4 780.541 247.22 786.857 247.22C793.172 247.22 798.315 252.4 798.315 258.76C798.315 265.12 793.172 270.3 786.857 270.3Z" fill="#75512B"/>
<path d="M786.857 249.35C792.01 249.35 796.2 253.57 796.2 258.76C796.2 263.95 792.01 268.17 786.857 268.17C781.703 268.17 777.513 263.95 777.513 258.76C777.513 253.57 781.703 249.35 786.857 249.35ZM786.857 245.1C779.36 245.1 773.283 251.22 773.283 258.77C773.283 266.32 779.36 272.44 786.857 272.44C794.353 272.44 800.43 266.32 800.43 258.77C800.43 251.22 794.343 245.1 786.857 245.1Z" fill="#4A3A2B"/>
<path d="M786.857 25.89C780.541 25.89 775.398 20.71 775.398 14.35C775.398 7.98998 780.541 2.81006 786.857 2.81006C793.172 2.81006 798.315 7.98998 798.315 14.35C798.305 20.71 793.172 25.89 786.857 25.89Z" fill="#75512B"/>
<path d="M786.857 4.93994C792.01 4.93994 796.2 9.15998 796.2 14.35C796.2 19.54 792.01 23.76 786.857 23.76C781.703 23.76 777.513 19.54 777.513 14.35C777.513 9.16998 781.703 4.93994 786.857 4.93994ZM786.857 0.689941C779.36 0.689941 773.283 6.80999 773.283 14.36C773.283 21.91 779.36 28.03 786.857 28.03C794.353 28.03 800.43 21.91 800.43 14.36C800.42 6.80999 794.343 0.689941 786.857 0.689941Z" fill="#4A3A2B"/>
</svg>
