<svg width="630" height="272" viewBox="0 0 630 272" fill="none" xmlns="http://www.w3.org/2000/svg">
<path d="M37.6476 223.54C33.7122 223.54 30.5197 220.35 30.5197 216.44V55.3C30.5197 51.38 33.7222 48.2 37.6476 48.2H65.7879C69.7234 48.2 72.9159 51.39 72.9159 55.3V216.43C72.9159 220.35 69.7133 223.53 65.7879 223.53H37.6476V223.54Z" fill="#7A542D"/>
<path d="M65.798 50.33C68.5488 50.33 70.7875 52.56 70.7875 55.3V216.43C70.7875 219.17 68.5488 221.4 65.798 221.4H37.6576C34.9069 221.4 32.6681 219.17 32.6681 216.43V55.3C32.6681 52.56 34.9069 50.33 37.6576 50.33H65.798ZM65.798 46.07H37.6576C32.5376 46.07 28.3913 50.2 28.3913 55.3V216.43C28.3913 221.53 32.5376 225.66 37.6576 225.66H65.798C70.9181 225.66 75.0643 221.53 75.0643 216.43V55.3C75.0643 50.21 70.9181 46.07 65.798 46.07Z" fill="#634425"/>
<path d="M51.7228 222.39C54.983 222.39 57.6259 219.757 57.6259 216.51C57.6259 213.263 54.983 210.63 51.7228 210.63C48.4626 210.63 45.8196 213.263 45.8196 216.51C45.8196 219.757 48.4626 222.39 51.7228 222.39Z" fill="#A67C52"/>
<path d="M51.7228 61.05C54.983 61.05 57.6259 58.4175 57.6259 55.17C57.6259 51.9226 54.983 49.29 51.7228 49.29C48.4626 49.29 45.8196 51.9226 45.8196 55.17C45.8196 58.4175 48.4626 61.05 51.7228 61.05Z" fill="#A67C52"/>
<path d="M51.7228 58.5001C49.8153 58.5001 48.1588 57.08 47.9078 55.14L43.0086 16.2301C42.7476 14.1301 44.2435 12.2101 46.3517 11.9501C48.46 11.6801 50.3875 13.17 50.6486 15.28L55.5478 54.1901C55.8088 56.2901 54.3129 58.21 52.2047 58.47C52.044 58.49 51.8834 58.5001 51.7228 58.5001Z" fill="#4A3A2B"/>
<path d="M46.8336 259.81C46.673 259.81 46.5124 259.8 46.3517 259.78C44.2435 259.52 42.7476 257.6 43.0086 255.5L47.9078 216.59C48.1689 214.49 50.0964 213 52.2047 213.26C54.3129 213.52 55.8088 215.44 55.5478 217.54L50.6486 256.45C50.3976 258.4 48.7411 259.81 46.8336 259.81Z" fill="#4A3A2B"/>
<path d="M93.3962 223.54C89.4607 223.54 86.2682 220.35 86.2682 216.44V55.3C86.2682 51.38 89.4708 48.2 93.3962 48.2H130.883C134.819 48.2 138.011 51.39 138.011 55.3V216.43C138.011 220.35 134.809 223.53 130.883 223.53H93.3962V223.54Z" fill="#7A542D"/>
<path d="M130.883 50.33C133.634 50.33 135.873 52.56 135.873 55.3V216.43C135.873 219.17 133.634 221.4 130.883 221.4H93.3962C90.6454 221.4 88.4066 219.17 88.4066 216.43V55.3C88.4066 52.56 90.6454 50.33 93.3962 50.33H130.883ZM130.883 46.0699H93.3962C88.2761 46.0699 84.1298 50.2 84.1298 55.3V216.43C84.1298 221.53 88.2761 225.66 93.3962 225.66H130.883C136.003 225.66 140.149 221.53 140.149 216.43V55.3C140.149 50.21 135.993 46.0699 130.883 46.0699Z" fill="#634425"/>
<path d="M112.14 222.39C115.4 222.39 118.043 219.757 118.043 216.51C118.043 213.263 115.4 210.63 112.14 210.63C108.879 210.63 106.237 213.263 106.237 216.51C106.237 219.757 108.879 222.39 112.14 222.39Z" fill="#A67C52"/>
<path d="M112.14 61.05C115.4 61.05 118.043 58.4175 118.043 55.17C118.043 51.9226 115.4 49.29 112.14 49.29C108.879 49.29 106.237 51.9226 106.237 55.17C106.237 58.4175 108.879 61.05 112.14 61.05Z" fill="#A67C52"/>
<path d="M112.13 58.5C110.162 58.5 108.475 57 108.305 55.01L105.072 18.67C104.881 16.56 106.447 14.7 108.566 14.51C110.674 14.33 112.551 15.88 112.742 17.99L115.975 54.33C116.165 56.44 114.599 58.3 112.481 58.49C112.361 58.49 112.25 58.5 112.13 58.5Z" fill="#4A3A2B"/>
<path d="M108.907 257.25C108.797 257.25 108.676 257.24 108.566 257.24C106.447 257.05 104.881 255.19 105.072 253.08L108.305 216.74C108.495 214.63 110.363 213.09 112.481 213.26C114.599 213.45 116.165 215.31 115.975 217.42L112.742 253.76C112.551 255.75 110.875 257.25 108.907 257.25Z" fill="#4A3A2B"/>
<path d="M158.19 223.54C154.415 223.54 151.343 220.48 151.343 216.72V55.02C151.343 51.26 154.415 48.2 158.19 48.2H185.989C189.764 48.2 192.836 51.26 192.836 55.02V216.72C192.836 220.48 189.764 223.54 185.989 223.54H158.19V223.54Z" fill="#7A542D"/>
<path d="M185.989 50.33C188.589 50.33 190.698 52.43 190.698 55.02V216.72C190.698 219.31 188.589 221.41 185.989 221.41H158.19C155.59 221.41 153.482 219.31 153.482 216.72V55.02C153.482 52.43 155.59 50.33 158.19 50.33H185.989ZM185.989 46.0699H158.19C153.231 46.0699 149.205 50.08 149.205 55.02V216.72C149.205 221.66 153.231 225.67 158.19 225.67H185.989C190.949 225.67 194.974 221.66 194.974 216.72V55.02C194.974 50.08 190.949 46.0699 185.989 46.0699Z" fill="#634425"/>
<path d="M172.095 222.39C175.355 222.39 177.998 219.757 177.998 216.51C177.998 213.263 175.355 210.63 172.095 210.63C168.834 210.63 166.192 213.263 166.192 216.51C166.192 219.757 168.834 222.39 172.095 222.39Z" fill="#A67C52"/>
<path d="M172.095 61.05C175.355 61.05 177.998 58.4174 177.998 55.17C177.998 51.9225 175.355 49.29 172.095 49.29C168.834 49.29 166.192 51.9225 166.192 55.17C166.192 58.4174 168.834 61.05 172.095 61.05Z" fill="#A67C52"/>
<path d="M172.085 58.5C170.087 58.5 168.39 56.96 168.25 54.94L165.84 20.62C165.69 18.51 167.286 16.68 169.414 16.53C171.533 16.4 173.37 17.97 173.52 20.09L175.93 54.41C176.08 56.52 174.484 58.35 172.356 58.5C172.265 58.49 172.175 58.5 172.085 58.5Z" fill="#4A3A2B"/>
<path d="M169.685 255.23C169.595 255.23 169.505 255.23 169.414 255.22C167.296 255.07 165.7 253.24 165.84 251.13L168.25 216.81C168.4 214.7 170.217 213.12 172.356 213.25C174.474 213.4 176.07 215.23 175.93 217.34L173.52 251.66C173.38 253.68 171.693 255.23 169.685 255.23Z" fill="#4A3A2B"/>
<path d="M213.306 223.54C209.531 223.54 206.459 220.48 206.459 216.72V55.02C206.459 51.26 209.531 48.2 213.306 48.2H241.105C244.88 48.2 247.952 51.26 247.952 55.02V216.72C247.952 220.48 244.88 223.54 241.105 223.54H213.306V223.54Z" fill="#7A542D"/>
<path d="M241.105 50.33C243.705 50.33 245.814 52.43 245.814 55.02V216.72C245.814 219.31 243.705 221.41 241.105 221.41H213.306C210.706 221.41 208.598 219.31 208.598 216.72V55.02C208.598 52.43 210.706 50.33 213.306 50.33H241.105ZM241.105 46.0699H213.306C208.347 46.0699 204.321 50.08 204.321 55.02V216.72C204.321 221.66 208.347 225.67 213.306 225.67H241.105C246.065 225.67 250.091 221.66 250.091 216.72V55.02C250.091 50.08 246.065 46.0699 241.105 46.0699Z" fill="#634425"/>
<path d="M227.361 222.39C230.622 222.39 233.265 219.757 233.265 216.51C233.265 213.263 230.622 210.63 227.361 210.63C224.101 210.63 221.458 213.263 221.458 216.51C221.458 219.757 224.101 222.39 227.361 222.39Z" fill="#A67C52"/>
<path d="M227.361 61.05C230.622 61.05 233.265 58.4174 233.265 55.17C233.265 51.9225 230.622 49.29 227.361 49.29C224.101 49.29 221.458 51.9225 221.458 55.17C221.458 58.4174 224.101 61.05 227.361 61.05Z" fill="#A67C52"/>
<path d="M227.361 58.5C225.253 58.5 223.536 56.81 223.516 54.71L223.205 23.09C223.185 20.97 224.892 19.24 227.01 19.22C227.02 19.22 227.04 19.22 227.05 19.22C229.158 19.22 230.875 20.91 230.895 23.01L231.206 54.63C231.227 56.75 229.52 58.48 227.402 58.5C227.381 58.5 227.371 58.5 227.361 58.5Z" fill="#4A3A2B"/>
<path d="M227.05 252.53C227.04 252.53 227.02 252.53 227.01 252.53C224.882 252.51 223.185 250.78 223.205 248.66L223.516 217.04C223.536 214.94 225.253 213.25 227.361 213.25C227.371 213.25 227.392 213.25 227.402 213.25C229.53 213.27 231.227 215 231.206 217.12L230.895 248.74C230.875 250.84 229.158 252.53 227.05 252.53Z" fill="#4A3A2B"/>
<path d="M332.955 223.54C329.462 223.54 326.621 220.71 326.621 217.23V54.5099C326.621 51.0299 329.462 48.2 332.955 48.2H362.592C366.085 48.2 368.926 51.0299 368.926 54.5099V217.23C368.926 220.71 366.085 223.54 362.592 223.54H332.955V223.54Z" fill="#7A542D"/>
<path d="M362.592 50.33C364.911 50.33 366.788 52.2099 366.788 54.5099V217.23C366.788 219.54 364.901 221.41 362.592 221.41H332.955C330.636 221.41 328.759 219.53 328.759 217.23V54.5099C328.759 52.1999 330.646 50.33 332.955 50.33H362.592ZM362.592 46.0699H332.955C328.277 46.0699 324.482 49.8499 324.482 54.5099V217.23C324.482 221.89 328.277 225.67 332.955 225.67H362.592C367.27 225.67 371.065 221.89 371.065 217.23V54.5099C371.065 49.8499 367.27 46.0699 362.592 46.0699Z" fill="#634425"/>
<path d="M347.773 222.39C351.034 222.39 353.677 219.757 353.677 216.51C353.677 213.263 351.034 210.63 347.773 210.63C344.513 210.63 341.87 213.263 341.87 216.51C341.87 219.757 344.513 222.39 347.773 222.39Z" fill="#A67C52"/>
<path d="M347.773 61.05C351.034 61.05 353.677 58.4175 353.677 55.17C353.677 51.9226 351.034 49.29 347.773 49.29C344.513 49.29 341.87 51.9226 341.87 55.17C341.87 58.4175 344.513 61.05 347.773 61.05Z" fill="#A67C52"/>
<path d="M347.773 58.5C345.645 58.5 343.928 56.78 343.928 54.67V23.95C343.928 21.83 345.655 20.12 347.773 20.12C349.902 20.12 351.619 21.84 351.619 23.95V54.67C351.619 56.78 349.902 58.5 347.773 58.5Z" fill="#4A3A2B"/>
<path d="M347.773 251.63C345.645 251.63 343.928 249.91 343.928 247.8V217.08C343.928 214.96 345.655 213.25 347.773 213.25C349.902 213.25 351.619 214.97 351.619 217.08V247.8C351.619 249.91 349.902 251.63 347.773 251.63Z" fill="#4A3A2B"/>
<path d="M269.065 223.54C265.129 223.54 261.937 220.35 261.937 216.44V55.3C261.937 51.38 265.14 48.2 269.065 48.2H306.552C310.487 48.2 313.68 51.39 313.68 55.3V216.43C313.68 220.35 310.477 223.53 306.552 223.53H269.065V223.54Z" fill="#7A542D"/>
<path d="M306.552 50.33C309.303 50.33 311.541 52.56 311.541 55.3V216.43C311.541 219.17 309.303 221.4 306.552 221.4H269.065C266.314 221.4 264.075 219.17 264.075 216.43V55.3C264.075 52.56 266.314 50.33 269.065 50.33H306.552ZM306.552 46.07H269.065C263.945 46.07 259.799 50.2 259.799 55.3V216.43C259.799 221.53 263.945 225.66 269.065 225.66H306.552C311.672 225.66 315.818 221.53 315.818 216.43V55.3C315.818 50.21 311.662 46.07 306.552 46.07Z" fill="#634425"/>
<path d="M287.808 222.39C291.069 222.39 293.712 219.757 293.712 216.51C293.712 213.263 291.069 210.63 287.808 210.63C284.548 210.63 281.905 213.263 281.905 216.51C281.905 219.757 284.548 222.39 287.808 222.39Z" fill="#A67C52"/>
<path d="M287.808 61.05C291.069 61.05 293.712 58.4175 293.712 55.17C293.712 51.9226 291.069 49.29 287.808 49.29C284.548 49.29 281.905 51.9226 281.905 55.17C281.905 58.4175 284.548 61.05 287.808 61.05Z" fill="#A67C52"/>
<path d="M287.808 58.5001C285.68 58.5001 283.963 56.78 283.963 54.67V23.7401C283.963 21.6201 285.69 19.91 287.808 19.91C289.937 19.91 291.653 21.6301 291.653 23.7401V54.67C291.653 56.78 289.927 58.5001 287.808 58.5001Z" fill="#4A3A2B"/>
<path d="M287.808 251.84C285.68 251.84 283.963 250.12 283.963 248.01V217.08C283.963 214.96 285.69 213.25 287.808 213.25C289.937 213.25 291.653 214.97 291.653 217.08V248.01C291.653 250.12 289.927 251.84 287.808 251.84Z" fill="#4A3A2B"/>
<path d="M592.352 223.54C596.288 223.54 599.48 220.35 599.48 216.44V55.3C599.48 51.38 596.278 48.2 592.352 48.2H564.212C560.277 48.2 557.084 51.39 557.084 55.3V216.43C557.084 220.35 560.287 223.53 564.212 223.53H592.352V223.54Z" fill="#7A542D"/>
<path d="M564.212 50.33H592.352C595.103 50.33 597.342 52.56 597.342 55.3V216.43C597.342 219.17 595.103 221.4 592.352 221.4H564.212C561.461 221.4 559.223 219.17 559.223 216.43V55.3C559.212 52.56 561.461 50.33 564.212 50.33ZM564.212 46.07C559.092 46.07 554.946 50.2 554.946 55.3V216.43C554.946 221.53 559.092 225.66 564.212 225.66H592.352C597.472 225.66 601.619 221.53 601.619 216.43V55.3C601.619 50.2 597.472 46.07 592.352 46.07H564.212Z" fill="#634425"/>
<path d="M578.277 222.39C581.537 222.39 584.18 219.757 584.18 216.51C584.18 213.263 581.537 210.63 578.277 210.63C575.017 210.63 572.374 213.263 572.374 216.51C572.374 219.757 575.017 222.39 578.277 222.39Z" fill="#A67C52"/>
<path d="M578.277 61.05C581.537 61.05 584.18 58.4175 584.18 55.17C584.18 51.9226 581.537 49.29 578.277 49.29C575.017 49.29 572.374 51.9226 572.374 55.17C572.374 58.4175 575.017 61.05 578.277 61.05Z" fill="#A67C52"/>
<path d="M578.287 58.5001C580.195 58.5001 581.851 57.08 582.102 55.14L587.001 16.2301C587.262 14.1301 585.767 12.2101 583.658 11.9501C581.55 11.6801 579.622 13.17 579.361 15.28L574.462 54.1901C574.201 56.2901 575.697 58.21 577.805 58.47C577.966 58.49 578.127 58.5001 578.287 58.5001Z" fill="#4A3A2B"/>
<path d="M583.176 259.81C583.337 259.81 583.498 259.8 583.658 259.78C585.767 259.52 587.262 257.6 587.001 255.5L582.102 216.59C581.841 214.49 579.914 213 577.805 213.26C575.697 213.52 574.201 215.44 574.462 217.54L579.361 256.45C579.602 258.4 581.259 259.81 583.176 259.81Z" fill="#4A3A2B"/>
<path d="M536.614 223.54C540.549 223.54 543.742 220.35 543.742 216.44V55.3C543.742 51.38 540.539 48.2 536.614 48.2H499.127C495.191 48.2 491.999 51.39 491.999 55.3V216.43C491.999 220.35 495.201 223.53 499.127 223.53H536.614V223.54Z" fill="#7A542D"/>
<path d="M499.127 50.33H536.614C539.365 50.33 541.603 52.56 541.603 55.3V216.43C541.603 219.17 539.365 221.4 536.614 221.4H499.127C496.376 221.4 494.137 219.17 494.137 216.43V55.3C494.137 52.56 496.376 50.33 499.127 50.33ZM499.127 46.0699C494.007 46.0699 489.861 50.2 489.861 55.3V216.43C489.861 221.53 494.007 225.66 499.127 225.66H536.614C541.734 225.66 545.88 221.53 545.88 216.43V55.3C545.88 50.2 541.734 46.0699 536.614 46.0699H499.127Z" fill="#634425"/>
<path d="M517.87 222.39C521.131 222.39 523.773 219.757 523.773 216.51C523.773 213.263 521.131 210.63 517.87 210.63C514.61 210.63 511.967 213.263 511.967 216.51C511.967 219.757 514.61 222.39 517.87 222.39Z" fill="#A67C52"/>
<path d="M517.87 61.05C521.131 61.05 523.773 58.4175 523.773 55.17C523.773 51.9226 521.131 49.29 517.87 49.29C514.61 49.29 511.967 51.9226 511.967 55.17C511.967 58.4175 514.61 61.05 517.87 61.05Z" fill="#A67C52"/>
<path d="M517.87 58.5C519.838 58.5 521.525 57 521.695 55.01L524.928 18.67C525.119 16.56 523.553 14.7 521.434 14.51C519.326 14.33 517.449 15.88 517.258 17.99L514.025 54.33C513.835 56.44 515.401 58.3 517.519 58.49C517.65 58.49 517.76 58.5 517.87 58.5Z" fill="#4A3A2B"/>
<path d="M521.103 257.25C521.213 257.25 521.334 257.24 521.444 257.24C523.563 257.05 525.129 255.19 524.938 253.08L521.705 216.74C521.515 214.63 519.647 213.09 517.529 213.26C515.411 213.45 513.845 215.31 514.035 217.42L517.268 253.76C517.449 255.75 519.135 257.25 521.103 257.25Z" fill="#4A3A2B"/>
<path d="M471.82 223.54C475.595 223.54 478.667 220.48 478.667 216.72V55.02C478.667 51.26 475.595 48.2 471.82 48.2H444.021C440.246 48.2 437.174 51.26 437.174 55.02V216.72C437.174 220.48 440.246 223.54 444.021 223.54H471.82V223.54Z" fill="#7A542D"/>
<path d="M444.011 50.33H471.81C474.41 50.33 476.518 52.43 476.518 55.02V216.72C476.518 219.31 474.41 221.41 471.81 221.41H444.011C441.411 221.41 439.302 219.31 439.302 216.72V55.02C439.312 52.43 441.421 50.33 444.011 50.33ZM444.011 46.0699C439.051 46.0699 435.026 50.08 435.026 55.02V216.72C435.026 221.66 439.051 225.67 444.011 225.67H471.81C476.769 225.67 480.795 221.66 480.795 216.72V55.02C480.795 50.08 476.769 46.0699 471.81 46.0699H444.011Z" fill="#634425"/>
<path d="M457.915 222.39C461.176 222.39 463.818 219.757 463.818 216.51C463.818 213.263 461.176 210.63 457.915 210.63C454.655 210.63 452.012 213.263 452.012 216.51C452.012 219.757 454.655 222.39 457.915 222.39Z" fill="#A67C52"/>
<path d="M457.915 61.05C461.176 61.05 463.818 58.4174 463.818 55.17C463.818 51.9225 461.176 49.29 457.915 49.29C454.655 49.29 452.012 51.9225 452.012 55.17C452.012 58.4174 454.655 61.05 457.915 61.05Z" fill="#A67C52"/>
<path d="M457.915 58.5C459.913 58.5 461.61 56.96 461.75 54.94L464.16 20.62C464.31 18.51 462.714 16.68 460.586 16.53C458.467 16.4 456.63 17.97 456.48 20.09L454.07 54.41C453.92 56.52 455.516 58.35 457.644 58.5C457.735 58.49 457.825 58.5 457.915 58.5Z" fill="#4A3A2B"/>
<path d="M460.315 255.23C460.405 255.23 460.495 255.23 460.586 255.22C462.704 255.07 464.3 253.24 464.16 251.13L461.75 216.81C461.6 214.7 459.783 213.12 457.644 213.25C455.526 213.4 453.93 215.23 454.07 217.34L456.48 251.66C456.62 253.68 458.317 255.23 460.315 255.23Z" fill="#4A3A2B"/>
<path d="M416.704 223.54C420.479 223.54 423.551 220.48 423.551 216.72V55.02C423.551 51.26 420.479 48.2 416.704 48.2H388.905C385.13 48.2 382.058 51.26 382.058 55.02V216.72C382.058 220.48 385.13 223.54 388.905 223.54H416.704V223.54Z" fill="#7A542D"/>
<path d="M388.905 50.33H416.704C419.304 50.33 421.412 52.43 421.412 55.02V216.72C421.412 219.31 419.304 221.41 416.704 221.41H388.905C386.305 221.41 384.196 219.31 384.196 216.72V55.02C384.196 52.43 386.305 50.33 388.905 50.33ZM388.905 46.0699C383.945 46.0699 379.919 50.08 379.919 55.02V216.72C379.919 221.66 383.945 225.67 388.905 225.67H416.704C421.663 225.67 425.689 221.66 425.689 216.72V55.02C425.689 50.08 421.663 46.0699 416.704 46.0699H388.905Z" fill="#634425"/>
<path d="M402.649 222.39C405.909 222.39 408.552 219.757 408.552 216.51C408.552 213.263 405.909 210.63 402.649 210.63C399.388 210.63 396.745 213.263 396.745 216.51C396.745 219.757 399.388 222.39 402.649 222.39Z" fill="#A67C52"/>
<path d="M402.649 61.05C405.909 61.05 408.552 58.4174 408.552 55.17C408.552 51.9225 405.909 49.29 402.649 49.29C399.388 49.29 396.745 51.9225 396.745 55.17C396.745 58.4174 399.388 61.05 402.649 61.05Z" fill="#A67C52"/>
<path d="M402.649 58.5C404.757 58.5 406.474 56.81 406.494 54.71L406.805 23.09C406.825 20.97 405.118 19.24 403 19.22C402.99 19.22 402.97 19.22 402.96 19.22C400.852 19.22 399.135 20.91 399.115 23.01L398.804 54.63C398.783 56.75 400.49 58.48 402.608 58.5C402.618 58.5 402.639 58.5 402.649 58.5Z" fill="#4A3A2B"/>
<path d="M402.96 252.53C402.97 252.53 402.99 252.53 403 252.53C405.128 252.51 406.825 250.78 406.805 248.66L406.494 217.04C406.474 214.94 404.757 213.25 402.649 213.25C402.639 213.25 402.618 213.25 402.608 213.25C400.48 213.27 398.783 215 398.804 217.12L399.115 248.74C399.135 250.84 400.852 252.53 402.96 252.53Z" fill="#4A3A2B"/>
<path d="M13.7238 13.67C15.039 13.77 146.926 23.96 317.645 23.96C495.724 23.96 615.092 13.76 616.276 13.66" stroke="#8F704D" stroke-width="11" stroke-miterlimit="10"/>
<path d="M13.7238 258.07C15.039 257.97 146.926 247.78 317.645 247.78C495.724 247.78 615.092 257.98 616.276 258.08" stroke="#8F704D" stroke-width="11" stroke-miterlimit="10"/>
<path d="M13.7238 25.2C7.33877 25.2 2.14842 20.02 2.14842 13.66C2.14842 7.3 7.33877 2.12 13.7238 2.12C15.7016 2.12 17.6392 2.62001 19.3458 3.57001C22.6789 5.41001 24.8775 8.75002 25.249 12.52C25.2891 12.92 25.3092 13.3 25.3092 13.66C25.3092 14.7 25.1787 15.71 24.9076 16.67C23.5423 21.7 18.9443 25.2 13.7238 25.2Z" fill="#75512B"/>
<path d="M13.7238 4.26001C15.3301 4.26001 16.9163 4.67001 18.3218 5.45001C21.0324 6.95001 22.8295 9.67002 23.1206 12.74C23.1507 13.08 23.1708 13.39 23.1708 13.68C23.1708 14.52 23.0604 15.35 22.8395 16.15C21.7352 20.24 17.9905 23.09 13.7238 23.09C8.52338 23.09 4.28677 18.87 4.28677 13.68C4.28677 8.48999 8.52338 4.26001 13.7238 4.26001ZM13.7238 0C6.15409 0 0.0100021 6.11001 0.0100021 13.67C0.0100021 21.21 6.14405 27.34 13.7238 27.34C20.0586 27.34 25.3895 23.07 26.9657 17.25C27.2869 16.11 27.4476 14.91 27.4476 13.67C27.4476 13.22 27.4175 12.77 27.3773 12.32C26.9356 7.75001 24.235 3.84 20.3899 1.72C18.4121 0.620001 16.1432 0 13.7238 0Z" fill="#4A3A2B"/>
<path d="M13.7238 269.61C7.33877 269.61 2.13839 264.43 2.13839 258.07C2.13839 251.71 7.33877 246.53 13.7238 246.53C20.1088 246.53 25.3092 251.71 25.3092 258.07C25.3092 264.43 20.1088 269.61 13.7238 269.61Z" fill="#75512B"/>
<path d="M13.7238 248.67C18.9342 248.67 23.1708 252.89 23.1708 258.08C23.1708 263.27 18.9342 267.49 13.7238 267.49C8.51338 267.49 4.27677 263.27 4.27677 258.08C4.27677 252.89 8.52342 248.67 13.7238 248.67ZM13.7238 244.41C6.14409 244.41 0 250.53 0 258.08C0 265.63 6.14409 271.75 13.7238 271.75C21.3035 271.75 27.4476 265.63 27.4476 258.08C27.4476 250.53 21.3035 244.41 13.7238 244.41Z" fill="#4A3A2B"/>
<path d="M616.276 269.61C609.891 269.61 604.691 264.43 604.691 258.07C604.691 251.71 609.891 246.53 616.276 246.53C622.661 246.53 627.862 251.71 627.862 258.07C627.862 264.43 622.661 269.61 616.276 269.61Z" fill="#75512B"/>
<path d="M616.276 248.67C621.487 248.67 625.723 252.89 625.723 258.08C625.723 263.27 621.487 267.49 616.276 267.49C611.066 267.49 606.829 263.27 606.829 258.08C606.829 252.89 611.076 248.67 616.276 248.67ZM616.276 244.41C608.696 244.41 602.552 250.53 602.552 258.08C602.552 265.63 608.696 271.75 616.276 271.75C623.856 271.75 630 265.63 630 258.08C630 250.53 623.856 244.41 616.276 244.41Z" fill="#4A3A2B"/>
<path d="M616.276 25.2C609.891 25.2 604.691 20.02 604.691 13.66C604.691 7.3 609.891 2.12 616.276 2.12C622.661 2.12 627.862 7.3 627.862 13.66C627.862 20.03 622.661 25.2 616.276 25.2Z" fill="#75512B"/>
<path d="M616.276 4.26001C621.487 4.26001 625.723 8.48001 625.723 13.67C625.723 18.86 621.487 23.08 616.276 23.08C611.066 23.08 606.829 18.86 606.829 13.67C606.839 8.48001 611.076 4.26001 616.276 4.26001ZM616.276 0C608.696 0 602.552 6.12001 602.552 13.67C602.552 21.22 608.696 27.34 616.276 27.34C623.856 27.34 630 21.22 630 13.67C630 6.12001 623.856 0 616.276 0Z" fill="#4A3A2B"/>
</svg>
