<svg width="436" height="435" viewBox="0 0 436 435" fill="none" xmlns="http://www.w3.org/2000/svg">
<path d="M373.66 2.97C314.61 -7.15 212.79 17.94 103.57 20.91C11.4201 23.42 -9.22992 46.01 5.89008 139.01C21.0101 232.01 -17.6399 345.78 25.8201 406.84C55.2801 448.24 184.97 433.17 287.05 425.62C403.45 417.01 447.08 462.91 431.64 272.04C419.1 117.09 453.38 16.64 373.66 2.97Z" fill="#8AD9F7"/>
<path d="M18.39 147.99C23.49 193.79 24.34 244.39 20.19 309.71C14.27 402.97 35.99 407.81 79.98 412.57C107.05 415.5 187.78 418.15 225.5 419.26C239.65 419.68 253.81 419.59 267.95 418.99C302.8 417.51 367.41 413.88 384.41 406.84C410.53 396.03 426.1 370 420.36 330.66C412.38 275.92 412.42 164.13 408.81 92.42C405.94 35.4 385.25 10.7 292.52 18.13C215.79 24.27 138.52 31.43 91.49 35.41C32.85 40.36 10.95 81.16 18.39 147.99Z" fill="#B8E1F2"/>
<path d="M324.45 41.74C352.65 41.69 377.36 60.38 384.43 87.2C396.85 134.3 409.67 218.94 394.27 344.17C392.69 357.01 387.07 368.61 378.7 377.69C373.36 383.48 366.89 388.25 359.63 391.68C353.96 394.36 347.8 396.22 341.3 397.09C341.29 397.09 341.27 397.1 341.26 397.1C338.9 397.42 336.47 397.73 333.96 398.05C331.66 398.35 329.3 398.64 326.88 398.93C320.13 399.74 312.93 400.53 305.34 401.27C297.58 402.03 289.42 402.74 280.91 403.36C229.92 407.08 166.58 407.7 104.47 397.74C101.85 397.32 99.2899 396.74 96.7899 396.01C75.2199 389.71 58.5899 372.21 53.9399 350.18C53.1699 346.52 52.3799 342.63 51.5699 338.52C50.9999 335.57 50.4199 332.52 49.8499 329.35C40.9099 280.37 31.7999 204.79 36.7199 114.99C36.7399 114.62 36.7599 114.25 36.7999 113.88C37.0199 110.88 37.4599 107.94 38.1099 105.07C39.9499 96.98 43.4199 89.47 48.1999 82.93C56.9099 71 69.9399 62.26 85.2299 58.97C86.2399 58.75 87.2599 58.55 88.2899 58.39C94.3099 57.4 100.92 56.38 108.12 55.36C108.12 55.36 108.12 55.36 108.13 55.36C116.95 54.11 126.67 52.85 137.27 51.63C156.06 49.47 177.68 47.44 202.16 45.78C208.42 45.36 214.87 44.97 221.51 44.59C227.28 44.27 233.19 43.97 239.24 43.7C244.52 43.46 249.91 43.24 255.41 43.04C276.76 42.24 299.77 41.78 324.45 41.74Z" fill="#706443"/>
<path d="M93.9101 351.4C155.01 379.76 284.47 388.79 331.87 332.24C388.75 264.38 395.59 217.45 386.58 123.86V123.84C384.32 111.44 381.85 100.6 379.39 91.26C372.54 65.26 348.58 47.14 321.24 47.19C297.3 47.23 275 47.68 254.29 48.43C248.96 48.62 243.73 48.83 238.61 49.07C232.74 49.34 227.01 49.62 221.42 49.93C214.98 50.29 208.73 50.68 202.66 51.08C178.92 52.69 157.97 54.65 139.74 56.75C129.46 57.93 120.04 59.15 111.49 60.36C111.48 60.36 111.48 60.36 111.48 60.36C104.5 61.35 98.0901 62.34 92.2501 63.3C91.2501 63.46 90.2601 63.66 89.2801 63.87C74.4601 67.06 61.8201 75.53 53.3801 87.1C48.7401 93.44 45.3701 100.72 43.5901 108.57C42.9601 111.35 42.5301 114.2 42.3201 117.11C42.2901 117.47 42.2601 117.83 42.2501 118.19C40.0201 158.8 42.4901 203.68 46.6901 243.82C46.6901 243.82 46.7201 244.1 46.7801 244.63C47.8101 253.75 57.5901 334.54 93.9101 351.4Z" fill="#A6886A"/>
<path d="M59.3398 126.57C53.5898 155.8 45.7098 300.93 64.2598 356.61C68.9798 370.77 69.1798 395.32 185.15 391.68C280.29 388.69 374.03 387.83 382.89 331.93C391.75 276.03 385.16 97.4 354.17 73.27C335.26 58.55 324.31 49.99 165.86 60.93C135.3 63.03 70.8298 68.22 59.3398 126.57Z" fill="#78B528"/>
<path d="M377.82 285.05C377.82 279.4 375.13 274.38 370.96 271.19C376.9 264.55 380.52 255.78 380.52 246.16C380.52 233.4 374.15 222.13 364.42 215.34C370.23 207.18 373.66 197.2 373.66 186.42C373.66 170.79 366.47 156.84 355.23 147.68C362.47 144.12 367.46 136.66 367.46 128.05C367.46 120.25 363.37 113.41 357.23 109.54C359.52 106.05 360.86 101.88 360.86 97.39C360.86 85.14 350.93 75.2 338.67 75.2C337.64 75.2 336.62 75.28 335.63 75.41C334.01 67.46 326.98 61.4799 318.56 61.4799C312.94 61.4799 307.94 64.15 304.75 68.28C300.67 62.85 294.18 59.33 286.87 59.33C279.36 59.33 272.72 63.04 268.67 68.72C264.59 64.27 258.72 61.4799 252.21 61.4799C244.51 61.4799 237.72 65.38 233.7 71.31C227.42 66.58 219.6 63.77 211.13 63.77C198.8 63.77 187.85 69.71 181.01 78.89C175 71.88 166.08 67.4299 156.12 67.4299C146.2 67.4299 137.31 71.84 131.3 78.81C128.78 77.4 125.88 76.59 122.78 76.59C113.15 76.59 105.35 84.39 105.35 94.02C105.35 94.6 105.38 95.18 105.44 95.75C103.83 95.54 102.19 95.42 100.53 95.42C79.7802 95.42 62.9602 112.24 62.9602 132.99C62.9602 141.1 65.5402 148.61 69.9202 154.75C63.0702 160.31 58.6902 168.79 58.6902 178.29C58.6902 188.06 63.3202 196.74 70.4902 202.29C64.8902 210.36 61.6002 220.15 61.6002 230.72C61.6002 239.6 63.9302 247.92 67.9802 255.15C62.4502 258.07 58.6802 263.88 58.6802 270.57C58.6802 277.59 62.8402 283.64 68.8202 286.4C65.1802 290.31 62.9502 295.54 62.9502 301.3C62.9502 312.14 70.8402 321.14 81.1902 322.87C79.4602 327.18 78.5102 331.88 78.5102 336.81C78.5102 357.56 95.3302 374.38 116.08 374.38C123.13 374.38 129.73 372.43 135.37 369.05C139.3 378.05 148.28 384.35 158.73 384.35C165.31 384.35 171.3 381.86 175.82 377.76C182.69 381.32 190.48 383.34 198.75 383.34C201.18 383.34 203.56 383.15 205.9 382.81C210.37 386.22 215.95 388.24 222 388.24C227.16 388.24 231.98 386.76 236.06 384.22C239.37 385.48 242.95 386.17 246.7 386.17C254.51 386.17 261.62 383.18 266.96 378.29C272.17 380.41 277.87 381.59 283.85 381.59C294.09 381.59 303.52 378.14 311.07 372.35C313.12 373.08 315.32 373.49 317.62 373.49C324.9 373.49 331.24 369.48 334.56 363.54C335.37 363.61 336.19 363.65 337.02 363.65C350.03 363.65 361.03 355.08 364.69 343.28C372.64 337.82 377.86 328.67 377.86 318.29C377.86 310.95 375.25 304.21 370.9 298.97C375.08 295.8 377.82 290.75 377.82 285.05Z" fill="#90D437"/>
<path d="M69.3502 50.62C69.3502 50.62 55.2902 53.06 45.5502 63.93C35.8102 74.8 44.2402 78.08 50.4202 71.8C56.6002 65.52 62.5102 61.96 70.6602 58.68C78.8202 55.4 79.2902 48.56 69.3502 50.62Z" fill="#DCEEF2"/>
<path d="M40.7999 83.17C38.1199 80.88 32.6599 80 29.9899 90.54C27.3199 101.08 34.4899 100.81 37.0899 94.2C39.6899 87.59 42.3599 84.5 40.7999 83.17Z" fill="#DCEEF2"/>
<path d="M409.85 343.94C409.85 343.94 413.41 358.18 406.85 372.05C400.29 385.92 386.89 384.89 393.73 367.93C400.57 350.97 397.11 341.69 401.32 339.25C405.53 336.81 408.26 338.88 409.85 343.94Z" fill="#DCEEF2"/>
</svg>
