<svg width="435" height="435" viewBox="0 0 435 435" fill="none" xmlns="http://www.w3.org/2000/svg">
<path d="M430.1 263.44C426.31 233.87 425.8 203.98 428.49 174.28C434.18 111.26 433.56 2.20991 361.13 1.91991C259.24 1.51991 110.09 5.69991 55.6201 9.87991C10.3801 13.3499 -7.69987 41.4099 4.27013 127.68C10.3001 171.17 11.6701 215.17 8.0501 258.92C4.2201 305.12 1.6401 361.06 8.6801 384.69C21.6501 428.19 57.6101 440.97 181.86 429.03C306.11 417.09 396.06 428.19 422.82 388.87C439.3 364.66 435.47 305.38 430.1 263.44Z" fill="#8AD9F7"/>
<path d="M414.28 160.07C413.93 142.31 414.33 124.55 415.32 106.81C416.71 81.9499 414.81 38.6299 386.73 26.0399C346.62 8.05986 263.41 17.2599 201.1 21.0199C138.79 24.7799 78.8302 5.96986 37.9302 25.1999C-2.9598 44.4399 21.7102 120.54 19.6202 192.46C17.5302 264.38 -3.51981 357.57 31.6702 390.42C66.8702 423.28 124.16 423.7 176.01 419.1C227.86 414.5 367.94 422.8 397.63 390.42C427.32 358.04 417.34 324.18 415.64 231.76C415.04 199.06 414.6 176.09 414.28 160.07Z" fill="#B8E1F2"/>
<path d="M104.07 37.6299C184.68 30.6099 330 18.0499 374.34 41.4299C384.25 46.6599 405.91 63.2399 401.59 132.97C396.27 218.74 408.86 335.95 387.54 367.15C366.19 398.4 320.51 402.41 253.5 401.27C212.86 400.58 172.19 401.37 131.64 404.12C103.83 406.01 67.7302 403 54.6202 377.7C41.3402 352.08 37.7202 320.24 36.9802 298.47C36.1102 272.91 34.5302 247.39 32.2702 221.91C27.9902 173.54 29.7502 134.24 33.4902 96.7699C37.8302 53.3899 72.1802 40.4099 104.07 37.6299Z" fill="#706443"/>
<path d="M156.54 347.1C102.64 350.48 55.5301 311.08 48.9101 257.48C42.4601 205.24 37.1901 142.35 41.0601 111.89C47.4201 61.82 76.7301 51.3499 119.71 45.6799C162.68 39.9999 323.4 22.7799 360.51 53.3899C390.63 78.24 391.74 88.5199 394.02 147.02C397.8 244.04 394.83 314.58 340.51 342.15C306.43 359.45 223.61 342.9 156.54 347.1Z" fill="#A6886A"/>
<path d="M67.01 368.64C47.5 340.8 43.91 298.53 44.52 204.98C44.93 142.14 38.18 83.4999 97.08 62.4699C131.87 50.0399 209.86 35.6999 280.65 41.7799C351.44 47.8599 362.4 68.1399 371.86 80.5399C395.15 111.08 389.7 192.96 390.78 278.37C391.36 324.39 384.02 365.93 345.92 376.47C307.81 387.01 267.27 382.15 188.63 388.63C109.99 395.11 83.15 391.66 67.01 368.64Z" fill="#78B528"/>
<path d="M381.35 179.08C382.96 175.47 383.87 171.48 383.87 167.28C383.87 159.58 380.86 152.58 375.95 147.39C378.26 141.91 379.54 135.89 379.54 129.57C379.54 112.41 370.11 97.4499 356.15 89.5899C356.05 71.4999 341.35 56.8699 323.24 56.8699C317.11 56.8699 311.37 58.5499 306.46 61.4699C298.73 53.2699 287.77 48.1399 275.61 48.1399C268.27 48.1399 261.37 49.9999 255.35 53.2799C252.57 52.1099 249.53 51.4699 246.33 51.4699C243.29 51.4699 240.39 52.0599 237.73 53.1199C233.83 50.0099 228.89 48.1399 223.51 48.1399C215.38 48.1399 208.25 52.3999 204.2 58.7999C197.67 53.3299 189.26 50.0299 180.07 50.0299C168.12 50.0299 157.48 55.6099 150.6 64.2999C146.84 61.7299 142.29 60.2299 137.39 60.2299C126.82 60.2299 117.89 67.2099 114.94 76.8099C111.07 75.4799 106.92 74.7499 102.59 74.7499C81.5401 74.7499 64.48 91.8099 64.48 112.86C64.48 119.41 66.1401 125.57 69.0601 130.95C58.6401 136.48 51.54 147.43 51.54 160.04C51.54 171.35 57.2401 181.32 65.9301 187.24C59.7301 195.53 56.04 205.8 56.04 216.95C56.04 224.58 57.77 231.81 60.85 238.27C57.8 243.26 56.04 249.12 56.04 255.4C56.04 264.99 60.1501 273.63 66.7001 279.64C62.4501 285.18 59.92 292.11 59.92 299.64C59.92 307.57 62.7201 314.84 67.3901 320.52C66.7401 323.71 66.4001 327.01 66.4001 330.38C66.4001 357.51 88.4001 379.51 115.53 379.51C126.79 379.51 137.16 375.71 145.44 369.34C151.67 376.69 160.97 381.36 171.36 381.36C181.8 381.36 191.14 376.64 197.37 369.23C201.67 374.19 208.02 377.34 215.11 377.34C222.81 377.34 229.64 373.64 233.92 367.91C243.34 376.28 255.75 381.36 269.34 381.36C280.08 381.36 290.07 378.19 298.45 372.73C302.74 374.78 307.55 375.93 312.62 375.93C322.05 375.93 330.56 371.95 336.56 365.59C336.81 365.6 337.05 365.61 337.3 365.61C356.06 365.61 371.28 350.4 371.28 331.63C371.28 325.28 369.53 319.34 366.5 314.25C374.61 310.61 380.26 302.47 380.26 293.01C380.26 289.58 379.51 286.32 378.18 283.39C380.54 279.38 381.9 274.71 381.9 269.72C381.9 261.01 377.77 253.27 371.37 248.33C377.2 240.92 380.69 231.57 380.69 221.4C380.69 216.28 379.8 211.38 378.18 206.82C381.28 201.8 383.07 195.89 383.07 189.55C383.07 185.91 382.46 182.38 381.35 179.08Z" fill="#90D437"/>
<path d="M21.77 333.4C21.35 341.62 21.1199 357.1 28.1099 367.78C38.2499 383.28 43.6399 373.29 41.5399 365.72C39.4399 358.15 31.9499 348.45 32.6099 333.4C33.2599 318.35 22.19 325.17 21.77 333.4Z" fill="#DCEEF2"/>
<path d="M96.9502 23.2299C96.9502 23.2299 86.3002 21.2899 74.1502 23.2299C62.0002 25.1699 66.0202 35.9099 77.7002 32.9199C86.1602 30.7499 93.9402 30.2499 97.5802 30.1399C99.4302 30.0799 101.17 29.0299 101.9 27.3299C102.64 25.6299 102.21 23.6799 96.9502 23.2299Z" fill="#DCEEF2"/>
<path d="M42.2102 31.6099C42.2102 31.6099 54.4502 26.4699 57.9102 31.6099C61.3702 36.7499 60.9702 38.5299 52.1502 42.6399C43.3302 46.7499 33.9902 60.2099 29.6902 48.6199C25.3902 37.0299 42.2102 31.6099 42.2102 31.6099Z" fill="#DCEEF2"/>
<path d="M121.46 326.49C121.16 326.32 120.86 326.13 120.54 326L119.57 325.57C119.25 325.42 118.9 325.34 118.56 325.22C117.88 324.97 117.17 324.86 116.46 324.71C116.1 324.66 115.74 324.63 115.37 324.59C115 324.54 114.64 324.54 114.27 324.54C112.79 324.52 111.29 324.69 109.82 325.07L108.73 325.38C108.72 325.38 108.7 325.39 108.69 325.39C108.75 325.18 108.81 324.97 108.87 324.76L109.19 323.82C109.65 322.57 110.27 321.36 111.03 320.23C111.39 319.64 111.84 319.13 112.27 318.58C112.75 318.09 113.2 317.55 113.75 317.11C114.79 316.15 116.02 315.41 117.3 314.71C115.89 315.05 114.45 315.46 113.12 316.16C112.43 316.47 111.81 316.9 111.15 317.29C110.54 317.74 109.9 318.18 109.33 318.71C108.16 319.73 107.1 320.89 106.19 322.18L105.77 322.81C104.54 321.74 103.22 320.78 101.84 319.95C101.14 319.51 100.4 319.15 99.6702 318.78C99.3002 318.6 98.9102 318.46 98.5402 318.29L97.9802 318.05L97.4003 317.86C97.0103 317.73 96.6302 317.6 96.2502 317.48L95.0703 317.2C94.8703 317.16 94.6802 317.1 94.4902 317.07L93.9003 316.98L92.7202 316.81C94.2002 317.39 95.6302 318.01 96.9102 318.88L97.4003 319.19L97.8602 319.53C98.1702 319.76 98.4803 319.98 98.7703 320.22C99.3503 320.72 99.9303 321.2 100.46 321.75C101.34 322.63 102.15 323.56 102.88 324.55C101.78 324.56 100.68 324.71 99.6503 325.02C98.3303 325.43 97.1003 326.03 96.0903 326.87C95.5503 327.24 95.1302 327.74 94.6702 328.17C94.2402 328.63 93.8802 329.16 93.4902 329.63C94.0102 329.28 94.5003 328.91 95.0303 328.61C95.5803 328.34 96.0802 328.02 96.6602 327.86C97.7502 327.42 98.9002 327.27 100 327.28C101.1 327.3 102.16 327.53 103.14 327.93L103.78 328.22C103.39 328.66 103.05 329.14 102.8 329.65C102.31 330.65 102.11 331.69 102.05 332.67C102.03 333.16 102.07 333.65 102.08 334.12L102.29 335.52L102.64 334.18C102.81 333.76 102.95 333.33 103.15 332.94C103.55 332.16 104.05 331.49 104.63 331.01C105.23 330.54 105.88 330.28 106.54 330.18C106.87 330.13 107.21 330.12 107.53 330.14C107.69 330.16 107.85 330.17 108.01 330.21C108.09 330.22 108.16 330.25 108.23 330.26C108.24 330.26 108.25 330.27 108.26 330.27C108.26 330.27 108.26 330.27 108.27 330.26C108.82 329.73 109.6 329.52 110.34 329.7C110.5 329.74 110.65 329.78 110.81 329.84C111 329.88 111.16 329.98 111.33 330.05C111.51 330.13 111.69 330.21 111.85 330.33L112.36 330.66L112.82 331.07L113.06 331.28L113.27 331.52L113.7 332.02C113.96 332.37 114.19 332.75 114.45 333.13C114.38 332.69 114.32 332.23 114.22 331.78L114.02 331.11L113.92 330.77L113.78 330.44L113.48 329.77C113.35 329.56 113.22 329.35 113.08 329.13C112.95 328.91 112.79 328.71 112.62 328.52C112.45 328.33 112.29 328.11 112.08 327.94C112.09 327.85 112.09 327.83 112.1 327.74C112.9 327.35 113.73 327.04 114.6 326.81C114.91 326.72 115.22 326.63 115.53 326.59C115.84 326.54 116.16 326.47 116.48 326.43C117.12 326.39 117.78 326.3 118.44 326.35C118.77 326.37 119.11 326.35 119.44 326.4L120.44 326.54C120.78 326.57 121.1 326.67 121.43 326.75L122.43 327L121.46 326.49Z" fill="#78B528"/>
<path d="M360.19 259.48C359.89 259.31 359.59 259.12 359.27 258.99L358.3 258.56C357.98 258.41 357.63 258.33 357.29 258.21C356.61 257.96 355.9 257.85 355.19 257.7C354.83 257.65 354.47 257.62 354.1 257.58C353.73 257.53 353.37 257.53 353 257.53C351.52 257.51 350.02 257.68 348.55 258.06L347.46 258.37C347.45 258.37 347.43 258.38 347.42 258.38C347.48 258.17 347.54 257.96 347.6 257.75L347.92 256.81C348.38 255.56 349 254.35 349.76 253.22C350.12 252.63 350.57 252.12 351 251.57C351.48 251.08 351.93 250.54 352.48 250.1C353.52 249.14 354.75 248.4 356.03 247.7C354.62 248.04 353.18 248.45 351.85 249.15C351.16 249.46 350.54 249.89 349.88 250.28C349.27 250.73 348.63 251.17 348.06 251.7C346.89 252.72 345.83 253.88 344.92 255.17L344.5 255.8C343.27 254.73 341.95 253.77 340.57 252.94C339.87 252.5 339.13 252.14 338.4 251.77C338.03 251.59 337.64 251.45 337.27 251.28L336.71 251.04L336.13 250.85C335.74 250.72 335.36 250.59 334.98 250.47L333.8 250.19C333.6 250.15 333.41 250.09 333.22 250.06L332.63 249.97L331.45 249.8C332.93 250.38 334.36 251 335.64 251.87L336.13 252.18L336.59 252.52C336.9 252.75 337.21 252.97 337.5 253.21C338.08 253.71 338.66 254.19 339.19 254.74C340.07 255.62 340.88 256.55 341.61 257.54C340.51 257.55 339.41 257.7 338.38 258.01C337.06 258.42 335.83 259.02 334.82 259.86C334.28 260.23 333.86 260.73 333.4 261.16C332.97 261.62 332.61 262.15 332.22 262.62C332.74 262.27 333.23 261.9 333.76 261.6C334.31 261.33 334.81 261.01 335.39 260.85C336.48 260.41 337.63 260.26 338.73 260.27C339.83 260.29 340.89 260.52 341.87 260.92L342.51 261.21C342.12 261.65 341.78 262.13 341.53 262.64C341.04 263.64 340.84 264.68 340.78 265.66C340.76 266.15 340.8 266.64 340.81 267.11L341.03 268.51L341.38 267.17C341.55 266.75 341.69 266.32 341.89 265.93C342.29 265.15 342.79 264.48 343.37 264C343.97 263.53 344.62 263.27 345.28 263.17C345.61 263.12 345.95 263.11 346.27 263.13C346.43 263.15 346.59 263.16 346.75 263.2C346.83 263.21 346.9 263.24 346.97 263.25C346.98 263.25 346.99 263.26 347 263.26C347 263.26 347 263.26 347.01 263.25C347.56 262.72 348.34 262.51 349.08 262.69C349.24 262.73 349.39 262.77 349.55 262.83C349.74 262.87 349.9 262.97 350.07 263.04C350.25 263.12 350.43 263.2 350.59 263.32L351.1 263.65L351.56 264.06L351.8 264.27L352.01 264.51L352.44 265.01C352.7 265.36 352.93 265.74 353.19 266.12C353.12 265.68 353.06 265.22 352.96 264.77L352.76 264.1L352.66 263.76L352.52 263.43L352.22 262.76C352.09 262.55 351.96 262.34 351.82 262.12C351.69 261.9 351.53 261.7 351.36 261.51C351.19 261.32 351.03 261.1 350.82 260.93C350.83 260.84 350.83 260.82 350.84 260.73C351.64 260.34 352.47 260.03 353.34 259.8C353.65 259.71 353.96 259.62 354.27 259.58C354.58 259.53 354.9 259.46 355.22 259.42C355.86 259.38 356.52 259.29 357.18 259.34C357.51 259.36 357.85 259.34 358.18 259.39L359.18 259.53C359.52 259.56 359.84 259.66 360.17 259.74L361.17 259.99L360.19 259.48Z" fill="#78B528"/>
<path d="M289.95 302.46C289.75 301.97 289.6 301.44 289.32 300.97C288.85 299.97 288.15 299.07 287.32 298.23C286.95 297.87 286.55 297.53 286.12 297.23C286.23 297.14 286.34 297.05 286.44 296.96C287.12 296.37 287.76 295.71 288.34 295.04C288.93 294.37 289.43 293.64 289.87 292.91C289.11 293.32 288.36 293.67 287.57 293.94C286.79 294.2 286 294.42 285.21 294.57C284.79 294.65 284.37 294.72 283.94 294.78C284.02 294.24 284.11 293.7 284.22 293.16C284.52 291.77 284.91 290.39 285.59 289.06C284.26 289.76 283.03 290.75 281.89 291.81C281.87 291.83 281.85 291.85 281.83 291.87C281.57 291.49 281.32 291.1 281.06 290.73C279.93 289.1 278.77 287.49 277.57 285.94C277.96 287.87 278.28 289.79 278.57 291.72C278.71 292.68 278.84 293.65 278.96 294.61C278.97 294.67 278.98 294.74 278.98 294.8C278.71 295.01 278.42 295.21 278.11 295.39C277.42 295.81 276.66 296.19 275.85 296.47C275.04 296.75 274.19 296.99 273.3 297.11C272.41 297.26 271.49 297.29 270.55 297.28C271.37 297.72 272.24 298.15 273.16 298.45C274.08 298.78 275.06 299 276.06 299.15C276.63 299.24 277.21 299.28 277.79 299.3C277.7 299.46 277.61 299.61 277.53 299.77C277.27 300.24 277.05 300.73 276.84 301.21C276.65 301.71 276.45 302.19 276.31 302.7C275.99 303.69 275.84 304.72 275.74 305.7C276.27 304.85 276.81 304.05 277.48 303.36C277.79 303 278.16 302.69 278.49 302.37C278.86 302.07 279.2 301.77 279.58 301.51C280.08 301.15 280.6 300.82 281.13 300.53C281.19 300.5 281.24 300.46 281.3 300.43C281.37 300.4 281.44 300.38 281.52 300.36C281.7 300.31 281.89 300.27 282.08 300.23C282.47 300.16 282.88 300.12 283.29 300.11C284.12 300.1 284.98 300.21 285.81 300.51C286.64 300.81 287.49 301.22 288.23 301.84C288.64 302.12 288.95 302.49 289.33 302.83C289.68 303.19 289.98 303.6 290.31 304C290.22 303.48 290.11 302.96 289.95 302.46Z" fill="#78B528"/>
<path d="M128.22 88.4899C128.42 88.9799 128.57 89.5099 128.85 89.9799C129.32 90.9799 130.02 91.8799 130.85 92.7199C131.22 93.0799 131.62 93.4199 132.05 93.7199C131.94 93.8099 131.83 93.8999 131.73 93.9899C131.05 94.5799 130.41 95.2399 129.83 95.9099C129.24 96.5799 128.74 97.3099 128.3 98.0399C129.06 97.6299 129.81 97.2799 130.6 97.0099C131.38 96.7499 132.17 96.5299 132.96 96.3799C133.38 96.2999 133.8 96.2299 134.23 96.1699C134.15 96.7099 134.06 97.2499 133.95 97.7899C133.65 99.1799 133.26 100.57 132.58 101.89C133.91 101.19 135.14 100.2 136.28 99.1399C136.3 99.1199 136.32 99.0999 136.34 99.0799C136.6 99.4599 136.85 99.8499 137.11 100.22C138.24 101.85 139.4 103.46 140.6 105.01C140.21 103.08 139.89 101.16 139.6 99.2299C139.46 98.2699 139.33 97.2999 139.21 96.3399C139.2 96.2799 139.19 96.2099 139.19 96.1499C139.46 95.9399 139.75 95.7399 140.06 95.5599C140.75 95.1399 141.51 94.7599 142.32 94.4799C143.13 94.1999 143.98 93.9599 144.87 93.8399C145.76 93.6899 146.68 93.6599 147.62 93.6699C146.8 93.2299 145.93 92.7999 145.01 92.4999C144.09 92.1699 143.11 91.9499 142.11 91.7999C141.54 91.7099 140.96 91.6699 140.38 91.6499C140.47 91.4899 140.56 91.3399 140.64 91.1799C140.9 90.7099 141.12 90.2199 141.33 89.7399C141.52 89.2399 141.72 88.7599 141.86 88.2499C142.18 87.2599 142.33 86.2299 142.43 85.2499C141.9 86.0999 141.36 86.8999 140.69 87.5899C140.38 87.9499 140.01 88.2599 139.68 88.5799C139.31 88.8799 138.97 89.1799 138.59 89.4399C138.09 89.7999 137.57 90.1299 137.04 90.4199C136.98 90.4499 136.93 90.4899 136.87 90.5199C136.8 90.5499 136.73 90.5699 136.65 90.5899C136.47 90.6399 136.28 90.6799 136.09 90.7199C135.7 90.7899 135.29 90.8299 134.88 90.8399C134.05 90.8499 133.19 90.7399 132.36 90.4399C131.53 90.1399 130.68 89.7299 129.94 89.1099C129.53 88.8299 129.22 88.4599 128.84 88.1199C128.49 87.7599 128.19 87.3499 127.86 86.9499C127.95 87.4699 128.05 87.9899 128.22 88.4899Z" fill="#78B528"/>
<path d="M350 325.43L349.9 325.11L349.77 324.8L349.49 324.17C349.37 323.97 349.25 323.77 349.12 323.57C349 323.36 348.85 323.18 348.69 323C348.53 322.82 348.38 322.62 348.19 322.46C347.8 322.07 347.34 321.74 346.85 321.46C347.02 321.34 347.19 321.23 347.37 321.13C347.96 320.82 348.6 320.59 349.3 320.52C350 320.45 350.73 320.62 351.47 320.9C350.95 320.33 350.3 319.78 349.49 319.46C348.69 319.15 347.78 319.01 346.88 319.04C346.46 319.05 346.04 319.1 345.62 319.18C345.64 319.14 345.66 319.1 345.68 319.06C345.95 318.47 346.18 317.88 346.35 317.27C346.52 316.66 346.62 316.04 346.63 315.44C345.93 316.42 345.02 317.09 344.06 317.66C343.84 317.79 343.63 317.9 343.4 318.02C343.09 317.59 342.8 317.15 342.54 316.68C342.16 316 341.87 315.27 341.65 314.49C341.43 313.71 341.35 312.9 341.36 312.04C341 312.8 340.71 313.64 340.58 314.53C340.45 315.41 340.4 316.33 340.48 317.24C340.53 317.88 340.62 318.51 340.75 319.15C340.06 319.22 339.38 319.33 338.72 319.5C337.91 319.71 337.13 320.04 336.43 320.44C335.73 320.85 335.13 321.4 334.65 321.97C335.36 321.68 336.06 321.49 336.76 321.46C337.47 321.43 338.15 321.49 338.81 321.64C339.47 321.79 340.11 322.01 340.72 322.29C341.02 322.43 341.32 322.57 341.61 322.74C341.75 322.82 341.89 322.9 342.02 322.99C342.06 323.02 342.11 323.05 342.15 323.08C341.96 323.71 341.71 324.34 341.41 324.96C341.08 325.61 340.71 326.28 340.26 326.89C339.83 327.52 339.32 328.11 338.78 328.69C339.51 328.41 340.26 328.09 340.96 327.69C341.68 327.31 342.37 326.84 343.04 326.33C343.71 325.82 344.34 325.23 344.94 324.59C345.12 324.4 345.29 324.2 345.46 324C345.97 323.99 346.49 324.07 347 324.25C347.18 324.29 347.32 324.38 347.49 324.45C347.65 324.52 347.83 324.6 347.97 324.71L348.44 325.02L348.88 325.4L349.1 325.6L349.3 325.83L349.7 326.29C349.94 326.62 350.16 326.97 350.4 327.33C350.33 326.92 350.28 326.49 350.18 326.06L350 325.43Z" fill="#78B528"/>
<path d="M99.0103 140.25L99.1302 139.86L99.2902 139.48L99.6403 138.71C99.7803 138.47 99.9402 138.23 100.1 137.98C100.25 137.72 100.44 137.5 100.63 137.28C100.83 137.06 101.01 136.81 101.24 136.62C101.72 136.15 102.28 135.74 102.88 135.39C102.67 135.25 102.46 135.11 102.24 134.99C101.52 134.6 100.74 134.33 99.8802 134.25C99.0202 134.17 98.1302 134.37 97.2202 134.72C97.8602 134.02 98.6503 133.34 99.6503 132.96C100.64 132.58 101.74 132.41 102.84 132.44C103.36 132.46 103.87 132.52 104.38 132.61C104.36 132.56 104.33 132.52 104.31 132.47C103.98 131.75 103.7 131.02 103.49 130.28C103.29 129.53 103.16 128.77 103.15 128.04C104.01 129.23 105.13 130.06 106.3 130.76C106.56 130.91 106.83 131.06 107.1 131.2C107.48 130.68 107.84 130.14 108.16 129.56C108.63 128.72 108.98 127.83 109.25 126.88C109.52 125.93 109.61 124.93 109.6 123.88C110.04 124.81 110.4 125.84 110.56 126.93C110.72 128.01 110.78 129.14 110.68 130.26C110.62 131.04 110.5 131.82 110.35 132.6C111.19 132.68 112.02 132.82 112.83 133.03C113.82 133.29 114.77 133.69 115.63 134.18C116.49 134.68 117.22 135.35 117.81 136.05C116.94 135.69 116.09 135.47 115.22 135.42C114.36 135.38 113.52 135.45 112.71 135.64C111.9 135.83 111.12 136.1 110.37 136.43C110 136.6 109.63 136.78 109.29 136.98C109.11 137.08 108.95 137.18 108.78 137.28C108.73 137.31 108.67 137.35 108.62 137.39C108.86 138.16 109.15 138.93 109.53 139.69C109.94 140.49 110.39 141.3 110.94 142.06C111.47 142.83 112.09 143.55 112.75 144.27C111.85 143.92 110.94 143.53 110.07 143.05C109.18 142.58 108.35 142.01 107.52 141.39C106.7 140.76 105.93 140.05 105.2 139.26C104.98 139.03 104.77 138.78 104.57 138.53C103.94 138.52 103.31 138.61 102.69 138.83C102.47 138.88 102.29 138.99 102.09 139.08C101.89 139.17 101.68 139.26 101.5 139.4L100.92 139.78L100.39 140.25L100.12 140.49L99.8802 140.77L99.3903 141.34C99.0903 141.74 98.8303 142.18 98.5303 142.61C98.6103 142.11 98.6802 141.58 98.7902 141.06L99.0103 140.25Z" fill="#78B528"/>
<path d="M159.29 299.38L159.28 299.35L159.27 299.36C159.25 299.37 159.28 299.37 159.29 299.38Z" fill="#78B528"/>
<path d="M168.77 293.48C169.85 293.27 171 293.24 172.18 293.51C171.22 292.81 170.05 292.3 168.79 292.04C167.53 291.79 166.23 291.77 164.94 291.87C164.09 291.93 163.25 292.07 162.41 292.25C162.76 291.84 163.13 291.44 163.55 291.08C164.32 290.41 165.17 289.77 166.13 289.28C166.6 289 167.11 288.81 167.62 288.59C168.13 288.38 168.67 288.24 169.21 288.05C168.65 287.99 168.08 287.9 167.5 287.88C166.93 287.87 166.33 287.83 165.74 287.89C164.55 287.94 163.36 288.19 162.16 288.54C161.26 288.81 160.38 289.18 159.53 289.63C158.63 288.59 157.63 287.67 156.58 286.87C155.93 286.43 155.32 285.98 154.64 285.62C154.31 285.44 153.99 285.24 153.65 285.08L152.63 284.61C152.3 284.45 151.95 284.32 151.6 284.19L150.56 283.81C149.86 283.59 149.15 283.41 148.46 283.22C149.06 283.63 149.66 284.03 150.23 284.45L151.06 285.12C151.34 285.34 151.6 285.56 151.85 285.81L152.6 286.53C152.85 286.77 153.06 287.04 153.29 287.3C153.76 287.79 154.14 288.36 154.54 288.89C155.21 289.91 155.76 290.96 156.16 292.04C156.13 292.07 156.1 292.09 156.08 292.12C155.07 292.2 154.06 292.36 153.09 292.61C152 292.9 150.95 293.33 150.01 293.88C149.06 294.43 148.27 295.17 147.61 295.94C148.56 295.55 149.51 295.3 150.46 295.25C151.41 295.21 152.33 295.29 153.22 295.49C153.78 295.62 154.33 295.79 154.87 295.99C154.46 296.48 154.1 297.01 153.82 297.56C153.21 298.83 152.95 300.13 152.87 301.37C152.84 301.99 152.89 302.61 152.91 303.2L153.18 304.96L153.62 303.27C153.84 302.73 153.94 302.15 154.26 301.71C156.2 299.04 159.28 299.33 159.28 299.33L159.32 299.31C159.35 299.29 159.38 299.27 159.43 299.25C159.52 299.21 159.6 299.16 159.7 299.13C159.89 299.05 160.09 298.99 160.3 298.93C160.51 298.86 160.72 298.83 160.93 298.77C161.14 298.74 161.36 298.7 161.58 298.68C162.46 298.59 163.37 298.67 164.25 298.98C164.49 299.03 164.69 299.15 164.91 299.25C165.13 299.35 165.36 299.45 165.56 299.6L166.2 300.02L166.79 300.54L167.09 300.81L167.35 301.11L167.89 301.74C168.22 302.18 168.51 302.66 168.83 303.14C168.74 302.59 168.67 302.01 168.54 301.43L168.29 300.58L168.16 300.15L167.98 299.73L167.6 298.88C167.44 298.61 167.27 298.35 167.1 298.08C166.94 297.8 166.73 297.55 166.52 297.31C166.3 297.06 166.1 296.79 165.84 296.58C165.4 296.15 164.9 295.77 164.37 295.43C164.8 295.14 165.25 294.87 165.7 294.63C166.66 294.14 167.68 293.71 168.77 293.48Z" fill="#78B528"/>
<path d="M258.88 121.16L258.89 121.13L258.9 121.14C258.91 121.15 258.88 121.16 258.88 121.16Z" fill="#78B528"/>
<path d="M249.4 115.26C248.32 115.05 247.17 115.02 245.99 115.29C246.95 114.59 248.12 114.08 249.38 113.82C250.64 113.57 251.94 113.55 253.23 113.65C254.08 113.71 254.92 113.85 255.76 114.03C255.41 113.62 255.04 113.22 254.62 112.86C253.85 112.19 253 111.55 252.04 111.06C251.57 110.78 251.06 110.59 250.55 110.37C250.04 110.16 249.5 110.02 248.96 109.83C249.52 109.77 250.09 109.68 250.67 109.66C251.24 109.65 251.84 109.61 252.43 109.67C253.62 109.72 254.81 109.97 256.01 110.32C256.91 110.59 257.79 110.96 258.64 111.41C259.54 110.37 260.54 109.45 261.59 108.65C262.24 108.21 262.85 107.76 263.53 107.4C263.86 107.22 264.18 107.02 264.52 106.86L265.54 106.39C265.87 106.23 266.22 106.1 266.57 105.97L267.61 105.59C268.31 105.37 269.02 105.19 269.71 105C269.11 105.41 268.51 105.81 267.94 106.23L267.11 106.9C266.83 107.12 266.57 107.34 266.32 107.59L265.57 108.31C265.32 108.55 265.11 108.82 264.88 109.08C264.41 109.57 264.03 110.14 263.63 110.67C262.96 111.69 262.41 112.74 262.01 113.82C262.04 113.85 262.07 113.87 262.09 113.9C263.1 113.98 264.11 114.14 265.08 114.39C266.17 114.68 267.22 115.11 268.16 115.66C269.11 116.21 269.9 116.95 270.56 117.72C269.61 117.33 268.66 117.08 267.71 117.03C266.76 116.99 265.5 117.28 264.63 117.58C260.72 118.94 258.88 121.11 258.88 121.11L258.84 121.09C258.81 121.07 258.78 121.05 258.73 121.03C258.64 120.99 258.56 120.94 258.46 120.91C258.27 120.83 258.07 120.77 257.86 120.71C257.65 120.64 257.44 120.61 257.23 120.55C257.02 120.52 256.8 120.48 256.58 120.46C255.7 120.37 254.79 120.45 253.91 120.76C253.67 120.81 253.47 120.93 253.25 121.03C253.03 121.13 252.8 121.23 252.6 121.38L251.96 121.8L251.37 122.32L251.07 122.59L250.81 122.89L250.27 123.52C249.94 123.96 249.65 124.44 249.33 124.92C249.42 124.37 249.49 123.79 249.62 123.21L249.87 122.36L250 121.93L250.18 121.51L250.56 120.66C250.72 120.39 250.89 120.13 251.06 119.86C251.22 119.58 251.43 119.33 251.64 119.09C251.86 118.84 252.06 118.57 252.32 118.36C252.76 117.93 253.26 117.55 253.79 117.21C253.36 116.92 252.91 116.65 252.46 116.41C251.5 115.93 250.49 115.49 249.4 115.26Z" fill="#78B528"/>
<path d="M322.3 89.0598C321.98 88.8798 321.66 88.6698 321.31 88.5298L320.28 88.0698C319.93 87.9098 319.56 87.8298 319.2 87.6998C318.47 87.4398 317.72 87.3198 316.95 87.1598C316.57 87.0998 316.18 87.0698 315.79 87.0298C315.4 86.9798 315 86.9798 314.61 86.9698C313.03 86.9398 311.42 87.1298 309.85 87.5298L309.49 87.6298C310.1 86.8198 310.86 86.0598 311.71 85.3898L312.43 84.8598C312.68 84.6798 312.94 84.5398 313.2 84.3798C313.71 84.0398 314.28 83.7898 314.84 83.5098C315.4 83.2398 316 83.0298 316.59 82.7898L318.42 82.2098L316.48 82.1898C315.83 82.2398 315.17 82.2498 314.51 82.3398C313.86 82.4398 313.18 82.5098 312.53 82.6798C312.2 82.7598 311.86 82.8198 311.54 82.9198L310.56 83.2398C309.37 83.6698 308.2 84.2498 307.09 85.0098C306.34 83.9398 305.52 82.9398 304.6 82.0498C303.51 80.9798 302.34 80.0198 301.07 79.2398C300.46 78.8198 299.79 78.4998 299.14 78.1598C298.82 77.9798 298.48 77.8598 298.14 77.7098L297.14 77.2998L297.98 77.9698C298.26 78.1998 298.54 78.3998 298.8 78.6598C299.32 79.1498 299.84 79.6198 300.28 80.1698C301.22 81.1998 302 82.3498 302.66 83.5298C303.29 84.6498 303.78 85.8198 304.15 87.0198C303.83 86.9998 303.51 86.9998 303.2 87.0298C302.98 87.0298 302.77 87.0798 302.56 87.1098C302.35 87.1398 302.14 87.1798 301.94 87.2398L301.35 87.4098L300.79 87.6398C300.42 87.7798 300.09 88.0098 299.76 88.1798C299.44 88.3898 299.14 88.6198 298.85 88.8398C299.22 88.8098 299.58 88.7698 299.94 88.7698C300.3 88.7998 300.65 88.7698 300.99 88.8498L301.49 88.9298L301.96 89.0698C302.11 89.1098 302.26 89.1698 302.41 89.2398C302.55 89.3098 302.7 89.3498 302.83 89.4398C303.12 89.5898 303.39 89.7798 303.63 89.9898C302.84 90.3598 302.11 90.8098 301.47 91.3498C301.22 91.5398 301.01 91.7698 300.79 91.9798L300.46 92.2998L300.17 92.6498C299.98 92.8898 299.79 93.1098 299.61 93.3498L299.14 94.0998C299.06 94.2198 298.98 94.3398 298.92 94.4698L298.73 94.8598L298.37 95.6298C298.16 96.1598 298 96.6998 297.82 97.2098C298.18 96.7798 298.52 96.3498 298.88 95.9598L299.46 95.3998L299.75 95.1298C299.85 95.0498 299.96 94.9698 300.07 94.8898L300.69 94.4198C300.91 94.2798 301.13 94.1598 301.35 94.0298L301.67 93.8498L302.01 93.7098C302.24 93.6198 302.45 93.4998 302.69 93.4398C303.6 93.1298 304.54 93.0398 305.43 93.0898C305.88 93.1198 306.32 93.1898 306.74 93.2898C306.95 93.3498 307.15 93.3998 307.34 93.4698C307.44 93.4998 307.53 93.5398 307.61 93.5798C307.66 93.5998 307.7 93.6198 307.73 93.6398C307.75 93.6498 307.77 93.6598 307.78 93.6698C307.78 93.6698 308.39 93.3498 309.56 93.4298C310.31 93.4798 311.09 93.6898 311.86 93.9698C312.63 94.2598 313.4 94.6498 314.14 95.1098C314.52 95.3398 314.86 95.6098 315.23 95.8598C315.58 96.1398 315.92 96.4298 316.28 96.7198C316.09 96.3098 315.91 95.8898 315.71 95.4698C315.48 95.0698 315.28 94.6498 315.02 94.2498C314.52 93.4498 313.94 92.6798 313.26 91.9498C312.81 91.4798 312.31 91.0398 311.77 90.6198C312.76 90.0898 313.81 89.6698 314.92 89.3698C315.25 89.2798 315.58 89.1798 315.92 89.1398C316.26 89.0798 316.6 89.0098 316.94 88.9698C317.63 88.9198 318.33 88.8298 319.03 88.8898C319.38 88.9098 319.75 88.8898 320.1 88.9498L321.17 89.0998C321.53 89.1298 321.88 89.2398 322.23 89.3298L323.3 89.5998L322.3 89.0598Z" fill="#78B528"/>
<path d="M307.75 93.6898V93.7098C307.76 93.6998 307.76 93.6998 307.75 93.6898Z" fill="#78B528"/>
<path d="M175.85 345.81C176.12 345.66 176.38 345.49 176.66 345.38L177.51 345C177.79 344.86 178.1 344.8 178.4 344.69C179 344.47 179.62 344.37 180.26 344.24C180.58 344.19 180.9 344.17 181.22 344.13C181.54 344.09 181.87 344.08 182.19 344.08C183.49 344.06 184.82 344.21 186.11 344.54L186.41 344.63C185.91 343.96 185.28 343.34 184.58 342.78L183.98 342.34C183.78 342.2 183.56 342.08 183.34 341.94C182.92 341.66 182.45 341.46 181.99 341.22C181.52 341 181.04 340.83 180.55 340.62L179.04 340.14L180.64 340.12C181.17 340.16 181.72 340.17 182.26 340.24C182.8 340.32 183.35 340.38 183.89 340.52C184.16 340.59 184.44 340.64 184.71 340.72L185.52 340.98C186.5 341.34 187.47 341.81 188.38 342.44C189 341.56 189.68 340.74 190.43 340C191.33 339.12 192.29 338.32 193.34 337.69C193.85 337.35 194.4 337.08 194.93 336.8C195.19 336.65 195.48 336.55 195.75 336.43L196.58 336.09L195.88 336.64C195.65 336.83 195.41 337 195.21 337.21C194.78 337.62 194.36 338 193.99 338.45C193.21 339.3 192.57 340.25 192.03 341.22C191.51 342.14 191.11 343.11 190.8 344.09C191.06 344.08 191.33 344.07 191.59 344.09C191.77 344.09 191.95 344.13 192.12 344.16C192.29 344.19 192.46 344.21 192.63 344.27L193.12 344.41L193.58 344.6C193.89 344.71 194.16 344.9 194.43 345.05C194.7 345.22 194.94 345.41 195.18 345.59C194.87 345.57 194.58 345.53 194.28 345.53C193.98 345.55 193.7 345.53 193.42 345.59L193.01 345.66L192.62 345.78C192.49 345.81 192.37 345.87 192.25 345.92C192.13 345.98 192.01 346.01 191.91 346.08C191.67 346.21 191.45 346.36 191.25 346.53C191.9 346.83 192.5 347.2 193.03 347.65C193.24 347.8 193.41 348 193.59 348.17L193.86 348.43L194.1 348.72C194.26 348.92 194.42 349.1 194.56 349.3L194.95 349.92C195.01 350.02 195.08 350.12 195.14 350.23L195.29 350.55L195.59 351.19C195.76 351.62 195.9 352.07 196.04 352.5C195.74 352.15 195.47 351.79 195.16 351.47L194.68 351.01L194.44 350.78C194.36 350.71 194.27 350.65 194.18 350.58L193.67 350.2C193.49 350.09 193.3 349.99 193.13 349.88L192.86 349.73L192.58 349.61C192.39 349.54 192.22 349.44 192.02 349.39C191.27 349.13 190.49 349.06 189.76 349.1C189.39 349.12 189.03 349.18 188.68 349.26C188.51 349.31 188.34 349.35 188.18 349.41C188.1 349.44 188.03 349.47 187.95 349.5C187.91 349.51 187.88 349.53 187.85 349.55C187.84 349.56 187.82 349.57 187.81 349.57C187.81 349.57 186.64 349.17 184.45 349.82C183.8 350.01 183.18 350.38 182.57 350.76C182.26 350.95 181.98 351.17 181.67 351.38C181.38 351.61 181.1 351.85 180.81 352.09C180.96 351.75 181.12 351.4 181.28 351.06C181.47 350.73 181.64 350.38 181.85 350.06C182.26 349.4 182.74 348.76 183.3 348.16C183.67 347.77 184.08 347.41 184.53 347.07C183.71 346.64 182.85 346.29 181.93 346.04C181.66 345.96 181.39 345.89 181.11 345.85C180.83 345.8 180.55 345.74 180.27 345.71C179.71 345.67 179.12 345.6 178.55 345.64C178.26 345.66 177.96 345.64 177.67 345.69L176.79 345.81C176.49 345.84 176.21 345.93 175.91 346L175.03 346.22L175.85 345.81Z" fill="#78B528"/>
<path d="M187.841 349.62V349.63C187.831 349.63 187.831 349.63 187.841 349.62Z" fill="#78B528"/>
<path d="M230.62 78.4698C230.83 78.3498 231.04 78.2199 231.26 78.1299L231.93 77.8298C232.15 77.7198 232.39 77.6698 232.63 77.5898C233.1 77.4198 233.591 77.3399 234.091 77.2399C234.341 77.1999 234.59 77.1799 234.85 77.1599C235.11 77.1299 235.36 77.1198 235.62 77.1198C236.65 77.0998 237.691 77.2199 238.711 77.4899L238.94 77.5598C238.54 77.0298 238.05 76.5399 237.5 76.0999L237.031 75.7498C236.871 75.6398 236.701 75.5398 236.531 75.4398C236.201 75.2199 235.83 75.0598 235.47 74.8698C235.1 74.6898 234.721 74.5598 234.331 74.3998L233.141 74.0199L234.401 74.0098C234.821 74.0398 235.25 74.0498 235.68 74.1098C236.1 74.1798 236.54 74.2198 236.97 74.3298C237.18 74.3798 237.4 74.4199 237.61 74.4899L238.25 74.6998C239.02 74.9798 239.79 75.3599 240.5 75.8499C240.99 75.1599 241.52 74.5098 242.12 73.9298C242.83 73.2298 243.59 72.6098 244.41 72.1098C244.81 71.8398 245.24 71.6299 245.66 71.4099C245.87 71.2899 246.09 71.2098 246.31 71.1198L246.961 70.8499L246.41 71.2898C246.23 71.4398 246.04 71.5699 245.88 71.7399C245.54 72.0599 245.21 72.3598 244.92 72.7198C244.31 73.3898 243.8 74.1398 243.37 74.8998C242.96 75.6298 242.641 76.3898 242.401 77.1698C242.611 77.1598 242.821 77.1598 243.021 77.1698C243.161 77.1698 243.3 77.1998 243.44 77.2198C243.58 77.2398 243.711 77.2599 243.841 77.2999L244.23 77.4099L244.591 77.5598C244.831 77.6498 245.05 77.7999 245.26 77.9099C245.47 78.0399 245.66 78.1998 245.85 78.3398C245.61 78.3198 245.371 78.2998 245.141 78.2898C244.901 78.3098 244.681 78.2898 244.461 78.3398L244.141 78.3898L243.831 78.4798C243.731 78.5098 243.63 78.5498 243.54 78.5898C243.45 78.6298 243.351 78.6598 243.271 78.7198C243.081 78.8198 242.91 78.9398 242.75 79.0798C243.26 79.3198 243.741 79.6098 244.151 79.9698C244.311 80.0898 244.451 80.2499 244.591 80.3799L244.8 80.5898L244.99 80.8199C245.11 80.9699 245.24 81.1198 245.35 81.2798L245.651 81.7699C245.701 81.8499 245.75 81.9298 245.8 82.0098L245.92 82.2598L246.151 82.7598C246.291 83.0998 246.39 83.4498 246.51 83.7898C246.28 83.5098 246.06 83.2298 245.82 82.9798L245.44 82.6198L245.25 82.4398C245.18 82.3798 245.11 82.3398 245.05 82.2798L244.651 81.9798C244.511 81.8898 244.36 81.8098 244.22 81.7298L244.01 81.6098L243.79 81.5199C243.64 81.4599 243.5 81.3899 243.35 81.3499C242.76 81.1499 242.15 81.0898 241.57 81.1198C241.28 81.1398 240.99 81.1798 240.72 81.2498C240.58 81.2898 240.451 81.3198 240.331 81.3698C240.271 81.3898 240.211 81.4198 240.151 81.4398C240.121 81.4499 240.09 81.4598 240.07 81.4798C240.06 81.4898 240.05 81.4898 240.04 81.4998C240.04 81.4998 239.121 81.1798 237.391 81.6998C236.881 81.8498 236.39 82.1398 235.91 82.4398C235.67 82.5898 235.441 82.7598 235.201 82.9298C234.971 83.1098 234.751 83.2999 234.521 83.4899C234.641 83.2199 234.761 82.9498 234.891 82.6798C235.041 82.4198 235.171 82.1398 235.341 81.8898C235.661 81.3698 236.04 80.8698 236.49 80.3998C236.78 80.0998 237.111 79.8098 237.461 79.5398C236.821 79.1998 236.13 78.9198 235.41 78.7298C235.2 78.6698 234.98 78.6098 234.76 78.5798C234.54 78.5398 234.32 78.4998 234.1 78.4698C233.65 78.4398 233.2 78.3798 232.74 78.4198C232.51 78.4298 232.28 78.4199 232.05 78.4599L231.36 78.5598C231.12 78.5798 230.9 78.6499 230.67 78.7099L229.98 78.8898L230.62 78.4698Z" fill="#78B528"/>
<path d="M240.07 81.4799V81.4899C240.06 81.4899 240.06 81.4799 240.07 81.4799Z" fill="#78B528"/>
</svg>
