<svg width="435" height="435" viewBox="0 0 435 435" fill="none" xmlns="http://www.w3.org/2000/svg">
<path d="M340.87 2.76001C283.86 -7.00999 208.65 18.45 105 29.96C27.4003 38.58 4.87032 61.11 5.29032 141.44C5.78032 237.07 -12.0098 343.59 29.9402 402.53C58.3902 442.5 184.25 436.64 282.79 429.34C395.16 421.02 445.07 455.97 430.16 271.71C418.06 122.14 417.83 15.96 340.87 2.76001Z" fill="#8AD9F7"/>
<path d="M17.6304 144.44C16.2804 192.13 13.7704 269.4 17.3904 315.15C24.5104 405.09 54.4104 410.18 96.8804 414.78C123.01 417.61 338.7 425.88 376.13 402.54C399.28 388.1 414.09 366.67 415.51 328.31C418.13 257.43 410.86 161.05 399.69 98.9901C389.93 44.7401 362.29 12.9901 284.69 21.7601C210.85 30.1001 138.75 40.1001 93.3503 43.9501C36.7203 48.7401 19.4704 79.5401 17.6304 144.44Z" fill="#B8E1F2"/>
<path d="M318.24 50.07C345.46 50.02 369.32 68.07 376.14 93.95C388.13 139.42 400.51 221.14 385.64 342.03C384.11 354.42 378.69 365.62 370.6 374.4C365.44 379.99 359.2 384.6 352.19 387.9C346.72 390.49 340.77 392.28 334.5 393.13C334.49 393.13 334.47 393.14 334.46 393.14C332.18 393.45 329.84 393.75 327.42 394.06C325.2 394.35 322.92 394.63 320.58 394.91C314.06 395.69 307.12 396.45 299.79 397.17C292.3 397.9 284.42 398.59 276.2 399.19C226.98 402.78 165.82 403.38 105.87 393.76C103.34 393.35 100.87 392.79 98.4502 392.09C77.6302 386.01 61.5703 369.11 57.0803 347.84C56.3303 344.31 55.5703 340.55 54.8003 336.58C54.2503 333.74 53.6903 330.78 53.1403 327.73C44.5103 280.45 35.7103 207.48 40.4603 120.79C40.4803 120.43 40.5003 120.08 40.5303 119.72C40.7403 116.83 41.1703 113.98 41.7903 111.22C43.5603 103.41 46.9203 96.16 51.5303 89.85C59.9403 78.33 72.5203 69.9 87.2803 66.72C88.2603 66.51 89.2403 66.32 90.2403 66.16C96.0603 65.21 102.43 64.22 109.39 63.23C109.39 63.23 109.39 63.23 109.4 63.23C117.92 62.02 127.29 60.81 137.53 59.63C155.67 57.54 176.54 55.59 200.17 53.98C206.21 53.58 212.44 53.19 218.85 52.83C224.42 52.52 230.12 52.24 235.97 51.97C241.07 51.74 246.27 51.53 251.58 51.33C272.2 50.56 294.41 50.11 318.24 50.07Z" fill="#877646"/>
<path d="M95.6803 349.01C154.67 376.39 279.65 385.11 325.41 330.51C380.32 264.99 386.92 219.69 378.23 129.34V129.32C376.05 117.35 373.66 106.88 371.29 97.87C364.67 72.77 341.54 55.28 315.15 55.32C292.04 55.36 270.51 55.79 250.51 56.52C245.36 56.71 240.32 56.91 235.38 57.14C229.71 57.4 224.18 57.68 218.78 57.97C212.57 58.32 206.53 58.69 200.67 59.08C177.75 60.63 157.52 62.53 139.93 64.55C130 65.69 120.91 66.87 112.65 68.04C112.64 68.04 112.64 68.04 112.64 68.04C105.9 68.99 99.7202 69.95 94.0802 70.88C93.1102 71.04 92.1602 71.22 91.2102 71.43C76.9102 74.51 64.7003 82.69 56.5503 93.86C52.0703 99.98 48.8203 107.01 47.1003 114.58C46.4903 117.26 46.0803 120.02 45.8703 122.82C45.8403 123.17 45.8203 123.51 45.8003 123.86C43.6503 163.06 46.0302 206.4 50.0802 245.14C50.0802 245.14 50.1103 245.41 50.1603 245.93C51.1703 254.75 60.6203 332.74 95.6803 349.01Z" fill="#B88E59"/>
<path d="M62.3002 131.97C56.7402 160.19 49.1502 300.29 67.0502 354.05C71.6002 367.72 71.8002 391.42 183.76 387.9C275.61 385.01 366.11 384.18 374.66 330.21C383.21 276.24 376.85 103.79 346.94 80.5C328.69 66.29 318.11 58.02 165.15 68.58C135.63 70.63 73.3902 75.63 62.3002 131.97Z" fill="#E9C77F"/>
<path d="M81.3901 50.33C72.5801 51.26 60.4501 55.9 50.0201 65.38C39.5901 74.86 52.08 82.1 60.58 73.97C66.73 68.09 73.0501 65.29 81.3101 63.36C95.8201 59.98 97.4601 48.63 81.3901 50.33Z" fill="#DCEEF2"/>
<path d="M28.3704 97.3099C24.2104 113.74 34.4604 112.9 39.4304 103.02C48.8404 84.32 32.5304 80.8899 28.3704 97.3099Z" fill="#DCEEF2"/>
<path d="M408.15 346.39C409.1 323.07 395.53 327.1 391.62 341.83C384.24 369.7 407.2 369.71 408.15 346.39Z" fill="#DCEEF2"/>
<path d="M41.8102 374.67C41.8102 374.67 59.2901 405.43 74.4901 404.25C89.6901 403.07 75.3601 391.13 62.2001 375.96C49.0401 360.79 47.1902 348.06 43.0502 342.05C38.9102 336.04 30.1601 340.6 34.7101 355.89C39.2701 371.17 41.8102 374.67 41.8102 374.67Z" fill="#DCEEF2"/>
<path d="M92.8301 98.44C74.7801 112.47 59.2802 143.64 67.0302 198.85C73.5402 245.26 57.8701 286.58 67.8401 320.57C80.4101 363.41 111.2 371.88 150.89 376.34C177.34 379.32 237.54 375.91 284.01 367.99C338.97 358.63 364.86 335.01 369.75 299.8C374.81 263.3 370.09 221 365.64 196.6C361.17 172.11 361.14 152.59 352.79 121.18C346.56 97.74 332.76 73.46 288.49 71.96C253.91 70.78 236.06 71.92 182.24 72.53C140.34 73.02 114.66 81.47 92.8301 98.44Z" fill="#F4DA8F"/>
<path d="M143.97 88.66C143.97 88.66 86.4704 101.97 81.0204 162.22C75.5704 222.47 63.6703 311.74 92.8203 336.31C121.98 360.89 189.28 377.89 272.61 346.59C355.94 315.29 363.8 268.47 356.47 232.24C349.14 196.01 348.33 130.9 332.04 110.12C315.76 89.3399 285.63 80.67 235.96 82.16C186.31 83.64 143.97 88.66 143.97 88.66Z" fill="#FFE99D"/>
<path d="M104.53 307.71C105.557 307.71 106.39 306.877 106.39 305.85C106.39 304.823 105.557 303.99 104.53 303.99C103.503 303.99 102.67 304.823 102.67 305.85C102.67 306.877 103.503 307.71 104.53 307.71Z" fill="#F4DA8F"/>
<path d="M89.79 324.4C90.9277 324.4 91.85 323.478 91.85 322.34C91.85 321.202 90.9277 320.28 89.79 320.28C88.6523 320.28 87.73 321.202 87.73 322.34C87.73 323.478 88.6523 324.4 89.79 324.4Z" fill="#F4DA8F"/>
<path d="M121.66 354.95C123.19 354.95 124.43 353.71 124.43 352.18C124.43 350.65 123.19 349.41 121.66 349.41C120.13 349.41 118.89 350.65 118.89 352.18C118.89 353.71 120.13 354.95 121.66 354.95Z" fill="#F4DA8F"/>
<path d="M140.79 362.55C142.32 362.55 143.56 361.31 143.56 359.78C143.56 358.25 142.32 357.01 140.79 357.01C139.26 357.01 138.02 358.25 138.02 359.78C138.02 361.31 139.26 362.55 140.79 362.55Z" fill="#F4DA8F"/>
<path d="M84.4102 301.8C85.94 301.8 87.1802 300.56 87.1802 299.03C87.1802 297.5 85.94 296.26 84.4102 296.26C82.8803 296.26 81.6401 297.5 81.6401 299.03C81.6401 300.56 82.8803 301.8 84.4102 301.8Z" fill="#F4DA8F"/>
<path d="M75.6898 292.06C77.2196 292.06 78.4598 290.82 78.4598 289.29C78.4598 287.76 77.2196 286.52 75.6898 286.52C74.16 286.52 72.9199 287.76 72.9199 289.29C72.9199 290.82 74.16 292.06 75.6898 292.06Z" fill="#F4DA8F"/>
<path d="M74.1699 288.54C75.6998 288.54 76.9398 287.3 76.9398 285.77C76.9398 284.24 75.6998 283 74.1699 283C72.6401 283 71.3999 284.24 71.3999 285.77C71.3999 287.3 72.6401 288.54 74.1699 288.54Z" fill="#F4DA8F"/>
<path d="M73.52 273.47C75.0498 273.47 76.29 272.23 76.29 270.7C76.29 269.17 75.0498 267.93 73.52 267.93C71.9902 267.93 70.75 269.17 70.75 270.7C70.75 272.23 71.9902 273.47 73.52 273.47Z" fill="#F4DA8F"/>
<path d="M103 346.78C104.53 346.78 105.77 345.54 105.77 344.01C105.77 342.48 104.53 341.24 103 341.24C101.47 341.24 100.23 342.48 100.23 344.01C100.23 345.54 101.47 346.78 103 346.78Z" fill="#F4DA8F"/>
<path d="M109.99 327.92C111.52 327.92 112.76 326.68 112.76 325.15C112.76 323.62 111.52 322.38 109.99 322.38C108.46 322.38 107.22 323.62 107.22 325.15C107.22 326.68 108.46 327.92 109.99 327.92Z" fill="#F4DA8F"/>
<path d="M92.29 336.99C93.8199 336.99 95.0601 335.75 95.0601 334.22C95.0601 332.69 93.8199 331.45 92.29 331.45C90.7602 331.45 89.52 332.69 89.52 334.22C89.52 335.75 90.7602 336.99 92.29 336.99Z" fill="#F4DA8F"/>
<path d="M110.99 350.86C112.52 350.86 113.76 349.62 113.76 348.09C113.76 346.56 112.52 345.32 110.99 345.32C109.46 345.32 108.22 346.56 108.22 348.09C108.22 349.62 109.46 350.86 110.99 350.86Z" fill="#F4DA8F"/>
<path d="M136.86 360.36C138.39 360.36 139.63 359.12 139.63 357.59C139.63 356.06 138.39 354.82 136.86 354.82C135.33 354.82 134.09 356.06 134.09 357.59C134.09 359.12 135.33 360.36 136.86 360.36Z" fill="#F4DA8F"/>
<path d="M115.98 353.51C118.244 353.51 120.08 351.674 120.08 349.41C120.08 347.146 118.244 345.31 115.98 345.31C113.715 345.31 111.88 347.146 111.88 349.41C111.88 351.674 113.715 353.51 115.98 353.51Z" fill="#F4DA8F"/>
<path d="M127.93 344.76C128.902 344.76 129.69 343.972 129.69 343C129.69 342.028 128.902 341.24 127.93 341.24C126.958 341.24 126.17 342.028 126.17 343C126.17 343.972 126.958 344.76 127.93 344.76Z" fill="#F4DA8F"/>
<path d="M88.95 331.45C89.922 331.45 90.71 330.662 90.71 329.69C90.71 328.718 89.922 327.93 88.95 327.93C87.9779 327.93 87.1899 328.718 87.1899 329.69C87.1899 330.662 87.9779 331.45 88.95 331.45Z" fill="#F4DA8F"/>
<path d="M141.8 355.27C142.772 355.27 143.56 354.482 143.56 353.51C143.56 352.538 142.772 351.75 141.8 351.75C140.828 351.75 140.04 352.538 140.04 353.51C140.04 354.482 140.828 355.27 141.8 355.27Z" fill="#F4DA8F"/>
<path d="M97.9099 326.16C98.8819 326.16 99.6699 325.372 99.6699 324.4C99.6699 323.428 98.8819 322.64 97.9099 322.64C96.9379 322.64 96.1499 323.428 96.1499 324.4C96.1499 325.372 96.9379 326.16 97.9099 326.16Z" fill="#F4DA8F"/>
<path d="M102.67 335.12C103.642 335.12 104.43 334.332 104.43 333.36C104.43 332.388 103.642 331.6 102.67 331.6C101.698 331.6 100.91 332.388 100.91 333.36C100.91 334.332 101.698 335.12 102.67 335.12Z" fill="#F4DA8F"/>
<path d="M124.84 327.92C125.812 327.92 126.6 327.132 126.6 326.16C126.6 325.188 125.812 324.4 124.84 324.4C123.868 324.4 123.08 325.188 123.08 326.16C123.08 327.132 123.868 327.92 124.84 327.92Z" fill="#F4DA8F"/>
<path d="M82.45 307.72C82.9746 307.72 83.4 307.295 83.4 306.77C83.4 306.245 82.9746 305.82 82.45 305.82C81.9253 305.82 81.5 306.245 81.5 306.77C81.5 307.295 81.9253 307.72 82.45 307.72Z" fill="#F4DA8F"/>
<path d="M77.5798 294.22C78.1045 294.22 78.5299 293.795 78.5299 293.27C78.5299 292.745 78.1045 292.32 77.5798 292.32C77.0552 292.32 76.6299 292.745 76.6299 293.27C76.6299 293.795 77.0552 294.22 77.5798 294.22Z" fill="#F4DA8F"/>
<path d="M78.47 286.52C78.9946 286.52 79.42 286.095 79.42 285.57C79.42 285.045 78.9946 284.62 78.47 284.62C77.9453 284.62 77.52 285.045 77.52 285.57C77.52 286.095 77.9453 286.52 78.47 286.52Z" fill="#F4DA8F"/>
<path d="M84.41 295.17C84.9347 295.17 85.36 294.745 85.36 294.22C85.36 293.695 84.9347 293.27 84.41 293.27C83.8854 293.27 83.46 293.695 83.46 294.22C83.46 294.745 83.8854 295.17 84.41 295.17Z" fill="#F4DA8F"/>
<path d="M79.0701 299.03C79.5947 299.03 80.0201 298.605 80.0201 298.08C80.0201 297.555 79.5947 297.13 79.0701 297.13C78.5454 297.13 78.1201 297.555 78.1201 298.08C78.1201 298.605 78.5454 299.03 79.0701 299.03Z" fill="#F4DA8F"/>
<path d="M92.6199 298.56C93.1445 298.56 93.5698 298.135 93.5698 297.61C93.5698 297.085 93.1445 296.66 92.6199 296.66C92.0952 296.66 91.6699 297.085 91.6699 297.61C91.6699 298.135 92.0952 298.56 92.6199 298.56Z" fill="#F4DA8F"/>
<path d="M110.99 285.76C111.515 285.76 111.94 285.335 111.94 284.81C111.94 284.285 111.515 283.86 110.99 283.86C110.465 283.86 110.04 284.285 110.04 284.81C110.04 285.335 110.465 285.76 110.99 285.76Z" fill="#F4DA8F"/>
<path d="M143.36 269.83C143.885 269.83 144.31 269.405 144.31 268.88C144.31 268.355 143.885 267.93 143.36 267.93C142.835 267.93 142.41 268.355 142.41 268.88C142.41 269.405 142.835 269.83 143.36 269.83Z" fill="#F4DA8F"/>
<path d="M87.1801 317.03C87.7047 317.03 88.13 316.605 88.13 316.08C88.13 315.555 87.7047 315.13 87.1801 315.13C86.6554 315.13 86.23 315.555 86.23 316.08C86.23 316.605 86.6554 317.03 87.1801 317.03Z" fill="#F4DA8F"/>
<path d="M98.3099 316.08C98.8346 316.08 99.2599 315.655 99.2599 315.13C99.2599 314.605 98.8346 314.18 98.3099 314.18C97.7853 314.18 97.3599 314.605 97.3599 315.13C97.3599 315.655 97.7853 316.08 98.3099 316.08Z" fill="#F4DA8F"/>
<path d="M175.25 361.68C175.774 361.68 176.2 361.255 176.2 360.73C176.2 360.205 175.774 359.78 175.25 359.78C174.725 359.78 174.3 360.205 174.3 360.73C174.3 361.255 174.725 361.68 175.25 361.68Z" fill="#F4DA8F"/>
<path d="M153.59 323.33C154.115 323.33 154.54 322.905 154.54 322.38C154.54 321.855 154.115 321.43 153.59 321.43C153.065 321.43 152.64 321.855 152.64 322.38C152.64 322.905 153.065 323.33 153.59 323.33Z" fill="#F4DA8F"/>
<path d="M179.82 353.13C180.345 353.13 180.77 352.705 180.77 352.18C180.77 351.655 180.345 351.23 179.82 351.23C179.295 351.23 178.87 351.655 178.87 352.18C178.87 352.705 179.295 353.13 179.82 353.13Z" fill="#F4DA8F"/>
<path d="M177.92 364.1C178.444 364.1 178.87 363.675 178.87 363.15C178.87 362.625 178.444 362.2 177.92 362.2C177.395 362.2 176.97 362.625 176.97 363.15C176.97 363.675 177.395 364.1 177.92 364.1Z" fill="#F4DA8F"/>
<path d="M154.13 357.17C154.655 357.17 155.08 356.745 155.08 356.22C155.08 355.695 154.655 355.27 154.13 355.27C153.605 355.27 153.18 355.695 153.18 356.22C153.18 356.745 153.605 357.17 154.13 357.17Z" fill="#F4DA8F"/>
<path d="M89.5201 333.36C90.2823 333.36 90.9001 332.742 90.9001 331.98C90.9001 331.218 90.2823 330.6 89.5201 330.6C88.758 330.6 88.1401 331.218 88.1401 331.98C88.1401 332.742 88.758 333.36 89.5201 333.36Z" fill="#F4DA8F"/>
<path d="M148 308.53C148.972 308.53 149.76 307.742 149.76 306.77C149.76 305.798 148.972 305.01 148 305.01C147.028 305.01 146.24 305.798 146.24 306.77C146.24 307.742 147.028 308.53 148 308.53Z" fill="#F4DA8F"/>
<path d="M94.3801 280.78C95.3521 280.78 96.1401 279.992 96.1401 279.02C96.1401 278.048 95.3521 277.26 94.3801 277.26C93.4081 277.26 92.6201 278.048 92.6201 279.02C92.6201 279.992 93.4081 280.78 94.3801 280.78Z" fill="#F4DA8F"/>
<path d="M81.3499 262.46C82.3219 262.46 83.1099 261.672 83.1099 260.7C83.1099 259.728 82.3219 258.94 81.3499 258.94C80.3778 258.94 79.5898 259.728 79.5898 260.7C79.5898 261.672 80.3778 262.46 81.3499 262.46Z" fill="#F4DA8F"/>
<path d="M77.5798 276.47C78.5519 276.47 79.3398 275.682 79.3398 274.71C79.3398 273.738 78.5519 272.95 77.5798 272.95C76.6078 272.95 75.8198 273.738 75.8198 274.71C75.8198 275.682 76.6078 276.47 77.5798 276.47Z" fill="#F4DA8F"/>
<path d="M79.8801 295.59C80.8521 295.59 81.6401 294.802 81.6401 293.83C81.6401 292.858 80.8521 292.07 79.8801 292.07C78.9081 292.07 78.1201 292.858 78.1201 293.83C78.1201 294.802 78.9081 295.59 79.8801 295.59Z" fill="#F4DA8F"/>
<path d="M74.1702 269.69C75.1422 269.69 75.9302 268.902 75.9302 267.93C75.9302 266.958 75.1422 266.17 74.1702 266.17C73.1981 266.17 72.4102 266.958 72.4102 267.93C72.4102 268.902 73.1981 269.69 74.1702 269.69Z" fill="#F4DA8F"/>
<path d="M74.1698 270.35C76.0531 270.35 77.5797 268.823 77.5797 266.94C77.5797 265.057 76.0531 263.53 74.1698 263.53C72.2865 263.53 70.7598 265.057 70.7598 266.94C70.7598 268.823 72.2865 270.35 74.1698 270.35Z" fill="#F4DA8F"/>
<path d="M320.08 139.04C321.107 139.04 321.94 138.207 321.94 137.18C321.94 136.153 321.107 135.32 320.08 135.32C319.053 135.32 318.22 136.153 318.22 137.18C318.22 138.207 319.053 139.04 320.08 139.04Z" fill="#F4DA8F"/>
<path d="M334.81 122.75C335.948 122.75 336.87 121.828 336.87 120.69C336.87 119.552 335.948 118.63 334.81 118.63C333.672 118.63 332.75 119.552 332.75 120.69C332.75 121.828 333.672 122.75 334.81 122.75Z" fill="#F4DA8F"/>
<path d="M302.95 93.6201C304.48 93.6201 305.72 92.3799 305.72 90.8501C305.72 89.3203 304.48 88.0801 302.95 88.0801C301.42 88.0801 300.18 89.3203 300.18 90.8501C300.18 92.3799 301.42 93.6201 302.95 93.6201Z" fill="#F4DA8F"/>
<path d="M283.82 86.0201C285.35 86.0201 286.59 84.7799 286.59 83.2501C286.59 81.7203 285.35 80.4801 283.82 80.4801C282.29 80.4801 281.05 81.7203 281.05 83.2501C281.05 84.7799 282.29 86.0201 283.82 86.0201Z" fill="#F4DA8F"/>
<path d="M340.2 146.77C341.73 146.77 342.97 145.53 342.97 144C342.97 142.47 341.73 141.23 340.2 141.23C338.67 141.23 337.43 142.47 337.43 144C337.43 145.53 338.67 146.77 340.2 146.77Z" fill="#F4DA8F"/>
<path d="M348.92 156.51C350.45 156.51 351.69 155.27 351.69 153.74C351.69 152.21 350.45 150.97 348.92 150.97C347.391 150.97 346.15 152.21 346.15 153.74C346.15 155.27 347.391 156.51 348.92 156.51Z" fill="#F4DA8F"/>
<path d="M350.44 160.03C351.97 160.03 353.21 158.79 353.21 157.26C353.21 155.73 351.97 154.49 350.44 154.49C348.91 154.49 347.67 155.73 347.67 157.26C347.67 158.79 348.91 160.03 350.44 160.03Z" fill="#F4DA8F"/>
<path d="M351.08 175.1C352.61 175.1 353.85 173.86 353.85 172.33C353.85 170.8 352.61 169.56 351.08 169.56C349.55 169.56 348.31 170.8 348.31 172.33C348.31 173.86 349.55 175.1 351.08 175.1Z" fill="#F4DA8F"/>
<path d="M321.61 101.79C323.14 101.79 324.38 100.55 324.38 99.02C324.38 97.4902 323.14 96.25 321.61 96.25C320.08 96.25 318.84 97.4902 318.84 99.02C318.84 100.55 320.08 101.79 321.61 101.79Z" fill="#F4DA8F"/>
<path d="M314.62 120.65C316.15 120.65 317.39 119.41 317.39 117.88C317.39 116.35 316.15 115.11 314.62 115.11C313.09 115.11 311.85 116.35 311.85 117.88C311.85 119.41 313.09 120.65 314.62 120.65Z" fill="#F4DA8F"/>
<path d="M332.32 111.58C333.85 111.58 335.09 110.34 335.09 108.81C335.09 107.28 333.85 106.04 332.32 106.04C330.79 106.04 329.55 107.28 329.55 108.81C329.55 110.34 330.79 111.58 332.32 111.58Z" fill="#F4DA8F"/>
<path d="M313.62 97.7101C315.15 97.7101 316.39 96.4699 316.39 94.94C316.39 93.4102 315.15 92.17 313.62 92.17C312.09 92.17 310.85 93.4102 310.85 94.94C310.85 96.4699 312.09 97.7101 313.62 97.7101Z" fill="#F4DA8F"/>
<path d="M287.74 88.2101C289.27 88.2101 290.51 86.9699 290.51 85.44C290.51 83.9102 289.27 82.67 287.74 82.67C286.21 82.67 284.97 83.9102 284.97 85.44C284.97 86.9699 286.21 88.2101 287.74 88.2101Z" fill="#F4DA8F"/>
<path d="M308.63 97.72C310.895 97.72 312.73 95.8844 312.73 93.62C312.73 91.3556 310.895 89.52 308.63 89.52C306.366 89.52 304.53 91.3556 304.53 93.62C304.53 95.8844 306.366 97.72 308.63 97.72Z" fill="#F4DA8F"/>
<path d="M296.67 101.79C297.642 101.79 298.43 101.002 298.43 100.03C298.43 99.058 297.642 98.27 296.67 98.27C295.698 98.27 294.91 99.058 294.91 100.03C294.91 101.002 295.698 101.79 296.67 101.79Z" fill="#F4DA8F"/>
<path d="M335.66 115.1C336.632 115.1 337.42 114.312 337.42 113.34C337.42 112.368 336.632 111.58 335.66 111.58C334.688 111.58 333.9 112.368 333.9 113.34C333.9 114.312 334.688 115.1 335.66 115.1Z" fill="#F4DA8F"/>
<path d="M282.81 91.28C283.782 91.28 284.57 90.492 284.57 89.52C284.57 88.548 283.782 87.76 282.81 87.76C281.838 87.76 281.05 88.548 281.05 89.52C281.05 90.492 281.838 91.28 282.81 91.28Z" fill="#F4DA8F"/>
<path d="M326.7 120.39C327.672 120.39 328.46 119.602 328.46 118.63C328.46 117.658 327.672 116.87 326.7 116.87C325.728 116.87 324.94 117.658 324.94 118.63C324.94 119.602 325.728 120.39 326.7 120.39Z" fill="#F4DA8F"/>
<path d="M321.94 111.43C322.912 111.43 323.7 110.642 323.7 109.67C323.7 108.698 322.912 107.91 321.94 107.91C320.968 107.91 320.18 108.698 320.18 109.67C320.18 110.642 320.968 111.43 321.94 111.43Z" fill="#F4DA8F"/>
<path d="M299.77 118.63C300.742 118.63 301.53 117.842 301.53 116.87C301.53 115.898 300.742 115.11 299.77 115.11C298.798 115.11 298.01 115.898 298.01 116.87C298.01 117.842 298.798 118.63 299.77 118.63Z" fill="#F4DA8F"/>
<path d="M342.16 137.21C342.685 137.21 343.11 136.785 343.11 136.26C343.11 135.735 342.685 135.31 342.16 135.31C341.635 135.31 341.21 135.735 341.21 136.26C341.21 136.785 341.635 137.21 342.16 137.21Z" fill="#F4DA8F"/>
<path d="M347.03 150.71C347.555 150.71 347.98 150.285 347.98 149.76C347.98 149.235 347.555 148.81 347.03 148.81C346.505 148.81 346.08 149.235 346.08 149.76C346.08 150.285 346.505 150.71 347.03 150.71Z" fill="#F4DA8F"/>
<path d="M346.14 158.41C346.665 158.41 347.09 157.985 347.09 157.46C347.09 156.935 346.665 156.51 346.14 156.51C345.615 156.51 345.19 156.935 345.19 157.46C345.19 157.985 345.615 158.41 346.14 158.41Z" fill="#F4DA8F"/>
<path d="M340.2 149.76C340.725 149.76 341.15 149.335 341.15 148.81C341.15 148.285 340.725 147.86 340.2 147.86C339.675 147.86 339.25 148.285 339.25 148.81C339.25 149.335 339.675 149.76 340.2 149.76Z" fill="#F4DA8F"/>
<path d="M345.54 145.9C346.065 145.9 346.49 145.475 346.49 144.95C346.49 144.425 346.065 144 345.54 144C345.015 144 344.59 144.425 344.59 144.95C344.59 145.475 345.015 145.9 345.54 145.9Z" fill="#F4DA8F"/>
<path d="M331.99 146.37C332.515 146.37 332.94 145.945 332.94 145.42C332.94 144.895 332.515 144.47 331.99 144.47C331.465 144.47 331.04 144.895 331.04 145.42C331.04 145.945 331.465 146.37 331.99 146.37Z" fill="#F4DA8F"/>
<path d="M313.62 159.17C314.145 159.17 314.57 158.745 314.57 158.22C314.57 157.695 314.145 157.27 313.62 157.27C313.095 157.27 312.67 157.695 312.67 158.22C312.67 158.745 313.095 159.17 313.62 159.17Z" fill="#F4DA8F"/>
<path d="M281.24 175.1C281.765 175.1 282.19 174.675 282.19 174.15C282.19 173.625 281.765 173.2 281.24 173.2C280.715 173.2 280.29 173.625 280.29 174.15C280.29 174.675 280.715 175.1 281.24 175.1Z" fill="#F4DA8F"/>
<path d="M337.42 127.9C337.945 127.9 338.37 127.475 338.37 126.95C338.37 126.425 337.945 126 337.42 126C336.896 126 336.47 126.425 336.47 126.95C336.47 127.475 336.896 127.9 337.42 127.9Z" fill="#F4DA8F"/>
<path d="M326.3 128.85C326.825 128.85 327.25 128.425 327.25 127.9C327.25 127.375 326.825 126.95 326.3 126.95C325.776 126.95 325.35 127.375 325.35 127.9C325.35 128.425 325.776 128.85 326.3 128.85Z" fill="#F4DA8F"/>
<path d="M249.35 83.2501C249.875 83.2501 250.3 82.8248 250.3 82.3001C250.3 81.7754 249.875 81.3501 249.35 81.3501C248.826 81.3501 248.4 81.7754 248.4 82.3001C248.4 82.8248 248.826 83.2501 249.35 83.2501Z" fill="#F4DA8F"/>
<path d="M271.02 121.6C271.545 121.6 271.97 121.175 271.97 120.65C271.97 120.125 271.545 119.7 271.02 119.7C270.496 119.7 270.07 120.125 270.07 120.65C270.07 121.175 270.496 121.6 271.02 121.6Z" fill="#F4DA8F"/>
<path d="M244.78 91.8C245.305 91.8 245.73 91.3747 245.73 90.85C245.73 90.3254 245.305 89.9 244.78 89.9C244.255 89.9 243.83 90.3254 243.83 90.85C243.83 91.3747 244.255 91.8 244.78 91.8Z" fill="#F4DA8F"/>
<path d="M246.69 80.8301C247.215 80.8301 247.64 80.4047 247.64 79.8801C247.64 79.3554 247.215 78.9301 246.69 78.9301C246.166 78.9301 245.74 79.3554 245.74 79.8801C245.74 80.4047 246.166 80.8301 246.69 80.8301Z" fill="#F4DA8F"/>
<path d="M270.48 87.7601C271.005 87.7601 271.43 87.3348 271.43 86.8101C271.43 86.2854 271.005 85.8601 270.48 85.8601C269.956 85.8601 269.53 86.2854 269.53 86.8101C269.53 87.3348 269.956 87.7601 270.48 87.7601Z" fill="#F4DA8F"/>
<path d="M335.09 112.43C335.852 112.43 336.47 111.812 336.47 111.05C336.47 110.288 335.852 109.67 335.09 109.67C334.328 109.67 333.71 110.288 333.71 111.05C333.71 111.812 334.328 112.43 335.09 112.43Z" fill="#F4DA8F"/>
<path d="M276.61 138.02C277.582 138.02 278.37 137.232 278.37 136.26C278.37 135.288 277.582 134.5 276.61 134.5C275.638 134.5 274.85 135.288 274.85 136.26C274.85 137.232 275.638 138.02 276.61 138.02Z" fill="#F4DA8F"/>
<path d="M330.23 165.77C331.202 165.77 331.99 164.982 331.99 164.01C331.99 163.038 331.202 162.25 330.23 162.25C329.258 162.25 328.47 163.038 328.47 164.01C328.47 164.982 329.258 165.77 330.23 165.77Z" fill="#F4DA8F"/>
<path d="M343.25 184.09C344.222 184.09 345.01 183.302 345.01 182.33C345.01 181.358 344.222 180.57 343.25 180.57C342.278 180.57 341.49 181.358 341.49 182.33C341.49 183.302 342.278 184.09 343.25 184.09Z" fill="#F4DA8F"/>
<path d="M347.03 170.07C348.002 170.07 348.79 169.282 348.79 168.31C348.79 167.338 348.002 166.55 347.03 166.55C346.058 166.55 345.27 167.338 345.27 168.31C345.27 169.282 346.058 170.07 347.03 170.07Z" fill="#F4DA8F"/>
<path d="M344.73 150.96C345.702 150.96 346.49 150.172 346.49 149.2C346.49 148.228 345.702 147.44 344.73 147.44C343.758 147.44 342.97 148.228 342.97 149.2C342.97 150.172 343.758 150.96 344.73 150.96Z" fill="#F4DA8F"/>
<path d="M350.44 176.86C351.412 176.86 352.2 176.072 352.2 175.1C352.2 174.128 351.412 173.34 350.44 173.34C349.468 173.34 348.68 174.128 348.68 175.1C348.68 176.072 349.468 176.86 350.44 176.86Z" fill="#F4DA8F"/>
<path d="M350.44 179.5C352.323 179.5 353.85 177.973 353.85 176.09C353.85 174.207 352.323 172.68 350.44 172.68C348.557 172.68 347.03 174.207 347.03 176.09C347.03 177.973 348.557 179.5 350.44 179.5Z" fill="#F4DA8F"/>
<path d="M278.24 319.41C279.267 319.41 280.1 318.577 280.1 317.55C280.1 316.523 279.267 315.69 278.24 315.69C277.213 315.69 276.38 316.523 276.38 317.55C276.38 318.577 277.213 319.41 278.24 319.41Z" fill="#F4DA8F"/>
<path d="M302.84 333.6C303.978 333.6 304.9 332.678 304.9 331.54C304.9 330.402 303.978 329.48 302.84 329.48C301.703 329.48 300.78 330.402 300.78 331.54C300.78 332.678 301.703 333.6 302.84 333.6Z" fill="#F4DA8F"/>
<path d="M337.71 312.35C340.366 312.35 342.52 310.196 342.52 307.54C342.52 304.883 340.366 302.73 337.71 302.73C335.053 302.73 332.9 304.883 332.9 307.54C332.9 310.196 335.053 312.35 337.71 312.35Z" fill="#F4DA8F"/>
<path d="M357.57 244.07C360.226 244.07 362.38 241.916 362.38 239.26C362.38 236.603 360.226 234.45 357.57 234.45C354.913 234.45 352.76 236.603 352.76 239.26C352.76 241.916 354.913 244.07 357.57 244.07Z" fill="#F4DA8F"/>
<path d="M348.41 296.25C350.818 296.25 352.77 294.298 352.77 291.89C352.77 289.482 350.818 287.53 348.41 287.53C346.002 287.53 344.05 289.482 344.05 291.89C344.05 294.298 346.002 296.25 348.41 296.25Z" fill="#F4DA8F"/>
<path d="M275.18 349.45C276.71 349.45 277.95 348.21 277.95 346.68C277.95 345.15 276.71 343.91 275.18 343.91C273.65 343.91 272.41 345.15 272.41 346.68C272.41 348.21 273.65 349.45 275.18 349.45Z" fill="#F4DA8F"/>
<path d="M263.53 351.74C265.06 351.74 266.3 350.5 266.3 348.97C266.3 347.44 265.06 346.2 263.53 346.2C262 346.2 260.76 347.44 260.76 348.97C260.76 350.5 262 351.74 263.53 351.74Z" fill="#F4DA8F"/>
<path d="M231.3 360.73C232.83 360.73 234.07 359.49 234.07 357.96C234.07 356.43 232.83 355.19 231.3 355.19C229.77 355.19 228.53 356.43 228.53 357.96C228.53 359.49 229.77 360.73 231.3 360.73Z" fill="#F4DA8F"/>
<path d="M254.16 354.46C255.69 354.46 256.93 353.22 256.93 351.69C256.93 350.16 255.69 348.92 254.16 348.92C252.63 348.92 251.39 350.16 251.39 351.69C251.39 353.22 252.63 354.46 254.16 354.46Z" fill="#F4DA8F"/>
<path d="M324.52 321.1C326.05 321.1 327.29 319.86 327.29 318.33C327.29 316.8 326.05 315.56 324.52 315.56C322.99 315.56 321.75 316.8 321.75 318.33C321.75 319.86 322.99 321.1 324.52 321.1Z" fill="#F4DA8F"/>
<path d="M305.66 314.11C307.19 314.11 308.43 312.87 308.43 311.34C308.43 309.81 307.19 308.57 305.66 308.57C304.13 308.57 302.89 309.81 302.89 311.34C302.89 312.87 304.13 314.11 305.66 314.11Z" fill="#F4DA8F"/>
<path d="M315.63 327.96C317.16 327.96 318.4 326.72 318.4 325.19C318.4 323.66 317.16 322.42 315.63 322.42C314.1 322.42 312.86 323.66 312.86 325.19C312.86 326.72 314.1 327.96 315.63 327.96Z" fill="#F4DA8F"/>
<path d="M329.58 319.35C331.11 319.35 332.35 318.11 332.35 316.58C332.35 315.05 331.11 313.81 329.58 313.81C328.05 313.81 326.81 315.05 326.81 316.58C326.81 318.11 328.05 319.35 329.58 319.35Z" fill="#F4DA8F"/>
<path d="M339.08 293.47C340.61 293.47 341.85 292.23 341.85 290.7C341.85 289.17 340.61 287.93 339.08 287.93C337.55 287.93 336.31 289.17 336.31 290.7C336.31 292.23 337.55 293.47 339.08 293.47Z" fill="#F4DA8F"/>
<path d="M334.63 322.17C338.209 322.17 341.11 319.269 341.11 315.69C341.11 312.111 338.209 309.21 334.63 309.21C331.051 309.21 328.15 312.111 328.15 315.69C328.15 319.269 331.051 322.17 334.63 322.17Z" fill="#F4DA8F"/>
<path d="M324.5 301.39C325.472 301.39 326.26 300.602 326.26 299.63C326.26 298.658 325.472 297.87 324.5 297.87C323.528 297.87 322.74 298.658 322.74 299.63C322.74 300.602 323.528 301.39 324.5 301.39Z" fill="#F4DA8F"/>
<path d="M308.46 330.62C309.432 330.62 310.22 329.832 310.22 328.86C310.22 327.888 309.432 327.1 308.46 327.1C307.488 327.1 306.7 327.888 306.7 328.86C306.7 329.832 307.488 330.62 308.46 330.62Z" fill="#F4DA8F"/>
<path d="M349.22 246.79C350.192 246.79 350.98 246.002 350.98 245.03C350.98 244.058 350.192 243.27 349.22 243.27C348.248 243.27 347.46 244.058 347.46 245.03C347.46 246.002 348.248 246.79 349.22 246.79Z" fill="#F4DA8F"/>
<path d="M335 287.53C335.972 287.53 336.76 286.742 336.76 285.77C336.76 284.798 335.972 284.01 335 284.01C334.028 284.01 333.24 284.798 333.24 285.77C333.24 286.742 334.028 287.53 335 287.53Z" fill="#F4DA8F"/>
<path d="M354.53 249.5C355.502 249.5 356.29 248.712 356.29 247.74C356.29 246.768 355.502 245.98 354.53 245.98C353.558 245.98 352.77 246.768 352.77 247.74C352.77 248.712 353.558 249.5 354.53 249.5Z" fill="#F4DA8F"/>
<path d="M304.91 325.19C305.882 325.19 306.67 324.402 306.67 323.43C306.67 322.458 305.882 321.67 304.91 321.67C303.938 321.67 303.15 322.458 303.15 323.43C303.15 324.402 303.938 325.19 304.91 325.19Z" fill="#F4DA8F"/>
<path d="M313.87 320.42C314.842 320.42 315.63 319.632 315.63 318.66C315.63 317.688 314.842 316.9 313.87 316.9C312.898 316.9 312.11 317.688 312.11 318.66C312.11 319.632 312.898 320.42 313.87 320.42Z" fill="#F4DA8F"/>
<path d="M307.66 304.49C308.632 304.49 309.42 303.702 309.42 302.73C309.42 301.758 308.632 300.97 307.66 300.97C306.688 300.97 305.9 301.758 305.9 302.73C305.9 303.702 306.688 304.49 307.66 304.49Z" fill="#F4DA8F"/>
<path d="M279.15 340.58C279.675 340.58 280.1 340.155 280.1 339.63C280.1 339.105 279.675 338.68 279.15 338.68C278.626 338.68 278.2 339.105 278.2 339.63C278.2 340.155 278.626 340.58 279.15 340.58Z" fill="#F4DA8F"/>
<path d="M235.84 319.28C236.365 319.28 236.79 318.855 236.79 318.33C236.79 317.805 236.365 317.38 235.84 317.38C235.315 317.38 234.89 317.805 234.89 318.33C234.89 318.855 235.315 319.28 235.84 319.28Z" fill="#F4DA8F"/>
<path d="M258.94 350.8C259.465 350.8 259.89 350.375 259.89 349.85C259.89 349.325 259.465 348.9 258.94 348.9C258.416 348.9 257.99 349.325 257.99 349.85C257.99 350.375 258.416 350.8 258.94 350.8Z" fill="#F4DA8F"/>
<path d="M267.6 344.85C268.125 344.85 268.55 344.425 268.55 343.9C268.55 343.375 268.125 342.95 267.6 342.95C267.075 342.95 266.65 343.375 266.65 343.9C266.65 344.425 267.075 344.85 267.6 344.85Z" fill="#F4DA8F"/>
<path d="M255.11 326.14C255.635 326.14 256.06 325.715 256.06 325.19C256.06 324.665 255.635 324.24 255.11 324.24C254.585 324.24 254.16 324.665 254.16 325.19C254.16 325.715 254.585 326.14 255.11 326.14Z" fill="#F4DA8F"/>
<path d="M270.99 336.65C271.515 336.65 271.94 336.225 271.94 335.7C271.94 335.175 271.515 334.75 270.99 334.75C270.465 334.75 270.04 335.175 270.04 335.7C270.04 336.225 270.465 336.65 270.99 336.65Z" fill="#F4DA8F"/>
<path d="M216.4 352.18C216.925 352.18 217.35 351.755 217.35 351.23C217.35 350.705 216.925 350.28 216.4 350.28C215.876 350.28 215.45 350.705 215.45 351.23C215.45 351.755 215.876 352.18 216.4 352.18Z" fill="#F4DA8F"/>
<path d="M286.5 332.49C287.024 332.49 287.45 332.065 287.45 331.54C287.45 331.015 287.024 330.59 286.5 330.59C285.975 330.59 285.55 331.015 285.55 331.54C285.55 332.065 285.975 332.49 286.5 332.49Z" fill="#F4DA8F"/>
<path d="M266.31 317.53C266.835 317.53 267.26 317.105 267.26 316.58C267.26 316.055 266.835 315.63 266.31 315.63C265.785 315.63 265.36 316.055 265.36 316.58C265.36 317.105 265.785 317.53 266.31 317.53Z" fill="#F4DA8F"/>
<path d="M281.05 289.43C281.575 289.43 282 289.005 282 288.48C282 287.955 281.575 287.53 281.05 287.53C280.526 287.53 280.1 287.955 280.1 288.48C280.1 289.005 280.526 289.43 281.05 289.43Z" fill="#F4DA8F"/>
<path d="M250.37 285.15C250.895 285.15 251.32 284.725 251.32 284.2C251.32 283.675 250.895 283.25 250.37 283.25C249.845 283.25 249.42 283.675 249.42 284.2C249.42 284.725 249.845 285.15 250.37 285.15Z" fill="#F4DA8F"/>
<path d="M296.58 335.1C297.105 335.1 297.53 334.675 297.53 334.15C297.53 333.625 297.105 333.2 296.58 333.2C296.055 333.2 295.63 333.625 295.63 334.15C295.63 334.675 296.055 335.1 296.58 335.1Z" fill="#F4DA8F"/>
<path d="M295.63 323.97C296.155 323.97 296.58 323.545 296.58 323.02C296.58 322.495 296.155 322.07 295.63 322.07C295.105 322.07 294.68 322.495 294.68 323.02C294.68 323.545 295.105 323.97 295.63 323.97Z" fill="#F4DA8F"/>
<path d="M199.41 358.54C199.935 358.54 200.36 358.115 200.36 357.59C200.36 357.065 199.935 356.64 199.41 356.64C198.885 356.64 198.46 357.065 198.46 357.59C198.46 358.115 198.885 358.54 199.41 358.54Z" fill="#F4DA8F"/>
<path d="M342.23 253.26C342.755 253.26 343.18 252.835 343.18 252.31C343.18 251.785 342.755 251.36 342.23 251.36C341.706 251.36 341.28 251.785 341.28 252.31C341.28 252.835 341.706 253.26 342.23 253.26Z" fill="#F4DA8F"/>
<path d="M303.87 274.93C304.395 274.93 304.82 274.505 304.82 273.98C304.82 273.455 304.395 273.03 303.87 273.03C303.345 273.03 302.92 273.455 302.92 273.98C302.92 274.505 303.345 274.93 303.87 274.93Z" fill="#F4DA8F"/>
<path d="M320.12 220.89C320.645 220.89 321.07 220.465 321.07 219.94C321.07 219.415 320.645 218.99 320.12 218.99C319.595 218.99 319.17 219.415 319.17 219.94C319.17 220.465 319.595 220.89 320.12 220.89Z" fill="#F4DA8F"/>
<path d="M333.68 248.69C334.205 248.69 334.63 248.265 334.63 247.74C334.63 247.215 334.205 246.79 333.68 246.79C333.155 246.79 332.73 247.215 332.73 247.74C332.73 248.265 333.155 248.69 333.68 248.69Z" fill="#F4DA8F"/>
<path d="M347.46 228.54C347.984 228.54 348.41 228.115 348.41 227.59C348.41 227.065 347.984 226.64 347.46 226.64C346.935 226.64 346.51 227.065 346.51 227.59C346.51 228.115 346.935 228.54 347.46 228.54Z" fill="#F4DA8F"/>
<path d="M344.64 250.6C345.165 250.6 345.59 250.175 345.59 249.65C345.59 249.125 345.165 248.7 344.64 248.7C344.115 248.7 343.69 249.125 343.69 249.65C343.69 250.175 344.115 250.6 344.64 250.6Z" fill="#F4DA8F"/>
<path d="M299.83 241.16C300.355 241.16 300.78 240.735 300.78 240.21C300.78 239.685 300.355 239.26 299.83 239.26C299.305 239.26 298.88 239.685 298.88 240.21C298.88 240.735 299.305 241.16 299.83 241.16Z" fill="#F4DA8F"/>
<path d="M337.71 274.39C338.234 274.39 338.66 273.965 338.66 273.44C338.66 272.915 338.234 272.49 337.71 272.49C337.185 272.49 336.76 272.915 336.76 273.44C336.76 273.965 337.185 274.39 337.71 274.39Z" fill="#F4DA8F"/>
<path d="M309.37 323.05C310.132 323.05 310.75 322.432 310.75 321.67C310.75 320.908 310.132 320.29 309.37 320.29C308.608 320.29 307.99 320.908 307.99 321.67C307.99 322.432 308.608 323.05 309.37 323.05Z" fill="#F4DA8F"/>
<path d="M288.26 281.33C289.232 281.33 290.02 280.542 290.02 279.57C290.02 278.598 289.232 277.81 288.26 277.81C287.288 277.81 286.5 278.598 286.5 279.57C286.5 280.542 287.288 281.33 288.26 281.33Z" fill="#F4DA8F"/>
<path d="M252.4 335.69C253.372 335.69 254.16 334.902 254.16 333.93C254.16 332.958 253.372 332.17 252.4 332.17C251.428 332.17 250.64 332.958 250.64 333.93C250.64 334.902 251.428 335.69 252.4 335.69Z" fill="#F4DA8F"/>
<path d="M234.08 348.72C235.052 348.72 235.84 347.932 235.84 346.96C235.84 345.988 235.052 345.2 234.08 345.2C233.108 345.2 232.32 345.988 232.32 346.96C232.32 347.932 233.108 348.72 234.08 348.72Z" fill="#F4DA8F"/>
<path d="M248.09 352.49C249.062 352.49 249.85 351.702 249.85 350.73C249.85 349.758 249.062 348.97 248.09 348.97C247.118 348.97 246.33 349.758 246.33 350.73C246.33 351.702 247.118 352.49 248.09 352.49Z" fill="#F4DA8F"/>
<path d="M267.2 350.2C268.172 350.2 268.96 349.412 268.96 348.44C268.96 347.468 268.172 346.68 267.2 346.68C266.228 346.68 265.44 347.468 265.44 348.44C265.44 349.412 266.228 350.2 267.2 350.2Z" fill="#F4DA8F"/>
<path d="M241.3 355.91C242.272 355.91 243.06 355.122 243.06 354.15C243.06 353.178 242.272 352.39 241.3 352.39C240.328 352.39 239.54 353.178 239.54 354.15C239.54 355.122 240.328 355.91 241.3 355.91Z" fill="#F4DA8F"/>
<path d="M288.26 343.04C290.143 343.04 291.67 341.513 291.67 339.63C291.67 337.747 290.143 336.22 288.26 336.22C286.377 336.22 284.85 337.747 284.85 339.63C284.85 341.513 286.377 343.04 288.26 343.04Z" fill="#F4DA8F"/>
<path d="M354.98 329.33C354.98 329.33 356.82 329.27 357.02 330.12C357.22 330.97 356.58 331.22 355.5 332.12C354.42 333.01 353.55 333.32 354.19 334.67C354.83 336.02 355.63 337.52 355.19 338.01C354.75 338.5 354.42 338.64 353.53 337.88C352.64 337.12 351.52 336.09 350.59 336.66C349.66 337.23 347.62 338.54 347.62 338.54C347.62 338.54 347.03 338.83 346.75 338.56C346.47 338.29 346.29 337.75 346.61 337.14C346.93 336.53 347.67 335.04 347.67 335.04C347.67 335.04 348.67 333.8 347.43 333.71C346.18 333.62 345.12 333.29 344.55 333.13C343.98 332.97 343.11 332.48 343.43 331.94C343.75 331.4 344.19 331.18 345.64 330.74C347.09 330.3 348.31 330.15 348.35 329.27C348.39 328.39 348.52 327.06 348.63 326.33C348.71 325.81 348.89 325.17 349.33 325.22C349.8 325.28 350.28 325.62 350.78 326.56C351.1 327.16 351.59 328.02 351.96 328.65C352.27 329.17 352.85 329.48 353.45 329.44L354.98 329.33Z" fill="#E96137"/>
<path d="M355.58 330.46C355.58 330.46 354.13 330.58 352.06 331.94C352.06 331.94 353.85 331.52 355.58 330.46Z" fill="#F98959"/>
<path d="M351.65 333.3C351.65 333.3 353.27 334.48 354.01 336.61C354.02 336.61 352.53 335.42 351.65 333.3Z" fill="#F98959"/>
<path d="M348.21 337.04C348.21 337.04 349.74 336.07 350.57 333.5C350.57 333.49 349.28 334.6 348.21 337.04Z" fill="#F98959"/>
<path d="M345.75 331.92C345.75 331.92 347.84 331.19 349.75 331.96C349.75 331.96 348.16 332.37 345.75 331.92Z" fill="#F98959"/>
<path d="M350.84 331.17C350.84 331.17 350.84 329.23 349.69 326.78C349.69 326.78 349.81 329 350.84 331.17Z" fill="#F98959"/>
<path d="M331.36 320.53C331.36 320.53 333.4 321.75 333.03 322.81C332.66 323.87 331.78 323.7 329.99 323.92C328.2 324.14 327.04 323.86 326.79 325.77C326.54 327.68 326.37 329.87 325.55 330.1C324.74 330.33 324.28 330.25 323.83 328.8C323.38 327.35 322.89 325.45 321.48 325.43C320.07 325.41 316.95 325.4 316.95 325.4C316.95 325.4 316.11 325.3 316 324.81C315.89 324.32 316.07 323.62 316.84 323.17C317.61 322.73 319.45 321.62 319.45 321.62C319.45 321.62 321.41 320.97 320.11 320.01C318.82 319.05 317.89 317.94 317.38 317.37C316.87 316.8 316.27 315.67 316.99 315.3C317.71 314.94 318.35 315.01 320.23 315.53C322.11 316.06 323.54 316.75 324.2 315.82C324.86 314.89 325.92 313.53 326.55 312.82C327.01 312.31 327.64 311.74 328.09 312.1C328.56 312.49 328.85 313.19 328.73 314.57C328.65 315.45 328.6 316.71 328.56 317.66C328.53 318.44 328.94 319.18 329.63 319.56L331.36 320.53Z" fill="#E98572"/>
<path d="M331.23 322.17C331.23 322.17 329.56 321.29 326.37 321.33C326.37 321.33 328.61 322.12 331.23 322.17Z" fill="#F93E00"/>
<path d="M324.981 322.53C324.981 322.53 325.921 324.94 325.241 327.77C325.241 327.77 324.461 325.44 324.981 322.53Z" fill="#F93E00"/>
<path d="M318.64 324.19C318.64 324.19 320.98 324.2 323.67 321.98C323.67 321.98 321.49 322.29 318.64 324.19Z" fill="#F93E00"/>
<path d="M319.53 316.92C319.53 316.92 322.31 317.59 323.85 319.75C323.85 319.75 321.83 319.08 319.53 316.92Z" fill="#F93E00"/>
<path d="M325.58 319.64C325.58 319.64 326.93 317.53 327.39 314.07C327.39 314.07 325.98 316.57 325.58 319.64Z" fill="#F93E00"/>
<path d="M312.7 93.54C312.7 93.54 311.06 93.6701 310.16 92.6701C309.26 91.6701 309.57 90.0501 309.57 90.0501C309.57 90.0501 309.55 88.3301 308.98 86.9701C308.41 85.6101 307.95 83.6501 309.45 83.0801C309.45 83.0801 310.13 82.8301 310.56 83.2601C310.56 83.2601 311.05 82.3701 312.15 82.2601C313.25 82.1501 313.75 82.8401 313.75 82.8401C313.75 82.8401 314.47 82.1501 315.59 82.4601C316.71 82.7801 317.1 83.4901 317.1 83.4901C317.1 83.4901 318.09 83.2701 318.93 84.3201C319.77 85.3701 319.32 86.1001 319.32 86.1001C319.32 86.1001 320.58 86.7701 320.62 87.6401C320.66 88.5101 320.12 89.1301 320.12 89.1301C320.12 89.1301 321.02 89.7801 320.71 90.8501C320.4 91.9201 319.7 92.1501 319.7 92.1501C319.7 92.1501 320.38 92.97 319.79 93.9001C319.2 94.8301 318.55 95.1401 317.61 94.7701C316.67 94.4001 315.21 93.9201 314.4 93.8001C313.59 93.6801 312.7 93.54 312.7 93.54Z" fill="#F2A0A0"/>
<path d="M310.85 89.2701C310.85 89.2701 311.72 87.3101 310.2 84.8001C310.21 84.7901 309.56 86.4301 310.85 89.2701Z" fill="#BA4129"/>
<path d="M312.02 89.2C312.02 89.2 311.95 85.39 313.4 83.42C313.4 83.42 313.35 86.17 312.02 89.2Z" fill="#BA4129"/>
<path d="M312.98 89.3801C312.98 89.3801 314.2 85.87 316.14 84.67C316.14 84.67 315.28 87.2901 312.98 89.3801Z" fill="#BA4129"/>
<path d="M313.49 90.17C313.49 90.17 315.51 87.78 318.21 87.28C318.21 87.28 316.56 89.15 313.49 90.17Z" fill="#BA4129"/>
<path d="M313.36 92.2201C313.36 92.2201 316.19 91.9601 318.54 93.7001C318.54 93.7001 316.06 93.8601 313.36 92.2201Z" fill="#BA4129"/>
<path d="M313.32 91.16C313.32 91.16 315.75 90.19 318.89 90.67C318.89 90.67 316.57 91.67 313.32 91.16Z" fill="#BA4129"/>
<path d="M341.33 98.84C341.33 98.84 341.19 98.84 340.98 98.8C340.44 98.7 339.46 98.34 339.49 97.1C339.49 97.1 339.22 97.13 338.91 97.08C338.39 96.99 337.74 96.69 337.8 95.66C337.8 95.66 337.54 95.63 337.19 95.51C336.49 95.29 335.43 94.7 335.57 93.24H335.56C335.5 93.24 335.28 93.25 334.98 93.2C334.1 93.09 332.6 92.56 332.88 90.34C332.88 90.34 332.62 90.27 332.25 90.12C331.11 89.65 328.97 88.38 330.7 85.98C331.63 84.7 335.23 84.11 335.23 84.11L335.74 82.88L336.61 80.79C336.88 80.12 337.6 79.75 338.3 79.91C339.25 80.12 340.44 80.68 340.79 82.19C340.89 82.57 340.93 83 340.9 83.5C340.9 83.5 342.98 83.92 343.29 85.82C343.4 86.48 343.29 87.33 342.8 88.4C342.8 88.4 344.2 88.9 344.38 90.18C344.46 90.68 344.34 91.31 343.86 92.08C343.86 92.08 344.58 92.55 344.77 93.41C344.89 93.93 344.83 94.59 344.3 95.38C344.3 95.38 344.58 95.79 344.7 96.31C344.81 96.8 344.77 97.39 344.22 97.83C344.22 97.83 344.22 97.83 344.23 97.84C344.27 97.88 344.4 98.05 344.48 98.33V98.34C344.48 98.34 344.48 98.34 344.49 98.35C344.51 98.41 344.65 98.85 344.62 99.37C344.6 99.73 344.49 100.13 344.2 100.44C344.18 100.44 341.57 100.1 341.33 98.84Z" fill="#F28F8F"/>
<path d="M335.22 84.13L335.73 82.8999C337.4 83.0799 340.21 83.22 340.78 82.2C340.88 82.58 340.92 83.0099 340.89 83.5099C340.88 83.5099 338.7 83.1 335.22 84.13Z" fill="#BA1E00"/>
<path d="M332.86 90.36C332.86 90.36 332.6 90.29 332.23 90.14C333.43 89.19 336.39 87.12 339.5 87.01C341.49 86.94 342.63 86.39 343.27 85.84C343.38 86.5 343.27 87.35 342.78 88.42C336.42 86.54 332.86 90.36 332.86 90.36Z" fill="#BA1E00"/>
<path d="M334.96 93.22L335 93.17C336.31 92.03 339.6 90.5799 341.77 90.8999C342.82 91.0499 343.71 90.65 344.36 90.2C344.44 90.7 344.32 91.33 343.84 92.1C338.65 90.43 335.55 93.2599 335.55 93.2599H335.54C335.49 93.2599 335.27 93.26 334.96 93.22Z" fill="#BA1E00"/>
<path d="M337.18 95.5199C338.87 94.5199 340.77 93.5999 342.79 93.9399C343.5 94.0599 344.17 93.8099 344.76 93.4299C344.88 93.9499 344.82 94.6099 344.29 95.3999C340.39 93.5199 337.79 95.6699 337.79 95.6699C337.79 95.6699 337.53 95.6399 337.18 95.5199Z" fill="#BA1E00"/>
<path d="M343.25 96.5699C343.63 96.8199 344.22 96.6199 344.69 96.3299C344.8 96.8199 344.76 97.4099 344.21 97.8499C341.86 95.6699 339.48 97.0999 339.48 97.0999C339.48 97.0999 339.21 97.1299 338.9 97.0799C340.24 95.9999 342.5 96.0699 343.25 96.5699Z" fill="#BA1E00"/>
<path d="M340.98 98.7999C341.47 98.2799 342.26 98.1099 343.24 98.4699C343.99 98.7399 344.34 98.49 344.47 98.35C344.47 98.35 344.47 98.3499 344.48 98.3599C344.5 98.4199 344.64 98.86 344.61 99.38C342.57 98.38 341.34 98.85 341.34 98.85C341.34 98.85 341.19 98.8399 340.98 98.7999Z" fill="#BA1E00"/>
<path d="M108.541 353.76C108.541 353.76 103.48 348.03 103.08 342.77C103.01 341.85 106.09 343.54 111.63 350.67C111.63 350.67 120.23 340.39 120.59 341.87C121.01 343.63 118.13 349.82 116.36 352.21C116.36 352.21 124.74 354.74 126.78 356.45C128.89 358.21 123.071 357.18 115.791 356.45C115.791 356.45 118.75 364.07 119.08 365.6C119.79 368.86 113.8 364.39 111.23 357.02C111.23 357.02 103.021 361.09 102.041 361.58C99.5205 362.84 101.701 358.77 108.541 353.76Z" fill="#62743A"/>
<path d="M112.36 355.22C113.123 355.22 113.74 354.602 113.74 353.84C113.74 353.078 113.123 352.46 112.36 352.46C111.598 352.46 110.98 353.078 110.98 353.84C110.98 354.602 111.598 355.22 112.36 355.22Z" fill="#B0D041"/>
<path d="M109.97 352.29C110.423 352.29 110.79 351.923 110.79 351.47C110.79 351.017 110.423 350.65 109.97 350.65C109.517 350.65 109.15 351.017 109.15 351.47C109.15 351.923 109.517 352.29 109.97 352.29Z" fill="#B0D041"/>
<path d="M114.45 351.73C114.903 351.73 115.27 351.363 115.27 350.91C115.27 350.457 114.903 350.09 114.45 350.09C113.997 350.09 113.63 350.457 113.63 350.91C113.63 351.363 113.997 351.73 114.45 351.73Z" fill="#B0D041"/>
<path d="M116.291 355.22C116.744 355.22 117.111 354.853 117.111 354.4C117.111 353.947 116.744 353.58 116.291 353.58C115.838 353.58 115.471 353.947 115.471 354.4C115.471 354.853 115.838 355.22 116.291 355.22Z" fill="#B0D041"/>
<path d="M113.74 358.26C114.193 358.26 114.56 357.893 114.56 357.44C114.56 356.987 114.193 356.62 113.74 356.62C113.287 356.62 112.92 356.987 112.92 357.44C112.92 357.893 113.287 358.26 113.74 358.26Z" fill="#B0D041"/>
<path d="M109.14 356.61C109.593 356.61 109.96 356.243 109.96 355.79C109.96 355.337 109.593 354.97 109.14 354.97C108.688 354.97 108.32 355.337 108.32 355.79C108.32 356.243 108.688 356.61 109.14 356.61Z" fill="#B0D041"/>
<path d="M108.29 350.08C108.572 350.08 108.8 349.852 108.8 349.57C108.8 349.288 108.572 349.06 108.29 349.06C108.009 349.06 107.78 349.288 107.78 349.57C107.78 349.852 108.009 350.08 108.29 350.08Z" fill="#B0D041"/>
<path d="M115.061 360.68C115.342 360.68 115.571 360.452 115.571 360.17C115.571 359.888 115.342 359.66 115.061 359.66C114.779 359.66 114.551 359.888 114.551 360.17C114.551 360.452 114.779 360.68 115.061 360.68Z" fill="#B0D041"/>
<path d="M119 355.57C119.282 355.57 119.51 355.342 119.51 355.06C119.51 354.778 119.282 354.55 119 354.55C118.719 354.55 118.49 354.778 118.49 355.06C118.49 355.342 118.719 355.57 119 355.57Z" fill="#B0D041"/>
<path d="M115.981 349.41C116.262 349.41 116.491 349.182 116.491 348.9C116.491 348.618 116.262 348.39 115.981 348.39C115.699 348.39 115.471 348.618 115.471 348.9C115.471 349.182 115.699 349.41 115.981 349.41Z" fill="#B0D041"/>
<path d="M106.861 357.78C107.142 357.78 107.371 357.552 107.371 357.27C107.371 356.988 107.142 356.76 106.861 356.76C106.579 356.76 106.351 356.988 106.351 357.27C106.351 357.552 106.579 357.78 106.861 357.78Z" fill="#B0D041"/>
</svg>
