<svg width="435" height="435" viewBox="0 0 435 435" fill="none" xmlns="http://www.w3.org/2000/svg">
<path d="M373.23 430.04C407.62 425 437.43 401.83 433.9 338.76C430.49 277.77 417.21 156.64 417.55 73.76C417.99 -33.15 269.92 19.78 207.86 11.52C145.8 3.26997 4.71996 -29.28 2.08996 111.2C0.299961 206.45 4.29996 240.85 2.08996 294.61C-0.860039 366.44 -16.38 438.64 127.17 430.56C220.52 425.31 314.47 438.66 373.23 430.04Z" fill="#8AD9F7"/>
<path d="M233.42 29.94C233.42 29.94 161.83 35.17 127.33 29.94C92.84 24.71 10.1 18.85 21.71 146.89C33.32 274.93 -19.01 345.65 54.86 401.83C81.1 421.78 139.37 407.38 242 414.19C344.63 421 395.69 427.59 417.41 349.73C427.49 313.61 403.82 206.65 404.99 123.39C406.17 40.13 378.77 17.06 299.21 23.93C219.64 30.79 233.42 29.94 233.42 29.94Z" fill="#B8E1F2"/>
<path d="M398.91 300.18C404.53 423.89 330.87 403.32 95.0699 389.97C72.2999 388.68 46.8699 366.81 40.1999 345C21.2199 283.01 43.2199 211.71 47.1899 123.18C51.6099 24.7599 113.16 46.7499 294.46 42.5699C418.73 39.7099 389.47 92.2299 398.91 300.18Z" fill="#706443"/>
<path d="M83.91 352.35C163.93 391.85 378.52 389.88 383.97 151.89V151.88C382.34 103.9 377 77.04 354.01 64.05C340.04 56.15 319.55 53.36 289.42 54.06C119.77 57.98 62.18 37.4 58.04 129.49C57.17 148.77 55.4 167.19 53.4 184.81C53.4 184.84 53.39 184.87 53.39 184.9C52.77 190.42 52.12 195.87 51.47 201.24V201.26C47.69 239.02 38.82 330.09 83.91 352.35Z" fill="#A6886A"/>
<path d="M102.83 379.14C81.52 377.93 58.23 352.22 51.48 337.06C45.61 323.88 46 281.19 52 254.61C62.88 206.32 74.05 107.15 74.05 107.15C75.19 83.9 94.37 65.64 117.64 65.64C117.64 65.64 255.47 54.93 337.83 65.21C350.39 66.78 361.6 74.13 367.63 85.25C375.97 100.6 378.66 123.08 379.74 154.79C379.74 154.79 384.64 236.42 387.42 297.55C392.68 413.28 323.48 391.63 102.83 379.14Z" fill="#78B528"/>
<path d="M383.41 309.17C383.41 301.27 380.25 294.11 375.13 288.88C375.22 288.72 375.31 288.56 375.4 288.4C377.26 284.96 378.32 281.02 378.32 276.83C378.32 272.49 377.19 268.42 375.2 264.89C379.65 259.79 382.34 253.13 382.34 245.83C382.34 239.97 380.6 234.52 377.61 229.96C381.17 226.67 383.4 221.98 383.4 216.76C383.4 211.64 381.25 207.03 377.82 203.75C379.26 200.33 380.06 196.58 380.06 192.63C380.06 185.16 377.2 178.35 372.52 173.24C373.83 170.03 374.76 166.63 375.26 163.1C375.54 161.13 375.68 159.13 375.68 157.08C375.68 145.33 370.95 134.69 363.3 126.95C368.51 122.48 371.82 115.84 371.82 108.43C371.82 94.96 360.9 84.05 347.44 84.05C345.49 84.05 343.59 84.29 341.77 84.72C337.34 74.36 327.07 67.11 315.09 67.11C308.06 67.11 301.62 69.61 296.6 73.77C293.56 69.73 288.72 67.11 283.27 67.11C277.86 67.11 273.06 69.68 270.01 73.67C263.65 67.99 255.26 64.52 246.06 64.52C233.84 64.52 223.06 70.62 216.56 79.93C208.75 74.37 199.2 71.09 188.88 71.09C182.35 71.09 176.14 72.41 170.47 74.78C166.25 72.39 161.39 71.02 156.2 71.02C152.44 71.02 148.86 71.74 145.56 73.04C141.07 70.98 136.07 69.82 130.8 69.82C122.06 69.82 114.06 73 107.89 78.25C107.43 78.23 106.96 78.21 106.49 78.21C90.4598 78.21 77.4698 91.2 77.4698 107.23C77.4698 112.71 78.9898 117.83 81.6298 122.2C76.8998 126.93 73.9598 133.44 73.9598 140.66C73.9598 144.74 74.8998 148.6 76.5698 152.04C73.0598 155.7 70.5998 160.39 69.6898 165.61C69.4398 167.06 69.2998 168.56 69.2998 170.09C69.2998 172.96 69.7698 175.71 70.6298 178.28C68.3398 182.43 67.0398 187.2 67.0398 192.27C67.0398 196.92 68.1398 201.31 70.0798 205.21C65.2198 210.4 62.2398 217.37 62.2398 225.03C62.2398 230.18 63.5898 235.01 65.9398 239.21C60.8798 243.54 57.6698 249.97 57.6698 257.16C57.6698 262.49 59.4298 267.4 62.4098 271.36C60.1598 273.02 58.2098 275.07 56.6798 277.41C54.2098 281.14 52.7798 285.6 52.7798 290.41C52.7798 298.36 56.7098 305.39 62.7298 309.67C60.9498 313.9 59.9598 318.54 59.9598 323.42C59.9598 340.95 72.6998 355.49 89.4198 358.33C92.6198 367.58 101.41 374.23 111.75 374.23C118.29 374.23 124.21 371.57 128.49 367.27C131.44 368.05 134.54 368.48 137.73 368.48C145.49 368.48 152.68 366.01 158.56 361.82C163.88 368.37 172 372.57 181.09 372.57C187.9 372.57 194.15 370.21 199.1 366.28C204.79 377.29 216.27 384.82 229.52 384.82C241.15 384.82 251.43 379.01 257.61 370.14C263.73 379.43 274.25 385.56 286.21 385.56C296.4 385.56 305.54 381.11 311.81 374.05C316.03 377.99 321.69 380.4 327.92 380.4C337.26 380.4 345.33 374.98 349.17 367.12C364.12 365.95 375.9 353.45 375.9 338.2C375.9 335.32 375.47 332.54 374.69 329.91C380.07 324.64 383.41 317.3 383.41 309.17Z" fill="#90D437"/>
<path d="M388.9 375.23C388.9 375.23 383.41 387.51 374.17 391.75C364.93 395.99 378.98 404.07 390.24 386.59C401.51 369.1 392.13 369.54 388.9 375.23Z" fill="#DCEEF2"/>
<path d="M67.2099 44.6199C67.2099 44.6199 54.6999 44.7199 49.0999 56.2999C43.5099 67.8799 52.1199 70.1799 58.1499 63.0799C62.4899 57.9799 67.4699 54.4299 69.9299 52.8399C71.3299 51.9299 72.3799 50.5398 72.7199 48.9098C73.1699 46.7998 72.5499 44.3699 67.2099 44.6199Z" fill="#DCEEF2"/>
<path d="M41.2898 75.6899C38.9698 75.7399 36.1399 75.5999 34.5399 82.0799C32.9399 88.5599 41.9098 98.2299 43.5898 90.5999C44.7898 85.1599 45.9699 82.6899 46.5599 81.7199C47.0099 80.9599 47.3799 80.1599 47.5699 79.2999C48.0599 77.0799 44.2398 75.6199 41.2898 75.6899Z" fill="#DCEEF2"/>
<path d="M117.2 300.13C117.11 299.73 116.73 299.39 116.03 299.31C115.2 299.21 114.26 299.65 113.65 300.01C113.91 299.36 114.2 298.36 113.97 297.55C113.78 296.87 113.38 296.55 112.97 296.52C112.56 296.48 112.12 296.75 111.83 297.39C111.5 298.11 111.61 299.07 111.76 299.75C111.24 299.29 110.45 298.74 109.65 298.68C108.95 298.63 108.51 298.89 108.34 299.26C108.17 299.63 108.26 300.13 108.76 300.63C109.36 301.22 110.38 301.44 111.07 301.52C110.47 301.88 109.63 302.49 109.32 303.27C109.06 303.92 109.18 304.42 109.48 304.69C109.78 304.97 110.29 305.03 110.91 304.7C111.65 304.31 112.17 303.4 112.46 302.77C112.62 303.45 112.95 304.44 113.6 304.97C114.15 305.41 114.66 305.45 115 305.24C115.35 305.04 115.56 304.57 115.44 303.88C115.29 303.05 114.58 302.29 114.06 301.82C114.76 301.87 115.8 301.85 116.5 301.39C117.11 301 117.3 300.52 117.2 300.13Z" fill="#4B93BF"/>
<path d="M338.2 88.4199C338.03 87.9899 337.54 87.6899 336.75 87.7199C335.81 87.7599 334.85 88.4199 334.24 88.9299C334.41 88.1599 334.55 87 334.15 86.15C333.81 85.44 333.31 85.1499 332.86 85.1999C332.4 85.2299 331.96 85.6099 331.76 86.3699C331.53 87.2299 331.82 88.2799 332.11 88.9999C331.45 88.5899 330.47 88.1199 329.58 88.1999C328.79 88.2699 328.35 88.6399 328.24 89.0799C328.11 89.5199 328.31 90.0599 328.96 90.5199C329.73 91.0599 330.9 91.12 331.68 91.09C331.08 91.6 330.26 92.4299 330.06 93.3499C329.89 94.1199 330.11 94.6599 330.5 94.8899C330.88 95.1399 331.46 95.1199 332.09 94.6399C332.84 94.0699 333.25 92.97 333.45 92.21C333.75 92.94 334.3 93.9699 335.12 94.4399C335.81 94.8299 336.38 94.7799 336.73 94.4799C337.08 94.1899 337.23 93.6299 336.96 92.8899C336.64 91.9999 335.72 91.2799 335.05 90.8599C335.83 90.7899 336.98 90.5799 337.67 89.9399C338.26 89.4099 338.38 88.8399 338.2 88.4199Z" fill="#0071BC"/>
<path d="M333.61 166.4C333.44 165.97 332.95 165.67 332.16 165.7C331.22 165.74 330.26 166.4 329.65 166.91C329.82 166.14 329.96 164.98 329.56 164.13C329.22 163.42 328.72 163.13 328.27 163.18C327.81 163.21 327.37 163.59 327.17 164.35C326.94 165.21 327.23 166.26 327.52 166.98C326.86 166.57 325.88 166.1 324.99 166.18C324.2 166.25 323.76 166.62 323.65 167.06C323.52 167.5 323.72 168.04 324.37 168.5C325.14 169.04 326.31 169.1 327.09 169.07C326.49 169.58 325.67 170.41 325.47 171.33C325.3 172.1 325.52 172.64 325.91 172.87C326.29 173.12 326.87 173.1 327.5 172.62C328.25 172.05 328.66 170.95 328.86 170.19C329.16 170.92 329.71 171.95 330.53 172.42C331.22 172.81 331.79 172.76 332.14 172.46C332.49 172.17 332.64 171.61 332.37 170.87C332.05 169.98 331.13 169.26 330.46 168.84C331.24 168.77 332.39 168.56 333.08 167.92C333.66 167.38 333.79 166.82 333.61 166.4Z" fill="#29ABE2"/>
<path d="M231.55 99.4999C231.38 99.0699 230.89 98.7699 230.1 98.7999C229.16 98.8399 228.2 99.4999 227.59 100.01C227.76 99.2399 227.9 98.0798 227.5 97.2298C227.16 96.5198 226.66 96.2299 226.21 96.2799C225.75 96.3099 225.31 96.6899 225.11 97.4499C224.88 98.3099 225.17 99.3599 225.46 100.08C224.8 99.6699 223.82 99.1999 222.93 99.2799C222.14 99.3499 221.7 99.7198 221.59 100.16C221.46 100.6 221.66 101.14 222.31 101.6C223.08 102.14 224.25 102.2 225.03 102.17C224.43 102.68 223.61 103.51 223.41 104.43C223.24 105.2 223.46 105.74 223.85 105.97C224.23 106.22 224.81 106.2 225.44 105.72C226.19 105.15 226.6 104.05 226.8 103.29C227.1 104.02 227.65 105.05 228.47 105.52C229.16 105.91 229.73 105.86 230.08 105.56C230.43 105.27 230.58 104.71 230.31 103.97C229.99 103.08 229.07 102.36 228.4 101.94C229.18 101.87 230.33 101.66 231.02 101.02C231.6 100.48 231.73 99.9199 231.55 99.4999Z" fill="#009FE2"/>
<path d="M90.5298 328.39C90.3598 327.96 89.8698 327.66 89.0798 327.69C88.1398 327.73 87.1798 328.39 86.5698 328.9C86.7398 328.13 86.8798 326.97 86.4798 326.12C86.1398 325.41 85.6398 325.12 85.1898 325.17C84.7298 325.2 84.2898 325.58 84.0898 326.34C83.8598 327.2 84.1498 328.25 84.4398 328.97C83.7798 328.56 82.7998 328.09 81.9098 328.17C81.1198 328.24 80.6798 328.61 80.5698 329.05C80.4398 329.49 80.6398 330.03 81.2898 330.49C82.0598 331.03 83.2298 331.09 84.0098 331.06C83.4098 331.57 82.5898 332.4 82.3898 333.32C82.2198 334.09 82.4398 334.63 82.8298 334.86C83.2098 335.11 83.7898 335.09 84.4198 334.61C85.1698 334.04 85.5798 332.94 85.7798 332.18C86.0798 332.91 86.6298 333.94 87.4498 334.41C88.1398 334.8 88.7098 334.75 89.0598 334.45C89.4098 334.16 89.5598 333.6 89.2898 332.86C88.9698 331.97 88.0498 331.25 87.3798 330.83C88.1598 330.76 89.3098 330.55 89.9998 329.91C90.5898 329.37 90.7098 328.81 90.5298 328.39Z" fill="#009FE2"/>
<path d="M310.99 303.66C310.82 303.23 310.33 302.93 309.54 302.96C308.6 303 307.64 303.66 307.03 304.17C307.2 303.4 307.34 302.24 306.94 301.39C306.6 300.68 306.1 300.39 305.65 300.44C305.19 300.47 304.75 300.85 304.55 301.61C304.32 302.47 304.61 303.52 304.9 304.24C304.24 303.83 303.26 303.36 302.37 303.44C301.58 303.51 301.14 303.88 301.03 304.32C300.9 304.76 301.1 305.3 301.75 305.76C302.52 306.3 303.69 306.36 304.47 306.33C303.87 306.84 303.05 307.67 302.85 308.59C302.68 309.36 302.9 309.9 303.29 310.13C303.67 310.38 304.25 310.36 304.88 309.88C305.63 309.31 306.04 308.21 306.24 307.45C306.54 308.18 307.09 309.21 307.91 309.68C308.6 310.07 309.17 310.02 309.52 309.72C309.87 309.43 310.02 308.87 309.75 308.13C309.43 307.24 308.51 306.52 307.84 306.1C308.62 306.03 309.77 305.82 310.46 305.18C311.05 304.64 311.17 304.08 310.99 303.66Z" fill="#29ABE2"/>
<path d="M127.62 338.55C127.45 338.12 126.96 337.82 126.17 337.85C125.23 337.89 124.27 338.55 123.66 339.06C123.83 338.29 123.97 337.13 123.57 336.28C123.23 335.57 122.73 335.28 122.28 335.33C121.82 335.36 121.38 335.74 121.18 336.5C120.95 337.36 121.24 338.41 121.53 339.13C120.87 338.72 119.89 338.25 119 338.33C118.21 338.4 117.77 338.77 117.66 339.21C117.53 339.65 117.73 340.19 118.38 340.65C119.15 341.19 120.32 341.25 121.1 341.22C120.5 341.73 119.68 342.56 119.48 343.48C119.31 344.25 119.53 344.79 119.92 345.02C120.3 345.27 120.88 345.25 121.51 344.77C122.26 344.2 122.67 343.1 122.87 342.34C123.17 343.07 123.72 344.1 124.54 344.57C125.23 344.96 125.8 344.91 126.15 344.61C126.5 344.32 126.65 343.76 126.38 343.02C126.06 342.13 125.14 341.41 124.47 340.99C125.25 340.92 126.4 340.71 127.09 340.07C127.68 339.53 127.8 338.97 127.62 338.55Z" fill="#29ABE2"/>
<path d="M358.49 328.39C358.32 327.96 357.83 327.66 357.04 327.69C356.1 327.73 355.14 328.39 354.53 328.9C354.7 328.13 354.84 326.97 354.44 326.12C354.1 325.41 353.6 325.12 353.15 325.17C352.69 325.2 352.25 325.58 352.05 326.34C351.82 327.2 352.11 328.25 352.4 328.97C351.74 328.56 350.76 328.09 349.87 328.17C349.08 328.24 348.64 328.61 348.53 329.05C348.4 329.49 348.6 330.03 349.25 330.49C350.02 331.03 351.19 331.09 351.97 331.06C351.37 331.57 350.55 332.4 350.35 333.32C350.18 334.09 350.4 334.63 350.79 334.86C351.17 335.11 351.75 335.09 352.38 334.61C353.13 334.04 353.54 332.94 353.74 332.18C354.04 332.91 354.59 333.94 355.41 334.41C356.1 334.8 356.67 334.75 357.02 334.45C357.37 334.16 357.52 333.6 357.25 332.86C356.93 331.97 356.01 331.25 355.34 330.83C356.12 330.76 357.27 330.55 357.96 329.91C358.55 329.37 358.67 328.81 358.49 328.39Z" fill="#0071BC"/>
<path d="M213.82 309.55C213.65 309.12 213.16 308.82 212.37 308.85C211.43 308.89 210.47 309.55 209.86 310.06C210.03 309.29 210.17 308.13 209.77 307.28C209.43 306.57 208.93 306.28 208.48 306.33C208.02 306.36 207.58 306.74 207.38 307.5C207.15 308.36 207.44 309.41 207.73 310.13C207.07 309.72 206.09 309.25 205.2 309.33C204.41 309.4 203.97 309.77 203.86 310.21C203.73 310.65 203.93 311.19 204.58 311.65C205.35 312.19 206.52 312.25 207.3 312.22C206.7 312.73 205.88 313.56 205.68 314.48C205.51 315.25 205.73 315.79 206.12 316.02C206.5 316.27 207.08 316.25 207.71 315.77C208.46 315.2 208.87 314.1 209.07 313.34C209.37 314.07 209.92 315.1 210.74 315.57C211.43 315.96 212 315.91 212.35 315.61C212.7 315.32 212.85 314.76 212.58 314.02C212.26 313.13 211.34 312.41 210.67 311.99C211.45 311.92 212.6 311.71 213.29 311.07C213.87 310.53 214 309.97 213.82 309.55Z" fill="#0071BC"/>
<path d="M164.61 171.33C164.44 170.9 163.95 170.6 163.16 170.63C162.22 170.67 161.26 171.33 160.65 171.84C160.82 171.07 160.96 169.91 160.56 169.06C160.22 168.35 159.72 168.06 159.27 168.11C158.81 168.14 158.37 168.52 158.17 169.28C157.94 170.14 158.23 171.19 158.52 171.91C157.86 171.5 156.88 171.03 155.99 171.11C155.2 171.18 154.76 171.55 154.65 171.99C154.52 172.43 154.72 172.97 155.37 173.43C156.14 173.97 157.31 174.03 158.09 174C157.49 174.51 156.67 175.34 156.47 176.26C156.3 177.03 156.52 177.57 156.91 177.8C157.29 178.05 157.87 178.03 158.5 177.55C159.25 176.98 159.66 175.88 159.86 175.12C160.16 175.85 160.71 176.88 161.53 177.35C162.22 177.74 162.79 177.69 163.14 177.39C163.49 177.1 163.64 176.54 163.37 175.8C163.05 174.91 162.13 174.19 161.46 173.77C162.24 173.7 163.39 173.49 164.08 172.85C164.67 172.31 164.79 171.75 164.61 171.33Z" fill="#0071BC"/>
<path d="M133.85 115.96C133.68 115.53 133.19 115.23 132.4 115.26C131.46 115.3 130.5 115.96 129.89 116.47C130.06 115.7 130.2 114.54 129.8 113.69C129.46 112.98 128.96 112.69 128.51 112.74C128.05 112.77 127.61 113.15 127.41 113.91C127.18 114.77 127.47 115.82 127.76 116.54C127.1 116.13 126.12 115.66 125.23 115.74C124.44 115.81 124 116.18 123.89 116.62C123.76 117.06 123.96 117.6 124.61 118.06C125.38 118.6 126.55 118.66 127.33 118.63C126.73 119.14 125.91 119.97 125.71 120.89C125.54 121.66 125.76 122.2 126.15 122.43C126.53 122.68 127.11 122.66 127.74 122.18C128.49 121.61 128.9 120.51 129.1 119.75C129.4 120.48 129.95 121.51 130.77 121.98C131.46 122.37 132.03 122.32 132.38 122.02C132.73 121.73 132.88 121.17 132.61 120.43C132.29 119.54 131.37 118.82 130.7 118.4C131.48 118.33 132.63 118.12 133.32 117.48C133.9 116.94 134.03 116.38 133.85 115.96Z" fill="#4B93BF"/>
<path d="M290.6 271.25C290.43 270.82 289.94 270.52 289.15 270.55C288.21 270.59 287.25 271.25 286.64 271.76C286.81 270.99 286.95 269.83 286.55 268.98C286.21 268.27 285.71 267.98 285.26 268.03C284.8 268.06 284.36 268.44 284.16 269.2C283.93 270.06 284.22 271.11 284.51 271.83C283.85 271.42 282.87 270.95 281.98 271.03C281.19 271.1 280.75 271.47 280.64 271.91C280.51 272.35 280.71 272.89 281.36 273.35C282.13 273.89 283.3 273.95 284.08 273.92C283.48 274.43 282.66 275.26 282.46 276.18C282.29 276.95 282.51 277.49 282.9 277.72C283.28 277.97 283.86 277.95 284.49 277.47C285.24 276.9 285.65 275.8 285.85 275.04C286.15 275.77 286.7 276.8 287.52 277.27C288.21 277.66 288.78 277.61 289.13 277.31C289.48 277.02 289.63 276.46 289.36 275.72C289.04 274.83 288.12 274.11 287.45 273.69C288.23 273.62 289.38 273.41 290.07 272.77C290.66 272.23 290.78 271.67 290.6 271.25Z" fill="#0071BC"/>
<path d="M189.49 125.44C189.32 125.01 188.83 124.71 188.04 124.74C187.1 124.78 186.14 125.44 185.53 125.95C185.7 125.18 185.84 124.02 185.44 123.17C185.1 122.46 184.6 122.17 184.15 122.22C183.69 122.25 183.25 122.63 183.05 123.39C182.82 124.25 183.11 125.3 183.4 126.02C182.74 125.61 181.76 125.14 180.87 125.22C180.08 125.29 179.64 125.66 179.53 126.1C179.4 126.54 179.6 127.08 180.25 127.54C181.02 128.08 182.19 128.14 182.97 128.11C182.37 128.62 181.55 129.45 181.35 130.37C181.18 131.14 181.4 131.68 181.79 131.91C182.17 132.16 182.75 132.14 183.38 131.66C184.13 131.09 184.54 129.99 184.74 129.23C185.04 129.96 185.59 130.99 186.41 131.46C187.1 131.85 187.67 131.8 188.02 131.5C188.37 131.21 188.52 130.65 188.25 129.91C187.93 129.02 187.01 128.3 186.34 127.88C187.12 127.81 188.27 127.6 188.96 126.96C189.54 126.42 189.67 125.86 189.49 125.44Z" fill="#0071BC"/>
<path d="M345.01 246.34C344.84 245.91 344.35 245.61 343.56 245.64C342.62 245.68 341.66 246.34 341.05 246.85C341.22 246.08 341.36 244.92 340.96 244.07C340.62 243.36 340.12 243.07 339.67 243.12C339.21 243.15 338.77 243.53 338.57 244.29C338.34 245.15 338.63 246.2 338.92 246.92C338.26 246.51 337.28 246.04 336.39 246.12C335.6 246.19 335.16 246.56 335.05 247C334.92 247.44 335.12 247.98 335.77 248.44C336.54 248.98 337.71 249.04 338.49 249.01C337.89 249.52 337.07 250.35 336.87 251.27C336.7 252.04 336.92 252.58 337.31 252.81C337.69 253.06 338.27 253.04 338.9 252.56C339.65 251.99 340.06 250.89 340.26 250.13C340.56 250.86 341.11 251.89 341.93 252.36C342.62 252.75 343.19 252.7 343.54 252.4C343.89 252.11 344.04 251.55 343.77 250.81C343.45 249.92 342.53 249.2 341.86 248.78C342.64 248.71 343.79 248.5 344.48 247.86C345.06 247.32 345.19 246.76 345.01 246.34Z" fill="#0071BC"/>
<path d="M290.6 343.26C290.43 342.83 289.94 342.53 289.15 342.56C288.21 342.6 287.25 343.26 286.64 343.77C286.81 343 286.95 341.84 286.55 340.99C286.21 340.28 285.71 339.99 285.26 340.04C284.8 340.07 284.36 340.45 284.16 341.21C283.93 342.07 284.22 343.12 284.51 343.84C283.85 343.43 282.87 342.96 281.98 343.04C281.19 343.11 280.75 343.48 280.64 343.92C280.51 344.36 280.71 344.9 281.36 345.36C282.13 345.9 283.3 345.96 284.08 345.93C283.48 346.44 282.66 347.27 282.46 348.19C282.29 348.96 282.51 349.5 282.9 349.73C283.28 349.98 283.86 349.96 284.49 349.48C285.24 348.91 285.65 347.81 285.85 347.05C286.15 347.78 286.7 348.81 287.52 349.28C288.21 349.67 288.78 349.62 289.13 349.32C289.48 349.03 289.63 348.47 289.36 347.73C289.04 346.84 288.12 346.12 287.45 345.7C288.23 345.63 289.38 345.42 290.07 344.78C290.66 344.24 290.78 343.68 290.6 343.26Z" fill="#4B93BF"/>
<path d="M175.74 345.68C175.57 345.25 175.08 344.95 174.29 344.98C173.35 345.02 172.39 345.68 171.78 346.19C171.95 345.42 172.09 344.26 171.69 343.41C171.35 342.7 170.85 342.41 170.4 342.46C169.94 342.49 169.5 342.87 169.3 343.63C169.07 344.49 169.36 345.54 169.65 346.26C168.99 345.85 168.01 345.38 167.12 345.46C166.33 345.53 165.89 345.9 165.78 346.34C165.65 346.78 165.85 347.32 166.5 347.78C167.27 348.32 168.44 348.38 169.22 348.35C168.62 348.86 167.8 349.69 167.6 350.61C167.43 351.38 167.65 351.92 168.04 352.15C168.42 352.4 169 352.38 169.63 351.9C170.38 351.33 170.79 350.23 170.99 349.47C171.29 350.2 171.84 351.23 172.66 351.7C173.35 352.09 173.92 352.04 174.27 351.74C174.62 351.45 174.77 350.89 174.5 350.15C174.18 349.26 173.26 348.54 172.59 348.12C173.37 348.05 174.52 347.84 175.21 347.2C175.8 346.67 175.92 346.1 175.74 345.68Z" fill="#0071BC"/>
<path d="M270.39 94.57C270.22 94.14 269.73 93.84 268.94 93.87C268 93.91 267.04 94.57 266.43 95.08C266.6 94.31 266.74 93.15 266.34 92.3C266 91.59 265.5 91.3 265.05 91.35C264.59 91.38 264.15 91.76 263.95 92.52C263.72 93.38 264.01 94.43 264.3 95.15C263.64 94.74 262.66 94.27 261.77 94.35C260.98 94.42 260.54 94.79 260.43 95.23C260.3 95.67 260.5 96.21 261.15 96.67C261.92 97.21 263.09 97.27 263.87 97.24C263.27 97.75 262.45 98.58 262.25 99.5C262.08 100.27 262.3 100.81 262.69 101.04C263.07 101.29 263.65 101.27 264.28 100.79C265.03 100.22 265.44 99.12 265.64 98.36C265.94 99.09 266.49 100.12 267.31 100.59C268 100.98 268.57 100.93 268.92 100.63C269.27 100.34 269.42 99.78 269.15 99.04C268.83 98.15 267.91 97.43 267.24 97.01C268.02 96.94 269.17 96.73 269.86 96.09C270.45 95.55 270.58 94.99 270.39 94.57Z" fill="#0040BC"/>
<path d="M248.79 358.28C248.62 357.85 248.13 357.55 247.34 357.58C246.4 357.62 245.44 358.28 244.83 358.79C245 358.02 245.14 356.86 244.74 356.01C244.4 355.3 243.9 355.01 243.45 355.06C242.99 355.09 242.55 355.47 242.35 356.23C242.12 357.09 242.41 358.14 242.7 358.86C242.04 358.45 241.06 357.98 240.17 358.06C239.38 358.13 238.94 358.5 238.83 358.94C238.7 359.38 238.9 359.92 239.55 360.38C240.32 360.92 241.49 360.98 242.27 360.95C241.67 361.46 240.85 362.29 240.65 363.21C240.48 363.98 240.7 364.52 241.09 364.75C241.47 365 242.05 364.98 242.68 364.5C243.43 363.93 243.84 362.83 244.04 362.07C244.34 362.8 244.89 363.83 245.71 364.3C246.4 364.69 246.97 364.64 247.32 364.34C247.67 364.05 247.82 363.49 247.55 362.75C247.23 361.86 246.31 361.14 245.64 360.72C246.42 360.65 247.57 360.44 248.26 359.8C248.85 359.26 248.97 358.7 248.79 358.28Z" fill="#0040BC"/>
<path d="M100.6 173.75C100.43 173.32 99.9396 173.02 99.1496 173.05C98.2096 173.09 97.2496 173.75 96.6396 174.26C96.8096 173.49 96.9496 172.33 96.5496 171.48C96.2096 170.77 95.7096 170.48 95.2596 170.53C94.7996 170.56 94.3596 170.94 94.1596 171.7C93.9296 172.56 94.2196 173.61 94.5096 174.33C93.8496 173.92 92.8696 173.45 91.9796 173.53C91.1896 173.6 90.7496 173.97 90.6396 174.41C90.5096 174.85 90.7096 175.39 91.3596 175.85C92.1296 176.39 93.2996 176.45 94.0796 176.42C93.4796 176.93 92.6596 177.76 92.4596 178.68C92.2896 179.45 92.5096 179.99 92.8996 180.22C93.2796 180.47 93.8596 180.45 94.4896 179.97C95.2396 179.4 95.6496 178.3 95.8496 177.54C96.1496 178.27 96.6996 179.3 97.5196 179.77C98.2096 180.16 98.7796 180.11 99.1296 179.81C99.4796 179.52 99.6296 178.96 99.3596 178.22C99.0396 177.33 98.1196 176.61 97.4496 176.19C98.2296 176.12 99.3796 175.91 100.07 175.27C100.65 174.73 100.78 174.17 100.6 173.75Z" fill="#0040BC"/>
</svg>
