<svg width="435" height="435" viewBox="0 0 435 435" fill="none" xmlns="http://www.w3.org/2000/svg">
<path d="M395.34 5.07991C388.51 2.97991 381.3 2.3899 374.19 3.0699C346.16 5.7399 235.39 15.5999 127.03 15.5999C1.68996 15.5999 -5.50008 44.9899 9.48992 135.54C24.4799 226.09 -27.8001 353.23 23.0099 406.24C75.2799 460.77 183.46 412.15 284.45 422.19C398.99 433.58 446.37 432.6 431.68 265.07C418.45 114.26 452.01 22.4999 395.34 5.07991Z" fill="#8AD9F7"/>
<path d="M18.6399 110.8C22.3699 154.46 28.8199 190.93 20.1099 284.83C11.7099 375.45 40.6899 396.17 71.7199 407.25C105.33 419.25 246.95 408.97 246.95 408.97C246.95 408.97 353.07 414.54 376.48 405.02C402.38 394.49 421.73 372.21 420.4 333.51C419.07 294.81 413.39 156.1 420.08 86.4899C423.08 55.2799 405.98 2.47993 330.66 16.2799C255.34 30.0799 135.29 35.9099 88.5199 37.5799C54.9099 38.7899 13.0699 45.6899 18.6399 110.8Z" fill="#B8E1F2"/>
<path d="M406.68 319.42C406.73 347.25 387.95 371.63 361 378.61C313.66 390.86 228.6 403.52 102.76 388.32C89.8598 386.76 78.1998 381.22 69.0698 372.95C63.2498 367.68 58.4498 361.3 55.0098 354.13C52.3198 348.53 50.4498 342.45 49.5698 336.04C49.5698 336.03 49.5598 336.01 49.5598 336C49.2398 333.67 48.9198 331.27 48.5998 328.8C48.2998 326.53 48.0098 324.2 47.7198 321.81C46.9098 315.15 46.1198 308.05 45.3698 300.56C44.6098 292.9 43.8998 284.85 43.2698 276.45C39.5398 226.14 38.9098 163.62 48.9198 102.34C49.3398 99.75 49.9298 97.2299 50.6598 94.7599C56.9898 73.4799 74.5798 57.0599 96.7198 52.4699C100.4 51.7099 104.31 50.9299 108.44 50.1299C111.4 49.5699 114.47 48.9999 117.66 48.4299C166.88 39.6099 242.84 30.6099 333.08 35.4699C333.45 35.4899 333.82 35.5099 334.2 35.5399C337.21 35.7499 340.17 36.1899 343.05 36.8299C351.18 38.6399 358.72 42.0699 365.3 46.7899C377.29 55.3799 386.07 68.2499 389.38 83.3299C389.6 84.3299 389.8 85.3299 389.97 86.3499C390.96 92.2999 391.99 98.8099 393.02 105.92C393.02 105.92 393.02 105.92 393.02 105.93C394.28 114.64 395.54 124.22 396.77 134.69C398.94 153.24 400.98 174.56 402.65 198.72C403.07 204.9 403.47 211.26 403.84 217.81C404.16 223.5 404.46 229.33 404.73 235.31C404.97 240.52 405.19 245.84 405.39 251.27C406.17 272.35 406.63 295.06 406.68 319.42Z" fill="#706443"/>
<path d="M401.2 316.24C401.25 343.22 383.04 366.86 356.91 373.63C311.01 385.51 228.54 397.78 106.53 383.05C94.0201 381.54 82.7201 376.17 73.8601 368.15C68.2201 363.04 63.5701 356.85 60.2301 349.9C57.6201 344.47 55.8101 338.58 54.9601 332.37C54.9601 332.36 54.9501 332.34 54.9501 332.33C54.6401 330.07 54.3301 327.75 54.0201 325.35C53.7301 323.15 53.4401 320.89 53.1701 318.57C52.3801 312.11 51.6101 305.23 50.8901 297.97C50.1501 290.55 49.4601 282.74 48.8601 274.59C45.2401 225.81 42.8701 164.88 54.3401 105.78C58.2901 85.4399 76.2001 67.0599 97.5101 61.8999C135.1 52.8099 242.36 36.2399 329.85 40.9499C330.21 40.9699 330.57 40.9899 330.93 41.0199C333.85 41.2299 336.72 41.6499 339.51 42.2699C347.39 44.0299 354.71 47.3499 361.08 51.9299C372.71 60.2599 381.22 72.7299 384.43 87.3599C384.64 88.3299 384.84 89.2999 385 90.2899C385.96 96.0499 386.96 102.38 387.95 109.27C387.95 109.27 387.95 109.27 387.95 109.28C389.17 117.72 390.4 127.01 391.58 137.16C393.69 155.14 395.66 175.82 397.28 199.25C397.69 205.24 398.07 211.41 398.44 217.76C398.75 223.28 399.04 228.93 399.31 234.73C399.55 239.78 399.76 244.94 399.95 250.2C400.71 270.61 401.16 292.62 401.2 316.24Z" fill="#A6886A"/>
<path d="M401.2 316.24C401.25 343.22 383.04 366.86 356.91 373.63C311.01 385.51 228.54 397.78 106.53 383.05C94.02 381.54 82.72 376.17 73.86 368.15C68.22 363.04 63.57 356.85 60.23 349.9C57.62 344.47 55.81 338.58 54.96 332.37C54.96 332.36 54.95 332.34 54.95 332.33C54.64 330.07 54.33 327.75 54.02 325.35C68.26 409.05 226.82 396.72 323.41 296.73C405.18 212.08 387.96 109.63 387.96 109.28C389.18 117.72 390.41 127.01 391.59 137.16C393.7 155.14 395.67 175.82 397.29 199.25C397.7 205.24 398.08 211.41 398.45 217.76C398.76 223.28 399.05 228.93 399.32 234.73C399.56 239.78 399.77 244.94 399.96 250.2C400.71 270.61 401.16 292.62 401.2 316.24Z" fill="#6B624B"/>
<path d="M63.9497 118.75C58.1697 147.6 50.2598 290.81 68.8998 345.76C73.6398 359.74 73.8498 383.96 190.39 380.36C286 377.41 380.21 376.56 389.11 321.39C398.01 266.22 391.39 89.9499 360.25 66.1399C341.25 51.6099 330.24 43.1599 171.01 53.9599C140.28 56.0599 75.4897 61.1699 63.9497 118.75Z" fill="#78B528"/>
<path d="M385.9 296.83C388.42 293.22 389.9 288.83 389.9 284.09C389.9 276.6 386.21 269.98 380.54 265.94C384.97 261.87 387.76 256.02 387.76 249.52C387.76 241.84 383.88 235.07 377.96 231.06C382.68 224.79 385.48 217 385.48 208.56C385.48 196.26 379.55 185.35 370.4 178.51C376.52 173.27 380.67 165.8 381.62 157.37C381.76 156.16 381.83 154.94 381.83 153.7C381.83 143.81 377.43 134.95 370.49 128.95C371.9 126.44 372.71 123.54 372.71 120.45C372.71 110.85 364.93 103.07 355.33 103.07C354.75 103.07 354.17 103.1 353.6 103.16C353.81 101.55 353.93 99.9198 353.93 98.2598C353.93 77.5698 337.15 60.7998 316.47 60.7998C308.37 60.7998 300.89 63.3798 294.76 67.7398C289.22 60.9098 280.77 56.5398 271.28 56.5398C261.54 56.5398 252.88 61.1498 247.35 68.3098C239.3 62.7298 229.54 59.4498 219 59.4498C210.15 59.4498 201.84 61.7698 194.64 65.8098C191.72 60.2998 185.94 56.5398 179.26 56.5398C172.26 56.5398 166.22 60.6898 163.47 66.6498C159.58 63.0198 154.35 60.7998 148.61 60.7998C137.79 60.7998 128.83 68.6698 127.1 78.9898C122.8 77.2698 118.11 76.3098 113.19 76.3098C92.4998 76.3098 75.7297 93.0898 75.7297 113.77C75.7297 120.8 77.6697 127.38 81.0397 133C75.2497 135.52 70.5898 140.15 68.0098 145.91C66.5798 149.08 65.7897 152.59 65.7897 156.29C65.7897 162.85 68.2797 168.83 72.3497 173.34C68.8097 180.19 66.7897 187.95 66.7897 196.2C66.7897 198.96 67.0198 201.67 67.4598 204.31C63.2098 207.74 60.4897 212.99 60.4897 218.88C60.4897 224.21 62.7197 229.02 66.2897 232.43C64.7997 236 63.9697 239.91 63.9697 244.02C63.9697 251.81 66.9498 258.9 71.8198 264.22C69.6998 269.42 68.5298 275.1 68.5298 281.06C68.5298 286.96 69.6798 292.61 71.7598 297.77C73.9898 303.3 77.2997 308.28 81.4297 312.45C75.9897 317.11 72.5397 324.02 72.5397 331.74C72.5397 345.78 83.9198 357.15 97.9498 357.15C99.9798 357.15 101.96 356.91 103.85 356.45C108.46 367.24 119.17 374.8 131.64 374.8C138.96 374.8 145.68 372.2 150.91 367.87C154.08 372.08 159.12 374.8 164.81 374.8C170.44 374.8 175.45 372.12 178.63 367.97C185.26 373.89 194 377.5 203.59 377.5C216.31 377.5 227.56 371.15 234.32 361.45C242.47 367.24 252.41 370.66 263.16 370.66C278.45 370.66 292.12 363.77 301.25 352.93C304.79 360.06 312.14 364.95 320.64 364.95C328.85 364.95 336 360.38 339.66 353.64C341.78 354.49 344.09 354.97 346.52 354.97C356.68 354.97 364.91 346.74 364.91 336.58C364.91 335.76 364.85 334.95 364.75 334.16C364.8 334.16 364.86 334.16 364.91 334.16C378.27 334.16 389.1 323.33 389.1 309.97C389.1 305.33 387.79 300.99 385.52 297.31C385.72 297.07 385.85 296.9 385.9 296.83Z" fill="#90D437"/>
<path d="M85.9598 392.36C85.9598 392.36 76.2498 387.09 74.4498 391.67C72.6498 396.25 78.3398 401.54 85.8198 398.61C92.4098 396.02 85.9598 392.36 85.9598 392.36Z" fill="#DCEEF2"/>
<path d="M47.0699 368.87C47.0699 368.87 44.7399 381.79 54.7099 390.21C64.6799 398.64 69.8099 390.18 66.7599 386.96C63.6999 383.74 54.8199 377.02 51.6699 370.97C48.4999 364.93 47.0699 368.87 47.0699 368.87Z" fill="#DCEEF2"/>
<path d="M391.9 36.7098C384.2 31.3998 372.83 28.2198 372.22 35.2998C371.68 41.5498 379.17 41.2398 389.67 53.1098C392.03 55.7798 392.78 57.7098 394.07 58.7898C396.67 60.9598 400.75 61.8098 401.19 53.6898C401.48 48.1498 396.34 39.7698 391.9 36.7098Z" fill="#DCEEF2"/>
<path d="M119.92 304.96C119.92 304.44 119.46 303.91 118.42 303.91C118.1 303.91 117.76 303.95 117.42 304.01C117.7 303.81 117.97 303.6 118.2 303.38C118.94 302.64 118.89 301.95 118.52 301.58C118.15 301.21 117.46 301.16 116.72 301.9C116.49 302.13 116.28 302.39 116.09 302.68C116.15 302.34 116.19 302 116.19 301.68C116.19 300.64 115.67 300.18 115.14 300.18C114.61 300.18 114.09 300.64 114.09 301.68C114.09 302 114.13 302.34 114.19 302.68C113.99 302.4 113.78 302.13 113.56 301.9C112.82 301.16 112.13 301.21 111.76 301.58C111.39 301.95 111.34 302.64 112.08 303.38C112.31 303.61 112.57 303.82 112.86 304.01C112.52 303.95 112.18 303.91 111.86 303.91C110.82 303.91 110.36 304.43 110.36 304.96C110.36 305.49 110.82 306.01 111.86 306.01C112.18 306.01 112.52 305.97 112.86 305.91C112.58 306.11 112.31 306.32 112.08 306.54C111.34 307.28 111.39 307.97 111.76 308.34C112.13 308.71 112.82 308.76 113.56 308.02C113.79 307.79 114 307.53 114.19 307.24C114.13 307.58 114.09 307.92 114.09 308.24C114.09 309.28 114.61 309.74 115.14 309.74C115.66 309.74 116.19 309.28 116.19 308.24C116.19 307.92 116.15 307.58 116.09 307.24C116.29 307.52 116.5 307.79 116.72 308.02C117.46 308.76 118.15 308.71 118.52 308.34C118.89 307.97 118.94 307.28 118.2 306.54C117.97 306.31 117.71 306.1 117.42 305.91C117.76 305.97 118.1 306.01 118.42 306.01C119.46 306.01 119.92 305.48 119.92 304.96Z" fill="#FFFF00"/>
<path d="M89.7597 146.75C89.7597 146.23 89.2997 145.7 88.2597 145.7C87.9397 145.7 87.5997 145.74 87.2597 145.8C87.5397 145.6 87.8097 145.39 88.0397 145.17C88.7797 144.43 88.7297 143.74 88.3597 143.37C87.9897 143 87.2997 142.95 86.5597 143.69C86.3297 143.92 86.1197 144.18 85.9297 144.47C85.9897 144.13 86.0297 143.79 86.0297 143.47C86.0297 142.43 85.5097 141.97 84.9797 141.97C84.4597 141.97 83.9297 142.43 83.9297 143.47C83.9297 143.79 83.9697 144.13 84.0297 144.47C83.8297 144.19 83.6197 143.92 83.3997 143.69C82.6597 142.95 81.9697 143 81.5997 143.37C81.2297 143.74 81.1797 144.43 81.9197 145.17C82.1497 145.4 82.4097 145.61 82.6997 145.8C82.3597 145.74 82.0197 145.7 81.6997 145.7C80.6597 145.7 80.1997 146.22 80.1997 146.75C80.1997 147.27 80.6597 147.8 81.6997 147.8C82.0197 147.8 82.3597 147.76 82.6997 147.7C82.4197 147.9 82.1497 148.11 81.9197 148.33C81.1797 149.07 81.2297 149.76 81.5997 150.13C81.9697 150.5 82.6597 150.55 83.3997 149.81C83.6297 149.58 83.8397 149.32 84.0297 149.03C83.9697 149.37 83.9297 149.71 83.9297 150.03C83.9297 151.07 84.4497 151.53 84.9797 151.53C85.4997 151.53 86.0297 151.07 86.0297 150.03C86.0297 149.71 85.9897 149.37 85.9297 149.03C86.1297 149.31 86.3397 149.58 86.5597 149.81C87.2997 150.55 87.9897 150.5 88.3597 150.13C88.7297 149.76 88.7797 149.07 88.0397 148.33C87.8097 148.1 87.5497 147.89 87.2597 147.7C87.5997 147.76 87.9397 147.8 88.2597 147.8C89.3097 147.8 89.7597 147.27 89.7597 146.75Z" fill="#FFFF00"/>
<path d="M300.6 318.44C300.6 317.92 300.14 317.39 299.1 317.39C298.78 317.39 298.44 317.43 298.1 317.49C298.38 317.29 298.65 317.08 298.88 316.86C299.62 316.12 299.57 315.43 299.2 315.06C298.83 314.69 298.14 314.64 297.4 315.38C297.17 315.61 296.96 315.87 296.77 316.16C296.83 315.82 296.87 315.48 296.87 315.16C296.87 314.12 296.35 313.66 295.82 313.66C295.3 313.66 294.77 314.12 294.77 315.16C294.77 315.48 294.81 315.82 294.87 316.16C294.67 315.88 294.46 315.61 294.24 315.38C293.5 314.64 292.81 314.69 292.44 315.06C292.07 315.43 292.02 316.12 292.76 316.86C292.99 317.09 293.25 317.3 293.54 317.49C293.2 317.43 292.86 317.39 292.54 317.39C291.5 317.39 291.04 317.91 291.04 318.44C291.04 318.97 291.5 319.49 292.54 319.49C292.86 319.49 293.2 319.45 293.54 319.39C293.26 319.59 292.99 319.8 292.76 320.02C292.02 320.76 292.07 321.45 292.44 321.82C292.81 322.19 293.5 322.24 294.24 321.5C294.47 321.27 294.68 321.01 294.87 320.72C294.81 321.06 294.77 321.4 294.77 321.72C294.77 322.76 295.29 323.22 295.82 323.22C296.35 323.22 296.87 322.76 296.87 321.72C296.87 321.4 296.83 321.06 296.77 320.72C296.97 321 297.18 321.27 297.4 321.5C298.14 322.24 298.83 322.19 299.2 321.82C299.57 321.45 299.62 320.76 298.88 320.02C298.65 319.79 298.39 319.58 298.1 319.39C298.44 319.45 298.78 319.49 299.1 319.49C300.15 319.49 300.6 318.96 300.6 318.44Z" fill="#FFFF00"/>
<path d="M323.99 349.41C323.99 348.89 323.53 348.36 322.49 348.36C322.17 348.36 321.83 348.4 321.49 348.46C321.77 348.26 322.04 348.05 322.27 347.83C323.01 347.09 322.96 346.4 322.59 346.03C322.22 345.66 321.53 345.61 320.79 346.35C320.56 346.58 320.35 346.84 320.16 347.13C320.22 346.79 320.26 346.45 320.26 346.13C320.26 345.09 319.74 344.63 319.21 344.63C318.69 344.63 318.16 345.09 318.16 346.13C318.16 346.45 318.2 346.79 318.26 347.13C318.06 346.85 317.85 346.58 317.63 346.35C316.89 345.61 316.2 345.66 315.83 346.03C315.46 346.4 315.41 347.09 316.15 347.83C316.38 348.06 316.64 348.27 316.93 348.46C316.59 348.4 316.25 348.36 315.93 348.36C314.89 348.36 314.43 348.88 314.43 349.41C314.43 349.93 314.89 350.46 315.93 350.46C316.25 350.46 316.59 350.42 316.93 350.36C316.65 350.56 316.38 350.77 316.15 350.99C315.41 351.73 315.46 352.42 315.83 352.79C316.2 353.16 316.89 353.21 317.63 352.47C317.86 352.24 318.07 351.98 318.26 351.69C318.2 352.03 318.16 352.37 318.16 352.69C318.16 353.73 318.68 354.19 319.21 354.19C319.73 354.19 320.26 353.73 320.26 352.69C320.26 352.37 320.22 352.03 320.16 351.69C320.36 351.97 320.57 352.24 320.79 352.47C321.53 353.21 322.22 353.16 322.59 352.79C322.96 352.42 323.01 351.73 322.27 350.99C322.04 350.76 321.78 350.55 321.49 350.36C321.83 350.42 322.17 350.46 322.49 350.46C323.53 350.46 323.99 349.93 323.99 349.41Z" fill="#FFFF00"/>
<path d="M358.69 291.3C358.69 290.78 358.23 290.25 357.19 290.25C356.87 290.25 356.53 290.29 356.19 290.35C356.47 290.15 356.74 289.94 356.97 289.72C357.71 288.98 357.66 288.29 357.29 287.92C356.92 287.55 356.23 287.5 355.49 288.24C355.26 288.47 355.05 288.73 354.86 289.02C354.92 288.68 354.96 288.34 354.96 288.02C354.96 286.98 354.44 286.52 353.91 286.52C353.39 286.52 352.86 286.98 352.86 288.02C352.86 288.34 352.9 288.68 352.96 289.02C352.76 288.74 352.55 288.47 352.33 288.24C351.59 287.5 350.9 287.55 350.53 287.92C350.16 288.29 350.11 288.98 350.85 289.72C351.08 289.95 351.34 290.16 351.63 290.35C351.29 290.29 350.95 290.25 350.63 290.25C349.59 290.25 349.13 290.77 349.13 291.3C349.13 291.83 349.59 292.35 350.63 292.35C350.95 292.35 351.29 292.31 351.63 292.25C351.35 292.45 351.08 292.66 350.85 292.88C350.11 293.62 350.16 294.31 350.53 294.68C350.9 295.05 351.59 295.1 352.33 294.36C352.56 294.13 352.77 293.87 352.96 293.58C352.9 293.92 352.86 294.26 352.86 294.58C352.86 295.62 353.38 296.08 353.91 296.08C354.43 296.08 354.96 295.62 354.96 294.58C354.96 294.26 354.92 293.92 354.86 293.58C355.06 293.86 355.27 294.13 355.49 294.36C356.23 295.1 356.92 295.05 357.29 294.68C357.66 294.31 357.71 293.62 356.97 292.88C356.74 292.65 356.48 292.44 356.19 292.25C356.53 292.31 356.87 292.35 357.19 292.35C358.23 292.35 358.69 291.83 358.69 291.3Z" fill="#FFFF00"/>
<path d="M300.6 151.53C300.6 151.01 300.14 150.48 299.1 150.48C298.78 150.48 298.44 150.52 298.1 150.58C298.38 150.38 298.65 150.17 298.88 149.95C299.62 149.21 299.57 148.52 299.2 148.15C298.83 147.78 298.14 147.73 297.4 148.47C297.17 148.7 296.96 148.96 296.77 149.25C296.83 148.91 296.87 148.57 296.87 148.25C296.87 147.21 296.35 146.75 295.82 146.75C295.3 146.75 294.77 147.21 294.77 148.25C294.77 148.57 294.81 148.91 294.87 149.25C294.67 148.97 294.46 148.7 294.24 148.47C293.5 147.73 292.81 147.78 292.44 148.15C292.07 148.52 292.02 149.21 292.76 149.95C292.99 150.18 293.25 150.39 293.54 150.58C293.2 150.52 292.86 150.48 292.54 150.48C291.5 150.48 291.04 151 291.04 151.53C291.04 152.05 291.5 152.58 292.54 152.58C292.86 152.58 293.2 152.54 293.54 152.48C293.26 152.68 292.99 152.89 292.76 153.11C292.02 153.85 292.07 154.54 292.44 154.91C292.81 155.28 293.5 155.33 294.24 154.59C294.47 154.36 294.68 154.1 294.87 153.81C294.81 154.15 294.77 154.49 294.77 154.81C294.77 155.85 295.29 156.31 295.82 156.31C296.35 156.31 296.87 155.85 296.87 154.81C296.87 154.49 296.83 154.15 296.77 153.81C296.97 154.09 297.18 154.36 297.4 154.59C298.14 155.33 298.83 155.28 299.2 154.91C299.57 154.54 299.62 153.85 298.88 153.11C298.65 152.88 298.39 152.67 298.1 152.48C298.44 152.54 298.78 152.58 299.1 152.58C300.15 152.58 300.6 152.06 300.6 151.53Z" fill="#FFFF00"/>
<path d="M92.1596 247.87C92.1596 247.35 91.6996 246.82 90.6596 246.82C90.3396 246.82 89.9996 246.86 89.6596 246.92C89.9396 246.72 90.2096 246.51 90.4396 246.29C91.1796 245.55 91.1296 244.86 90.7596 244.49C90.3896 244.12 89.6997 244.07 88.9597 244.81C88.7297 245.04 88.5197 245.3 88.3297 245.59C88.3897 245.25 88.4296 244.91 88.4296 244.59C88.4296 243.55 87.9096 243.09 87.3796 243.09C86.8496 243.09 86.3297 243.55 86.3297 244.59C86.3297 244.91 86.3696 245.25 86.4296 245.59C86.2296 245.31 86.0196 245.04 85.7996 244.81C85.0596 244.07 84.3696 244.12 83.9996 244.49C83.6296 244.86 83.5796 245.55 84.3196 246.29C84.5496 246.52 84.8096 246.73 85.0996 246.92C84.7596 246.86 84.4196 246.82 84.0996 246.82C83.0596 246.82 82.5996 247.34 82.5996 247.87C82.5996 248.39 83.0596 248.92 84.0996 248.92C84.4196 248.92 84.7596 248.88 85.0996 248.82C84.8196 249.02 84.5496 249.23 84.3196 249.45C83.5796 250.19 83.6296 250.88 83.9996 251.25C84.3696 251.62 85.0596 251.67 85.7996 250.93C86.0296 250.7 86.2396 250.44 86.4296 250.15C86.3696 250.49 86.3297 250.83 86.3297 251.15C86.3297 252.19 86.8496 252.65 87.3796 252.65C87.8996 252.65 88.4296 252.19 88.4296 251.15C88.4296 250.83 88.3897 250.49 88.3297 250.15C88.5297 250.43 88.7397 250.7 88.9597 250.93C89.6997 251.67 90.3896 251.62 90.7596 251.25C91.1296 250.88 91.1796 250.19 90.4396 249.45C90.2096 249.22 89.9496 249.01 89.6596 248.82C89.9996 248.88 90.3396 248.92 90.6596 248.92C91.7096 248.92 92.1596 248.4 92.1596 247.87Z" fill="#FFFF00"/>
<path d="M194.03 89.3999C194.03 88.8799 193.57 88.3499 192.53 88.3499C192.21 88.3499 191.87 88.3899 191.53 88.4499C191.81 88.2499 192.08 88.0399 192.31 87.8199C193.05 87.0799 193 86.3899 192.63 86.0199C192.26 85.6499 191.57 85.5999 190.83 86.3399C190.6 86.5699 190.39 86.8299 190.2 87.1199C190.26 86.7799 190.3 86.4399 190.3 86.1199C190.3 85.0799 189.78 84.6199 189.25 84.6199C188.73 84.6199 188.2 85.0799 188.2 86.1199C188.2 86.4399 188.24 86.7799 188.3 87.1199C188.1 86.8399 187.89 86.5699 187.67 86.3399C186.93 85.5999 186.24 85.6499 185.87 86.0199C185.5 86.3899 185.45 87.0799 186.19 87.8199C186.42 88.0499 186.68 88.2599 186.97 88.4499C186.63 88.3899 186.29 88.3499 185.97 88.3499C184.93 88.3499 184.47 88.8699 184.47 89.3999C184.47 89.9299 184.93 90.4499 185.97 90.4499C186.29 90.4499 186.63 90.4099 186.97 90.3499C186.69 90.5499 186.42 90.7599 186.19 90.9799C185.45 91.7199 185.5 92.4099 185.87 92.7799C186.24 93.1499 186.93 93.1999 187.67 92.4599C187.9 92.2299 188.11 91.9699 188.3 91.6799C188.24 92.0199 188.2 92.3599 188.2 92.6799C188.2 93.7199 188.72 94.1799 189.25 94.1799C189.77 94.1799 190.3 93.7199 190.3 92.6799C190.3 92.3599 190.26 92.0199 190.2 91.6799C190.4 91.9599 190.61 92.2299 190.83 92.4599C191.57 93.1999 192.26 93.1499 192.63 92.7799C193 92.4099 193.05 91.7199 192.31 90.9799C192.08 90.7499 191.82 90.5399 191.53 90.3499C191.87 90.4099 192.21 90.4499 192.53 90.4499C193.57 90.4499 194.03 89.9199 194.03 89.3999Z" fill="#FFFF00"/>
<path d="M251.84 156.32C251.84 155.8 251.38 155.27 250.34 155.27C250.02 155.27 249.68 155.31 249.34 155.37C249.62 155.17 249.89 154.96 250.12 154.74C250.86 154 250.81 153.31 250.44 152.94C250.07 152.57 249.38 152.52 248.64 153.26C248.41 153.49 248.2 153.75 248.01 154.04C248.07 153.7 248.11 153.36 248.11 153.04C248.11 152 247.59 151.54 247.06 151.54C246.54 151.54 246.01 152 246.01 153.04C246.01 153.36 246.05 153.7 246.11 154.04C245.91 153.76 245.7 153.49 245.48 153.26C244.74 152.52 244.05 152.57 243.68 152.94C243.31 153.31 243.26 154 244 154.74C244.23 154.97 244.49 155.18 244.78 155.37C244.44 155.31 244.1 155.27 243.78 155.27C242.74 155.27 242.28 155.79 242.28 156.32C242.28 156.85 242.74 157.37 243.78 157.37C244.1 157.37 244.44 157.33 244.78 157.27C244.5 157.47 244.23 157.68 244 157.9C243.26 158.64 243.31 159.33 243.68 159.7C244.05 160.07 244.74 160.12 245.48 159.38C245.71 159.15 245.92 158.89 246.11 158.6C246.05 158.94 246.01 159.28 246.01 159.6C246.01 160.64 246.53 161.1 247.06 161.1C247.58 161.1 248.11 160.64 248.11 159.6C248.11 159.28 248.07 158.94 248.01 158.6C248.21 158.88 248.42 159.15 248.64 159.38C249.38 160.12 250.07 160.07 250.44 159.7C250.81 159.33 250.86 158.64 250.12 157.9C249.89 157.67 249.63 157.46 249.34 157.27C249.68 157.33 250.02 157.37 250.34 157.37C251.38 157.37 251.84 156.84 251.84 156.32Z" fill="#FFFF00"/>
<path d="M106.08 334.79C105.84 333.97 104.98 333.32 103.51 333.25C101.75 333.17 99.8595 334.24 98.6595 335.08C99.0995 333.68 99.5596 331.55 98.9496 329.9C98.4396 328.52 97.5596 327.9 96.7096 327.91C95.8596 327.9 94.9795 328.51 94.4695 329.9C93.8995 331.46 94.2696 333.45 94.6896 334.84C93.5296 333.97 91.7896 332.93 90.1296 332.94C88.6596 332.94 87.7695 333.55 87.4895 334.36C87.1795 335.15 87.4596 336.19 88.5796 337.15C89.9196 338.29 92.0795 338.59 93.5395 338.66C92.3395 339.5 90.6796 340.91 90.1496 342.58C89.7096 343.98 90.0296 345.01 90.7096 345.52C91.3796 346.05 92.4496 346.1 93.6896 345.31C95.1796 344.37 96.1196 342.41 96.6196 341.03C97.0596 342.43 97.9095 344.44 99.3495 345.44C100.56 346.28 101.63 346.29 102.32 345.79C103.03 345.31 103.39 344.3 103.02 342.88C102.57 341.18 100.98 339.69 99.8196 338.8C101.28 338.8 103.45 338.6 104.84 337.52C106.02 336.62 106.35 335.6 106.08 334.79Z" fill="white"/>
<path d="M177.28 246.34C177.44 245.66 177.1 244.85 176.08 244.2C174.86 243.43 173.07 243.42 171.87 243.53C172.75 242.71 173.95 241.38 174.18 239.95C174.38 238.76 174 237.96 173.39 237.62C172.79 237.26 171.91 237.35 170.98 238.13C169.94 239.01 169.4 240.58 169.12 241.74C168.64 240.65 167.83 239.2 166.64 238.52C165.59 237.92 164.71 238 164.18 238.46C163.64 238.9 163.41 239.76 163.83 240.89C164.32 242.25 165.74 243.34 166.75 243.99C165.55 244.1 163.79 244.43 162.74 245.41C161.85 246.23 161.66 247.09 161.94 247.74C162.2 248.39 162.95 248.86 164.15 248.81C165.59 248.75 167.06 247.73 167.98 246.95C167.72 248.12 167.51 249.9 168.13 251.21C168.65 252.3 169.41 252.74 170.11 252.67C170.81 252.62 171.48 252.05 171.79 250.88C172.16 249.49 171.63 247.78 171.17 246.67C172.21 247.27 173.85 248 175.28 247.8C176.49 247.63 177.14 247.03 177.28 246.34Z" fill="white"/>
<path d="M348.02 335.75C348.18 335.07 347.84 334.26 346.82 333.61C345.6 332.84 343.81 332.83 342.61 332.94C343.49 332.12 344.69 330.79 344.92 329.36C345.12 328.17 344.74 327.37 344.13 327.03C343.53 326.67 342.65 326.76 341.72 327.54C340.68 328.42 340.14 329.99 339.86 331.15C339.38 330.06 338.57 328.61 337.38 327.93C336.33 327.33 335.45 327.41 334.92 327.87C334.38 328.31 334.15 329.17 334.57 330.3C335.06 331.66 336.48 332.75 337.49 333.4C336.29 333.51 334.53 333.84 333.48 334.82C332.59 335.64 332.4 336.5 332.68 337.15C332.94 337.8 333.69 338.27 334.89 338.22C336.33 338.16 337.8 337.14 338.72 336.36C338.46 337.53 338.25 339.31 338.87 340.62C339.39 341.71 340.15 342.15 340.85 342.08C341.55 342.03 342.22 341.46 342.53 340.29C342.9 338.9 342.37 337.19 341.91 336.08C342.95 336.68 344.59 337.41 346.02 337.21C347.23 337.03 347.88 336.43 348.02 335.75Z" fill="white"/>
<path d="M369.35 216.61C369.51 215.93 369.17 215.12 368.15 214.47C366.93 213.7 365.14 213.69 363.94 213.8C364.82 212.98 366.02 211.65 366.25 210.22C366.45 209.03 366.07 208.23 365.46 207.89C364.86 207.53 363.98 207.62 363.05 208.4C362.01 209.28 361.47 210.85 361.19 212.01C360.71 210.92 359.9 209.47 358.71 208.79C357.66 208.19 356.78 208.27 356.25 208.73C355.71 209.17 355.48 210.03 355.9 211.16C356.39 212.52 357.81 213.61 358.82 214.26C357.62 214.37 355.86 214.7 354.81 215.68C353.92 216.5 353.73 217.36 354.01 218.01C354.27 218.66 355.02 219.13 356.22 219.08C357.66 219.02 359.13 218 360.05 217.22C359.79 218.39 359.58 220.17 360.2 221.48C360.72 222.57 361.48 223.01 362.18 222.94C362.88 222.89 363.55 222.32 363.86 221.15C364.23 219.76 363.7 218.05 363.24 216.94C364.28 217.54 365.92 218.27 367.35 218.07C368.56 217.89 369.21 217.29 369.35 216.61Z" fill="white"/>
<path d="M177.73 343.22C177.58 342.54 176.92 341.95 175.72 341.8C174.29 341.62 172.67 342.39 171.63 343C172.08 341.88 172.58 340.16 172.18 338.78C171.85 337.62 171.17 337.06 170.47 337.02C169.77 336.96 169.02 337.41 168.52 338.51C167.96 339.75 168.14 341.4 168.4 342.57C167.5 341.79 166.14 340.83 164.78 340.73C163.57 340.64 162.81 341.09 162.53 341.73C162.23 342.36 162.4 343.23 163.26 344.08C164.29 345.09 166.04 345.47 167.23 345.62C166.2 346.23 164.75 347.29 164.22 348.63C163.77 349.75 163.97 350.61 164.5 351.07C165.01 351.55 165.89 351.65 166.96 351.08C168.23 350.4 169.12 348.85 169.62 347.75C169.89 348.92 170.47 350.62 171.59 351.53C172.53 352.29 173.41 352.36 174 351.99C174.61 351.64 174.97 350.84 174.75 349.65C174.49 348.23 173.27 346.92 172.38 346.11C173.58 346.2 175.37 346.16 176.57 345.37C177.57 344.72 177.9 343.9 177.73 343.22Z" fill="white"/>
<path d="M229.94 326.81C230.06 326.12 229.67 325.33 228.61 324.74C227.35 324.04 225.56 324.14 224.37 324.31C225.2 323.44 226.32 322.04 226.47 320.61C226.6 319.41 226.18 318.63 225.55 318.33C224.93 318.01 224.06 318.14 223.18 318.97C222.19 319.91 221.74 321.51 221.53 322.68C220.99 321.62 220.09 320.22 218.87 319.61C217.79 319.07 216.91 319.2 216.41 319.69C215.89 320.16 215.72 321.03 216.2 322.14C216.77 323.47 218.25 324.48 219.3 325.06C218.11 325.24 216.37 325.67 215.37 326.71C214.53 327.58 214.39 328.45 214.71 329.08C215.01 329.71 215.78 330.14 216.98 330.02C218.42 329.87 219.83 328.77 220.7 327.94C220.51 329.13 220.4 330.92 221.1 332.18C221.68 333.24 222.47 333.64 223.16 333.52C223.85 333.43 224.49 332.82 224.74 331.63C225.03 330.22 224.4 328.54 223.87 327.46C224.95 328 226.62 328.64 228.03 328.36C229.23 328.13 229.84 327.5 229.94 326.81Z" fill="white"/>
<path d="M115.03 101.66C114.88 100.98 114.22 100.39 113.02 100.24C111.59 100.06 109.97 100.83 108.93 101.44C109.38 100.32 109.88 98.5999 109.48 97.2199C109.15 96.0599 108.47 95.5 107.77 95.46C107.07 95.4 106.32 95.85 105.82 96.95C105.26 98.19 105.44 99.84 105.7 101.01C104.8 100.23 103.44 99.2699 102.08 99.1699C100.87 99.0799 100.11 99.5299 99.8296 100.17C99.5296 100.8 99.6995 101.67 100.56 102.52C101.59 103.53 103.34 103.91 104.53 104.06C103.5 104.67 102.05 105.73 101.52 107.07C101.07 108.19 101.27 109.05 101.8 109.51C102.31 109.99 103.19 110.09 104.26 109.52C105.53 108.84 106.42 107.29 106.92 106.19C107.19 107.36 107.77 109.06 108.89 109.97C109.83 110.73 110.71 110.8 111.3 110.43C111.91 110.08 112.27 109.28 112.05 108.09C111.79 106.67 110.57 105.36 109.68 104.55C110.88 104.64 112.67 104.6 113.87 103.81C114.87 103.16 115.2 102.34 115.03 101.66Z" fill="white"/>
<path d="M87.3497 299.33C87.2597 298.92 86.8597 298.56 86.1297 298.47C85.2597 298.36 84.2798 298.83 83.6498 299.2C83.9198 298.52 84.2197 297.48 83.9797 296.64C83.7797 295.94 83.3697 295.6 82.9397 295.57C82.5197 295.53 82.0597 295.81 81.7597 296.47C81.4197 297.22 81.5297 298.22 81.6897 298.93C81.1397 298.46 80.3197 297.88 79.4997 297.82C78.7697 297.77 78.3097 298.04 78.1397 298.43C77.9597 298.81 78.0598 299.34 78.5798 299.85C79.1998 300.46 80.2597 300.7 80.9897 300.78C80.3597 301.15 79.4897 301.79 79.1597 302.6C78.8897 303.28 79.0098 303.8 79.3298 304.08C79.6398 304.37 80.1697 304.43 80.8197 304.09C81.5897 303.68 82.1297 302.74 82.4297 302.07C82.5997 302.78 82.9397 303.81 83.6197 304.36C84.1897 304.82 84.7198 304.86 85.0798 304.64C85.4498 304.43 85.6698 303.94 85.5298 303.22C85.3698 302.36 84.6298 301.56 84.0898 301.08C84.8198 301.13 85.8997 301.11 86.6297 300.63C87.2597 300.23 87.4597 299.74 87.3497 299.33Z" fill="white"/>
<path d="M312.42 107.84C312.28 107.21 311.68 106.67 310.57 106.54C309.25 106.38 307.76 107.08 306.81 107.65C307.22 106.62 307.68 105.04 307.32 103.76C307.01 102.69 306.39 102.17 305.74 102.14C305.1 102.08 304.4 102.5 303.94 103.51C303.42 104.65 303.59 106.17 303.83 107.25C303 106.53 301.75 105.65 300.5 105.56C299.39 105.48 298.69 105.89 298.43 106.48C298.15 107.06 298.31 107.86 299.1 108.64C300.05 109.57 301.66 109.92 302.76 110.06C301.81 110.62 300.48 111.6 299.99 112.83C299.58 113.86 299.76 114.66 300.25 115.08C300.72 115.52 301.53 115.61 302.51 115.09C303.68 114.47 304.5 113.04 304.96 112.03C305.21 113.11 305.74 114.67 306.77 115.51C307.63 116.21 308.44 116.28 308.99 115.94C309.55 115.62 309.88 114.88 309.68 113.78C309.44 112.47 308.32 111.26 307.49 110.53C308.59 110.61 310.24 110.58 311.35 109.85C312.27 109.22 312.58 108.47 312.42 107.84Z" fill="white"/>
<path d="M257.18 93.2499C257.04 92.6199 256.44 92.0799 255.33 91.9499C254.01 91.7899 252.52 92.4899 251.57 93.0599C251.98 92.0299 252.44 90.4499 252.08 89.1699C251.77 88.0999 251.15 87.5799 250.5 87.5499C249.86 87.4899 249.16 87.9099 248.7 88.9199C248.18 90.0599 248.35 91.5799 248.59 92.6599C247.76 91.9399 246.51 91.0599 245.26 90.9699C244.15 90.8899 243.45 91.2999 243.19 91.8899C242.91 92.4699 243.07 93.2699 243.86 94.0499C244.81 94.9799 246.42 95.3299 247.52 95.4699C246.57 96.0299 245.24 97.0099 244.75 98.2399C244.34 99.2699 244.52 100.07 245.01 100.49C245.48 100.93 246.29 101.02 247.27 100.5C248.44 99.8799 249.26 98.4499 249.72 97.4399C249.97 98.5199 250.5 100.08 251.53 100.92C252.39 101.62 253.2 101.69 253.75 101.35C254.31 101.03 254.64 100.29 254.44 99.1899C254.2 97.8799 253.08 96.6699 252.25 95.9399C253.35 96.0199 255 95.9899 256.11 95.2599C257.04 94.6199 257.34 93.8699 257.18 93.2499Z" fill="white"/>
<path d="M347.06 128.67C347.32 127.78 346.93 126.69 345.63 125.76C344.08 124.65 341.73 124.52 340.14 124.58C341.36 123.57 343.03 121.9 343.44 120.04C343.79 118.48 343.35 117.41 342.57 116.92C341.8 116.41 340.64 116.45 339.37 117.41C337.93 118.49 337.11 120.52 336.67 122.03C336.12 120.56 335.15 118.59 333.64 117.62C332.3 116.76 331.14 116.8 330.41 117.36C329.66 117.9 329.31 119.01 329.77 120.54C330.32 122.36 332.1 123.91 333.39 124.82C331.81 124.88 329.47 125.18 328.01 126.4C326.79 127.42 326.47 128.54 326.8 129.4C327.09 130.27 328.04 130.95 329.64 130.96C331.54 130.98 333.55 129.74 334.81 128.79C334.39 130.32 333.98 132.64 334.7 134.4C335.3 135.87 336.28 136.51 337.2 136.46C338.12 136.44 339.05 135.74 339.54 134.22C340.13 132.41 339.55 130.12 339.02 128.63C340.35 129.49 342.45 130.58 344.34 130.42C345.94 130.31 346.83 129.57 347.06 128.67Z" fill="white"/>
<path d="M333.93 82.84C333.75 82.4 333.25 82.0799 332.42 82.1099C331.44 82.1499 330.44 82.8399 329.81 83.3699C329.99 82.5699 330.13 81.3599 329.71 80.4699C329.36 79.7299 328.84 79.4299 328.36 79.4799C327.88 79.5099 327.43 79.9 327.21 80.7C326.97 81.6 327.28 82.69 327.58 83.44C326.89 83.01 325.87 82.5199 324.94 82.6099C324.12 82.6799 323.66 83.07 323.54 83.53C323.41 83.99 323.62 84.55 324.29 85.03C325.09 85.6 326.31 85.6599 327.13 85.6199C326.5 86.1499 325.65 87.0099 325.44 87.9699C325.26 88.7699 325.49 89.33 325.9 89.58C326.3 89.84 326.9 89.81 327.55 89.32C328.33 88.72 328.76 87.5799 328.97 86.7899C329.28 87.5499 329.86 88.6199 330.71 89.1099C331.42 89.5199 332.02 89.47 332.38 89.15C332.75 88.85 332.9 88.2699 332.62 87.4899C332.29 86.5699 331.32 85.82 330.63 85.38C331.45 85.31 332.64 85.0899 333.36 84.4199C333.99 83.8699 334.13 83.28 333.93 82.84Z" fill="white"/>
<path d="M162.67 176.19C162.49 175.75 161.99 175.43 161.16 175.46C160.18 175.5 159.18 176.19 158.55 176.72C158.73 175.92 158.87 174.71 158.45 173.82C158.1 173.08 157.58 172.78 157.1 172.83C156.62 172.86 156.17 173.25 155.95 174.05C155.71 174.95 156.02 176.04 156.32 176.79C155.63 176.36 154.61 175.87 153.68 175.96C152.86 176.03 152.4 176.42 152.28 176.88C152.15 177.34 152.36 177.9 153.03 178.38C153.83 178.95 155.05 179.01 155.87 178.97C155.24 179.5 154.39 180.36 154.18 181.32C154 182.12 154.23 182.68 154.64 182.93C155.04 183.19 155.64 183.16 156.29 182.67C157.07 182.07 157.5 180.93 157.71 180.14C158.02 180.9 158.6 181.97 159.45 182.46C160.16 182.87 160.76 182.82 161.12 182.5C161.49 182.2 161.64 181.62 161.36 180.84C161.03 179.92 160.06 179.17 159.37 178.73C160.19 178.66 161.38 178.44 162.1 177.77C162.73 177.21 162.86 176.62 162.67 176.19Z" fill="white"/>
<path d="M252.22 298.87C252.04 298.43 251.54 298.11 250.71 298.14C249.73 298.18 248.73 298.87 248.1 299.4C248.28 298.6 248.42 297.39 248 296.5C247.65 295.76 247.13 295.46 246.65 295.51C246.17 295.54 245.72 295.93 245.5 296.73C245.26 297.63 245.57 298.72 245.87 299.47C245.18 299.04 244.16 298.55 243.23 298.64C242.41 298.71 241.95 299.1 241.83 299.56C241.7 300.02 241.91 300.58 242.58 301.06C243.38 301.63 244.6 301.69 245.42 301.65C244.79 302.18 243.94 303.04 243.73 304C243.55 304.8 243.78 305.36 244.19 305.61C244.59 305.87 245.19 305.84 245.84 305.35C246.62 304.75 247.05 303.61 247.26 302.82C247.57 303.58 248.15 304.65 249 305.14C249.71 305.55 250.31 305.5 250.67 305.18C251.04 304.88 251.19 304.3 250.91 303.52C250.58 302.6 249.61 301.85 248.92 301.41C249.74 301.34 250.93 301.12 251.65 300.45C252.28 299.89 252.41 299.31 252.22 298.87Z" fill="white"/>
<path d="M162.67 117.32C162.49 116.88 161.99 116.56 161.16 116.59C160.18 116.63 159.18 117.32 158.55 117.85C158.73 117.05 158.87 115.84 158.45 114.95C158.1 114.21 157.58 113.91 157.1 113.96C156.62 113.99 156.17 114.38 155.95 115.18C155.71 116.08 156.02 117.17 156.32 117.92C155.63 117.49 154.61 117 153.68 117.09C152.86 117.16 152.4 117.55 152.28 118.01C152.15 118.47 152.36 119.03 153.03 119.51C153.83 120.08 155.05 120.14 155.87 120.1C155.24 120.63 154.39 121.49 154.18 122.45C154 123.25 154.23 123.81 154.64 124.06C155.04 124.32 155.64 124.29 156.29 123.8C157.07 123.2 157.5 122.06 157.71 121.27C158.02 122.03 158.6 123.1 159.45 123.59C160.16 124 160.76 123.95 161.12 123.63C161.49 123.33 161.64 122.75 161.36 121.97C161.03 121.05 160.06 120.3 159.37 119.86C160.19 119.79 161.38 119.57 162.1 118.9C162.73 118.34 162.86 117.75 162.67 117.32Z" fill="white"/>
<path d="M273.86 355.18C273.68 354.74 273.18 354.42 272.35 354.45C271.37 354.49 270.37 355.18 269.74 355.71C269.92 354.91 270.06 353.7 269.64 352.81C269.29 352.07 268.77 351.77 268.29 351.82C267.81 351.85 267.36 352.24 267.14 353.04C266.9 353.94 267.21 355.03 267.51 355.78C266.82 355.35 265.8 354.86 264.87 354.95C264.05 355.02 263.59 355.41 263.47 355.87C263.34 356.33 263.55 356.89 264.22 357.37C265.02 357.94 266.24 358 267.06 357.96C266.43 358.49 265.58 359.35 265.37 360.31C265.19 361.11 265.42 361.67 265.83 361.92C266.23 362.18 266.83 362.15 267.48 361.66C268.26 361.06 268.69 359.92 268.9 359.13C269.21 359.89 269.79 360.96 270.64 361.45C271.35 361.86 271.95 361.81 272.31 361.49C272.68 361.19 272.83 360.61 272.55 359.83C272.22 358.91 271.25 358.16 270.56 357.72C271.38 357.65 272.57 357.43 273.29 356.76C273.91 356.2 274.05 355.61 273.86 355.18Z" fill="white"/>
<path d="M140.79 355.18C140.61 354.74 140.11 354.42 139.28 354.45C138.3 354.49 137.3 355.18 136.67 355.71C136.85 354.91 136.99 353.7 136.57 352.81C136.22 352.07 135.7 351.77 135.22 351.82C134.74 351.85 134.29 352.24 134.07 353.04C133.83 353.94 134.14 355.03 134.44 355.78C133.75 355.35 132.73 354.86 131.8 354.95C130.98 355.02 130.52 355.41 130.4 355.87C130.27 356.33 130.48 356.89 131.15 357.37C131.95 357.94 133.17 358 133.99 357.96C133.36 358.49 132.51 359.35 132.3 360.31C132.12 361.11 132.35 361.67 132.76 361.92C133.16 362.18 133.76 362.15 134.41 361.66C135.19 361.06 135.62 359.92 135.83 359.13C136.14 359.89 136.72 360.96 137.57 361.45C138.28 361.86 138.88 361.81 139.24 361.49C139.61 361.19 139.76 360.61 139.48 359.83C139.15 358.91 138.18 358.16 137.49 357.72C138.31 357.65 139.5 357.43 140.22 356.76C140.85 356.2 140.98 355.61 140.79 355.18Z" fill="white"/>
<path d="M381.57 311.88C381.39 311.44 380.89 311.12 380.06 311.15C379.08 311.19 378.08 311.88 377.45 312.41C377.63 311.61 377.77 310.4 377.35 309.51C377 308.77 376.48 308.47 376 308.52C375.52 308.55 375.07 308.94 374.85 309.74C374.61 310.64 374.92 311.73 375.22 312.48C374.53 312.05 373.51 311.56 372.58 311.65C371.76 311.72 371.3 312.11 371.18 312.57C371.05 313.03 371.26 313.59 371.93 314.07C372.73 314.64 373.95 314.7 374.77 314.66C374.14 315.19 373.29 316.05 373.08 317.01C372.9 317.81 373.13 318.37 373.54 318.62C373.94 318.88 374.54 318.85 375.19 318.36C375.97 317.76 376.4 316.62 376.61 315.83C376.92 316.59 377.5 317.66 378.35 318.15C379.06 318.56 379.66 318.51 380.02 318.19C380.39 317.89 380.54 317.31 380.26 316.53C379.93 315.61 378.96 314.86 378.27 314.42C379.09 314.35 380.28 314.13 381 313.46C381.63 312.91 381.76 312.32 381.57 311.88Z" fill="white"/>
<path d="M324.71 243.28C324.53 242.84 324.03 242.52 323.2 242.55C322.22 242.59 321.22 243.28 320.59 243.81C320.77 243.01 320.91 241.8 320.49 240.91C320.14 240.17 319.62 239.87 319.14 239.92C318.66 239.95 318.21 240.34 317.99 241.14C317.75 242.04 318.06 243.13 318.36 243.88C317.67 243.45 316.65 242.96 315.72 243.05C314.9 243.12 314.44 243.51 314.32 243.97C314.19 244.43 314.4 244.99 315.07 245.47C315.87 246.04 317.09 246.1 317.91 246.06C317.28 246.59 316.43 247.45 316.22 248.41C316.04 249.21 316.27 249.77 316.68 250.02C317.08 250.28 317.68 250.25 318.33 249.76C319.11 249.16 319.54 248.02 319.75 247.23C320.06 247.99 320.64 249.06 321.49 249.55C322.2 249.96 322.8 249.91 323.16 249.59C323.53 249.29 323.68 248.71 323.4 247.93C323.07 247.01 322.1 246.26 321.41 245.82C322.23 245.75 323.42 245.53 324.14 244.86C324.77 244.3 324.9 243.72 324.71 243.28Z" fill="white"/>
</svg>
