<svg width="435" height="435" viewBox="0 0 435 435" fill="none" xmlns="http://www.w3.org/2000/svg">
<path d="M372.8 422.68C406.05 417.81 434.88 395.4 431.47 334.42C428.17 275.44 436.72 182.36 428.67 102.63C416.73 -15.48 277.78 11.8 210.81 14.29C88.66 18.82 10.31 -12.91 14.04 112.97C16.75 204.35 5.49995 254.69 3.36995 306.67C0.519947 376.13 -3.92004 431.01 134.88 423.19C225.13 418.1 315.97 431.01 372.8 422.68Z" fill="#8AD9F7"/>
<path d="M120.12 26.4199C86.39 26.8799 24.33 16.2399 24.06 153.72C23.82 278.04 -6.5 341.08 64.93 395.4C90.3 414.69 146.65 400.77 245.89 407.35C345.13 413.93 401.09 432.54 422.09 357.25C431.83 322.32 402.35 206.67 403.49 126.16C404.63 45.6499 378.14 23.3499 301.2 29.9799C224.27 36.6299 155.89 25.9399 120.12 26.4199Z" fill="#B8E1F2"/>
<path d="M397.62 297.11C403.05 416.73 331.83 396.84 103.82 383.93C81.8 382.68 57.2201 361.53 50.7601 340.44C32.4101 280.5 53.6801 211.55 57.5201 125.95C61.7901 30.79 121.31 52.05 296.61 48.01C416.79 45.25 388.49 96.04 397.62 297.11Z" fill="#877646"/>
<path d="M111.33 373.46C90.7298 372.29 67.7199 352.5 61.6799 332.77C61.1999 331.21 60.7498 329.64 60.3298 328.06C50.2498 290.39 55.9399 248.89 61.6499 201.46V201.44C62.2799 196.25 62.8999 190.98 63.5099 185.64C63.5199 185.61 63.5199 185.58 63.5199 185.55C65.4499 168.51 67.1699 150.7 68.0099 132.05C72.0099 42.9999 127.7 62.8999 291.75 59.1099C320.89 58.4399 340.7 61.1299 354.21 68.7699C376.45 81.3399 381.6 107.31 383.18 153.7V153.71C384.34 187.87 383.57 233.1 386.26 292.2C391.34 404.15 324.69 385.54 111.33 373.46Z" fill="#B88E59"/>
<path d="M111.33 373.46C90.7297 372.29 68.2098 347.43 61.6798 332.77C56.0098 320.03 56.3898 278.75 62.1798 253.04C72.6998 206.35 83.4998 110.45 83.4998 110.45C84.5998 87.9701 103.14 70.3101 125.65 70.3101C125.65 70.3101 258.93 59.9501 338.56 69.8901C350.7 71.4101 361.54 78.5101 367.38 89.2601C375.44 104.11 378.05 125.84 379.09 156.5C379.09 156.5 383.83 235.43 386.51 294.54C391.6 406.47 324.69 385.54 111.33 373.46Z" fill="#E9C77F"/>
<path d="M403.12 366.27C403.12 366.27 394.66 385.18 380.44 391.71C366.22 398.25 387.85 410.68 405.19 383.76C422.53 356.84 408.09 357.52 403.12 366.27Z" fill="#DCEEF2"/>
<path d="M371.86 44.74C371.86 44.74 364.66 35.01 352.43 37.23C340.2 39.45 343.29 47.49 352.28 48.17C358.74 48.66 364.34 50.53 366.98 51.55C368.48 52.13 370.17 52.16 371.64 51.5C373.55 50.64 375.1 48.77 371.86 44.74Z" fill="#DCEEF2"/>
<path d="M35.4802 347.64C34.2802 352.62 36.0903 357.77 42.1803 364.09C48.2703 370.41 65.3202 367.23 58.0102 359.99C52.8002 354.84 50.9602 351.74 50.2102 350.46C43.4102 338.89 37.5202 339.2 35.4802 347.64Z" fill="#DCEEF2"/>
<path d="M334.41 81.76C334.41 81.76 181.38 74.6199 145.97 76.8499C110.56 79.0799 95.2501 87.0299 94.6401 124.19C94.0301 161.35 67.8501 256.73 74.6401 296.99C81.2101 335.92 115.93 363.8 285.59 364.09C285.59 364.09 380.59 372.37 370.1 261.42C359.6 150.45 376.46 93.83 334.41 81.76Z" fill="#F4DA8F"/>
<path d="M348.05 177.5C348.05 177.5 364.56 101 312.5 100.37C260.44 99.74 154.93 85.41 124.48 124.69C94.0299 163.97 73.3199 254.88 97.3899 287.93C121.46 320.99 181.29 365.24 263.73 354.79C346.17 344.34 315.14 275.38 348.05 177.5Z" fill="#FFE99D"/>
<path d="M324.37 336.45C325.347 336.45 326.14 335.657 326.14 334.68C326.14 333.702 325.347 332.91 324.37 332.91C323.392 332.91 322.6 333.702 322.6 334.68C322.6 335.657 323.392 336.45 324.37 336.45Z" fill="#E9C77F"/>
<path d="M343.97 348.24C345.052 348.24 345.93 347.362 345.93 346.28C345.93 345.197 345.052 344.32 343.97 344.32C342.887 344.32 342.01 345.197 342.01 346.28C342.01 347.362 342.887 348.24 343.97 348.24Z" fill="#E9C77F"/>
<path d="M369.48 309.84C370.932 309.84 372.11 308.662 372.11 307.21C372.11 305.757 370.932 304.58 369.48 304.58C368.027 304.58 366.85 305.757 366.85 307.21C366.85 308.662 368.027 309.84 369.48 309.84Z" fill="#E9C77F"/>
<path d="M369.48 295.3C370.932 295.3 372.11 294.122 372.11 292.67C372.11 291.217 370.932 290.04 369.48 290.04C368.027 290.04 366.85 291.217 366.85 292.67C366.85 294.122 368.027 295.3 369.48 295.3Z" fill="#E9C77F"/>
<path d="M326.85 359.39C328.302 359.39 329.48 358.212 329.48 356.76C329.48 355.307 328.302 354.13 326.85 354.13C325.397 354.13 324.22 355.307 324.22 356.76C324.22 358.212 325.397 359.39 326.85 359.39Z" fill="#E9C77F"/>
<path d="M313.75 364.27C315.202 364.27 316.38 363.092 316.38 361.64C316.38 360.187 315.202 359.01 313.75 359.01C312.297 359.01 311.12 360.187 311.12 361.64C311.12 363.092 312.297 364.27 313.75 364.27Z" fill="#E9C77F"/>
<path d="M310.22 365.15C311.672 365.15 312.85 363.972 312.85 362.52C312.85 361.067 311.672 359.89 310.22 359.89C308.767 359.89 307.59 361.067 307.59 362.52C307.59 363.972 308.767 365.15 310.22 365.15Z" fill="#E9C77F"/>
<path d="M294.98 367.89C296.432 367.89 297.61 366.712 297.61 365.26C297.61 363.807 296.432 362.63 294.98 362.63C293.527 362.63 292.35 363.807 292.35 365.26C292.35 366.712 293.527 367.89 294.98 367.89Z" fill="#E9C77F"/>
<path d="M360.35 333.05C361.802 333.05 362.98 331.872 362.98 330.42C362.98 328.967 361.802 327.79 360.35 327.79C358.897 327.79 357.72 328.967 357.72 330.42C357.72 331.872 358.897 333.05 360.35 333.05Z" fill="#E9C77F"/>
<path d="M341.64 329.32C343.092 329.32 344.27 328.142 344.27 326.69C344.27 325.237 343.092 324.06 341.64 324.06C340.187 324.06 339.01 325.237 339.01 326.69C339.01 328.142 340.187 329.32 341.64 329.32Z" fill="#E9C77F"/>
<path d="M370.9 275.55C372.352 275.55 373.53 274.372 373.53 272.92C373.53 271.467 372.352 270.29 370.9 270.29C369.447 270.29 368.27 271.467 368.27 272.92C368.27 274.372 369.447 275.55 370.9 275.55Z" fill="#E9C77F"/>
<path d="M362.97 324.96C364.422 324.96 365.6 323.782 365.6 322.33C365.6 320.877 364.422 319.7 362.97 319.7C361.517 319.7 360.34 320.877 360.34 322.33C360.34 323.782 361.517 324.96 362.97 324.96Z" fill="#E9C77F"/>
<path d="M368.01 299.3C369.462 299.3 370.64 298.122 370.64 296.67C370.64 295.217 369.462 294.04 368.01 294.04C366.557 294.04 365.38 295.217 365.38 296.67C365.38 298.122 366.557 299.3 368.01 299.3Z" fill="#E9C77F"/>
<path d="M365.44 321.24C367.588 321.24 369.33 319.498 369.33 317.35C369.33 315.202 367.588 313.46 365.44 313.46C363.291 313.46 361.55 315.202 361.55 317.35C361.55 319.498 363.291 321.24 365.44 321.24Z" fill="#E9C77F"/>
<path d="M355.68 308.88C356.602 308.88 357.35 308.132 357.35 307.21C357.35 306.288 356.602 305.54 355.68 305.54C354.757 305.54 354.01 306.288 354.01 307.21C354.01 308.132 354.757 308.88 355.68 308.88Z" fill="#E9C77F"/>
<path d="M362.97 271.95C363.892 271.95 364.64 271.202 364.64 270.28C364.64 269.358 363.892 268.61 362.97 268.61C362.047 268.61 361.3 269.358 361.3 270.28C361.3 271.202 362.047 271.95 362.97 271.95Z" fill="#E9C77F"/>
<path d="M370.9 278.37C371.822 278.37 372.569 277.622 372.569 276.7C372.569 275.778 371.822 275.03 370.9 275.03C369.977 275.03 369.229 275.778 369.229 276.7C369.229 277.622 369.977 278.37 370.9 278.37Z" fill="#E9C77F"/>
<path d="M363.45 294.33C364.372 294.33 365.12 293.582 365.12 292.66C365.12 291.738 364.372 290.99 363.45 290.99C362.527 290.99 361.78 291.738 361.78 292.66C361.78 293.582 362.527 294.33 363.45 294.33Z" fill="#E9C77F"/>
<path d="M342.74 339.79C343.662 339.79 344.41 339.042 344.41 338.12C344.41 337.198 343.662 336.45 342.74 336.45C341.818 336.45 341.07 337.198 341.07 338.12C341.07 339.042 341.818 339.79 342.74 339.79Z" fill="#E9C77F"/>
<path d="M350.42 333.99C351.342 333.99 352.09 333.242 352.09 332.32C352.09 331.398 351.342 330.65 350.42 330.65C349.498 330.65 348.75 331.398 348.75 332.32C348.75 333.242 349.498 333.99 350.42 333.99Z" fill="#E9C77F"/>
<path d="M370.64 270.28C371.562 270.28 372.31 269.532 372.31 268.61C372.31 267.688 371.562 266.94 370.64 266.94C369.717 266.94 368.97 267.688 368.97 268.61C368.97 269.532 369.717 270.28 370.64 270.28Z" fill="#E9C77F"/>
<path d="M340.37 314.3C341.292 314.3 342.04 313.552 342.04 312.63C342.04 311.708 341.292 310.96 340.37 310.96C339.447 310.96 338.7 311.708 338.7 312.63C338.7 313.552 339.447 314.3 340.37 314.3Z" fill="#E9C77F"/>
<path d="M322.01 342.38C322.507 342.38 322.91 341.977 322.91 341.48C322.91 340.983 322.507 340.58 322.01 340.58C321.513 340.58 321.11 340.983 321.11 341.48C321.11 341.977 321.513 342.38 322.01 342.38Z" fill="#E9C77F"/>
<path d="M317.77 361.39C318.267 361.39 318.67 360.987 318.67 360.49C318.67 359.993 318.267 359.59 317.77 359.59C317.273 359.59 316.87 359.993 316.87 360.49C316.87 360.987 317.273 361.39 317.77 361.39Z" fill="#E9C77F"/>
<path d="M310.7 359.36C311.197 359.36 311.6 358.957 311.6 358.46C311.6 357.963 311.197 357.56 310.7 357.56C310.203 357.56 309.8 357.963 309.8 358.46C309.8 358.957 310.203 359.36 310.7 359.36Z" fill="#E9C77F"/>
<path d="M319.73 355.15C320.227 355.15 320.63 354.747 320.63 354.25C320.63 353.753 320.227 353.35 319.73 353.35C319.233 353.35 318.83 353.753 318.83 354.25C318.83 354.747 319.233 355.15 319.73 355.15Z" fill="#E9C77F"/>
<path d="M322.5 360.75C322.997 360.75 323.4 360.347 323.4 359.85C323.4 359.353 322.997 358.95 322.5 358.95C322.003 358.95 321.6 359.353 321.6 359.85C321.6 360.347 322.003 360.75 322.5 360.75Z" fill="#E9C77F"/>
<path d="M318.43 347.97C318.927 347.97 319.33 347.567 319.33 347.07C319.33 346.573 318.927 346.17 318.43 346.17C317.933 346.17 317.53 346.573 317.53 347.07C317.53 347.567 317.933 347.97 318.43 347.97Z" fill="#E9C77F"/>
<path d="M347.35 296.4C347.847 296.4 348.25 295.997 348.25 295.5C348.25 295.003 347.847 294.6 347.35 294.6C346.853 294.6 346.45 295.003 346.45 295.5C346.45 295.997 346.853 296.4 347.35 296.4Z" fill="#E9C77F"/>
<path d="M363.24 241.53C363.737 241.53 364.14 241.127 364.14 240.63C364.14 240.133 363.737 239.73 363.24 239.73C362.743 239.73 362.34 240.133 362.34 240.63C362.34 241.127 362.743 241.53 363.24 241.53Z" fill="#E9C77F"/>
<path d="M336.54 350.31C337.037 350.31 337.44 349.907 337.44 349.41C337.44 348.913 337.037 348.51 336.54 348.51C336.043 348.51 335.64 348.913 335.64 349.41C335.64 349.907 336.043 350.31 336.54 350.31Z" fill="#E9C77F"/>
<path d="M333.99 340.03C334.487 340.03 334.89 339.627 334.89 339.13C334.89 338.633 334.487 338.23 333.99 338.23C333.493 338.23 333.09 338.633 333.09 339.13C333.09 339.627 333.493 340.03 333.99 340.03Z" fill="#E9C77F"/>
<path d="M365.22 261.14C365.717 261.14 366.12 260.737 366.12 260.24C366.12 259.743 365.717 259.34 365.22 259.34C364.723 259.34 364.32 259.743 364.32 260.24C364.32 260.737 364.723 261.14 365.22 261.14Z" fill="#E9C77F"/>
<path d="M332.53 287.16C333.027 287.16 333.43 286.757 333.43 286.26C333.43 285.763 333.027 285.36 332.53 285.36C332.033 285.36 331.63 285.763 331.63 286.26C331.63 286.757 332.033 287.16 332.53 287.16Z" fill="#E9C77F"/>
<path d="M356.53 258.14C357.027 258.14 357.43 257.737 357.43 257.24C357.43 256.743 357.027 256.34 356.53 256.34C356.033 256.34 355.63 256.743 355.63 257.24C355.63 257.737 356.033 258.14 356.53 258.14Z" fill="#E9C77F"/>
<path d="M367.08 258.28C367.577 258.28 367.98 257.877 367.98 257.38C367.98 256.883 367.577 256.48 367.08 256.48C366.583 256.48 366.18 256.883 366.18 257.38C366.18 257.877 366.583 258.28 367.08 258.28Z" fill="#E9C77F"/>
<path d="M364.15 281.6C364.647 281.6 365.05 281.197 365.05 280.7C365.05 280.203 364.647 279.8 364.15 279.8C363.653 279.8 363.25 280.203 363.25 280.7C363.25 281.197 363.653 281.6 364.15 281.6Z" fill="#E9C77F"/>
<path d="M346.45 346.16C347.173 346.16 347.76 345.573 347.76 344.85C347.76 344.126 347.173 343.54 346.45 343.54C345.726 343.54 345.14 344.126 345.14 344.85C345.14 345.573 345.726 346.16 346.45 346.16Z" fill="#E9C77F"/>
<path d="M357.35 221.99C358.272 221.99 359.02 221.242 359.02 220.32C359.02 219.398 358.272 218.65 357.35 218.65C356.427 218.65 355.68 219.398 355.68 220.32C355.68 221.242 356.427 221.99 357.35 221.99Z" fill="#E9C77F"/>
<path d="M300.75 349.87C301.672 349.87 302.42 349.122 302.42 348.2C302.42 347.278 301.672 346.53 300.75 346.53C299.827 346.53 299.08 347.278 299.08 348.2C299.08 349.122 299.827 349.87 300.75 349.87Z" fill="#E9C77F"/>
<path d="M284.439 361.09C285.362 361.09 286.109 360.342 286.109 359.42C286.109 358.498 285.362 357.75 284.439 357.75C283.517 357.75 282.77 358.498 282.77 359.42C282.77 360.342 283.517 361.09 284.439 361.09Z" fill="#E9C77F"/>
<path d="M298.13 362.53C299.052 362.53 299.8 361.782 299.8 360.86C299.8 359.938 299.052 359.19 298.13 359.19C297.208 359.19 296.46 359.938 296.46 360.86C296.46 361.782 297.208 362.53 298.13 362.53Z" fill="#E9C77F"/>
<path d="M318.65 360.1C319.572 360.1 320.319 359.352 320.319 358.43C320.319 357.508 319.572 356.76 318.65 356.76C317.727 356.76 316.979 357.508 316.979 358.43C316.979 359.352 317.727 360.1 318.65 360.1Z" fill="#E9C77F"/>
<path d="M292.28 366.74C293.202 366.74 293.95 365.992 293.95 365.07C293.95 364.148 293.202 363.4 292.28 363.4C291.358 363.4 290.61 364.148 290.61 365.07C290.61 365.992 291.358 366.74 292.28 366.74Z" fill="#E9C77F"/>
<path d="M291.35 368.46C293.139 368.46 294.59 367.009 294.59 365.22C294.59 363.431 293.139 361.98 291.35 361.98C289.56 361.98 288.11 363.431 288.11 365.22C288.11 367.009 289.56 368.46 291.35 368.46Z" fill="#E9C77F"/>
<path d="M139.14 104.52C140.117 104.52 140.91 103.728 140.91 102.75C140.91 101.772 140.117 100.98 139.14 100.98C138.162 100.98 137.37 101.772 137.37 102.75C137.37 103.728 138.162 104.52 139.14 104.52Z" fill="#E9C77F"/>
<path d="M116.78 87.1699C117.757 87.1699 118.55 86.3774 118.55 85.3999C118.55 84.4224 117.757 83.6299 116.78 83.6299C115.802 83.6299 115.01 84.4224 115.01 85.3999C115.01 86.3774 115.802 87.1699 116.78 87.1699Z" fill="#E9C77F"/>
<path d="M116.45 89.83C117.532 89.83 118.41 88.9524 118.41 87.8699C118.41 86.7875 117.532 85.9099 116.45 85.9099C115.367 85.9099 114.49 86.7875 114.49 87.8699C114.49 88.9524 115.367 89.83 116.45 89.83Z" fill="#E9C77F"/>
<path d="M106.83 89.0599C107.912 89.0599 108.79 88.1823 108.79 87.0999C108.79 86.0174 107.912 85.1399 106.83 85.1399C105.747 85.1399 104.87 86.0174 104.87 87.0999C104.87 88.1823 105.747 89.0599 106.83 89.0599Z" fill="#E9C77F"/>
<path d="M96.1398 116.77C97.5923 116.77 98.7698 115.593 98.7698 114.14C98.7698 112.688 97.5923 111.51 96.1398 111.51C94.6873 111.51 93.5098 112.688 93.5098 114.14C93.5098 115.593 94.6873 116.77 96.1398 116.77Z" fill="#E9C77F"/>
<path d="M96.1398 105.87C97.5923 105.87 98.7698 104.692 98.7698 103.24C98.7698 101.787 97.5923 100.61 96.1398 100.61C94.6873 100.61 93.5098 101.787 93.5098 103.24C93.5098 104.692 94.6873 105.87 96.1398 105.87Z" fill="#E9C77F"/>
<path d="M101.43 110.36C102.882 110.36 104.06 109.182 104.06 107.73C104.06 106.277 102.882 105.1 101.43 105.1C99.9773 105.1 98.7998 106.277 98.7998 107.73C98.7998 109.182 99.9773 110.36 101.43 110.36Z" fill="#E9C77F"/>
<path d="M97.13 102.37C98.5825 102.37 99.76 101.192 99.76 99.7399C99.76 98.2874 98.5825 97.1099 97.13 97.1099C95.6775 97.1099 94.5 98.2874 94.5 99.7399C94.5 101.192 95.6775 102.37 97.13 102.37Z" fill="#E9C77F"/>
<path d="M101.47 133.2C102.028 133.2 102.48 132.748 102.48 132.19C102.48 131.632 102.028 131.18 101.47 131.18C100.912 131.18 100.46 131.632 100.46 132.19C100.46 132.748 100.912 133.2 101.47 133.2Z" fill="#E9C77F"/>
<path d="M108.54 103.59C109.462 103.59 110.21 102.842 110.21 101.92C110.21 100.998 109.462 100.25 108.54 100.25C107.617 100.25 106.87 100.998 106.87 101.92C106.87 102.842 107.617 103.59 108.54 103.59Z" fill="#E9C77F"/>
<path d="M113.4 107.37C114.322 107.37 115.069 106.622 115.069 105.7C115.069 104.778 114.322 104.03 113.4 104.03C112.477 104.03 111.729 104.778 111.729 105.7C111.729 106.622 112.477 107.37 113.4 107.37Z" fill="#E9C77F"/>
<path d="M99.7599 98.36C100.682 98.36 101.43 97.6123 101.43 96.69C101.43 95.7677 100.682 95.02 99.7599 95.02C98.8376 95.02 98.0898 95.7677 98.0898 96.69C98.0898 97.6123 98.8376 98.36 99.7599 98.36Z" fill="#E9C77F"/>
<path d="M97.13 127.53C98.0523 127.53 98.8 126.782 98.8 125.86C98.8 124.938 98.0523 124.19 97.13 124.19C96.2077 124.19 95.46 124.938 95.46 125.86C95.46 126.782 96.2077 127.53 97.13 127.53Z" fill="#E9C77F"/>
<path d="M117.31 126.78C118.232 126.78 118.98 126.032 118.98 125.11C118.98 124.188 118.232 123.44 117.31 123.44C116.387 123.44 115.64 124.188 115.64 125.11C115.64 126.032 116.387 126.78 117.31 126.78Z" fill="#E9C77F"/>
<path d="M113.26 116.03C114.182 116.03 114.93 115.282 114.93 114.36C114.93 113.438 114.182 112.69 113.26 112.69C112.338 112.69 111.59 113.438 111.59 114.36C111.59 115.282 112.338 116.03 113.26 116.03Z" fill="#E9C77F"/>
<path d="M176.94 89.89C177.437 89.89 177.84 89.487 177.84 88.9899C177.84 88.4929 177.437 88.09 176.94 88.09C176.443 88.09 176.04 88.4929 176.04 88.9899C176.04 89.487 176.443 89.89 176.94 89.89Z" fill="#E9C77F"/>
<path d="M157.54 89.6699C158.037 89.6699 158.44 89.267 158.44 88.7699C158.44 88.2728 158.037 87.8699 157.54 87.8699C157.043 87.8699 156.64 88.2728 156.64 88.7699C156.64 89.267 157.043 89.6699 157.54 89.6699Z" fill="#E9C77F"/>
<path d="M140.06 85.14C140.557 85.14 140.96 84.737 140.96 84.2399C140.96 83.7429 140.557 83.34 140.06 83.34C139.563 83.34 139.16 83.7429 139.16 84.2399C139.16 84.737 139.563 85.14 140.06 85.14Z" fill="#E9C77F"/>
<path d="M127.42 93.6499C127.917 93.6499 128.319 93.2469 128.319 92.7499C128.319 92.2528 127.917 91.8499 127.42 91.8499C126.922 91.8499 126.52 92.2528 126.52 92.7499C126.52 93.2469 126.922 93.6499 127.42 93.6499Z" fill="#E9C77F"/>
<path d="M150.14 100.85C150.637 100.85 151.04 100.447 151.04 99.95C151.04 99.4529 150.637 99.0499 150.14 99.0499C149.643 99.0499 149.24 99.4529 149.24 99.95C149.24 100.447 149.643 100.85 150.14 100.85Z" fill="#E9C77F"/>
<path d="M122.04 85.14C122.537 85.14 122.94 84.737 122.94 84.2399C122.94 83.7429 122.537 83.34 122.04 83.34C121.543 83.34 121.14 83.7429 121.14 84.2399C121.14 84.737 121.543 85.14 122.04 85.14Z" fill="#E9C77F"/>
<path d="M113.4 95.4499C113.897 95.4499 114.3 95.0469 114.3 94.5499C114.3 94.0528 113.897 93.6499 113.4 93.6499C112.903 93.6499 112.5 94.0528 112.5 94.5499C112.5 95.0469 112.903 95.4499 113.4 95.4499Z" fill="#E9C77F"/>
<path d="M113.87 125.24C114.367 125.24 114.77 124.837 114.77 124.34C114.77 123.843 114.367 123.44 113.87 123.44C113.373 123.44 112.97 123.843 112.97 124.34C112.97 124.837 113.373 125.24 113.87 125.24Z" fill="#E9C77F"/>
<path d="M144.38 91.7499C144.877 91.7499 145.28 91.347 145.28 90.8499C145.28 90.3529 144.877 89.95 144.38 89.95C143.882 89.95 143.479 90.3529 143.479 90.8499C143.479 91.347 143.882 91.7499 144.38 91.7499Z" fill="#E9C77F"/>
<path d="M110.209 88.09C111.695 88.09 112.9 86.8856 112.9 85.4C112.9 83.9143 111.695 82.71 110.209 82.71C108.724 82.71 107.52 83.9143 107.52 85.4C107.52 86.8856 108.724 88.09 110.209 88.09Z" fill="#E9C77F"/>
<path d="M121.85 104.1C122.347 104.1 122.75 103.697 122.75 103.2C122.75 102.703 122.347 102.3 121.85 102.3C121.353 102.3 120.95 102.703 120.95 103.2C120.95 103.697 121.353 104.1 121.85 104.1Z" fill="#E9C77F"/>
<path d="M97.8698 145.28C98.3668 145.28 98.7698 144.877 98.7698 144.38C98.7698 143.883 98.3668 143.48 97.8698 143.48C97.3727 143.48 96.9697 143.883 96.9697 144.38C96.9697 144.877 97.3727 145.28 97.8698 145.28Z" fill="#E9C77F"/>
<path d="M109.94 109.96C110.663 109.96 111.25 109.373 111.25 108.65C111.25 107.926 110.663 107.34 109.94 107.34C109.216 107.34 108.63 107.926 108.63 108.65C108.63 109.373 109.216 109.96 109.94 109.96Z" fill="#E9C77F"/>
<path d="M110.15 136.22C111.072 136.22 111.819 135.472 111.819 134.55C111.819 133.628 111.072 132.88 110.15 132.88C109.227 132.88 108.479 133.628 108.479 134.55C108.479 135.472 109.227 136.22 110.15 136.22Z" fill="#E9C77F"/>
<path d="M157.28 81.7599C158.202 81.7599 158.95 81.0123 158.95 80.09C158.95 79.1677 158.202 78.4199 157.28 78.4199C156.358 78.4199 155.61 79.1677 155.61 80.09C155.61 81.0123 156.358 81.7599 157.28 81.7599Z" fill="#E9C77F"/>
<path d="M132.58 83.4299C133.502 83.4299 134.25 82.6823 134.25 81.7599C134.25 80.8376 133.502 80.09 132.58 80.09C131.657 80.09 130.91 80.8376 130.91 81.7599C130.91 82.6823 131.657 83.4299 132.58 83.4299Z" fill="#E9C77F"/>
<path d="M263.89 334.65C264.868 334.65 265.66 333.857 265.66 332.88C265.66 331.902 264.868 331.11 263.89 331.11C262.913 331.11 262.12 331.902 262.12 332.88C262.12 333.857 262.913 334.65 263.89 334.65Z" fill="#F4DA8F"/>
<path d="M274.7 352.81C275.783 352.81 276.66 351.932 276.66 350.85C276.66 349.767 275.783 348.89 274.7 348.89C273.618 348.89 272.74 349.767 272.74 350.85C272.74 351.932 273.618 352.81 274.7 352.81Z" fill="#F4DA8F"/>
<path d="M310.67 332.95C312.123 332.95 313.3 331.772 313.3 330.32C313.3 328.867 312.123 327.69 310.67 327.69C309.218 327.69 308.04 328.867 308.04 330.32C308.04 331.772 309.218 332.95 310.67 332.95Z" fill="#F4DA8F"/>
<path d="M322.91 317.74C324.363 317.74 325.54 316.562 325.54 315.11C325.54 313.657 324.363 312.48 322.91 312.48C321.458 312.48 320.28 313.657 320.28 315.11C320.28 316.562 321.458 317.74 322.91 317.74Z" fill="#F4DA8F"/>
<path d="M252.07 351.84C253.522 351.84 254.7 350.662 254.7 349.21C254.7 347.757 253.522 346.58 252.07 346.58C250.617 346.58 249.44 347.757 249.44 349.21C249.44 350.662 250.617 351.84 252.07 351.84Z" fill="#F4DA8F"/>
<path d="M240.81 357.02C242.263 357.02 243.44 355.842 243.44 354.39C243.44 352.937 242.263 351.76 240.81 351.76C239.358 351.76 238.18 352.937 238.18 354.39C238.18 355.842 239.358 357.02 240.81 357.02Z" fill="#F4DA8F"/>
<path d="M237.18 357.42C238.632 357.42 239.81 356.242 239.81 354.79C239.81 353.337 238.632 352.16 237.18 352.16C235.727 352.16 234.55 353.337 234.55 354.79C234.55 356.242 235.727 357.42 237.18 357.42Z" fill="#F4DA8F"/>
<path d="M223.35 353.78C224.802 353.78 225.98 352.602 225.98 351.15C225.98 349.697 224.802 348.52 223.35 348.52C221.897 348.52 220.72 349.697 220.72 351.15C220.72 352.602 221.897 353.78 223.35 353.78Z" fill="#F4DA8F"/>
<path d="M298.04 347.58C299.493 347.58 300.67 346.402 300.67 344.95C300.67 343.497 299.493 342.32 298.04 342.32C296.588 342.32 295.41 343.497 295.41 344.95C295.41 346.402 296.588 347.58 298.04 347.58Z" fill="#F4DA8F"/>
<path d="M282.9 335.97C284.353 335.97 285.53 334.792 285.53 333.34C285.53 331.887 284.353 330.71 282.9 330.71C281.448 330.71 280.27 331.887 280.27 333.34C280.27 334.792 281.448 335.97 282.9 335.97Z" fill="#F4DA8F"/>
<path d="M286.17 354.54C287.623 354.54 288.8 353.362 288.8 351.91C288.8 350.457 287.623 349.28 286.17 349.28C284.718 349.28 283.54 350.457 283.54 351.91C283.54 353.362 284.718 354.54 286.17 354.54Z" fill="#F4DA8F"/>
<path d="M303.97 341.48C305.422 341.48 306.6 340.302 306.6 338.85C306.6 337.397 305.422 336.22 303.97 336.22C302.517 336.22 301.34 337.397 301.34 338.85C301.34 340.302 302.517 341.48 303.97 341.48Z" fill="#F4DA8F"/>
<path d="M319.82 320.68C321.272 320.68 322.45 319.502 322.45 318.05C322.45 316.597 321.272 315.42 319.82 315.42C318.367 315.42 317.19 316.597 317.19 318.05C317.19 319.502 318.367 320.68 319.82 320.68Z" fill="#F4DA8F"/>
<path d="M306.57 338.59C308.718 338.59 310.46 336.848 310.46 334.7C310.46 332.552 308.718 330.81 306.57 330.81C304.422 330.81 302.68 332.552 302.68 334.7C302.68 336.848 304.422 338.59 306.57 338.59Z" fill="#F4DA8F"/>
<path d="M304.1 323.73C305.022 323.73 305.77 322.982 305.77 322.06C305.77 321.138 305.022 320.39 304.1 320.39C303.178 320.39 302.43 321.138 302.43 322.06C302.43 322.982 303.178 323.73 304.1 323.73Z" fill="#F4DA8F"/>
<path d="M281.13 355.35C282.052 355.35 282.8 354.602 282.8 353.68C282.8 352.758 282.052 352.01 281.13 352.01C280.208 352.01 279.46 352.758 279.46 353.68C279.46 354.602 280.208 355.35 281.13 355.35Z" fill="#F4DA8F"/>
<path d="M317.5 314.11C318.422 314.11 319.17 313.362 319.17 312.44C319.17 311.518 318.422 310.77 317.5 310.77C316.578 310.77 315.83 311.518 315.83 312.44C315.83 313.362 316.578 314.11 317.5 314.11Z" fill="#F4DA8F"/>
<path d="M278.84 345.75C279.762 345.75 280.51 345.002 280.51 344.08C280.51 343.158 279.762 342.41 278.84 342.41C277.918 342.41 277.17 343.158 277.17 344.08C277.17 345.002 277.918 345.75 278.84 345.75Z" fill="#F4DA8F"/>
<path d="M288.3 343.94C289.222 343.94 289.97 343.192 289.97 342.27C289.97 341.348 289.222 340.6 288.3 340.6C287.378 340.6 286.63 341.348 286.63 342.27C286.63 343.192 287.378 343.94 288.3 343.94Z" fill="#F4DA8F"/>
<path d="M287.97 321.83C288.892 321.83 289.64 321.082 289.64 320.16C289.64 319.238 288.892 318.49 287.97 318.49C287.047 318.49 286.3 319.238 286.3 320.16C286.3 321.082 287.047 321.83 287.97 321.83Z" fill="#F4DA8F"/>
<path d="M258.53 354.06C259.027 354.06 259.43 353.657 259.43 353.16C259.43 352.663 259.027 352.26 258.53 352.26C258.033 352.26 257.63 352.663 257.63 353.16C257.63 353.657 258.033 354.06 258.53 354.06Z" fill="#F4DA8F"/>
<path d="M244.94 354.69C245.437 354.69 245.84 354.287 245.84 353.79C245.84 353.293 245.437 352.89 244.94 352.89C244.443 352.89 244.04 353.293 244.04 353.79C244.04 354.287 244.443 354.69 244.94 354.69Z" fill="#F4DA8F"/>
<path d="M238.21 351.73C238.707 351.73 239.11 351.327 239.11 350.83C239.11 350.333 238.707 349.93 238.21 349.93C237.713 349.93 237.31 350.333 237.31 350.83C237.31 351.327 237.713 351.73 238.21 351.73Z" fill="#F4DA8F"/>
<path d="M247.71 348.77C248.207 348.77 248.61 348.367 248.61 347.87C248.61 347.373 248.207 346.97 247.71 346.97C247.213 346.97 246.81 347.373 246.81 347.87C246.81 348.367 247.213 348.77 247.71 348.77Z" fill="#F4DA8F"/>
<path d="M249.71 354.69C250.207 354.69 250.61 354.287 250.61 353.79C250.61 353.293 250.207 352.89 249.71 352.89C249.213 352.89 248.81 353.293 248.81 353.79C248.81 354.287 249.213 354.69 249.71 354.69Z" fill="#F4DA8F"/>
<path d="M253.08 342.27C253.577 342.27 253.98 341.867 253.98 341.37C253.98 340.873 253.577 340.47 253.08 340.47C252.583 340.47 252.18 340.873 252.18 341.37C252.18 341.867 252.583 342.27 253.08 342.27Z" fill="#F4DA8F"/>
<path d="M246.62 322.04C247.117 322.04 247.52 321.637 247.52 321.14C247.52 320.643 247.117 320.24 246.62 320.24C246.123 320.24 245.72 320.643 245.72 321.14C245.72 321.637 246.123 322.04 246.62 322.04Z" fill="#F4DA8F"/>
<path d="M241.24 288.24C241.737 288.24 242.14 287.837 242.14 287.34C242.14 286.843 241.737 286.44 241.24 286.44C240.743 286.44 240.34 286.843 240.34 287.34C240.34 287.837 240.743 288.24 241.24 288.24Z" fill="#F4DA8F"/>
<path d="M268.3 352.37C268.797 352.37 269.2 351.967 269.2 351.47C269.2 350.973 268.797 350.57 268.3 350.57C267.803 350.57 267.4 350.973 267.4 351.47C267.4 351.967 267.803 352.37 268.3 352.37Z" fill="#F4DA8F"/>
<path d="M270.55 342.01C271.047 342.01 271.45 341.607 271.45 341.11C271.45 340.613 271.047 340.21 270.55 340.21C270.053 340.21 269.65 340.613 269.65 341.11C269.65 341.607 270.053 342.01 270.55 342.01Z" fill="#F4DA8F"/>
<path d="M333.42 285.04C333.917 285.04 334.32 284.637 334.32 284.14C334.32 283.643 333.917 283.24 333.42 283.24C332.923 283.24 332.52 283.643 332.52 284.14C332.52 284.637 332.923 285.04 333.42 285.04Z" fill="#F4DA8F"/>
<path d="M292.59 293.94C293.087 293.94 293.49 293.537 293.49 293.04C293.49 292.543 293.087 292.14 292.59 292.14C292.093 292.14 291.69 292.543 291.69 293.04C291.69 293.537 292.093 293.94 292.59 293.94Z" fill="#F4DA8F"/>
<path d="M326.94 278.5C327.437 278.5 327.84 278.097 327.84 277.6C327.84 277.103 327.437 276.7 326.94 276.7C326.443 276.7 326.04 277.103 326.04 277.6C326.04 278.097 326.443 278.5 326.94 278.5Z" fill="#F4DA8F"/>
<path d="M336.35 283.29C336.847 283.29 337.25 282.887 337.25 282.39C337.25 281.893 336.847 281.49 336.35 281.49C335.853 281.49 335.45 281.893 335.45 282.39C335.45 282.887 335.853 283.29 336.35 283.29Z" fill="#F4DA8F"/>
<path d="M323.41 302.92C323.907 302.92 324.31 302.517 324.31 302.02C324.31 301.523 323.907 301.12 323.41 301.12C322.913 301.12 322.51 301.523 322.51 302.02C322.51 302.517 322.913 302.92 323.41 302.92Z" fill="#F4DA8F"/>
<path d="M283.37 355.11C284.093 355.11 284.68 354.523 284.68 353.8C284.68 353.076 284.093 352.49 283.37 352.49C282.647 352.49 282.06 353.076 282.06 353.8C282.06 354.523 282.647 355.11 283.37 355.11Z" fill="#F4DA8F"/>
<path d="M276.87 295.41C277.793 295.41 278.54 294.662 278.54 293.74C278.54 292.818 277.793 292.07 276.87 292.07C275.948 292.07 275.2 292.818 275.2 293.74C275.2 294.662 275.948 295.41 276.87 295.41Z" fill="#F4DA8F"/>
<path d="M236.73 336.25C237.652 336.25 238.4 335.502 238.4 334.58C238.4 333.658 237.652 332.91 236.73 332.91C235.808 332.91 235.06 333.658 235.06 334.58C235.06 335.502 235.808 336.25 236.73 336.25Z" fill="#F4DA8F"/>
<path d="M216.48 342.93C217.402 342.93 218.15 342.182 218.15 341.26C218.15 340.338 217.402 339.59 216.48 339.59C215.558 339.59 214.81 340.338 214.81 341.26C214.81 342.182 215.558 342.93 216.48 342.93Z" fill="#F4DA8F"/>
<path d="M228.12 350.27C229.043 350.27 229.79 349.522 229.79 348.6C229.79 347.678 229.043 346.93 228.12 346.93C227.198 346.93 226.45 347.678 226.45 348.6C226.45 349.522 227.198 350.27 228.12 350.27Z" fill="#F4DA8F"/>
<path d="M246.09 353.54C247.012 353.54 247.76 352.792 247.76 351.87C247.76 350.948 247.012 350.2 246.09 350.2C245.168 350.2 244.42 350.948 244.42 351.87C244.42 352.792 245.168 353.54 246.09 353.54Z" fill="#F4DA8F"/>
<path d="M221.01 351.47C221.932 351.47 222.68 350.722 222.68 349.8C222.68 348.878 221.932 348.13 221.01 348.13C220.088 348.13 219.34 348.878 219.34 349.8C219.34 350.722 220.088 351.47 221.01 351.47Z" fill="#F4DA8F"/>
<path d="M220.11 352.76C221.9 352.76 223.35 351.309 223.35 349.52C223.35 347.731 221.9 346.28 220.11 346.28C218.321 346.28 216.87 347.731 216.87 349.52C216.87 351.309 218.321 352.76 220.11 352.76Z" fill="#F4DA8F"/>
<path d="M180 130.59C180.978 130.59 181.77 129.798 181.77 128.82C181.77 127.843 180.978 127.05 180 127.05C179.022 127.05 178.23 127.843 178.23 128.82C178.23 129.798 179.022 130.59 180 130.59Z" fill="#F4DA8F"/>
<path d="M288.27 104.62C289.248 104.62 290.04 103.828 290.04 102.85C290.04 101.872 289.248 101.08 288.27 101.08C287.292 101.08 286.5 101.872 286.5 102.85C286.5 103.828 287.292 104.62 288.27 104.62Z" fill="#F4DA8F"/>
<path d="M158.64 114.52C159.723 114.52 160.6 113.642 160.6 112.56C160.6 111.478 159.723 110.6 158.64 110.6C157.558 110.6 156.68 111.478 156.68 112.56C156.68 113.642 157.558 114.52 158.64 114.52Z" fill="#F4DA8F"/>
<path d="M254.75 110.81C255.832 110.81 256.71 109.932 256.71 108.85C256.71 107.767 255.832 106.89 254.75 106.89C253.668 106.89 252.79 107.767 252.79 108.85C252.79 109.932 253.668 110.81 254.75 110.81Z" fill="#F4DA8F"/>
<path d="M117.48 132.38C119.998 132.38 122.04 130.338 122.04 127.82C122.04 125.302 119.998 123.26 117.48 123.26C114.961 123.26 112.92 125.302 112.92 127.82C112.92 130.338 114.961 132.38 117.48 132.38Z" fill="#F4DA8F"/>
<path d="M95.5 196.93C98.0184 196.93 100.06 194.888 100.06 192.37C100.06 189.852 98.0184 187.81 95.5 187.81C92.9816 187.81 90.9399 189.852 90.9399 192.37C90.9399 194.888 92.9816 196.93 95.5 196.93Z" fill="#F4DA8F"/>
<path d="M91.4302 202.45C93.9486 202.45 95.9901 200.408 95.9901 197.89C95.9901 195.372 93.9486 193.33 91.4302 193.33C88.9118 193.33 86.8701 195.372 86.8701 197.89C86.8701 200.408 88.9118 202.45 91.4302 202.45Z" fill="#F4DA8F"/>
<path d="M110.79 148.2C113.077 148.2 114.93 146.346 114.93 144.06C114.93 141.773 113.077 139.92 110.79 139.92C108.504 139.92 106.65 141.773 106.65 144.06C106.65 146.346 108.504 148.2 110.79 148.2Z" fill="#F4DA8F"/>
<path d="M185.48 101.83C186.933 101.83 188.11 100.653 188.11 99.2001C188.11 97.7476 186.933 96.5701 185.48 96.5701C184.028 96.5701 182.85 97.7476 182.85 99.2001C182.85 100.653 184.028 101.83 185.48 101.83Z" fill="#F4DA8F"/>
<path d="M195.96 101.14C197.413 101.14 198.59 99.9625 198.59 98.51C198.59 97.0575 197.413 95.88 195.96 95.88C194.508 95.88 193.33 97.0575 193.33 98.51C193.33 99.9625 194.508 101.14 195.96 101.14Z" fill="#F4DA8F"/>
<path d="M229.25 99.4C230.703 99.4 231.88 98.2225 231.88 96.77C231.88 95.3175 230.703 94.14 229.25 94.14C227.798 94.14 226.62 95.3175 226.62 96.77C226.62 98.2225 227.798 99.4 229.25 99.4Z" fill="#F4DA8F"/>
<path d="M206.97 102.41C208.422 102.41 209.6 101.233 209.6 99.78C209.6 98.3275 208.422 97.15 206.97 97.15C205.517 97.15 204.34 98.3275 204.34 99.78C204.34 101.233 205.517 102.41 206.97 102.41Z" fill="#F4DA8F"/>
<path d="M141.86 124.52C143.312 124.52 144.49 123.343 144.49 121.89C144.49 120.438 143.312 119.26 141.86 119.26C140.407 119.26 139.23 120.438 139.23 121.89C139.23 123.343 140.407 124.52 141.86 124.52Z" fill="#F4DA8F"/>
<path d="M153.44 133.81C154.892 133.81 156.07 132.633 156.07 131.18C156.07 129.728 154.892 128.55 153.44 128.55C151.987 128.55 150.81 129.728 150.81 131.18C150.81 132.633 151.987 133.81 153.44 133.81Z" fill="#F4DA8F"/>
<path d="M145.82 119.53C147.272 119.53 148.45 118.353 148.45 116.9C148.45 115.448 147.272 114.27 145.82 114.27C144.367 114.27 143.19 115.448 143.19 116.9C143.19 118.353 144.367 119.53 145.82 119.53Z" fill="#F4DA8F"/>
<path d="M142.13 138.31C143.583 138.31 144.76 137.133 144.76 135.68C144.76 134.228 143.583 133.05 142.13 133.05C140.677 133.05 139.5 134.228 139.5 135.68C139.5 137.133 140.677 138.31 142.13 138.31Z" fill="#F4DA8F"/>
<path d="M119.41 148.99C120.863 148.99 122.04 147.812 122.04 146.36C122.04 144.907 120.863 143.73 119.41 143.73C117.958 143.73 116.78 144.907 116.78 146.36C116.78 147.812 117.958 148.99 119.41 148.99Z" fill="#F4DA8F"/>
<path d="M122.64 128.61C126.031 128.61 128.78 125.861 128.78 122.47C128.78 119.079 126.031 116.33 122.64 116.33C119.249 116.33 116.5 119.079 116.5 122.47C116.5 125.861 119.249 128.61 122.64 128.61Z" fill="#F4DA8F"/>
<path d="M134.25 141.48C135.172 141.48 135.92 140.732 135.92 139.81C135.92 138.888 135.172 138.14 134.25 138.14C133.328 138.14 132.58 138.888 132.58 139.81C132.58 140.732 133.328 141.48 134.25 141.48Z" fill="#F4DA8F"/>
<path d="M153.02 116.03C153.942 116.03 154.69 115.282 154.69 114.36C154.69 113.438 153.942 112.69 153.02 112.69C152.098 112.69 151.35 113.438 151.35 114.36C151.35 115.282 152.098 116.03 153.02 116.03Z" fill="#F4DA8F"/>
<path d="M104.09 189.68C105.012 189.68 105.76 188.932 105.76 188.01C105.76 187.088 105.012 186.34 104.09 186.34C103.168 186.34 102.42 187.088 102.42 188.01C102.42 188.932 103.168 189.68 104.09 189.68Z" fill="#F4DA8F"/>
<path d="M113.26 244.37C114.182 244.37 114.93 243.622 114.93 242.7C114.93 241.778 114.182 241.03 113.26 241.03C112.338 241.03 111.59 241.778 111.59 242.7C111.59 243.622 112.338 244.37 113.26 244.37Z" fill="#F4DA8F"/>
<path d="M122.62 153.18C123.543 153.18 124.29 152.432 124.29 151.51C124.29 150.588 123.543 149.84 122.62 149.84C121.698 149.84 120.95 150.588 120.95 151.51C120.95 152.432 121.698 153.18 122.62 153.18Z" fill="#F4DA8F"/>
<path d="M111.59 156.56C112.512 156.56 113.26 155.812 113.26 154.89C113.26 153.968 112.512 153.22 111.59 153.22C110.668 153.22 109.92 153.968 109.92 154.89C109.92 155.812 110.668 156.56 111.59 156.56Z" fill="#F4DA8F"/>
<path d="M99.4399 186.46C100.362 186.46 101.11 185.712 101.11 184.79C101.11 183.868 100.362 183.12 99.4399 183.12C98.5176 183.12 97.77 183.868 97.77 184.79C97.77 185.712 98.5176 186.46 99.4399 186.46Z" fill="#F4DA8F"/>
<path d="M155.68 121.59C156.603 121.59 157.35 120.842 157.35 119.92C157.35 118.998 156.603 118.25 155.68 118.25C154.758 118.25 154.01 118.998 154.01 119.92C154.01 120.842 154.758 121.59 155.68 121.59Z" fill="#F4DA8F"/>
<path d="M146.65 124.93C147.572 124.93 148.32 124.182 148.32 123.26C148.32 122.338 147.572 121.59 146.65 121.59C145.728 121.59 144.98 122.338 144.98 123.26C144.98 124.182 145.728 124.93 146.65 124.93Z" fill="#F4DA8F"/>
<path d="M150.47 140.7C151.393 140.7 152.14 139.952 152.14 139.03C152.14 138.108 151.393 137.36 150.47 137.36C149.548 137.36 148.8 138.108 148.8 139.03C148.8 139.952 149.548 140.7 150.47 140.7Z" fill="#F4DA8F"/>
<path d="M181.94 108.84C182.437 108.84 182.84 108.437 182.84 107.94C182.84 107.443 182.437 107.04 181.94 107.04C181.443 107.04 181.04 107.443 181.04 107.94C181.04 108.437 181.443 108.84 181.94 108.84Z" fill="#F4DA8F"/>
<path d="M219.96 134.36C220.457 134.36 220.86 133.957 220.86 133.46C220.86 132.963 220.457 132.56 219.96 132.56C219.463 132.56 219.06 132.963 219.06 133.46C219.06 133.957 219.463 134.36 219.96 134.36Z" fill="#F4DA8F"/>
<path d="M232.78 107.2C233.277 107.2 233.68 106.797 233.68 106.3C233.68 105.803 233.277 105.4 232.78 105.4C232.283 105.4 231.88 105.803 231.88 106.3C231.88 106.797 232.283 107.2 232.78 107.2Z" fill="#F4DA8F"/>
<path d="M202.24 101.8C202.737 101.8 203.14 101.397 203.14 100.9C203.14 100.403 202.737 100 202.24 100C201.743 100 201.34 100.403 201.34 100.9C201.34 101.397 201.743 101.8 202.24 101.8Z" fill="#F4DA8F"/>
<path d="M193.35 106.29C193.847 106.29 194.25 105.887 194.25 105.39C194.25 104.893 193.847 104.49 193.35 104.49C192.853 104.49 192.45 104.893 192.45 105.39C192.45 105.887 192.853 106.29 193.35 106.29Z" fill="#F4DA8F"/>
<path d="M202.72 125.47C203.217 125.47 203.62 125.067 203.62 124.57C203.62 124.073 203.217 123.67 202.72 123.67C202.223 123.67 201.82 124.073 201.82 124.57C201.82 125.067 202.223 125.47 202.72 125.47Z" fill="#F4DA8F"/>
<path d="M189.12 113.58C189.617 113.58 190.02 113.177 190.02 112.68C190.02 112.183 189.617 111.78 189.12 111.78C188.623 111.78 188.22 112.183 188.22 112.68C188.22 113.177 188.623 113.58 189.12 113.58Z" fill="#F4DA8F"/>
<path d="M242.41 105.89C242.907 105.89 243.31 105.487 243.31 104.99C243.31 104.493 242.907 104.09 242.41 104.09C241.913 104.09 241.51 104.493 241.51 104.99C241.51 105.487 241.913 105.89 242.41 105.89Z" fill="#F4DA8F"/>
<path d="M174.01 115.53C174.507 115.53 174.91 115.127 174.91 114.63C174.91 114.133 174.507 113.73 174.01 113.73C173.513 113.73 173.11 114.133 173.11 114.63C173.11 115.127 173.513 115.53 174.01 115.53Z" fill="#F4DA8F"/>
<path d="M191.1 132.15C191.597 132.15 192 131.747 192 131.25C192 130.753 191.597 130.35 191.1 130.35C190.603 130.35 190.2 130.753 190.2 131.25C190.2 131.747 190.603 132.15 191.1 132.15Z" fill="#F4DA8F"/>
<path d="M173.68 156.69C174.177 156.69 174.58 156.287 174.58 155.79C174.58 155.293 174.177 154.89 173.68 154.89C173.183 154.89 172.78 155.293 172.78 155.79C172.78 156.287 173.183 156.69 173.68 156.69Z" fill="#F4DA8F"/>
<path d="M190.02 121.43C190.517 121.43 190.92 121.027 190.92 120.53C190.92 120.033 190.517 119.63 190.02 119.63C189.523 119.63 189.12 120.033 189.12 120.53C189.12 121.027 189.523 121.43 190.02 121.43Z" fill="#F4DA8F"/>
<path d="M126.43 170.01C126.927 170.01 127.33 169.607 127.33 169.11C127.33 168.613 126.927 168.21 126.43 168.21C125.933 168.21 125.53 168.613 125.53 169.11C125.53 169.607 125.933 170.01 126.43 170.01Z" fill="#F4DA8F"/>
<path d="M201.98 164.6C202.477 164.6 202.88 164.197 202.88 163.7C202.88 163.203 202.477 162.8 201.98 162.8C201.483 162.8 201.08 163.203 201.08 163.7C201.08 164.197 201.483 164.6 201.98 164.6Z" fill="#F4DA8F"/>
<path d="M164.86 111.79C165.357 111.79 165.76 111.387 165.76 110.89C165.76 110.393 165.357 109.99 164.86 109.99C164.363 109.99 163.96 110.393 163.96 110.89C163.96 111.387 164.363 111.79 164.86 111.79Z" fill="#F4DA8F"/>
<path d="M164.34 122.38C164.837 122.38 165.24 121.977 165.24 121.48C165.24 120.983 164.837 120.58 164.34 120.58C163.843 120.58 163.44 120.983 163.44 121.48C163.44 121.977 163.843 122.38 164.34 122.38Z" fill="#F4DA8F"/>
<path d="M259.19 102.07C259.687 102.07 260.09 101.667 260.09 101.17C260.09 100.673 259.687 100.27 259.19 100.27C258.693 100.27 258.29 100.673 258.29 101.17C258.29 101.667 258.693 102.07 259.19 102.07Z" fill="#F4DA8F"/>
<path d="M111.59 182.95C112.087 182.95 112.49 182.547 112.49 182.05C112.49 181.553 112.087 181.15 111.59 181.15C111.093 181.15 110.69 181.553 110.69 182.05C110.69 182.547 111.093 182.95 111.59 182.95Z" fill="#F4DA8F"/>
<path d="M150.39 167.44C150.887 167.44 151.29 167.037 151.29 166.54C151.29 166.043 150.887 165.64 150.39 165.64C149.893 165.64 149.49 166.043 149.49 166.54C149.49 167.037 149.893 167.44 150.39 167.44Z" fill="#F4DA8F"/>
<path d="M128.27 216.18C128.767 216.18 129.17 215.777 129.17 215.28C129.17 214.783 128.767 214.38 128.27 214.38C127.773 214.38 127.37 214.783 127.37 215.28C127.37 215.777 127.773 216.18 128.27 216.18Z" fill="#F4DA8F"/>
<path d="M119.05 188.33C119.547 188.33 119.95 187.927 119.95 187.43C119.95 186.933 119.547 186.53 119.05 186.53C118.553 186.53 118.15 186.933 118.15 187.43C118.15 187.927 118.553 188.33 119.05 188.33Z" fill="#F4DA8F"/>
<path d="M103.54 205.53C104.037 205.53 104.44 205.127 104.44 204.63C104.44 204.133 104.037 203.73 103.54 203.73C103.043 203.73 102.64 204.133 102.64 204.63C102.64 205.127 103.043 205.53 103.54 205.53Z" fill="#F4DA8F"/>
<path d="M108.98 185.15C109.477 185.15 109.88 184.747 109.88 184.25C109.88 183.753 109.477 183.35 108.98 183.35C108.483 183.35 108.08 183.753 108.08 184.25C108.08 184.747 108.483 185.15 108.98 185.15Z" fill="#F4DA8F"/>
<path d="M149.91 199.69C150.407 199.69 150.81 199.287 150.81 198.79C150.81 198.293 150.407 197.89 149.91 197.89C149.413 197.89 149.01 198.293 149.01 198.79C149.01 199.287 149.413 199.69 149.91 199.69Z" fill="#F4DA8F"/>
<path d="M118.51 163.66C119.007 163.66 119.41 163.257 119.41 162.76C119.41 162.263 119.007 161.86 118.51 161.86C118.013 161.86 117.61 162.263 117.61 162.76C117.61 163.257 118.013 163.66 118.51 163.66Z" fill="#F4DA8F"/>
<path d="M151.26 122.32C151.984 122.32 152.57 121.733 152.57 121.01C152.57 120.286 151.984 119.7 151.26 119.7C150.537 119.7 149.95 120.286 149.95 121.01C149.95 121.733 150.537 122.32 151.26 122.32Z" fill="#F4DA8F"/>
<path d="M165.77 164.93C166.692 164.93 167.44 164.182 167.44 163.26C167.44 162.338 166.692 161.59 165.77 161.59C164.848 161.59 164.1 162.338 164.1 163.26C164.1 164.182 164.848 164.93 165.77 164.93Z" fill="#F4DA8F"/>
<path d="M110.79 169.11C111.712 169.11 112.46 168.362 112.46 167.44C112.46 166.518 111.712 165.77 110.79 165.77C109.868 165.77 109.12 166.518 109.12 167.44C109.12 168.362 109.868 169.11 110.79 169.11Z" fill="#F4DA8F"/>
<path d="M206.37 118.36C207.293 118.36 208.04 117.612 208.04 116.69C208.04 115.768 207.293 115.02 206.37 115.02C205.448 115.02 204.7 115.768 204.7 116.69C204.7 117.612 205.448 118.36 206.37 118.36Z" fill="#F4DA8F"/>
<path d="M225.25 108.43C226.172 108.43 226.92 107.682 226.92 106.76C226.92 105.838 226.172 105.09 225.25 105.09C224.328 105.09 223.58 105.838 223.58 106.76C223.58 107.682 224.328 108.43 225.25 108.43Z" fill="#F4DA8F"/>
<path d="M254.75 118.96C255.672 118.96 256.42 118.212 256.42 117.29C256.42 116.368 255.672 115.62 254.75 115.62C253.828 115.62 253.08 116.368 253.08 117.29C253.08 118.212 253.828 118.96 254.75 118.96Z" fill="#F4DA8F"/>
<path d="M281.67 104.91C282.592 104.91 283.34 104.162 283.34 103.24C283.34 102.318 282.592 101.57 281.67 101.57C280.748 101.57 280 102.318 280 103.24C280 104.162 280.748 104.91 281.67 104.91Z" fill="#F4DA8F"/>
<path d="M212.55 103.11C213.472 103.11 214.22 102.362 214.22 101.44C214.22 100.518 213.472 99.77 212.55 99.77C211.628 99.77 210.88 100.518 210.88 101.44C210.88 102.362 211.628 103.11 212.55 103.11Z" fill="#F4DA8F"/>
<path d="M194.29 102.85C195.212 102.85 195.96 102.102 195.96 101.18C195.96 100.258 195.212 99.51 194.29 99.51C193.368 99.51 192.62 100.258 192.62 101.18C192.62 102.102 193.368 102.85 194.29 102.85Z" fill="#F4DA8F"/>
<path d="M219.36 100.76C220.282 100.76 221.03 100.012 221.03 99.09C221.03 98.1677 220.282 97.4199 219.36 97.4199C218.438 97.4199 217.69 98.1677 217.69 99.09C217.69 100.012 218.438 100.76 219.36 100.76Z" fill="#F4DA8F"/>
<path d="M173.38 110.03C175.17 110.03 176.62 108.579 176.62 106.79C176.62 105.001 175.17 103.55 173.38 103.55C171.591 103.55 170.14 105.001 170.14 106.79C170.14 108.579 171.591 110.03 173.38 110.03Z" fill="#F4DA8F"/>
<path d="M154.69 107.73C156.48 107.73 157.93 106.279 157.93 104.49C157.93 102.701 156.48 101.25 154.69 101.25C152.901 101.25 151.45 102.701 151.45 104.49C151.45 106.279 152.901 107.73 154.69 107.73Z" fill="#F4DA8F"/>
<path d="M181.04 103.24C182.83 103.24 184.28 101.789 184.28 100C184.28 98.2106 182.83 96.76 181.04 96.76C179.251 96.76 177.8 98.2106 177.8 100C177.8 101.789 179.251 103.24 181.04 103.24Z" fill="#F4DA8F"/>
<path d="M150.39 110.28C152.18 110.28 153.63 108.829 153.63 107.04C153.63 105.251 152.18 103.8 150.39 103.8C148.601 103.8 147.15 105.251 147.15 107.04C147.15 108.829 148.601 110.28 150.39 110.28Z" fill="#F4DA8F"/>
<path d="M128.07 121.01C129.859 121.01 131.31 119.559 131.31 117.77C131.31 115.981 129.859 114.53 128.07 114.53C126.281 114.53 124.83 115.981 124.83 117.77C124.83 119.559 126.281 121.01 128.07 121.01Z" fill="#F4DA8F"/>
<path d="M138.21 91.84C138.21 91.84 140.17 91.78 140.39 92.68C140.61 93.58 139.92 93.86 138.77 94.81C137.62 95.76 136.69 96.09 137.37 97.53C138.05 98.97 138.9 100.57 138.44 101.09C137.97 101.61 137.62 101.76 136.67 100.95C135.72 100.14 134.52 99.04 133.53 99.65C132.54 100.26 130.36 101.65 130.36 101.65C130.36 101.65 129.73 101.95 129.43 101.67C129.13 101.39 128.94 100.81 129.28 100.16C129.62 99.51 130.41 97.92 130.41 97.92C130.41 97.92 131.48 96.6 130.15 96.5C128.82 96.41 127.68 96.05 127.08 95.88C126.48 95.71 125.55 95.19 125.89 94.62C126.23 94.05 126.7 93.81 128.25 93.34C129.79 92.87 131.1 92.71 131.14 91.77C131.18 90.83 131.32 89.41 131.44 88.64C131.53 88.08 131.72 87.4 132.19 87.46C132.69 87.52 133.2 87.88 133.73 88.89C134.07 89.53 134.59 90.44 134.99 91.11C135.32 91.67 135.93 91.99 136.58 91.95L138.21 91.84Z" fill="#F2A0A0"/>
<path d="M138.85 93.04C138.85 93.04 137.3 93.1701 135.09 94.6201C135.09 94.6201 137.01 94.17 138.85 93.04Z" fill="#BA4129"/>
<path d="M134.67 96.0701C134.67 96.0701 136.4 97.33 137.19 99.6C137.19 99.6 135.6 98.3301 134.67 96.0701Z" fill="#BA4129"/>
<path d="M130.99 100.05C130.99 100.05 132.62 99.01 133.51 96.27C133.51 96.27 132.13 97.46 130.99 100.05Z" fill="#BA4129"/>
<path d="M128.38 94.6C128.38 94.6 130.61 93.82 132.64 94.64C132.64 94.64 130.94 95.08 128.38 94.6Z" fill="#BA4129"/>
<path d="M133.79 93.8C133.79 93.8 133.79 91.73 132.57 89.12C132.57 89.12 132.7 91.48 133.79 93.8Z" fill="#BA4129"/>
<path d="M114.16 91.89C114.16 91.89 116.33 93.19 115.94 94.32C115.55 95.45 114.61 95.27 112.7 95.5C110.79 95.73 109.55 95.44 109.29 97.48C109.03 99.52 108.84 101.85 107.97 102.09C107.1 102.33 106.61 102.24 106.14 100.71C105.67 99.17 105.14 97.14 103.64 97.11C102.14 97.08 98.8102 97.08 98.8102 97.08C98.8102 97.08 97.9101 96.97 97.7901 96.45C97.6701 95.93 97.8601 95.18 98.6801 94.71C99.5001 94.24 101.46 93.06 101.46 93.06C101.46 93.06 103.55 92.37 102.16 91.34C100.78 90.32 99.7901 89.14 99.2501 88.53C98.7101 87.92 98.0701 86.72 98.8401 86.33C99.6101 85.94 100.29 86.02 102.29 86.58C104.29 87.14 105.82 87.88 106.52 86.89C107.22 85.9 108.35 84.45 109.03 83.7C109.52 83.16 110.19 82.54 110.67 82.94C111.17 83.36 111.48 84.11 111.35 85.57C111.27 86.51 111.21 87.86 111.17 88.86C111.14 89.7 111.58 90.48 112.31 90.88L114.16 91.89Z" fill="#F2A0A0"/>
<path d="M114.02 93.65C114.02 93.65 112.24 92.71 108.84 92.75C108.84 92.75 111.22 93.6 114.02 93.65Z" fill="#BA4129"/>
<path d="M107.36 94.03C107.36 94.03 108.36 96.6 107.64 99.62C107.64 99.62 106.8 97.13 107.36 94.03Z" fill="#BA4129"/>
<path d="M100.6 95.7899C100.6 95.7899 103.09 95.7999 105.97 93.4399C105.96 93.4399 103.64 93.7699 100.6 95.7899Z" fill="#BA4129"/>
<path d="M101.55 88.05C101.55 88.05 104.51 88.7601 106.15 91.0601C106.15 91.0601 104.01 90.36 101.55 88.05Z" fill="#BA4129"/>
<path d="M108 90.95C108 90.95 109.44 88.7 109.93 85.01C109.92 85.01 108.42 87.68 108 90.95Z" fill="#BA4129"/>
</svg>
