<svg width="75" height="122" viewBox="0 0 75 122" fill="none" xmlns="http://www.w3.org/2000/svg">
<path d="M63.63 99.5899C63.18 101.85 62.55 104.19 61.77 106.57C61.77 106.57 61.77 106.57 61.77 106.59C61.13 108.55 60.39 110.58 59.58 112.68C58.65 115.09 57.62 117.58 56.52 120.09C55.51 122.41 52.15 122.12 51.54 119.68C50.42 115.16 48.75 109.33 46.66 104.16C44.67 99.2599 37.82 86.2099 38.03 79.2099C38.06 77.9099 38.1 76.7099 38.14 75.5799C38.15 75.3699 38.15 75.1699 38.16 74.9699C38.54 64.6199 39 60.8999 39 60.8999L55.3 60.9199C55.3 60.9199 56.77 71.5399 62.78 84.9199C64.64 89.0399 64.7 94.0899 63.63 99.5899Z" fill="#E8EDEB"/>
<path d="M59.58 112.68C58.65 115.09 57.62 117.58 56.52 120.09C55.51 122.41 52.15 122.12 51.54 119.68C50.42 115.16 48.75 109.33 46.66 104.16C44.67 99.26 37.82 86.21 38.03 79.21C38.06 77.91 38.1 76.71 38.14 75.58C38.15 75.37 38.15 75.17 38.16 74.97C39.97 80.36 43.54 89.5 48.74 95.93C54.69 103.28 57.9 109.01 59.58 112.68Z" fill="#333333"/>
<path d="M63.63 22.22C63.18 19.96 62.55 17.62 61.77 15.24C61.77 15.24 61.77 15.24 61.77 15.22C61.13 13.26 60.39 11.23 59.58 9.13C58.65 6.72 57.62 4.23 56.52 1.72C55.51 -0.600003 52.15 -0.309999 51.54 2.13C50.42 6.65 48.75 12.48 46.66 17.65C44.67 22.55 37.82 35.6 38.03 42.6C38.06 43.9 38.1 45.1 38.14 46.23C38.15 46.44 38.15 46.64 38.16 46.84C38.54 57.19 39 60.91 39 60.91L55.3 60.89C55.3 60.89 56.77 50.27 62.78 36.89C64.64 32.77 64.7 27.73 63.63 22.22Z" fill="#E8EDEB"/>
<path d="M59.58 9.13C58.65 6.72 57.62 4.23 56.52 1.72C55.51 -0.600003 52.15 -0.309999 51.54 2.13C50.42 6.65 48.75 12.48 46.66 17.65C44.67 22.55 37.82 35.6 38.03 42.6C38.06 43.9 38.1 45.1 38.14 46.23C38.15 46.44 38.15 46.64 38.16 46.84C39.97 41.45 43.54 32.31 48.74 25.88C54.69 18.53 57.9 12.8 59.58 9.13Z" fill="#333333"/>
<path d="M73.7401 59.8702L64.3201 58.1702V60.9202V63.6702L73.7401 61.9702C74.9101 61.7602 74.9101 60.0802 73.7401 59.8702Z" fill="#F7931E"/>
<path d="M46.55 52.6101C42.66 52.6101 39.03 53.0601 35.94 53.8301C32.36 54.3501 29.08 55.7101 25.67 56.4101C16.98 58.1901 9.38004 56.6901 4.21004 55.1001C3.64004 54.9201 3.10004 54.7501 2.60004 54.5701C1.20004 54.1001 -0.229959 55.2101 0.130041 56.5001C0.230041 56.8501 0.300031 57.1801 0.370031 57.5101C0.440031 57.8301 0.500034 58.1401 0.560034 58.4501C0.600034 58.7301 0.650039 58.9901 0.690039 59.2701C0.700039 59.4701 0.730036 59.6701 0.750036 59.8801C0.780036 60.2301 0.79003 60.5701 0.79003 60.9301C0.79003 61.2801 0.780036 61.6201 0.750036 61.9801C0.740036 62.1801 0.710039 62.3801 0.690039 62.5901C0.650039 62.8701 0.600034 63.1301 0.560034 63.4101C0.500034 63.7101 0.450031 64.0301 0.370031 64.3501C0.330031 64.5101 0.300031 64.6801 0.260031 64.8401C0.230031 65.0001 0.170041 65.1801 0.130041 65.3601C-0.229959 66.6601 1.20004 67.7601 2.60004 67.2901C2.64004 67.2801 2.67004 67.2601 2.71004 67.2501C3.18004 67.1001 3.68004 66.9301 4.21004 66.7701C9.38004 65.1701 16.98 63.6601 25.67 65.4401C29.08 66.1401 32.36 67.5001 35.94 68.0201C39.04 68.7901 42.66 69.2401 46.56 69.2401C57.83 69.2401 66.96 65.5201 66.96 60.9201C66.95 56.3301 57.82 52.6101 46.55 52.6101Z" fill="#E8EDEB"/>
<path d="M7.14004 60.9302V60.9402C7.14004 62.9002 5.53003 65.2102 4.20003 66.7702C3.67003 66.9302 3.17003 67.1002 2.70003 67.2502C2.66003 67.2602 2.63003 67.2802 2.59003 67.2902C1.19003 67.7602 -0.239969 66.6602 0.120031 65.3602C0.160031 65.1802 0.220036 65.0102 0.250036 64.8402C0.290036 64.6802 0.320037 64.5102 0.360037 64.3502C0.430037 64.0302 0.490039 63.7202 0.550039 63.4102C0.590039 63.1302 0.640029 62.8702 0.680029 62.5902C0.690029 62.3902 0.720042 62.1902 0.740042 61.9802C0.770042 61.6302 0.780035 61.2802 0.780035 60.9302C0.780035 60.5802 0.770042 60.2402 0.740042 59.8802C0.730042 59.6802 0.700029 59.4802 0.680029 59.2702C0.640029 58.9902 0.590039 58.7302 0.550039 58.4502C0.490039 58.1502 0.440037 57.8302 0.360037 57.5102C0.290037 57.1802 0.220031 56.8502 0.120031 56.5002C-0.239969 55.2102 1.19003 54.1002 2.59003 54.5702C3.09003 54.7502 3.63003 54.9202 4.20003 55.1002C4.40003 55.3302 4.61003 55.5902 4.81003 55.8602C5.99003 57.3502 7.14004 59.2602 7.14004 60.9302Z" fill="#333333"/>
</svg>
