<svg width="76" height="122" viewBox="0 0 76 122" fill="none" xmlns="http://www.w3.org/2000/svg">
<path d="M64.08 93.4899C63.63 95.3899 63.0001 97.3599 62.2201 99.3699C62.2201 99.3699 62.2201 99.3699 62.2201 99.3899C61.5801 101.04 60.8401 102.75 60.0301 104.52C59.1001 106.55 58.0701 108.64 56.9701 110.76C55.9601 112.71 52.6 112.47 51.99 110.41C50.87 106.61 49.2 101.69 47.11 97.3299C45.12 93.2099 38.2701 82.2099 38.4801 76.3199C38.5101 75.2299 38.5501 74.2099 38.5901 73.2599C38.6001 73.0899 38.6 72.9099 38.61 72.7499C38.99 64.0299 39.4501 60.8999 39.4501 60.8999L55.7501 60.9199C55.7501 60.9199 57.2201 69.8599 63.2301 81.1299C65.0901 84.6099 65.15 88.8499 64.08 93.4899Z" fill="#E8EDEB"/>
<path d="M60.0401 104.52C59.1101 106.55 58.0801 108.64 56.9801 110.76C55.9701 112.71 52.6101 112.47 52.0001 110.41C50.8801 106.61 49.2101 101.69 47.1201 97.33C45.1301 93.21 38.2801 82.21 38.4901 76.32C38.5201 75.23 38.5601 74.21 38.6001 73.26C38.6101 73.09 38.6101 72.91 38.6201 72.75C40.4301 77.29 44.0001 84.99 49.2001 90.4C55.1401 96.6 58.3501 101.43 60.0401 104.52Z" fill="#333333"/>
<path d="M64.08 28.32C63.63 26.42 63.0001 24.45 62.2201 22.44C62.2201 22.44 62.2201 22.44 62.2201 22.42C61.5801 20.77 60.8401 19.06 60.0301 17.29C59.1001 15.26 58.0701 13.17 56.9701 11.05C55.9601 9.10001 52.6 9.34 51.99 11.4C50.87 15.2 49.2 20.12 47.11 24.48C45.12 28.6 38.2701 39.6 38.4801 45.49C38.5101 46.58 38.5501 47.6 38.5901 48.55C38.6001 48.72 38.6 48.9 38.61 49.06C38.99 57.78 39.4501 60.91 39.4501 60.91L55.7501 60.89C55.7501 60.89 57.2201 51.95 63.2301 40.68C65.0901 37.21 65.15 32.96 64.08 28.32Z" fill="#E8EDEB"/>
<path d="M60.0401 17.29C59.1101 15.26 58.0801 13.17 56.9801 11.05C55.9701 9.10001 52.6101 9.34 52.0001 11.4C50.8801 15.2 49.2101 20.12 47.1201 24.48C45.1301 28.6 38.2801 39.6 38.4901 45.49C38.5201 46.58 38.5601 47.6 38.6001 48.55C38.6101 48.72 38.6101 48.9 38.6201 49.06C40.4301 44.52 44.0001 36.82 49.2001 31.41C55.1401 25.21 58.3501 20.39 60.0401 17.29Z" fill="#333333"/>
<path d="M74.2 59.8702L64.78 58.1702V60.9202V63.6702L74.2 61.9702C75.37 61.7602 75.37 60.0802 74.2 59.8702Z" fill="#F7931E"/>
<path d="M47 52.6101C43.11 52.6101 39.48 53.0601 36.39 53.8301C32.81 54.3501 29.53 55.7101 26.12 56.4101C17.43 58.1901 9.83001 56.6901 4.66001 55.1001C4.09001 54.9201 3.54999 54.7501 3.04999 54.5701C1.64999 54.1001 0.219992 55.2101 0.579992 56.5001C0.679992 56.8501 0.750013 57.1801 0.820013 57.5101C0.890013 57.8301 0.950016 58.1401 1.01002 58.4501C1.05002 58.7301 1.10002 58.9901 1.14002 59.2701C1.15002 59.4701 1.18002 59.6701 1.20002 59.8801C1.23002 60.2301 1.24 60.5701 1.24 60.9301C1.24 61.2801 1.23002 61.6201 1.20002 61.9801C1.19002 62.1801 1.16002 62.3801 1.14002 62.5901C1.10002 62.8701 1.05002 63.1301 1.01002 63.4101C0.950016 63.7101 0.900013 64.0301 0.820013 64.3501C0.780013 64.5101 0.749997 64.6801 0.709997 64.8401C0.679997 65.0001 0.619992 65.1801 0.579992 65.3601C0.219992 66.6601 1.64999 67.7601 3.04999 67.2901C3.08999 67.2801 3.12001 67.2601 3.16001 67.2501C3.63001 67.1001 4.13001 66.9301 4.66001 66.7701C9.83001 65.1701 17.43 63.6601 26.12 65.4401C29.53 66.1401 32.81 67.5001 36.39 68.0201C39.49 68.7901 43.11 69.2401 47.01 69.2401C58.28 69.2401 67.41 65.5201 67.41 60.9201C67.41 56.3301 58.27 52.6101 47 52.6101Z" fill="#E8EDEB"/>
<path d="M7.60001 60.9302V60.9402C7.60001 62.9002 5.99001 65.2102 4.66001 66.7702C4.13001 66.9302 3.63001 67.1002 3.16001 67.2502C3.12001 67.2602 3.08999 67.2802 3.04999 67.2902C1.64999 67.7602 0.219992 66.6602 0.579992 65.3602C0.619992 65.1802 0.679997 65.0102 0.709997 64.8402C0.749997 64.6802 0.780013 64.5102 0.820013 64.3502C0.890013 64.0302 0.950016 63.7202 1.01002 63.4102C1.05002 63.1302 1.10002 62.8702 1.14002 62.5902C1.15002 62.3902 1.18002 62.1902 1.20002 61.9802C1.23002 61.6302 1.24 61.2802 1.24 60.9302C1.24 60.5802 1.23002 60.2402 1.20002 59.8802C1.19002 59.6802 1.16002 59.4802 1.14002 59.2702C1.10002 58.9902 1.05002 58.7302 1.01002 58.4502C0.950016 58.1502 0.900013 57.8302 0.820013 57.5102C0.750013 57.1802 0.679992 56.8502 0.579992 56.5002C0.219992 55.2102 1.64999 54.1002 3.04999 54.5702C3.54999 54.7502 4.09001 54.9202 4.66001 55.1002C4.86001 55.3302 5.06999 55.5902 5.26999 55.8602C6.43999 57.3502 7.60001 59.2602 7.60001 60.9302Z" fill="#333333"/>
</svg>
