<svg width="75" height="122" viewBox="0 0 75 122" fill="none" xmlns="http://www.w3.org/2000/svg">
<path d="M63.6402 88.6199C63.1902 90.2399 62.5602 91.9099 61.7802 93.6199C61.7802 93.6199 61.7802 93.6199 61.7802 93.6399C61.1402 95.0399 60.4002 96.4999 59.5902 97.9999C58.6602 99.7199 57.6302 101.51 56.5302 103.31C55.5202 104.97 52.1601 104.76 51.5501 103.01C50.4301 99.7699 48.7601 95.5899 46.6701 91.8899C44.6801 88.3799 37.8301 79.0299 38.0401 74.0199C38.0701 73.0899 38.1102 72.2299 38.1502 71.4199C38.1602 71.2699 38.1601 71.1199 38.1701 70.9799C38.5501 63.5599 39.0102 60.8999 39.0102 60.8999L55.3101 60.9199C55.3101 60.9199 56.7801 68.5299 62.7901 78.1099C64.6501 81.0599 64.7002 84.6699 63.6402 88.6199Z" fill="#E8EDEB"/>
<path d="M59.5902 98C58.6602 99.72 57.6302 101.51 56.5302 103.31C55.5202 104.97 52.1601 104.76 51.5501 103.01C50.4301 99.77 48.7601 95.59 46.6701 91.89C44.6801 88.38 37.8301 79.03 38.0401 74.02C38.0701 73.09 38.1102 72.23 38.1502 71.42C38.1602 71.27 38.1601 71.12 38.1701 70.98C39.9801 74.84 43.5501 81.39 48.7501 85.99C54.6901 91.26 57.9002 95.37 59.5902 98Z" fill="#333333"/>
<path d="M63.6402 33.1999C63.1902 31.5799 62.5602 29.9099 61.7802 28.1999C61.7802 28.1999 61.7802 28.1999 61.7802 28.1799C61.1402 26.7799 60.4002 25.3199 59.5902 23.8199C58.6602 22.0999 57.6302 20.3099 56.5302 18.5099C55.5202 16.8499 52.1601 17.0599 51.5501 18.8099C50.4301 22.0499 48.7601 26.2299 46.6701 29.9299C44.6801 33.4399 37.8301 42.7899 38.0401 47.7999C38.0701 48.7299 38.1102 49.5899 38.1502 50.3999C38.1602 50.5499 38.1601 50.6999 38.1701 50.8399C38.5501 58.2599 39.0102 60.9199 39.0102 60.9199L55.3101 60.8999C55.3101 60.8999 56.7801 53.2899 62.7901 43.7099C64.6501 40.7499 64.7002 37.1399 63.6402 33.1999Z" fill="#E8EDEB"/>
<path d="M59.5902 23.8199C58.6602 22.0999 57.6302 20.3099 56.5302 18.5099C55.5202 16.8499 52.1601 17.0599 51.5501 18.8099C50.4301 22.0499 48.7601 26.2299 46.6701 29.9299C44.6801 33.4399 37.8301 42.7899 38.0401 47.7999C38.0701 48.7299 38.1102 49.5899 38.1502 50.3999C38.1602 50.5499 38.1601 50.6999 38.1701 50.8399C39.9801 46.9799 43.5501 40.4299 48.7501 35.8299C54.6901 30.5499 57.9002 26.4499 59.5902 23.8199Z" fill="#333333"/>
<path d="M73.7501 59.8699L64.3301 58.1699V60.9199V63.6699L73.7501 61.9699C74.9201 61.7599 74.9201 60.0799 73.7501 59.8699Z" fill="#F7931E"/>
<path d="M46.55 52.6099C42.66 52.6099 39.03 53.0599 35.94 53.8299C32.36 54.3499 29.08 55.7099 25.67 56.4099C16.98 58.1899 9.38006 56.6899 4.21006 55.0999C3.64006 54.9199 3.10001 54.7499 2.60001 54.5699C1.20001 54.0999 -0.229958 55.2099 0.130042 56.4999C0.230042 56.8499 0.300032 57.1799 0.370032 57.5099C0.440032 57.8299 0.500035 58.1399 0.560035 58.4499C0.600035 58.7299 0.65004 58.9899 0.69004 59.2699C0.70004 59.4699 0.730037 59.6699 0.750037 59.8799C0.780037 60.2299 0.790015 60.5699 0.790015 60.9299C0.790015 61.2799 0.780037 61.6199 0.750037 61.9799C0.740037 62.1799 0.71004 62.3799 0.69004 62.5899C0.65004 62.8699 0.600035 63.1299 0.560035 63.4099C0.500035 63.7099 0.450032 64.0299 0.370032 64.3499C0.330032 64.5099 0.300047 64.6799 0.260047 64.8399C0.230047 64.9999 0.170042 65.1799 0.130042 65.3599C-0.229958 66.6599 1.20001 67.7599 2.60001 67.2899C2.64001 67.2799 2.67006 67.2599 2.71006 67.2499C3.18006 67.0999 3.68006 66.9299 4.21006 66.7699C9.38006 65.1699 16.98 63.6599 25.67 65.4399C29.08 66.1399 32.36 67.4999 35.94 68.0199C39.04 68.7899 42.66 69.2399 46.56 69.2399C57.83 69.2399 66.9601 65.5199 66.9601 60.9199C66.9601 56.3299 57.82 52.6099 46.55 52.6099Z" fill="#E8EDEB"/>
<path d="M7.15006 60.9299V60.9399C7.15006 62.8999 5.54006 65.2099 4.21006 66.7699C3.68006 66.9299 3.18006 67.0999 2.71006 67.2499C2.67006 67.2599 2.64001 67.2799 2.60001 67.2899C1.20001 67.7599 -0.229958 66.6599 0.130042 65.3599C0.170042 65.1799 0.230047 65.0099 0.260047 64.8399C0.300047 64.6799 0.330032 64.51 0.370032 64.35C0.440032 64.03 0.500035 63.7199 0.560035 63.4099C0.600035 63.1299 0.65004 62.8699 0.69004 62.5899C0.70004 62.3899 0.730037 62.1899 0.750037 61.9799C0.780037 61.6299 0.790015 61.2799 0.790015 60.9299C0.790015 60.5799 0.780037 60.2399 0.750037 59.8799C0.740037 59.6799 0.71004 59.4799 0.69004 59.2699C0.65004 58.9899 0.600035 58.7299 0.560035 58.4499C0.500035 58.1499 0.450032 57.8299 0.370032 57.5099C0.300032 57.1799 0.230042 56.8499 0.130042 56.4999C-0.229958 55.2099 1.20001 54.1 2.60001 54.57C3.10001 54.75 3.64006 54.92 4.21006 55.1C4.41006 55.33 4.62004 55.5899 4.82004 55.8599C5.99004 57.3499 7.15006 59.2599 7.15006 60.9299Z" fill="#333333"/>
</svg>
