<svg width="75" height="122" viewBox="0 0 75 122" fill="none" xmlns="http://www.w3.org/2000/svg">
<path d="M64.0001 80.3399C63.5501 81.4699 62.9201 82.6499 62.1401 83.8499C62.1401 83.8499 62.1401 83.8499 62.1401 83.8599C61.5001 84.8499 60.7601 85.8599 59.9501 86.9199C59.0201 88.1299 57.9901 89.3799 56.8901 90.6399C55.8801 91.7999 52.5201 91.6599 51.9101 90.4299C50.7901 88.1599 49.1201 85.2299 47.0301 82.6299C45.0401 80.1699 38.1901 73.6099 38.4001 70.0899C38.4301 69.4399 38.4701 68.8299 38.5101 68.2599C38.5201 68.1599 38.5201 68.0499 38.5301 67.9499C38.9101 62.7499 39.3701 60.8799 39.3701 60.8799L55.6701 60.8899C55.6701 60.8899 57.1401 66.2199 63.1501 72.9499C65.0101 75.0399 65.0701 77.5799 64.0001 80.3399Z" fill="#E8EDEB"/>
<path d="M59.96 86.92C59.03 88.13 58 89.38 56.9 90.64C55.89 91.8 52.53 91.6599 51.92 90.4299C50.8 88.1599 49.13 85.23 47.04 82.63C45.05 80.17 38.2 73.61 38.41 70.09C38.44 69.44 38.48 68.83 38.52 68.26C38.53 68.16 38.53 68.05 38.54 67.95C40.35 70.66 43.92 75.25 49.12 78.48C55.06 82.2 58.27 85.08 59.96 86.92Z" fill="#333333"/>
<path d="M64.0001 41.4698C63.5501 40.3398 62.9201 39.1598 62.1401 37.9598C62.1401 37.9598 62.1401 37.9598 62.1401 37.9498C61.5001 36.9598 60.7601 35.9498 59.9501 34.8898C59.0201 33.6798 57.9901 32.4298 56.8901 31.1698C55.8801 30.0098 52.5201 30.1498 51.9101 31.3798C50.7901 33.6498 49.1201 36.5798 47.0301 39.1798C45.0401 41.6398 38.1901 48.1998 38.4001 51.7198C38.4301 52.3698 38.4701 52.9798 38.5101 53.5498C38.5201 53.6498 38.5201 53.7598 38.5301 53.8598C38.9101 59.0598 39.3701 60.9298 39.3701 60.9298L55.6701 60.9198C55.6701 60.9198 57.1401 55.5898 63.1501 48.8598C65.0101 46.7698 65.0701 44.2398 64.0001 41.4698Z" fill="#E8EDEB"/>
<path d="M59.96 34.8898C59.03 33.6798 58 32.4298 56.9 31.1698C55.89 30.0098 52.53 30.1498 51.92 31.3798C50.8 33.6498 49.13 36.5798 47.04 39.1798C45.05 41.6398 38.2 48.1998 38.41 51.7198C38.44 52.3698 38.48 52.9798 38.52 53.5498C38.53 53.6498 38.53 53.7598 38.54 53.8598C40.35 51.1498 43.92 46.5598 49.12 43.3298C55.06 39.6198 58.27 36.7398 59.96 34.8898Z" fill="#333333"/>
<path d="M74.1201 59.8699L64.7001 58.1699V60.9199V63.6699L74.1201 61.9699C75.2901 61.7599 75.2901 60.0799 74.1201 59.8699Z" fill="#F7931E"/>
<path d="M46.92 52.6099C43.03 52.6099 39.4 53.0599 36.31 53.8299C32.73 54.3499 29.45 55.7099 26.04 56.4099C17.35 58.1899 9.75005 56.6899 4.58005 55.0999C4.01005 54.9199 3.47001 54.7499 2.97001 54.5699C1.57001 54.0999 0.140037 55.2099 0.500037 56.4999C0.600037 56.8499 0.670028 57.1799 0.740028 57.5099C0.810028 57.8299 0.87003 58.1399 0.93003 58.4499C0.97003 58.7299 1.02003 58.9899 1.06003 59.2699C1.07003 59.4699 1.10003 59.6699 1.12003 59.8799C1.15003 60.2299 1.16001 60.5699 1.16001 60.9299C1.16001 61.2799 1.15003 61.6199 1.12003 61.9799C1.11003 62.1799 1.08003 62.3799 1.06003 62.5899C1.02003 62.8699 0.97003 63.1299 0.93003 63.4099C0.87003 63.7099 0.820028 64.0299 0.740028 64.3499C0.700028 64.5099 0.670042 64.6799 0.630042 64.8399C0.600042 64.9999 0.540037 65.1799 0.500037 65.3599C0.140037 66.6599 1.57001 67.7599 2.97001 67.2899C3.01001 67.2799 3.04005 67.2599 3.08005 67.2499C3.55005 67.0999 4.05005 66.9299 4.58005 66.7699C9.75005 65.1699 17.35 63.6599 26.04 65.4399C29.45 66.1399 32.73 67.4999 36.31 68.0199C39.41 68.7899 43.03 69.2399 46.93 69.2399C58.2 69.2399 67.3301 65.5199 67.3301 60.9199C67.3301 56.3299 58.19 52.6099 46.92 52.6099Z" fill="#E8EDEB"/>
<path d="M7.52006 60.9299V60.9399C7.52006 62.8999 5.91005 65.2099 4.58005 66.7699C4.05005 66.9299 3.55005 67.0999 3.08005 67.2499C3.04005 67.2599 3.01001 67.2799 2.97001 67.2899C1.57001 67.7599 0.140037 66.6599 0.500037 65.3599C0.540037 65.1799 0.600042 65.0099 0.630042 64.8399C0.670042 64.6799 0.700028 64.51 0.740028 64.35C0.810028 64.03 0.87003 63.7199 0.93003 63.4099C0.97003 63.1299 1.02003 62.8699 1.06003 62.5899C1.07003 62.3899 1.10003 62.1899 1.12003 61.9799C1.15003 61.6299 1.16001 61.2799 1.16001 60.9299C1.16001 60.5799 1.15003 60.2399 1.12003 59.8799C1.11003 59.6799 1.08003 59.4799 1.06003 59.2699C1.02003 58.9899 0.97003 58.7299 0.93003 58.4499C0.87003 58.1499 0.820028 57.8299 0.740028 57.5099C0.670028 57.1799 0.600037 56.8499 0.500037 56.4999C0.140037 55.2099 1.57001 54.1 2.97001 54.57C3.47001 54.75 4.01005 54.92 4.58005 55.1C4.78005 55.33 4.99004 55.5899 5.19004 55.8599C6.36004 57.3499 7.52006 59.2599 7.52006 60.9299Z" fill="#333333"/>
</svg>
