<svg width="75" height="122" viewBox="0 0 75 122" fill="none" xmlns="http://www.w3.org/2000/svg">
<path d="M63.9502 74.7499C63.5002 75.5599 62.8702 76.3899 62.0902 77.2499C62.0902 77.2499 62.0902 77.2499 62.0902 77.2599C61.4502 77.9599 60.7102 78.6899 59.9002 79.4399C58.9702 80.2999 57.9402 81.1899 56.8402 82.0899C55.8302 82.9199 52.4702 82.8199 51.8602 81.9399C50.7402 80.3199 49.0702 78.2399 46.9802 76.3899C44.9902 74.6399 38.1402 69.9699 38.3502 67.4599C38.3802 66.9999 38.4202 66.5699 38.4602 66.1599C38.4702 66.0899 38.4702 66.0099 38.4802 65.9399C38.8602 62.2399 39.3202 60.9099 39.3202 60.9099L55.6202 60.9199C55.6202 60.9199 57.0902 64.7199 63.1002 69.4999C64.9602 70.9699 65.0202 72.7799 63.9502 74.7499Z" fill="#E8EDEB"/>
<path d="M59.9002 79.4299C58.9702 80.2899 57.9402 81.1799 56.8402 82.0799C55.8302 82.9099 52.4702 82.8099 51.8602 81.9299C50.7402 80.3099 49.0702 78.2299 46.9802 76.3799C44.9902 74.6299 38.1402 69.9599 38.3502 67.4499C38.3802 66.9899 38.4202 66.5599 38.4602 66.1499C38.4702 66.0799 38.4702 65.9999 38.4802 65.9299C40.2902 67.8599 43.8602 71.1299 49.0602 73.4299C55.0102 76.0699 58.2202 78.1199 59.9002 79.4299Z" fill="#333333"/>
<path d="M63.9502 47.0698C63.5002 46.2598 62.8702 45.4298 62.0902 44.5698C62.0902 44.5698 62.0902 44.5698 62.0902 44.5598C61.4502 43.8598 60.7102 43.1298 59.9002 42.3798C58.9702 41.5198 57.9402 40.6298 56.8402 39.7298C55.8302 38.8998 52.4702 38.9998 51.8602 39.8798C50.7402 41.4998 49.0702 43.5798 46.9802 45.4298C44.9902 47.1798 38.1402 51.8498 38.3502 54.3598C38.3802 54.8198 38.4202 55.2498 38.4602 55.6598C38.4702 55.7298 38.4702 55.8098 38.4802 55.8798C38.8602 59.5798 39.3202 60.9098 39.3202 60.9098L55.6202 60.8998C55.6202 60.8998 57.0902 57.0998 63.1002 52.3198C64.9602 50.8398 65.0202 49.0398 63.9502 47.0698Z" fill="#E8EDEB"/>
<path d="M59.9002 42.3798C58.9702 41.5198 57.9402 40.6298 56.8402 39.7298C55.8302 38.8998 52.4702 38.9998 51.8602 39.8798C50.7402 41.4998 49.0702 43.5798 46.9802 45.4298C44.9902 47.1798 38.1402 51.8498 38.3502 54.3598C38.3802 54.8198 38.4202 55.2498 38.4602 55.6598C38.4702 55.7298 38.4702 55.8098 38.4802 55.8798C40.2902 53.9498 43.8602 50.6798 49.0602 48.3798C55.0102 45.7498 58.2202 43.6998 59.9002 42.3798Z" fill="#333333"/>
<path d="M74.0601 59.8699L64.6401 58.1699V60.9199V63.6699L74.0601 61.9699C75.2301 61.7599 75.2301 60.0799 74.0601 59.8699Z" fill="#F7931E"/>
<path d="M46.8701 52.6099C42.9801 52.6099 39.3501 53.0599 36.2601 53.8299C32.6801 54.3499 29.4001 55.7099 25.9901 56.4099C17.3001 58.1899 9.70013 56.6899 4.53013 55.0999C3.96013 54.9199 3.42008 54.7499 2.92008 54.5699C1.52008 54.0999 0.0901105 55.2099 0.450111 56.4999C0.550111 56.8499 0.620101 57.1799 0.690101 57.5099C0.760101 57.8299 0.820103 58.1399 0.880103 58.4499C0.920103 58.7299 0.970108 58.9899 1.01011 59.2699C1.02011 59.4699 1.05011 59.6699 1.07011 59.8799C1.10011 60.2299 1.11008 60.5699 1.11008 60.9299C1.11008 61.2799 1.10011 61.6199 1.07011 61.9799C1.06011 62.1799 1.03011 62.3799 1.01011 62.5899C0.970108 62.8699 0.920103 63.1299 0.880103 63.4099C0.820103 63.7099 0.770101 64.0299 0.690101 64.3499C0.650101 64.5099 0.620115 64.6799 0.580115 64.8399C0.550115 64.9999 0.490111 65.1799 0.450111 65.3599C0.0901105 66.6599 1.52008 67.7599 2.92008 67.2899C2.96008 67.2799 2.99013 67.2599 3.03013 67.2499C3.50013 67.0999 4.00013 66.9299 4.53013 66.7699C9.70013 65.1699 17.3001 63.6599 25.9901 65.4399C29.4001 66.1399 32.6801 67.4999 36.2601 68.0199C39.3601 68.7899 42.9801 69.2399 46.8801 69.2399C58.1501 69.2399 67.2801 65.5199 67.2801 60.9199C67.2701 56.3299 58.1401 52.6099 46.8701 52.6099Z" fill="#E8EDEB"/>
<path d="M7.46012 60.9299V60.9399C7.46012 62.8999 5.85012 65.2099 4.52012 66.7699C3.99012 66.9299 3.49012 67.0999 3.02012 67.2499C2.98012 67.2599 2.95007 67.2799 2.91007 67.2899C1.51007 67.7599 0.0801007 66.6599 0.440101 65.3599C0.480101 65.1799 0.540106 65.0099 0.570106 64.8399C0.610106 64.6799 0.640091 64.51 0.680091 64.35C0.750091 64.03 0.810093 63.7199 0.870093 63.4099C0.910093 63.1299 0.960098 62.8699 1.0001 62.5899C1.0101 62.3899 1.0401 62.1899 1.0601 61.9799C1.0901 61.6299 1.10007 61.2799 1.10007 60.9299C1.10007 60.5799 1.0901 60.2399 1.0601 59.8799C1.0501 59.6799 1.0201 59.4799 1.0001 59.2699C0.960098 58.9899 0.910093 58.7299 0.870093 58.4499C0.810093 58.1499 0.760091 57.8299 0.680091 57.5099C0.610091 57.1799 0.540101 56.8499 0.440101 56.4999C0.0801007 55.2099 1.51007 54.1 2.91007 54.57C3.41007 54.75 3.95012 54.92 4.52012 55.1C4.72012 55.33 4.9301 55.5899 5.1301 55.8599C6.3101 57.3499 7.46012 59.2599 7.46012 60.9299Z" fill="#333333"/>
</svg>
