<svg width="76" height="122" viewBox="0 0 76 122" fill="none" xmlns="http://www.w3.org/2000/svg">
<path d="M64.3601 80.3399C63.9101 81.4699 63.2801 82.6499 62.5001 83.8499C62.5001 83.8499 62.5001 83.8499 62.5001 83.8599C61.8601 84.8499 61.1201 85.8599 60.3101 86.9199C59.3801 88.1299 58.3501 89.3799 57.2501 90.6399C56.2401 91.7999 52.8801 91.6599 52.2701 90.4299C51.1501 88.1599 49.4801 85.2299 47.3901 82.6299C45.4001 80.1699 38.5501 73.6099 38.7601 70.0899C38.7901 69.4399 38.8301 68.8299 38.8701 68.2599C38.8801 68.1599 38.8801 68.0499 38.8901 67.9499C39.2701 62.7499 39.7301 60.8799 39.7301 60.8799L56.0301 60.8899C56.0301 60.8899 57.5001 66.2199 63.5001 72.9499C65.3601 75.0399 65.4201 77.5799 64.3601 80.3399Z" fill="#E8EDEB"/>
<path d="M60.3101 86.92C59.3801 88.13 58.3501 89.38 57.2501 90.64C56.2401 91.8 52.8801 91.6599 52.2701 90.4299C51.1501 88.1599 49.4801 85.23 47.3901 82.63C45.4001 80.17 38.5501 73.61 38.7601 70.09C38.7901 69.44 38.8301 68.83 38.8701 68.26C38.8801 68.16 38.8801 68.05 38.8901 67.95C40.7001 70.66 44.2701 75.25 49.4701 78.48C55.4101 82.2 58.6201 85.08 60.3101 86.92Z" fill="#333333"/>
<path d="M64.3601 41.4698C63.9101 40.3398 63.2801 39.1598 62.5001 37.9598C62.5001 37.9598 62.5001 37.9598 62.5001 37.9498C61.8601 36.9598 61.1201 35.9498 60.3101 34.8898C59.3801 33.6798 58.3501 32.4298 57.2501 31.1698C56.2401 30.0098 52.8801 30.1498 52.2701 31.3798C51.1501 33.6498 49.4801 36.5798 47.3901 39.1798C45.4001 41.6398 38.5501 48.1998 38.7601 51.7198C38.7901 52.3698 38.8301 52.9798 38.8701 53.5498C38.8801 53.6498 38.8801 53.7598 38.8901 53.8598C39.2701 59.0598 39.7301 60.9298 39.7301 60.9298L56.0301 60.9198C56.0301 60.9198 57.5001 55.5898 63.5001 48.8598C65.3601 46.7698 65.4201 44.2398 64.3601 41.4698Z" fill="#E8EDEB"/>
<path d="M60.3101 34.8898C59.3801 33.6798 58.3501 32.4298 57.2501 31.1698C56.2401 30.0098 52.8801 30.1498 52.2701 31.3798C51.1501 33.6498 49.4801 36.5798 47.3901 39.1798C45.4001 41.6398 38.5501 48.1998 38.7601 51.7198C38.7901 52.3698 38.8301 52.9798 38.8701 53.5498C38.8801 53.6498 38.8801 53.7598 38.8901 53.8598C40.7001 51.1498 44.2701 46.5598 49.4701 43.3298C55.4101 39.6198 58.6201 36.7398 60.3101 34.8898Z" fill="#333333"/>
<path d="M74.47 59.8699L65.05 58.1699V60.9199V63.6699L74.47 61.9699C75.64 61.7599 75.64 60.0799 74.47 59.8699Z" fill="#F7931E"/>
<path d="M47.2701 52.6099C43.3801 52.6099 39.7501 53.0599 36.6601 53.8299C33.0801 54.3499 29.8001 55.7099 26.3901 56.4099C17.7001 58.1899 10.1 56.6899 4.93003 55.0999C4.36003 54.9199 3.82004 54.7499 3.32004 54.5699C1.92004 54.0999 0.490011 55.2099 0.850011 56.4999C0.950011 56.8499 1.02006 57.1799 1.09006 57.5099C1.16006 57.8299 1.22006 58.1399 1.28006 58.4499C1.32006 58.7299 1.37001 58.9899 1.41001 59.2699C1.42001 59.4699 1.45001 59.6699 1.47001 59.8799C1.50001 60.2299 1.51005 60.5699 1.51005 60.9299C1.51005 61.2799 1.50001 61.6199 1.47001 61.9799C1.46001 62.1799 1.43001 62.3799 1.41001 62.5899C1.37001 62.8699 1.32006 63.1299 1.28006 63.4099C1.22006 63.7099 1.17006 64.0299 1.09006 64.3499C1.05006 64.5099 1.02002 64.6799 0.980016 64.8399C0.950016 64.9999 0.890011 65.1799 0.850011 65.3599C0.490011 66.6599 1.92004 67.7599 3.32004 67.2899C3.36004 67.2799 3.39003 67.2599 3.43003 67.2499C3.90003 67.0999 4.40003 66.9299 4.93003 66.7699C10.1 65.1699 17.7001 63.6599 26.3901 65.4399C29.8001 66.1399 33.0801 67.4999 36.6601 68.0199C39.7601 68.7899 43.3801 69.2399 47.2801 69.2399C58.5501 69.2399 67.6801 65.5199 67.6801 60.9199C67.6801 56.3299 58.5401 52.6099 47.2701 52.6099Z" fill="#E8EDEB"/>
<path d="M7.87003 60.9299V60.9399C7.87003 62.8999 6.26003 65.2099 4.93003 66.7699C4.40003 66.9299 3.90003 67.0999 3.43003 67.2499C3.39003 67.2599 3.36004 67.2799 3.32004 67.2899C1.92004 67.7599 0.490011 66.6599 0.850011 65.3599C0.890011 65.1799 0.950016 65.0099 0.980016 64.8399C1.02002 64.6799 1.05006 64.51 1.09006 64.35C1.16006 64.03 1.22006 63.7199 1.28006 63.4099C1.32006 63.1299 1.37001 62.8699 1.41001 62.5899C1.42001 62.3899 1.45001 62.1899 1.47001 61.9799C1.50001 61.6299 1.51005 61.2799 1.51005 60.9299C1.51005 60.5799 1.50001 60.2399 1.47001 59.8799C1.46001 59.6799 1.43001 59.4799 1.41001 59.2699C1.37001 58.9899 1.32006 58.7299 1.28006 58.4499C1.22006 58.1499 1.17006 57.8299 1.09006 57.5099C1.02006 57.1799 0.950011 56.8499 0.850011 56.4999C0.490011 55.2099 1.92004 54.1 3.32004 54.57C3.82004 54.75 4.36003 54.92 4.93003 55.1C5.13003 55.33 5.34001 55.5899 5.54001 55.8599C6.71001 57.3499 7.87003 59.2599 7.87003 60.9299Z" fill="#333333"/>
</svg>
