<svg width="75" height="122" viewBox="0 0 75 122" fill="none" xmlns="http://www.w3.org/2000/svg">
<path d="M63.5999 88.6199C63.1499 90.2399 62.52 91.9099 61.74 93.6199C61.74 93.6199 61.74 93.6199 61.74 93.6399C61.1 95.0399 60.36 96.4999 59.55 97.9999C58.62 99.7199 57.59 101.51 56.49 103.31C55.48 104.97 52.12 104.76 51.51 103.01C50.39 99.7699 48.72 95.5899 46.63 91.8899C44.64 88.3799 37.79 79.0299 38 74.0199C38.03 73.0899 38.0699 72.2299 38.1099 71.4199C38.1199 71.2699 38.12 71.1199 38.13 70.9799C38.51 63.5599 38.9699 60.8999 38.9699 60.8999L55.27 60.9199C55.27 60.9199 56.74 68.5299 62.75 78.1099C64.61 81.0599 64.6699 84.6699 63.5999 88.6199Z" fill="#E8EDEB"/>
<path d="M59.56 98C58.63 99.72 57.6 101.51 56.5 103.31C55.49 104.97 52.13 104.76 51.52 103.01C50.4 99.77 48.73 95.59 46.64 91.89C44.65 88.38 37.8 79.03 38.01 74.02C38.04 73.09 38.08 72.23 38.12 71.42C38.13 71.27 38.13 71.12 38.14 70.98C39.95 74.84 43.5199 81.39 48.7199 85.99C54.6599 91.26 57.87 95.37 59.56 98Z" fill="#333333"/>
<path d="M63.5999 33.1999C63.1499 31.5799 62.52 29.9099 61.74 28.1999C61.74 28.1999 61.74 28.1999 61.74 28.1799C61.1 26.7799 60.36 25.3199 59.55 23.8199C58.62 22.0999 57.59 20.3099 56.49 18.5099C55.48 16.8499 52.12 17.0599 51.51 18.8099C50.39 22.0499 48.72 26.2299 46.63 29.9299C44.64 33.4399 37.79 42.7899 38 47.7999C38.03 48.7299 38.0699 49.5899 38.1099 50.3999C38.1199 50.5499 38.12 50.6999 38.13 50.8399C38.51 58.2599 38.9699 60.9199 38.9699 60.9199L55.27 60.8999C55.27 60.8999 56.74 53.2899 62.75 43.7099C64.61 40.7499 64.6699 37.1399 63.5999 33.1999Z" fill="#E8EDEB"/>
<path d="M59.56 23.8199C58.63 22.0999 57.6 20.3099 56.5 18.5099C55.49 16.8499 52.13 17.0599 51.52 18.8099C50.4 22.0499 48.73 26.2299 46.64 29.9299C44.65 33.4399 37.8 42.7899 38.01 47.7999C38.04 48.7299 38.08 49.5899 38.12 50.3999C38.13 50.5499 38.13 50.6999 38.14 50.8399C39.95 46.9799 43.5199 40.4299 48.7199 35.8299C54.6599 30.5499 57.87 26.4499 59.56 23.8199Z" fill="#333333"/>
<path d="M73.72 59.8699L64.3 58.1699V60.9199V63.6699L73.72 61.9699C74.89 61.7599 74.89 60.0799 73.72 59.8699Z" fill="#F7931E"/>
<path d="M46.5201 52.6099C42.6301 52.6099 39.0001 53.0599 35.9101 53.8299C32.3301 54.3499 29.0501 55.7099 25.6401 56.4099C16.9501 58.1899 9.35009 56.6899 4.18009 55.0999C3.61009 54.9199 3.06998 54.7499 2.56998 54.5699C1.16998 54.0999 -0.259987 55.2099 0.100013 56.4999C0.200013 56.8499 0.270003 57.1799 0.340003 57.5099C0.410003 57.8299 0.470067 58.1399 0.530067 58.4499C0.570067 58.7299 0.620071 58.9899 0.660071 59.2699C0.670071 59.4699 0.700008 59.6699 0.720008 59.8799C0.750008 60.2299 0.760047 60.5699 0.760047 60.9299C0.760047 61.2799 0.750008 61.6199 0.720008 61.9799C0.710008 62.1799 0.680071 62.3799 0.660071 62.5899C0.620071 62.8699 0.570067 63.1299 0.530067 63.4099C0.470067 63.7099 0.420003 64.0299 0.340003 64.3499C0.300003 64.5099 0.270018 64.6799 0.230018 64.8399C0.200018 64.9999 0.140013 65.1799 0.100013 65.3599C-0.259987 66.6599 1.16998 67.7599 2.56998 67.2899C2.60998 67.2799 2.64009 67.2599 2.68009 67.2499C3.15009 67.0999 3.65009 66.9299 4.18009 66.7699C9.35009 65.1699 16.9501 63.6599 25.6401 65.4399C29.0501 66.1399 32.3301 67.4999 35.9101 68.0199C39.0101 68.7899 42.6301 69.2399 46.5301 69.2399C57.8001 69.2399 66.9301 65.5199 66.9301 60.9199C66.9301 56.3299 57.7901 52.6099 46.5201 52.6099Z" fill="#E8EDEB"/>
<path d="M7.12003 60.9299V60.9399C7.12003 62.8999 5.51009 65.2099 4.18009 66.7699C3.65009 66.9299 3.15009 67.0999 2.68009 67.2499C2.64009 67.2599 2.60998 67.2799 2.56998 67.2899C1.16998 67.7599 -0.259987 66.6599 0.100013 65.3599C0.140013 65.1799 0.200018 65.0099 0.230018 64.8399C0.270018 64.6799 0.300003 64.51 0.340003 64.35C0.410003 64.03 0.470067 63.7199 0.530067 63.4099C0.570067 63.1299 0.620071 62.8699 0.660071 62.5899C0.670071 62.3899 0.700008 62.1899 0.720008 61.9799C0.750008 61.6299 0.760047 61.2799 0.760047 60.9299C0.760047 60.5799 0.750008 60.2399 0.720008 59.8799C0.710008 59.6799 0.680071 59.4799 0.660071 59.2699C0.620071 58.9899 0.570067 58.7299 0.530067 58.4499C0.470067 58.1499 0.420003 57.8299 0.340003 57.5099C0.270003 57.1799 0.200013 56.8499 0.100013 56.4999C-0.259987 55.2099 1.16998 54.1 2.56998 54.57C3.06998 54.75 3.61009 54.92 4.18009 55.1C4.38009 55.33 4.59008 55.5899 4.79008 55.8599C5.96008 57.3499 7.12003 59.2599 7.12003 60.9299Z" fill="#333333"/>
</svg>
