<svg width="75" height="122" viewBox="0 0 75 122" fill="none" xmlns="http://www.w3.org/2000/svg">
<path d="M63.5799 93.4899C63.1299 95.3899 62.4999 97.3599 61.7199 99.3699C61.7199 99.3699 61.7199 99.3699 61.7199 99.3899C61.0799 101.04 60.34 102.75 59.53 104.52C58.6 106.55 57.5699 108.64 56.4699 110.76C55.4599 112.71 52.1 112.47 51.49 110.41C50.37 106.61 48.6999 101.69 46.6099 97.3299C44.6199 93.2099 37.7699 82.2099 37.9799 76.3199C38.0099 75.2299 38.0499 74.2099 38.0899 73.2599C38.0999 73.0899 38.0999 72.9099 38.1099 72.7499C38.4899 64.0299 38.9499 60.8999 38.9499 60.8999L55.25 60.9199C55.25 60.9199 56.7199 69.8599 62.7299 81.1299C64.5899 84.6099 64.6499 88.8499 63.5799 93.4899Z" fill="#E8EDEB"/>
<path d="M59.53 104.52C58.6 106.55 57.5699 108.64 56.4699 110.76C55.4599 112.71 52.1 112.47 51.49 110.41C50.37 106.61 48.6999 101.69 46.6099 97.33C44.6199 93.21 37.7699 82.21 37.9799 76.32C38.0099 75.23 38.0499 74.21 38.0899 73.26C38.0999 73.09 38.0999 72.91 38.1099 72.75C39.9199 77.29 43.4899 84.99 48.6899 90.4C54.6399 96.6 57.85 101.43 59.53 104.52Z" fill="#333333"/>
<path d="M63.5799 28.32C63.1299 26.42 62.4999 24.45 61.7199 22.44C61.7199 22.44 61.7199 22.44 61.7199 22.42C61.0799 20.77 60.34 19.06 59.53 17.29C58.6 15.26 57.5699 13.17 56.4699 11.05C55.4599 9.10001 52.1 9.34 51.49 11.4C50.37 15.2 48.6999 20.12 46.6099 24.48C44.6199 28.6 37.7699 39.6 37.9799 45.49C38.0099 46.58 38.0499 47.6 38.0899 48.55C38.0999 48.72 38.0999 48.9 38.1099 49.06C38.4899 57.78 38.9499 60.91 38.9499 60.91L55.25 60.89C55.25 60.89 56.7199 51.95 62.7299 40.68C64.5899 37.21 64.6499 32.96 63.5799 28.32Z" fill="#E8EDEB"/>
<path d="M59.53 17.29C58.6 15.26 57.5699 13.17 56.4699 11.05C55.4599 9.10001 52.1 9.34 51.49 11.4C50.37 15.2 48.6999 20.12 46.6099 24.48C44.6199 28.6 37.7699 39.6 37.9799 45.49C38.0099 46.58 38.0499 47.6 38.0899 48.55C38.0999 48.72 38.0999 48.9 38.1099 49.06C39.9199 44.52 43.4899 36.82 48.6899 31.41C54.6399 25.21 57.85 20.39 59.53 17.29Z" fill="#333333"/>
<path d="M73.6899 59.8702L64.27 58.1702V60.9202V63.6702L73.6899 61.9702C74.8599 61.7602 74.8599 60.0802 73.6899 59.8702Z" fill="#F7931E"/>
<path d="M46.5 52.6101C42.61 52.6101 38.98 53.0601 35.89 53.8301C32.31 54.3501 29.03 55.7101 25.62 56.4101C16.93 58.1901 9.33007 56.6901 4.16007 55.1001C3.59007 54.9201 3.05008 54.7501 2.55008 54.5701C1.15008 54.1001 -0.280011 55.2101 0.0799895 56.5001C0.179989 56.8501 0.24998 57.1801 0.31998 57.5101C0.38998 57.8301 0.450043 58.1401 0.510043 58.4501C0.550043 58.7301 0.600048 58.9901 0.640048 59.2701C0.650048 59.4701 0.679985 59.6701 0.699985 59.8801C0.729985 60.2301 0.740024 60.5701 0.740024 60.9301C0.740024 61.2801 0.729985 61.6201 0.699985 61.9801C0.689985 62.1801 0.660048 62.3801 0.640048 62.5901C0.600048 62.8701 0.550043 63.1301 0.510043 63.4101C0.450043 63.7101 0.39998 64.0301 0.31998 64.3501C0.27998 64.5101 0.249994 64.6801 0.209994 64.8401C0.179994 65.0001 0.119989 65.1801 0.0799895 65.3601C-0.280011 66.6601 1.15008 67.7601 2.55008 67.2901C2.59008 67.2801 2.62007 67.2601 2.66007 67.2501C3.13007 67.1001 3.63007 66.9301 4.16007 66.7701C9.33007 65.1701 16.93 63.6601 25.62 65.4401C29.03 66.1401 32.31 67.5001 35.89 68.0201C38.99 68.7901 42.61 69.2401 46.51 69.2401C57.78 69.2401 66.9101 65.5201 66.9101 60.9201C66.9001 56.3301 57.77 52.6101 46.5 52.6101Z" fill="#E8EDEB"/>
<path d="M7.09 60.9302V60.9402C7.09 62.9002 5.48006 65.2102 4.15006 66.7702C3.62006 66.9302 3.12006 67.1002 2.65006 67.2502C2.61006 67.2602 2.58007 67.2802 2.54007 67.2902C1.14007 67.7602 -0.29002 66.6602 0.0699797 65.3602C0.10998 65.1802 0.169985 65.0102 0.199985 64.8402C0.239985 64.6802 0.270092 64.5102 0.310092 64.3502C0.380092 64.0302 0.440033 63.7202 0.500033 63.4102C0.540033 63.1302 0.590038 62.8702 0.630038 62.5902C0.640038 62.3902 0.669975 62.1902 0.689975 61.9802C0.719975 61.6302 0.730014 61.2802 0.730014 60.9302C0.730014 60.5802 0.719975 60.2402 0.689975 59.8802C0.679975 59.6802 0.650038 59.4802 0.630038 59.2702C0.590038 58.9902 0.540033 58.7302 0.500033 58.4502C0.440033 58.1502 0.390092 57.8302 0.310092 57.5102C0.240092 57.1802 0.16998 56.8502 0.0699797 56.5002C-0.29002 55.2102 1.14007 54.1002 2.54007 54.5702C3.04007 54.7502 3.58006 54.9202 4.15006 55.1002C4.35006 55.3302 4.56004 55.5902 4.76004 55.8602C5.94004 57.3502 7.09 59.2602 7.09 60.9302Z" fill="#333333"/>
</svg>
