<svg width="375" height="164" viewBox="0 0 375 164" fill="none" xmlns="http://www.w3.org/2000/svg">
<path d="M22.4895 134.67C20.1552 134.67 18.258 132.76 18.258 130.41V33.73C18.258 31.38 20.1552 29.47 22.4895 29.47H39.1969C41.5312 29.47 43.4284 31.38 43.4284 33.73V130.41C43.4284 132.76 41.5312 134.67 39.1969 134.67H22.4895Z" fill="#2BA446"/>
<path d="M39.1969 30.75C40.8358 30.75 42.1569 32.09 42.1569 33.73V130.41C42.1569 132.06 40.8259 133.39 39.1969 133.39H22.4894C20.8505 133.39 19.5294 132.05 19.5294 130.41V33.73C19.5294 32.08 20.8604 30.75 22.4894 30.75H39.1969ZM39.1969 28.2H22.4894C19.4499 28.2 16.9865 30.68 16.9865 33.74V130.42C16.9865 133.48 19.4499 135.96 22.4894 135.96H39.1969C42.2364 135.96 44.6998 133.48 44.6998 130.42V33.74C44.6998 30.67 42.2364 28.2 39.1969 28.2Z" fill="#009443"/>
<path d="M30.8431 133.99C32.7797 133.99 34.3495 132.41 34.3495 130.46C34.3495 128.51 32.7797 126.93 30.8431 126.93C28.9066 126.93 27.3368 128.51 27.3368 130.46C27.3368 132.41 28.9066 133.99 30.8431 133.99Z" fill="#59CC44"/>
<path d="M30.8431 37.1801C32.7797 37.1801 34.3495 35.5996 34.3495 33.65C34.3495 31.7005 32.7797 30.12 30.8431 30.12C28.9066 30.12 27.3368 31.7005 27.3368 33.65C27.3368 35.5996 28.9066 37.1801 30.8431 37.1801Z" fill="#59CC44"/>
<path d="M30.8432 35.6501C29.7108 35.6501 28.7274 34.8001 28.5784 33.6401L25.668 10.3001C25.5091 9.04009 26.4031 7.89002 27.6546 7.73002C28.9062 7.57002 30.0485 8.46002 30.2074 9.73002L33.1178 33.07C33.2768 34.33 32.3828 35.4801 31.1312 35.6401C31.0319 35.6401 30.9326 35.6501 30.8432 35.6501Z" fill="#008A73"/>
<path d="M27.9427 156.44C27.8434 156.44 27.754 156.43 27.6546 156.42C26.4031 156.26 25.519 155.11 25.668 153.85L28.5784 130.51C28.7373 129.25 29.8796 128.36 31.1312 128.51C32.3828 128.67 33.2668 129.82 33.1178 131.08L30.2074 154.42C30.0584 155.59 29.0751 156.44 27.9427 156.44Z" fill="#008A73"/>
<path d="M55.5864 134.67C53.2522 134.67 51.3549 132.76 51.3549 130.41V33.73C51.3549 31.38 53.2522 29.47 55.5864 29.47H77.8365C80.1708 29.47 82.068 31.38 82.068 33.73V130.41C82.068 132.76 80.1708 134.67 77.8365 134.67H55.5864Z" fill="#2BA446"/>
<path d="M77.8365 30.75C79.4755 30.75 80.7965 32.09 80.7965 33.73V130.41C80.7965 132.06 79.4655 133.39 77.8365 133.39H55.5864C53.9475 133.39 52.6264 132.05 52.6264 130.41V33.73C52.6264 32.08 53.9574 30.75 55.5864 30.75H77.8365ZM77.8365 28.2H55.5864C52.5469 28.2 50.0835 30.68 50.0835 33.74V130.42C50.0835 133.48 52.5469 135.96 55.5864 135.96H77.8365C80.876 135.96 83.3394 133.48 83.3394 130.42V33.74C83.3394 30.67 80.876 28.2 77.8365 28.2Z" fill="#009443"/>
<path d="M66.7115 133.99C68.648 133.99 70.2179 132.41 70.2179 130.46C70.2179 128.51 68.648 126.93 66.7115 126.93C64.775 126.93 63.2051 128.51 63.2051 130.46C63.2051 132.41 64.775 133.99 66.7115 133.99Z" fill="#59CC44"/>
<path d="M66.7115 37.1801C68.648 37.1801 70.2179 35.5996 70.2179 33.65C70.2179 31.7005 68.648 30.12 66.7115 30.12C64.775 30.12 63.2051 31.7005 63.2051 33.65C63.2051 35.5996 64.775 37.1801 66.7115 37.1801Z" fill="#59CC44"/>
<path d="M66.7015 35.6501C65.5294 35.6501 64.5361 34.7501 64.4268 33.5501L62.5097 11.74C62.4005 10.48 63.3243 9.36004 64.5858 9.25004C65.8373 9.14004 66.9498 10.07 67.0591 11.34L68.9762 33.1501C69.0855 34.4101 68.1617 35.5301 66.9002 35.6401C66.8406 35.6501 66.771 35.6501 66.7015 35.6501Z" fill="#008A73"/>
<path d="M64.7844 154.9C64.7149 154.9 64.6454 154.9 64.5758 154.89C63.3243 154.78 62.3905 153.66 62.4998 152.4L64.4169 130.59C64.5262 129.33 65.6387 128.4 66.8902 128.5C68.1418 128.61 69.0755 129.73 68.9662 130.99L67.0492 152.8C66.9598 154 65.9565 154.9 64.7844 154.9Z" fill="#008A73"/>
<path d="M94.0472 134.67C91.8024 134.67 89.9846 132.84 89.9846 130.58V33.5601C89.9846 31.3001 91.8123 29.47 94.0472 29.47H110.546C112.791 29.47 114.609 31.3101 114.609 33.5601V130.58C114.609 132.84 112.781 134.67 110.546 134.67H94.0472Z" fill="#2BA446"/>
<path d="M110.556 30.75C112.096 30.75 113.347 32.0101 113.347 33.5601V130.58C113.347 132.13 112.096 133.39 110.556 133.39H94.0572C92.5176 133.39 91.266 132.13 91.266 130.58V33.5601C91.266 32.0101 92.5176 30.75 94.0572 30.75H110.556ZM110.556 28.2H94.0572C91.117 28.2 88.7231 30.5999 88.7231 33.5699V130.59C88.7231 133.55 91.1071 135.96 94.0572 135.96H110.556C113.496 135.96 115.89 133.56 115.89 130.59V33.5699C115.88 30.5999 113.496 28.2 110.556 28.2Z" fill="#009443"/>
<path d="M102.302 133.99C104.238 133.99 105.808 132.41 105.808 130.46C105.808 128.51 104.238 126.93 102.302 126.93C100.365 126.93 98.7953 128.51 98.7953 130.46C98.7953 132.41 100.365 133.99 102.302 133.99Z" fill="#59CC44"/>
<path d="M102.302 37.1801C104.238 37.1801 105.808 35.5996 105.808 33.65C105.808 31.7005 104.238 30.12 102.302 30.12C100.365 30.12 98.7953 31.7005 98.7953 33.65C98.7953 35.5996 100.365 37.1801 102.302 37.1801Z" fill="#59CC44"/>
<path d="M102.302 35.65C101.11 35.65 100.106 34.72 100.027 33.51L98.5966 12.92C98.5072 11.65 99.4608 10.5499 100.712 10.4699C101.974 10.3899 103.066 11.3399 103.146 12.5999L104.576 33.1899C104.666 34.4599 103.712 35.56 102.461 35.64C102.401 35.65 102.351 35.65 102.302 35.65Z" fill="#008A73"/>
<path d="M100.871 153.69C100.822 153.69 100.762 153.69 100.712 153.68C99.4508 153.59 98.5072 152.49 98.5966 151.23L100.027 130.64C100.116 129.37 101.199 128.42 102.461 128.51C103.722 128.6 104.666 129.7 104.576 130.96L103.146 151.55C103.066 152.76 102.063 153.69 100.871 153.69Z" fill="#008A73"/>
<path d="M126.767 134.67C124.522 134.67 122.704 132.84 122.704 130.58V33.5601C122.704 31.3001 124.532 29.47 126.767 29.47H143.266C145.511 29.47 147.328 31.3101 147.328 33.5601V130.58C147.328 132.84 145.501 134.67 143.266 134.67H126.767Z" fill="#2BA446"/>
<path d="M143.266 30.75C144.805 30.75 146.057 32.0101 146.057 33.5601V130.58C146.057 132.13 144.805 133.39 143.266 133.39H126.767C125.227 133.39 123.976 132.13 123.976 130.58V33.5601C123.976 32.0101 125.227 30.75 126.767 30.75H143.266ZM143.266 28.2H126.767C123.827 28.2 121.433 30.5999 121.433 33.5699V130.59C121.433 133.55 123.817 135.96 126.767 135.96H143.266C146.206 135.96 148.6 133.56 148.6 130.59V33.5699C148.6 30.5999 146.216 28.2 143.266 28.2Z" fill="#009443"/>
<path d="M135.111 133.99C137.047 133.99 138.617 132.41 138.617 130.46C138.617 128.51 137.047 126.93 135.111 126.93C133.174 126.93 131.604 128.51 131.604 130.46C131.604 132.41 133.174 133.99 135.111 133.99Z" fill="#59CC44"/>
<path d="M135.111 37.1801C137.047 37.1801 138.617 35.5996 138.617 33.65C138.617 31.7005 137.047 30.12 135.111 30.12C133.174 30.12 131.604 31.7005 131.604 33.65C131.604 35.5996 133.174 37.1801 135.111 37.1801Z" fill="#59CC44"/>
<path d="M135.111 35.65C133.859 35.65 132.836 34.64 132.826 33.37L132.637 14.4C132.627 13.13 133.64 12.09 134.902 12.08C134.912 12.08 134.922 12.08 134.922 12.08C136.173 12.08 137.197 13.09 137.206 14.36L137.395 33.33C137.405 34.6 136.392 35.64 135.13 35.65C135.12 35.65 135.12 35.65 135.111 35.65Z" fill="#008A73"/>
<path d="M134.922 152.07C134.912 152.07 134.902 152.07 134.902 152.07C133.64 152.06 132.627 151.02 132.637 149.75L132.826 130.78C132.836 129.52 133.859 128.5 135.111 128.5C135.12 128.5 135.13 128.5 135.13 128.5C136.392 128.51 137.405 129.55 137.395 130.82L137.206 149.79C137.197 151.05 136.173 152.07 134.922 152.07Z" fill="#008A73"/>
<path d="M197.798 134.67C195.722 134.67 194.034 132.97 194.034 130.88V33.25C194.034 31.16 195.722 29.46 197.798 29.46H215.39C217.466 29.46 219.154 31.16 219.154 33.25V130.88C219.154 132.97 217.466 134.67 215.39 134.67H197.798Z" fill="#2BA446"/>
<path d="M215.39 30.75C216.76 30.75 217.883 31.88 217.883 33.26V130.89C217.883 132.27 216.76 133.4 215.39 133.4H197.798C196.427 133.4 195.305 132.27 195.305 130.89V33.26C195.305 31.88 196.427 30.75 197.798 30.75H215.39M215.39 28.2H197.798C195.017 28.2 192.772 30.47 192.772 33.26V130.89C192.772 133.69 195.027 135.95 197.798 135.95H215.39C218.171 135.95 220.416 133.68 220.416 130.89V33.26C220.416 30.46 218.171 28.2 215.39 28.2Z" fill="#009443"/>
<path d="M206.589 133.99C208.525 133.99 210.095 132.41 210.095 130.46C210.095 128.51 208.525 126.93 206.589 126.93C204.652 126.93 203.083 128.51 203.083 130.46C203.083 132.41 204.652 133.99 206.589 133.99Z" fill="#59CC44"/>
<path d="M206.589 37.1801C208.525 37.1801 210.095 35.5996 210.095 33.65C210.095 31.7005 208.525 30.12 206.589 30.12C204.652 30.12 203.083 31.7005 203.083 33.65C203.083 35.5996 204.652 37.1801 206.589 37.1801Z" fill="#59CC44"/>
<path d="M206.589 35.65C205.327 35.65 204.304 34.62 204.304 33.35V14.92C204.304 13.65 205.327 12.62 206.589 12.62C207.85 12.62 208.874 13.65 208.874 14.92V33.35C208.874 34.62 207.85 35.65 206.589 35.65Z" fill="#008A73"/>
<path d="M206.589 151.53C205.327 151.53 204.304 150.5 204.304 149.23V130.8C204.304 129.53 205.327 128.5 206.589 128.5C207.85 128.5 208.874 129.53 208.874 130.8V149.23C208.874 150.5 207.85 151.53 206.589 151.53Z" fill="#008A73"/>
<path d="M159.864 134.67C157.53 134.67 155.632 132.76 155.632 130.41V33.73C155.632 31.38 157.53 29.47 159.864 29.47H182.114C184.448 29.47 186.345 31.38 186.345 33.73V130.41C186.345 132.76 184.448 134.67 182.114 134.67H159.864Z" fill="#2BA446"/>
<path d="M182.124 30.75C183.763 30.75 185.084 32.09 185.084 33.73V130.41C185.084 132.06 183.753 133.39 182.124 133.39H159.874C158.235 133.39 156.914 132.05 156.914 130.41V33.73C156.914 32.08 158.245 30.75 159.874 30.75H182.124ZM182.124 28.2H159.874C156.834 28.2 154.371 30.68 154.371 33.74V130.42C154.371 133.48 156.834 135.96 159.874 135.96H182.124C185.163 135.96 187.627 133.48 187.627 130.42V33.74C187.617 30.67 185.163 28.2 182.124 28.2Z" fill="#009443"/>
<path d="M170.999 133.99C172.935 133.99 174.505 132.41 174.505 130.46C174.505 128.51 172.935 126.93 170.999 126.93C169.062 126.93 167.492 128.51 167.492 130.46C167.492 132.41 169.062 133.99 170.999 133.99Z" fill="#59CC44"/>
<path d="M170.999 37.1801C172.935 37.1801 174.505 35.5996 174.505 33.65C174.505 31.7005 172.935 30.12 170.999 30.12C169.062 30.12 167.492 31.7005 167.492 33.65C167.492 35.5996 169.062 37.1801 170.999 37.1801Z" fill="#59CC44"/>
<path d="M170.999 35.65C169.737 35.65 168.714 34.62 168.714 33.35V14.79C168.714 13.52 169.737 12.49 170.999 12.49C172.26 12.49 173.283 13.52 173.283 14.79V33.35C173.273 34.62 172.26 35.65 170.999 35.65Z" fill="#008A73"/>
<path d="M170.999 151.65C169.737 151.65 168.714 150.62 168.714 149.35V130.79C168.714 129.52 169.737 128.49 170.999 128.49C172.26 128.49 173.283 129.52 173.283 130.79V149.35C173.273 150.62 172.26 151.65 170.999 151.65Z" fill="#008A73"/>
<path d="M351.791 134.67C354.125 134.67 356.022 132.76 356.022 130.41V33.73C356.022 31.38 354.125 29.47 351.791 29.47H335.083C332.749 29.47 330.852 31.38 330.852 33.73V130.41C330.852 132.76 332.749 134.67 335.083 134.67H351.791Z" fill="#2BA446"/>
<path d="M335.083 30.75H351.791C353.43 30.75 354.751 32.09 354.751 33.73V130.41C354.751 132.06 353.42 133.39 351.791 133.39H335.083C333.444 133.39 332.123 132.05 332.123 130.41V33.73C332.113 32.09 333.444 30.75 335.083 30.75ZM335.083 28.2C332.044 28.2 329.58 30.68 329.58 33.74V130.42C329.58 133.48 332.044 135.96 335.083 135.96H351.791C354.83 135.96 357.294 133.48 357.294 130.42V33.74C357.294 30.68 354.83 28.2 351.791 28.2H335.083Z" fill="#009443"/>
<path d="M343.437 133.99C345.373 133.99 346.943 132.41 346.943 130.46C346.943 128.51 345.373 126.93 343.437 126.93C341.5 126.93 339.931 128.51 339.931 130.46C339.931 132.41 341.5 133.99 343.437 133.99Z" fill="#59CC44"/>
<path d="M343.437 37.1801C345.373 37.1801 346.943 35.5996 346.943 33.65C346.943 31.7005 345.373 30.12 343.437 30.12C341.5 30.12 339.931 31.7005 339.931 33.65C339.931 35.5996 341.5 37.1801 343.437 37.1801Z" fill="#59CC44"/>
<path d="M343.437 35.6501C344.569 35.6501 345.553 34.8001 345.702 33.6401L348.612 10.3001C348.771 9.04009 347.877 7.89002 346.625 7.73002C345.374 7.57002 344.232 8.46002 344.073 9.73002L341.162 33.07C341.003 34.33 341.897 35.4801 343.149 35.6401C343.248 35.6401 343.338 35.6501 343.437 35.6501Z" fill="#008A73"/>
<path d="M346.337 156.44C346.437 156.44 346.526 156.43 346.625 156.42C347.877 156.26 348.761 155.11 348.612 153.85L345.702 130.51C345.543 129.25 344.4 128.36 343.149 128.51C341.897 128.67 341.013 129.82 341.162 131.08L344.073 154.42C344.222 155.59 345.205 156.44 346.337 156.44Z" fill="#008A73"/>
<path d="M318.694 134.67C321.028 134.67 322.925 132.76 322.925 130.41V33.73C322.925 31.38 321.028 29.47 318.694 29.47H296.444C294.109 29.47 292.212 31.38 292.212 33.73V130.41C292.212 132.76 294.109 134.67 296.444 134.67H318.694Z" fill="#2BA446"/>
<path d="M296.444 30.75H318.694C320.333 30.75 321.654 32.09 321.654 33.73V130.41C321.654 132.06 320.323 133.39 318.694 133.39H296.444C294.805 133.39 293.484 132.05 293.484 130.41V33.73C293.484 32.09 294.815 30.75 296.444 30.75ZM296.444 28.2C293.404 28.2 290.941 30.68 290.941 33.74V130.42C290.941 133.48 293.404 135.96 296.444 135.96H318.694C321.733 135.96 324.197 133.48 324.197 130.42V33.74C324.197 30.68 321.733 28.2 318.694 28.2H296.444Z" fill="#009443"/>
<path d="M307.569 133.99C309.505 133.99 311.075 132.41 311.075 130.46C311.075 128.51 309.505 126.93 307.569 126.93C305.632 126.93 304.062 128.51 304.062 130.46C304.062 132.41 305.632 133.99 307.569 133.99Z" fill="#59CC44"/>
<path d="M307.569 37.1801C309.505 37.1801 311.075 35.5996 311.075 33.65C311.075 31.7005 309.505 30.12 307.569 30.12C305.632 30.12 304.062 31.7005 304.062 33.65C304.062 35.5996 305.632 37.1801 307.569 37.1801Z" fill="#59CC44"/>
<path d="M307.579 35.6501C308.751 35.6501 309.744 34.7501 309.853 33.5501L311.77 11.74C311.88 10.48 310.956 9.36004 309.694 9.25004C308.443 9.14004 307.33 10.07 307.221 11.34L305.304 33.1501C305.195 34.4101 306.118 35.5301 307.38 35.6401C307.439 35.6501 307.509 35.6501 307.579 35.6501Z" fill="#008A73"/>
<path d="M309.486 154.9C309.555 154.9 309.625 154.9 309.694 154.89C310.946 154.78 311.88 153.66 311.77 152.4L309.853 130.59C309.744 129.33 308.631 128.4 307.38 128.5C306.128 128.61 305.195 129.73 305.304 130.99L307.221 152.8C307.32 154 308.324 154.9 309.486 154.9Z" fill="#008A73"/>
<path d="M280.233 134.67C282.478 134.67 284.295 132.84 284.295 130.58V33.5601C284.295 31.3001 282.468 29.47 280.233 29.47H263.724C261.479 29.47 259.661 31.3101 259.661 33.5601V130.58C259.661 132.84 261.489 134.67 263.724 134.67H280.233Z" fill="#2BA446"/>
<path d="M263.724 30.75H280.223C281.762 30.75 283.014 32.0101 283.014 33.5601V130.58C283.014 132.13 281.762 133.39 280.223 133.39H263.724C262.184 133.39 260.933 132.13 260.933 130.58V33.5601C260.933 32.0101 262.184 30.75 263.724 30.75ZM263.724 28.2C260.784 28.2 258.39 30.5999 258.39 33.5699V130.59C258.39 133.55 260.774 135.96 263.724 135.96H280.223C283.163 135.96 285.557 133.56 285.557 130.59V33.5699C285.557 30.6099 283.173 28.2 280.223 28.2H263.724Z" fill="#009443"/>
<path d="M271.978 133.99C273.915 133.99 275.485 132.41 275.485 130.46C275.485 128.51 273.915 126.93 271.978 126.93C270.042 126.93 268.472 128.51 268.472 130.46C268.472 132.41 270.042 133.99 271.978 133.99Z" fill="#59CC44"/>
<path d="M271.978 37.1801C273.915 37.1801 275.485 35.5996 275.485 33.65C275.485 31.7005 273.915 30.12 271.978 30.12C270.042 30.12 268.472 31.7005 268.472 33.65C268.472 35.5996 270.042 37.1801 271.978 37.1801Z" fill="#59CC44"/>
<path d="M271.978 35.65C273.17 35.65 274.174 34.72 274.253 33.51L275.683 12.92C275.773 11.65 274.819 10.5499 273.568 10.4699C272.306 10.3899 271.213 11.3399 271.134 12.5999L269.704 33.1899C269.614 34.4599 270.568 35.56 271.819 35.64C271.869 35.65 271.929 35.65 271.978 35.65Z" fill="#008A73"/>
<path d="M273.409 153.69C273.458 153.69 273.518 153.69 273.568 153.68C274.829 153.59 275.773 152.49 275.683 151.23L274.253 130.64C274.164 129.37 273.081 128.42 271.819 128.51C270.558 128.6 269.614 129.7 269.704 130.96L271.134 151.55C271.214 152.76 272.217 153.69 273.409 153.69Z" fill="#008A73"/>
<path d="M247.513 134.67C249.758 134.67 251.576 132.84 251.576 130.58V33.5601C251.576 31.3001 249.748 29.47 247.513 29.47H231.014C228.77 29.47 226.952 31.3101 226.952 33.5601V130.58C226.952 132.84 228.779 134.67 231.014 134.67H247.513Z" fill="#2BA446"/>
<path d="M231.014 30.75H247.513C249.053 30.75 250.304 32.0101 250.304 33.5601V130.58C250.304 132.13 249.053 133.39 247.513 133.39H231.014C229.475 133.39 228.223 132.13 228.223 130.58V33.5601C228.213 32.0101 229.465 30.75 231.014 30.75ZM231.014 28.2C228.074 28.2 225.68 30.5999 225.68 33.5699V130.59C225.68 133.55 228.064 135.96 231.014 135.96H247.513C250.453 135.96 252.847 133.56 252.847 130.59V33.5699C252.847 30.6099 250.463 28.2 247.513 28.2H231.014Z" fill="#009443"/>
<path d="M239.169 133.99C241.106 133.99 242.676 132.41 242.676 130.46C242.676 128.51 241.106 126.93 239.169 126.93C237.233 126.93 235.663 128.51 235.663 130.46C235.663 132.41 237.233 133.99 239.169 133.99Z" fill="#59CC44"/>
<path d="M239.169 37.1801C241.106 37.1801 242.676 35.5996 242.676 33.65C242.676 31.7005 241.106 30.12 239.169 30.12C237.233 30.12 235.663 31.7005 235.663 33.65C235.663 35.5996 237.233 37.1801 239.169 37.1801Z" fill="#59CC44"/>
<path d="M239.169 35.65C240.421 35.65 241.444 34.64 241.454 33.37L241.643 14.4C241.653 13.13 240.64 12.09 239.378 12.08C239.368 12.08 239.358 12.08 239.358 12.08C238.107 12.08 237.084 13.09 237.074 14.36L236.885 33.33C236.875 34.6 237.888 35.64 239.15 35.65C239.15 35.65 239.159 35.65 239.169 35.65Z" fill="#008A73"/>
<path d="M239.348 152.07C239.358 152.07 239.368 152.07 239.368 152.07C240.63 152.06 241.643 151.02 241.633 149.75L241.444 130.78C241.434 129.52 240.411 128.5 239.159 128.5C239.15 128.5 239.14 128.5 239.14 128.5C237.878 128.51 236.865 129.55 236.875 130.82L237.064 149.79C237.084 151.05 238.107 152.07 239.348 152.07Z" fill="#008A73"/>
<path d="M8.28513 8.75C9.05991 8.81 87.3623 14.9301 188.709 14.9301C294.427 14.9301 365.29 8.81 365.995 8.75" stroke="#04C041" stroke-width="6.6" stroke-miterlimit="10"/>
<path d="M8.28513 155.39C9.05991 155.33 87.3623 149.21 188.709 149.21C294.427 149.21 365.29 155.33 365.995 155.39" stroke="#04C041" stroke-width="6.6" stroke-miterlimit="10"/>
<path d="M8.28515 15.67C4.50065 15.67 1.41147 12.56 1.41147 8.75C1.41147 4.93 4.49072 1.82996 8.28515 1.82996C9.45725 1.82996 10.6095 2.12995 11.6227 2.69995C13.5993 3.79995 14.9105 5.80995 15.129 8.06995C15.1489 8.30995 15.1588 8.54 15.1588 8.75C15.1588 9.37 15.0794 9.98006 14.9204 10.5601C14.1159 13.5701 11.3843 15.67 8.28515 15.67Z" fill="#21A145"/>
<path d="M8.28521 3.10999C9.23878 3.10999 10.1824 3.34995 11.0168 3.81995C12.626 4.71995 13.6888 6.34994 13.8676 8.18994C13.8875 8.38994 13.8974 8.58 13.8974 8.75C13.8974 9.26 13.8279 9.74998 13.6987 10.23C13.0432 12.68 10.8181 14.39 8.28521 14.39C5.19602 14.39 2.68295 11.86 2.68295 8.73999C2.68295 5.61999 5.19602 3.10999 8.28521 3.10999ZM8.28521 0.550049C3.78552 0.550049 0.150024 4.22 0.150024 8.75C0.150024 13.28 3.79546 16.95 8.28521 16.95C12.0498 16.95 15.2086 14.39 16.1423 10.9C16.331 10.22 16.4303 9.5 16.4303 8.75C16.4303 8.48 16.4105 8.20994 16.3906 7.93994C16.1224 5.19994 14.5232 2.84996 12.2485 1.57996C11.0665 0.919956 9.7255 0.550049 8.28521 0.550049Z" fill="#008A73"/>
<path d="M8.28515 162.32C4.49072 162.32 1.41147 159.21 1.41147 155.4C1.41147 151.59 4.50065 148.48 8.28515 148.48C12.0796 148.48 15.1588 151.59 15.1588 155.4C15.1588 159.21 12.0796 162.32 8.28515 162.32Z" fill="#21A145"/>
<path d="M8.28513 149.75C11.3743 149.75 13.8874 152.28 13.8874 155.39C13.8874 158.5 11.3743 161.03 8.28513 161.03C5.19595 161.03 2.68288 158.5 2.68288 155.39C2.68288 152.28 5.19595 149.75 8.28513 149.75ZM8.28513 147.2C3.78545 147.2 0.140015 150.87 0.140015 155.4C0.140015 159.93 3.78545 163.6 8.28513 163.6C12.7848 163.6 16.4303 159.93 16.4303 155.4C16.4303 150.87 12.7848 147.2 8.28513 147.2Z" fill="#008A73"/>
<path d="M365.995 162.32C362.2 162.32 359.121 159.21 359.121 155.4C359.121 151.59 362.21 148.48 365.995 148.48C369.789 148.48 372.869 151.59 372.869 155.4C372.869 159.21 369.779 162.32 365.995 162.32Z" fill="#21A145"/>
<path d="M365.995 149.75C369.084 149.75 371.597 152.28 371.597 155.39C371.597 158.5 369.084 161.03 365.995 161.03C362.906 161.03 360.393 158.5 360.393 155.39C360.393 152.28 362.896 149.75 365.995 149.75ZM365.995 147.2C361.495 147.2 357.85 150.87 357.85 155.4C357.85 159.93 361.495 163.6 365.995 163.6C370.495 163.6 374.14 159.93 374.14 155.4C374.14 150.87 370.485 147.2 365.995 147.2Z" fill="#008A73"/>
<path d="M365.995 15.67C362.2 15.67 359.121 12.56 359.121 8.75C359.121 4.93 362.21 1.82996 365.995 1.82996C369.789 1.82996 372.869 4.94 372.869 8.75C372.869 12.57 369.779 15.67 365.995 15.67Z" fill="#21A145"/>
<path d="M365.995 3.10999C369.084 3.10999 371.597 5.64 371.597 8.75C371.597 11.86 369.084 14.39 365.995 14.39C362.906 14.39 360.393 11.86 360.393 8.75C360.393 5.64 362.896 3.10999 365.995 3.10999ZM365.995 0.550049C361.495 0.550049 357.85 4.22 357.85 8.75C357.85 13.28 361.495 16.95 365.995 16.95C370.495 16.95 374.14 13.28 374.14 8.75C374.14 4.22 370.485 0.550049 365.995 0.550049Z" fill="#008A73"/>
</svg>
