<svg width="109" height="110" viewBox="0 0 109 110" fill="none" xmlns="http://www.w3.org/2000/svg">
<path opacity="0.3" d="M102.49 54.87C102.49 81.43 80.8799 103.03 54.3199 103.03C27.7599 103.03 6.15991 81.43 6.15991 54.87C6.15991 28.31 27.7599 6.70001 54.3199 6.70001C80.8799 6.70001 102.49 28.31 102.49 54.87Z" fill="#D2E6F7"/>
<path d="M54.3199 14.7C76.4699 14.7 94.4899 32.72 94.4899 54.87C94.4899 77.02 76.4699 95.04 54.3199 95.04C32.1699 95.04 14.1499 77.02 14.1499 54.87C14.1599 32.72 32.1699 14.7 54.3199 14.7ZM54.3199 3.70001C26.0599 3.70001 3.1499 26.61 3.1499 54.87C3.1499 83.13 26.0599 106.04 54.3199 106.04C82.5799 106.04 105.49 83.13 105.49 54.87C105.49 26.61 82.5799 3.70001 54.3199 3.70001Z" fill="#99CFF7"/>
<path d="M54.3199 9.70001C79.2199 9.70001 99.4899 29.96 99.4899 54.87C99.4899 79.78 79.2299 100.04 54.3199 100.04C29.4099 100.04 9.1499 79.78 9.1499 54.87C9.1499 29.96 29.4199 9.70001 54.3199 9.70001ZM54.3199 3.70001C26.0599 3.70001 3.1499 26.61 3.1499 54.87C3.1499 83.13 26.0599 106.04 54.3199 106.04C82.5799 106.04 105.49 83.13 105.49 54.87C105.49 26.61 82.5799 3.70001 54.3199 3.70001Z" fill="#48AFF7"/>
<path d="M54.3199 0.700012C24.4599 0.700012 0.159912 25 0.159912 54.87C0.159912 84.74 24.4599 109.03 54.3199 109.03C84.1899 109.03 108.49 84.74 108.49 54.87C108.49 25 84.1899 0.700012 54.3199 0.700012ZM54.3199 103.03C27.7599 103.03 6.15992 81.43 6.15992 54.87C6.15992 28.31 27.7599 6.70001 54.3199 6.70001C80.8799 6.70001 102.49 28.31 102.49 54.87C102.49 81.43 80.8799 103.03 54.3199 103.03Z" fill="#C6E2F7"/>
<path d="M81.3999 87.8C80.5799 87.8 79.7699 87.47 79.1699 86.81C78.0599 85.58 78.1499 83.68 79.3799 82.57C87.1999 75.5 91.6799 65.4 91.6799 54.86C91.6799 53.2 93.0199 51.86 94.6799 51.86C96.3399 51.86 97.6799 53.2 97.6799 54.86C97.6799 67.09 92.4799 78.81 83.4099 87.02C82.8399 87.55 82.1199 87.8 81.3999 87.8Z" fill="#D9EEFF"/>
<path d="M17.68 40.92C17.26 40.92 16.83 40.83 16.42 40.64C14.92 39.94 14.26 38.16 14.96 36.66C18.28 29.49 23.51 23.35 30.08 18.91C31.45 17.98 33.32 18.34 34.25 19.72C35.18 21.09 34.82 22.96 33.44 23.89C27.78 27.71 23.27 33 20.41 39.19C19.89 40.27 18.81 40.92 17.68 40.92Z" fill="#D9EEFF"/>
<path d="M39.4098 19.8C38.1998 19.8 37.0498 19.06 36.5998 17.85C36.0198 16.3 36.8098 14.57 38.3598 13.99L39.5398 13.55C41.0898 12.97 42.8198 13.75 43.3998 15.31C43.9798 16.86 43.1898 18.59 41.6398 19.17L40.4598 19.61C40.1098 19.74 39.7598 19.8 39.4098 19.8Z" fill="#D9EEFF"/>
<path d="M84.6098 51.75C82.2898 63.7 71.8298 73.83 62.6798 79.81L54.3198 85.25L45.9698 79.81C44.4498 78.81 42.8898 77.71 41.3398 76.49C33.5698 70.41 25.9698 61.71 24.0298 51.75C21.7798 40.2 30.0098 31.71 38.6898 31.71C43.0298 31.71 46.9498 33.47 49.7898 36.31C51.3098 37.83 52.5098 39.66 53.3098 41.69C53.4898 42.15 53.8998 42.37 54.3098 42.37C54.7198 42.37 55.1398 42.14 55.3098 41.69C56.0998 39.65 57.3098 37.82 58.8298 36.31C60.1698 34.97 61.7498 33.87 63.5098 33.09C63.7398 32.98 63.9698 32.89 64.2098 32.79C64.2298 32.78 64.2598 32.78 64.2798 32.76C64.5098 32.68 64.7398 32.59 64.9798 32.51C64.9998 32.5 65.0098 32.5 65.0298 32.49C65.2798 32.41 65.5398 32.33 65.7898 32.26C66.0498 32.19 66.3198 32.12 66.5898 32.06C67.0498 31.96 67.5298 31.88 68.0198 31.82C68.1198 31.81 68.2198 31.79 68.3198 31.79C68.5798 31.76 68.8498 31.74 69.1198 31.73C69.3898 31.72 69.6498 31.71 69.9298 31.71C78.6298 31.71 86.8598 40.19 84.6098 51.75Z" fill="#6DCFF7"/>
<path d="M69.9498 38.47C72.1698 38.47 74.4498 39.62 76.0298 41.54C77.9498 43.87 78.6398 47.03 77.9698 50.46C75.6398 62.44 62.8398 71.62 58.9898 74.14L54.3198 77.18L49.6698 74.15C48.2298 73.21 46.8298 72.21 45.5098 71.17C40.7498 67.44 32.4798 59.79 30.6698 50.46C29.9998 47.04 30.6898 43.87 32.6098 41.54C34.1898 39.62 36.4598 38.48 38.6898 38.48C41.0798 38.48 43.3198 39.41 45.0098 41.09C45.8798 41.96 46.5698 43.02 47.0098 44.14C48.1898 47.18 51.0498 49.14 54.3098 49.14C57.5698 49.14 60.4398 47.18 61.6198 44.15C62.0698 43 62.7398 41.98 63.6198 41.1C64.3898 40.33 65.2898 39.71 66.2798 39.27L66.3398 39.24L66.3998 39.21C66.4698 39.18 66.5298 39.15 66.5998 39.13C66.6498 39.11 66.6998 39.09 66.7498 39.07L66.7998 39.05C66.8798 39.02 66.9498 38.99 67.0698 38.95C67.1298 38.93 67.1898 38.91 67.2398 38.89C67.3398 38.86 67.4398 38.83 67.5398 38.8L67.6098 38.78L67.6798 38.76C67.8198 38.72 67.9598 38.69 68.0598 38.67C68.3098 38.61 68.5598 38.57 68.7898 38.55L68.8698 38.54L68.9198 38.53L69.0298 38.52C69.1698 38.51 69.3098 38.49 69.4698 38.49C69.6498 38.48 69.7998 38.47 69.9498 38.47ZM69.9498 31.71C69.6798 31.71 69.4098 31.72 69.1398 31.73C68.8698 31.74 68.5998 31.76 68.3398 31.79C68.2398 31.8 68.1398 31.81 68.0398 31.82C67.5598 31.87 67.0798 31.96 66.6098 32.06C66.3398 32.12 66.0698 32.18 65.8098 32.26C65.5498 32.33 65.2998 32.4 65.0498 32.49C65.0298 32.5 65.0198 32.5 64.9998 32.51C64.7598 32.59 64.5298 32.67 64.2998 32.76C64.2798 32.77 64.2498 32.78 64.2298 32.79C63.9898 32.89 63.7598 32.98 63.5298 33.09C61.7698 33.88 60.1898 34.97 58.8498 36.31C57.3298 37.83 56.1198 39.66 55.3298 41.69C55.1498 42.15 54.7398 42.37 54.3298 42.37C53.9198 42.37 53.5098 42.14 53.3298 41.69C52.5298 39.65 51.3198 37.82 49.8098 36.31C46.9598 33.47 43.0398 31.71 38.7098 31.71C30.0298 31.71 21.7998 40.19 24.0498 51.75C25.9798 61.71 33.5798 70.41 41.3598 76.49C42.9098 77.71 44.4698 78.81 45.9898 79.81L54.3398 85.25L62.6998 79.81C71.8398 73.83 82.3098 63.7 84.6298 51.75C86.8598 40.19 78.6298 31.71 69.9498 31.71Z" fill="#48AFF7"/>
<path d="M69.9498 35.57C73.0298 35.57 76.1398 37.11 78.2698 39.69C80.7498 42.7 81.6498 46.72 80.8198 51C78.2798 64.09 64.6798 73.88 60.5798 76.56L54.3298 80.63L48.0898 76.57C46.5898 75.58 45.1198 74.53 43.7298 73.44C38.6498 69.46 29.8198 61.25 27.8398 51C27.0098 46.71 27.9098 42.69 30.3898 39.68C32.5198 37.1 35.6198 35.56 38.7098 35.56C41.8698 35.56 44.8398 36.79 47.0798 39.02C48.2398 40.18 49.1398 41.55 49.7298 43.07C50.4698 44.98 52.2798 46.22 54.3298 46.22C56.3898 46.22 58.1898 44.98 58.9298 43.07C59.5198 41.55 60.4098 40.18 61.5898 39.02C62.6098 38 63.7998 37.18 65.1098 36.59L65.1398 36.57L65.1698 36.55C65.2998 36.49 65.4398 36.43 65.5798 36.38C65.6298 36.36 65.6798 36.34 65.7198 36.33L65.8198 36.3C65.9298 36.26 66.0498 36.22 66.1898 36.17C66.2398 36.15 66.2898 36.14 66.3398 36.12C66.4998 36.07 66.6598 36.02 66.8198 35.98L66.8598 35.97L66.8998 35.96C67.0898 35.91 67.2898 35.86 67.4598 35.82C67.8098 35.74 68.1598 35.68 68.4898 35.65L68.5398 35.64L68.5898 35.63L68.6598 35.62H68.6998L68.7698 35.61C68.9598 35.59 69.1498 35.58 69.3698 35.56C69.5498 35.58 69.7498 35.57 69.9498 35.57ZM69.9498 31.71C69.6798 31.71 69.4098 31.72 69.1398 31.73C68.8698 31.74 68.5998 31.76 68.3398 31.79C68.2398 31.8 68.1398 31.81 68.0398 31.82C67.5598 31.87 67.0798 31.96 66.6098 32.06C66.3398 32.12 66.0698 32.18 65.8098 32.26C65.5498 32.33 65.2998 32.4 65.0498 32.49C65.0298 32.5 65.0198 32.5 64.9998 32.51C64.7598 32.59 64.5298 32.67 64.2998 32.76C64.2798 32.77 64.2498 32.78 64.2298 32.79C63.9898 32.89 63.7598 32.98 63.5298 33.09C61.7698 33.88 60.1898 34.97 58.8498 36.31C57.3298 37.83 56.1198 39.66 55.3298 41.69C55.1498 42.15 54.7398 42.37 54.3298 42.37C53.9198 42.37 53.5098 42.14 53.3298 41.69C52.5298 39.65 51.3198 37.82 49.8098 36.31C46.9598 33.47 43.0398 31.71 38.7098 31.71C30.0298 31.71 21.7998 40.19 24.0498 51.75C25.9798 61.71 33.5798 70.41 41.3598 76.49C42.9098 77.71 44.4698 78.81 45.9898 79.81L54.3398 85.25L62.6998 79.81C71.8398 73.83 82.3098 63.7 84.6298 51.75C86.8598 40.19 78.6298 31.71 69.9498 31.71Z" fill="#3E96D4"/>
<path d="M84.6098 51.75C82.2898 63.7 71.8298 73.83 62.6798 79.81L54.3198 85.25L45.9698 79.81C44.4498 78.81 42.8898 77.71 41.3398 76.49C33.5698 70.41 25.9698 61.71 24.0298 51.75C21.7798 40.2 30.0098 31.71 38.6898 31.71C43.0298 31.71 46.9498 33.47 49.7898 36.31C51.3098 37.83 52.5098 39.66 53.3098 41.69C53.4898 42.15 53.8998 42.37 54.3098 42.37C54.7198 42.37 55.1398 42.14 55.3098 41.69C56.0998 39.65 57.3098 37.82 58.8298 36.31C60.1698 34.97 61.7498 33.87 63.5098 33.09C63.7398 32.98 63.9698 32.89 64.2098 32.79C64.2298 32.78 64.2598 32.78 64.2798 32.76C64.5098 32.68 64.7398 32.59 64.9798 32.51C64.9998 32.5 65.0098 32.5 65.0298 32.49C65.2798 32.41 65.5398 32.33 65.7898 32.26C66.0498 32.19 66.3198 32.12 66.5898 32.06C67.0498 31.96 67.5298 31.88 68.0198 31.82C68.1198 31.81 68.2198 31.79 68.3198 31.79C68.5798 31.76 68.8498 31.74 69.1198 31.73C69.3898 31.72 69.6498 31.71 69.9298 31.71C78.6298 31.71 86.8598 40.19 84.6098 51.75Z" fill="#ED1C24"/>
<path d="M69.9499 31.71C69.6799 31.71 69.4099 31.72 69.1399 31.73C68.8699 31.74 68.5999 31.76 68.3399 31.79C68.3099 31.79 68.2799 31.8 68.2599 31.8C74.4099 34.33 80.8499 37.58 77.4199 49.4C71.4999 69.84 45.1399 79.24 45.1399 79.24C45.4099 79.43 45.6899 79.63 45.9599 79.8L54.3099 85.24L62.6699 79.8C71.8099 73.82 82.2799 63.69 84.5999 51.74C86.8599 40.19 78.6299 31.71 69.9499 31.71Z" fill="#B8151B"/>
<path d="M38.7498 46.74C36.7298 50.4 35.7698 54.57 33.5798 54.68C29.5398 54.88 28.2398 46.45 32.3898 41.29C37.1198 35.43 42.8398 37.63 42.9498 40.27C43.0598 42.54 41.1398 42.39 38.7498 46.74Z" fill="#FF5E64"/>
<path d="M39.2098 59.13C38.8498 58.37 38.2498 57.72 37.4698 57.41C36.6398 57.09 35.5198 57.09 34.3398 58.38C31.9898 60.98 36.0398 65.07 38.2298 64.17C40.2698 63.34 40.5998 62.04 39.2098 59.13Z" fill="#FF5E64"/>
<path d="M70.2997 41.66C71.3597 40.64 72.1297 39.5 72.2297 38.49C72.3397 37.42 71.7597 36.37 69.0297 36.43C63.5697 36.55 58.9397 44.01 61.5297 45.26C63.9397 46.43 66.2297 45.57 70.2997 41.66Z" fill="#FF5E64"/>
<path d="M63.6699 81.32C69.5399 77.48 83.4999 66.95 86.3799 52.09C87.5499 46.11 86.2199 40.43 82.6399 36.09C79.3999 32.16 74.7699 29.9 69.9499 29.9C69.6499 29.9 69.3499 29.91 69.0599 29.92C68.7499 29.94 68.4499 29.96 68.2499 29.98C68.0799 29.99 67.9599 30.01 67.8499 30.02C67.3099 30.08 66.7599 30.17 66.2099 30.3C65.9099 30.37 65.6099 30.44 65.3599 30.51C65.0599 30.59 64.7799 30.67 64.4699 30.77C64.2199 30.85 64.0499 30.91 63.8899 30.97L63.5899 31.08C63.2799 31.2 63.0199 31.31 62.7899 31.42C60.8299 32.3 59.0699 33.51 57.5599 35.02C56.4499 36.13 55.4899 37.37 54.7299 38.72L54.3099 39.45L53.8899 38.72C53.1199 37.38 52.1699 36.14 51.0599 35.02C47.7499 31.72 43.3499 29.9 38.6799 29.9C33.8499 29.9 29.2299 32.15 25.9899 36.08C22.4099 40.42 21.0799 46.1 22.2499 52.09C24.5899 64.15 34.5099 73.44 40.2099 77.91C41.7199 79.09 43.3199 80.24 44.9699 81.32L53.3199 86.76C53.9099 87.14 54.6999 87.14 55.2899 86.76L63.6699 81.32ZM46.9599 78.3C45.4099 77.28 43.8899 76.2 42.4499 75.07C37.1399 70.91 27.9199 62.31 25.7999 51.4C24.8499 46.5 25.9099 41.87 28.7899 38.38C31.2999 35.33 35.0099 33.51 38.6899 33.51C42.3999 33.51 45.8899 34.95 48.5199 37.58C49.8899 38.95 50.9399 40.55 51.6399 42.34C52.0699 43.46 53.1299 44.18 54.3199 44.18C55.5199 44.18 56.5799 43.46 57.0099 42.35C57.7099 40.56 58.7599 38.95 60.1299 37.59C61.3299 36.39 62.7399 35.43 64.3099 34.72C64.4799 34.64 64.6699 34.56 64.8599 34.49L65.4899 34.26C65.5499 34.24 65.5999 34.23 65.6499 34.21C65.8799 34.14 66.0799 34.08 66.3299 34.01C66.5499 33.95 66.7899 33.89 67.0099 33.84C67.4399 33.75 67.8599 33.68 68.3299 33.62L68.5499 33.6C68.7799 33.58 69.0099 33.56 69.2599 33.55C69.4899 33.54 69.7299 33.53 69.9699 33.53C73.6599 33.53 77.3599 35.35 79.8699 38.4C82.7499 41.89 83.8099 46.52 82.8499 51.41C80.1499 65.29 65.9899 75.5 61.7099 78.3L54.3399 83.1L46.9599 78.3Z" fill="white"/>
</svg>
