<svg width="45" height="86" viewBox="0 0 45 86" fill="none" xmlns="http://www.w3.org/2000/svg">
<path d="M33.5199 78.7395C33.1899 79.9195 32.8199 81.0195 32.4299 82.0095C32.0999 82.8395 31.7699 83.6095 31.4199 84.2595C31.3999 84.2995 31.3799 84.3395 31.3599 84.3695C30.3499 86.2395 27.4999 85.5895 27.3999 83.4795C27.3899 83.2095 27.3699 82.9395 27.3499 82.6595C27.3399 82.4395 27.3199 82.2095 27.2999 81.9795C27.2199 80.9295 27.0899 79.7995 26.8899 78.6195C26.8499 78.3695 26.8099 78.1095 26.7599 77.8495C26.6799 77.4095 26.5999 76.9695 26.4999 76.5195C26.4599 76.3395 26.4199 76.1595 26.3799 75.9695C26.1399 74.8795 25.8399 73.7595 25.4799 72.6195C25.3699 72.2895 25.2599 71.9495 25.1499 71.6195C24.8699 70.8195 24.5599 70.0095 24.2199 69.1895C24.0599 68.7895 23.8999 68.3995 23.7099 67.9995C21.1199 62.3295 20.5499 58.6895 20.7699 55.0395C20.8599 53.5595 21.0699 52.0695 21.3299 50.4395C21.7099 48.1395 22.9299 45.4295 25.3199 43.0995H34.4599L34.7299 50.3595C34.8499 53.4795 35.1199 56.6095 35.4899 59.7095C36.1899 65.3995 35.1799 72.9995 33.5199 78.7395Z" fill="#4A60C2"/>
<path d="M33.5199 78.7395C33.1899 79.9195 32.8199 81.0195 32.4299 82.0095C32.0999 82.8395 31.7699 83.6095 31.4199 84.2595C31.3999 84.2995 31.3799 84.3395 31.3599 84.3695C30.3499 86.2395 27.4999 85.5895 27.3999 83.4795C27.3899 83.2095 27.3699 82.9395 27.3499 82.6595C27.3399 82.4395 27.3199 82.2095 27.2999 81.9795C27.2199 80.9295 27.0899 79.7995 26.8899 78.6195C26.8499 78.3695 26.8099 78.1095 26.7599 77.8495C26.6799 77.4095 26.5999 76.9695 26.4999 76.5195C26.4599 76.3395 26.4199 76.1595 26.3799 75.9695C26.1399 74.8795 25.8399 73.7595 25.4799 72.6195C25.3699 72.2895 25.2599 71.9495 25.1499 71.6195C24.8699 70.8195 24.5599 70.0095 24.2199 69.1895C24.0599 68.7895 23.8999 68.3995 23.7099 67.9995C21.1199 62.3295 20.5499 58.6895 20.7699 55.0395C21.9399 57.2795 23.3799 59.7695 25.1499 62.5695C27.6699 66.5395 30.8199 72.3395 33.5199 78.7395Z" fill="#14368A"/>
<path d="M33.5199 7.45951C33.1899 6.27951 32.8199 5.17949 32.4299 4.18949C32.0999 3.35949 31.7699 2.58949 31.4199 1.93949C31.3999 1.89949 31.3799 1.85951 31.3599 1.82951C30.3499 -0.040493 27.4999 0.609461 27.3999 2.71946C27.3899 2.98946 27.3699 3.25947 27.3499 3.53947C27.3399 3.75947 27.3199 3.98946 27.2999 4.21946C27.2199 5.26946 27.0899 6.39951 26.8899 7.57951C26.8499 7.82951 26.8099 8.08947 26.7599 8.34947C26.6799 8.78947 26.5999 9.22948 26.4999 9.67948C26.4599 9.85948 26.4199 10.0395 26.3799 10.2295C26.1399 11.3195 25.8399 12.4395 25.4799 13.5795C25.3699 13.9095 25.2599 14.2495 25.1499 14.5795C24.8699 15.3795 24.5599 16.1895 24.2199 17.0095C24.0599 17.4095 23.8999 17.7995 23.7099 18.1995C21.1199 23.8695 20.5499 27.5095 20.7699 31.1595C20.8599 32.6395 21.0699 34.1295 21.3299 35.7595C21.7099 38.0595 22.9299 40.7695 25.3199 43.0995H34.4599L34.7299 35.8395C34.8499 32.7195 35.1199 29.5895 35.4899 26.4895C36.1899 20.7995 35.1799 13.1995 33.5199 7.45951Z" fill="#4A60C2"/>
<path d="M33.5199 7.45951C33.1899 6.27951 32.8199 5.17949 32.4299 4.18949C32.0999 3.35949 31.7699 2.58949 31.4199 1.93949C31.3999 1.89949 31.3799 1.85951 31.3599 1.82951C30.3499 -0.040493 27.4999 0.609461 27.3999 2.71946C27.3899 2.98946 27.3699 3.25947 27.3499 3.53947C27.3399 3.75947 27.3199 3.98946 27.2999 4.21946C27.2199 5.26946 27.0899 6.39951 26.8899 7.57951C26.8499 7.82951 26.8099 8.08947 26.7599 8.34947C26.6799 8.78947 26.5999 9.22948 26.4999 9.67948C26.4599 9.85948 26.4199 10.0395 26.3799 10.2295C26.1399 11.3195 25.8399 12.4395 25.4799 13.5795C25.3699 13.9095 25.2599 14.2495 25.1499 14.5795C24.8699 15.3795 24.5599 16.1895 24.2199 17.0095C24.0599 17.4095 23.8999 17.7995 23.7099 18.1995C21.1199 23.8695 20.5499 27.5095 20.7699 31.1595C21.9399 28.9195 23.3799 26.4295 25.1499 23.6295C27.6699 19.6595 30.8199 13.8595 33.5199 7.45951Z" fill="#14368A"/>
<path d="M44.2099 43.5795C44.6799 43.4395 44.6799 42.7695 44.2099 42.6295L41.4099 41.8195V43.1095V44.3995L44.2099 43.5795Z" fill="#DBB805"/>
<path d="M29.7199 37.2595C27.1299 37.2595 24.7199 37.6295 22.7299 38.2595C20.0099 39.1295 17.2199 39.7595 14.3699 39.9495C11.2999 40.1595 7.83994 40.2895 6.23994 40.0695C5.49994 39.9695 4.75994 39.8395 4.03994 39.6895C3.84994 39.6495 3.66994 39.6095 3.48994 39.5595C3.07994 39.4595 2.67993 39.3595 2.27993 39.2395C2.04993 39.1795 1.81993 39.1095 1.58993 39.0295C1.54993 39.0295 1.50994 39.0095 1.46994 38.9995C0.719937 38.7595 0.159934 39.6795 0.669934 40.2495C0.679934 40.2695 0.689943 40.2795 0.709943 40.2995C1.21994 40.7995 1.63994 41.2295 1.98994 41.5895C2.99994 42.6395 3.38994 43.1095 3.38994 43.1095C3.38994 43.1095 3.04994 43.6195 2.12994 44.6195C2.11994 44.6395 2.09993 44.6595 2.08993 44.6695C1.98993 44.7695 1.88994 44.8795 1.78994 44.9895C1.77994 44.9995 1.77995 45.0095 1.75995 45.0195C1.60995 45.1795 1.43995 45.3595 1.25995 45.5395L0.959943 45.8395C0.379943 46.4095 0.949937 47.3695 1.71994 47.1295C2.29994 46.9495 2.88994 46.7895 3.48994 46.6495C3.74994 46.5795 4.01994 46.5195 4.28994 46.4695C5.03994 46.3195 5.78994 46.1995 6.54994 46.0995C8.30994 45.8695 12.6199 46.1495 16.0299 46.4795C18.3999 46.7095 20.7199 47.2595 22.9899 47.9495C24.9299 48.5395 27.2399 48.8795 29.7199 48.8795C36.5899 48.8795 42.1599 46.2795 42.1599 43.0695C42.1599 39.8595 36.5899 37.2595 29.7199 37.2595Z" fill="#4A60C2"/>
<path d="M3.86993 45.7995C3.72993 46.0895 3.59994 46.3795 3.48994 46.6495C2.88994 46.7895 2.29994 46.9495 1.71994 47.1295C0.949937 47.3695 0.379943 46.4095 0.959943 45.8395L1.25995 45.5395C1.43995 45.3595 1.60995 45.1795 1.75995 45.0195C1.77995 45.0095 1.77994 44.9995 1.78994 44.9895C1.87994 44.8995 1.94993 44.8195 2.02993 44.7395C2.04993 44.7195 2.06993 44.6995 2.08993 44.6695C2.09993 44.6595 2.11994 44.6395 2.12994 44.6195C2.85994 43.7295 2.79994 42.4295 1.98994 41.5895C1.63994 41.2295 1.21994 40.7995 0.709943 40.2995C0.689943 40.2795 0.679934 40.2695 0.669934 40.2495C0.159934 39.6795 0.719937 38.7595 1.46994 38.9995C1.50994 39.0095 1.54993 39.0295 1.58993 39.0295C1.81993 39.1095 2.04993 39.1795 2.27993 39.2395C2.67993 39.3595 3.07994 39.4595 3.48994 39.5595C3.59994 39.8395 3.72993 40.1295 3.86993 40.4095C4.69993 42.1095 4.69993 44.0995 3.86993 45.7995Z" fill="#14368A"/>
</svg>
