<svg width="46" height="86" viewBox="0 0 46 86" fill="none" xmlns="http://www.w3.org/2000/svg">
<path d="M33.9698 74.5695C33.6398 75.6095 33.2698 76.5795 32.8798 77.4595C32.5498 78.1895 32.2198 78.8695 31.8698 79.4495C31.8498 79.4895 31.8298 79.5195 31.8098 79.5495C30.7998 81.1995 27.9498 80.6295 27.8498 78.7595C27.8398 78.5195 27.8198 78.2795 27.7998 78.0395C27.7898 77.8495 27.7698 77.6395 27.7498 77.4395C27.6698 76.5095 27.5398 75.5195 27.3398 74.4695C27.2998 74.2495 27.2598 74.0195 27.2098 73.7895C27.1298 73.3995 27.0498 73.0095 26.9498 72.6195C26.9098 72.4595 26.8698 72.2995 26.8298 72.1295C26.5898 71.1695 26.2898 70.1795 25.9298 69.1695C25.8198 68.8795 25.7098 68.5795 25.5998 68.2895C25.3198 67.5795 25.0098 66.8695 24.6698 66.1395C24.5098 65.7895 24.3498 65.4395 24.1598 65.0895C21.5698 60.0795 20.9998 56.8695 21.2198 53.6495C21.3098 52.3395 21.5198 51.0295 21.7798 49.5895C22.1598 47.5595 23.3798 45.1695 25.7698 43.1095H34.9098L35.1798 49.5195C35.2998 52.2695 35.5698 55.0395 35.9398 57.7795C36.6398 62.7895 35.6298 69.4995 33.9698 74.5695Z" fill="#4A60C2"/>
<path d="M33.9698 74.5695C33.6398 75.6095 33.2698 76.5795 32.8798 77.4595C32.5498 78.1895 32.2198 78.8695 31.8698 79.4495C31.8498 79.4895 31.8298 79.5195 31.8098 79.5495C30.7998 81.1995 27.9498 80.6295 27.8498 78.7595C27.8398 78.5195 27.8198 78.2795 27.7998 78.0395C27.7898 77.8495 27.7698 77.6395 27.7498 77.4395C27.6698 76.5095 27.5398 75.5195 27.3398 74.4695C27.2998 74.2495 27.2598 74.0195 27.2098 73.7895C27.1298 73.3995 27.0498 73.0095 26.9498 72.6195C26.9098 72.4595 26.8698 72.2995 26.8298 72.1295C26.5898 71.1695 26.2898 70.1795 25.9298 69.1695C25.8198 68.8795 25.7098 68.5795 25.5998 68.2895C25.3198 67.5795 25.0098 66.8695 24.6698 66.1395C24.5098 65.7895 24.3498 65.4395 24.1598 65.0895C21.5698 60.0795 20.9998 56.8695 21.2198 53.6495C22.3898 55.6295 23.8298 57.8295 25.5998 60.2995C28.1198 63.7995 31.2698 68.9195 33.9698 74.5695Z" fill="#14368A"/>
<path d="M33.9698 11.6395C33.6398 10.5995 33.2698 9.62951 32.8798 8.74951C32.5498 8.01951 32.2198 7.33952 31.8698 6.75952C31.8498 6.71952 31.8298 6.68948 31.8098 6.65948C30.7998 5.00948 27.9498 5.57952 27.8498 7.44952C27.8398 7.68952 27.8198 7.92949 27.7998 8.16949C27.7898 8.35949 27.7698 8.56953 27.7498 8.76953C27.6698 9.69953 27.5398 10.6895 27.3398 11.7395C27.2998 11.9595 27.2598 12.1895 27.2098 12.4195C27.1298 12.8095 27.0498 13.1995 26.9498 13.5895C26.9098 13.7495 26.8698 13.9095 26.8298 14.0795C26.5898 15.0395 26.2898 16.0295 25.9298 17.0395C25.8198 17.3295 25.7098 17.6295 25.5998 17.9195C25.3198 18.6295 25.0098 19.3395 24.6698 20.0695C24.5098 20.4195 24.3498 20.7695 24.1598 21.1195C21.5698 26.1295 20.9998 29.3395 21.2198 32.5595C21.3098 33.8695 21.5198 35.1795 21.7798 36.6195C22.1598 38.6495 23.3798 41.0395 25.7698 43.0995H34.9098L35.1798 36.6895C35.2998 33.9395 35.5698 31.1695 35.9398 28.4295C36.6398 23.4095 35.6298 16.6995 33.9698 11.6395Z" fill="#4A60C2"/>
<path d="M33.9698 11.6395C33.6398 10.5995 33.2698 9.62951 32.8798 8.74951C32.5498 8.01951 32.2198 7.33952 31.8698 6.75952C31.8498 6.71952 31.8298 6.68948 31.8098 6.65948C30.7998 5.00948 27.9498 5.57952 27.8498 7.44952C27.8398 7.68952 27.8198 7.92949 27.7998 8.16949C27.7898 8.35949 27.7698 8.56953 27.7498 8.76953C27.6698 9.69953 27.5398 10.6895 27.3398 11.7395C27.2998 11.9595 27.2598 12.1895 27.2098 12.4195C27.1298 12.8095 27.0498 13.1995 26.9498 13.5895C26.9098 13.7495 26.8698 13.9095 26.8298 14.0795C26.5898 15.0395 26.2898 16.0295 25.9298 17.0395C25.8198 17.3295 25.7098 17.6295 25.5998 17.9195C25.3198 18.6295 25.0098 19.3395 24.6698 20.0695C24.5098 20.4195 24.3498 20.7695 24.1598 21.1195C21.5698 26.1295 20.9998 29.3395 21.2198 32.5595C22.3898 30.5795 23.8298 28.3795 25.5998 25.9095C28.1198 22.4095 31.2698 17.2895 33.9698 11.6395Z" fill="#14368A"/>
<path d="M44.6599 43.5795C45.1299 43.4395 45.1299 42.7695 44.6599 42.6295L41.8599 41.8195V43.1095V44.3995L44.6599 43.5795Z" fill="#DBB805"/>
<path d="M30.1699 37.2595C27.5799 37.2595 25.1699 37.6295 23.1799 38.2595C20.4599 39.1295 17.6699 39.7595 14.8199 39.9495C11.7499 40.1595 8.28989 40.2895 6.68989 40.0695C5.94989 39.9695 5.20988 39.8395 4.48988 39.6895C4.29988 39.6495 4.11989 39.6095 3.93989 39.5595C3.52989 39.4595 3.1299 39.3595 2.7299 39.2395C2.4999 39.1795 2.2699 39.1095 2.0399 39.0295C1.9999 39.0295 1.9599 39.0095 1.9199 38.9995C1.1699 38.7595 0.609883 39.6795 1.11988 40.2495C1.12988 40.2695 1.13989 40.2795 1.15989 40.2995C1.66989 40.7995 2.08989 41.2295 2.43989 41.5895C3.44989 42.6395 3.83988 43.1095 3.83988 43.1095C3.83988 43.1095 3.4999 43.6195 2.5799 44.6195C2.5699 44.6395 2.5499 44.6595 2.5399 44.6695C2.4399 44.7695 2.33988 44.8795 2.23988 44.9895C2.22988 44.9995 2.22988 45.0095 2.20988 45.0195C2.05988 45.1795 1.88988 45.3595 1.70988 45.5395L1.40989 45.8395C0.829891 46.4095 1.3999 47.3695 2.1699 47.1295C2.7499 46.9495 3.33989 46.7895 3.93989 46.6495C4.19989 46.5795 4.46988 46.5195 4.73988 46.4695C5.48988 46.3195 6.23989 46.1995 6.99989 46.0995C8.75989 45.8695 13.0699 46.1495 16.4799 46.4795C18.8499 46.7095 21.1699 47.2595 23.4399 47.9495C25.3799 48.5395 27.6899 48.8795 30.1699 48.8795C37.0399 48.8795 42.6099 46.2795 42.6099 43.0695C42.6099 39.8595 37.0399 37.2595 30.1699 37.2595Z" fill="#4A60C2"/>
<path d="M4.31989 45.7995C4.17989 46.0895 4.04989 46.3795 3.93989 46.6495C3.33989 46.7895 2.7499 46.9495 2.1699 47.1295C1.3999 47.3695 0.829891 46.4095 1.40989 45.8395L1.70988 45.5395C1.88988 45.3595 2.05988 45.1795 2.20988 45.0195C2.22988 45.0095 2.22988 44.9995 2.23988 44.9895C2.32988 44.8995 2.3999 44.8195 2.4799 44.7395C2.4999 44.7195 2.5199 44.6995 2.5399 44.6695C2.5499 44.6595 2.5699 44.6395 2.5799 44.6195C3.3099 43.7295 3.24989 42.4295 2.43989 41.5895C2.08989 41.2295 1.66989 40.7995 1.15989 40.2995C1.13989 40.2795 1.12988 40.2695 1.11988 40.2495C0.609883 39.6795 1.1699 38.7595 1.9199 38.9995C1.9599 39.0095 1.9999 39.0295 2.0399 39.0295C2.2699 39.1095 2.4999 39.1795 2.7299 39.2395C3.1299 39.3595 3.52989 39.4595 3.93989 39.5595C4.04989 39.8395 4.17989 40.1295 4.31989 40.4095C5.14989 42.1095 5.14989 44.0995 4.31989 45.7995Z" fill="#14368A"/>
</svg>
