<svg width="45" height="86" viewBox="0 0 45 86" fill="none" xmlns="http://www.w3.org/2000/svg">
<path d="M33.5199 65.7795C33.1899 66.5295 32.8199 67.2295 32.4299 67.8595C32.0999 68.3895 31.7698 68.8795 31.4198 69.2895C31.3998 69.3195 31.3798 69.3395 31.3598 69.3595C30.3498 70.5495 27.4999 70.1395 27.3999 68.7895C27.3899 68.6195 27.3698 68.4495 27.3498 68.2695C27.3398 68.1295 27.3198 67.9795 27.2998 67.8395C27.2198 67.1695 27.0899 66.4495 26.8899 65.6995C26.8499 65.5395 26.8099 65.3795 26.7599 65.2095C26.6799 64.9295 26.5999 64.6495 26.4999 64.3595C26.4599 64.2495 26.4199 64.1295 26.3799 64.0095C26.1399 63.3195 25.8398 62.5995 25.4798 61.8795C25.3698 61.6695 25.2599 61.4495 25.1499 61.2395C24.8699 60.7295 24.5599 60.2195 24.2199 59.6895C24.0599 59.4395 23.8999 59.1895 23.7099 58.9295C21.1199 55.3195 20.5499 53.0095 20.7699 50.6795C20.8599 49.7395 21.0699 48.7895 21.3299 47.7495C21.7099 46.2895 22.9299 44.5595 25.3199 43.0795H34.4599L34.7298 47.6995C34.8498 49.6795 35.1199 51.6795 35.4899 53.6495C36.1899 57.2895 35.1799 62.1295 33.5199 65.7795Z" fill="#4A60C2"/>
<path d="M33.5199 65.7795C33.1899 66.5295 32.8199 67.2295 32.4299 67.8595C32.0999 68.3895 31.7698 68.8795 31.4198 69.2895C31.3998 69.3195 31.3798 69.3395 31.3598 69.3595C30.3498 70.5495 27.4999 70.1395 27.3999 68.7895C27.3899 68.6195 27.3698 68.4495 27.3498 68.2695C27.3398 68.1295 27.3198 67.9795 27.2998 67.8395C27.2198 67.1695 27.0899 66.4495 26.8899 65.6995C26.8499 65.5395 26.8099 65.3795 26.7599 65.2095C26.6799 64.9295 26.5999 64.6495 26.4999 64.3595C26.4599 64.2495 26.4199 64.1295 26.3799 64.0095C26.1399 63.3195 25.8398 62.5995 25.4798 61.8795C25.3698 61.6695 25.2599 61.4495 25.1499 61.2395C24.8699 60.7295 24.5599 60.2195 24.2199 59.6895C24.0599 59.4395 23.8999 59.1895 23.7099 58.9295C21.1199 55.3195 20.5499 53.0095 20.7699 50.6795C21.9399 52.1095 23.3799 53.6895 25.1499 55.4695C27.6699 58.0095 30.8199 61.7095 33.5199 65.7795Z" fill="#14368A"/>
<path d="M33.5199 20.4295C33.1899 19.6795 32.8199 18.9795 32.4299 18.3495C32.0999 17.8195 31.7698 17.3295 31.4198 16.9195C31.3998 16.8895 31.3798 16.8695 31.3598 16.8495C30.3498 15.6595 27.4999 16.0695 27.3999 17.4195C27.3899 17.5895 27.3698 17.7595 27.3498 17.9395C27.3398 18.0795 27.3198 18.2295 27.2998 18.3695C27.2198 19.0395 27.0899 19.7595 26.8899 20.5095C26.8499 20.6695 26.8099 20.8295 26.7599 20.9995C26.6799 21.2795 26.5999 21.5595 26.4999 21.8495C26.4599 21.9595 26.4199 22.0795 26.3799 22.1995C26.1399 22.8895 25.8398 23.6095 25.4798 24.3295C25.3698 24.5395 25.2599 24.7595 25.1499 24.9695C24.8699 25.4795 24.5599 25.9895 24.2199 26.5195C24.0599 26.7695 23.8999 27.0195 23.7099 27.2795C21.1199 30.8895 20.5499 33.1995 20.7699 35.5295C20.8599 36.4695 21.0699 37.4195 21.3299 38.4595C21.7099 39.9195 22.9299 41.6495 25.3199 43.1295H34.4599L34.7298 38.5095C34.8498 36.5295 35.1199 34.5295 35.4899 32.5595C36.1899 28.9195 35.1799 24.0795 33.5199 20.4295Z" fill="#4A60C2"/>
<path d="M33.5199 20.4295C33.1899 19.6795 32.8199 18.9795 32.4299 18.3495C32.0999 17.8195 31.7698 17.3295 31.4198 16.9195C31.3998 16.8895 31.3798 16.8695 31.3598 16.8495C30.3498 15.6595 27.4999 16.0695 27.3999 17.4195C27.3899 17.5895 27.3698 17.7595 27.3498 17.9395C27.3398 18.0795 27.3198 18.2295 27.2998 18.3695C27.2198 19.0395 27.0899 19.7595 26.8899 20.5095C26.8499 20.6695 26.8099 20.8295 26.7599 20.9995C26.6799 21.2795 26.5999 21.5595 26.4999 21.8495C26.4599 21.9595 26.4199 22.0795 26.3799 22.1995C26.1399 22.8895 25.8398 23.6095 25.4798 24.3295C25.3698 24.5395 25.2599 24.7595 25.1499 24.9695C24.8699 25.4795 24.5599 25.9895 24.2199 26.5195C24.0599 26.7695 23.8999 27.0195 23.7099 27.2795C21.1199 30.8895 20.5499 33.1995 20.7699 35.5295C21.9399 34.0995 23.3799 32.5195 25.1499 30.7395C27.6699 28.1895 30.8199 24.4995 33.5199 20.4295Z" fill="#14368A"/>
<path d="M44.21 43.5795C44.68 43.4395 44.68 42.7695 44.21 42.6295L41.4099 41.8195V43.1095V44.3995L44.21 43.5795Z" fill="#DBB805"/>
<path d="M29.72 37.2595C27.13 37.2595 24.7199 37.6295 22.7299 38.2595C20.0099 39.1295 17.2199 39.7595 14.3699 39.9495C11.2999 40.1595 7.83993 40.2895 6.23993 40.0695C5.49993 39.9695 4.75992 39.8395 4.03992 39.6895C3.84992 39.6495 3.66993 39.6095 3.48993 39.5595C3.07993 39.4595 2.67997 39.3595 2.27997 39.2395C2.04997 39.1795 1.81997 39.1095 1.58997 39.0295C1.54997 39.0295 1.50997 39.0095 1.46997 38.9995C0.719975 38.7595 0.159926 39.6795 0.669926 40.2495C0.679926 40.2695 0.689965 40.2795 0.709965 40.2995C1.21997 40.7995 1.63993 41.2295 1.98993 41.5895C2.99993 42.6395 3.38996 43.1095 3.38996 43.1095C3.38996 43.1095 3.04995 43.6195 2.12995 44.6195C2.11995 44.6395 2.09997 44.6595 2.08997 44.6695C1.98997 44.7695 1.88992 44.8795 1.78992 44.9895C1.77992 44.9995 1.77995 45.0095 1.75995 45.0195C1.60995 45.1795 1.43995 45.3595 1.25995 45.5395L0.959965 45.8395C0.379965 46.4095 0.949975 47.3695 1.71997 47.1295C2.29997 46.9495 2.88993 46.7895 3.48993 46.6495C3.74993 46.5795 4.01992 46.5195 4.28992 46.4695C5.03992 46.3195 5.78993 46.1995 6.54993 46.0995C8.30993 45.8695 12.62 46.1495 16.03 46.4795C18.4 46.7095 20.7199 47.2595 22.9899 47.9495C24.9299 48.5395 27.24 48.8795 29.72 48.8795C36.59 48.8795 42.1599 46.2795 42.1599 43.0695C42.1699 39.8595 36.6 37.2595 29.72 37.2595Z" fill="#4A60C2"/>
<path d="M3.87996 45.7995C3.73996 46.0895 3.60995 46.3795 3.49995 46.6495C2.89995 46.7895 2.30993 46.9495 1.72993 47.1295C0.959934 47.3695 0.389986 46.4095 0.969986 45.8395L1.26997 45.5395C1.44997 45.3595 1.61997 45.1795 1.76997 45.0195C1.78997 45.0095 1.78994 44.9995 1.79994 44.9895C1.88994 44.8995 1.95993 44.8195 2.03993 44.7395C2.05993 44.7195 2.07993 44.6995 2.09993 44.6695C2.10993 44.6595 2.12997 44.6395 2.13997 44.6195C2.86997 43.7295 2.80995 42.4295 1.99995 41.5895C1.64995 41.2295 1.22999 40.7995 0.719986 40.2995C0.699986 40.2795 0.689947 40.2695 0.679947 40.2495C0.169947 39.6795 0.729934 38.7595 1.47993 38.9995C1.51993 39.0095 1.55993 39.0295 1.59993 39.0295C1.82993 39.1095 2.05993 39.1795 2.28993 39.2395C2.68993 39.3595 3.08995 39.4595 3.49995 39.5595C3.60995 39.8395 3.73996 40.1295 3.87996 40.4095C4.69996 42.1095 4.69996 44.0995 3.87996 45.7995Z" fill="#14368A"/>
</svg>
