<svg width="45" height="86" viewBox="0 0 45 86" fill="none" xmlns="http://www.w3.org/2000/svg">
<path d="M33.89 61.5695C33.56 62.1795 33.19 62.7495 32.8 63.2595C32.47 63.6895 32.14 64.0895 31.79 64.4295C31.77 64.4495 31.75 64.4695 31.73 64.4895C30.72 65.4595 27.87 65.1195 27.77 64.0295C27.76 63.8895 27.74 63.7495 27.72 63.6095C27.71 63.4995 27.69 63.3795 27.67 63.2595C27.59 62.7195 27.46 62.1295 27.26 61.5195C27.22 61.3895 27.18 61.2595 27.13 61.1195C27.05 60.8895 26.97 60.6595 26.87 60.4295C26.83 60.3395 26.79 60.2395 26.75 60.1495C26.51 59.5895 26.21 59.0095 25.85 58.4095C25.74 58.2395 25.63 58.0595 25.52 57.8895C25.24 57.4795 24.93 57.0595 24.59 56.6295C24.43 56.4195 24.27 56.2195 24.08 56.0095C21.49 53.0695 20.92 51.1895 21.14 49.2995C21.23 48.5295 21.44 47.7595 21.7 46.9195C22.08 45.7295 23.3 44.3195 25.69 43.1195H34.83L35.1 46.8795C35.22 48.4995 35.49 50.1195 35.86 51.7195C36.56 54.6495 35.55 58.5895 33.89 61.5695Z" fill="#4A60C2"/>
<path d="M33.89 61.5695C33.56 62.1795 33.19 62.7495 32.8 63.2595C32.47 63.6895 32.14 64.0895 31.79 64.4295C31.77 64.4495 31.75 64.4695 31.73 64.4895C30.72 65.4595 27.87 65.1195 27.77 64.0295C27.76 63.8895 27.74 63.7495 27.72 63.6095C27.71 63.4995 27.69 63.3795 27.67 63.2595C27.59 62.7195 27.46 62.1295 27.26 61.5195C27.22 61.3895 27.18 61.2595 27.13 61.1195C27.05 60.8895 26.97 60.6595 26.87 60.4295C26.83 60.3395 26.79 60.2395 26.75 60.1495C26.51 59.5895 26.21 59.0095 25.85 58.4095C25.74 58.2395 25.63 58.0595 25.52 57.8895C25.24 57.4795 24.93 57.0595 24.59 56.6295C24.43 56.4195 24.27 56.2195 24.08 56.0095C21.49 53.0695 20.92 51.1895 21.14 49.2995C22.31 50.4595 23.75 51.7495 25.52 53.1995C28.04 55.2495 31.19 58.2495 33.89 61.5695Z" fill="#14368A"/>
<path d="M33.89 24.6395C33.56 24.0295 33.19 23.4595 32.8 22.9495C32.47 22.5195 32.14 22.1195 31.79 21.7795C31.77 21.7595 31.75 21.7395 31.73 21.7195C30.72 20.7495 27.87 21.0895 27.77 22.1795C27.76 22.3195 27.74 22.4595 27.72 22.5995C27.71 22.7095 27.69 22.8295 27.67 22.9495C27.59 23.4895 27.46 24.0795 27.26 24.6895C27.22 24.8195 27.18 24.9495 27.13 25.0895C27.05 25.3195 26.97 25.5495 26.87 25.7795C26.83 25.8695 26.79 25.9695 26.75 26.0595C26.51 26.6195 26.21 27.1995 25.85 27.7995C25.74 27.9695 25.63 28.1495 25.52 28.3195C25.24 28.7295 24.93 29.1495 24.59 29.5795C24.43 29.7895 24.27 29.9895 24.08 30.1995C21.49 33.1395 20.92 35.0195 21.14 36.9095C21.23 37.6795 21.44 38.4495 21.7 39.2895C22.08 40.4795 23.3 41.8895 25.69 43.0895H34.83L35.1 39.3295C35.22 37.7095 35.49 36.0895 35.86 34.4895C36.56 31.5495 35.55 27.6095 33.89 24.6395Z" fill="#4A60C2"/>
<path d="M33.89 24.6395C33.56 24.0295 33.19 23.4595 32.8 22.9495C32.47 22.5195 32.14 22.1195 31.79 21.7795C31.77 21.7595 31.75 21.7395 31.73 21.7195C30.72 20.7495 27.87 21.0895 27.77 22.1795C27.76 22.3195 27.74 22.4595 27.72 22.5995C27.71 22.7095 27.69 22.8295 27.67 22.9495C27.59 23.4895 27.46 24.0795 27.26 24.6895C27.22 24.8195 27.18 24.9495 27.13 25.0895C27.05 25.3195 26.97 25.5495 26.87 25.7795C26.83 25.8695 26.79 25.9695 26.75 26.0595C26.51 26.6195 26.21 27.1995 25.85 27.7995C25.74 27.9695 25.63 28.1495 25.52 28.3195C25.24 28.7295 24.93 29.1495 24.59 29.5795C24.43 29.7895 24.27 29.9895 24.08 30.1995C21.49 33.1395 20.92 35.0195 21.14 36.9095C22.31 35.7495 23.75 34.4595 25.52 33.0095C28.04 30.9595 31.19 27.9595 33.89 24.6395Z" fill="#14368A"/>
<path d="M44.58 43.5795C45.05 43.4395 45.05 42.7695 44.58 42.6295L41.78 41.8195V43.1095V44.3995L44.58 43.5795Z" fill="#DBB805"/>
<path d="M30.09 37.2595C27.5 37.2595 25.0899 37.6295 23.0999 38.2595C20.3799 39.1295 17.5899 39.7595 14.7399 39.9495C11.6699 40.1595 8.20993 40.2895 6.60993 40.0695C5.86993 39.9695 5.12992 39.8395 4.40992 39.6895C4.21992 39.6495 4.03993 39.6095 3.85993 39.5595C3.44993 39.4595 3.04997 39.3595 2.64997 39.2395C2.41997 39.1795 2.18997 39.1095 1.95997 39.0295C1.91997 39.0295 1.87997 39.0095 1.83997 38.9995C1.08997 38.7595 0.529921 39.6795 1.03992 40.2495C1.04992 40.2695 1.05996 40.2795 1.07996 40.2995C1.58996 40.7995 2.00993 41.2295 2.35993 41.5895C3.36993 42.6395 3.75995 43.1095 3.75995 43.1095C3.75995 43.1095 3.41994 43.6195 2.49994 44.6195C2.48994 44.6395 2.46997 44.6595 2.45997 44.6695C2.35997 44.7695 2.25992 44.8795 2.15992 44.9895C2.14992 44.9995 2.14995 45.0095 2.12995 45.0195C1.97995 45.1795 1.80995 45.3595 1.62995 45.5395L1.32996 45.8395C0.74996 46.4095 1.31997 47.3695 2.08997 47.1295C2.66997 46.9495 3.25993 46.7895 3.85993 46.6495C4.11993 46.5795 4.38992 46.5195 4.65992 46.4695C5.40992 46.3195 6.15993 46.1995 6.91993 46.0995C8.67993 45.8695 12.99 46.1495 16.4 46.4795C18.77 46.7095 21.0899 47.2595 23.3599 47.9495C25.2999 48.5395 27.61 48.8795 30.09 48.8795C36.96 48.8795 42.53 46.2795 42.53 43.0695C42.53 39.8595 36.96 37.2595 30.09 37.2595Z" fill="#4A60C2"/>
<path d="M4.23993 45.7995C4.09993 46.0895 3.96993 46.3795 3.85993 46.6495C3.25993 46.7895 2.66997 46.9495 2.08997 47.1295C1.31997 47.3695 0.74996 46.4095 1.32996 45.8395L1.62995 45.5395C1.80995 45.3595 1.97995 45.1795 2.12995 45.0195C2.14995 45.0095 2.14992 44.9995 2.15992 44.9895C2.24992 44.8995 2.31997 44.8195 2.39997 44.7395C2.41997 44.7195 2.43997 44.6995 2.45997 44.6695C2.46997 44.6595 2.48994 44.6395 2.49994 44.6195C3.22994 43.7295 3.16993 42.4295 2.35993 41.5895C2.00993 41.2295 1.58996 40.7995 1.07996 40.2995C1.05996 40.2795 1.04992 40.2695 1.03992 40.2495C0.529921 39.6795 1.08997 38.7595 1.83997 38.9995C1.87997 39.0095 1.91997 39.0295 1.95997 39.0295C2.18997 39.1095 2.41997 39.1795 2.64997 39.2395C3.04997 39.3595 3.44993 39.4595 3.85993 39.5595C3.96993 39.8395 4.09993 40.1295 4.23993 40.4095C5.06993 42.1095 5.06993 44.0995 4.23993 45.7995Z" fill="#14368A"/>
</svg>
