<svg width="45" height="86" viewBox="0 0 45 86" fill="none" xmlns="http://www.w3.org/2000/svg">
<path d="M33.8399 56.6695C33.5099 57.1195 33.1399 57.5395 32.7499 57.9195C32.4199 58.2395 32.0899 58.5295 31.7399 58.7795C31.7199 58.7995 31.6999 58.8095 31.6799 58.8195C30.6699 59.5295 27.82 59.2795 27.72 58.4795C27.71 58.3795 27.6899 58.2695 27.6699 58.1695C27.6599 58.0895 27.6399 57.9995 27.6199 57.9095C27.5399 57.5095 27.4099 57.0795 27.2099 56.6295C27.1699 56.5295 27.1299 56.4395 27.0799 56.3395C26.9999 56.1695 26.9199 55.9995 26.8199 55.8295C26.7799 55.7595 26.7399 55.6895 26.6999 55.6195C26.4599 55.2095 26.1599 54.7795 25.7999 54.3395C25.6899 54.2095 25.58 54.0795 25.47 53.9595C25.19 53.6595 24.8799 53.3495 24.5399 53.0295C24.3799 52.8795 24.22 52.7295 24.03 52.5795C21.44 50.4195 20.8699 49.0295 21.0899 47.6395C21.1799 47.0795 21.3899 46.5095 21.6499 45.8895C22.0299 45.0095 23.2499 43.9795 25.6399 43.0995H34.78L35.0499 45.8595C35.1699 47.0495 35.4399 48.2395 35.8099 49.4195C36.5099 51.5895 35.4999 54.4895 33.8399 56.6695Z" fill="#4A60C2"/>
<path d="M33.8399 56.6695C33.5099 57.1195 33.1399 57.5395 32.7499 57.9195C32.4199 58.2395 32.0899 58.5295 31.7399 58.7795C31.7199 58.7995 31.6999 58.8095 31.6799 58.8195C30.6699 59.5295 27.82 59.2795 27.72 58.4795C27.71 58.3795 27.6899 58.2695 27.6699 58.1695C27.6599 58.0895 27.6399 57.9995 27.6199 57.9095C27.5399 57.5095 27.4099 57.0795 27.2099 56.6295C27.1699 56.5295 27.1299 56.4395 27.0799 56.3395C26.9999 56.1695 26.9199 55.9995 26.8199 55.8295C26.7799 55.7595 26.7399 55.6895 26.6999 55.6195C26.4599 55.2095 26.1599 54.7795 25.7999 54.3395C25.6899 54.2095 25.58 54.0795 25.47 53.9595C25.19 53.6595 24.8799 53.3495 24.5399 53.0295C24.3799 52.8795 24.22 52.7295 24.03 52.5795C21.44 50.4195 20.8699 49.0295 21.0899 47.6395C22.2599 48.4895 23.7 49.4395 25.47 50.5095C27.99 52.0295 31.1399 54.2395 33.8399 56.6695Z" fill="#14368A"/>
<path d="M33.8399 29.5295C33.5099 29.0795 33.1399 28.6595 32.7499 28.2795C32.4199 27.9595 32.0899 27.6695 31.7399 27.4195C31.7199 27.3995 31.6999 27.3895 31.6799 27.3795C30.6699 26.6695 27.82 26.9195 27.72 27.7195C27.71 27.8195 27.6899 27.9295 27.6699 28.0295C27.6599 28.1095 27.6399 28.1995 27.6199 28.2895C27.5399 28.6895 27.4099 29.1195 27.2099 29.5695C27.1699 29.6695 27.1299 29.7595 27.0799 29.8595C26.9999 30.0295 26.9199 30.1995 26.8199 30.3695C26.7799 30.4395 26.7399 30.5096 26.6999 30.5796C26.4599 30.9896 26.1599 31.4195 25.7999 31.8595C25.6899 31.9895 25.58 32.1195 25.47 32.2395C25.19 32.5395 24.8799 32.8495 24.5399 33.1695C24.3799 33.3195 24.22 33.4695 24.03 33.6195C21.44 35.7795 20.8699 37.1695 21.0899 38.5495C21.1799 39.1095 21.3899 39.6795 21.6499 40.2995C22.0299 41.1795 23.2499 42.2095 25.6399 43.0995H34.78L35.0499 40.3395C35.1699 39.1495 35.4399 37.9595 35.8099 36.7795C36.5099 34.6095 35.4999 31.7195 33.8399 29.5295Z" fill="#4A60C2"/>
<path d="M33.8399 29.5295C33.5099 29.0795 33.1399 28.6595 32.7499 28.2795C32.4199 27.9595 32.0899 27.6695 31.7399 27.4195C31.7199 27.3995 31.6999 27.3895 31.6799 27.3795C30.6699 26.6695 27.82 26.9195 27.72 27.7195C27.71 27.8195 27.6899 27.9295 27.6699 28.0295C27.6599 28.1095 27.6399 28.1995 27.6199 28.2895C27.5399 28.6895 27.4099 29.1195 27.2099 29.5695C27.1699 29.6695 27.1299 29.7595 27.0799 29.8595C26.9999 30.0295 26.9199 30.1995 26.8199 30.3695C26.7799 30.4395 26.7399 30.5096 26.6999 30.5796C26.4599 30.9896 26.1599 31.4195 25.7999 31.8595C25.6899 31.9895 25.58 32.1195 25.47 32.2395C25.19 32.5395 24.8799 32.8495 24.5399 33.1695C24.3799 33.3195 24.22 33.4695 24.03 33.6195C21.44 35.7795 20.8699 37.1695 21.0899 38.5495C22.2599 37.6995 23.7 36.7495 25.47 35.6795C27.99 34.1795 31.1399 31.9695 33.8399 29.5295Z" fill="#14368A"/>
<path d="M44.5299 43.5795C44.9999 43.4395 44.9999 42.7695 44.5299 42.6295L41.7299 41.8195V43.1095V44.3995L44.5299 43.5795Z" fill="#DBB805"/>
<path d="M30.0399 37.2595C27.4499 37.2595 25.0399 37.6295 23.0499 38.2595C20.3299 39.1295 17.5399 39.7595 14.6899 39.9495C11.6199 40.1595 8.15989 40.2895 6.55989 40.0695C5.81989 39.9695 5.07988 39.8395 4.35988 39.6895C4.16988 39.6495 3.98989 39.6095 3.80989 39.5595C3.39989 39.4595 2.99987 39.3595 2.59987 39.2395C2.36987 39.1795 2.13987 39.1095 1.90987 39.0295C1.86987 39.0295 1.82987 39.0095 1.78987 38.9995C1.03987 38.7595 0.479883 39.6795 0.989883 40.2495C0.999883 40.2695 1.00992 40.2795 1.02992 40.2995C1.53992 40.7995 1.95989 41.2295 2.30989 41.5895C3.31989 42.6395 3.70991 43.1095 3.70991 43.1095C3.70991 43.1095 3.36991 43.6195 2.44991 44.6195C2.43991 44.6395 2.41987 44.6595 2.40987 44.6695C2.30987 44.7695 2.20988 44.8795 2.10988 44.9895C2.09988 44.9995 2.09991 45.0095 2.07991 45.0195C1.92991 45.1795 1.75991 45.3595 1.57991 45.5395L1.27992 45.8395C0.699922 46.4095 1.26987 47.3695 2.03987 47.1295C2.61987 46.9495 3.20989 46.7895 3.80989 46.6495C4.06989 46.5795 4.33988 46.5195 4.60988 46.4695C5.35988 46.3195 6.10989 46.1995 6.86989 46.0995C8.62989 45.8695 12.9399 46.1495 16.3499 46.4795C18.7199 46.7095 21.0399 47.2595 23.3099 47.9495C25.2499 48.5395 27.5599 48.8795 30.0399 48.8795C36.9099 48.8795 42.4799 46.2795 42.4799 43.0695C42.4799 39.8595 36.9099 37.2595 30.0399 37.2595Z" fill="#4A60C2"/>
<path d="M4.1899 45.7995C4.0499 46.0895 3.91989 46.3795 3.80989 46.6495C3.20989 46.7895 2.61987 46.9495 2.03987 47.1295C1.26987 47.3695 0.699922 46.4095 1.27992 45.8395L1.57991 45.5395C1.75991 45.3595 1.92991 45.1795 2.07991 45.0195C2.09991 45.0095 2.09988 44.9995 2.10988 44.9895C2.19988 44.8995 2.26987 44.8195 2.34987 44.7395C2.36987 44.7195 2.38987 44.6995 2.40987 44.6695C2.41987 44.6595 2.43991 44.6395 2.44991 44.6195C3.17991 43.7295 3.11989 42.4295 2.30989 41.5895C1.95989 41.2295 1.53992 40.7995 1.02992 40.2995C1.00992 40.2795 0.999883 40.2695 0.989883 40.2495C0.479883 39.6795 1.03987 38.7595 1.78987 38.9995C1.82987 39.0095 1.86987 39.0295 1.90987 39.0295C2.13987 39.1095 2.36987 39.1795 2.59987 39.2395C2.99987 39.3595 3.39989 39.4595 3.80989 39.5595C3.91989 39.8395 4.0499 40.1295 4.1899 40.4095C5.0099 42.1095 5.0099 44.0995 4.1899 45.7995Z" fill="#14368A"/>
</svg>
