<svg width="46" height="86" viewBox="0 0 46 86" fill="none" xmlns="http://www.w3.org/2000/svg">
<path d="M34.24 61.5695C33.91 62.1795 33.5399 62.7495 33.1499 63.2595C32.8199 63.6895 32.4899 64.0895 32.1399 64.4295C32.1199 64.4495 32.0999 64.4695 32.0799 64.4895C31.0699 65.4595 28.22 65.1195 28.12 64.0295C28.11 63.8895 28.0899 63.7495 28.0699 63.6095C28.0599 63.4995 28.0399 63.3795 28.0199 63.2595C27.9399 62.7195 27.81 62.1295 27.61 61.5195C27.57 61.3895 27.53 61.2595 27.48 61.1195C27.4 60.8895 27.32 60.6595 27.22 60.4295C27.18 60.3395 27.14 60.2395 27.1 60.1495C26.86 59.5895 26.5599 59.0095 26.1999 58.4095C26.0899 58.2395 25.98 58.0595 25.87 57.8895C25.59 57.4795 25.2799 57.0595 24.9399 56.6295C24.7799 56.4195 24.6199 56.2195 24.4299 56.0095C21.8399 53.0695 21.27 51.1895 21.49 49.2995C21.58 48.5295 21.7899 47.7595 22.0499 46.9195C22.4299 45.7295 23.6499 44.3195 26.0399 43.1195H35.1799L35.4499 46.8795C35.5699 48.4995 35.8399 50.1195 36.2099 51.7195C36.9099 54.6495 35.9 58.5895 34.24 61.5695Z" fill="#4A60C2"/>
<path d="M34.24 61.5695C33.91 62.1795 33.5399 62.7495 33.1499 63.2595C32.8199 63.6895 32.4899 64.0895 32.1399 64.4295C32.1199 64.4495 32.0999 64.4695 32.0799 64.4895C31.0699 65.4595 28.22 65.1195 28.12 64.0295C28.11 63.8895 28.0899 63.7495 28.0699 63.6095C28.0599 63.4995 28.0399 63.3795 28.0199 63.2595C27.9399 62.7195 27.81 62.1295 27.61 61.5195C27.57 61.3895 27.53 61.2595 27.48 61.1195C27.4 60.8895 27.32 60.6595 27.22 60.4295C27.18 60.3395 27.14 60.2395 27.1 60.1495C26.86 59.5895 26.5599 59.0095 26.1999 58.4095C26.0899 58.2395 25.98 58.0595 25.87 57.8895C25.59 57.4795 25.2799 57.0595 24.9399 56.6295C24.7799 56.4195 24.6199 56.2195 24.4299 56.0095C21.8399 53.0695 21.27 51.1895 21.49 49.2995C22.66 50.4595 24.1 51.7495 25.87 53.1995C28.39 55.2495 31.54 58.2495 34.24 61.5695Z" fill="#14368A"/>
<path d="M34.24 24.6395C33.91 24.0295 33.5399 23.4595 33.1499 22.9495C32.8199 22.5195 32.4899 22.1195 32.1399 21.7795C32.1199 21.7595 32.0999 21.7395 32.0799 21.7195C31.0699 20.7495 28.22 21.0895 28.12 22.1795C28.11 22.3195 28.0899 22.4595 28.0699 22.5995C28.0599 22.7095 28.0399 22.8295 28.0199 22.9495C27.9399 23.4895 27.81 24.0795 27.61 24.6895C27.57 24.8195 27.53 24.9495 27.48 25.0895C27.4 25.3195 27.32 25.5495 27.22 25.7795C27.18 25.8695 27.14 25.9695 27.1 26.0595C26.86 26.6195 26.5599 27.1995 26.1999 27.7995C26.0899 27.9695 25.98 28.1495 25.87 28.3195C25.59 28.7295 25.2799 29.1495 24.9399 29.5795C24.7799 29.7895 24.6199 29.9895 24.4299 30.1995C21.8399 33.1395 21.27 35.0195 21.49 36.9095C21.58 37.6795 21.7899 38.4495 22.0499 39.2895C22.4299 40.4795 23.6499 41.8895 26.0399 43.0895H35.1799L35.4499 39.3295C35.5699 37.7095 35.8399 36.0895 36.2099 34.4895C36.9099 31.5495 35.9 27.6095 34.24 24.6395Z" fill="#4A60C2"/>
<path d="M34.24 24.6395C33.91 24.0295 33.5399 23.4595 33.1499 22.9495C32.8199 22.5195 32.4899 22.1195 32.1399 21.7795C32.1199 21.7595 32.0999 21.7395 32.0799 21.7195C31.0699 20.7495 28.22 21.0895 28.12 22.1795C28.11 22.3195 28.0899 22.4595 28.0699 22.5995C28.0599 22.7095 28.0399 22.8295 28.0199 22.9495C27.9399 23.4895 27.81 24.0795 27.61 24.6895C27.57 24.8195 27.53 24.9495 27.48 25.0895C27.4 25.3195 27.32 25.5495 27.22 25.7795C27.18 25.8695 27.14 25.9695 27.1 26.0595C26.86 26.6195 26.5599 27.1995 26.1999 27.7995C26.0899 27.9695 25.98 28.1495 25.87 28.3195C25.59 28.7295 25.2799 29.1495 24.9399 29.5795C24.7799 29.7895 24.6199 29.9895 24.4299 30.1995C21.8399 33.1395 21.27 35.0195 21.49 36.9095C22.66 35.7495 24.1 34.4595 25.87 33.0095C28.39 30.9595 31.54 27.9595 34.24 24.6395Z" fill="#14368A"/>
<path d="M44.9299 43.5795C45.3999 43.4395 45.3999 42.7695 44.9299 42.6295L42.1299 41.8195V43.1095V44.3995L44.9299 43.5795Z" fill="#DBB805"/>
<path d="M30.4399 37.2595C27.8499 37.2595 25.44 37.6295 23.45 38.2595C20.73 39.1295 17.94 39.7595 15.09 39.9495C12.02 40.1595 8.55997 40.2895 6.95997 40.0695C6.21997 39.9695 5.47989 39.8395 4.75989 39.6895C4.56989 39.6495 4.38997 39.6095 4.20997 39.5595C3.79997 39.4595 3.4 39.3595 3 39.2395C2.77 39.1795 2.53994 39.1095 2.30994 39.0295C2.26994 39.0295 2.22995 39.0095 2.18995 38.9995C1.43995 38.7595 0.879897 39.6795 1.3899 40.2495C1.3999 40.2695 1.40994 40.2795 1.42994 40.2995C1.93994 40.7995 2.35997 41.2295 2.70997 41.5895C3.71997 42.6395 4.10999 43.1095 4.10999 43.1095C4.10999 43.1095 3.76998 43.6195 2.84998 44.6195C2.83998 44.6395 2.81994 44.6595 2.80994 44.6695C2.70994 44.7695 2.60989 44.8795 2.50989 44.9895C2.49989 44.9995 2.49998 45.0095 2.47998 45.0195C2.32998 45.1795 2.15998 45.3595 1.97998 45.5395L1.67994 45.8395C1.09994 46.4095 1.66995 47.3695 2.43995 47.1295C3.01995 46.9495 3.60997 46.7895 4.20997 46.6495C4.46997 46.5795 4.73989 46.5195 5.00989 46.4695C5.75989 46.3195 6.5099 46.1995 7.2699 46.0995C9.0299 45.8695 13.34 46.1495 16.75 46.4795C19.12 46.7095 21.44 47.2595 23.71 47.9495C25.65 48.5395 27.9599 48.8795 30.4399 48.8795C37.3099 48.8795 42.8799 46.2795 42.8799 43.0695C42.8899 39.8595 37.3099 37.2595 30.4399 37.2595Z" fill="#4A60C2"/>
<path d="M4.58997 45.7995C4.44997 46.0895 4.31997 46.3795 4.20997 46.6495C3.60997 46.7895 3.01995 46.9495 2.43995 47.1295C1.66995 47.3695 1.09994 46.4095 1.67994 45.8395L1.97998 45.5395C2.15998 45.3595 2.32998 45.1795 2.47998 45.0195C2.49998 45.0095 2.49989 44.9995 2.50989 44.9895C2.59989 44.8995 2.67 44.8195 2.75 44.7395C2.77 44.7195 2.78994 44.6995 2.80994 44.6695C2.81994 44.6595 2.83998 44.6395 2.84998 44.6195C3.57998 43.7295 3.51997 42.4295 2.70997 41.5895C2.35997 41.2295 1.93994 40.7995 1.42994 40.2995C1.40994 40.2795 1.3999 40.2695 1.3899 40.2495C0.879897 39.6795 1.43995 38.7595 2.18995 38.9995C2.22995 39.0095 2.26994 39.0295 2.30994 39.0295C2.53994 39.1095 2.77 39.1795 3 39.2395C3.4 39.3595 3.79997 39.4595 4.20997 39.5595C4.31997 39.8395 4.44997 40.1295 4.58997 40.4095C5.41997 42.1095 5.41997 44.0995 4.58997 45.7995Z" fill="#14368A"/>
</svg>
