<svg width="45" height="86" viewBox="0 0 45 86" fill="none" xmlns="http://www.w3.org/2000/svg">
<path d="M33.49 65.7795C33.16 66.5295 32.7899 67.2295 32.3999 67.8595C32.0699 68.3895 31.7399 68.8795 31.3899 69.2895C31.3699 69.3195 31.3499 69.3395 31.3299 69.3595C30.3199 70.5495 27.47 70.1395 27.37 68.7895C27.36 68.6195 27.3399 68.4495 27.3199 68.2695C27.3099 68.1295 27.2899 67.9795 27.2699 67.8395C27.1899 67.1695 27.06 66.4495 26.86 65.6995C26.82 65.5395 26.78 65.3795 26.73 65.2095C26.65 64.9295 26.57 64.6495 26.47 64.3595C26.43 64.2495 26.39 64.1295 26.35 64.0095C26.11 63.3195 25.8099 62.5995 25.4499 61.8795C25.3399 61.6695 25.23 61.4495 25.12 61.2395C24.84 60.7295 24.5299 60.2195 24.1899 59.6895C24.0299 59.4395 23.8699 59.1895 23.6799 58.9295C21.0899 55.3195 20.52 53.0095 20.74 50.6795C20.83 49.7395 21.0399 48.7895 21.2999 47.7495C21.6799 46.2895 22.8999 44.5595 25.2899 43.0795H34.4299L34.6999 47.6995C34.8199 49.6795 35.0899 51.6795 35.4599 53.6495C36.1599 57.2895 35.15 62.1295 33.49 65.7795Z" fill="#4A60C2"/>
<path d="M33.49 65.7795C33.16 66.5295 32.7899 67.2295 32.3999 67.8595C32.0699 68.3895 31.7399 68.8795 31.3899 69.2895C31.3699 69.3195 31.3499 69.3395 31.3299 69.3595C30.3199 70.5495 27.47 70.1395 27.37 68.7895C27.36 68.6195 27.3399 68.4495 27.3199 68.2695C27.3099 68.1295 27.2899 67.9795 27.2699 67.8395C27.1899 67.1695 27.06 66.4495 26.86 65.6995C26.82 65.5395 26.78 65.3795 26.73 65.2095C26.65 64.9295 26.57 64.6495 26.47 64.3595C26.43 64.2495 26.39 64.1295 26.35 64.0095C26.11 63.3195 25.8099 62.5995 25.4499 61.8795C25.3399 61.6695 25.23 61.4495 25.12 61.2395C24.84 60.7295 24.5299 60.2195 24.1899 59.6895C24.0299 59.4395 23.8699 59.1895 23.6799 58.9295C21.0899 55.3195 20.52 53.0095 20.74 50.6795C21.91 52.1095 23.35 53.6895 25.12 55.4695C27.64 58.0095 30.79 61.7095 33.49 65.7795Z" fill="#14368A"/>
<path d="M33.49 20.4295C33.16 19.6795 32.7899 18.9795 32.3999 18.3495C32.0699 17.8195 31.7399 17.3295 31.3899 16.9195C31.3699 16.8895 31.3499 16.8695 31.3299 16.8495C30.3199 15.6595 27.47 16.0695 27.37 17.4195C27.36 17.5895 27.3399 17.7595 27.3199 17.9395C27.3099 18.0795 27.2899 18.2295 27.2699 18.3695C27.1899 19.0395 27.06 19.7595 26.86 20.5095C26.82 20.6695 26.78 20.8295 26.73 20.9995C26.65 21.2795 26.57 21.5595 26.47 21.8495C26.43 21.9595 26.39 22.0795 26.35 22.1995C26.11 22.8895 25.8099 23.6095 25.4499 24.3295C25.3399 24.5395 25.23 24.7595 25.12 24.9695C24.84 25.4795 24.5299 25.9895 24.1899 26.5195C24.0299 26.7695 23.8699 27.0195 23.6799 27.2795C21.0899 30.8895 20.52 33.1995 20.74 35.5295C20.83 36.4695 21.0399 37.4195 21.2999 38.4595C21.6799 39.9195 22.8999 41.6495 25.2899 43.1295H34.4299L34.6999 38.5095C34.8199 36.5295 35.0899 34.5295 35.4599 32.5595C36.1599 28.9195 35.15 24.0795 33.49 20.4295Z" fill="#4A60C2"/>
<path d="M33.49 20.4295C33.16 19.6795 32.7899 18.9795 32.3999 18.3495C32.0699 17.8195 31.7399 17.3295 31.3899 16.9195C31.3699 16.8895 31.3499 16.8695 31.3299 16.8495C30.3199 15.6595 27.47 16.0695 27.37 17.4195C27.36 17.5895 27.3399 17.7595 27.3199 17.9395C27.3099 18.0795 27.2899 18.2295 27.2699 18.3695C27.1899 19.0395 27.06 19.7595 26.86 20.5095C26.82 20.6695 26.78 20.8295 26.73 20.9995C26.65 21.2795 26.57 21.5595 26.47 21.8495C26.43 21.9595 26.39 22.0795 26.35 22.1995C26.11 22.8895 25.8099 23.6095 25.4499 24.3295C25.3399 24.5395 25.23 24.7595 25.12 24.9695C24.84 25.4795 24.5299 25.9895 24.1899 26.5195C24.0299 26.7695 23.8699 27.0195 23.6799 27.2795C21.0899 30.8895 20.52 33.1995 20.74 35.5295C21.91 34.0995 23.35 32.5195 25.12 30.7395C27.64 28.1895 30.79 24.4995 33.49 20.4295Z" fill="#14368A"/>
<path d="M44.1799 43.5795C44.6499 43.4395 44.6499 42.7695 44.1799 42.6295L41.3799 41.8195V43.1095V44.3995L44.1799 43.5795Z" fill="#DBB805"/>
<path d="M29.6899 37.2595C27.0999 37.2595 24.69 37.6295 22.7 38.2595C19.98 39.1295 17.19 39.7595 14.34 39.9495C11.27 40.1595 7.80997 40.2895 6.20997 40.0695C5.46997 39.9695 4.72989 39.8395 4.00989 39.6895C3.81989 39.6495 3.63997 39.6095 3.45997 39.5595C3.04997 39.4595 2.65 39.3595 2.25 39.2395C2.02 39.1795 1.78994 39.1095 1.55994 39.0295C1.51994 39.0295 1.47995 39.0095 1.43995 38.9995C0.689946 38.7595 0.129897 39.6795 0.639897 40.2495C0.649897 40.2695 0.659936 40.2795 0.679936 40.2995C1.18994 40.7995 1.60997 41.2295 1.95997 41.5895C2.96997 42.6395 3.35999 43.1095 3.35999 43.1095C3.35999 43.1095 3.01998 43.6195 2.09998 44.6195C2.08998 44.6395 2.06994 44.6595 2.05994 44.6695C1.95994 44.7695 1.85989 44.8795 1.75989 44.9895C1.74989 44.9995 1.74998 45.0095 1.72998 45.0195C1.57998 45.1795 1.40998 45.3595 1.22998 45.5395L0.929936 45.8395C0.349936 46.4095 0.919946 47.3695 1.68995 47.1295C2.26995 46.9495 2.85997 46.7895 3.45997 46.6495C3.71997 46.5795 3.98989 46.5195 4.25989 46.4695C5.00989 46.3195 5.7599 46.1995 6.5199 46.0995C8.2799 45.8695 12.59 46.1495 16 46.4795C18.37 46.7095 20.69 47.2595 22.96 47.9495C24.9 48.5395 27.2099 48.8795 29.6899 48.8795C36.5599 48.8795 42.1299 46.2795 42.1299 43.0695C42.1299 39.8595 36.5599 37.2595 29.6899 37.2595Z" fill="#4A60C2"/>
<path d="M3.83997 45.7995C3.69997 46.0895 3.56997 46.3795 3.45997 46.6495C2.85997 46.7895 2.26995 46.9495 1.68995 47.1295C0.919946 47.3695 0.349936 46.4095 0.929936 45.8395L1.22998 45.5395C1.40998 45.3595 1.57998 45.1795 1.72998 45.0195C1.74998 45.0095 1.74989 44.9995 1.75989 44.9895C1.84989 44.8995 1.92 44.8195 2 44.7395C2.02 44.7195 2.03994 44.6995 2.05994 44.6695C2.06994 44.6595 2.08998 44.6395 2.09998 44.6195C2.82998 43.7295 2.76997 42.4295 1.95997 41.5895C1.60997 41.2295 1.18994 40.7995 0.679936 40.2995C0.659936 40.2795 0.649897 40.2695 0.639897 40.2495C0.129897 39.6795 0.689946 38.7595 1.43995 38.9995C1.47995 39.0095 1.51994 39.0295 1.55994 39.0295C1.78994 39.1095 2.02 39.1795 2.25 39.2395C2.65 39.3595 3.04997 39.4595 3.45997 39.5595C3.56997 39.8395 3.69997 40.1295 3.83997 40.4095C4.66997 42.1095 4.66997 44.0995 3.83997 45.7995Z" fill="#14368A"/>
</svg>
