<svg width="45" height="86" viewBox="0 0 45 86" fill="none" xmlns="http://www.w3.org/2000/svg">
<path d="M33.47 74.5695C33.14 75.6095 32.7699 76.5795 32.3799 77.4595C32.0499 78.1895 31.72 78.8695 31.37 79.4495C31.35 79.4895 31.3299 79.5195 31.3099 79.5495C30.2999 81.1995 27.45 80.6295 27.35 78.7595C27.34 78.5195 27.3199 78.2795 27.2999 78.0395C27.2899 77.8495 27.27 77.6395 27.25 77.4395C27.17 76.5095 27.04 75.5195 26.84 74.4695C26.8 74.2495 26.7599 74.0195 26.7099 73.7895C26.6299 73.3995 26.5499 73.0095 26.4499 72.6195C26.4099 72.4595 26.3699 72.2995 26.3299 72.1295C26.0899 71.1695 25.7899 70.1795 25.4299 69.1695C25.3199 68.8795 25.21 68.5795 25.1 68.2895C24.82 67.5795 24.5099 66.8695 24.1699 66.1395C24.0099 65.7895 23.8499 65.4395 23.6599 65.0895C21.0699 60.0795 20.5 56.8695 20.72 53.6495C20.81 52.3395 21.0199 51.0295 21.2799 49.5895C21.6599 47.5595 22.8799 45.1695 25.2699 43.1095H34.4099L34.6799 49.5195C34.7999 52.2695 35.0699 55.0395 35.4399 57.7795C36.1399 62.7895 35.13 69.4995 33.47 74.5695Z" fill="#4A60C2"/>
<path d="M33.47 74.5695C33.14 75.6095 32.7699 76.5795 32.3799 77.4595C32.0499 78.1895 31.72 78.8695 31.37 79.4495C31.35 79.4895 31.3299 79.5195 31.3099 79.5495C30.2999 81.1995 27.45 80.6295 27.35 78.7595C27.34 78.5195 27.3199 78.2795 27.2999 78.0395C27.2899 77.8495 27.27 77.6395 27.25 77.4395C27.17 76.5095 27.04 75.5195 26.84 74.4695C26.8 74.2495 26.7599 74.0195 26.7099 73.7895C26.6299 73.3995 26.5499 73.0095 26.4499 72.6195C26.4099 72.4595 26.3699 72.2995 26.3299 72.1295C26.0899 71.1695 25.7899 70.1795 25.4299 69.1695C25.3199 68.8795 25.21 68.5795 25.1 68.2895C24.82 67.5795 24.5099 66.8695 24.1699 66.1395C24.0099 65.7895 23.8499 65.4395 23.6599 65.0895C21.0699 60.0795 20.5 56.8695 20.72 53.6495C21.89 55.6295 23.33 57.8295 25.1 60.2995C27.62 63.7995 30.77 68.9195 33.47 74.5695Z" fill="#14368A"/>
<path d="M33.47 11.6395C33.14 10.5995 32.7699 9.62951 32.3799 8.74951C32.0499 8.01951 31.72 7.33952 31.37 6.75952C31.35 6.71952 31.3299 6.68948 31.3099 6.65948C30.2999 5.00948 27.45 5.57952 27.35 7.44952C27.34 7.68952 27.3199 7.92949 27.2999 8.16949C27.2899 8.35949 27.27 8.56953 27.25 8.76953C27.17 9.69953 27.04 10.6895 26.84 11.7395C26.8 11.9595 26.7599 12.1895 26.7099 12.4195C26.6299 12.8095 26.5499 13.1995 26.4499 13.5895C26.4099 13.7495 26.3699 13.9095 26.3299 14.0795C26.0899 15.0395 25.7899 16.0295 25.4299 17.0395C25.3199 17.3295 25.21 17.6295 25.1 17.9195C24.82 18.6295 24.5099 19.3395 24.1699 20.0695C24.0099 20.4195 23.8499 20.7695 23.6599 21.1195C21.0699 26.1295 20.5 29.3395 20.72 32.5595C20.81 33.8695 21.0199 35.1795 21.2799 36.6195C21.6599 38.6495 22.8799 41.0395 25.2699 43.0995H34.4099L34.6799 36.6895C34.7999 33.9395 35.0699 31.1695 35.4399 28.4295C36.1399 23.4095 35.13 16.6995 33.47 11.6395Z" fill="#4A60C2"/>
<path d="M33.47 11.6395C33.14 10.5995 32.7699 9.62951 32.3799 8.74951C32.0499 8.01951 31.72 7.33952 31.37 6.75952C31.35 6.71952 31.3299 6.68948 31.3099 6.65948C30.2999 5.00948 27.45 5.57952 27.35 7.44952C27.34 7.68952 27.3199 7.92949 27.2999 8.16949C27.2899 8.35949 27.27 8.56953 27.25 8.76953C27.17 9.69953 27.04 10.6895 26.84 11.7395C26.8 11.9595 26.7599 12.1895 26.7099 12.4195C26.6299 12.8095 26.5499 13.1995 26.4499 13.5895C26.4099 13.7495 26.3699 13.9095 26.3299 14.0795C26.0899 15.0395 25.7899 16.0295 25.4299 17.0395C25.3199 17.3295 25.21 17.6295 25.1 17.9195C24.82 18.6295 24.5099 19.3395 24.1699 20.0695C24.0099 20.4195 23.8499 20.7695 23.6599 21.1195C21.0699 26.1295 20.5 29.3395 20.72 32.5595C21.89 30.5795 23.33 28.3795 25.1 25.9095C27.62 22.4095 30.77 17.2895 33.47 11.6395Z" fill="#14368A"/>
<path d="M44.1599 43.5795C44.6299 43.4395 44.6299 42.7695 44.1599 42.6295L41.36 41.8195V43.1095V44.3995L44.1599 43.5795Z" fill="#DBB805"/>
<path d="M29.6699 37.2595C27.0799 37.2595 24.67 37.6295 22.68 38.2595C19.96 39.1295 17.17 39.7595 14.32 39.9495C11.25 40.1595 7.78997 40.2895 6.18997 40.0695C5.44997 39.9695 4.71002 39.8395 3.99002 39.6895C3.80002 39.6495 3.61997 39.6095 3.43997 39.5595C3.02997 39.4595 2.63001 39.3595 2.23001 39.2395C2.00001 39.1795 1.76994 39.1095 1.53994 39.0295C1.49994 39.0295 1.45995 39.0095 1.41995 38.9995C0.669948 38.7595 0.110021 39.6795 0.620021 40.2495C0.630021 40.2695 0.639938 40.2795 0.659938 40.2995C1.16994 40.7995 1.58997 41.2295 1.93997 41.5895C2.94997 42.6395 3.33999 43.1095 3.33999 43.1095C3.33999 43.1095 2.99998 43.6195 2.07998 44.6195C2.06998 44.6395 2.04994 44.6595 2.03994 44.6695C1.93994 44.7695 1.84002 44.8795 1.74002 44.9895C1.73002 44.9995 1.72999 45.0095 1.70999 45.0195C1.55999 45.1795 1.38999 45.3595 1.20999 45.5395L0.909938 45.8395C0.329938 46.4095 0.899948 47.3695 1.66995 47.1295C2.24995 46.9495 2.83997 46.7895 3.43997 46.6495C3.69997 46.5795 3.97002 46.5195 4.24002 46.4695C4.99002 46.3195 5.74003 46.1995 6.50003 46.0995C8.26003 45.8695 12.57 46.1495 15.98 46.4795C18.35 46.7095 20.67 47.2595 22.94 47.9495C24.88 48.5395 27.1899 48.8795 29.6699 48.8795C36.5399 48.8795 42.11 46.2795 42.11 43.0695C42.11 39.8595 36.5399 37.2595 29.6699 37.2595Z" fill="#4A60C2"/>
<path d="M3.81997 45.7995C3.67997 46.0895 3.54997 46.3795 3.43997 46.6495C2.83997 46.7895 2.24995 46.9495 1.66995 47.1295C0.899948 47.3695 0.329938 46.4095 0.909938 45.8395L1.20999 45.5395C1.38999 45.3595 1.55999 45.1795 1.70999 45.0195C1.72999 45.0095 1.73002 44.9995 1.74002 44.9895C1.83002 44.8995 1.90001 44.8195 1.98001 44.7395C2.00001 44.7195 2.01994 44.6995 2.03994 44.6695C2.04994 44.6595 2.06998 44.6395 2.07998 44.6195C2.80998 43.7295 2.74997 42.4295 1.93997 41.5895C1.58997 41.2295 1.16994 40.7995 0.659938 40.2995C0.639938 40.2795 0.630021 40.2695 0.620021 40.2495C0.110021 39.6795 0.669948 38.7595 1.41995 38.9995C1.45995 39.0095 1.49994 39.0295 1.53994 39.0295C1.76994 39.1095 2.00001 39.1795 2.23001 39.2395C2.63001 39.3595 3.02997 39.4595 3.43997 39.5595C3.54997 39.8395 3.67997 40.1295 3.81997 40.4095C4.63997 42.1095 4.63997 44.0995 3.81997 45.7995Z" fill="#14368A"/>
</svg>
