<svg width="123" height="93" viewBox="0 0 123 93" fill="none" xmlns="http://www.w3.org/2000/svg">
<path d="M39.1545 29.2377L37.5926 31.1654L27.2356 22.767L18.6823 15.8376L19.7918 23.2876L22.2648 39.9232L19.8104 40.2889L17.3064 23.4612L15.292 9.89365L30.8677 22.5191L39.1545 29.2377Z" fill="black"/>
<path d="M39.1545 63.3457L30.8615 70.0705H30.8553L15.292 82.6897L17.3064 69.1346L19.8104 52.3007L22.2648 52.6602L19.7918 69.3082L18.6823 76.752L27.2294 69.8226L37.5926 61.4181L39.1545 63.3457Z" fill="black"/>
<path d="M105.505 49.1707L102.077 65.0005L98.8107 80.1114L97.0008 79.7147L95.1167 80.0866L92.4204 66.4075L89.0239 49.1459L91.4598 48.6686L94.8811 66.048L96.9946 76.783L99.4615 65.3848L103.081 48.6438L105.505 49.1707Z" fill="black"/>
<path d="M105.505 43.4189L103.081 43.9457L99.4615 27.2048L96.9946 15.8004L94.8811 26.5416L91.4598 43.9209L89.0239 43.4437L92.4204 26.1821L95.1167 12.503L97.0008 12.8687L98.8107 12.4782L102.077 27.5891L105.505 43.4189Z" fill="black"/>
<path d="M122.426 37.5245V55.0774C122.426 58.6847 120.008 61.8643 116.544 62.825C116.209 62.9241 115.862 62.9986 115.533 63.0481L102.077 65.0067L99.4618 65.391L94.8815 66.0542L92.4208 66.4137L57.6807 71.4713C56.9866 71.5766 56.2614 71.6448 55.5176 71.6696C55.2697 71.682 55.0217 71.6882 54.7738 71.6882C54.309 71.6882 53.838 71.6696 53.3545 71.6386L30.8618 70.0767H30.8556L27.2297 69.8288L19.7921 69.3144L17.3066 69.1408L12.9246 68.8371C12.9246 68.8371 12.8998 68.8371 12.8936 68.8371C9.66443 68.6078 7.11079 65.9674 6.96204 62.7568H6.94971V52.3813H6.95591V30.1365C6.95591 26.7957 9.56526 24.0004 12.8936 23.7711L17.3066 23.4674L19.7921 23.2938L27.2359 22.7732L30.868 22.5253L53.3545 20.9634C53.8318 20.9262 54.309 20.9138 54.7738 20.9138C55.0217 20.9138 55.2697 20.9138 55.5176 20.9262C56.2614 20.9572 56.968 21.0191 57.6683 21.1245L92.4208 26.1883L94.8815 26.5478L99.4618 27.211L102.077 27.5953L115.533 29.5538C115.552 29.5538 115.564 29.56 115.577 29.56C115.837 29.6034 116.178 29.6654 116.544 29.777C120.008 30.7377 122.426 33.9173 122.426 37.5245Z" fill="#8C8412"/>
<path d="M6.94971 52.3813V62.7568H2.91477C1.545 62.7568 0.435547 61.6474 0.435547 60.2776V54.8605C0.435547 53.4907 1.545 52.3813 2.91477 52.3813H6.94971Z" fill="#3D3D3D"/>
<path d="M10.2158 54.8605H2.91455V60.2776H10.2158V54.8605Z" fill="#1A1A1A"/>
<path d="M119.946 37.5184V55.0712C119.946 57.6124 118.242 59.7942 115.849 60.4388C115.632 60.5069 115.409 60.5565 115.18 60.5875L57.315 69.0169C56.689 69.1098 56.0568 69.1656 55.4246 69.1904C54.7924 69.2152 54.1601 69.2028 53.5279 69.1594L13.0671 66.3579C11.0218 66.2153 9.43506 64.5109 9.43506 62.4593V30.1303C9.43506 28.0787 11.0218 26.3805 13.0671 26.2379L53.5279 23.4302C54.1601 23.3868 54.7924 23.3744 55.4246 23.3992C56.0568 23.424 56.6828 23.4798 57.315 23.5728L115.18 32.0021C115.409 32.0393 115.632 32.0827 115.849 32.1509C118.242 32.8016 119.946 34.9772 119.946 37.5184Z" fill="#FCEE21"/>
<path d="M16.0546 26.0334L15.2427 26.0892C15.4968 26.0706 15.7633 26.0519 16.0546 26.0334Z" fill="#FF0000"/>
<path d="M119.946 53.4845L55.4243 59.6826V32.907L119.946 39.1051V53.4845Z" fill="#CFC00A"/>
<path d="M16.0546 26.0334L15.2427 26.0892C15.4968 26.0706 15.7633 26.0519 16.0546 26.0334Z" fill="#FF0000"/>
<path d="M69.2772 67.2752C64.7278 66.4137 61.4304 62.4407 61.4304 57.8108V46.4498V46.1398V34.785C61.4304 30.1551 64.7278 26.1759 69.2772 25.3206L57.315 23.5789C56.6828 23.486 56.0568 23.4302 55.4246 23.4054C54.7924 23.3806 54.1601 23.393 53.5279 23.4364L19.0854 25.8288C18.9428 25.8412 18.8002 25.8474 18.6639 25.8598C18.385 25.8784 18.1123 25.897 17.852 25.9156C17.7156 25.9218 17.5855 25.9342 17.4615 25.9404C17.1268 25.9652 16.8045 25.99 16.4946 26.0086C16.3458 26.021 16.1971 26.0272 16.0545 26.0396L15.2426 26.0953C15.1187 26.1015 15.0009 26.114 14.8831 26.1201C14.6538 26.1325 14.443 26.1511 14.2509 26.1635C13.4885 26.2131 13.0671 26.2441 13.0671 26.2441C11.0218 26.3867 9.43506 28.0849 9.43506 30.1365V62.4655C9.43506 64.5171 11.0218 66.2215 13.0671 66.3641C13.0671 66.3641 13.4885 66.3951 14.2509 66.4447C14.443 66.4571 14.6538 66.4757 14.8831 66.4881C15.0009 66.4943 15.1187 66.5066 15.2426 66.5128C15.4968 66.5314 15.7632 66.5501 16.0545 66.5686C16.1971 66.581 16.3458 66.5872 16.4946 66.5996C16.8045 66.6182 17.1268 66.643 17.4615 66.6678C17.5855 66.674 17.7156 66.6864 17.852 66.6926C18.1123 66.7112 18.385 66.7298 18.6639 66.7484C18.8002 66.7608 18.9428 66.767 19.0854 66.7794C19.4697 66.8042 19.8664 66.8289 20.2754 66.8599C20.48 66.8723 20.6907 66.8847 20.9015 66.9033C21.732 66.9591 22.6059 67.0211 23.517 67.0831L53.5279 69.1656C54.1601 69.209 54.7924 69.2214 55.4246 69.1966C56.0568 69.1718 56.689 69.116 57.315 69.023L59.5649 68.6946L69.2772 67.2752Z" fill="#CFC00A"/>
<path d="M55.0529 26.7957H45.2475L20.2632 28.7357L15.2861 29.4423C13.6499 29.6778 12.4351 31.0724 12.4351 32.7273V46.2948V59.8623C12.4351 61.511 13.6499 62.9118 15.2861 63.1473L20.2632 63.8539L45.2475 65.7939L55.0529 66.1038C57.7986 66.1906 60.2344 64.9757 60.2344 61.3065V31.1964C60.2344 28.8535 58.5362 26.7957 55.0529 26.7957Z" fill="#ADA000"/>
<path d="M19.3209 60.6557C19.73 60.2962 19.9717 59.757 19.9717 59.1805V46.2886V33.3967C19.9717 32.8264 19.73 32.281 19.3209 31.9215L18.0813 30.8369L14.2881 27.5147C12.4473 25.9032 9.46605 27.1305 9.43506 29.5787C9.43506 29.5973 9.43506 29.6158 9.43506 29.6344V32.312V46.2886V60.2652V62.9428C9.43506 62.9614 9.43506 62.98 9.43506 62.9986C9.46605 65.4468 12.4473 66.674 14.2881 65.0625C16.3583 63.2527 18.0813 61.7403 18.0813 61.7403L19.3209 60.6557Z" fill="#FCEE21"/>
<path d="M16.3088 31.3017C15.1931 30.3224 13.5259 31.1839 13.5259 32.7334V46.301V59.8685C13.5259 61.418 15.1931 62.2734 16.3088 61.3003L17.5112 60.2466C17.9079 59.8995 18.1434 59.3727 18.1434 58.8148V46.301V33.7871C18.1434 33.2293 17.9141 32.7087 17.5112 32.3554L16.3088 31.3017Z" fill="#CFC00A"/>
<path d="M45.5511 63.9159L37.4813 60.4945C35.25 59.5462 32.8451 59.0566 30.4217 59.0566H28.4011C25.3083 59.0566 22.3084 60.1227 19.9097 62.0689C19.4511 62.4407 19.6804 63.1783 20.2693 63.2279L45.2536 65.1679C45.9849 65.2237 46.2328 64.201 45.5511 63.9159Z" fill="#78A4BF"/>
<path d="M45.5511 28.6985L37.4813 32.1199C35.25 33.0682 32.8451 33.5578 30.4217 33.5578H28.4011C25.3083 33.5578 22.3084 32.4918 19.9097 30.5456C19.4511 30.1737 19.6804 29.4361 20.2693 29.3865L45.2536 27.4465C45.9849 27.3908 46.2328 28.4072 45.5511 28.6985Z" fill="#9AC0D9"/>
<path d="M119.946 37.5184V38.8261C117.523 38.0514 115.775 35.7829 115.775 33.1053C115.775 32.783 115.8 32.4607 115.849 32.1508C118.242 32.8016 119.946 34.9772 119.946 37.5184Z" fill="#FCB321"/>
<path d="M119.946 53.7697V55.0712C119.946 57.6124 118.242 59.7942 115.849 60.4388C115.8 60.1289 115.775 59.8066 115.775 59.4843C115.775 56.8129 117.523 54.5444 119.946 53.7697Z" fill="#FCB321"/>
<path d="M9.43528 50.2244H6.95605V62.7382H9.43528V50.2244Z" fill="#8C8412"/>
<path d="M44.9932 31.81C43.14 32.6219 41.9375 34.4565 41.9375 36.4771V46.4436V56.41C41.9375 58.4368 43.1338 60.2652 44.9932 61.0771L54.6931 65.3166C57.3086 66.4571 60.2342 64.5419 60.2342 61.6908V46.4498V31.1964C60.2342 28.3453 57.3086 26.43 54.6931 27.5705L44.9932 31.81Z" fill="#9AC0D9"/>
<path d="M57.1537 27.3349V41.0884V56.3418C57.1537 59.1929 54.2282 61.1081 51.6127 59.9677L41.9375 55.7344V56.4162C41.9375 58.443 43.1338 60.2714 44.9932 61.0833L54.6931 65.3228C57.3086 66.4633 60.2342 64.548 60.2342 61.6969V46.4497V31.1963C60.2342 29.244 58.8582 27.7316 57.1537 27.3349Z" fill="#78A4BF"/>
<path d="M45.3039 65.7876C45.2667 65.7876 45.2357 65.7876 45.1985 65.7814L20.2142 63.8415C19.6935 63.7981 19.2535 63.451 19.0985 62.9489C18.9436 62.4469 19.1047 61.9138 19.5138 61.5854C22.0178 59.5524 25.1726 58.4368 28.3956 58.4368H30.4162C32.9388 58.4368 35.3994 58.9388 37.7175 59.9243L45.7873 63.3456C46.3761 63.5935 46.6799 64.2009 46.5249 64.8208C46.3948 65.3972 45.8927 65.7876 45.3039 65.7876ZM28.3956 59.6764C25.4516 59.6764 22.5756 60.699 20.2947 62.5522L45.2977 64.548L45.3349 64.4984L45.3163 64.4922L37.2465 61.0709C35.0771 60.1536 32.7839 59.6825 30.4286 59.6825L28.3956 59.6764Z" fill="#8C8412"/>
<path d="M30.4221 34.1776H28.4015C25.1785 34.1776 22.0236 33.0557 19.5196 31.029C19.1106 30.7005 18.9495 30.1612 19.1044 29.6654C19.2594 29.1633 19.6994 28.8163 20.22 28.7729L45.2044 26.8329C45.8366 26.7771 46.3882 27.18 46.537 27.7998C46.6857 28.4196 46.382 29.027 45.7994 29.2749L37.7295 32.6962C35.399 33.6755 32.9447 34.1776 30.4221 34.1776ZM45.3345 28.1159L20.313 30.0063C22.5815 31.9153 25.4574 32.938 28.3953 32.938H30.4159C32.7711 32.938 35.0706 32.4731 37.2337 31.5496L45.3036 28.1283C45.3222 28.1221 45.3345 28.1159 45.3345 28.1159Z" fill="#8C8412"/>
<path d="M56.28 66.2835C55.6602 66.2835 55.0342 66.1533 54.4454 65.8992L44.7454 61.6597C42.6629 60.7486 41.3179 58.6909 41.3179 56.4224V36.4832C41.3179 34.2085 42.6629 32.157 44.7454 31.2459L54.4454 27.0064C55.8647 26.3866 57.4886 26.523 58.784 27.3721C60.0794 28.2212 60.8541 29.653 60.8541 31.2025V61.7093C60.8541 63.2588 60.0794 64.6906 58.784 65.5397C58.0217 66.0293 57.1539 66.2835 56.28 66.2835ZM56.28 27.8556C55.8275 27.8556 55.3688 27.9485 54.9412 28.1345L45.2412 32.3739C43.6111 33.0867 42.5575 34.6982 42.5575 36.477V56.4162C42.5575 58.195 43.6111 59.8065 45.2412 60.5193L54.9412 64.7587C55.9763 65.2112 57.1601 65.112 58.1022 64.4922C59.0505 63.8724 59.6145 62.8311 59.6145 61.6969V31.1901C59.6145 30.0621 59.0505 29.0146 58.1022 28.3948C57.5505 28.0415 56.9184 27.8556 56.28 27.8556Z" fill="#8C8412"/>
<path d="M9.13175 19.8725H4.79932V0.187469H9.13175L12.5035 2.71629V17.3437L9.13175 19.8725Z" fill="black"/>
<path d="M16.8358 19.8725H12.5034V0.187469H16.8358L20.2076 2.71629V17.3437L16.8358 19.8725Z" fill="black"/>
<path d="M24.5342 19.8725H20.208V0.187469H24.5342L27.9059 2.71629V17.3437L24.5342 19.8725Z" fill="black"/>
<path d="M9.13175 0.187469H4.79932V19.8725H9.13175V0.187469Z" fill="black"/>
<path d="M33.2857 0.187469H27.9058V19.8725H33.2857V0.187469Z" fill="black"/>
<path d="M87.5556 22.767H83.2231V3.082H87.5556L90.9274 5.61078V20.2382L87.5556 22.767Z" fill="black"/>
<path d="M95.2535 22.767H90.9272V3.082H95.2535L98.6252 5.61078V20.2382L95.2535 22.767Z" fill="black"/>
<path d="M102.958 22.767H98.6255V3.082H102.958L106.33 5.61078V20.2382L102.958 22.767Z" fill="black"/>
<path d="M87.5556 3.082H83.2231V22.767H87.5556V3.082Z" fill="black"/>
<path d="M111.709 3.082H106.329V22.767H111.709V3.082Z" fill="black"/>
<path d="M87.5556 89.5138H83.2231V69.8288H87.5556L90.9274 72.3576V86.985L87.5556 89.5138Z" fill="black"/>
<path d="M95.2535 89.5138H90.9272V69.8288H95.2535L98.6252 72.3576V86.985L95.2535 89.5138Z" fill="black"/>
<path d="M102.958 89.5138H98.6255V69.8288H102.958L106.33 72.3576V86.985L102.958 89.5138Z" fill="black"/>
<path d="M87.5556 69.8288H83.2231V89.5138H87.5556V69.8288Z" fill="black"/>
<path d="M111.709 69.8288H106.329V89.5138H111.709V69.8288Z" fill="black"/>
<path d="M9.13175 92.4083H4.79932V72.7233H9.13175L12.5035 75.2521V89.8795L9.13175 92.4083Z" fill="black"/>
<path d="M16.8358 92.4083H12.5034V72.7233H16.8358L20.2076 75.2521V89.8795L16.8358 92.4083Z" fill="black"/>
<path d="M24.5342 92.4083H20.208V72.7233H24.5342L27.9059 75.2521V89.8795L24.5342 92.4083Z" fill="black"/>
<path d="M9.13175 72.7233H4.79932V92.4083H9.13175V72.7233Z" fill="black"/>
<path d="M33.2857 72.7233H27.9058V92.4083H33.2857V72.7233Z" fill="black"/>
</svg>
