<svg width="123" height="93" viewBox="0 0 123 93" fill="none" xmlns="http://www.w3.org/2000/svg">
<path d="M39.6359 29.2377L38.0741 31.1654L27.7171 22.767L19.1638 15.8376L20.2732 23.2876L22.7462 39.9232L20.2918 40.2889L17.7878 23.4612L15.7734 9.89365L31.3491 22.5191L39.6359 29.2377Z" fill="black"/>
<path d="M39.6359 63.3457L31.3429 70.0705H31.3367L15.7734 82.6897L17.7878 69.1346L20.2918 52.3007L22.7462 52.6602L20.2732 69.3082L19.1638 76.752L27.7109 69.8226L38.0741 61.4181L39.6359 63.3457Z" fill="black"/>
<path d="M105.986 49.1707L102.558 65.0005L99.292 80.1114L97.4823 79.7147L95.598 80.0866L92.9019 66.4075L89.5054 49.1459L91.9412 48.6686L95.3625 66.048L97.4761 76.783L99.9429 65.3848L103.563 48.6438L105.986 49.1707Z" fill="black"/>
<path d="M105.986 43.4189L103.563 43.9457L99.9429 27.2048L97.4761 15.8004L95.3625 26.5416L91.9412 43.9209L89.5054 43.4437L92.9019 26.1821L95.598 12.503L97.4823 12.8687L99.292 12.4782L102.558 27.5891L105.986 43.4189Z" fill="black"/>
<path d="M122.913 37.5245V55.0774C122.913 58.6847 120.496 61.8643 117.031 62.825C116.696 62.9241 116.349 62.9986 116.021 63.0481L102.565 65.0067L99.9491 65.391L95.3688 66.0542L92.9082 66.4137L58.168 71.4713C57.4739 71.5766 56.7487 71.6448 56.0049 71.6696C55.757 71.682 55.5091 71.6882 55.2612 71.6882C54.7963 71.6882 54.3253 71.6696 53.8418 71.6386L31.3491 70.0767H31.3429L27.717 69.8288L20.2794 69.3144L17.7939 69.1408L13.4119 68.8371C13.4119 68.8371 13.3871 68.8371 13.3809 68.8371C10.1517 68.6078 7.59817 65.9674 7.44942 62.7568H7.43701V52.3813H7.44322V30.1365C7.44322 26.7957 10.0526 24.0004 13.3809 23.7711L17.7939 23.4674L20.2794 23.2938L27.7232 22.7732L31.3553 22.5253L53.8418 20.9634C54.3191 20.9262 54.7963 20.9138 55.2612 20.9138C55.5091 20.9138 55.757 20.9138 56.0049 20.9262C56.7487 20.9572 57.4553 21.0191 58.1556 21.1245L92.9082 26.1883L95.3688 26.5478L99.9491 27.211L102.565 27.5953L116.021 29.5538C116.039 29.5538 116.052 29.56 116.064 29.56C116.324 29.6034 116.665 29.6654 117.031 29.777C120.496 30.7377 122.913 33.9173 122.913 37.5245Z" fill="#8C8412"/>
<path d="M7.43701 52.3813V62.7568H3.40207C2.0323 62.7568 0.922852 61.6474 0.922852 60.2776V54.8605C0.922852 53.4907 2.0323 52.3813 3.40207 52.3813H7.43701Z" fill="#3D3D3D"/>
<path d="M10.6973 54.8605H3.396V60.2776H10.6973V54.8605Z" fill="#1A1A1A"/>
<path d="M120.427 37.5184V55.0712C120.427 57.6124 118.723 59.7942 116.33 60.4388C116.113 60.5069 115.89 60.5565 115.661 60.5875L57.796 69.0169C57.17 69.1098 56.5377 69.1656 55.9055 69.1904C55.2733 69.2152 54.6412 69.2028 54.009 69.1594L13.5481 66.3579C11.5027 66.2153 9.91602 64.5109 9.91602 62.4593V30.1303C9.91602 28.0787 11.5027 26.3805 13.5481 26.2379L54.009 23.4302C54.6412 23.3868 55.2733 23.3744 55.9055 23.3992C56.5377 23.424 57.1638 23.4798 57.796 23.5728L115.661 32.0021C115.89 32.0393 116.113 32.0827 116.33 32.1509C118.723 32.8016 120.427 34.9772 120.427 37.5184Z" fill="#FCEE21"/>
<path d="M16.5356 26.0334L15.7236 26.0892C15.9778 26.0706 16.2443 26.0519 16.5356 26.0334Z" fill="#FF0000"/>
<path d="M120.427 53.4845L55.9116 59.6826V32.907L120.427 39.1051V53.4845Z" fill="#CFC00A"/>
<path d="M16.5356 26.0334L15.7236 26.0892C15.9778 26.0706 16.2443 26.0519 16.5356 26.0334Z" fill="#FF0000"/>
<path d="M69.7582 67.2752C65.2089 66.4137 61.9115 62.4407 61.9115 57.8108V46.4498V46.1398V34.785C61.9115 30.1551 65.2089 26.1759 69.7582 25.3206L57.796 23.5789C57.1638 23.486 56.5377 23.4302 55.9055 23.4054C55.2733 23.3806 54.6412 23.393 54.009 23.4364L19.5663 25.8288C19.4238 25.8412 19.2813 25.8474 19.1449 25.8598C18.866 25.8784 18.5933 25.897 18.3329 25.9156C18.1966 25.9218 18.0664 25.9342 17.9425 25.9404C17.6078 25.9652 17.2855 25.99 16.9756 26.0086C16.8269 26.021 16.6781 26.0272 16.5356 26.0396L15.7236 26.0953C15.5996 26.1015 15.4819 26.114 15.3641 26.1201C15.1348 26.1325 14.9241 26.1511 14.7319 26.1635C13.9696 26.2131 13.5481 26.2441 13.5481 26.2441C11.5027 26.3867 9.91602 28.0849 9.91602 30.1365V62.4655C9.91602 64.5171 11.5027 66.2215 13.5481 66.3641C13.5481 66.3641 13.9696 66.3951 14.7319 66.4447C14.9241 66.4571 15.1348 66.4757 15.3641 66.4881C15.4819 66.4943 15.5996 66.5066 15.7236 66.5128C15.9777 66.5314 16.2443 66.5501 16.5356 66.5686C16.6781 66.581 16.8269 66.5872 16.9756 66.5996C17.2855 66.6182 17.6078 66.643 17.9425 66.6678C18.0664 66.674 18.1966 66.6864 18.3329 66.6926C18.5933 66.7112 18.866 66.7298 19.1449 66.7484C19.2813 66.7608 19.4238 66.767 19.5663 66.7794C19.9506 66.8042 20.3473 66.8289 20.7564 66.8599C20.9609 66.8723 21.1717 66.8847 21.3824 66.9033C22.2129 66.9591 23.0869 67.0211 23.998 67.0831L54.009 69.1656C54.6412 69.209 55.2733 69.2214 55.9055 69.1966C56.5377 69.1718 57.17 69.116 57.796 69.023L60.0459 68.6946L69.7582 67.2752Z" fill="#CFC00A"/>
<path d="M55.5338 26.7957H45.7285L20.7442 28.7357L15.7671 29.4423C14.1308 29.6778 12.916 31.0724 12.916 32.7273V46.2948V59.8623C12.916 61.511 14.1308 62.9118 15.7671 63.1473L20.7442 63.8539L45.7285 65.7939L55.5338 66.1038C58.2796 66.1906 60.7154 64.9757 60.7154 61.3065V31.1964C60.7154 28.8535 59.0171 26.7957 55.5338 26.7957Z" fill="#ADA000"/>
<path d="M19.8019 60.6557C20.2109 60.2962 20.4527 59.757 20.4527 59.1805V46.2886V33.3967C20.4527 32.8264 20.2109 32.281 19.8019 31.9215L18.5623 30.8369L14.7691 27.5147C12.9282 25.9032 9.94701 27.1305 9.91602 29.5787C9.91602 29.5973 9.91602 29.6158 9.91602 29.6344V32.312V46.2886V60.2652V62.9428C9.91602 62.9614 9.91602 62.98 9.91602 62.9986C9.94701 65.4468 12.9282 66.674 14.7691 65.0625C16.8392 63.2527 18.5623 61.7403 18.5623 61.7403L19.8019 60.6557Z" fill="#FCEE21"/>
<path d="M16.7961 31.3017C15.6805 30.3224 14.0132 31.1839 14.0132 32.7334V46.301V59.8685C14.0132 61.418 15.6805 62.2734 16.7961 61.3003L17.9986 60.2466C18.3952 59.8995 18.6307 59.3727 18.6307 58.8148V46.301V33.7871C18.6307 33.2293 18.4014 32.7087 17.9986 32.3554L16.7961 31.3017Z" fill="#CFC00A"/>
<path d="M46.0325 63.9159L37.9627 60.4945C35.7314 59.5462 33.3265 59.0566 30.9031 59.0566H28.8825C25.7897 59.0566 22.7898 60.1227 20.3912 62.0689C19.9325 62.4407 20.1618 63.1783 20.7506 63.2279L45.735 65.1679C46.4664 65.2237 46.7143 64.201 46.0325 63.9159Z" fill="#78A4BF"/>
<path d="M46.0325 28.6985L37.9627 32.1199C35.7314 33.0682 33.3265 33.5578 30.9031 33.5578H28.8825C25.7897 33.5578 22.7898 32.4918 20.3912 30.5456C19.9325 30.1737 20.1618 29.4361 20.7506 29.3865L45.735 27.4465C46.4664 27.3908 46.7143 28.4072 46.0325 28.6985Z" fill="#9AC0D9"/>
<path d="M120.428 37.5184V38.8261C118.004 38.0514 116.256 35.7829 116.256 33.1053C116.256 32.783 116.281 32.4607 116.331 32.1508C118.723 32.8016 120.428 34.9772 120.428 37.5184Z" fill="#FCB321"/>
<path d="M120.428 53.7697V55.0712C120.428 57.6124 118.723 59.7942 116.331 60.4388C116.281 60.1289 116.256 59.8066 116.256 59.4843C116.256 56.8129 118.004 54.5444 120.428 53.7697Z" fill="#FCB321"/>
<path d="M9.91623 50.2244H7.43701V62.7382H9.91623V50.2244Z" fill="#8C8412"/>
<path d="M45.4746 31.81C43.6214 32.6219 42.4189 34.4565 42.4189 36.4771V46.4436V56.41C42.4189 58.4368 43.6152 60.2652 45.4746 61.0771L55.1746 65.3166C57.7902 66.4571 60.7156 64.5419 60.7156 61.6908V46.4498V31.1964C60.7156 28.3453 57.7902 26.43 55.1746 27.5705L45.4746 31.81Z" fill="#9AC0D9"/>
<path d="M57.6352 27.3349V41.0884V56.3418C57.6352 59.1929 54.7097 61.1081 52.0942 59.9677L42.4189 55.7344V56.4162C42.4189 58.443 43.6152 60.2714 45.4746 61.0833L55.1746 65.3228C57.7902 66.4633 60.7156 64.548 60.7156 61.6969V46.4497V31.1963C60.7156 29.244 59.3397 27.7316 57.6352 27.3349Z" fill="#78A4BF"/>
<path d="M45.7912 65.7877C45.754 65.7877 45.723 65.7877 45.6858 65.7815L20.7015 63.8415C20.1809 63.7981 19.7408 63.451 19.5858 62.949C19.4309 62.4469 19.5921 61.9139 20.0011 61.5854C22.5052 59.5524 25.6599 58.4368 28.8829 58.4368H30.9035C33.4261 58.4368 35.8867 58.9388 38.2048 59.9243L46.2747 63.3456C46.8635 63.5936 47.1672 64.201 47.0122 64.8208C46.8759 65.3972 46.3738 65.7877 45.7912 65.7877ZM28.8767 59.6764C25.9326 59.6764 23.0568 60.6991 20.7759 62.5523L45.7788 64.5481L45.816 64.4985L45.7974 64.4923L37.7275 61.071C35.5582 60.1537 33.265 59.6826 30.9097 59.6826L28.8767 59.6764Z" fill="#8C8412"/>
<path d="M30.9035 34.1776H28.8829C25.6599 34.1776 22.5052 33.0557 20.0011 31.029C19.5921 30.7005 19.4309 30.1612 19.5858 29.6654C19.7408 29.1633 20.1809 28.8163 20.7015 28.7729L45.6858 26.8329C46.318 26.7771 46.8697 27.18 47.0184 27.7998C47.1672 28.4196 46.8635 29.027 46.2809 29.2749L38.211 32.6962C35.8867 33.6755 33.4261 34.1776 30.9035 34.1776ZM45.816 28.1159L20.7945 30.0063C23.063 31.9153 25.9388 32.938 28.8767 32.938H30.8973C33.2525 32.938 35.552 32.4731 37.7151 31.5496L45.785 28.1283C45.8098 28.1221 45.816 28.1159 45.816 28.1159Z" fill="#8C8412"/>
<path d="M56.7614 66.2835C56.1416 66.2835 55.5156 66.1533 54.9268 65.8992L45.2269 61.6597C43.1443 60.7486 41.7993 58.6909 41.7993 56.4224V36.4833C41.7993 34.2086 43.1443 32.157 45.2269 31.2459L54.9268 27.0065C56.3462 26.3866 57.9701 26.523 59.2655 27.3721C60.5609 28.2212 61.3356 29.653 61.3356 31.2025V61.7093C61.3356 63.2588 60.5609 64.6906 59.2655 65.5397C58.5031 66.0294 57.6353 66.2835 56.7614 66.2835ZM56.7614 27.8556C56.309 27.8556 55.8504 27.9486 55.4227 28.1345L45.7227 32.3739C44.0926 33.0867 43.0389 34.6982 43.0389 36.4771V56.4162C43.0389 58.1951 44.0926 59.8065 45.7227 60.5193L55.4227 64.7588C56.4578 65.2112 57.6416 65.1121 58.5837 64.4923C59.532 63.8724 60.096 62.8312 60.096 61.6969V31.1901C60.096 30.0621 59.532 29.0146 58.5837 28.3948C58.0321 28.0415 57.3998 27.8556 56.7614 27.8556Z" fill="#8C8412"/>
<path d="M12.9843 19.8725H8.65186V0.187469H12.9843L16.3561 2.71629V17.3437L12.9843 19.8725Z" fill="black"/>
<path d="M20.6889 19.8725H16.3564V0.187469H20.6889L24.0606 2.71629V17.3437L20.6889 19.8725Z" fill="black"/>
<path d="M28.3864 19.8725H24.0601V0.187469H28.3864L31.7581 2.71629V17.3437L28.3864 19.8725Z" fill="black"/>
<path d="M9.61319 0.187469H5.28076V19.8725H9.61319V0.187469Z" fill="black"/>
<path d="M33.7671 0.187469H28.3872V19.8725H33.7671V0.187469Z" fill="black"/>
<path d="M91.4091 22.7669H87.0767V3.08194H91.4091L94.7809 5.61072V20.2381L91.4091 22.7669Z" fill="black"/>
<path d="M99.107 22.7669H94.7808V3.08194H99.107L102.479 5.61072V20.2381L99.107 22.7669Z" fill="black"/>
<path d="M106.811 22.7669H102.479V3.08194H106.811L110.183 5.61072V20.2381L106.811 22.7669Z" fill="black"/>
<path d="M88.037 3.08197H83.7046V22.767H88.037V3.08197Z" fill="black"/>
<path d="M112.191 3.08197H106.811V22.767H112.191V3.08197Z" fill="black"/>
<path d="M12.9843 92.4083H8.65186V72.7233H12.9843L16.3561 75.252V89.8795L12.9843 92.4083Z" fill="black"/>
<path d="M20.6889 92.4083H16.3564V72.7233H20.6889L24.0606 75.252V89.8795L20.6889 92.4083Z" fill="black"/>
<path d="M28.3864 92.4083H24.0601V72.7233H28.3864L31.7581 75.252V89.8795L28.3864 92.4083Z" fill="black"/>
<path d="M9.61319 72.7233H5.28076V92.4083H9.61319V72.7233Z" fill="black"/>
<path d="M33.7671 72.7233H28.3872V92.4083H33.7671V72.7233Z" fill="black"/>
<path d="M91.4091 89.5138H87.0767V69.8288H91.4091L94.7809 72.3576V86.985L91.4091 89.5138Z" fill="black"/>
<path d="M99.107 89.5138H94.7808V69.8288H99.107L102.479 72.3576V86.985L99.107 89.5138Z" fill="black"/>
<path d="M106.811 89.5138H102.479V69.8288H106.811L110.183 72.3576V86.985L106.811 89.5138Z" fill="black"/>
<path d="M88.037 69.8288H83.7046V89.5138H88.037V69.8288Z" fill="black"/>
<path d="M112.191 69.8288H106.811V89.5138H112.191V69.8288Z" fill="black"/>
</svg>
