<svg width="122" height="93" viewBox="0 0 122 93" fill="none" xmlns="http://www.w3.org/2000/svg">
<path d="M38.7229 29.2377L37.1609 31.1654L26.804 22.767L18.2507 15.8376L19.3601 23.2876L21.8332 39.9232L19.3788 40.2889L16.8747 23.4612L14.8604 9.89365L30.4361 22.5191L38.7229 29.2377Z" fill="black"/>
<path d="M38.7229 63.3457L30.4299 70.0705H30.4236L14.8604 82.6897L16.8747 69.1346L19.3788 52.3007L21.8332 52.6602L19.3601 69.3082L18.2507 76.752L26.7978 69.8226L37.1609 61.4181L38.7229 63.3457Z" fill="black"/>
<path d="M105.073 49.1707L101.645 65.0005L98.379 80.1114L96.5692 79.7147L94.685 80.0866L91.9889 66.4075L88.5923 49.1459L91.0282 48.6686L94.4495 66.048L96.563 76.783L99.0299 65.3848L102.65 48.6438L105.073 49.1707Z" fill="black"/>
<path d="M105.073 43.4189L102.65 43.9457L99.0299 27.2048L96.563 15.8004L94.4495 26.5416L91.0282 43.9209L88.5923 43.4437L91.9889 26.1821L94.685 12.503L96.5692 12.8687L98.379 12.4782L101.645 27.5891L105.073 43.4189Z" fill="black"/>
<path d="M122 37.5245V55.0774C122 58.6847 119.583 61.8643 116.118 62.825C115.783 62.9241 115.436 62.9986 115.108 63.0481L101.652 65.0067L99.036 65.391L94.4557 66.0542L91.995 66.4137L57.255 71.4713C56.5608 71.5766 55.8356 71.6448 55.0918 71.6696C54.8439 71.682 54.596 71.6882 54.348 71.6882C53.8832 71.6882 53.4122 71.6696 52.9287 71.6386L30.436 70.0767H30.4298L26.8039 69.8288L19.3663 69.3144L16.8808 69.1408L12.4989 68.8371C12.4989 68.8371 12.474 68.8371 12.4678 68.8371C9.23865 68.6078 6.68501 65.9674 6.53626 62.7568H6.52393V52.3813H6.53013V30.1365C6.53013 26.7957 9.13948 24.0004 12.4678 23.7711L16.8808 23.4674L19.3663 23.2938L26.8101 22.7732L30.4422 22.5253L52.9287 20.9634C53.406 20.9262 53.8832 20.9138 54.348 20.9138C54.596 20.9138 54.8439 20.9138 55.0918 20.9262C55.8356 20.9572 56.5422 21.0191 57.2426 21.1245L91.995 26.1883L94.4557 26.5478L99.036 27.211L101.652 27.5953L115.108 29.5538C115.126 29.5538 115.139 29.56 115.151 29.56C115.411 29.6034 115.752 29.6654 116.118 29.777C119.583 30.7377 122 33.9173 122 37.5245Z" fill="#8C8412"/>
<path d="M6.52392 52.3813V62.7568H2.48899C1.11922 62.7568 0.00976562 61.6474 0.00976562 60.2776V54.8605C0.00976562 53.4907 1.11922 52.3813 2.48899 52.3813H6.52392Z" fill="#3D3D3D"/>
<path d="M9.78423 54.8605H2.48291V60.2776H9.78423V54.8605Z" fill="#1A1A1A"/>
<path d="M119.514 37.5184V55.0712C119.514 57.6124 117.81 59.7942 115.417 60.4388C115.2 60.5069 114.977 60.5565 114.748 60.5875L56.8829 69.0169C56.2569 69.1098 55.6246 69.1656 54.9924 69.1904C54.3602 69.2152 53.7281 69.2028 53.0959 69.1594L12.635 66.3579C10.5896 66.2153 9.00293 64.5109 9.00293 62.4593V30.1303C9.00293 28.0787 10.5896 26.3805 12.635 26.2379L53.0959 23.4302C53.7281 23.3868 54.3602 23.3744 54.9924 23.3992C55.6246 23.424 56.2507 23.4798 56.8829 23.5728L114.748 32.0021C114.977 32.0393 115.2 32.0827 115.417 32.1509C117.81 32.8016 119.514 34.9772 119.514 37.5184Z" fill="#FCEE21"/>
<path d="M15.6225 26.0334L14.8105 26.0892C15.0647 26.0706 15.3311 26.0519 15.6225 26.0334Z" fill="#FF0000"/>
<path d="M119.514 53.4845L54.9927 59.6826V32.907L119.514 39.1051V53.4845Z" fill="#CFC00A"/>
<path d="M15.6225 26.0334L14.8105 26.0892C15.0647 26.0706 15.3311 26.0519 15.6225 26.0334Z" fill="#FF0000"/>
<path d="M68.8451 67.2752C64.2957 66.4137 60.9984 62.4407 60.9984 57.8108V46.4498V46.1398V34.785C60.9984 30.1551 64.2957 26.1759 68.8451 25.3206L56.8829 23.5789C56.2507 23.486 55.6246 23.4302 54.9924 23.4054C54.3602 23.3806 53.7281 23.393 53.0959 23.4364L18.6533 25.8288C18.5107 25.8412 18.3682 25.8474 18.2318 25.8598C17.9529 25.8784 17.6802 25.897 17.4199 25.9156C17.2835 25.9218 17.1533 25.9342 17.0294 25.9404C16.6947 25.9652 16.3724 25.99 16.0625 26.0086C15.9138 26.021 15.765 26.0272 15.6224 26.0396L14.8105 26.0953C14.6865 26.1015 14.5687 26.114 14.451 26.1201C14.2216 26.1325 14.0109 26.1511 13.8188 26.1635C13.0564 26.2131 12.635 26.2441 12.635 26.2441C10.5896 26.3867 9.00293 28.0849 9.00293 30.1365V62.4655C9.00293 64.5171 10.5896 66.2215 12.635 66.3641C12.635 66.3641 13.0564 66.3951 13.8188 66.4447C14.0109 66.4571 14.2216 66.4757 14.451 66.4881C14.5687 66.4943 14.6865 66.5066 14.8105 66.5128C15.0646 66.5314 15.3311 66.5501 15.6224 66.5686C15.765 66.581 15.9138 66.5872 16.0625 66.5996C16.3724 66.6182 16.6947 66.643 17.0294 66.6678C17.1533 66.674 17.2835 66.6864 17.4199 66.6926C17.6802 66.7112 17.9529 66.7298 18.2318 66.7484C18.3682 66.7608 18.5107 66.767 18.6533 66.7794C19.0375 66.8042 19.4342 66.8289 19.8433 66.8599C20.0479 66.8723 20.2586 66.8847 20.4693 66.9033C21.2999 66.9591 22.1738 67.0211 23.0849 67.0831L53.0959 69.1656C53.7281 69.209 54.3602 69.2214 54.9924 69.1966C55.6246 69.1718 56.2569 69.116 56.8829 69.023L59.1328 68.6946L68.8451 67.2752Z" fill="#CFC00A"/>
<path d="M54.6207 26.7957H44.8154L19.8311 28.7357L14.854 29.4423C13.2177 29.6778 12.0029 31.0724 12.0029 32.7273V46.2948V59.8623C12.0029 61.511 13.2177 62.9118 14.854 63.1473L19.8311 63.8539L44.8154 65.7939L54.6207 66.1038C57.3665 66.1906 59.8023 64.9757 59.8023 61.3065V31.1964C59.8023 28.8535 58.104 26.7957 54.6207 26.7957Z" fill="#ADA000"/>
<path d="M18.8888 60.6557C19.2979 60.2962 19.5396 59.757 19.5396 59.1805V46.2886V33.3967C19.5396 32.8264 19.2979 32.281 18.8888 31.9215L17.6492 30.8369L13.856 27.5147C12.0152 25.9032 9.03392 27.1305 9.00293 29.5787C9.00293 29.5973 9.00293 29.6158 9.00293 29.6344V32.312V46.2886V60.2652V62.9428C9.00293 62.9614 9.00293 62.98 9.00293 62.9986C9.03392 65.4468 12.0152 66.674 13.856 65.0625C15.9261 63.2527 17.6492 61.7403 17.6492 61.7403L18.8888 60.6557Z" fill="#FCEE21"/>
<path d="M15.883 31.3017C14.7674 30.3224 13.1001 31.1839 13.1001 32.7334V46.301V59.8685C13.1001 61.418 14.7674 62.2734 15.883 61.3003L17.0854 60.2466C17.4821 59.8995 17.7176 59.3727 17.7176 58.8148V46.301V33.7871C17.7176 33.2293 17.4883 32.7087 17.0854 32.3554L15.883 31.3017Z" fill="#CFC00A"/>
<path d="M45.1194 63.9159L37.0496 60.4945C34.8183 59.5462 32.4135 59.0566 29.99 59.0566H27.9695C24.8766 59.0566 21.8767 60.1227 19.4781 62.0689C19.0194 62.4407 19.2488 63.1783 19.8376 63.2279L44.8219 65.1679C45.5533 65.2237 45.8012 64.201 45.1194 63.9159Z" fill="#78A4BF"/>
<path d="M45.1194 28.6985L37.0496 32.1199C34.8183 33.0682 32.4135 33.5578 29.99 33.5578H27.9695C24.8766 33.5578 21.8767 32.4918 19.4781 30.5456C19.0194 30.1737 19.2488 29.4361 19.8376 29.3865L44.8219 27.4465C45.5533 27.3908 45.8012 28.4072 45.1194 28.6985Z" fill="#9AC0D9"/>
<path d="M119.515 37.5184V38.8261C117.091 38.0514 115.343 35.7829 115.343 33.1053C115.343 32.783 115.368 32.4607 115.418 32.1508C117.81 32.8016 119.515 34.9772 119.515 37.5184Z" fill="#FCB321"/>
<path d="M119.515 53.7697V55.0712C119.515 57.6124 117.81 59.7942 115.418 60.4388C115.368 60.1289 115.343 59.8066 115.343 59.4843C115.343 56.8129 117.091 54.5444 119.515 53.7697Z" fill="#FCB321"/>
<path d="M9.00315 50.2244H6.52393V62.7382H9.00315V50.2244Z" fill="#8C8412"/>
<path d="M44.5615 31.81C42.7083 32.6219 41.5059 34.4565 41.5059 36.4771V46.4436V56.41C41.5059 58.4368 42.7021 60.2652 44.5615 61.0771L54.2614 65.3166C56.877 66.4571 59.8025 64.5419 59.8025 61.6908V46.4498V31.1964C59.8025 28.3453 56.877 26.43 54.2614 27.5705L44.5615 31.81Z" fill="#9AC0D9"/>
<path d="M56.7221 27.3349V41.0884V56.3418C56.7221 59.1929 53.7966 61.1081 51.181 59.9677L41.5059 55.7344V56.4162C41.5059 58.443 42.7021 60.2714 44.5615 61.0833L54.2614 65.3228C56.877 66.4633 59.8025 64.548 59.8025 61.6969V46.4497V31.1963C59.8025 29.244 58.4266 27.7316 56.7221 27.3349Z" fill="#78A4BF"/>
<path d="M44.8718 65.7877C44.8346 65.7877 44.8036 65.7877 44.7664 65.7815L19.7821 63.8415C19.2615 63.7981 18.8214 63.451 18.6664 62.949C18.5115 62.4469 18.6726 61.9139 19.0817 61.5854C21.5857 59.5524 24.7405 58.4368 27.9635 58.4368H29.9841C32.5067 58.4368 34.9673 58.9388 37.2854 59.9243L45.3552 63.3456C45.944 63.5936 46.2477 64.201 46.0928 64.8208C45.9626 65.3972 45.4606 65.7877 44.8718 65.7877ZM27.9635 59.6764C25.0194 59.6764 22.1435 60.6991 19.8626 62.5523L44.8656 64.5481L44.9027 64.4985L44.8842 64.4923L36.8143 61.071C34.645 60.1537 32.3517 59.6826 29.9965 59.6826L27.9635 59.6764Z" fill="#8C8412"/>
<path d="M29.9904 34.1776H27.9698C24.7469 34.1776 21.592 33.0557 19.088 31.029C18.6789 30.7005 18.5178 30.1612 18.6728 29.6654C18.8277 29.1633 19.2677 28.8163 19.7884 28.7729L44.7728 26.8329C45.405 26.7771 45.9566 27.18 46.1054 27.7998C46.2541 28.4196 45.9504 29.027 45.3677 29.2749L37.2979 32.6962C34.9674 33.6755 32.513 34.1776 29.9904 34.1776ZM44.9029 28.1159L19.8814 30.0063C22.1498 31.9153 25.0258 32.938 27.9636 32.938H29.9842C32.3395 32.938 34.6389 32.4731 36.8021 31.5496L44.8719 28.1283C44.8967 28.1221 44.9029 28.1159 44.9029 28.1159Z" fill="#8C8412"/>
<path d="M55.8483 66.2835C55.2285 66.2835 54.6026 66.1533 54.0137 65.8992L44.3138 61.6597C42.2312 60.7486 40.8862 58.6909 40.8862 56.4224V36.4833C40.8862 34.2086 42.2312 32.157 44.3138 31.2459L54.0137 27.0065C55.4331 26.3866 57.057 26.523 58.3524 27.3721C59.6478 28.2212 60.4225 29.653 60.4225 31.2025V61.7093C60.4225 63.2588 59.6478 64.6906 58.3524 65.5397C57.59 66.0294 56.7223 66.2835 55.8483 66.2835ZM55.8483 27.8556C55.3959 27.8556 54.9372 27.9486 54.5095 28.1345L44.8096 32.3739C43.1795 33.0867 42.1258 34.6982 42.1258 36.4771V56.4162C42.1258 58.1951 43.1795 59.8065 44.8096 60.5193L54.5095 64.7588C55.5446 65.2112 56.7284 65.1121 57.6705 64.4923C58.6188 63.8724 59.1829 62.8312 59.1829 61.6969V31.1901C59.1829 30.0621 58.6188 29.0146 57.6705 28.3948C57.1189 28.0415 56.4867 27.8556 55.8483 27.8556Z" fill="#8C8412"/>
<path d="M10.0009 19.8725H5.66846V0.187469H10.0009L13.3726 2.71629V17.3437L10.0009 19.8725Z" fill="black"/>
<path d="M17.6993 19.8725H13.373V0.187469H17.6993L21.0711 2.71629V17.3437L17.6993 19.8725Z" fill="black"/>
<path d="M25.4032 19.8725H21.0708V0.187469H25.4032L28.7749 2.71629V17.3437L25.4032 19.8725Z" fill="black"/>
<path d="M8.6997 0.187469H4.36719V19.8725H8.6997V0.187469Z" fill="black"/>
<path d="M32.8531 0.187469H27.4731V19.8725H32.8531V0.187469Z" fill="black"/>
<path d="M88.4186 22.767H84.0923V3.08197H88.4186L91.7903 5.61075V20.2382L88.4186 22.767Z" fill="black"/>
<path d="M96.123 22.767H91.7905V3.08197H96.123L99.4947 5.61075V20.2382L96.123 22.767Z" fill="black"/>
<path d="M103.827 22.767H99.4946V3.08197H103.827L107.199 5.61075V20.2382L103.827 22.767Z" fill="black"/>
<path d="M87.1234 3.082H82.791V22.767H87.1234V3.082Z" fill="black"/>
<path d="M111.277 3.082H105.897V22.767H111.277V3.082Z" fill="black"/>
<path d="M88.4186 89.5138H84.0923V69.8288H88.4186L91.7903 72.3576V86.985L88.4186 89.5138Z" fill="black"/>
<path d="M96.123 89.5138H91.7905V69.8288H96.123L99.4947 72.3576V86.985L96.123 89.5138Z" fill="black"/>
<path d="M103.827 89.5138H99.4946V69.8288H103.827L107.199 72.3576V86.985L103.827 89.5138Z" fill="black"/>
<path d="M87.1234 69.8288H82.791V89.5138H87.1234V69.8288Z" fill="black"/>
<path d="M111.277 69.8288H105.897V89.5138H111.277V69.8288Z" fill="black"/>
<path d="M10.0009 92.4083H5.66846V72.7233H10.0009L13.3726 75.252V89.8795L10.0009 92.4083Z" fill="black"/>
<path d="M17.6993 92.4083H13.373V72.7233H17.6993L21.0711 75.252V89.8795L17.6993 92.4083Z" fill="black"/>
<path d="M25.4032 92.4083H21.0708V72.7233H25.4032L28.7749 75.252V89.8795L25.4032 92.4083Z" fill="black"/>
<path d="M8.6997 72.7233H4.36719V92.4083H8.6997V72.7233Z" fill="black"/>
<path d="M32.8531 72.7233H27.4731V92.4083H32.8531V72.7233Z" fill="black"/>
</svg>
