<svg width="64" height="153" viewBox="0 0 64 153" fill="none" xmlns="http://www.w3.org/2000/svg">
<path d="M55.2599 115.64C53.0099 102.13 50.3399 77.0898 50.3399 77.0898H38.5299L32.7699 90.2798C32.7699 90.2798 32.7699 90.2799 32.7599 90.2899L31.5699 93.0699C29.5699 95.8099 27.2099 104.42 34.7899 121.07C34.7899 121.07 34.7899 121.07 34.7799 121.07C34.6899 121.12 34.6099 121.18 34.5299 121.24C33.1799 122.3 33.9299 124.58 35.6999 124.67H35.8399L35.9399 124.66C35.6599 124.84 35.4099 125.05 35.1799 125.27C35.0799 125.37 34.9699 125.48 34.8699 125.59C34.7999 125.68 34.7199 125.77 34.6499 125.87C34.6099 125.91 34.5799 125.95 34.5499 125.99C34.5299 126.02 34.5099 126.04 34.4999 126.07C33.4799 127.58 34.9399 129.57 36.7099 129C36.4899 129.19 36.2899 129.38 36.0899 129.58C36.0599 129.6 36.0399 129.63 36.0199 129.65C35.8599 129.83 35.6899 130.01 35.5399 130.2C35.3999 130.37 35.2699 130.55 35.1399 130.73L34.6299 131.54C34.5699 131.65 34.4999 131.77 34.4399 131.89C34.3999 131.97 34.3499 132.06 34.3199 132.14C34.1999 132.37 34.0999 132.6 34.0099 132.82C33.9499 132.94 33.9099 133.05 33.8699 133.16C33.7999 133.33 33.7399 133.5 33.6899 133.67C33.5199 134.15 33.3899 134.63 33.2899 135.09C33.2799 135.1 33.2799 135.1 33.2799 135.11C33.2699 135.15 33.2599 135.18 33.2599 135.22C32.9499 136.97 34.9799 138.22 36.3799 137.08C36.3899 137.08 36.3999 137.07 36.4099 137.06C36.4099 137.06 32.6499 144.17 33.6299 150.34C33.7599 151.14 34.1099 151.73 34.5499 152.16C35.3099 153.11 36.9599 153.23 37.7299 151.97L49.2599 133.27L52.9699 127.27C55.1099 123.79 55.9299 119.66 55.2599 115.64Z" fill="#F7931E"/>
<path d="M49.2599 133.27L37.7299 151.97C36.6999 153.65 34.0499 152.94 33.6299 150.34C32.6499 144.17 36.4099 137.06 36.4099 137.06C36.3999 137.07 36.3899 137.08 36.3799 137.08C34.9799 138.22 32.9499 136.97 33.2599 135.22C33.2599 135.18 33.2699 135.15 33.2799 135.11C33.2799 135.1 33.2799 135.1 33.2899 135.09C33.3899 134.63 33.5199 134.15 33.6899 133.67C33.7399 133.5 33.7999 133.33 33.8699 133.16C33.9099 133.05 33.9499 132.94 34.0099 132.82C34.0999 132.6 34.1999 132.37 34.3199 132.14C34.3499 132.06 34.3999 131.97 34.4399 131.89C34.4999 131.77 34.5699 131.65 34.6299 131.54L35.1399 130.73C35.2699 130.55 35.3999 130.37 35.5399 130.2C35.6899 130.01 35.8599 129.83 36.0199 129.65C36.0399 129.63 36.0599 129.6 36.0899 129.58C36.2899 129.38 36.4899 129.19 36.7099 129C34.9399 129.57 33.4799 127.58 34.4999 126.07C34.5099 126.04 34.5299 126.02 34.5499 125.99C34.5799 125.95 34.6099 125.91 34.6499 125.87C34.7199 125.77 34.7999 125.68 34.8699 125.59C34.9699 125.48 35.0799 125.37 35.1799 125.27C35.4099 125.05 35.6599 124.84 35.9399 124.66L35.8399 124.67H35.6999C33.9299 124.58 33.1799 122.3 34.5299 121.24C34.6099 121.18 34.6899 121.12 34.7799 121.07C34.7899 121.07 34.7899 121.07 34.7899 121.07C27.2099 104.42 29.5699 95.8098 31.5699 93.0698L32.7599 90.2898C27.0999 110.7 41.9099 120.45 41.9099 120.45L41.8699 120.51C40.9299 121.95 42.4499 123.75 44.0599 123.14C44.5899 122.95 44.9999 122.79 45.0599 122.77C44.9199 122.9 44.7799 123.03 44.6499 123.16C42.9499 124.81 44.3399 127.39 46.3099 127.39C46.6899 127.39 47.0899 127.29 47.4899 127.08C44.5899 132.4 49.2599 133.27 49.2599 133.27Z" fill="#BA6F17"/>
<path d="M55.2599 38.5398C53.0099 52.0498 50.3399 77.0898 50.3399 77.0898H38.5299L32.7699 63.8998C32.7699 63.8998 32.7699 63.8998 32.7599 63.8898L31.5699 61.1098C29.5699 58.3698 27.2099 49.7598 34.7899 33.1098C34.7899 33.1098 34.7899 33.1098 34.7799 33.1098C34.6899 33.0598 34.6099 32.9998 34.5299 32.9398C33.1799 31.8798 33.9299 29.5998 35.6999 29.5098H35.8399L35.9399 29.5198C35.6599 29.3398 35.4099 29.1298 35.1799 28.9098C35.0799 28.8098 34.9699 28.6998 34.8699 28.5898C34.7999 28.4998 34.7199 28.4098 34.6499 28.3098C34.6099 28.2698 34.5799 28.2298 34.5499 28.1898C34.5299 28.1598 34.5099 28.1398 34.4999 28.1098C33.4799 26.5998 34.9399 24.6098 36.7099 25.1798C36.4899 24.9898 36.2899 24.7998 36.0899 24.5998C36.0599 24.5798 36.0399 24.5498 36.0199 24.5298C35.8599 24.3498 35.6899 24.1698 35.5399 23.9798C35.3999 23.8098 35.2699 23.6298 35.1399 23.4498L34.6299 22.6398C34.5699 22.5298 34.4999 22.4098 34.4399 22.2898C34.3999 22.2098 34.3499 22.1198 34.3199 22.0398C34.1999 21.8098 34.0999 21.5798 34.0099 21.3598C33.9499 21.2398 33.9099 21.1298 33.8699 21.0198C33.7999 20.8498 33.7399 20.6798 33.6899 20.5098C33.5199 20.0298 33.3899 19.5498 33.2899 19.0898C33.2799 19.0798 33.2799 19.0798 33.2799 19.0698C33.2699 19.0298 33.2599 18.9998 33.2599 18.9598C32.9499 17.2098 34.9799 15.9598 36.3799 17.0998C36.3899 17.0998 36.3999 17.1098 36.4099 17.1198C36.4099 17.1198 32.6499 10.0098 33.6299 3.83979C33.7599 3.03979 34.1099 2.44985 34.5499 2.01985C35.3099 1.06985 36.9599 0.949848 37.7299 2.20985L49.2599 20.9098L52.9699 26.9098C55.1099 30.3898 55.9299 34.5198 55.2599 38.5398Z" fill="#F7931E"/>
<path d="M49.2599 20.9098L37.7299 2.20986C36.6999 0.529856 34.0499 1.2398 33.6299 3.8398C32.6499 10.0098 36.4099 17.1198 36.4099 17.1198C36.3999 17.1098 36.3899 17.0998 36.3799 17.0998C34.9799 15.9598 32.9499 17.2099 33.2599 18.9599C33.2599 18.9999 33.2699 19.0298 33.2799 19.0698C33.2799 19.0798 33.2799 19.0798 33.2899 19.0898C33.3899 19.5498 33.5199 20.0298 33.6899 20.5098C33.7399 20.6798 33.7999 20.8499 33.8699 21.0199C33.9099 21.1299 33.9499 21.2398 34.0099 21.3598C34.0999 21.5798 34.1999 21.8098 34.3199 22.0398C34.3499 22.1198 34.3999 22.2098 34.4399 22.2898C34.4999 22.4098 34.5699 22.5298 34.6299 22.6398L35.1399 23.4498C35.2699 23.6298 35.3999 23.8098 35.5399 23.9798C35.6899 24.1698 35.8599 24.3498 36.0199 24.5298C36.0399 24.5498 36.0599 24.5798 36.0899 24.5998C36.2899 24.7998 36.4899 24.9898 36.7099 25.1798C34.9399 24.6098 33.4799 26.5998 34.4999 28.1098C34.5099 28.1398 34.5299 28.1598 34.5499 28.1898C34.5799 28.2298 34.6099 28.2698 34.6499 28.3098C34.7199 28.4098 34.7999 28.4998 34.8699 28.5898C34.9699 28.6998 35.0799 28.8098 35.1799 28.9098C35.4099 29.1298 35.6599 29.3399 35.9399 29.5199L35.8399 29.5098H35.6999C33.9299 29.5998 33.1799 31.8798 34.5299 32.9398C34.6099 32.9998 34.6899 33.0598 34.7799 33.1098C34.7899 33.1098 34.7899 33.1098 34.7899 33.1098C27.2099 49.7598 29.5699 58.3698 31.5699 61.1098L32.7599 63.8898C27.0999 43.4798 41.9099 33.7298 41.9099 33.7298L41.8699 33.6698C40.9299 32.2298 42.4499 30.4298 44.0599 31.0398C44.5899 31.2298 44.9999 31.3898 45.0599 31.4098C44.9199 31.2798 44.7799 31.1499 44.6499 31.0199C42.9499 29.3699 44.3399 26.7898 46.3099 26.7898C46.6899 26.7898 47.0899 26.8898 47.4899 27.0998C44.5899 21.7798 49.2599 20.9098 49.2599 20.9098Z" fill="#BA6F17"/>
<path d="M62.9999 76.3397L58.8199 75.1298V77.0897V79.0497L62.9999 77.8397C63.7499 77.6197 63.7499 76.5597 62.9999 76.3397Z" fill="#E0BC05"/>
<path d="M41.24 69.7397C38.51 69.7397 35.93 69.9698 33.58 70.3698C31.8 70.5098 29.81 70.8097 27.61 71.3397C19.84 73.1997 14.88 74.3298 14.88 74.3298L3.63996 72.6898C3.62996 72.6798 3.62996 72.6797 3.62996 72.6797C2.32996 72.4897 1.24996 73.6297 1.45996 74.9297C1.46996 74.9697 1.46995 75.0097 1.47995 75.0497C1.49995 75.1897 1.51996 75.3297 1.52996 75.4697C1.54996 75.6397 1.56995 75.8097 1.58995 75.9897C1.61995 76.3497 1.62996 76.7197 1.62996 77.0897C1.62996 77.4497 1.61995 77.8197 1.58995 78.1797C1.56995 78.3597 1.55996 78.5397 1.52996 78.7197C1.51996 78.8597 1.49995 78.9998 1.47995 79.1398C1.46995 79.1798 1.46996 79.2198 1.45996 79.2598C1.26996 80.4598 2.17995 81.5198 3.33995 81.5198C3.43995 81.5198 3.52996 81.5098 3.62996 81.4998C3.62996 81.4998 3.62996 81.4998 3.63996 81.4998L14.88 79.8497C14.88 79.8497 19.84 80.9797 27.61 82.8397C29.82 83.3697 31.8 83.6698 33.59 83.8098C35.93 84.2098 38.52 84.4398 41.25 84.4398C51.72 84.4398 60.21 81.1497 60.21 77.0897C60.21 73.0297 51.71 69.7397 41.24 69.7397Z" fill="#F7931E"/>
<path d="M6.70996 77.0897C6.70996 79.3697 3.81996 81.3697 3.63996 81.4997C3.62996 81.4997 3.62996 81.4997 3.62996 81.4997C3.52996 81.5097 3.43995 81.5198 3.33995 81.5198C2.17995 81.5198 1.26996 80.4598 1.45996 79.2598C1.46996 79.2198 1.46995 79.1798 1.47995 79.1398C1.49995 78.9998 1.51996 78.8597 1.52996 78.7197C1.55996 78.5397 1.56995 78.3597 1.58995 78.1797C1.61995 77.8197 1.62996 77.4497 1.62996 77.0897C1.62996 76.7197 1.61995 76.3497 1.58995 75.9897C1.56995 75.8097 1.54996 75.6397 1.52996 75.4697C1.51996 75.3297 1.49995 75.1897 1.47995 75.0497C1.46995 75.0097 1.46996 74.9697 1.45996 74.9297C1.24996 73.6297 2.32996 72.4897 3.62996 72.6797C3.62996 72.6797 3.62996 72.6798 3.63996 72.6898C3.81996 72.8098 6.70996 74.8097 6.70996 77.0897Z" fill="#BA6F17"/>
</svg>
