<svg width="64" height="153" viewBox="0 0 64 153" fill="none" xmlns="http://www.w3.org/2000/svg">
<path d="M54.7099 111.21C52.4599 99.2497 49.7899 77.0896 49.7899 77.0896H37.9799L32.2199 88.7596C32.2199 88.7596 32.2199 88.7597 32.2099 88.7697L31.0199 91.2296C29.0199 93.6596 26.6599 101.27 34.2399 116.01C34.2399 116.01 34.2399 116.01 34.2299 116.01C34.1399 116.05 34.0599 116.11 33.9799 116.16C32.6299 117.1 33.3799 119.12 35.1499 119.2H35.2899L35.3899 119.19C35.1099 119.35 34.8599 119.54 34.6299 119.73C34.5299 119.82 34.4199 119.92 34.3199 120.01C34.2499 120.09 34.1699 120.17 34.0999 120.26C34.0599 120.29 34.0299 120.33 33.9999 120.37C33.9799 120.4 33.9599 120.41 33.9499 120.44C32.9299 121.78 34.3899 123.54 36.1599 123.03C35.9399 123.2 35.7399 123.37 35.5399 123.54C35.5099 123.56 35.4899 123.58 35.4699 123.6C35.3099 123.76 35.1399 123.92 34.9899 124.09C34.8499 124.24 34.7199 124.4 34.5899 124.56L34.0799 125.28C34.0199 125.38 33.9499 125.48 33.8899 125.59C33.8499 125.66 33.7999 125.74 33.7699 125.81C33.6499 126.01 33.5499 126.22 33.4599 126.41C33.3999 126.52 33.3599 126.61 33.3199 126.71C33.2499 126.86 33.1899 127.01 33.1399 127.16C32.9699 127.58 32.8399 128.01 32.7399 128.42C32.7299 128.43 32.7299 128.43 32.7299 128.44C32.7199 128.48 32.7099 128.5 32.7099 128.54C32.3999 130.09 34.4299 131.19 35.8299 130.19C35.8399 130.19 35.8499 130.18 35.8599 130.17C35.8599 130.17 32.0999 136.47 33.0799 141.92C33.2099 142.63 33.5599 143.15 33.9999 143.53C34.7599 144.37 36.4099 144.48 37.1799 143.36L48.7099 126.81L52.4199 121.5C54.5599 118.42 55.3799 114.76 54.7099 111.21Z" fill="#F7931E"/>
<path d="M48.7099 126.81L37.1799 143.36C36.1499 144.85 33.4999 144.21 33.0799 141.92C32.0999 136.46 35.8599 130.17 35.8599 130.17C35.8499 130.18 35.8399 130.19 35.8299 130.19C34.4299 131.2 32.3999 130.09 32.7099 128.54C32.7099 128.51 32.7199 128.48 32.7299 128.44C32.7299 128.43 32.7299 128.43 32.7399 128.42C32.8399 128.01 32.9699 127.59 33.1399 127.16C33.1899 127.01 33.2499 126.86 33.3199 126.71C33.3599 126.61 33.3999 126.52 33.4599 126.41C33.5499 126.22 33.6499 126.01 33.7699 125.81C33.7999 125.74 33.8499 125.66 33.8899 125.59C33.9499 125.48 34.0199 125.38 34.0799 125.28L34.5899 124.56C34.7199 124.4 34.8499 124.24 34.9899 124.09C35.1399 123.92 35.3099 123.76 35.4699 123.6C35.4899 123.58 35.5099 123.56 35.5399 123.54C35.7399 123.36 35.9399 123.19 36.1599 123.03C34.3899 123.53 32.9299 121.77 33.9499 120.44C33.9599 120.41 33.9799 120.4 33.9999 120.37C34.0299 120.33 34.0599 120.3 34.0999 120.26C34.1699 120.17 34.2499 120.09 34.3199 120.01C34.4199 119.91 34.5299 119.82 34.6299 119.73C34.8599 119.54 35.1099 119.35 35.3899 119.19L35.2899 119.2H35.1499C33.3799 119.12 32.6299 117.1 33.9799 116.16C34.0599 116.11 34.1399 116.05 34.2299 116.01C34.2399 116.01 34.2399 116.01 34.2399 116.01C26.6599 101.28 29.0199 93.6596 31.0199 91.2296L32.2099 88.7697C26.5499 106.83 41.3599 115.46 41.3599 115.46L41.3199 115.51C40.3799 116.78 41.8999 118.38 43.5099 117.84C44.0399 117.67 44.4499 117.53 44.5099 117.51C44.3699 117.62 44.2299 117.74 44.0999 117.85C42.3999 119.31 43.7899 121.59 45.7599 121.59C46.1399 121.59 46.5399 121.5 46.9399 121.32C44.0399 126.04 48.7099 126.81 48.7099 126.81Z" fill="#BA6F17"/>
<path d="M54.7099 42.9696C52.4599 54.9296 49.7899 77.0896 49.7899 77.0896H37.9799L32.2199 65.4197C32.2199 65.4197 32.2199 65.4196 32.2099 65.4096L31.0199 62.9497C29.0199 60.5197 26.6599 52.9097 34.2399 38.1697C34.2399 38.1697 34.2399 38.1697 34.2299 38.1697C34.1399 38.1297 34.0599 38.0697 33.9799 38.0197C32.6299 37.0797 33.3799 35.0596 35.1499 34.9796H35.2899L35.3899 34.9897C35.1099 34.8297 34.8599 34.6397 34.6299 34.4497C34.5299 34.3597 34.4199 34.2597 34.3199 34.1697C34.2499 34.0897 34.1699 34.0097 34.0999 33.9197C34.0599 33.8897 34.0299 33.8497 33.9999 33.8097C33.9799 33.7797 33.9599 33.7697 33.9499 33.7397C32.9299 32.3997 34.3899 30.6397 36.1599 31.1497C35.9399 30.9797 35.7399 30.8097 35.5399 30.6397C35.5099 30.6197 35.4899 30.5997 35.4699 30.5797C35.3099 30.4197 35.1399 30.2596 34.9899 30.0896C34.8499 29.9396 34.7199 29.7797 34.5899 29.6197L34.0799 28.8997C34.0199 28.7997 33.9499 28.6996 33.8899 28.5896C33.8499 28.5196 33.7999 28.4397 33.7699 28.3697C33.6499 28.1697 33.5499 27.9597 33.4599 27.7697C33.3999 27.6597 33.3599 27.5696 33.3199 27.4696C33.2499 27.3196 33.1899 27.1697 33.1399 27.0197C32.9699 26.5997 32.8399 26.1697 32.7399 25.7597C32.7299 25.7497 32.7299 25.7497 32.7299 25.7397C32.7199 25.6997 32.7099 25.6797 32.7099 25.6397C32.3999 24.0897 34.4299 22.9897 35.8299 23.9897C35.8399 23.9897 35.8499 23.9997 35.8599 24.0097C35.8599 24.0097 32.0999 17.7097 33.0799 12.2597C33.2099 11.5497 33.5599 11.0297 33.9999 10.6497C34.7599 9.80969 36.4099 9.69968 37.1799 10.8197L48.7099 27.3697L52.4199 32.6797C54.5599 35.7597 55.3799 39.4196 54.7099 42.9696Z" fill="#F7931E"/>
<path d="M48.7099 27.3697L37.1799 10.8197C36.1499 9.3297 33.4999 9.9697 33.0799 12.2597C32.0999 17.7197 35.8599 24.0097 35.8599 24.0097C35.8499 23.9997 35.8399 23.9897 35.8299 23.9897C34.4299 22.9797 32.3999 24.0897 32.7099 25.6397C32.7099 25.6697 32.7199 25.6997 32.7299 25.7397C32.7299 25.7497 32.7299 25.7497 32.7399 25.7597C32.8399 26.1697 32.9699 26.5897 33.1399 27.0197C33.1899 27.1697 33.2499 27.3197 33.3199 27.4697C33.3599 27.5697 33.3999 27.6597 33.4599 27.7697C33.5499 27.9597 33.6499 28.1697 33.7699 28.3697C33.7999 28.4397 33.8499 28.5197 33.8899 28.5897C33.9499 28.6997 34.0199 28.7997 34.0799 28.8997L34.5899 29.6197C34.7199 29.7797 34.8499 29.9397 34.9899 30.0897C35.1399 30.2597 35.3099 30.4197 35.4699 30.5797C35.4899 30.5997 35.5099 30.6197 35.5399 30.6397C35.7399 30.8197 35.9399 30.9897 36.1599 31.1497C34.3899 30.6497 32.9299 32.4097 33.9499 33.7397C33.9599 33.7697 33.9799 33.7797 33.9999 33.8097C34.0299 33.8497 34.0599 33.8797 34.0999 33.9197C34.1699 34.0097 34.2499 34.0897 34.3199 34.1697C34.4199 34.2697 34.5299 34.3597 34.6299 34.4497C34.8599 34.6397 35.1099 34.8297 35.3899 34.9897L35.2899 34.9797H35.1499C33.3799 35.0597 32.6299 37.0797 33.9799 38.0197C34.0599 38.0697 34.1399 38.1297 34.2299 38.1697C34.2399 38.1697 34.2399 38.1697 34.2399 38.1697C26.6599 52.8997 29.0199 60.5197 31.0199 62.9497L32.2099 65.4097C26.5499 47.3497 41.3599 38.7197 41.3599 38.7197L41.3199 38.6697C40.3799 37.3997 41.8999 35.7997 43.5099 36.3397C44.0399 36.5097 44.4499 36.6497 44.5099 36.6697C44.3699 36.5597 44.2299 36.4397 44.0999 36.3297C42.3999 34.8697 43.7899 32.5897 45.7599 32.5897C46.1399 32.5897 46.5399 32.6797 46.9399 32.8597C44.0399 28.1397 48.7099 27.3697 48.7099 27.3697Z" fill="#BA6F17"/>
<path d="M62.4599 76.3397L58.2799 75.1298V77.0897V79.0497L62.4599 77.8397C63.1999 77.6197 63.1999 76.5597 62.4599 76.3397Z" fill="#E0BC05"/>
<path d="M40.6899 69.7397C37.9599 69.7397 35.3799 69.9698 33.0299 70.3698C31.2499 70.5098 29.2599 70.8097 27.0599 71.3397C19.2899 73.1997 14.3299 74.3298 14.3299 74.3298L3.08991 72.6898C3.07991 72.6798 3.07993 72.6797 3.07993 72.6797C1.77993 72.4897 0.699915 73.6297 0.909915 74.9297C0.919915 74.9697 0.919904 75.0097 0.929904 75.0497C0.949904 75.1897 0.969922 75.3297 0.979922 75.4697C0.999922 75.6397 1.01992 75.8097 1.03992 75.9897C1.06992 76.3497 1.07993 76.7197 1.07993 77.0897C1.07993 77.4497 1.06992 77.8197 1.03992 78.1797C1.01992 78.3597 1.00992 78.5397 0.979922 78.7197C0.969922 78.8597 0.949904 78.9998 0.929904 79.1398C0.919904 79.1798 0.919915 79.2198 0.909915 79.2598C0.719915 80.4598 1.62992 81.5198 2.78992 81.5198C2.88992 81.5198 2.97993 81.5098 3.07993 81.4998C3.07993 81.4998 3.07991 81.4998 3.08991 81.4998L14.3299 79.8497C14.3299 79.8497 19.2899 80.9797 27.0599 82.8397C29.2699 83.3697 31.2499 83.6698 33.0399 83.8098C35.3799 84.2098 37.9699 84.4398 40.6999 84.4398C51.1699 84.4398 59.6599 81.1497 59.6599 77.0897C59.6599 73.0297 51.1599 69.7397 40.6899 69.7397Z" fill="#F7931E"/>
<path d="M6.15991 77.0897C6.15991 79.3697 3.26991 81.3697 3.08991 81.4997C3.07991 81.4997 3.07993 81.4997 3.07993 81.4997C2.97993 81.5097 2.88992 81.5198 2.78992 81.5198C1.62992 81.5198 0.719915 80.4598 0.909915 79.2598C0.919915 79.2198 0.919904 79.1798 0.929904 79.1398C0.949904 78.9998 0.969922 78.8597 0.979922 78.7197C1.00992 78.5397 1.01992 78.3597 1.03992 78.1797C1.06992 77.8197 1.07993 77.4497 1.07993 77.0897C1.07993 76.7197 1.06992 76.3497 1.03992 75.9897C1.01992 75.8097 0.999922 75.6397 0.979922 75.4697C0.969922 75.3297 0.949904 75.1897 0.929904 75.0497C0.919904 75.0097 0.919915 74.9697 0.909915 74.9297C0.699915 73.6297 1.77993 72.4897 3.07993 72.6797C3.07993 72.6797 3.07991 72.6798 3.08991 72.6898C3.26991 72.8098 6.15991 74.8097 6.15991 77.0897Z" fill="#BA6F17"/>
</svg>
