<svg width="64" height="153" viewBox="0 0 64 153" fill="none" xmlns="http://www.w3.org/2000/svg">
<path d="M55.2601 106.64C53.0101 96.2798 50.3401 77.0897 50.3401 77.0897H38.5301L32.7701 87.1998C32.7701 87.1998 32.7701 87.1998 32.7601 87.2098L31.5701 89.3397C29.5701 91.4397 27.21 98.0397 34.79 110.8C34.79 110.8 34.7901 110.8 34.7801 110.8C34.6901 110.84 34.6101 110.88 34.5301 110.93C33.1801 111.74 33.9301 113.49 35.7001 113.56H35.8401L35.9401 113.55C35.6601 113.69 35.4101 113.85 35.1801 114.02C35.0801 114.1 34.9701 114.18 34.8701 114.27C34.8001 114.34 34.7201 114.41 34.6501 114.48C34.6101 114.51 34.5801 114.54 34.5501 114.57C34.5301 114.59 34.5101 114.61 34.5001 114.63C33.4801 115.79 34.9401 117.31 36.7101 116.88C36.4901 117.03 36.2901 117.17 36.0901 117.32C36.0601 117.34 36.0401 117.36 36.0201 117.37C35.8601 117.51 35.69 117.65 35.54 117.79C35.4 117.92 35.2701 118.06 35.1401 118.2L34.6301 118.82C34.5701 118.9 34.5001 119 34.4401 119.09C34.4001 119.15 34.3501 119.22 34.3201 119.28C34.2001 119.46 34.1001 119.63 34.0101 119.8C33.9501 119.89 33.9101 119.98 33.8701 120.06C33.8001 120.19 33.7401 120.32 33.6901 120.45C33.5201 120.82 33.39 121.19 33.29 121.54C33.28 121.55 33.2801 121.55 33.2801 121.56C33.2701 121.59 33.2601 121.61 33.2601 121.64C32.9501 122.98 34.9801 123.94 36.3801 123.07C36.3901 123.07 36.4 123.06 36.41 123.05C36.41 123.05 32.6501 128.5 33.6301 133.23C33.7601 133.84 34.1101 134.3 34.5501 134.63C35.3101 135.36 36.96 135.45 37.73 134.48L49.2601 120.14L52.9701 115.54C55.1101 112.89 55.9301 109.72 55.2601 106.64Z" fill="#F7931E"/>
<path d="M49.2601 120.16L37.73 134.5C36.7 135.79 34.0501 135.24 33.6301 133.25C32.6501 128.52 36.41 123.07 36.41 123.07C36.4 123.08 36.3901 123.09 36.3801 123.09C34.9801 123.96 32.9501 123.01 33.2601 121.66C33.2601 121.63 33.2701 121.61 33.2801 121.58C33.2801 121.57 33.28 121.57 33.29 121.56C33.39 121.21 33.5201 120.84 33.6901 120.47C33.7401 120.34 33.8001 120.21 33.8701 120.08C33.9101 120 33.9501 119.91 34.0101 119.82C34.1001 119.65 34.2001 119.48 34.3201 119.3C34.3501 119.24 34.4001 119.17 34.4401 119.11C34.5001 119.02 34.5701 118.93 34.6301 118.84L35.1401 118.22C35.2701 118.08 35.4 117.94 35.54 117.81C35.69 117.66 35.8601 117.53 36.0201 117.39C36.0401 117.37 36.0601 117.35 36.0901 117.34C36.2901 117.19 36.4901 117.04 36.7101 116.9C34.9401 117.34 33.4801 115.81 34.5001 114.65C34.5101 114.63 34.5301 114.61 34.5501 114.59C34.5801 114.56 34.6101 114.53 34.6501 114.5C34.7201 114.42 34.8001 114.35 34.8701 114.29C34.9701 114.21 35.0801 114.12 35.1801 114.04C35.4101 113.87 35.6601 113.71 35.9401 113.57L35.8401 113.58H35.7001C33.9301 113.51 33.1801 111.76 34.5301 110.95C34.6101 110.9 34.6901 110.86 34.7801 110.82C34.7901 110.82 34.79 110.82 34.79 110.82C27.21 98.0598 29.5701 91.4597 31.5701 89.3597L32.7601 87.2297C27.1001 102.88 41.91 110.35 41.91 110.35L41.8701 110.4C40.9301 111.5 42.4501 112.88 44.0601 112.42C44.5901 112.27 45.0001 112.15 45.0601 112.14C44.9201 112.24 44.7801 112.34 44.6501 112.44C42.9501 113.71 44.3401 115.68 46.3101 115.68C46.6901 115.68 47.0901 115.6 47.4901 115.44C44.5901 119.49 49.2601 120.16 49.2601 120.16Z" fill="#BA6F17"/>
<path d="M55.2601 47.5397C53.0101 57.8997 50.3401 77.0897 50.3401 77.0897H38.5301L32.7701 66.9797C32.7701 66.9797 32.7701 66.9797 32.7601 66.9697L31.5701 64.8397C29.5701 62.7397 27.21 56.1398 34.79 43.3798C34.79 43.3798 34.7901 43.3798 34.7801 43.3798C34.6901 43.3398 34.6101 43.2998 34.5301 43.2498C33.1801 42.4398 33.9301 40.6898 35.7001 40.6198H35.8401L35.9401 40.6298C35.6601 40.4898 35.4101 40.3297 35.1801 40.1597C35.0801 40.0797 34.9701 39.9997 34.8701 39.9097C34.8001 39.8397 34.7201 39.7698 34.6501 39.6998C34.6101 39.6698 34.5801 39.6397 34.5501 39.6097C34.5301 39.5897 34.5101 39.5697 34.5001 39.5497C33.4801 38.3897 34.9401 36.8697 36.7101 37.2997C36.4901 37.1497 36.2901 37.0097 36.0901 36.8597C36.0601 36.8397 36.0401 36.8198 36.0201 36.8098C35.8601 36.6698 35.69 36.5298 35.54 36.3898C35.4 36.2598 35.2701 36.1197 35.1401 35.9797L34.6301 35.3597C34.5701 35.2797 34.5001 35.1797 34.4401 35.0897C34.4001 35.0297 34.3501 34.9598 34.3201 34.8998C34.2001 34.7198 34.1001 34.5498 34.0101 34.3798C33.9501 34.2898 33.9101 34.1998 33.8701 34.1198C33.8001 33.9898 33.7401 33.8597 33.6901 33.7297C33.5201 33.3597 33.39 32.9898 33.29 32.6398C33.28 32.6298 33.2801 32.6298 33.2801 32.6198C33.2701 32.5898 33.2601 32.5697 33.2601 32.5397C32.9501 31.1997 34.9801 30.2397 36.3801 31.1097C36.3901 31.1097 36.4 31.1198 36.41 31.1298C36.41 31.1298 32.6501 25.6798 33.6301 20.9498C33.7601 20.3398 34.1101 19.8797 34.5501 19.5497C35.3101 18.8197 36.96 18.7298 37.73 19.6998L49.2601 34.0397L52.9701 38.6398C55.1101 41.2898 55.9301 44.4597 55.2601 47.5397Z" fill="#F7931E"/>
<path d="M49.2601 34.0198L37.73 19.6798C36.7 18.3898 34.0501 18.9398 33.6301 20.9298C32.6501 25.6598 36.41 31.1097 36.41 31.1097C36.4 31.0997 36.3901 31.0897 36.3801 31.0897C34.9801 30.2197 32.9501 31.1698 33.2601 32.5198C33.2601 32.5498 33.2701 32.5697 33.2801 32.5997C33.2801 32.6097 33.28 32.6098 33.29 32.6198C33.39 32.9698 33.5201 33.3398 33.6901 33.7098C33.7401 33.8398 33.8001 33.9697 33.8701 34.0997C33.9101 34.1797 33.9501 34.2697 34.0101 34.3597C34.1001 34.5297 34.2001 34.6998 34.3201 34.8798C34.3501 34.9398 34.4001 35.0098 34.4401 35.0698C34.5001 35.1598 34.5701 35.2497 34.6301 35.3397L35.1401 35.9598C35.2701 36.0998 35.4 36.2398 35.54 36.3698C35.69 36.5198 35.8601 36.6497 36.0201 36.7897C36.0401 36.8097 36.0601 36.8297 36.0901 36.8397C36.2901 36.9897 36.4901 37.1397 36.7101 37.2797C34.9401 36.8397 33.4801 38.3697 34.5001 39.5297C34.5101 39.5497 34.5301 39.5697 34.5501 39.5897C34.5801 39.6197 34.6101 39.6498 34.6501 39.6798C34.7201 39.7598 34.8001 39.8298 34.8701 39.8898C34.9701 39.9698 35.0801 40.0598 35.1801 40.1398C35.4101 40.3098 35.6601 40.4697 35.9401 40.6097L35.8401 40.5997H35.7001C33.9301 40.6697 33.1801 42.4197 34.5301 43.2297C34.6101 43.2797 34.6901 43.3197 34.7801 43.3597C34.7901 43.3597 34.79 43.3597 34.79 43.3597C27.21 56.1197 29.5701 62.7198 31.5701 64.8198L32.7601 66.9498C27.1001 51.2998 41.91 43.8298 41.91 43.8298L41.8701 43.7797C40.9301 42.6797 42.4501 41.2998 44.0601 41.7598C44.5901 41.9098 45.0001 42.0297 45.0601 42.0397C44.9201 41.9397 44.7801 41.8397 44.6501 41.7397C42.9501 40.4697 44.3401 38.4998 46.3101 38.4998C46.6901 38.4998 47.0901 38.5797 47.4901 38.7397C44.5901 34.6897 49.2601 34.0198 49.2601 34.0198Z" fill="#BA6F17"/>
<path d="M63.0101 76.3397L58.8301 75.1298V77.0897V79.0497L63.0101 77.8397C63.7501 77.6197 63.7501 76.5597 63.0101 76.3397Z" fill="#E0BC05"/>
<path d="M41.2501 69.7397C38.5201 69.7397 35.9401 69.9698 33.5901 70.3698C31.8101 70.5098 29.8201 70.8097 27.6201 71.3397C19.8501 73.1997 14.8901 74.3298 14.8901 74.3298L3.65009 72.6898C3.64009 72.6798 3.64008 72.6797 3.64008 72.6797C2.34008 72.4897 1.2601 73.6297 1.4701 74.9297C1.4801 74.9697 1.48005 75.0097 1.49005 75.0497C1.51005 75.1897 1.53004 75.3297 1.54004 75.4697C1.56004 75.6397 1.58004 75.8097 1.60004 75.9897C1.63004 76.3497 1.64008 76.7197 1.64008 77.0897C1.64008 77.4497 1.63004 77.8197 1.60004 78.1797C1.58004 78.3597 1.57004 78.5397 1.54004 78.7197C1.53004 78.8597 1.51005 78.9998 1.49005 79.1398C1.48005 79.1798 1.4801 79.2198 1.4701 79.2598C1.2801 80.4598 2.19004 81.5198 3.35004 81.5198C3.45004 81.5198 3.54008 81.5098 3.64008 81.4998C3.64008 81.4998 3.64009 81.4998 3.65009 81.4998L14.8901 79.8497C14.8901 79.8497 19.8501 80.9797 27.6201 82.8397C29.8301 83.3697 31.81 83.6698 33.6 83.8098C35.94 84.2098 38.5301 84.4398 41.2601 84.4398C51.7301 84.4398 60.2201 81.1497 60.2201 77.0897C60.2201 73.0297 51.7101 69.7397 41.2501 69.7397Z" fill="#F7931E"/>
<path d="M6.71009 77.0897C6.71009 79.3697 3.82008 81.3697 3.64008 81.4997C3.63008 81.4997 3.63007 81.4997 3.63007 81.4997C3.53007 81.5097 3.44009 81.5198 3.34009 81.5198C2.18009 81.5198 1.27009 80.4598 1.46009 79.2598C1.47009 79.2198 1.47004 79.1798 1.48004 79.1398C1.50004 78.9998 1.52009 78.8597 1.53009 78.7197C1.56009 78.5397 1.57009 78.3597 1.59009 78.1797C1.62009 77.8197 1.63007 77.4497 1.63007 77.0897C1.63007 76.7197 1.62009 76.3497 1.59009 75.9897C1.57009 75.8097 1.55009 75.6397 1.53009 75.4697C1.52009 75.3297 1.50004 75.1897 1.48004 75.0497C1.47004 75.0097 1.47009 74.9697 1.46009 74.9297C1.25009 73.6297 2.33007 72.4897 3.63007 72.6797C3.63007 72.6797 3.63008 72.6798 3.64008 72.6898C3.82008 72.8098 6.71009 74.8097 6.71009 77.0897Z" fill="#BA6F17"/>
</svg>
