<svg width="63" height="153" viewBox="0 0 63 153" fill="none" xmlns="http://www.w3.org/2000/svg">
<path d="M54.6299 100.28C52.3799 92.1496 49.71 77.0996 49.71 77.0996H37.9L32.14 85.0296C32.14 85.0296 32.1399 85.0296 32.1299 85.0396L30.9399 86.7097C28.9399 88.3597 26.5799 93.5396 34.1599 103.55C34.1599 103.55 34.16 103.55 34.15 103.55C34.06 103.58 33.98 103.62 33.9 103.65C32.55 104.29 33.3 105.66 35.07 105.71H35.21L35.3099 105.7C35.0299 105.81 34.7799 105.93 34.5499 106.07C34.4499 106.13 34.3399 106.2 34.2399 106.26C34.1699 106.31 34.09 106.37 34.02 106.43C33.98 106.45 33.9499 106.48 33.9199 106.5C33.8999 106.52 33.8799 106.53 33.8699 106.55C32.8499 107.46 34.31 108.65 36.08 108.31C35.86 108.42 35.66 108.54 35.46 108.66C35.43 108.67 35.41 108.69 35.39 108.7C35.23 108.81 35.0599 108.92 34.9099 109.03C34.7699 109.13 34.64 109.24 34.51 109.35L33.9999 109.84C33.9399 109.91 33.8699 109.98 33.8099 110.05C33.7699 110.1 33.7199 110.15 33.6899 110.2C33.5699 110.34 33.4699 110.48 33.3799 110.61C33.3199 110.68 33.2799 110.75 33.2399 110.81C33.1699 110.91 33.1099 111.01 33.0599 111.12C32.8899 111.41 32.7599 111.7 32.6599 111.97C32.6499 111.98 32.65 111.98 32.65 111.98C32.64 112 32.6299 112.02 32.6299 112.05C32.3199 113.1 34.3499 113.85 35.7499 113.17C35.7599 113.17 35.77 113.16 35.78 113.16C35.78 113.16 32.0199 117.44 32.9999 121.15C33.1299 121.63 33.4799 121.99 33.9199 122.25C34.6799 122.82 36.3299 122.9 37.0999 122.13L48.6299 110.88L52.34 107.27C54.48 105.18 55.2999 102.69 54.6299 100.28Z" fill="#F7931E"/>
<path d="M48.6299 110.88L37.0999 122.13C36.0699 123.14 33.4199 122.71 32.9999 121.15C32.0199 117.44 35.78 113.16 35.78 113.16C35.77 113.17 35.7599 113.17 35.7499 113.17C34.3499 113.86 32.3199 113.1 32.6299 112.05C32.6299 112.03 32.64 112.01 32.65 111.98C32.65 111.97 32.6499 111.97 32.6599 111.97C32.7599 111.69 32.8899 111.4 33.0599 111.12C33.1099 111.02 33.1699 110.92 33.2399 110.81C33.2799 110.74 33.3199 110.68 33.3799 110.61C33.4699 110.48 33.5699 110.34 33.6899 110.2C33.7199 110.15 33.7699 110.1 33.8099 110.05C33.8699 109.98 33.9399 109.91 33.9999 109.84L34.51 109.35C34.64 109.24 34.7699 109.13 34.9099 109.03C35.0599 108.92 35.23 108.81 35.39 108.7C35.41 108.69 35.43 108.67 35.46 108.66C35.66 108.54 35.86 108.43 36.08 108.31C34.31 108.65 32.8499 107.46 33.8699 106.55C33.8799 106.53 33.8999 106.52 33.9199 106.5C33.9499 106.48 33.98 106.45 34.02 106.43C34.09 106.37 34.1699 106.32 34.2399 106.26C34.3399 106.19 34.4499 106.13 34.5499 106.07C34.7799 105.94 35.0299 105.81 35.3099 105.7L35.21 105.71H35.07C33.3 105.66 32.55 104.28 33.9 103.65C33.98 103.61 34.06 103.58 34.15 103.55C34.16 103.55 34.1599 103.55 34.1599 103.55C26.5799 93.5396 28.9399 88.3596 30.9399 86.7096L32.1299 85.0396C26.4699 97.3096 41.28 103.18 41.28 103.18L41.2399 103.22C40.2999 104.09 41.8199 105.17 43.4299 104.8C43.9599 104.69 44.3699 104.59 44.4299 104.58C44.2899 104.66 44.15 104.74 44.02 104.81C42.32 105.8 43.7099 107.35 45.6799 107.35C46.0599 107.35 46.4599 107.29 46.8599 107.16C43.9599 110.35 48.6299 110.88 48.6299 110.88Z" fill="#BA6F17"/>
<path d="M54.6299 53.9097C52.3799 62.0397 49.71 77.0896 49.71 77.0896H37.9L32.14 69.1597C32.14 69.1597 32.1399 69.1597 32.1299 69.1497L30.9399 67.4797C28.9399 65.8297 26.5799 60.6497 34.1599 50.6397C34.1599 50.6397 34.16 50.6397 34.15 50.6397C34.06 50.6097 33.98 50.5697 33.9 50.5397C32.55 49.8997 33.3 48.5297 35.07 48.4797H35.21L35.3099 48.4897C35.0299 48.3797 34.7799 48.2597 34.5499 48.1197C34.4499 48.0597 34.3399 47.9897 34.2399 47.9297C34.1699 47.8797 34.09 47.8197 34.02 47.7597C33.98 47.7397 33.9499 47.7097 33.9199 47.6897C33.8999 47.6697 33.8799 47.6597 33.8699 47.6397C32.8499 46.7297 34.31 45.5397 36.08 45.8797C35.86 45.7697 35.66 45.6497 35.46 45.5297C35.43 45.5197 35.41 45.4997 35.39 45.4897C35.23 45.3797 35.0599 45.2697 34.9099 45.1597C34.7699 45.0597 34.64 44.9496 34.51 44.8396L33.9999 44.3497C33.9399 44.2797 33.8699 44.2097 33.8099 44.1397C33.7699 44.0897 33.7199 44.0397 33.6899 43.9897C33.5699 43.8497 33.4699 43.7097 33.3799 43.5797C33.3199 43.5097 33.2799 43.4397 33.2399 43.3797C33.1699 43.2797 33.1099 43.1797 33.0599 43.0697C32.8899 42.7797 32.7599 42.4897 32.6599 42.2197C32.6499 42.2097 32.65 42.2097 32.65 42.2097C32.64 42.1897 32.6299 42.1697 32.6299 42.1397C32.3199 41.0897 34.3499 40.3397 35.7499 41.0197C35.7599 41.0197 35.77 41.0297 35.78 41.0297C35.78 41.0297 32.0199 36.7497 32.9999 33.0397C33.1299 32.5597 33.4799 32.1997 33.9199 31.9397C34.6799 31.3697 36.3299 31.2897 37.0999 32.0597L48.6299 43.3097L52.34 46.9197C54.48 48.9997 55.2999 51.4897 54.6299 53.9097Z" fill="#F7931E"/>
<path d="M48.6299 43.2996L37.0999 32.0496C36.0699 31.0396 33.4199 31.4696 32.9999 33.0296C32.0199 36.7396 35.78 41.0197 35.78 41.0197C35.77 41.0097 35.7599 41.0097 35.7499 41.0097C34.3499 40.3197 32.3199 41.0797 32.6299 42.1297C32.6299 42.1497 32.64 42.1697 32.65 42.1997C32.65 42.2097 32.6499 42.2097 32.6599 42.2097C32.7599 42.4897 32.8899 42.7797 33.0599 43.0597C33.1099 43.1597 33.1699 43.2597 33.2399 43.3697C33.2799 43.4397 33.3199 43.4997 33.3799 43.5697C33.4699 43.6997 33.5699 43.8396 33.6899 43.9796C33.7199 44.0296 33.7699 44.0797 33.8099 44.1297C33.8699 44.1997 33.9399 44.2696 33.9999 44.3396L34.51 44.8297C34.64 44.9397 34.7699 45.0497 34.9099 45.1497C35.0599 45.2597 35.23 45.3696 35.39 45.4796C35.41 45.4896 35.43 45.5097 35.46 45.5197C35.66 45.6397 35.86 45.7497 36.08 45.8697C34.31 45.5297 32.8499 46.7197 33.8699 47.6297C33.8799 47.6497 33.8999 47.6597 33.9199 47.6797C33.9499 47.6997 33.98 47.7297 34.02 47.7497C34.09 47.8097 34.1699 47.8596 34.2399 47.9196C34.3399 47.9896 34.4499 48.0496 34.5499 48.1096C34.7799 48.2396 35.0299 48.3696 35.3099 48.4796L35.21 48.4696H35.07C33.3 48.5196 32.55 49.8996 33.9 50.5296C33.98 50.5696 34.06 50.5997 34.15 50.6297C34.16 50.6297 34.1599 50.6297 34.1599 50.6297C26.5799 60.6397 28.9399 65.8196 30.9399 67.4696L32.1299 69.1397C26.4699 56.8697 41.28 50.9997 41.28 50.9997L41.2399 50.9597C40.2999 50.0897 41.8199 49.0097 43.4299 49.3797C43.9599 49.4897 44.3699 49.5896 44.4299 49.5996C44.2899 49.5196 44.15 49.4397 44.02 49.3697C42.32 48.3797 43.7099 46.8297 45.6799 46.8297C46.0599 46.8297 46.4599 46.8897 46.8599 47.0197C43.9599 43.8297 48.6299 43.2996 48.6299 43.2996Z" fill="#BA6F17"/>
<path d="M62.3799 76.3397L58.2 75.1298V77.0897V79.0497L62.3799 77.8397C63.1199 77.6197 63.1199 76.5597 62.3799 76.3397Z" fill="#E0BC05"/>
<path d="M40.6099 69.7397C37.8799 69.7397 35.3 69.9698 32.95 70.3698C31.17 70.5098 29.1799 70.8097 26.9799 71.3397C19.2099 73.1997 14.2499 74.3298 14.2499 74.3298L3.00995 72.6898C2.99995 72.6798 2.99994 72.6797 2.99994 72.6797C1.69994 72.4897 0.619959 73.6297 0.829959 74.9297C0.839959 74.9697 0.839918 75.0097 0.849918 75.0497C0.869918 75.1897 0.889967 75.3297 0.899967 75.4697C0.919967 75.6397 0.939964 75.8097 0.959964 75.9897C0.989964 76.3497 0.999942 76.7197 0.999942 77.0897C0.999942 77.4497 0.989964 77.8197 0.959964 78.1797C0.939964 78.3597 0.929967 78.5397 0.899967 78.7197C0.889967 78.8597 0.869918 78.9998 0.849918 79.1398C0.839918 79.1798 0.839959 79.2198 0.829959 79.2598C0.639959 80.4598 1.54996 81.5198 2.70996 81.5198C2.80996 81.5198 2.89994 81.5098 2.99994 81.4998C2.99994 81.4998 2.99995 81.4998 3.00995 81.4998L14.2499 79.8497C14.2499 79.8497 19.2099 80.9797 26.9799 82.8397C29.1899 83.3697 31.17 83.6698 32.96 83.8098C35.3 84.2098 37.8899 84.4398 40.6199 84.4398C51.0899 84.4398 59.58 81.1497 59.58 77.0897C59.58 73.0297 51.0799 69.7397 40.6099 69.7397Z" fill="#F7931E"/>
<path d="M6.07996 77.0897C6.07996 79.3697 3.18995 81.3697 3.00995 81.4997C2.99995 81.4997 2.99994 81.4997 2.99994 81.4997C2.89994 81.5097 2.80996 81.5198 2.70996 81.5198C1.54996 81.5198 0.639959 80.4598 0.829959 79.2598C0.839959 79.2198 0.839918 79.1798 0.849918 79.1398C0.869918 78.9998 0.889967 78.8597 0.899967 78.7197C0.929967 78.5397 0.939964 78.3597 0.959964 78.1797C0.989964 77.8197 0.999942 77.4497 0.999942 77.0897C0.999942 76.7197 0.989964 76.3497 0.959964 75.9897C0.939964 75.8097 0.919967 75.6397 0.899967 75.4697C0.889967 75.3297 0.869918 75.1897 0.849918 75.0497C0.839918 75.0097 0.839959 74.9697 0.829959 74.9297C0.619959 73.6297 1.69994 72.4897 2.99994 72.6797C2.99994 72.6797 2.99995 72.6798 3.00995 72.6898C3.18995 72.8098 6.07996 74.8097 6.07996 77.0897Z" fill="#BA6F17"/>
</svg>
