<svg width="63" height="153" viewBox="0 0 63 153" fill="none" xmlns="http://www.w3.org/2000/svg">
<path d="M54.5799 92.4698C52.3299 87.0798 49.6599 77.0898 49.6599 77.0898H37.8499L32.0899 82.3499C32.0899 82.3499 32.0899 82.3499 32.0799 82.3499L30.8899 83.4599C28.8899 84.5499 26.5299 87.9899 34.1099 94.6299C34.1099 94.6299 34.1099 94.6299 34.0999 94.6299C34.0099 94.6499 33.9299 94.6699 33.8499 94.6999C32.4999 95.1199 33.2499 96.0299 35.0199 96.0699H35.1599H35.2599C34.9799 96.1399 34.7299 96.2299 34.4999 96.3099C34.3999 96.3499 34.2899 96.3899 34.1899 96.4399C34.1199 96.4799 34.0399 96.5099 33.9699 96.5499C33.9299 96.5699 33.8999 96.5799 33.8699 96.5999C33.8499 96.6099 33.8299 96.6199 33.8199 96.6299C32.7999 97.2299 34.2599 98.0299 36.0299 97.7999C35.8099 97.8799 35.6099 97.9498 35.4099 98.0298C35.3799 98.0398 35.3599 98.0499 35.3399 98.0599C35.1799 98.1299 35.0099 98.1998 34.8599 98.2798C34.7199 98.3498 34.5899 98.4199 34.4599 98.4899L33.9499 98.8099C33.8899 98.8499 33.8199 98.8999 33.7599 98.9499C33.7199 98.9799 33.6699 99.0199 33.6399 99.0499C33.5199 99.1399 33.4199 99.2299 33.3299 99.3199C33.2699 99.3699 33.2299 99.4099 33.1899 99.4599C33.1199 99.5299 33.0599 99.5999 33.0099 99.6599C32.8399 99.8499 32.7099 100.04 32.6099 100.23C32.5999 100.23 32.5999 100.23 32.5999 100.24C32.5899 100.26 32.5799 100.27 32.5799 100.28C32.2699 100.98 34.2999 101.48 35.6999 101.02C35.7099 101.02 35.7199 101.02 35.7299 101.01C35.7299 101.01 31.9699 103.85 32.9499 106.31C33.0799 106.63 33.4299 106.87 33.8699 107.04C34.6299 107.42 36.2799 107.47 37.0499 106.96L48.5799 99.4999L52.2899 97.1099C54.4299 95.7299 55.2499 94.0798 54.5799 92.4698Z" fill="#F7931E"/>
<path d="M48.5799 99.5099L37.0499 106.97C36.0199 107.64 33.3699 107.36 32.9499 106.32C31.9699 103.86 35.7299 101.02 35.7299 101.02C35.7199 101.02 35.7099 101.03 35.6999 101.03C34.2999 101.48 32.2699 100.99 32.5799 100.29C32.5799 100.27 32.5899 100.26 32.5999 100.25C32.5999 100.25 32.5999 100.25 32.6099 100.24C32.7099 100.06 32.8399 99.8599 33.0099 99.6699C33.0599 99.5999 33.1199 99.5298 33.1899 99.4698C33.2299 99.4298 33.2699 99.3799 33.3299 99.3299C33.4199 99.2399 33.5199 99.1499 33.6399 99.0599C33.6699 99.0299 33.7199 98.9899 33.7599 98.9599C33.8199 98.9099 33.8899 98.8599 33.9499 98.8199L34.4599 98.4999C34.5899 98.4299 34.7199 98.3599 34.8599 98.2899C35.0099 98.2099 35.1799 98.1399 35.3399 98.0699C35.3599 98.0599 35.3799 98.0499 35.4099 98.0399C35.6099 97.9599 35.8099 97.8799 36.0299 97.8099C34.2599 98.0399 32.7999 97.2399 33.8199 96.6399C33.8299 96.6299 33.8499 96.6199 33.8699 96.6099C33.8999 96.5899 33.9299 96.5799 33.9699 96.5599C34.0399 96.5199 34.1199 96.4799 34.1899 96.4499C34.2899 96.4099 34.3999 96.3599 34.4999 96.3199C34.7299 96.2299 34.9799 96.1499 35.2599 96.0799H35.1599H35.0199C33.2499 96.0399 32.4999 95.1299 33.8499 94.7099C33.9299 94.6899 34.0099 94.6599 34.0999 94.6399C34.1099 94.6399 34.1099 94.6399 34.1099 94.6399C26.5299 87.9999 28.8899 84.5598 30.8899 83.4698L32.0799 82.3599C26.4199 90.4999 41.2299 94.3999 41.2299 94.3999L41.1899 94.4199C40.2499 94.9899 41.7699 95.7098 43.3799 95.4698C43.9099 95.3898 44.3199 95.3299 44.3799 95.3199C44.2399 95.3699 44.0999 95.4199 43.9699 95.4799C42.2699 96.1399 43.6599 97.1699 45.6299 97.1699C46.0099 97.1699 46.4099 97.1299 46.8099 97.0499C43.9099 99.1599 48.5799 99.5099 48.5799 99.5099Z" fill="#BA6F17"/>
<path d="M54.5799 61.7098C52.3299 67.0998 49.6599 77.0898 49.6599 77.0898H37.8499L32.0899 71.8298C32.0899 71.8298 32.0899 71.8298 32.0799 71.8298L30.8899 70.7198C28.8899 69.6298 26.5299 66.1898 34.1099 59.5498C34.1099 59.5498 34.1099 59.5498 34.0999 59.5498C34.0099 59.5298 33.9299 59.5098 33.8499 59.4798C32.4999 59.0598 33.2499 58.1498 35.0199 58.1098H35.1599H35.2599C34.9799 58.0398 34.7299 57.9498 34.4999 57.8698C34.3999 57.8298 34.2899 57.7898 34.1899 57.7398C34.1199 57.6998 34.0399 57.6698 33.9699 57.6298C33.9299 57.6098 33.8999 57.5998 33.8699 57.5798C33.8499 57.5698 33.8299 57.5598 33.8199 57.5498C32.7999 56.9498 34.2599 56.1498 36.0299 56.3798C35.8099 56.2998 35.6099 56.2298 35.4099 56.1498C35.3799 56.1398 35.3599 56.1298 35.3399 56.1198C35.1799 56.0498 35.0099 55.9798 34.8599 55.8998C34.7199 55.8298 34.5899 55.7598 34.4599 55.6898L33.9499 55.3698C33.8899 55.3298 33.8199 55.2798 33.7599 55.2298C33.7199 55.1998 33.6699 55.1598 33.6399 55.1298C33.5199 55.0398 33.4199 54.9498 33.3299 54.8598C33.2699 54.8098 33.2299 54.7698 33.1899 54.7198C33.1199 54.6498 33.0599 54.5798 33.0099 54.5198C32.8399 54.3298 32.7099 54.1398 32.6099 53.9498C32.5999 53.9498 32.5999 53.9498 32.5999 53.9398C32.5899 53.9198 32.5799 53.9098 32.5799 53.8998C32.2699 53.1998 34.2999 52.6998 35.6999 53.1598C35.7099 53.1598 35.7199 53.1598 35.7299 53.1698C35.7299 53.1698 31.9699 50.3298 32.9499 47.8698C33.0799 47.5498 33.4299 47.3098 33.8699 47.1398C34.6299 46.7598 36.2799 46.7098 37.0499 47.2198L48.5799 54.6798L52.2899 57.0698C54.4299 58.4598 55.2499 60.0998 54.5799 61.7098Z" fill="#F7931E"/>
<path d="M48.5799 54.6699L37.0499 47.2099C36.0199 46.5399 33.3699 46.8199 32.9499 47.8599C31.9699 50.3199 35.7299 53.1598 35.7299 53.1598C35.7199 53.1598 35.7099 53.1499 35.6999 53.1499C34.2999 52.6999 32.2699 53.1899 32.5799 53.8899C32.5799 53.9099 32.5899 53.9199 32.5999 53.9299C32.5999 53.9299 32.5999 53.9299 32.6099 53.9399C32.7099 54.1199 32.8399 54.3199 33.0099 54.5099C33.0599 54.5799 33.1199 54.6499 33.1899 54.7099C33.2299 54.7499 33.2699 54.7998 33.3299 54.8498C33.4199 54.9398 33.5199 55.0299 33.6399 55.1199C33.6699 55.1499 33.7199 55.1898 33.7599 55.2198C33.8199 55.2698 33.8899 55.3199 33.9499 55.3599L34.4599 55.6799C34.5899 55.7499 34.7199 55.8199 34.8599 55.8899C35.0099 55.9699 35.1799 56.0399 35.3399 56.1099C35.3599 56.1199 35.3799 56.1299 35.4099 56.1399C35.6099 56.2199 35.8099 56.2999 36.0299 56.3699C34.2599 56.1399 32.7999 56.9398 33.8199 57.5398C33.8299 57.5498 33.8499 57.5599 33.8699 57.5699C33.8999 57.5899 33.9299 57.5999 33.9699 57.6199C34.0399 57.6599 34.1199 57.6998 34.1899 57.7298C34.2899 57.7698 34.3999 57.8199 34.4999 57.8599C34.7299 57.9499 34.9799 58.0298 35.2599 58.0998H35.1599H35.0199C33.2499 58.1398 32.4999 59.0498 33.8499 59.4698C33.9299 59.4898 34.0099 59.5198 34.0999 59.5398C34.1099 59.5398 34.1099 59.5398 34.1099 59.5398C26.5299 66.1798 28.8899 69.6199 30.8899 70.7099L32.0799 71.8199C26.4199 63.6799 41.2299 59.7798 41.2299 59.7798L41.1899 59.7599C40.2499 59.1899 41.7699 58.4699 43.3799 58.7099C43.9099 58.7899 44.3199 58.8499 44.3799 58.8599C44.2399 58.8099 44.0999 58.7599 43.9699 58.6999C42.2699 58.0399 43.6599 57.0099 45.6299 57.0099C46.0099 57.0099 46.4099 57.0499 46.8099 57.1299C43.9099 55.0199 48.5799 54.6699 48.5799 54.6699Z" fill="#BA6F17"/>
<path d="M62.3199 76.3397L58.1399 75.1298V77.0897V79.0497L62.3199 77.8397C63.0699 77.6197 63.0699 76.5597 62.3199 76.3397Z" fill="#E0BC05"/>
<path d="M40.5599 69.7397C37.8299 69.7397 35.2499 69.9698 32.8999 70.3698C31.1199 70.5098 29.1299 70.8097 26.9299 71.3397C19.1599 73.1997 14.1999 74.3298 14.1999 74.3298L2.9599 72.6898C2.9499 72.6798 2.94989 72.6797 2.94989 72.6797C1.64989 72.4897 0.56991 73.6297 0.77991 74.9297C0.78991 74.9697 0.789869 75.0097 0.799869 75.0497C0.819869 75.1897 0.839857 75.3297 0.849857 75.4697C0.869857 75.6397 0.889854 75.8097 0.909854 75.9897C0.939854 76.3497 0.949893 76.7197 0.949893 77.0897C0.949893 77.4497 0.939854 77.8197 0.909854 78.1797C0.889854 78.3597 0.879857 78.5397 0.849857 78.7197C0.839857 78.8597 0.819869 78.9998 0.799869 79.1398C0.789869 79.1798 0.78991 79.2198 0.77991 79.2598C0.58991 80.4598 1.49985 81.5198 2.65985 81.5198C2.75985 81.5198 2.84989 81.5098 2.94989 81.4998C2.94989 81.4998 2.9499 81.4998 2.9599 81.4998L14.1999 79.8497C14.1999 79.8497 19.1599 80.9797 26.9299 82.8397C29.1399 83.3697 31.1199 83.6698 32.9099 83.8098C35.2499 84.2098 37.8399 84.4398 40.5699 84.4398C51.0399 84.4398 59.5299 81.1497 59.5299 77.0897C59.5299 73.0297 51.0299 69.7397 40.5599 69.7397Z" fill="#F7931E"/>
<path d="M6.02991 77.0897C6.02991 79.3697 3.1399 81.3697 2.9599 81.4997C2.9499 81.4997 2.94989 81.4997 2.94989 81.4997C2.84989 81.5097 2.75985 81.5198 2.65985 81.5198C1.49985 81.5198 0.58991 80.4598 0.77991 79.2598C0.78991 79.2198 0.789869 79.1798 0.799869 79.1398C0.819869 78.9998 0.839857 78.8597 0.849857 78.7197C0.879857 78.5397 0.889854 78.3597 0.909854 78.1797C0.939854 77.8197 0.949893 77.4497 0.949893 77.0897C0.949893 76.7197 0.939854 76.3497 0.909854 75.9897C0.889854 75.8097 0.869857 75.6397 0.849857 75.4697C0.839857 75.3297 0.819869 75.1897 0.799869 75.0497C0.789869 75.0097 0.78991 74.9697 0.77991 74.9297C0.56991 73.6297 1.64989 72.4897 2.94989 72.6797C2.94989 72.6797 2.9499 72.6798 2.9599 72.6898C3.1399 72.8098 6.02991 74.8097 6.02991 77.0897Z" fill="#BA6F17"/>
</svg>
