<svg width="64" height="153" viewBox="0 0 64 153" fill="none" xmlns="http://www.w3.org/2000/svg">
<path d="M54.98 100.28C52.73 92.1496 50.0599 77.0996 50.0599 77.0996H38.25L32.49 85.0296C32.49 85.0296 32.49 85.0296 32.48 85.0396L31.2899 86.7097C29.2899 88.3597 26.9299 93.5396 34.5099 103.55C34.5099 103.55 34.51 103.55 34.5 103.55C34.41 103.58 34.33 103.62 34.25 103.65C32.9 104.29 33.6499 105.66 35.4199 105.71H35.5599L35.6599 105.7C35.3799 105.81 35.1299 105.93 34.8999 106.07C34.7999 106.13 34.69 106.2 34.59 106.26C34.52 106.31 34.44 106.37 34.37 106.43C34.33 106.45 34.2999 106.48 34.2699 106.5C34.2499 106.52 34.23 106.53 34.22 106.55C33.2 107.46 34.6599 108.65 36.4299 108.31C36.2099 108.42 36.0099 108.54 35.8099 108.66C35.7799 108.67 35.76 108.69 35.74 108.7C35.58 108.81 35.4099 108.92 35.2599 109.03C35.1199 109.13 34.99 109.24 34.86 109.35L34.35 109.84C34.29 109.91 34.2199 109.98 34.1599 110.05C34.1199 110.1 34.0699 110.15 34.0399 110.2C33.9199 110.34 33.82 110.48 33.73 110.61C33.67 110.68 33.63 110.75 33.59 110.81C33.52 110.91 33.4599 111.01 33.4099 111.12C33.2399 111.41 33.1099 111.7 33.0099 111.97C32.9999 111.98 33 111.98 33 111.98C32.99 112 32.98 112.02 32.98 112.05C32.67 113.1 34.7 113.85 36.1 113.17C36.11 113.17 36.1199 113.16 36.1299 113.16C36.1299 113.16 32.37 117.44 33.35 121.15C33.48 121.63 33.8299 121.99 34.2699 122.25C35.0299 122.82 36.68 122.9 37.45 122.13L48.98 110.88L52.6899 107.27C54.8299 105.18 55.65 102.69 54.98 100.28Z" fill="#F7931E"/>
<path d="M48.98 110.88L37.45 122.13C36.42 123.14 33.77 122.71 33.35 121.15C32.37 117.44 36.1299 113.16 36.1299 113.16C36.1199 113.17 36.11 113.17 36.1 113.17C34.7 113.86 32.67 113.1 32.98 112.05C32.98 112.03 32.99 112.01 33 111.98C33 111.97 32.9999 111.97 33.0099 111.97C33.1099 111.69 33.2399 111.4 33.4099 111.12C33.4599 111.02 33.52 110.92 33.59 110.81C33.63 110.74 33.67 110.68 33.73 110.61C33.82 110.48 33.9199 110.34 34.0399 110.2C34.0699 110.15 34.1199 110.1 34.1599 110.05C34.2199 109.98 34.29 109.91 34.35 109.84L34.86 109.35C34.99 109.24 35.1199 109.13 35.2599 109.03C35.4099 108.92 35.58 108.81 35.74 108.7C35.76 108.69 35.7799 108.67 35.8099 108.66C36.0099 108.54 36.2099 108.43 36.4299 108.31C34.6599 108.65 33.2 107.46 34.22 106.55C34.23 106.53 34.2499 106.52 34.2699 106.5C34.2999 106.48 34.33 106.45 34.37 106.43C34.44 106.37 34.52 106.32 34.59 106.26C34.69 106.19 34.7999 106.13 34.8999 106.07C35.1299 105.94 35.3799 105.81 35.6599 105.7L35.5599 105.71H35.4199C33.6499 105.66 32.9 104.28 34.25 103.65C34.33 103.61 34.41 103.58 34.5 103.55C34.51 103.55 34.5099 103.55 34.5099 103.55C26.9299 93.5396 29.2899 88.3596 31.2899 86.7096L32.48 85.0396C26.82 97.3096 41.6299 103.18 41.6299 103.18L41.59 103.22C40.65 104.09 42.1699 105.17 43.7799 104.8C44.3099 104.69 44.7199 104.59 44.7799 104.58C44.6399 104.66 44.5 104.74 44.37 104.81C42.67 105.8 44.0599 107.35 46.0299 107.35C46.4099 107.35 46.81 107.29 47.21 107.16C44.31 110.35 48.98 110.88 48.98 110.88Z" fill="#BA6F17"/>
<path d="M54.98 53.9097C52.73 62.0397 50.0599 77.0896 50.0599 77.0896H38.25L32.49 69.1597C32.49 69.1597 32.49 69.1597 32.48 69.1497L31.2899 67.4797C29.2899 65.8297 26.9299 60.6497 34.5099 50.6397C34.5099 50.6397 34.51 50.6397 34.5 50.6397C34.41 50.6097 34.33 50.5697 34.25 50.5397C32.9 49.8997 33.6499 48.5297 35.4199 48.4797H35.5599L35.6599 48.4897C35.3799 48.3797 35.1299 48.2597 34.8999 48.1197C34.7999 48.0597 34.69 47.9897 34.59 47.9297C34.52 47.8797 34.44 47.8197 34.37 47.7597C34.33 47.7397 34.2999 47.7097 34.2699 47.6897C34.2499 47.6697 34.23 47.6597 34.22 47.6397C33.2 46.7297 34.6599 45.5397 36.4299 45.8797C36.2099 45.7697 36.0099 45.6497 35.8099 45.5297C35.7799 45.5197 35.76 45.4997 35.74 45.4897C35.58 45.3797 35.4099 45.2697 35.2599 45.1597C35.1199 45.0597 34.99 44.9496 34.86 44.8396L34.35 44.3497C34.29 44.2797 34.2199 44.2097 34.1599 44.1397C34.1199 44.0897 34.0699 44.0397 34.0399 43.9897C33.9199 43.8497 33.82 43.7097 33.73 43.5797C33.67 43.5097 33.63 43.4397 33.59 43.3797C33.52 43.2797 33.4599 43.1797 33.4099 43.0697C33.2399 42.7797 33.1099 42.4897 33.0099 42.2197C32.9999 42.2097 33 42.2097 33 42.2097C32.99 42.1897 32.98 42.1697 32.98 42.1397C32.67 41.0897 34.7 40.3397 36.1 41.0197C36.11 41.0197 36.1199 41.0297 36.1299 41.0297C36.1299 41.0297 32.37 36.7497 33.35 33.0397C33.48 32.5597 33.8299 32.1997 34.2699 31.9397C35.0299 31.3697 36.68 31.2897 37.45 32.0597L48.98 43.3097L52.6899 46.9197C54.8299 48.9997 55.65 51.4897 54.98 53.9097Z" fill="#F7931E"/>
<path d="M48.98 43.2996L37.45 32.0496C36.42 31.0396 33.77 31.4696 33.35 33.0296C32.37 36.7396 36.1299 41.0197 36.1299 41.0197C36.1199 41.0097 36.11 41.0097 36.1 41.0097C34.7 40.3197 32.67 41.0797 32.98 42.1297C32.98 42.1497 32.99 42.1697 33 42.1997C33 42.2097 32.9999 42.2097 33.0099 42.2097C33.1099 42.4897 33.2399 42.7797 33.4099 43.0597C33.4599 43.1597 33.52 43.2597 33.59 43.3697C33.63 43.4397 33.67 43.4997 33.73 43.5697C33.82 43.6997 33.9199 43.8396 34.0399 43.9796C34.0699 44.0296 34.1199 44.0797 34.1599 44.1297C34.2199 44.1997 34.29 44.2696 34.35 44.3396L34.86 44.8297C34.99 44.9397 35.1199 45.0497 35.2599 45.1497C35.4099 45.2597 35.58 45.3696 35.74 45.4796C35.76 45.4896 35.7799 45.5097 35.8099 45.5197C36.0099 45.6397 36.2099 45.7497 36.4299 45.8697C34.6599 45.5297 33.2 46.7197 34.22 47.6297C34.23 47.6497 34.2499 47.6597 34.2699 47.6797C34.2999 47.6997 34.33 47.7297 34.37 47.7497C34.44 47.8097 34.52 47.8596 34.59 47.9196C34.69 47.9896 34.7999 48.0496 34.8999 48.1096C35.1299 48.2396 35.3799 48.3696 35.6599 48.4796L35.5599 48.4696H35.4199C33.6499 48.5196 32.9 49.8996 34.25 50.5296C34.33 50.5696 34.41 50.5997 34.5 50.6297C34.51 50.6297 34.5099 50.6297 34.5099 50.6297C26.9299 60.6397 29.2899 65.8196 31.2899 67.4696L32.48 69.1397C26.82 56.8697 41.6299 50.9997 41.6299 50.9997L41.59 50.9597C40.65 50.0897 42.1699 49.0097 43.7799 49.3797C44.3099 49.4897 44.7199 49.5896 44.7799 49.5996C44.6399 49.5196 44.5 49.4397 44.37 49.3697C42.67 48.3797 44.0599 46.8297 46.0299 46.8297C46.4099 46.8297 46.81 46.8897 47.21 47.0197C44.31 43.8297 48.98 43.2996 48.98 43.2996Z" fill="#BA6F17"/>
<path d="M62.73 76.3397L58.5499 75.1298V77.0897V79.0497L62.73 77.8397C63.47 77.6197 63.47 76.5597 62.73 76.3397Z" fill="#E0BC05"/>
<path d="M40.96 69.7397C38.23 69.7397 35.6499 69.9698 33.2999 70.3698C31.5199 70.5098 29.53 70.8097 27.33 71.3397C19.56 73.1997 14.6 74.3298 14.6 74.3298L3.35999 72.6898C3.34999 72.6798 3.34998 72.6797 3.34998 72.6797C2.04998 72.4897 0.969934 73.6297 1.17993 74.9297C1.18993 74.9697 1.18995 75.0097 1.19995 75.0497C1.21995 75.1897 1.23994 75.3297 1.24994 75.4697C1.26994 75.6397 1.28994 75.8097 1.30994 75.9897C1.33994 76.3497 1.34992 76.7197 1.34992 77.0897C1.34992 77.4497 1.33994 77.8197 1.30994 78.1797C1.28994 78.3597 1.27994 78.5397 1.24994 78.7197C1.23994 78.8597 1.21995 78.9998 1.19995 79.1398C1.18995 79.1798 1.18993 79.2198 1.17993 79.2598C0.989934 80.4598 1.89994 81.5198 3.05994 81.5198C3.15994 81.5198 3.24998 81.5098 3.34998 81.4998C3.34998 81.4998 3.34999 81.4998 3.35999 81.4998L14.6 79.8497C14.6 79.8497 19.56 80.9797 27.33 82.8397C29.54 83.3697 31.5199 83.6698 33.3099 83.8098C35.6499 84.2098 38.24 84.4398 40.97 84.4398C51.44 84.4398 59.9299 81.1497 59.9299 77.0897C59.9299 73.0297 51.43 69.7397 40.96 69.7397Z" fill="#F7931E"/>
<path d="M6.42993 77.0897C6.42993 79.3697 3.53999 81.3697 3.35999 81.4997C3.34999 81.4997 3.34998 81.4997 3.34998 81.4997C3.24998 81.5097 3.15994 81.5198 3.05994 81.5198C1.89994 81.5198 0.989934 80.4598 1.17993 79.2598C1.18993 79.2198 1.18995 79.1798 1.19995 79.1398C1.21995 78.9998 1.23994 78.8597 1.24994 78.7197C1.27994 78.5397 1.28994 78.3597 1.30994 78.1797C1.33994 77.8197 1.34992 77.4497 1.34992 77.0897C1.34992 76.7197 1.33994 76.3497 1.30994 75.9897C1.28994 75.8097 1.26994 75.6397 1.24994 75.4697C1.23994 75.3297 1.21995 75.1897 1.19995 75.0497C1.18995 75.0097 1.18993 74.9697 1.17993 74.9297C0.969934 73.6297 2.04998 72.4897 3.34998 72.6797C3.34998 72.6797 3.34999 72.6798 3.35999 72.6898C3.53999 72.8098 6.42993 74.8097 6.42993 77.0897Z" fill="#BA6F17"/>
</svg>
