<svg width="64" height="153" viewBox="0 0 64 153" fill="none" xmlns="http://www.w3.org/2000/svg">
<path d="M55.23 106.64C52.98 96.2798 50.3099 77.0897 50.3099 77.0897H38.5L32.74 87.1998C32.74 87.1998 32.74 87.1998 32.73 87.2098L31.5399 89.3397C29.5399 91.4397 27.1799 98.0397 34.7599 110.8C34.7599 110.8 34.76 110.8 34.75 110.8C34.66 110.84 34.58 110.88 34.5 110.93C33.15 111.74 33.8999 113.49 35.6699 113.56H35.8099L35.9099 113.55C35.6299 113.69 35.3799 113.85 35.1499 114.02C35.0499 114.1 34.94 114.18 34.84 114.27C34.77 114.34 34.69 114.41 34.62 114.48C34.58 114.51 34.5499 114.54 34.5199 114.57C34.4999 114.59 34.48 114.61 34.47 114.63C33.45 115.79 34.9099 117.31 36.6799 116.88C36.4599 117.03 36.2599 117.17 36.0599 117.32C36.0299 117.34 36.01 117.36 35.99 117.37C35.83 117.51 35.6599 117.65 35.5099 117.79C35.3699 117.92 35.24 118.06 35.11 118.2L34.6 118.82C34.54 118.9 34.4699 119 34.4099 119.09C34.3699 119.15 34.3199 119.22 34.2899 119.28C34.1699 119.46 34.07 119.63 33.98 119.8C33.92 119.89 33.88 119.98 33.84 120.06C33.77 120.19 33.7099 120.32 33.6599 120.45C33.4899 120.82 33.3599 121.19 33.2599 121.54C33.2499 121.55 33.25 121.55 33.25 121.56C33.24 121.59 33.23 121.61 33.23 121.64C32.92 122.98 34.95 123.94 36.35 123.07C36.36 123.07 36.3699 123.06 36.3799 123.05C36.3799 123.05 32.62 128.5 33.6 133.23C33.73 133.84 34.0799 134.3 34.5199 134.63C35.2799 135.36 36.93 135.45 37.7 134.48L49.23 120.14L52.9399 115.54C55.0799 112.89 55.9 109.72 55.23 106.64Z" fill="#F7931E"/>
<path d="M49.23 120.16L37.7 134.5C36.67 135.79 34.02 135.24 33.6 133.25C32.62 128.52 36.3799 123.07 36.3799 123.07C36.3699 123.08 36.36 123.09 36.35 123.09C34.95 123.96 32.92 123.01 33.23 121.66C33.23 121.63 33.24 121.61 33.25 121.58C33.25 121.57 33.2499 121.57 33.2599 121.56C33.3599 121.21 33.4899 120.84 33.6599 120.47C33.7099 120.34 33.77 120.21 33.84 120.08C33.88 120 33.92 119.91 33.98 119.82C34.07 119.65 34.1699 119.48 34.2899 119.3C34.3199 119.24 34.3699 119.17 34.4099 119.11C34.4699 119.02 34.54 118.93 34.6 118.84L35.11 118.22C35.24 118.08 35.3699 117.94 35.5099 117.81C35.6599 117.66 35.83 117.53 35.99 117.39C36.01 117.37 36.0299 117.35 36.0599 117.34C36.2599 117.19 36.4599 117.04 36.6799 116.9C34.9099 117.34 33.45 115.81 34.47 114.65C34.48 114.63 34.4999 114.61 34.5199 114.59C34.5499 114.56 34.58 114.53 34.62 114.5C34.69 114.42 34.77 114.35 34.84 114.29C34.94 114.21 35.0499 114.12 35.1499 114.04C35.3799 113.87 35.6299 113.71 35.9099 113.57L35.8099 113.58H35.6699C33.8999 113.51 33.15 111.76 34.5 110.95C34.58 110.9 34.66 110.86 34.75 110.82C34.76 110.82 34.7599 110.82 34.7599 110.82C27.1799 98.0598 29.5399 91.4597 31.5399 89.3597L32.73 87.2297C27.07 102.88 41.8799 110.35 41.8799 110.35L41.84 110.4C40.9 111.5 42.4199 112.88 44.0299 112.42C44.5599 112.27 44.9699 112.15 45.0299 112.14C44.8899 112.24 44.75 112.34 44.62 112.44C42.92 113.71 44.3099 115.68 46.2799 115.68C46.6599 115.68 47.06 115.6 47.46 115.44C44.56 119.49 49.23 120.16 49.23 120.16Z" fill="#BA6F17"/>
<path d="M55.23 47.5397C52.98 57.8997 50.3099 77.0897 50.3099 77.0897H38.5L32.74 66.9797C32.74 66.9797 32.74 66.9797 32.73 66.9697L31.5399 64.8397C29.5399 62.7397 27.1799 56.1398 34.7599 43.3798C34.7599 43.3798 34.76 43.3798 34.75 43.3798C34.66 43.3398 34.58 43.2998 34.5 43.2498C33.15 42.4398 33.8999 40.6898 35.6699 40.6198H35.8099L35.9099 40.6298C35.6299 40.4898 35.3799 40.3297 35.1499 40.1597C35.0499 40.0797 34.94 39.9997 34.84 39.9097C34.77 39.8397 34.69 39.7698 34.62 39.6998C34.58 39.6698 34.5499 39.6397 34.5199 39.6097C34.4999 39.5897 34.48 39.5697 34.47 39.5497C33.45 38.3897 34.9099 36.8697 36.6799 37.2997C36.4599 37.1497 36.2599 37.0097 36.0599 36.8597C36.0299 36.8397 36.01 36.8198 35.99 36.8098C35.83 36.6698 35.6599 36.5298 35.5099 36.3898C35.3699 36.2598 35.24 36.1197 35.11 35.9797L34.6 35.3597C34.54 35.2797 34.4699 35.1797 34.4099 35.0897C34.3699 35.0297 34.3199 34.9598 34.2899 34.8998C34.1699 34.7198 34.07 34.5498 33.98 34.3798C33.92 34.2898 33.88 34.1998 33.84 34.1198C33.77 33.9898 33.7099 33.8597 33.6599 33.7297C33.4899 33.3597 33.3599 32.9898 33.2599 32.6398C33.2499 32.6298 33.25 32.6298 33.25 32.6198C33.24 32.5898 33.23 32.5697 33.23 32.5397C32.92 31.1997 34.95 30.2397 36.35 31.1097C36.36 31.1097 36.3699 31.1198 36.3799 31.1298C36.3799 31.1298 32.62 25.6798 33.6 20.9498C33.73 20.3398 34.0799 19.8797 34.5199 19.5497C35.2799 18.8197 36.93 18.7298 37.7 19.6998L49.23 34.0397L52.9399 38.6398C55.0799 41.2898 55.9 44.4597 55.23 47.5397Z" fill="#F7931E"/>
<path d="M49.23 34.0198L37.7 19.6798C36.67 18.3898 34.02 18.9398 33.6 20.9298C32.62 25.6598 36.3799 31.1097 36.3799 31.1097C36.3699 31.0997 36.36 31.0897 36.35 31.0897C34.95 30.2197 32.92 31.1698 33.23 32.5198C33.23 32.5498 33.24 32.5697 33.25 32.5997C33.25 32.6097 33.2499 32.6098 33.2599 32.6198C33.3599 32.9698 33.4899 33.3398 33.6599 33.7098C33.7099 33.8398 33.77 33.9697 33.84 34.0997C33.88 34.1797 33.92 34.2697 33.98 34.3597C34.07 34.5297 34.1699 34.6998 34.2899 34.8798C34.3199 34.9398 34.3699 35.0098 34.4099 35.0698C34.4699 35.1598 34.54 35.2497 34.6 35.3397L35.11 35.9598C35.24 36.0998 35.3699 36.2398 35.5099 36.3698C35.6599 36.5198 35.83 36.6497 35.99 36.7897C36.01 36.8097 36.0299 36.8297 36.0599 36.8397C36.2599 36.9897 36.4599 37.1397 36.6799 37.2797C34.9099 36.8397 33.45 38.3697 34.47 39.5297C34.48 39.5497 34.4999 39.5697 34.5199 39.5897C34.5499 39.6197 34.58 39.6498 34.62 39.6798C34.69 39.7598 34.77 39.8298 34.84 39.8898C34.94 39.9698 35.0499 40.0598 35.1499 40.1398C35.3799 40.3098 35.6299 40.4697 35.9099 40.6097L35.8099 40.5997H35.6699C33.8999 40.6697 33.15 42.4197 34.5 43.2297C34.58 43.2797 34.66 43.3197 34.75 43.3597C34.76 43.3597 34.7599 43.3597 34.7599 43.3597C27.1799 56.1197 29.5399 62.7198 31.5399 64.8198L32.73 66.9498C27.07 51.2998 41.8799 43.8298 41.8799 43.8298L41.84 43.7797C40.9 42.6797 42.4199 41.2998 44.0299 41.7598C44.5599 41.9098 44.9699 42.0297 45.0299 42.0397C44.8899 41.9397 44.75 41.8397 44.62 41.7397C42.92 40.4697 44.3099 38.4998 46.2799 38.4998C46.6599 38.4998 47.06 38.5797 47.46 38.7397C44.56 34.6897 49.23 34.0198 49.23 34.0198Z" fill="#BA6F17"/>
<path d="M62.97 76.3397L58.7899 75.1298V77.0897V79.0497L62.97 77.8397C63.72 77.6197 63.72 76.5597 62.97 76.3397Z" fill="#E0BC05"/>
<path d="M41.21 69.7397C38.48 69.7397 35.8999 69.9698 33.5499 70.3698C31.7699 70.5098 29.78 70.8097 27.58 71.3397C19.81 73.1997 14.85 74.3298 14.85 74.3298L3.60999 72.6898C3.59999 72.6798 3.59998 72.6797 3.59998 72.6797C2.29998 72.4897 1.21993 73.6297 1.42993 74.9297C1.43993 74.9697 1.43995 75.0097 1.44995 75.0497C1.46995 75.1897 1.49 75.3297 1.5 75.4697C1.52 75.6397 1.53994 75.8097 1.55994 75.9897C1.58994 76.3497 1.59998 76.7197 1.59998 77.0897C1.59998 77.4497 1.58994 77.8197 1.55994 78.1797C1.53994 78.3597 1.53 78.5397 1.5 78.7197C1.49 78.8597 1.46995 78.9998 1.44995 79.1398C1.43995 79.1798 1.43993 79.2198 1.42993 79.2598C1.23993 80.4598 2.14994 81.5198 3.30994 81.5198C3.40994 81.5198 3.49998 81.5098 3.59998 81.4998C3.59998 81.4998 3.59999 81.4998 3.60999 81.4998L14.85 79.8497C14.85 79.8497 19.81 80.9797 27.58 82.8397C29.79 83.3697 31.7699 83.6698 33.5599 83.8098C35.8999 84.2098 38.49 84.4398 41.22 84.4398C51.69 84.4398 60.1799 81.1497 60.1799 77.0897C60.1799 73.0297 51.68 69.7397 41.21 69.7397Z" fill="#F7931E"/>
<path d="M6.67993 77.0897C6.67993 79.3697 3.78999 81.3697 3.60999 81.4997C3.59999 81.4997 3.59998 81.4997 3.59998 81.4997C3.49998 81.5097 3.40994 81.5198 3.30994 81.5198C2.14994 81.5198 1.23993 80.4598 1.42993 79.2598C1.43993 79.2198 1.43995 79.1798 1.44995 79.1398C1.46995 78.9998 1.49 78.8597 1.5 78.7197C1.53 78.5397 1.53994 78.3597 1.55994 78.1797C1.58994 77.8197 1.59998 77.4497 1.59998 77.0897C1.59998 76.7197 1.58994 76.3497 1.55994 75.9897C1.53994 75.8097 1.52 75.6397 1.5 75.4697C1.49 75.3297 1.46995 75.1897 1.44995 75.0497C1.43995 75.0097 1.43993 74.9697 1.42993 74.9297C1.21993 73.6297 2.29998 72.4897 3.59998 72.6797C3.59998 72.6797 3.59999 72.6798 3.60999 72.6898C3.78999 72.8098 6.67993 74.8097 6.67993 77.0897Z" fill="#BA6F17"/>
</svg>
