<svg width="64" height="153" viewBox="0 0 64 153" fill="none" xmlns="http://www.w3.org/2000/svg">
<path d="M55.2099 111.21C52.9599 99.2497 50.2899 77.0896 50.2899 77.0896H38.4799L32.7199 88.7596C32.7199 88.7596 32.7199 88.7597 32.7099 88.7697L31.5198 91.2296C29.5198 93.6596 27.1599 101.27 34.7399 116.01C34.7399 116.01 34.7399 116.01 34.7299 116.01C34.6399 116.05 34.5599 116.11 34.4799 116.16C33.1299 117.1 33.8798 119.12 35.6498 119.2H35.7899L35.8898 119.19C35.6098 119.35 35.3598 119.54 35.1298 119.73C35.0298 119.82 34.9199 119.92 34.8199 120.01C34.7499 120.09 34.6699 120.17 34.5999 120.26C34.5599 120.29 34.5299 120.33 34.4999 120.37C34.4799 120.4 34.4599 120.41 34.4499 120.44C33.4299 121.78 34.8899 123.54 36.6599 123.03C36.4399 123.2 36.2399 123.37 36.0399 123.54C36.0099 123.56 35.9899 123.58 35.9699 123.6C35.8099 123.76 35.6399 123.92 35.4899 124.09C35.3499 124.24 35.2199 124.4 35.0899 124.56L34.5799 125.28C34.5199 125.38 34.4498 125.48 34.3898 125.59C34.3498 125.66 34.2998 125.74 34.2698 125.81C34.1498 126.01 34.0499 126.22 33.9599 126.41C33.8999 126.52 33.8599 126.61 33.8199 126.71C33.7499 126.86 33.6898 127.01 33.6398 127.16C33.4698 127.58 33.3399 128.01 33.2399 128.42C33.2299 128.43 33.2299 128.43 33.2299 128.44C33.2199 128.48 33.2099 128.5 33.2099 128.54C32.8999 130.09 34.9299 131.19 36.3299 130.19C36.3399 130.19 36.3499 130.18 36.3599 130.17C36.3599 130.17 32.5999 136.47 33.5799 141.92C33.7099 142.63 34.0599 143.15 34.4999 143.53C35.2599 144.37 36.9099 144.48 37.6799 143.36L49.2099 126.81L52.9199 121.5C55.0599 118.42 55.8799 114.76 55.2099 111.21Z" fill="#F7931E"/>
<path d="M49.2099 126.81L37.6799 143.36C36.6499 144.85 33.9999 144.21 33.5799 141.92C32.5999 136.46 36.3599 130.17 36.3599 130.17C36.3499 130.18 36.3399 130.19 36.3299 130.19C34.9299 131.2 32.8999 130.09 33.2099 128.54C33.2099 128.51 33.2199 128.48 33.2299 128.44C33.2299 128.43 33.2299 128.43 33.2399 128.42C33.3399 128.01 33.4698 127.59 33.6398 127.16C33.6898 127.01 33.7499 126.86 33.8199 126.71C33.8599 126.61 33.8999 126.52 33.9599 126.41C34.0499 126.22 34.1498 126.01 34.2698 125.81C34.2998 125.74 34.3498 125.66 34.3898 125.59C34.4498 125.48 34.5199 125.38 34.5799 125.28L35.0899 124.56C35.2199 124.4 35.3499 124.24 35.4899 124.09C35.6399 123.92 35.8099 123.76 35.9699 123.6C35.9899 123.58 36.0099 123.56 36.0399 123.54C36.2399 123.36 36.4399 123.19 36.6599 123.03C34.8899 123.53 33.4299 121.77 34.4499 120.44C34.4599 120.41 34.4799 120.4 34.4999 120.37C34.5299 120.33 34.5599 120.3 34.5999 120.26C34.6699 120.17 34.7499 120.09 34.8199 120.01C34.9199 119.91 35.0298 119.82 35.1298 119.73C35.3598 119.54 35.6098 119.35 35.8898 119.19L35.7899 119.2H35.6498C33.8798 119.12 33.1299 117.1 34.4799 116.16C34.5599 116.11 34.6399 116.05 34.7299 116.01C34.7399 116.01 34.7399 116.01 34.7399 116.01C27.1599 101.28 29.5198 93.6596 31.5198 91.2296L32.7099 88.7697C27.0499 106.83 41.8599 115.46 41.8599 115.46L41.8199 115.51C40.8799 116.78 42.3998 118.38 44.0098 117.84C44.5398 117.67 44.9498 117.53 45.0098 117.51C44.8698 117.62 44.7299 117.74 44.5999 117.85C42.8999 119.31 44.2898 121.59 46.2598 121.59C46.6398 121.59 47.0399 121.5 47.4399 121.32C44.5399 126.04 49.2099 126.81 49.2099 126.81Z" fill="#BA6F17"/>
<path d="M55.2099 42.9696C52.9599 54.9296 50.2899 77.0896 50.2899 77.0896H38.4799L32.7199 65.4197C32.7199 65.4197 32.7199 65.4196 32.7099 65.4096L31.5198 62.9497C29.5198 60.5197 27.1599 52.9097 34.7399 38.1697C34.7399 38.1697 34.7399 38.1697 34.7299 38.1697C34.6399 38.1297 34.5599 38.0697 34.4799 38.0197C33.1299 37.0797 33.8798 35.0596 35.6498 34.9796H35.7899L35.8898 34.9897C35.6098 34.8297 35.3598 34.6397 35.1298 34.4497C35.0298 34.3597 34.9199 34.2597 34.8199 34.1697C34.7499 34.0897 34.6699 34.0097 34.5999 33.9197C34.5599 33.8897 34.5299 33.8497 34.4999 33.8097C34.4799 33.7797 34.4599 33.7697 34.4499 33.7397C33.4299 32.3997 34.8899 30.6397 36.6599 31.1497C36.4399 30.9797 36.2399 30.8097 36.0399 30.6397C36.0099 30.6197 35.9899 30.5997 35.9699 30.5797C35.8099 30.4197 35.6399 30.2596 35.4899 30.0896C35.3499 29.9396 35.2199 29.7797 35.0899 29.6197L34.5799 28.8997C34.5199 28.7997 34.4498 28.6996 34.3898 28.5896C34.3498 28.5196 34.2998 28.4397 34.2698 28.3697C34.1498 28.1697 34.0499 27.9597 33.9599 27.7697C33.8999 27.6597 33.8599 27.5696 33.8199 27.4696C33.7499 27.3196 33.6898 27.1697 33.6398 27.0197C33.4698 26.5997 33.3399 26.1697 33.2399 25.7597C33.2299 25.7497 33.2299 25.7497 33.2299 25.7397C33.2199 25.6997 33.2099 25.6797 33.2099 25.6397C32.8999 24.0897 34.9299 22.9897 36.3299 23.9897C36.3399 23.9897 36.3499 23.9997 36.3599 24.0097C36.3599 24.0097 32.5999 17.7097 33.5799 12.2597C33.7099 11.5497 34.0599 11.0297 34.4999 10.6497C35.2599 9.80969 36.9099 9.69968 37.6799 10.8197L49.2099 27.3697L52.9199 32.6797C55.0599 35.7597 55.8799 39.4196 55.2099 42.9696Z" fill="#F7931E"/>
<path d="M49.2099 27.3697L37.6799 10.8197C36.6499 9.3297 33.9999 9.9697 33.5799 12.2597C32.5999 17.7197 36.3599 24.0097 36.3599 24.0097C36.3499 23.9997 36.3399 23.9897 36.3299 23.9897C34.9299 22.9797 32.8999 24.0897 33.2099 25.6397C33.2099 25.6697 33.2199 25.6997 33.2299 25.7397C33.2299 25.7497 33.2299 25.7497 33.2399 25.7597C33.3399 26.1697 33.4698 26.5897 33.6398 27.0197C33.6898 27.1697 33.7499 27.3197 33.8199 27.4697C33.8599 27.5697 33.8999 27.6597 33.9599 27.7697C34.0499 27.9597 34.1498 28.1697 34.2698 28.3697C34.2998 28.4397 34.3498 28.5197 34.3898 28.5897C34.4498 28.6997 34.5199 28.7997 34.5799 28.8997L35.0899 29.6197C35.2199 29.7797 35.3499 29.9397 35.4899 30.0897C35.6399 30.2597 35.8099 30.4197 35.9699 30.5797C35.9899 30.5997 36.0099 30.6197 36.0399 30.6397C36.2399 30.8197 36.4399 30.9897 36.6599 31.1497C34.8899 30.6497 33.4299 32.4097 34.4499 33.7397C34.4599 33.7697 34.4799 33.7797 34.4999 33.8097C34.5299 33.8497 34.5599 33.8797 34.5999 33.9197C34.6699 34.0097 34.7499 34.0897 34.8199 34.1697C34.9199 34.2697 35.0298 34.3597 35.1298 34.4497C35.3598 34.6397 35.6098 34.8297 35.8898 34.9897L35.7899 34.9797H35.6498C33.8798 35.0597 33.1299 37.0797 34.4799 38.0197C34.5599 38.0697 34.6399 38.1297 34.7299 38.1697C34.7399 38.1697 34.7399 38.1697 34.7399 38.1697C27.1599 52.8997 29.5198 60.5197 31.5198 62.9497L32.7099 65.4097C27.0499 47.3497 41.8599 38.7197 41.8599 38.7197L41.8199 38.6697C40.8799 37.3997 42.3998 35.7997 44.0098 36.3397C44.5398 36.5097 44.9498 36.6497 45.0098 36.6697C44.8698 36.5597 44.7299 36.4397 44.5999 36.3297C42.8999 34.8697 44.2898 32.5897 46.2598 32.5897C46.6398 32.5897 47.0399 32.6797 47.4399 32.8597C44.5399 28.1397 49.2099 27.3697 49.2099 27.3697Z" fill="#BA6F17"/>
<path d="M62.95 76.3397L58.7699 75.1298V77.0897V79.0497L62.95 77.8397C63.7 77.6197 63.7 76.5597 62.95 76.3397Z" fill="#E0BC05"/>
<path d="M41.1899 69.7397C38.4599 69.7397 35.8799 69.9698 33.5299 70.3698C31.7499 70.5098 29.7599 70.8097 27.5599 71.3397C19.7899 73.1997 14.83 74.3298 14.83 74.3298L3.58997 72.6898C3.57997 72.6798 3.57996 72.6797 3.57996 72.6797C2.27996 72.4897 1.19991 73.6297 1.40991 74.9297C1.41991 74.9697 1.41993 75.0097 1.42993 75.0497C1.44993 75.1897 1.46998 75.3297 1.47998 75.4697C1.49998 75.6397 1.51992 75.8097 1.53992 75.9897C1.56992 76.3497 1.57996 76.7197 1.57996 77.0897C1.57996 77.4497 1.56992 77.8197 1.53992 78.1797C1.51992 78.3597 1.50998 78.5397 1.47998 78.7197C1.46998 78.8597 1.44993 78.9998 1.42993 79.1398C1.41993 79.1798 1.41991 79.2198 1.40991 79.2598C1.21991 80.4598 2.12992 81.5198 3.28992 81.5198C3.38992 81.5198 3.47996 81.5098 3.57996 81.4998C3.57996 81.4998 3.57997 81.4998 3.58997 81.4998L14.83 79.8497C14.83 79.8497 19.7899 80.9797 27.5599 82.8397C29.7699 83.3697 31.7499 83.6698 33.5399 83.8098C35.8799 84.2098 38.47 84.4398 41.2 84.4398C51.67 84.4398 60.1599 81.1497 60.1599 77.0897C60.1599 73.0297 51.6599 69.7397 41.1899 69.7397Z" fill="#F7931E"/>
<path d="M6.65991 77.0897C6.65991 79.3697 3.76997 81.3697 3.58997 81.4997C3.57997 81.4997 3.57996 81.4997 3.57996 81.4997C3.47996 81.5097 3.38992 81.5198 3.28992 81.5198C2.12992 81.5198 1.21991 80.4598 1.40991 79.2598C1.41991 79.2198 1.41993 79.1798 1.42993 79.1398C1.44993 78.9998 1.46998 78.8597 1.47998 78.7197C1.50998 78.5397 1.51992 78.3597 1.53992 78.1797C1.56992 77.8197 1.57996 77.4497 1.57996 77.0897C1.57996 76.7197 1.56992 76.3497 1.53992 75.9897C1.51992 75.8097 1.49998 75.6397 1.47998 75.4697C1.46998 75.3297 1.44993 75.1897 1.42993 75.0497C1.41993 75.0097 1.41991 74.9697 1.40991 74.9297C1.19991 73.6297 2.27996 72.4897 3.57996 72.6797C3.57996 72.6797 3.57997 72.6798 3.58997 72.6898C3.76997 72.8098 6.65991 74.8097 6.65991 77.0897Z" fill="#BA6F17"/>
</svg>
