<svg width="123" height="93" viewBox="0 0 123 93" fill="none" xmlns="http://www.w3.org/2000/svg">
<path d="M39.1545 29.8347L37.5926 31.7623L27.2356 23.3639L18.6823 16.4345L19.7918 23.8846L22.2648 40.5201L19.8104 40.8858L17.3064 24.0581L15.292 10.4906L30.8677 23.116L39.1545 29.8347Z" fill="black"/>
<path d="M39.1545 63.9426L30.8615 70.6675H30.8553L15.292 83.2867L17.3064 69.7316L19.8104 52.8976L22.2648 53.2571L19.7918 69.9051L18.6823 77.349L27.2294 70.4195L37.5926 62.015L39.1545 63.9426Z" fill="black"/>
<path d="M105.505 49.7676L102.077 65.5975L98.8107 80.7083L97.0008 80.3116L95.1167 80.6835L92.4204 67.0044L89.0239 49.7429L91.4598 49.2656L94.8811 66.645L96.9946 77.3799L99.4615 65.9818L103.081 49.2408L105.505 49.7676Z" fill="black"/>
<path d="M105.505 44.0159L103.081 44.5427L99.4615 27.8017L96.9946 16.3973L94.8811 27.1385L91.4598 44.5179L89.0239 44.0406L92.4204 26.7791L95.1167 13.1L97.0008 13.4656L98.8107 13.0752L102.077 28.186L105.505 44.0159Z" fill="black"/>
<path d="M122.426 38.1153V55.6682C122.426 59.2754 120.008 62.455 116.544 63.4157C116.209 63.5149 115.862 63.5893 115.533 63.6389L102.077 65.5975L99.4618 65.9817L94.8815 66.6449L92.4208 67.0044L57.6807 72.062C56.9866 72.1674 56.2614 72.2356 55.5176 72.2604C55.2697 72.2728 55.0217 72.2789 54.7738 72.2789C54.309 72.2789 53.838 72.2603 53.3545 72.2293L30.8618 70.6675H30.8556L27.2297 70.4195L19.792 69.9051L17.3066 69.7316L12.9246 69.4279C12.9246 69.4279 12.8998 69.4279 12.8936 69.4279C9.66443 69.1985 7.11079 66.5582 6.96204 63.3476H2.91477C1.545 63.3476 0.435547 62.2381 0.435547 60.8683V55.4512C0.435547 54.0814 1.545 52.972 2.91477 52.972H6.95591V30.7272C6.95591 27.3865 9.56526 24.5911 12.8936 24.3618L17.3066 24.0581L19.792 23.8845L27.2359 23.3639L30.868 23.116L53.3545 21.5541C53.8318 21.5169 54.309 21.5045 54.7738 21.5045C55.0217 21.5045 55.2697 21.5045 55.5176 21.5169C56.2614 21.5479 56.968 21.6099 57.6683 21.7152L92.4208 26.7791L94.8815 27.1385L99.4618 27.8017L102.077 28.186L115.533 30.1446C115.552 30.1446 115.564 30.1508 115.577 30.1508C115.837 30.1942 116.178 30.2562 116.544 30.3677C120.008 31.3284 122.426 34.508 122.426 38.1153Z" fill="#060844"/>
<path d="M6.94971 52.972V63.3476H2.91477C1.545 63.3476 0.435547 62.2381 0.435547 60.8684V55.4512C0.435547 54.0815 1.545 52.972 2.91477 52.972H6.94971Z" fill="#3D3D3D"/>
<path d="M10.2158 55.4512H2.91455V60.8684H10.2158V55.4512Z" fill="#737373"/>
<path d="M119.946 38.1091V55.662C119.946 58.2032 118.242 60.3849 115.849 61.0295C115.632 61.0977 115.409 61.1473 115.18 61.1783L57.315 69.6076C56.689 69.7006 56.0568 69.7564 55.4246 69.7812C54.7924 69.806 54.1601 69.7935 53.5279 69.7502L13.0671 66.9487C11.0218 66.8061 9.43506 65.1016 9.43506 63.0501V30.721C9.43506 28.6695 11.0218 26.9712 13.0671 26.8286L53.5279 24.0209C54.1601 23.9776 54.7924 23.9652 55.4246 23.99C56.0568 24.0148 56.6828 24.0705 57.315 24.1635L115.18 32.5929C115.409 32.6301 115.632 32.6734 115.849 32.7416C118.242 33.3924 119.946 35.5679 119.946 38.1091Z" fill="#0000FF"/>
<path d="M16.0609 26.6303L15.249 26.6861C15.5031 26.6675 15.7696 26.6489 16.0609 26.6303Z" fill="#FF0000"/>
<path d="M119.952 54.0815L55.4307 60.2795V33.4977L119.952 39.6958V54.0815Z" fill="#0F15B3"/>
<path d="M16.0609 26.6303L15.249 26.6861C15.5031 26.6675 15.7696 26.6489 16.0609 26.6303Z" fill="#FF0000"/>
<path d="M69.2836 67.8659C64.7343 67.0044 61.4369 63.0314 61.4369 58.4015V47.0467V46.7368V35.382C61.4369 30.752 64.7343 26.7729 69.2836 25.9175L57.3214 24.1759C56.6892 24.0829 56.0632 24.0271 55.431 24.0023C54.7988 23.9775 54.1666 23.9899 53.5344 24.0333L19.0918 26.4258C18.9493 26.4382 18.8067 26.4444 18.6703 26.4568C18.3914 26.4753 18.1187 26.494 17.8584 26.5126C17.7221 26.5188 17.5919 26.5311 17.4679 26.5373C17.1332 26.5621 16.8109 26.5869 16.501 26.6055C16.3522 26.6179 16.2035 26.6241 16.061 26.6365L15.2491 26.6923C15.1251 26.6985 15.0073 26.7109 14.8895 26.7171C14.6602 26.7295 14.4494 26.7481 14.2573 26.7605C13.4949 26.81 13.0735 26.841 13.0735 26.841C11.0282 26.9836 9.44141 28.6819 9.44141 30.7334V63.0624C9.44141 65.114 11.0282 66.8184 13.0735 66.961C13.0735 66.961 13.4949 66.992 14.2573 67.0416C14.4494 67.054 14.6602 67.0726 14.8895 67.085C15.0073 67.0912 15.1251 67.1036 15.2491 67.1098C15.5032 67.1284 15.7697 67.147 16.061 67.1656C16.2035 67.1779 16.3522 67.1841 16.501 67.1965C16.8109 67.2151 17.1332 67.2399 17.4679 67.2647C17.5919 67.2709 17.7221 67.2833 17.8584 67.2895C18.1187 67.3081 18.3914 67.3267 18.6703 67.3453C18.8067 67.3577 18.9493 67.3639 19.0918 67.3763C19.4761 67.4011 19.8728 67.4259 20.2819 67.4569C20.4864 67.4693 20.6971 67.4816 20.9078 67.5002C21.7383 67.556 22.6123 67.618 23.5234 67.68L53.5344 69.7625C54.1666 69.8059 54.7988 69.8183 55.431 69.7935C56.0632 69.7687 56.6954 69.713 57.3214 69.62L59.5713 69.2915L69.2836 67.8659Z" fill="#0F15B3"/>
<path d="M55.0529 27.3927H45.2475L20.2632 29.3327L15.2861 30.0392C13.6499 30.2748 12.4351 31.6693 12.4351 33.3242V46.8917V60.4593C12.4351 62.108 13.6499 63.5087 15.2861 63.7442L20.2632 64.4508L45.2475 66.3908L55.0529 66.7007C57.7986 66.7875 60.2344 65.5727 60.2344 61.9034V31.7933C60.2344 29.4442 58.5362 27.3865 55.0529 27.3927Z" fill="#00046B"/>
<path d="M19.3209 61.2526C19.73 60.8932 19.9717 60.3539 19.9717 59.7775V46.8856V33.9936C19.9717 33.4234 19.73 32.8779 19.3209 32.5184L18.0813 31.4338L14.2881 28.1116C12.4473 26.5002 9.46605 27.7274 9.43506 30.1756C9.43506 30.1942 9.43506 30.2128 9.43506 30.2314V32.9089V46.8856V60.8622V63.5397C9.43506 63.5583 9.43506 63.5769 9.43506 63.5955C9.46605 66.0437 12.4473 67.2709 14.2881 65.6595C16.3583 63.8496 18.0813 62.3373 18.0813 62.3373L19.3209 61.2526Z" fill="#0000FF"/>
<path d="M16.3147 31.8924C15.199 30.9132 13.5317 31.7747 13.5317 33.3242V46.8917V60.4592C13.5317 62.0088 15.199 62.8641 16.3147 61.891L17.517 60.8373C17.9137 60.4902 18.1493 59.9634 18.1493 59.4056V46.8917V34.3778C18.1493 33.82 17.9199 33.2994 17.517 32.9461L16.3147 31.8924Z" fill="#060844"/>
<path d="M45.5574 64.5066L37.4875 61.0853C35.2562 60.137 32.8515 59.6473 30.428 59.6473H28.4074C25.3146 59.6473 22.3147 60.7134 19.9161 62.6596C19.4574 63.0315 19.6868 63.769 20.2756 63.8186L45.2599 65.7586C45.9851 65.8144 46.233 64.7979 45.5574 64.5066Z" fill="#78A4BF"/>
<path d="M45.5574 29.2893L37.4875 32.7106C35.2562 33.6589 32.8515 34.1485 30.428 34.1485H28.4074C25.3146 34.1485 22.3147 33.0825 19.9161 31.1363C19.4574 30.7644 19.6868 30.0269 20.2756 29.9773L45.2599 28.0373C45.9851 27.9815 46.233 28.998 45.5574 29.2893Z" fill="#9AC0D9"/>
<path d="M119.946 38.1091V39.4169C117.523 38.6421 115.775 36.3737 115.775 33.6961C115.775 33.3738 115.8 33.0515 115.849 32.7416C118.242 33.3924 119.946 35.5679 119.946 38.1091Z" fill="#FCEE21"/>
<path d="M119.946 54.3604V55.662C119.946 58.2032 118.242 60.3849 115.849 61.0295C115.8 60.7196 115.775 60.3973 115.775 60.075C115.775 57.4036 117.523 55.1352 119.946 54.3604Z" fill="#FCEE21"/>
<path d="M9.43528 50.8151H6.95605V63.329H9.43528V50.8151Z" fill="#060844"/>
<path d="M44.9932 32.4069C43.14 33.2188 41.9375 35.0535 41.9375 37.074V47.0405V57.007C41.9375 59.0337 43.1338 60.8622 44.9932 61.6741L54.6931 65.9136C57.3086 67.054 60.2342 65.1388 60.2342 62.2877V47.0343V31.7809C60.2342 28.9298 57.3086 27.0146 54.6931 28.155L44.9932 32.4069Z" fill="#9AC0D9"/>
<path d="M57.1537 27.9319V41.6854V56.9388C57.1537 59.7899 54.2282 61.7051 51.6127 60.5646L41.9375 56.3314V57.0132C41.9375 59.0399 43.1338 60.8684 44.9932 61.6803L54.6931 65.9198C57.3086 67.0602 60.2342 65.145 60.2342 62.2939V47.0405V31.7871C60.2342 29.8347 58.8582 28.3224 57.1537 27.9319Z" fill="#78A4BF"/>
<path d="M45.3093 66.3784C45.2721 66.3784 45.2411 66.3784 45.2039 66.3722L20.2195 64.4322C19.6989 64.3888 19.2589 64.0417 19.1039 63.5397C18.949 63.0377 19.1101 62.5046 19.5191 62.1761C22.0232 60.1432 25.178 59.0275 28.401 59.0275H30.4216C32.9442 59.0275 35.4047 59.5296 37.7228 60.515L45.7927 63.9363C46.3815 64.1843 46.6852 64.7917 46.5303 65.4115C46.3939 65.9941 45.8981 66.3784 45.3093 66.3784ZM28.401 60.2671C25.4569 60.2671 22.581 61.2898 20.3001 63.143L45.3031 65.1388L45.3402 65.0892L45.3216 65.083L37.2518 61.6617C35.0825 60.7444 32.7892 60.2733 30.434 60.2733L28.401 60.2671Z" fill="#060844"/>
<path d="M30.4216 34.7683H28.401C25.178 34.7683 22.0232 33.6465 19.5191 31.6197C19.1101 31.2912 18.949 30.752 19.1039 30.2561C19.2589 29.7541 19.6989 29.407 20.2195 29.3636L45.2039 27.4236C45.8361 27.3678 46.3877 27.7707 46.5365 28.3905C46.6853 29.0103 46.3815 29.6177 45.7989 29.8657L37.729 33.287C35.4047 34.2663 32.9442 34.7683 30.4216 34.7683ZM45.334 28.7066L20.3125 30.597C22.581 32.506 25.4569 33.5287 28.3948 33.5287H30.4154C32.7706 33.5287 35.0701 33.0638 37.2332 32.1403L45.3031 28.719C45.3279 28.7128 45.334 28.7066 45.334 28.7066Z" fill="#060844"/>
<path d="M56.2795 66.8742C55.6597 66.8742 55.0337 66.7441 54.4449 66.49L44.7449 62.2505C42.6624 61.3394 41.3174 59.2816 41.3174 57.0131V37.074C41.3174 34.7993 42.6624 32.7477 44.7449 31.8366L54.4449 27.5972C55.8642 26.9774 57.4881 27.1137 58.7835 27.9628C60.0789 28.812 60.8537 30.2437 60.8537 31.7932V62.3001C60.8537 63.8496 60.0789 65.2813 58.7835 66.1305C58.0274 66.6201 57.1534 66.8742 56.2795 66.8742ZM56.2795 28.4525C55.827 28.4525 55.3684 28.5455 54.9407 28.7314L45.2407 32.9709C43.6106 33.6837 42.557 35.2951 42.557 37.074V57.0131C42.557 58.7919 43.6106 60.4034 45.2407 61.1162L54.9407 65.3557C55.9758 65.8082 57.1596 65.709 58.1017 65.0892C59.05 64.4694 59.614 63.4281 59.614 62.2939V31.787C59.614 30.659 59.05 29.6115 58.1017 28.9917C57.5501 28.6385 56.9179 28.4525 56.2795 28.4525Z" fill="#0000FF"/>
<path d="M9.13189 20.4633H4.80566V0.778259H9.13189L12.5037 3.30707V17.9345L9.13189 20.4633Z" fill="black"/>
<path d="M16.8358 20.4633H12.5034V0.778259H16.8358L20.2076 3.30707V17.9345L16.8358 20.4633Z" fill="black"/>
<path d="M24.5404 20.4633H20.208V0.778259H24.5404L27.9121 3.30707V17.9345L24.5404 20.4633Z" fill="black"/>
<path d="M9.1381 0.778259H4.80566V20.4633H9.1381V0.778259Z" fill="black"/>
<path d="M33.2921 0.778259H27.9121V20.4633H33.2921V0.778259Z" fill="black"/>
<path d="M87.5556 23.364H83.2231V3.67896H87.5556L90.9274 6.20777V20.8352L87.5556 23.364Z" fill="black"/>
<path d="M95.2597 23.364H90.9272V3.67896H95.2597L98.6314 6.20777V20.8352L95.2597 23.364Z" fill="black"/>
<path d="M102.958 23.364H98.6313V3.67896H102.958L106.329 6.20777V20.8352L102.958 23.364Z" fill="black"/>
<path d="M87.5556 3.67896H83.2231V23.364H87.5556V3.67896Z" fill="black"/>
<path d="M111.709 3.67896H106.329V23.364H111.709V3.67896Z" fill="black"/>
<path d="M87.5556 90.1046H83.2231V70.4196H87.5556L90.9274 72.9484V87.5758L87.5556 90.1046Z" fill="black"/>
<path d="M95.2597 90.1046H90.9272V70.4196H95.2597L98.6314 72.9484V87.5758L95.2597 90.1046Z" fill="black"/>
<path d="M102.958 90.1046H98.6313V70.4196H102.958L106.329 72.9484V87.5758L102.958 90.1046Z" fill="black"/>
<path d="M87.5556 70.4196H83.2231V90.1046H87.5556V70.4196Z" fill="black"/>
<path d="M111.709 70.4196H106.329V90.1046H111.709V70.4196Z" fill="black"/>
<path d="M9.13189 92.9991H4.80566V73.314H9.13189L12.5037 75.8428V90.4702L9.13189 92.9991Z" fill="black"/>
<path d="M16.8358 92.9991H12.5034V73.314H16.8358L20.2076 75.8428V90.4702L16.8358 92.9991Z" fill="black"/>
<path d="M24.5404 92.9991H20.208V73.314H24.5404L27.9121 75.8428V90.4702L24.5404 92.9991Z" fill="black"/>
<path d="M9.1381 73.314H4.80566V92.9991H9.1381V73.314Z" fill="black"/>
<path d="M33.2921 73.314H27.9121V92.9991H33.2921V73.314Z" fill="black"/>
</svg>
