<svg width="123" height="93" viewBox="0 0 123 93" fill="none" xmlns="http://www.w3.org/2000/svg">
<path d="M39.6418 29.8347L38.0799 31.7623L27.723 23.3639L19.1697 16.4345L20.2791 23.8846L22.7521 40.5201L20.2977 40.8858L17.7937 24.0581L15.7793 10.4906L31.355 23.116L39.6418 29.8347Z" fill="black"/>
<path d="M39.6418 63.9426L31.3488 70.6675H31.3426L15.7793 83.2867L17.7937 69.7316L20.2977 52.8976L22.7521 53.2571L20.2791 69.9051L19.1697 77.349L27.7168 70.4195L38.0799 62.015L39.6418 63.9426Z" fill="black"/>
<path d="M105.992 49.7676L102.565 65.5975L99.2984 80.7083L97.4886 80.3116L95.6044 80.6835L92.9082 67.0044L89.5117 49.7429L91.9475 49.2656L95.3688 66.645L97.4824 77.3799L99.9492 65.9818L103.569 49.2408L105.992 49.7676Z" fill="black"/>
<path d="M105.992 44.0159L103.569 44.5427L99.9492 27.8017L97.4824 16.3973L95.3688 27.1385L91.9475 44.5179L89.5117 44.0406L92.9082 26.7791L95.6044 13.1L97.4886 13.4656L99.2984 13.0752L102.565 28.186L105.992 44.0159Z" fill="black"/>
<path d="M122.913 38.1153V55.6682C122.913 59.2754 120.496 62.455 117.031 63.4157C116.696 63.5149 116.349 63.5893 116.021 63.6389L102.565 65.5975L99.9491 65.9817L95.3688 66.6449L92.9082 67.0044L58.168 72.062C57.4739 72.1674 56.7487 72.2356 56.0049 72.2604C55.757 72.2728 55.5091 72.2789 55.2612 72.2789C54.7963 72.2789 54.3253 72.2603 53.8418 72.2293L31.3491 70.6675H31.3429L27.717 70.4195L20.2794 69.9051L17.7939 69.7316L13.4119 69.4279C13.4119 69.4279 13.3871 69.4279 13.3809 69.4279C10.1517 69.1985 7.59817 66.5582 7.44942 63.3476H3.40207C2.0323 63.3476 0.922852 62.2381 0.922852 60.8683V55.4512C0.922852 54.0814 2.0323 52.972 3.40207 52.972H7.44321V30.7272C7.44321 27.3865 10.0526 24.5911 13.3809 24.3618L17.7939 24.0581L20.2794 23.8845L27.7232 23.3639L31.3553 23.116L53.8418 21.5541C54.3191 21.5169 54.7963 21.5045 55.2612 21.5045C55.5091 21.5045 55.757 21.5045 56.0049 21.5169C56.7487 21.5479 57.4553 21.6099 58.1556 21.7152L92.9082 26.7791L95.3688 27.1385L99.9491 27.8017L102.565 28.186L116.021 30.1446C116.039 30.1446 116.052 30.1508 116.064 30.1508C116.324 30.1942 116.665 30.2562 117.031 30.3677C120.496 31.3284 122.913 34.508 122.913 38.1153Z" fill="#060844"/>
<path d="M7.43701 52.972V63.3476H3.40207C2.0323 63.3476 0.922852 62.2381 0.922852 60.8684V55.4512C0.922852 54.0815 2.0323 52.972 3.40207 52.972H7.43701Z" fill="#3D3D3D"/>
<path d="M10.6973 55.4512H3.396V60.8684H10.6973V55.4512Z" fill="#737373"/>
<path d="M120.427 38.1091V55.662C120.427 58.2032 118.723 60.3849 116.33 61.0295C116.113 61.0977 115.89 61.1473 115.661 61.1783L57.796 69.6076C57.17 69.7006 56.5377 69.7564 55.9055 69.7812C55.2733 69.806 54.6412 69.7935 54.009 69.7502L13.5481 66.9487C11.5027 66.8061 9.91602 65.1016 9.91602 63.0501V30.721C9.91602 28.6695 11.5027 26.9712 13.5481 26.8286L54.009 24.0209C54.6412 23.9776 55.2733 23.9652 55.9055 23.99C56.5377 24.0148 57.1638 24.0705 57.796 24.1635L115.661 32.5929C115.89 32.6301 116.113 32.6734 116.33 32.7416C118.723 33.3924 120.427 35.5679 120.427 38.1091Z" fill="#0000FF"/>
<path d="M16.5419 26.6303L15.73 26.6861C15.9841 26.6675 16.2506 26.6489 16.5419 26.6303Z" fill="#FF0000"/>
<path d="M120.433 54.0815L55.9116 60.2795V33.4977L120.433 39.6958V54.0815Z" fill="#0F15B3"/>
<path d="M16.5419 26.6303L15.73 26.6861C15.9841 26.6675 16.2506 26.6489 16.5419 26.6303Z" fill="#FF0000"/>
<path d="M69.7645 67.8659C65.2151 67.0044 61.9178 63.0314 61.9178 58.4015V47.0467V46.7368V35.382C61.9178 30.752 65.2151 26.7729 69.7645 25.9175L57.8023 24.1759C57.1701 24.0829 56.5441 24.0271 55.9119 24.0023C55.2797 23.9775 54.6475 23.9899 54.0153 24.0333L19.5727 26.4258C19.4301 26.4382 19.2876 26.4444 19.1513 26.4568C18.8724 26.4753 18.5996 26.494 18.3393 26.5126C18.2029 26.5188 18.0728 26.5311 17.9488 26.5373C17.6141 26.5621 17.2919 26.5869 16.982 26.6055C16.8332 26.6179 16.6844 26.6241 16.5418 26.6365L15.7299 26.6923C15.606 26.6985 15.4882 26.7109 15.3705 26.7171C15.1411 26.7295 14.9304 26.7481 14.7383 26.7605C13.9759 26.81 13.5544 26.841 13.5544 26.841C11.5091 26.9836 9.92236 28.6819 9.92236 30.7334V63.0624C9.92236 65.114 11.5091 66.8184 13.5544 66.961C13.5544 66.961 13.9759 66.992 14.7383 67.0416C14.9304 67.054 15.1411 67.0726 15.3705 67.085C15.4882 67.0912 15.606 67.1036 15.7299 67.1098C15.9841 67.1284 16.2505 67.147 16.5418 67.1656C16.6844 67.1779 16.8332 67.1841 16.982 67.1965C17.2919 67.2151 17.6141 67.2399 17.9488 67.2647C18.0728 67.2709 18.2029 67.2833 18.3393 67.2895C18.5996 67.3081 18.8724 67.3267 19.1513 67.3453C19.2876 67.3577 19.4301 67.3639 19.5727 67.3763C19.957 67.4011 20.3537 67.4259 20.7627 67.4569C20.9673 67.4693 21.178 67.4816 21.3888 67.5002C22.2193 67.556 23.0932 67.618 24.0043 67.68L54.0153 69.7625C54.6475 69.8059 55.2797 69.8183 55.9119 69.7935C56.5441 69.7687 57.1763 69.713 57.8023 69.62L60.0522 69.2915L69.7645 67.8659Z" fill="#0F15B3"/>
<path d="M55.5338 27.3927H45.7285L20.7442 29.3327L15.7671 30.0392C14.1308 30.2748 12.916 31.6693 12.916 33.3242V46.8917V60.4593C12.916 62.108 14.1308 63.5087 15.7671 63.7442L20.7442 64.4508L45.7285 66.3908L55.5338 66.7007C58.2796 66.7875 60.7154 65.5727 60.7154 61.9034V31.7933C60.7154 29.4442 59.0171 27.3865 55.5338 27.3927Z" fill="#00046B"/>
<path d="M19.8019 61.2526C20.2109 60.8932 20.4527 60.3539 20.4527 59.7775V46.8856V33.9936C20.4527 33.4234 20.2109 32.8779 19.8019 32.5184L18.5623 31.4338L14.7691 28.1116C12.9282 26.5002 9.94701 27.7274 9.91602 30.1756C9.91602 30.1942 9.91602 30.2128 9.91602 30.2314V32.9089V46.8856V60.8622V63.5397C9.91602 63.5583 9.91602 63.5769 9.91602 63.5955C9.94701 66.0437 12.9282 67.2709 14.7691 65.6595C16.8392 63.8496 18.5623 62.3373 18.5623 62.3373L19.8019 61.2526Z" fill="#0000FF"/>
<path d="M16.7961 31.8924C15.6805 30.9132 14.0132 31.7747 14.0132 33.3242V46.8917V60.4592C14.0132 62.0088 15.6805 62.8641 16.7961 61.891L17.9986 60.8373C18.3952 60.4902 18.6307 59.9634 18.6307 59.4056V46.8917V34.3778C18.6307 33.82 18.4014 33.2994 17.9986 32.9461L16.7961 31.8924Z" fill="#060844"/>
<path d="M46.0384 64.5066L37.9685 61.0853C35.7372 60.137 33.3324 59.6473 30.9089 59.6473H28.8884C25.7955 59.6473 22.7957 60.7134 20.397 62.6596C19.9384 63.0315 20.1677 63.769 20.7565 63.8186L45.7409 65.7586C46.4661 65.8144 46.714 64.7979 46.0384 64.5066Z" fill="#78A4BF"/>
<path d="M46.0384 29.2893L37.9685 32.7106C35.7372 33.6589 33.3324 34.1485 30.9089 34.1485H28.8884C25.7955 34.1485 22.7957 33.0825 20.397 31.1363C19.9384 30.7644 20.1677 30.0269 20.7565 29.9773L45.7409 28.0373C46.4661 27.9815 46.714 28.998 46.0384 29.2893Z" fill="#9AC0D9"/>
<path d="M120.428 38.1091V39.4169C118.004 38.6421 116.256 36.3737 116.256 33.6961C116.256 33.3738 116.281 33.0515 116.331 32.7416C118.723 33.3924 120.428 35.5679 120.428 38.1091Z" fill="#FCEE21"/>
<path d="M120.428 54.3604V55.662C120.428 58.2032 118.723 60.3849 116.331 61.0295C116.281 60.7196 116.256 60.3973 116.256 60.075C116.256 57.4036 118.004 55.1352 120.428 54.3604Z" fill="#FCEE21"/>
<path d="M9.91623 50.8151H7.43701V63.329H9.91623V50.8151Z" fill="#060844"/>
<path d="M45.4746 32.4069C43.6214 33.2188 42.4189 35.0535 42.4189 37.074V47.0405V57.007C42.4189 59.0337 43.6152 60.8622 45.4746 61.6741L55.1746 65.9136C57.7902 67.054 60.7156 65.1388 60.7156 62.2877V47.0343V31.7809C60.7156 28.9298 57.7902 27.0146 55.1746 28.155L45.4746 32.4069Z" fill="#9AC0D9"/>
<path d="M57.6352 27.9319V41.6854V56.9388C57.6352 59.7899 54.7097 61.7051 52.0942 60.5646L42.4189 56.3314V57.0132C42.4189 59.0399 43.6152 60.8684 45.4746 61.6803L55.1746 65.9198C57.7902 67.0602 60.7156 65.145 60.7156 62.2939V47.0405V31.7871C60.7156 29.8347 59.3459 28.3224 57.6352 27.9319Z" fill="#78A4BF"/>
<path d="M45.7912 66.3784C45.754 66.3784 45.723 66.3784 45.6858 66.3722L20.7015 64.4322C20.1809 64.3889 19.7408 64.0418 19.5858 63.5397C19.4309 63.0377 19.5921 62.5046 20.0011 62.1761C22.5052 60.1432 25.6599 59.0275 28.8829 59.0275H30.9035C33.4261 59.0275 35.8867 59.5296 38.2048 60.5151L46.2747 63.9364C46.8635 64.1843 47.1672 64.7917 47.0122 65.4115C46.8759 65.9941 46.38 66.3784 45.7912 66.3784ZM28.8829 60.2671C25.9388 60.2671 23.063 61.2898 20.7821 63.143L45.785 65.1388L45.8222 65.0892L45.8036 65.083L37.7338 61.6617C35.5644 60.7444 33.2712 60.2733 30.9159 60.2733L28.8829 60.2671Z" fill="#060844"/>
<path d="M30.9035 34.7683H28.8829C25.6599 34.7683 22.5052 33.6465 20.0011 31.6198C19.5921 31.2913 19.4309 30.752 19.5858 30.2562C19.7408 29.7541 20.1809 29.407 20.7015 29.3637L45.6858 27.4237C46.318 27.3679 46.8697 27.7708 47.0184 28.3906C47.1672 29.0104 46.8635 29.6178 46.2809 29.8657L38.211 33.287C35.8867 34.2663 33.4261 34.7683 30.9035 34.7683ZM45.816 28.7067L20.7945 30.5971C23.063 32.5061 25.9388 33.5287 28.8767 33.5287H30.8973C33.2525 33.5287 35.552 33.0639 37.7151 32.1404L45.785 28.7191C45.8098 28.7129 45.816 28.7067 45.816 28.7067Z" fill="#060844"/>
<path d="M56.7614 66.8743C56.1416 66.8743 55.5156 66.7441 54.9268 66.49L45.2269 62.2505C43.1443 61.3394 41.7993 59.2816 41.7993 57.0131V37.074C41.7993 34.7993 43.1443 32.7478 45.2269 31.8367L54.9268 27.5972C56.3462 26.9774 57.9701 27.1137 59.2655 27.9629C60.5609 28.812 61.3356 30.2438 61.3356 31.7933V62.3001C61.3356 63.8496 60.5609 65.2814 59.2655 66.1305C58.5093 66.6201 57.6353 66.8743 56.7614 66.8743ZM56.7614 28.4525C56.309 28.4525 55.8504 28.5455 55.4227 28.7314L45.7227 32.9709C44.0926 33.6837 43.0389 35.2952 43.0389 37.074V57.0131C43.0389 58.792 44.0926 60.4035 45.7227 61.1162L55.4227 65.3557C56.4578 65.8082 57.6416 65.709 58.5837 65.0892C59.532 64.4694 60.096 63.4281 60.096 62.2939V31.7871C60.096 30.659 59.532 29.6116 58.5837 28.9918C58.0321 28.6385 57.3998 28.4525 56.7614 28.4525Z" fill="#0000FF"/>
<path d="M12.9839 20.4633H8.65771V0.778259H12.9839L16.3557 3.30707V17.9345L12.9839 20.4633Z" fill="black"/>
<path d="M20.6884 20.4633H16.356V0.778259H20.6884L24.0601 3.30707V17.9345L20.6884 20.4633Z" fill="black"/>
<path d="M28.3925 20.4633H24.0601V0.778259H28.3925L31.7643 3.30707V17.9345L28.3925 20.4633Z" fill="black"/>
<path d="M9.61857 0.778259H5.28613V20.4633H9.61857V0.778259Z" fill="black"/>
<path d="M33.772 0.778259H28.3921V20.4633H33.772V0.778259Z" fill="black"/>
<path d="M91.4076 23.3639H87.0752V3.67889H91.4076L94.7794 6.20771V20.8351L91.4076 23.3639Z" fill="black"/>
<path d="M99.1122 23.3639H94.7798V3.67889H99.1122L102.484 6.20771V20.8351L99.1122 23.3639Z" fill="black"/>
<path d="M106.81 23.3639H102.483V3.67889H106.81L110.181 6.20771V20.8351L106.81 23.3639Z" fill="black"/>
<path d="M88.0365 3.67889H83.7041V23.3639H88.0365V3.67889Z" fill="black"/>
<path d="M112.19 3.67889H106.811V23.3639H112.19V3.67889Z" fill="black"/>
<path d="M12.9839 92.9991H8.65771V73.314H12.9839L16.3557 75.8428V90.4702L12.9839 92.9991Z" fill="black"/>
<path d="M20.6884 92.9991H16.356V73.3141H20.6884L24.0601 75.8429V90.4703L20.6884 92.9991Z" fill="black"/>
<path d="M28.3925 92.9991H24.0601V73.3141H28.3925L31.7643 75.8429V90.4703L28.3925 92.9991Z" fill="black"/>
<path d="M9.61857 73.314H5.28613V92.9991H9.61857V73.314Z" fill="black"/>
<path d="M33.772 73.314H28.3921V92.9991H33.772V73.314Z" fill="black"/>
<path d="M91.4076 90.1046H87.0752V70.4196H91.4076L94.7794 72.9484V87.5758L91.4076 90.1046Z" fill="black"/>
<path d="M99.1122 90.1046H94.7798V70.4196H99.1122L102.484 72.9484V87.5758L99.1122 90.1046Z" fill="black"/>
<path d="M106.81 90.1046H102.483V70.4196H106.81L110.181 72.9484V87.5758L106.81 90.1046Z" fill="black"/>
<path d="M88.0365 70.4196H83.7041V90.1046H88.0365V70.4196Z" fill="black"/>
<path d="M112.19 70.4196H106.811V90.1046H112.19V70.4196Z" fill="black"/>
</svg>
