<svg width="122" height="93" viewBox="0 0 122 93" fill="none" xmlns="http://www.w3.org/2000/svg">
<path d="M38.7287 29.8347L37.1668 31.7623L26.8099 23.364L18.2565 16.4345L19.366 23.8846L21.839 40.5202L19.3846 40.8858L16.8806 24.0581L14.8662 10.4906L30.4419 23.116L38.7287 29.8347Z" fill="black"/>
<path d="M38.7287 63.9426L30.4357 70.6675H30.4295L14.8662 83.2867L16.8806 69.7316L19.3846 52.8976L21.839 53.2571L19.366 69.9051L18.2565 77.349L26.8037 70.4195L37.1668 62.015L38.7287 63.9426Z" fill="black"/>
<path d="M105.079 49.7677L101.651 65.5975L98.3849 80.7083L96.575 80.3117L94.6909 80.6835L91.9947 67.0044L88.5981 49.7429L91.034 49.2656L94.4553 66.645L96.5688 77.38L99.0357 65.9818L102.655 49.2408L105.079 49.7677Z" fill="black"/>
<path d="M105.079 44.0159L102.655 44.5427L99.0357 27.8017L96.5688 16.3973L94.4553 27.1385L91.034 44.5179L88.5981 44.0406L91.9947 26.7791L94.6909 13.1L96.575 13.4656L98.3849 13.0752L101.651 28.186L105.079 44.0159Z" fill="black"/>
<path d="M122 38.1153V55.6682C122 59.2755 119.583 62.4551 116.118 63.4158C115.783 63.5149 115.436 63.5893 115.108 63.6389L101.652 65.5975L99.036 65.9818L94.4557 66.645L91.995 67.0044L57.255 72.0621C56.5608 72.1674 55.8356 72.2356 55.0918 72.2604C54.8439 72.2728 54.596 72.279 54.348 72.279C53.8832 72.279 53.4122 72.2604 52.9287 72.2294L30.436 70.6675H30.4298L26.8039 70.4196L19.3663 69.9051L16.8808 69.7316L12.4989 69.4279C12.4989 69.4279 12.474 69.4279 12.4678 69.4279C9.23865 69.1986 6.68501 66.5582 6.53626 63.3476H2.48899C1.11922 63.3476 0.00976562 62.2381 0.00976562 60.8684V55.4512C0.00976562 54.0815 1.11922 52.972 2.48899 52.972H6.53013V30.7273C6.53013 27.3865 9.13948 24.5912 12.4678 24.3618L16.8808 24.0581L19.3663 23.8846L26.8101 23.364L30.4422 23.116L52.9287 21.5541C53.406 21.517 53.8832 21.5045 54.348 21.5045C54.596 21.5045 54.8439 21.5045 55.0918 21.5169C55.8356 21.5479 56.5422 21.6099 57.2426 21.7153L91.995 26.7791L94.4557 27.1386L99.036 27.8018L101.652 28.186L115.108 30.1446C115.126 30.1446 115.139 30.1508 115.151 30.1508C115.411 30.1942 115.752 30.2562 116.118 30.3678C119.583 31.3285 122 34.5081 122 38.1153Z" fill="#060844"/>
<path d="M6.52392 52.972V63.3476H2.48899C1.11922 63.3476 0.00976562 62.2382 0.00976562 60.8684V55.4513C0.00976562 54.0815 1.11922 52.972 2.48899 52.972H6.52392Z" fill="#3D3D3D"/>
<path d="M9.78423 55.4513H2.48291V60.8684H9.78423V55.4513Z" fill="#737373"/>
<path d="M119.514 38.1091V55.662C119.514 58.2032 117.81 60.3849 115.417 61.0295C115.2 61.0977 114.977 61.1473 114.748 61.1783L56.8829 69.6076C56.2569 69.7006 55.6246 69.7564 54.9924 69.7812C54.3602 69.806 53.7281 69.7935 53.0959 69.7502L12.635 66.9487C10.5896 66.8061 9.00293 65.1016 9.00293 63.0501V30.721C9.00293 28.6695 10.5896 26.9712 12.635 26.8286L53.0959 24.0209C53.7281 23.9776 54.3602 23.9652 54.9924 23.99C55.6246 24.0148 56.2507 24.0705 56.8829 24.1635L114.748 32.5929C114.977 32.6301 115.2 32.6734 115.417 32.7416C117.81 33.3924 119.514 35.5679 119.514 38.1091Z" fill="#0000FF"/>
<path d="M15.6288 26.6303L14.8169 26.6861C15.071 26.6675 15.3375 26.6489 15.6288 26.6303Z" fill="#FF0000"/>
<path d="M119.52 54.0815L54.9985 60.2796V33.4978L119.52 39.6958V54.0815Z" fill="#0F15B3"/>
<path d="M15.6288 26.6303L14.8169 26.6861C15.071 26.6675 15.3375 26.6489 15.6288 26.6303Z" fill="#FF0000"/>
<path d="M68.8514 67.866C64.302 67.0044 61.0047 63.0315 61.0047 58.4015V47.0467V46.7368V35.382C61.0047 30.7521 64.302 26.7729 68.8514 25.9176L56.8892 24.1759C56.257 24.0829 55.631 24.0271 54.9988 24.0023C54.3666 23.9776 53.7344 23.99 53.1021 24.0334L18.6596 26.4258C18.5171 26.4382 18.3745 26.4444 18.2381 26.4568C17.9592 26.4754 17.6865 26.494 17.4262 26.5126C17.2898 26.5188 17.1597 26.5312 17.0357 26.5374C16.701 26.5622 16.3787 26.5869 16.0688 26.6055C15.92 26.6179 15.7713 26.6241 15.6288 26.6365L14.8168 26.6923C14.6929 26.6985 14.5751 26.7109 14.4573 26.7171C14.228 26.7295 14.0172 26.7481 13.8251 26.7605C13.0627 26.8101 12.6413 26.8411 12.6413 26.8411C10.596 26.9836 9.00928 28.6819 9.00928 30.7335V63.0625C9.00928 65.114 10.596 66.8185 12.6413 66.961C12.6413 66.961 13.0627 66.992 13.8251 67.0416C14.0172 67.054 14.228 67.0726 14.4573 67.085C14.5751 67.0912 14.6929 67.1036 14.8168 67.1098C15.071 67.1284 15.3374 67.147 15.6288 67.1656C15.7713 67.178 15.92 67.1842 16.0688 67.1966C16.3787 67.2152 16.701 67.24 17.0357 67.2648C17.1597 67.271 17.2898 67.2834 17.4262 67.2896C17.6865 67.3081 17.9592 67.3267 18.2381 67.3453C18.3745 67.3577 18.5171 67.3639 18.6596 67.3763C19.0439 67.4011 19.4406 67.4259 19.8497 67.4569C20.0542 67.4693 20.2649 67.4817 20.4757 67.5003C21.3062 67.556 22.1801 67.618 23.0912 67.68L53.1021 69.7626C53.7344 69.806 54.3666 69.8183 54.9988 69.7935C55.631 69.7688 56.2632 69.713 56.8892 69.62L59.1391 69.2915L68.8514 67.866Z" fill="#0F15B3"/>
<path d="M54.6207 27.3927H44.8154L19.8311 29.3327L14.854 30.0393C13.2177 30.2748 12.0029 31.6694 12.0029 33.3243V46.8918V60.4593C12.0029 62.108 13.2177 63.5087 14.854 63.7443L19.8311 64.4509L44.8154 66.3908L54.6207 66.7007C57.3665 66.7875 59.8023 65.5727 59.8023 61.9035V31.7933C59.8023 29.4443 58.104 27.3865 54.6207 27.3927Z" fill="#00046B"/>
<path d="M18.8888 61.2527C19.2979 60.8932 19.5396 60.354 19.5396 59.7775V46.8856V33.9936C19.5396 33.4234 19.2979 32.878 18.8888 32.5185L17.6492 31.4338L13.856 28.1117C12.0152 26.5002 9.03392 27.7274 9.00293 30.1756C9.00293 30.1942 9.00293 30.2128 9.00293 30.2314V32.909V46.8856V60.8622V63.5398C9.00293 63.5584 9.00293 63.5769 9.00293 63.5955C9.03392 66.0437 12.0152 67.271 13.856 65.6595C15.9261 63.8496 17.6492 62.3373 17.6492 62.3373L18.8888 61.2527Z" fill="#0000FF"/>
<path d="M15.883 31.8925C14.7674 30.9132 13.1001 31.7747 13.1001 33.3242V46.8917V60.4593C13.1001 62.0088 14.7674 62.8641 15.883 61.891L17.0854 60.8373C17.4821 60.4903 17.7176 59.9634 17.7176 59.4056V46.8917V34.3779C17.7176 33.82 17.4883 33.2994 17.0854 32.9461L15.883 31.8925Z" fill="#060844"/>
<path d="M45.1253 64.5066L37.0555 61.0853C34.8242 60.137 32.4193 59.6473 29.9959 59.6473H27.9753C24.8825 59.6473 21.8826 60.7134 19.4839 62.6596C19.0253 63.0315 19.2547 63.769 19.8435 63.8186L44.8278 65.7586C45.553 65.8144 45.8009 64.7979 45.1253 64.5066Z" fill="#78A4BF"/>
<path d="M45.1253 29.2893L37.0555 32.7107C34.8242 33.659 32.4193 34.1486 29.9959 34.1486H27.9753C24.8825 34.1486 21.8826 33.0825 19.4839 31.1363C19.0253 30.7644 19.2547 30.0269 19.8435 29.9773L44.8278 28.0373C45.553 27.9815 45.8009 28.998 45.1253 29.2893Z" fill="#9AC0D9"/>
<path d="M119.515 38.1091V39.4169C117.091 38.6422 115.343 36.3737 115.343 33.6961C115.343 33.3738 115.368 33.0515 115.418 32.7416C117.81 33.3924 119.515 35.5679 119.515 38.1091Z" fill="#FCEE21"/>
<path d="M119.515 54.3604V55.662C119.515 58.2032 117.81 60.3849 115.418 61.0295C115.368 60.7196 115.343 60.3973 115.343 60.075C115.343 57.4037 117.091 55.1352 119.515 54.3604Z" fill="#FCEE21"/>
<path d="M9.00315 50.8151H6.52393V63.329H9.00315V50.8151Z" fill="#060844"/>
<path d="M44.5615 32.4069C42.7083 33.2189 41.5059 35.0535 41.5059 37.0741V47.0406V57.007C41.5059 59.0338 42.7021 60.8622 44.5615 61.6741L54.2614 65.9136C56.877 67.054 59.8025 65.1389 59.8025 62.2877V47.0344V31.781C59.8025 28.9299 56.877 27.0146 54.2614 28.1551L44.5615 32.4069Z" fill="#9AC0D9"/>
<path d="M56.7221 27.9319V41.6854V56.9388C56.7221 59.7899 53.7966 61.7051 51.181 60.5646L41.5059 56.3314V57.0132C41.5059 59.0399 42.7021 60.8684 44.5615 61.6803L54.2614 65.9198C56.877 67.0602 59.8025 65.145 59.8025 62.2939V47.0405V31.7871C59.8025 29.8347 58.4266 28.3224 56.7221 27.9319Z" fill="#78A4BF"/>
<path d="M44.8781 66.3784C44.841 66.3784 44.8099 66.3784 44.7728 66.3722L19.7884 64.4322C19.2677 64.3889 18.8277 64.0418 18.6728 63.5397C18.5178 63.0377 18.6789 62.5046 19.088 62.1761C21.592 60.1432 24.7469 59.0275 27.9698 59.0275H29.9904C32.513 59.0275 34.9737 59.5296 37.2917 60.5151L45.3615 63.9364C45.9504 64.1843 46.2541 64.7917 46.0991 65.4115C45.9628 65.9941 45.467 66.3784 44.8781 66.3784ZM27.9698 60.2671C25.0258 60.2671 22.1498 61.2898 19.8689 63.143L44.8719 65.1388L44.9091 65.0892L44.8905 65.083L36.8207 61.6617C34.6514 60.7444 32.3581 60.2733 30.0028 60.2733L27.9698 60.2671Z" fill="#060844"/>
<path d="M29.9904 34.7683H27.9698C24.7469 34.7683 21.592 33.6465 19.088 31.6198C18.6789 31.2913 18.5178 30.752 18.6728 30.2562C18.8277 29.7541 19.2677 29.407 19.7884 29.3637L44.7728 27.4237C45.405 27.3679 45.9566 27.7708 46.1054 28.3906C46.2541 29.0104 45.9504 29.6178 45.3677 29.8657L37.2979 33.287C34.9736 34.2663 32.513 34.7683 29.9904 34.7683ZM44.9029 28.7067L19.8814 30.5971C22.1498 32.5061 25.0258 33.5287 27.9636 33.5287H29.9842C32.3395 33.5287 34.6389 33.0639 36.8021 32.1404L44.8719 28.7191C44.8967 28.7129 44.9029 28.7067 44.9029 28.7067Z" fill="#060844"/>
<path d="M55.8483 66.8743C55.2285 66.8743 54.6026 66.7441 54.0137 66.49L44.3138 62.2505C42.2312 61.3394 40.8862 59.2816 40.8862 57.0131V37.074C40.8862 34.7993 42.2312 32.7478 44.3138 31.8367L54.0137 27.5972C55.4331 26.9774 57.057 27.1137 58.3524 27.9629C59.6478 28.812 60.4225 30.2438 60.4225 31.7933V62.3001C60.4225 63.8496 59.6478 65.2814 58.3524 66.1305C57.5962 66.6201 56.7223 66.8743 55.8483 66.8743ZM55.8483 28.4525C55.3959 28.4525 54.9372 28.5455 54.5095 28.7314L44.8096 32.9709C43.1795 33.6837 42.1258 35.2952 42.1258 37.074V57.0131C42.1258 58.792 43.1795 60.4035 44.8096 61.1162L54.5095 65.3557C55.5446 65.8082 56.7284 65.709 57.6705 65.0892C58.6188 64.4694 59.1829 63.4281 59.1829 62.2939V31.7871C59.1829 30.659 58.6188 29.6116 57.6705 28.9918C57.1189 28.6385 56.4867 28.4525 55.8483 28.4525Z" fill="#0000FF"/>
<path d="M10.0009 20.4633H5.66846V0.778259H10.0009L13.3726 3.30707V17.9345L10.0009 20.4633Z" fill="black"/>
<path d="M17.7055 20.4633H13.373V0.778259H17.7055L21.0773 3.30707V17.9345L17.7055 20.4633Z" fill="black"/>
<path d="M25.4029 20.4633H21.0767V0.778259H25.4029L28.7746 3.30707V17.9345L25.4029 20.4633Z" fill="black"/>
<path d="M8.70597 0.778259H4.37354V20.4633H8.70597V0.778259Z" fill="black"/>
<path d="M32.8599 0.778259H27.48V20.4633H32.8599V0.778259Z" fill="black"/>
<path d="M88.4258 23.3639H84.0933V3.67889H88.4258L91.7975 6.20771V20.8351L88.4258 23.3639Z" fill="black"/>
<path d="M96.1236 23.3639H91.7974V3.67889H96.1236L99.4954 6.20771V20.8351L96.1236 23.3639Z" fill="black"/>
<path d="M103.828 23.3639H99.4951V3.67889H103.828L107.199 6.20771V20.8351L103.828 23.3639Z" fill="black"/>
<path d="M87.1234 3.67889H82.791V23.3639H87.1234V3.67889Z" fill="black"/>
<path d="M111.277 3.67889H105.897V23.3639H111.277V3.67889Z" fill="black"/>
<path d="M88.4258 90.1046H84.0933V70.4196H88.4258L91.7975 72.9484V87.5758L88.4258 90.1046Z" fill="black"/>
<path d="M96.1236 90.1046H91.7974V70.4196H96.1236L99.4954 72.9484V87.5758L96.1236 90.1046Z" fill="black"/>
<path d="M103.828 90.1046H99.4951V70.4196H103.828L107.199 72.9484V87.5758L103.828 90.1046Z" fill="black"/>
<path d="M87.1234 70.4196H82.791V90.1046H87.1234V70.4196Z" fill="black"/>
<path d="M111.277 70.4196H105.897V90.1046H111.277V70.4196Z" fill="black"/>
<path d="M10.0009 92.9991H5.66846V73.3141H10.0009L13.3726 75.8429V90.4703L10.0009 92.9991Z" fill="black"/>
<path d="M17.7055 92.9991H13.373V73.3141H17.7055L21.0773 75.8429V90.4703L17.7055 92.9991Z" fill="black"/>
<path d="M25.4029 92.9991H21.0767V73.3141H25.4029L28.7746 75.8429V90.4703L25.4029 92.9991Z" fill="black"/>
<path d="M8.70597 73.314H4.37354V92.9991H8.70597V73.314Z" fill="black"/>
<path d="M32.8599 73.314H27.48V92.9991H32.8599V73.314Z" fill="black"/>
</svg>
