<svg width="1920" height="1660" viewBox="0 0 1920 1660" fill="none" xmlns="http://www.w3.org/2000/svg">
<g clip-path="url(#clip0_1_2110)">
<path d="M1920 0H0V1660H1920V0Z" fill="#8AD9F7"/>
<path d="M72.5 1660H-46.5C-46.5 1615.46 -51.7 1594.72 -57.72 1570.7C-64.65 1543.05 -72.5 1511.71 -72.5 1452.49C-72.5 1393.28 -64.65 1361.94 -57.72 1334.28C-51.7 1310.27 -46.5 1289.52 -46.5 1244.98C-46.5 1200.45 -51.7 1179.71 -57.72 1155.69C-64.65 1128.03 -72.5 1096.69 -72.5 1037.49C-72.5 978.272 -64.65 946.93 -57.72 919.277C-51.7 895.263 -46.5 874.519 -46.5 829.98C-46.5 785.441 -51.7 764.707 -57.72 740.693C-64.65 713.04 -72.5 681.698 -72.5 622.492C-72.5 563.278 -64.65 531.935 -57.72 504.292C-51.7 480.279 -46.5 459.534 -46.5 415.005C-46.5 370.466 -51.7 349.732 -57.72 325.708C-64.65 298.055 -72.5 266.713 -72.5 207.497C-72.5 148.282 -64.65 116.94 -57.72 89.2974C-51.7 65.2735 -46.5 44.5387 -46.5 0H72.5C72.5 59.215 64.65 90.5571 57.72 118.21C51.7 142.224 46.5 162.959 46.5 207.497C46.5 252.036 51.7 272.771 57.72 296.795C64.65 324.448 72.5 355.79 72.5 415.005C72.5 474.22 64.65 505.562 57.72 533.205C51.7 557.219 46.5 577.954 46.5 622.492C46.5 667.031 51.7 687.766 57.72 711.78C64.65 739.433 72.5 770.775 72.5 829.98C72.5 889.185 64.65 920.537 57.72 948.19C51.7 972.204 46.5 992.949 46.5 1037.49C46.5 1082.03 51.7 1102.76 57.72 1126.77C64.65 1154.43 72.5 1185.77 72.5 1244.98C72.5 1304.2 64.65 1335.54 57.72 1363.2C51.7 1387.21 46.5 1407.95 46.5 1452.49C46.5 1497.03 51.7 1517.78 57.72 1541.79C64.65 1569.44 72.5 1600.79 72.5 1660Z" fill="#6AD0F7"/>
<path d="M232.5 1660H113.5C113.5 1615.46 108.3 1594.72 102.28 1570.7C95.35 1543.05 87.5 1511.71 87.5 1452.49C87.5 1393.28 95.35 1361.94 102.28 1334.28C108.3 1310.27 113.5 1289.52 113.5 1244.98C113.5 1200.45 108.3 1179.71 102.28 1155.69C95.35 1128.03 87.5 1096.69 87.5 1037.49C87.5 978.272 95.35 946.93 102.28 919.277C108.3 895.263 113.5 874.519 113.5 829.98C113.5 785.441 108.3 764.707 102.28 740.693C95.35 713.04 87.5 681.698 87.5 622.492C87.5 563.278 95.35 531.935 102.28 504.292C108.3 480.279 113.5 459.534 113.5 415.005C113.5 370.466 108.3 349.732 102.28 325.708C95.35 298.055 87.5 266.713 87.5 207.497C87.5 148.282 95.35 116.94 102.28 89.2974C108.3 65.2735 113.5 44.5387 113.5 0H232.5C232.5 59.215 224.65 90.5571 217.72 118.21C211.7 142.224 206.5 162.969 206.5 207.497C206.5 252.036 211.7 272.771 217.72 296.795C224.65 324.448 232.5 355.79 232.5 415.005C232.5 474.22 224.65 505.562 217.72 533.205C211.7 557.219 206.5 577.964 206.5 622.492C206.5 667.031 211.7 687.766 217.72 711.78C224.65 739.433 232.5 770.775 232.5 829.98C232.5 889.185 224.65 920.537 217.72 948.19C211.7 972.204 206.5 992.949 206.5 1037.49C206.5 1082.03 211.7 1102.76 217.72 1126.77C224.65 1154.43 232.5 1185.77 232.5 1244.98C232.5 1304.2 224.65 1335.54 217.72 1363.2C211.7 1387.21 206.5 1407.95 206.5 1452.49C206.5 1497.03 211.7 1517.78 217.72 1541.79C224.65 1569.44 232.5 1600.79 232.5 1660Z" fill="#43C5F7"/>
<path d="M392.5 1660H273.5C273.5 1615.46 268.3 1594.72 262.28 1570.7C255.35 1543.05 247.5 1511.71 247.5 1452.49C247.5 1393.28 255.35 1361.94 262.28 1334.28C268.3 1310.27 273.5 1289.52 273.5 1244.98C273.5 1200.45 268.3 1179.71 262.28 1155.69C255.35 1128.03 247.5 1096.69 247.5 1037.49C247.5 978.272 255.35 946.93 262.28 919.277C268.3 895.263 273.5 874.519 273.5 829.98C273.5 785.441 268.3 764.707 262.28 740.693C255.35 713.04 247.5 681.698 247.5 622.492C247.5 563.278 255.35 531.935 262.28 504.292C268.3 480.279 273.5 459.534 273.5 415.005C273.5 370.466 268.3 349.732 262.28 325.708C255.35 298.055 247.5 266.713 247.5 207.497C247.5 148.282 255.35 116.94 262.28 89.2974C268.3 65.2735 273.5 44.5387 273.5 0H392.5C392.5 59.215 384.65 90.5571 377.72 118.21C371.7 142.224 366.5 162.969 366.5 207.497C366.5 252.036 371.7 272.771 377.72 296.795C384.65 324.448 392.5 355.79 392.5 415.005C392.5 474.22 384.65 505.562 377.72 533.205C371.7 557.219 366.5 577.964 366.5 622.492C366.5 667.031 371.7 687.766 377.72 711.78C384.65 739.433 392.5 770.775 392.5 829.98C392.5 889.185 384.65 920.537 377.72 948.19C371.7 972.204 366.5 992.949 366.5 1037.49C366.5 1082.03 371.7 1102.76 377.72 1126.77C384.65 1154.43 392.5 1185.77 392.5 1244.98C392.5 1304.2 384.65 1335.54 377.72 1363.2C371.7 1387.21 366.5 1407.95 366.5 1452.49C366.5 1497.03 371.7 1517.78 377.72 1541.79C384.65 1569.44 392.5 1600.79 392.5 1660Z" fill="#6AD0F7"/>
<path d="M552.5 1660H433.5C433.5 1615.46 428.3 1594.72 422.28 1570.7C415.35 1543.05 407.5 1511.71 407.5 1452.49C407.5 1393.28 415.35 1361.94 422.28 1334.28C428.3 1310.27 433.5 1289.52 433.5 1244.98C433.5 1200.45 428.3 1179.71 422.28 1155.69C415.35 1128.03 407.5 1096.69 407.5 1037.49C407.5 978.272 415.35 946.93 422.28 919.277C428.3 895.263 433.5 874.519 433.5 829.98C433.5 785.441 428.3 764.707 422.28 740.693C415.35 713.04 407.5 681.698 407.5 622.492C407.5 563.278 415.35 531.935 422.28 504.292C428.3 480.279 433.5 459.534 433.5 415.005C433.5 370.466 428.3 349.732 422.28 325.708C415.35 298.055 407.5 266.713 407.5 207.497C407.5 148.282 415.35 116.94 422.28 89.2974C428.3 65.2735 433.5 44.5387 433.5 0H552.5C552.5 59.215 544.65 90.5571 537.72 118.21C531.7 142.224 526.5 162.969 526.5 207.497C526.5 252.036 531.7 272.771 537.72 296.795C544.65 324.448 552.5 355.79 552.5 415.005C552.5 474.22 544.65 505.562 537.72 533.205C531.7 557.219 526.5 577.964 526.5 622.492C526.5 667.031 531.7 687.766 537.72 711.78C544.65 739.433 552.5 770.775 552.5 829.98C552.5 889.185 544.65 920.537 537.72 948.19C531.7 972.204 526.5 992.949 526.5 1037.49C526.5 1082.03 531.7 1102.76 537.72 1126.77C544.65 1154.43 552.5 1185.77 552.5 1244.98C552.5 1304.2 544.65 1335.54 537.72 1363.2C531.7 1387.21 526.5 1407.95 526.5 1452.49C526.5 1497.03 531.7 1517.78 537.72 1541.79C544.65 1569.44 552.5 1600.79 552.5 1660Z" fill="#43C5F7"/>
<path d="M712.5 1660H593.5C593.5 1615.46 588.3 1594.72 582.28 1570.7C575.35 1543.05 567.5 1511.71 567.5 1452.49C567.5 1393.28 575.35 1361.94 582.28 1334.28C588.3 1310.27 593.5 1289.52 593.5 1244.98C593.5 1200.45 588.3 1179.71 582.28 1155.69C575.35 1128.03 567.5 1096.69 567.5 1037.49C567.5 978.272 575.35 946.93 582.28 919.277C588.3 895.263 593.5 874.519 593.5 829.98C593.5 785.441 588.3 764.707 582.28 740.693C575.35 713.04 567.5 681.698 567.5 622.492C567.5 563.278 575.35 531.935 582.28 504.292C588.3 480.279 593.5 459.534 593.5 415.005C593.5 370.466 588.3 349.732 582.28 325.708C575.35 298.055 567.5 266.713 567.5 207.497C567.5 148.282 575.35 116.94 582.28 89.2974C588.3 65.2735 593.5 44.5387 593.5 0H712.5C712.5 59.215 704.65 90.5571 697.72 118.21C691.7 142.224 686.5 162.969 686.5 207.497C686.5 252.036 691.7 272.771 697.72 296.795C704.65 324.448 712.5 355.79 712.5 415.005C712.5 474.22 704.65 505.562 697.72 533.205C691.7 557.219 686.5 577.964 686.5 622.492C686.5 667.031 691.7 687.766 697.72 711.78C704.65 739.433 712.5 770.775 712.5 829.98C712.5 889.185 704.65 920.537 697.72 948.19C691.7 972.204 686.5 992.949 686.5 1037.49C686.5 1082.03 691.7 1102.76 697.72 1126.77C704.65 1154.43 712.5 1185.77 712.5 1244.98C712.5 1304.2 704.65 1335.54 697.72 1363.2C691.7 1387.21 686.5 1407.95 686.5 1452.49C686.5 1497.03 691.7 1517.78 697.72 1541.79C704.65 1569.44 712.5 1600.79 712.5 1660Z" fill="#6AD0F7"/>
<path d="M872.5 1660H753.5C753.5 1615.46 748.3 1594.72 742.28 1570.7C735.35 1543.05 727.5 1511.71 727.5 1452.49C727.5 1393.28 735.35 1361.94 742.28 1334.28C748.3 1310.27 753.5 1289.52 753.5 1244.98C753.5 1200.45 748.3 1179.71 742.28 1155.69C735.35 1128.03 727.5 1096.69 727.5 1037.49C727.5 978.272 735.35 946.93 742.28 919.277C748.3 895.263 753.5 874.519 753.5 829.98C753.5 785.441 748.3 764.707 742.28 740.693C735.35 713.04 727.5 681.698 727.5 622.492C727.5 563.278 735.35 531.935 742.28 504.292C748.3 480.279 753.5 459.534 753.5 415.005C753.5 370.466 748.3 349.732 742.28 325.708C735.35 298.055 727.5 266.713 727.5 207.497C727.5 148.282 735.35 116.94 742.28 89.2974C748.3 65.2735 753.5 44.5387 753.5 0H872.5C872.5 59.215 864.65 90.5571 857.72 118.21C851.7 142.224 846.5 162.969 846.5 207.497C846.5 252.036 851.7 272.771 857.72 296.795C864.65 324.448 872.5 355.79 872.5 415.005C872.5 474.22 864.65 505.562 857.72 533.205C851.7 557.219 846.5 577.964 846.5 622.492C846.5 667.031 851.7 687.766 857.72 711.78C864.65 739.433 872.5 770.775 872.5 829.98C872.5 889.185 864.65 920.537 857.72 948.19C851.7 972.204 846.5 992.949 846.5 1037.49C846.5 1082.03 851.7 1102.76 857.72 1126.77C864.65 1154.43 872.5 1185.77 872.5 1244.98C872.5 1304.2 864.65 1335.54 857.72 1363.2C851.7 1387.21 846.5 1407.95 846.5 1452.49C846.5 1497.03 851.7 1517.78 857.72 1541.79C864.65 1569.44 872.5 1600.79 872.5 1660Z" fill="#43C5F7"/>
<path d="M1032.5 1660H913.5C913.5 1615.46 908.3 1594.72 902.28 1570.7C895.35 1543.05 887.5 1511.71 887.5 1452.49C887.5 1393.28 895.35 1361.94 902.28 1334.28C908.3 1310.27 913.5 1289.52 913.5 1244.98C913.5 1200.45 908.3 1179.71 902.28 1155.69C895.35 1128.03 887.5 1096.69 887.5 1037.49C887.5 978.272 895.35 946.93 902.28 919.277C908.3 895.263 913.5 874.519 913.5 829.98C913.5 785.441 908.3 764.707 902.28 740.693C895.35 713.04 887.5 681.698 887.5 622.492C887.5 563.278 895.35 531.935 902.28 504.292C908.3 480.279 913.5 459.534 913.5 415.005C913.5 370.466 908.3 349.732 902.28 325.708C895.35 298.055 887.5 266.713 887.5 207.497C887.5 148.282 895.35 116.94 902.28 89.2974C908.3 65.2735 913.5 44.5387 913.5 0H1032.5C1032.5 59.215 1024.65 90.5571 1017.72 118.21C1011.7 142.224 1006.5 162.969 1006.5 207.497C1006.5 252.036 1011.7 272.771 1017.72 296.795C1024.65 324.448 1032.5 355.79 1032.5 415.005C1032.5 474.22 1024.65 505.562 1017.72 533.205C1011.7 557.219 1006.5 577.964 1006.5 622.492C1006.5 667.031 1011.7 687.766 1017.72 711.78C1024.65 739.433 1032.5 770.775 1032.5 829.98C1032.5 889.185 1024.65 920.537 1017.72 948.19C1011.7 972.204 1006.5 992.949 1006.5 1037.49C1006.5 1082.03 1011.7 1102.76 1017.72 1126.77C1024.65 1154.43 1032.5 1185.77 1032.5 1244.98C1032.5 1304.2 1024.65 1335.54 1017.72 1363.2C1011.7 1387.21 1006.5 1407.95 1006.5 1452.49C1006.5 1497.03 1011.7 1517.78 1017.72 1541.79C1024.65 1569.44 1032.5 1600.79 1032.5 1660Z" fill="#6AD0F7"/>
<path d="M1192.5 1660H1073.5C1073.5 1615.46 1068.3 1594.72 1062.28 1570.7C1055.35 1543.05 1047.5 1511.71 1047.5 1452.49C1047.5 1393.28 1055.35 1361.94 1062.28 1334.28C1068.3 1310.27 1073.5 1289.52 1073.5 1244.98C1073.5 1200.45 1068.3 1179.71 1062.28 1155.69C1055.35 1128.03 1047.5 1096.69 1047.5 1037.49C1047.5 978.272 1055.35 946.93 1062.28 919.277C1068.3 895.263 1073.5 874.519 1073.5 829.98C1073.5 785.441 1068.3 764.707 1062.28 740.693C1055.35 713.04 1047.5 681.698 1047.5 622.492C1047.5 563.278 1055.35 531.935 1062.28 504.292C1068.3 480.279 1073.5 459.534 1073.5 415.005C1073.5 370.466 1068.3 349.732 1062.28 325.708C1055.35 298.055 1047.5 266.713 1047.5 207.497C1047.5 148.282 1055.35 116.94 1062.28 89.2974C1068.3 65.2835 1073.5 44.5387 1073.5 0H1192.5C1192.5 59.215 1184.65 90.5571 1177.72 118.21C1171.7 142.224 1166.5 162.969 1166.5 207.497C1166.5 252.036 1171.7 272.771 1177.72 296.795C1184.65 324.448 1192.5 355.79 1192.5 415.005C1192.5 474.22 1184.65 505.562 1177.72 533.205C1171.7 557.219 1166.5 577.964 1166.5 622.492C1166.5 667.031 1171.7 687.766 1177.72 711.78C1184.65 739.433 1192.5 770.775 1192.5 829.98C1192.5 889.185 1184.65 920.537 1177.72 948.19C1171.7 972.204 1166.5 992.949 1166.5 1037.49C1166.5 1082.03 1171.7 1102.76 1177.72 1126.77C1184.65 1154.43 1192.5 1185.77 1192.5 1244.98C1192.5 1304.2 1184.65 1335.54 1177.72 1363.2C1171.7 1387.21 1166.5 1407.95 1166.5 1452.49C1166.5 1497.03 1171.7 1517.78 1177.72 1541.79C1184.65 1569.44 1192.5 1600.79 1192.5 1660Z" fill="#43C5F7"/>
<path d="M1352.5 1660H1233.5C1233.5 1615.46 1228.3 1594.72 1222.28 1570.7C1215.35 1543.05 1207.5 1511.71 1207.5 1452.49C1207.5 1393.28 1215.35 1361.94 1222.28 1334.28C1228.3 1310.27 1233.5 1289.52 1233.5 1244.98C1233.5 1200.45 1228.3 1179.71 1222.28 1155.69C1215.35 1128.03 1207.5 1096.69 1207.5 1037.49C1207.5 978.272 1215.35 946.93 1222.28 919.277C1228.3 895.263 1233.5 874.519 1233.5 829.98C1233.5 785.441 1228.3 764.707 1222.28 740.693C1215.35 713.04 1207.5 681.698 1207.5 622.492C1207.5 563.278 1215.35 531.935 1222.28 504.292C1228.3 480.279 1233.5 459.534 1233.5 415.005C1233.5 370.466 1228.3 349.732 1222.28 325.708C1215.35 298.055 1207.5 266.713 1207.5 207.497C1207.5 148.282 1215.35 116.94 1222.28 89.2974C1228.3 65.2835 1233.5 44.5387 1233.5 0H1352.5C1352.5 59.215 1344.65 90.5571 1337.72 118.21C1331.7 142.224 1326.5 162.969 1326.5 207.497C1326.5 252.036 1331.7 272.771 1337.72 296.795C1344.65 324.448 1352.5 355.79 1352.5 415.005C1352.5 474.22 1344.65 505.562 1337.72 533.205C1331.7 557.219 1326.5 577.964 1326.5 622.492C1326.5 667.031 1331.7 687.766 1337.72 711.78C1344.65 739.433 1352.5 770.775 1352.5 829.98C1352.5 889.185 1344.65 920.537 1337.72 948.19C1331.7 972.204 1326.5 992.949 1326.5 1037.49C1326.5 1082.03 1331.7 1102.76 1337.72 1126.77C1344.65 1154.43 1352.5 1185.77 1352.5 1244.98C1352.5 1304.2 1344.65 1335.54 1337.72 1363.2C1331.7 1387.21 1326.5 1407.95 1326.5 1452.49C1326.5 1497.03 1331.7 1517.78 1337.72 1541.79C1344.65 1569.44 1352.5 1600.79 1352.5 1660Z" fill="#6AD0F7"/>
<path d="M1512.5 1660H1393.5C1393.5 1615.46 1388.3 1594.72 1382.28 1570.7C1375.35 1543.05 1367.5 1511.71 1367.5 1452.49C1367.5 1393.28 1375.35 1361.94 1382.28 1334.28C1388.3 1310.27 1393.5 1289.52 1393.5 1244.98C1393.5 1200.45 1388.3 1179.71 1382.28 1155.69C1375.35 1128.03 1367.5 1096.69 1367.5 1037.49C1367.5 978.272 1375.35 946.93 1382.28 919.277C1388.3 895.263 1393.5 874.519 1393.5 829.98C1393.5 785.441 1388.3 764.707 1382.28 740.693C1375.35 713.04 1367.5 681.698 1367.5 622.492C1367.5 563.278 1375.35 531.935 1382.28 504.292C1388.3 480.279 1393.5 459.534 1393.5 415.005C1393.5 370.466 1388.3 349.732 1382.28 325.708C1375.35 298.055 1367.5 266.713 1367.5 207.497C1367.5 148.282 1375.35 116.94 1382.28 89.2974C1388.3 65.2835 1393.5 44.5387 1393.5 0H1512.5C1512.5 59.215 1504.65 90.5571 1497.72 118.21C1491.7 142.224 1486.5 162.969 1486.5 207.497C1486.5 252.036 1491.7 272.771 1497.72 296.795C1504.65 324.448 1512.5 355.79 1512.5 415.005C1512.5 474.22 1504.65 505.562 1497.72 533.205C1491.7 557.219 1486.5 577.964 1486.5 622.492C1486.5 667.031 1491.7 687.766 1497.72 711.78C1504.65 739.433 1512.5 770.775 1512.5 829.98C1512.5 889.185 1504.65 920.537 1497.72 948.19C1491.7 972.204 1486.5 992.949 1486.5 1037.49C1486.5 1082.03 1491.7 1102.76 1497.72 1126.77C1504.65 1154.43 1512.5 1185.77 1512.5 1244.98C1512.5 1304.2 1504.65 1335.54 1497.72 1363.2C1491.7 1387.21 1486.5 1407.95 1486.5 1452.49C1486.5 1497.03 1491.7 1517.78 1497.72 1541.79C1504.65 1569.44 1512.5 1600.79 1512.5 1660Z" fill="#43C5F7"/>
<path d="M1672.5 1660H1553.5C1553.5 1615.46 1548.3 1594.72 1542.28 1570.7C1535.35 1543.05 1527.5 1511.71 1527.5 1452.49C1527.5 1393.28 1535.35 1361.94 1542.28 1334.28C1548.3 1310.27 1553.5 1289.52 1553.5 1244.98C1553.5 1200.45 1548.3 1179.71 1542.28 1155.69C1535.35 1128.03 1527.5 1096.69 1527.5 1037.49C1527.5 978.272 1535.35 946.93 1542.28 919.277C1548.3 895.263 1553.5 874.519 1553.5 829.98C1553.5 785.441 1548.3 764.707 1542.28 740.693C1535.35 713.04 1527.5 681.698 1527.5 622.492C1527.5 563.278 1535.35 531.935 1542.28 504.292C1548.3 480.279 1553.5 459.534 1553.5 415.005C1553.5 370.466 1548.3 349.732 1542.28 325.708C1535.35 298.055 1527.5 266.713 1527.5 207.497C1527.5 148.282 1535.35 116.94 1542.28 89.2974C1548.3 65.2835 1553.5 44.5387 1553.5 0H1672.5C1672.5 59.215 1664.65 90.5571 1657.72 118.21C1651.7 142.224 1646.5 162.969 1646.5 207.497C1646.5 252.036 1651.7 272.771 1657.72 296.795C1664.65 324.448 1672.5 355.79 1672.5 415.005C1672.5 474.22 1664.65 505.562 1657.72 533.205C1651.7 557.219 1646.5 577.964 1646.5 622.492C1646.5 667.031 1651.7 687.766 1657.72 711.78C1664.65 739.433 1672.5 770.775 1672.5 829.98C1672.5 889.185 1664.65 920.537 1657.72 948.19C1651.7 972.204 1646.5 992.949 1646.5 1037.49C1646.5 1082.03 1651.7 1102.76 1657.72 1126.77C1664.65 1154.43 1672.5 1185.77 1672.5 1244.98C1672.5 1304.2 1664.65 1335.54 1657.72 1363.2C1651.7 1387.21 1646.5 1407.95 1646.5 1452.49C1646.5 1497.03 1651.7 1517.78 1657.72 1541.79C1664.65 1569.44 1672.5 1600.79 1672.5 1660Z" fill="#6AD0F7"/>
<path d="M1832.5 1660H1713.5C1713.5 1615.46 1708.3 1594.72 1702.28 1570.7C1695.35 1543.05 1687.5 1511.71 1687.5 1452.49C1687.5 1393.28 1695.35 1361.94 1702.28 1334.28C1708.3 1310.27 1713.5 1289.52 1713.5 1244.98C1713.5 1200.45 1708.3 1179.71 1702.28 1155.69C1695.35 1128.03 1687.5 1096.69 1687.5 1037.49C1687.5 978.272 1695.35 946.93 1702.28 919.277C1708.3 895.263 1713.5 874.519 1713.5 829.98C1713.5 785.441 1708.3 764.707 1702.28 740.693C1695.35 713.04 1687.5 681.698 1687.5 622.492C1687.5 563.278 1695.35 531.935 1702.28 504.292C1708.3 480.279 1713.5 459.534 1713.5 415.005C1713.5 370.466 1708.3 349.732 1702.28 325.708C1695.35 298.055 1687.5 266.713 1687.5 207.497C1687.5 148.282 1695.35 116.94 1702.28 89.2974C1708.3 65.2835 1713.5 44.5387 1713.5 0H1832.5C1832.5 59.215 1824.65 90.5571 1817.72 118.21C1811.7 142.224 1806.5 162.969 1806.5 207.497C1806.5 252.036 1811.7 272.771 1817.72 296.795C1824.65 324.448 1832.5 355.79 1832.5 415.005C1832.5 474.22 1824.65 505.562 1817.72 533.205C1811.7 557.219 1806.5 577.964 1806.5 622.492C1806.5 667.031 1811.7 687.766 1817.72 711.78C1824.65 739.433 1832.5 770.775 1832.5 829.98C1832.5 889.185 1824.65 920.537 1817.72 948.19C1811.7 972.204 1806.5 992.949 1806.5 1037.49C1806.5 1082.03 1811.7 1102.76 1817.72 1126.77C1824.65 1154.43 1832.5 1185.77 1832.5 1244.98C1832.5 1304.2 1824.65 1335.54 1817.72 1363.2C1811.7 1387.21 1806.5 1407.95 1806.5 1452.49C1806.5 1497.03 1811.7 1517.78 1817.72 1541.79C1824.65 1569.44 1832.5 1600.79 1832.5 1660Z" fill="#43C5F7"/>
<path d="M1992.5 1660H1873.5C1873.5 1615.46 1868.3 1594.72 1862.28 1570.7C1855.35 1543.05 1847.5 1511.71 1847.5 1452.49C1847.5 1393.28 1855.35 1361.94 1862.28 1334.28C1868.3 1310.27 1873.5 1289.52 1873.5 1244.98C1873.5 1200.45 1868.3 1179.71 1862.28 1155.69C1855.35 1128.03 1847.5 1096.69 1847.5 1037.49C1847.5 978.272 1855.35 946.93 1862.28 919.277C1868.3 895.263 1873.5 874.519 1873.5 829.98C1873.5 785.441 1868.3 764.707 1862.28 740.693C1855.35 713.04 1847.5 681.698 1847.5 622.492C1847.5 563.278 1855.35 531.935 1862.28 504.292C1868.3 480.279 1873.5 459.534 1873.5 415.005C1873.5 370.466 1868.3 349.732 1862.28 325.708C1855.35 298.055 1847.5 266.713 1847.5 207.497C1847.5 148.282 1855.35 116.94 1862.28 89.2974C1868.3 65.2835 1873.5 44.5387 1873.5 0H1992.5C1992.5 59.215 1984.65 90.5571 1977.72 118.21C1971.7 142.224 1966.5 162.969 1966.5 207.497C1966.5 252.036 1971.7 272.771 1977.72 296.795C1984.65 324.448 1992.5 355.79 1992.5 415.005C1992.5 474.22 1984.65 505.562 1977.72 533.205C1971.7 557.219 1966.5 577.964 1966.5 622.492C1966.5 667.031 1971.7 687.766 1977.72 711.78C1984.65 739.433 1992.5 770.775 1992.5 829.98C1992.5 889.185 1984.65 920.537 1977.72 948.19C1971.7 972.204 1966.5 992.949 1966.5 1037.49C1966.5 1082.03 1971.7 1102.76 1977.72 1126.77C1984.65 1154.43 1992.5 1185.77 1992.5 1244.98C1992.5 1304.2 1984.65 1335.54 1977.72 1363.2C1971.7 1387.21 1966.5 1407.95 1966.5 1452.49C1966.5 1497.03 1971.7 1517.78 1977.72 1541.79C1984.65 1569.44 1992.5 1600.79 1992.5 1660Z" fill="#6AD0F7"/>
</g>
<defs>
<clipPath id="clip0_1_2110">
<rect width="1920" height="1660" fill="white"/>
</clipPath>
</defs>
</svg>
