<svg width="241" height="110" viewBox="0 0 241 110" fill="none" xmlns="http://www.w3.org/2000/svg">
<path d="M6.33719 55.0051C6.33719 72.4297 20.3369 86.6049 37.5456 86.6049H141.159C141.29 86.6049 141.42 86.6048 141.55 86.5947C142.072 86.5744 142.583 86.5236 143.115 86.4322C143.696 86.3205 144.268 86.1682 144.83 85.9651C138.271 77.0396 134.691 66.1849 134.691 55.0051C134.691 43.8356 138.261 32.9706 144.82 24.0451C144.268 23.8522 143.696 23.6897 143.105 23.5882C142.593 23.4866 142.072 23.4358 141.56 23.4155C141.43 23.4054 141.29 23.4054 141.159 23.4054H37.5556C29.2521 23.4054 21.43 26.7055 15.5132 32.6863C9.59645 38.6772 6.33719 46.5975 6.33719 55.0051Z" fill="#B9DBF7"/>
<path d="M37.5454 31.5287C31.388 31.5287 25.5715 33.9758 21.1791 38.4335C16.7866 42.881 14.3597 48.7705 14.3597 55.0051C14.3597 67.9517 24.7592 78.4815 37.5454 78.4815H129.175C126.437 72.0438 124.371 64.154 124.371 55.0051C124.371 45.8867 126.467 37.9867 129.225 31.5287H37.5454ZM37.5454 20.3591H141.159C142.011 20.3591 149.663 20.3591 149.663 20.3591C149.663 20.3591 135.403 33.5798 135.403 55.0051C135.403 76.6741 149.663 89.6511 149.663 89.6511H37.5554C18.7321 89.6511 3.3385 74.0645 3.3385 55.0051C3.3385 45.4805 7.1894 36.8089 13.387 30.5336C19.5745 24.2583 28.1388 20.3591 37.5454 20.3591Z" fill="#99CFF7"/>
<path d="M37.5454 26.4516C30.0442 26.4516 22.9741 29.4268 17.629 34.8389C12.2838 40.2511 9.34551 47.4098 9.34551 55.0051C9.34551 70.7542 21.9914 83.5586 37.5454 83.5586H137.348C133.337 76.8467 129.386 67.1495 129.386 55.0051C129.386 42.9217 133.377 33.194 137.408 26.4516H37.5454ZM37.5454 20.3591H141.159C142.011 20.3591 149.663 20.3591 149.663 20.3591C149.663 20.3591 135.403 33.5798 135.403 55.0051C135.403 76.6741 149.663 89.6511 149.663 89.6511H37.5554C18.7321 89.6511 3.3385 74.0645 3.3385 55.0051C3.3385 45.4805 7.1894 36.8089 13.387 30.5336C19.5745 24.2583 28.1388 20.3591 37.5454 20.3591Z" fill="#48AFF7"/>
<path d="M48.7572 81.4871H51.7156C53.3803 81.4871 54.7241 80.1265 54.7241 78.4409C54.7241 76.7553 53.3803 75.3947 51.7156 75.3947H48.7572C47.0925 75.3947 45.7487 76.7553 45.7487 78.4409C45.7487 80.1265 47.1025 81.4871 48.7572 81.4871Z" fill="#D9EEFF"/>
<path d="M39.3606 80.9794C41.0253 80.9794 42.3691 79.6188 42.3691 77.9332C42.3691 76.2476 41.0253 74.8869 39.3606 74.8869C32.8221 74.8869 26.5944 71.993 22.2722 66.9566C21.1791 65.6873 19.2837 65.5553 18.0302 66.6519C16.7766 67.7587 16.6463 69.6779 17.7293 70.9471C23.1948 77.3239 31.0771 80.9794 39.3606 80.9794Z" fill="#D9EEFF"/>
<path d="M16.7165 53.3805C18.1406 53.3805 19.3941 52.365 19.6749 50.8927C21.129 43.0537 26.7149 39.2154 31.1474 37.3674C32.6818 36.7276 33.4138 34.9507 32.7921 33.3971C32.1603 31.8435 30.4053 31.0921 28.8609 31.7318C20.6477 35.1436 15.2925 41.5509 13.7682 49.7656C13.4573 51.4207 14.5404 53.0149 16.165 53.3195C16.3455 53.3703 16.526 53.3805 16.7165 53.3805Z" fill="#D9EEFF"/>
<path d="M11.261 28.3809C18.311 21.2425 27.6474 17.3129 37.5555 17.3129H155.018L151.468 20.8465C150.786 21.5471 150.124 22.2681 149.483 23.0195C146.143 26.9187 143.405 31.3561 141.41 36.1793C141.279 36.4839 141.159 36.7885 141.049 37.0931C140.898 37.4587 140.758 37.8242 140.628 38.2101C140.507 38.5147 140.407 38.8194 140.297 39.1341C139.885 40.3526 139.514 41.6016 139.193 42.8709C139.013 43.5817 138.853 44.2924 138.702 45.0032C138.632 45.3789 138.552 45.7547 138.491 46.1202C138.431 46.4451 138.371 46.7701 138.321 47.095C138.291 47.2575 138.271 47.4199 138.251 47.5722C138.191 47.9683 138.13 48.3643 138.08 48.7603C138.02 49.2071 137.97 49.6538 137.93 50.1006C137.89 50.4865 137.86 50.8622 137.83 51.248C137.8 51.5933 137.779 51.9284 137.759 52.2736C137.759 52.4259 137.749 52.5681 137.739 52.7305C137.709 53.4819 137.689 54.2435 137.689 55.0051C137.689 55.7667 137.709 56.5282 137.739 57.2796C137.749 57.4421 137.759 57.5944 137.759 57.7366C137.779 58.0818 137.8 58.4169 137.83 58.7621C137.86 59.148 137.89 59.5237 137.93 59.9095C137.97 60.3563 138.02 60.8031 138.08 61.2499C138.13 61.6459 138.191 62.0419 138.251 62.4379C138.271 62.5903 138.291 62.7527 138.321 62.9152C138.371 63.2401 138.431 63.565 138.491 63.89C138.552 64.2555 138.632 64.6312 138.702 65.0069C138.853 65.7177 139.013 66.4285 139.193 67.1393C139.514 68.4086 139.885 69.6575 140.297 70.876C140.407 71.1908 140.507 71.4954 140.628 71.8001C140.758 72.1859 140.898 72.5515 141.049 72.917C141.159 73.2216 141.279 73.5263 141.41 73.8309C143.786 79.5883 147.226 84.7771 151.458 89.1637L155.018 92.6973H37.5455C17.0173 92.6973 0.319994 75.7906 0.319994 55.0051C0.330022 44.9728 4.21102 35.5193 11.261 28.3809ZM37.5555 86.6048H141.159C141.289 86.6048 141.42 86.6048 141.55 86.5947C135.333 77.6488 131.682 66.7534 131.682 55.0051C131.682 43.2567 135.333 32.3613 141.55 23.4155C141.42 23.4053 141.289 23.4054 141.159 23.4054H37.5555C29.252 23.4054 21.4298 26.7054 15.5131 32.6862C9.60633 38.6772 6.34708 46.5974 6.34708 55.0051C6.34708 72.4296 20.3467 86.6048 37.5555 86.6048Z" fill="#C6E2F7"/>
<path opacity="0.3" d="M137.699 55.0051C137.699 81.9745 159.371 103.907 186.006 103.907C212.642 103.907 234.303 81.9745 234.303 55.0051C234.303 28.0356 212.642 6.09247 186.006 6.09247C159.371 6.09247 137.699 28.0356 137.699 55.0051Z" fill="#D2E6F7"/>
<path d="M186.006 14.2158C163.793 14.2158 145.722 32.5136 145.722 55.0051C145.722 77.4966 163.793 95.7943 186.006 95.7943C208.219 95.7943 226.29 77.4966 226.29 55.0051C226.28 32.5136 208.219 14.2158 186.006 14.2158ZM186.006 3.04626C214.346 3.04626 237.322 26.3095 237.322 55.0051C237.322 83.7007 214.346 106.964 186.006 106.964C157.666 106.964 134.691 83.7007 134.691 55.0051C134.691 26.3095 157.666 3.04626 186.006 3.04626Z" fill="#99CFF7"/>
<path d="M186.006 9.13876C161.035 9.13876 140.708 29.7111 140.708 55.0051C140.708 80.2991 161.025 100.871 186.006 100.871C210.987 100.871 231.304 80.2991 231.304 55.0051C231.304 29.7111 210.977 9.13876 186.006 9.13876ZM186.006 3.04626C214.346 3.04626 237.322 26.3095 237.322 55.0051C237.322 83.7007 214.346 106.964 186.006 106.964C157.666 106.964 134.691 83.7007 134.691 55.0051C134.691 26.3095 157.666 3.04626 186.006 3.04626Z" fill="#48AFF7"/>
<path d="M186.006 0C215.951 0 240.32 24.6746 240.32 55.0051C240.32 85.3355 215.951 110 186.006 110C156.051 110 131.682 85.3355 131.682 55.0051C131.682 24.6746 156.051 0 186.006 0ZM186.006 103.908C212.642 103.908 234.303 81.9745 234.303 55.0051C234.303 28.0356 212.642 6.09249 186.006 6.09249C159.371 6.09249 137.699 28.0356 137.699 55.0051C137.699 81.9745 159.371 103.908 186.006 103.908Z" fill="#C6E2F7"/>
<path d="M158.849 88.4428C159.671 88.4428 160.484 88.1077 161.085 87.4375C162.199 86.1886 162.108 84.2592 160.875 83.1321C153.033 75.9531 148.54 65.6975 148.54 54.995C148.54 53.3094 147.196 51.9487 145.531 51.9487C143.867 51.9487 142.523 53.3094 142.523 54.995C142.523 67.4135 147.738 79.3142 156.833 87.6507C157.405 88.1889 158.127 88.4428 158.849 88.4428Z" fill="#D9EEFF"/>
<path d="M222.75 40.84C223.171 40.84 223.603 40.7486 224.014 40.5557C225.518 39.8449 226.18 38.0375 225.478 36.5143C222.149 29.2338 216.904 22.9992 210.315 18.4907C208.941 17.5464 207.066 17.9119 206.133 19.3132C205.2 20.7043 205.562 22.6031 206.945 23.5475C212.622 27.4264 217.144 32.7979 220.012 39.0833C220.534 40.18 221.617 40.84 222.75 40.84Z" fill="#D9EEFF"/>
<path d="M200.959 19.3944C202.172 19.3944 203.325 18.643 203.777 17.4144C204.358 15.8405 203.566 14.0838 202.012 13.4949L200.828 13.0481C199.274 12.4591 197.539 13.2512 196.957 14.8352C196.376 16.4091 197.168 18.1658 198.722 18.7547L199.906 19.2015C200.257 19.3335 200.608 19.3944 200.959 19.3944Z" fill="#D9EEFF"/>
<path d="M181.814 30.097L176.669 40.6573C175.988 42.0484 174.674 43.0232 173.16 43.2466L161.647 44.9424C157.816 45.5008 156.292 50.2733 159.06 53.0048L167.383 61.2195C168.486 62.306 168.988 63.8697 168.727 65.403L166.761 77.0092C166.11 80.8677 170.111 83.8125 173.531 81.9949L183.82 76.5116C185.184 75.7907 186.808 75.7907 188.162 76.5116L198.451 81.9949C201.871 83.8125 205.872 80.8779 205.22 77.0092L203.255 65.403C202.994 63.8697 203.495 62.306 204.599 61.2195L212.922 53.0048C215.69 50.2733 214.166 45.511 210.335 44.9424L198.822 43.2466C197.298 43.0232 195.984 42.0586 195.312 40.6573L190.168 30.097C188.473 26.5836 183.529 26.5836 181.814 30.097Z" fill="#FFC900"/>
<path d="M161.647 44.9321L167.113 45.1251C158.237 48.7704 166.611 52.8016 169.77 56.5079C174.724 62.316 173.25 66.4183 172.929 69.3427C171.856 78.9587 180.701 69.3224 188.674 71.861C191.452 72.7444 197.589 77.07 200.487 77.9941C204.478 79.2633 204.368 75.8312 204.689 73.7699L205.241 77.0091C205.892 80.8677 201.891 83.8124 198.471 81.9948L188.182 76.5116C186.818 75.7906 185.194 75.7906 183.84 76.5116L173.551 81.9948C172.909 82.34 172.247 82.5127 171.595 82.5431C171.164 82.5634 170.733 82.5228 170.332 82.4213C168.898 82.076 167.674 81.0606 167.083 79.6695C166.832 79.0806 166.691 78.4205 166.711 77.7199C166.721 77.4864 166.742 77.2528 166.782 77.0091L167.283 74.0441L168.747 65.4029C168.807 65.0171 168.827 64.6312 168.797 64.2555C168.777 63.9712 168.727 63.697 168.647 63.4229C168.567 63.1487 168.487 62.8745 168.376 62.6207C168.296 62.4481 168.206 62.2856 168.105 62.1231C167.905 61.7982 167.674 61.4936 167.393 61.2296L161.838 55.7463L159.06 53.0047C158.889 52.8321 158.729 52.6595 158.588 52.4665C158.027 51.7253 157.726 50.8825 157.656 50.0295C157.636 49.8163 157.636 49.6031 157.646 49.3898C157.766 47.2778 159.26 45.2875 161.647 44.9321Z" fill="#E3A300"/>
<path d="M200.397 47.0849C197.619 46.8615 193.858 45.907 191.592 40.241C189.335 34.6156 184.562 39.3474 188.543 47.5316C189.987 50.5068 193.116 52.0096 195.724 52.3244C204.599 53.4007 206.785 47.6027 200.397 47.0849Z" fill="#FFE480"/>
<path d="M175.797 62.9762C176.178 68.4289 182.516 63.7885 180.29 55.8885C179.448 52.9032 176.73 50.7302 173.601 50.385C169.63 49.9585 169.64 52.822 171.164 54.3756C172.949 56.1729 175.416 57.5335 175.797 62.9762Z" fill="#FFE480"/>
<path d="M201.119 85.4574C202.523 85.4574 203.927 85.0107 205.12 84.1272C207.236 82.5737 208.279 79.9843 207.838 77.3646L205.812 65.3827C205.652 64.4587 205.953 63.5143 206.625 62.8644L215.219 54.3756C217.094 52.5275 217.756 49.8164 216.944 47.2981C216.131 44.7799 214.026 42.9725 211.438 42.5968L199.555 40.8502C198.642 40.7182 197.85 40.1293 197.439 39.2967L192.123 28.3911C190.97 26.015 188.624 24.5427 186.006 24.5427C183.389 24.5427 181.042 26.015 179.889 28.3911L174.574 39.2967C174.163 40.1394 173.37 40.7182 172.458 40.8502L160.574 42.5968C157.987 42.9826 155.871 44.7799 155.068 47.2981C154.256 49.8164 154.918 52.5275 156.793 54.3857L165.388 62.8746C166.05 63.5245 166.35 64.4688 166.2 65.3928L164.174 77.3747C163.733 79.9844 164.776 82.5737 166.892 84.1374C169.008 85.7012 171.766 85.8941 174.082 84.6654L184.712 79.0095C185.535 78.5729 186.508 78.5729 187.33 79.0095L197.96 84.6654C198.943 85.1934 200.036 85.4574 201.119 85.4574ZM186.006 28.6043C187.099 28.6043 188.042 29.1933 188.523 30.1884L193.838 41.0939C194.831 43.1349 196.757 44.5463 198.973 44.8713L210.857 46.6178C211.94 46.7803 212.792 47.5012 213.123 48.5572C213.464 49.6133 213.193 50.6998 212.411 51.4715L203.817 59.9604C202.212 61.5444 201.48 63.8392 201.851 66.0732L203.877 78.0551C204.057 79.1517 203.646 80.1874 202.754 80.8373C201.871 81.4872 200.758 81.5684 199.795 81.0505L189.165 75.3947C187.179 74.3386 184.803 74.3386 182.817 75.3947L172.187 81.0505C171.214 81.5684 170.111 81.4872 169.229 80.8373C168.346 80.1874 167.925 79.1415 168.105 78.0551L170.131 66.0732C170.512 63.8291 169.78 61.5444 168.166 59.9604L159.571 51.4715C158.789 50.6998 158.518 49.6031 158.859 48.5572C159.2 47.5012 160.043 46.7803 161.126 46.6178L173.009 44.8713C175.236 44.5463 177.151 43.1349 178.144 41.0939L183.459 30.1884C183.97 29.1933 184.913 28.6043 186.006 28.6043Z" fill="white"/>
</svg>
