<svg width="24" height="26" viewBox="0 0 24 26" fill="none" xmlns="http://www.w3.org/2000/svg">
<path d="M20.8201 9.48999C20.9101 9.18999 20.9701 8.88006 20.9701 8.56006C20.9701 6.67006 19.4401 5.14001 17.5501 5.14001C17.4501 5.14001 17.3501 5.16004 17.2501 5.17004C16.9101 4.19004 16.0501 3.45996 14.9901 3.32996C13.4701 1.51996 11.1901 0.369995 8.64014 0.369995C4.07014 0.369995 0.360107 4.08002 0.360107 8.65002C0.360107 11.56 1.86013 14.11 4.13013 15.59C3.68013 16.48 3.4201 17.48 3.4201 18.55C3.4201 22.18 6.36011 25.12 9.99011 25.12C13.1701 25.12 15.8301 22.85 16.4301 19.85C16.9401 20 17.4702 20.08 18.0302 20.08C21.1602 20.08 23.6901 17.55 23.6901 14.42C23.6801 12.3 22.5301 10.46 20.8201 9.48999Z" fill="#666666"/>
<path d="M4.63013 14.0601C1.74013 13.3101 -0.0198681 9.13002 1.01013 5.40002C0.590132 6.39002 0.350098 7.49001 0.350098 8.63C0.350098 11.51 1.89012 14.0899 4.12012 15.5699C4.13012 14.8599 4.63013 14.0601 4.63013 14.0601Z" fill="#4D4D4D"/>
<path d="M17.0602 16.96C16.4602 19.97 13.8002 22.23 10.6202 22.23C7.02018 22.23 4.26019 19.9999 4.13019 15.5699C3.73019 16.4199 3.42017 17.53 3.42017 18.53C3.42017 22.16 6.36017 25.1 9.99017 25.1C13.1702 25.1 15.8302 22.83 16.4302 19.83C16.9402 19.98 17.4702 20.0601 18.0302 20.0601C21.1602 20.0601 23.6902 17.53 23.6902 14.4C23.6902 14.32 23.6802 14.24 23.6802 14.16C23.4602 16.69 20.3502 18.64 17.0602 16.96Z" fill="#4D4D4D"/>
<path d="M21.6702 8.55002C21.8602 6.70002 20.5102 5.05996 18.6602 4.86996C18.2402 4.82996 17.8302 4.85995 17.4402 4.97995C17.3802 4.49995 17.1902 4.05001 16.8602 3.67001C15.9502 2.61001 14.3502 2.48998 13.2902 3.38998C12.8402 3.77998 12.5602 4.28992 12.4502 4.81992C12.5802 4.62992 12.7402 4.44 12.9302 4.28C13.9902 3.37 15.5902 3.50003 16.5002 4.56003C16.6702 4.75003 16.7902 4.97002 16.8902 5.18002C16.9102 5.23002 16.9302 5.27992 16.9502 5.31992C17.1202 5.30992 17.2902 5.30993 17.4702 5.32993H17.4802C19.3302 5.50993 20.6802 7.15997 20.5002 8.99997C20.3902 10.07 19.7902 10.97 18.9502 11.51C20.3702 11.25 21.5202 10.07 21.6702 8.55002Z" fill="#4D4D4D"/>
<path d="M16.2401 13.83C16.1601 14.12 16.0501 14.41 15.8701 14.67C14.9801 16 13.1901 16.36 11.8601 15.47C11.0901 14.95 10.6602 14.13 10.5902 13.27C10.2702 14.44 10.7002 15.7299 11.7602 16.4399C13.0902 17.3299 14.8802 16.97 15.7702 15.64C16.1502 15.09 16.2901 14.45 16.2401 13.83Z" fill="#4D4D4D"/>
</svg>
