<svg width="198" height="198" viewBox="0 0 198 198" fill="none" xmlns="http://www.w3.org/2000/svg">
<path opacity="0.5" d="M98.78 194.56C151.678 194.56 194.56 151.678 194.56 98.78C194.56 45.8822 151.678 3 98.78 3C45.8822 3 3 45.8822 3 98.78C3 151.678 45.8822 194.56 98.78 194.56Z" fill="#D2E6F7"/>
<path d="M98.78 14C145.53 14 183.56 52.03 183.56 98.78C183.56 145.53 145.53 183.56 98.78 183.56C52.03 183.56 14 145.53 14 98.78C14 52.03 52.03 14 98.78 14ZM98.78 3C45.88 3 3 45.88 3 98.78C3 151.68 45.88 194.56 98.78 194.56C151.68 194.56 194.56 151.68 194.56 98.78C194.56 45.88 151.67 3 98.78 3Z" fill="#99CFF7"/>
<path d="M98.78 9C148.28 9 188.56 49.27 188.56 98.78C188.56 148.28 148.29 188.56 98.78 188.56C49.27 188.56 9 148.29 9 98.78C9 49.28 49.28 9 98.78 9ZM98.78 3C45.88 3 3 45.88 3 98.78C3 151.68 45.88 194.56 98.78 194.56C151.68 194.56 194.56 151.68 194.56 98.78C194.56 45.88 151.67 3 98.78 3Z" fill="#48AFF7"/>
<path d="M98.78 197.56C44.31 197.56 0 153.25 0 98.78C0 44.31 44.31 0 98.78 0C153.25 0 197.56 44.31 197.56 98.78C197.56 153.24 153.24 197.56 98.78 197.56ZM98.78 6C47.62 6 6 47.62 6 98.78C6 149.94 47.62 191.56 98.78 191.56C149.94 191.56 191.56 149.94 191.56 98.78C191.56 47.62 149.94 6 98.78 6Z" fill="#C6E2F7"/>
<path d="M59.2602 30.9601C57.8502 30.9601 56.4902 30.2101 55.7602 28.8901C54.7002 26.9601 55.4002 24.5301 57.3302 23.4701C58.5602 22.7901 59.8102 22.1401 61.0602 21.5301C63.0402 20.5601 65.4302 21.38 66.4002 23.36C67.3702 25.34 66.5502 27.7301 64.5702 28.7001C63.4302 29.2601 62.2902 29.8501 61.1802 30.4601C60.5702 30.8001 59.9102 30.9601 59.2602 30.9601Z" fill="#D9EEFF"/>
<path d="M18.6701 85.2701C18.3901 85.2701 18.1001 85.2401 17.8201 85.1801C15.6701 84.7101 14.3001 82.5801 14.7701 80.4301C18.6001 62.8801 27.7001 47.1901 41.1001 35.0701C42.7301 33.5901 45.2601 33.7201 46.7401 35.3501C48.2201 36.9801 48.0901 39.5101 46.4601 40.9901C34.3101 51.9901 26.0501 66.2201 22.5801 82.1401C22.1601 83.9901 20.5001 85.2701 18.6701 85.2701Z" fill="#D9EEFF"/>
<path d="M98.8 184.85C96.6 184.85 94.8101 183.06 94.8101 180.86C94.8101 178.66 96.6 176.87 98.8 176.87C107.42 176.87 115.89 175.47 123.97 172.72C126.05 172.01 128.32 173.12 129.03 175.21C129.74 177.3 128.63 179.56 126.54 180.27C117.63 183.31 108.29 184.85 98.8 184.85Z" fill="#D9EEFF"/>
<path d="M157.32 160.29C156.31 160.29 155.3 159.91 154.52 159.15C152.95 157.61 152.92 155.08 154.47 153.51C167.4 140.34 175.27 122.98 176.61 104.63C176.77 102.43 178.69 100.79 180.88 100.94C183.08 101.1 184.73 103.01 184.57 105.21C183.09 125.44 174.42 144.58 160.16 159.1C159.38 159.89 158.35 160.29 157.32 160.29Z" fill="#D9EEFF"/>
<path d="M180.03 91.4602C178.07 91.4602 176.36 90.0102 176.08 88.0202C175.94 87.0202 175.78 86.0301 175.61 85.0401C175.22 82.8701 176.67 80.8002 178.84 80.4102C181.01 80.0302 183.08 81.4702 183.47 83.6402C183.66 84.7302 183.84 85.8201 183.99 86.9301C184.29 89.1101 182.77 91.1301 180.59 91.4301C180.39 91.4501 180.21 91.4602 180.03 91.4602Z" fill="#D9EEFF"/>
</svg>
