<svg width="123" height="93" viewBox="0 0 123 93" fill="none" xmlns="http://www.w3.org/2000/svg">
<path d="M39.1545 29.0565L37.5926 30.9841L27.2356 22.5857L18.6823 15.6563L19.7918 23.1063L22.2648 39.7419L19.8104 40.1076L17.3064 23.2799L15.292 9.71235L30.8677 22.3378L39.1545 29.0565Z" fill="black"/>
<path d="M39.1545 63.1643L30.8615 69.8892H30.8553L15.292 82.5085L17.3064 68.9533L19.8104 52.1194L22.2648 52.4789L19.7918 69.1269L18.6823 76.5707L27.2294 69.6413L37.5926 61.2368L39.1545 63.1643Z" fill="black"/>
<path d="M105.505 48.9894L102.077 64.8192L98.8107 79.9301L97.0008 79.5334L95.1167 79.9053L92.4204 66.2262L89.0239 48.9646L91.4598 48.4874L94.8811 65.8667L96.9946 76.6017L99.4615 65.2035L103.081 48.4626L105.505 48.9894Z" fill="black"/>
<path d="M105.505 43.2376L103.081 43.7644L99.4615 27.0235L96.9946 15.6191L94.8811 26.3603L91.4598 43.7397L89.0239 43.2624L92.4204 26.0008L95.1167 12.3217L97.0008 12.6874L98.8107 12.2969L102.077 27.4078L105.505 43.2376Z" fill="black"/>
<path d="M122.426 37.3371V54.8899C122.426 58.4972 120.008 61.6768 116.544 62.6375C116.209 62.7367 115.862 62.8111 115.533 62.8606L102.077 64.8192L99.4618 65.2035L94.8815 65.8667L92.4208 66.2262L57.6807 71.2838C56.9866 71.3892 56.2614 71.4573 55.5176 71.4821C55.2697 71.4945 55.0217 71.5007 54.7738 71.5007C54.309 71.5007 53.838 71.4821 53.3545 71.4511L30.8618 69.8892H30.8556L27.2297 69.6413L19.792 69.1269L17.3066 68.9533L12.9246 68.6496C12.9246 68.6496 12.8998 68.6496 12.8936 68.6496C9.66443 68.4203 7.11079 65.7799 6.96204 62.5693H2.91477C1.545 62.5693 0.435547 61.4599 0.435547 60.0901V54.673C0.435547 53.3032 1.545 52.1938 2.91477 52.1938H6.95591V29.949C6.95591 26.6082 9.56526 23.8129 12.8936 23.5836L17.3066 23.2799L19.792 23.1063L27.2359 22.5857L30.868 22.3378L53.3545 20.7759C53.8318 20.7387 54.309 20.7263 54.7738 20.7263C55.0217 20.7263 55.2697 20.7263 55.5176 20.7387C56.2614 20.7697 56.968 20.8316 57.6683 20.937L92.4208 26.0008L94.8815 26.3603L99.4618 27.0235L102.077 27.4078L115.533 29.3664C115.552 29.3664 115.564 29.3726 115.577 29.3726C115.837 29.416 116.178 29.4779 116.544 29.5895C120.008 30.5502 122.426 33.7298 122.426 37.3371Z" fill="#10647A"/>
<path d="M6.94971 52.1938V62.5693H2.91477C1.545 62.5693 0.435547 61.4599 0.435547 60.0901V54.673C0.435547 53.3033 1.545 52.1938 2.91477 52.1938H6.94971Z" fill="#3D3D3D"/>
<path d="M10.2158 54.673H2.91455V60.0901H10.2158V54.673Z" fill="#737373"/>
<path d="M119.946 37.3309V54.8838C119.946 57.425 118.242 59.6067 115.849 60.2513C115.632 60.3194 115.409 60.369 115.18 60.4L57.315 68.8294C56.689 68.9223 56.0568 68.9781 55.4246 69.0029C54.7924 69.0277 54.1601 69.0153 53.5279 68.9719L13.0671 66.1704C11.0218 66.0278 9.43506 64.3234 9.43506 62.2718V29.9428C9.43506 27.8912 11.0218 26.193 13.0671 26.0504L53.5279 23.2427C54.1601 23.1993 54.7924 23.1869 55.4246 23.2117C56.0568 23.2365 56.6828 23.2923 57.315 23.3852L115.18 31.8146C115.409 31.8518 115.632 31.8952 115.849 31.9634C118.242 32.6141 119.946 34.7897 119.946 37.3309Z" fill="#6BD9F2"/>
<path d="M16.0609 25.8521L15.249 25.9079C15.5031 25.8893 15.7696 25.8707 16.0609 25.8521Z" fill="#FF0000"/>
<path d="M119.952 53.3032L55.4307 59.5013V32.7195L119.952 38.9176V53.3032Z" fill="#4E9EB0"/>
<path d="M16.0609 25.8521L15.249 25.9079C15.5031 25.8893 15.7696 25.8707 16.0609 25.8521Z" fill="#FF0000"/>
<path d="M69.2836 67.0877C64.7343 66.2262 61.4369 62.2532 61.4369 57.6233V46.2685V45.9586V34.6037C61.4369 29.9738 64.7343 25.9946 69.2836 25.1393L57.3214 23.3976C56.6892 23.3047 56.0632 23.2489 55.431 23.2241C54.7988 23.1993 54.1666 23.2117 53.5344 23.2551L19.0918 25.6475C18.9493 25.6599 18.8067 25.6661 18.6703 25.6785C18.3914 25.6971 18.1187 25.7157 17.8584 25.7343C17.7221 25.7405 17.5919 25.7529 17.4679 25.7591C17.1332 25.7839 16.8109 25.8087 16.501 25.8273C16.3522 25.8397 16.2035 25.8459 16.061 25.8583L15.2491 25.914C15.1251 25.9202 15.0073 25.9326 14.8895 25.9388C14.6602 25.9512 14.4494 25.9698 14.2573 25.9822C13.4949 26.0318 13.0735 26.0628 13.0735 26.0628C11.0282 26.2054 9.44141 27.9036 9.44141 29.9552V62.2842C9.44141 64.3358 11.0282 66.0402 13.0735 66.1828C13.0735 66.1828 13.4949 66.2138 14.2573 66.2634C14.4494 66.2758 14.6602 66.2944 14.8895 66.3067C15.0073 66.3129 15.1251 66.3253 15.2491 66.3315C15.5032 66.3501 15.7697 66.3687 16.061 66.3873C16.2035 66.3997 16.3522 66.4059 16.501 66.4183C16.8109 66.4369 17.1332 66.4617 17.4679 66.4865C17.5919 66.4927 17.7221 66.5051 17.8584 66.5113C18.1187 66.5299 18.3914 66.5485 18.6703 66.5671C18.8067 66.5795 18.9493 66.5857 19.0918 66.5981C19.4761 66.6229 19.8728 66.6476 20.2819 66.6786C20.4864 66.691 20.6971 66.7034 20.9078 66.722C21.7383 66.7778 22.6123 66.8398 23.5234 66.9018L53.5344 68.9843C54.1666 69.0277 54.7988 69.0401 55.431 69.0153C56.0632 68.9905 56.6954 68.9347 57.3214 68.8418L59.5713 68.5133L69.2836 67.0877Z" fill="#4E9EB0"/>
<path d="M55.0529 26.6082H45.2475L20.2632 28.5482L15.2861 29.2548C13.6499 29.4903 12.4351 30.8849 12.4351 32.5398V46.1073V59.6748C12.4351 61.3235 13.6499 62.7243 15.2861 62.9598L20.2632 63.6664L45.2475 65.6064L55.0529 65.9163C57.7986 66.0031 60.2344 64.7882 60.2344 61.119V31.0088C60.2344 28.666 58.5362 26.6082 55.0529 26.6082Z" fill="#3E7E8C"/>
<path d="M19.3209 60.4744C19.73 60.1149 19.9717 59.5757 19.9717 58.9993V46.1073V33.2154C19.9717 32.6452 19.73 32.0997 19.3209 31.7402L18.0813 30.6556L14.2881 27.3334C12.4473 25.7219 9.46605 26.9491 9.43506 29.3974C9.43506 29.416 9.43506 29.4346 9.43506 29.4531V32.1307V46.1073V60.0839V62.7615C9.43506 62.7801 9.43506 62.7987 9.43506 62.8173C9.46605 65.2655 12.4473 66.4927 14.2881 64.8812C16.3583 63.0714 18.0813 61.559 18.0813 61.559L19.3209 60.4744Z" fill="#6BD9F2"/>
<path d="M16.3147 31.1142C15.199 30.1349 13.5317 30.9965 13.5317 32.546V46.1135V59.681C13.5317 61.2306 15.199 62.0859 16.3147 61.1128L17.517 60.0591C17.9137 59.712 18.1493 59.1852 18.1493 58.6274V46.1135V33.5996C18.1493 33.0418 17.9199 32.5212 17.517 32.1679L16.3147 31.1142Z" fill="#4E9EB0"/>
<path d="M45.5574 63.7284L37.4875 60.307C35.2562 59.3587 32.8515 58.8691 30.428 58.8691H28.4074C25.3146 58.8691 22.3147 59.9352 19.9161 61.8814C19.4574 62.2532 19.6868 62.9908 20.2756 63.0404L45.2599 64.9804C45.9851 65.0362 46.233 64.0135 45.5574 63.7284Z" fill="#78A4BF"/>
<path d="M45.5574 28.511L37.4875 31.9324C35.2562 32.8807 32.8515 33.3703 30.428 33.3703H28.4074C25.3146 33.3703 22.3147 32.3042 19.9161 30.3581C19.4574 29.9862 19.6868 29.2486 20.2756 29.199L45.2599 27.259C45.9851 27.2032 46.233 28.2197 45.5574 28.511Z" fill="#9AC0D9"/>
<path d="M119.946 37.3309V38.6387C117.523 37.8639 115.775 35.5954 115.775 32.9179C115.775 32.5956 115.8 32.2733 115.849 31.9633C118.242 32.6141 119.946 34.7897 119.946 37.3309Z" fill="#F15A24"/>
<path d="M119.946 53.5822V54.8838C119.946 57.425 118.242 59.6067 115.849 60.2513C115.8 59.9414 115.775 59.6191 115.775 59.2968C115.775 56.6254 117.523 54.3569 119.946 53.5822Z" fill="#F15A24"/>
<path d="M9.43528 50.0369H6.95605V62.5507H9.43528V50.0369Z" fill="#10647A"/>
<path d="M44.9932 31.6286C43.14 32.4406 41.9375 34.2752 41.9375 36.2958V46.2623V56.2287C41.9375 58.2555 43.1338 60.0839 44.9932 60.8958L54.6931 65.1353C57.3086 66.2758 60.2342 64.3606 60.2342 61.5095V46.2561V31.0027C60.2342 28.1516 57.3086 26.2364 54.6931 27.3768L44.9932 31.6286Z" fill="#9AC0D9"/>
<path d="M57.1537 27.1475V40.9009V56.1543C57.1537 59.0054 54.2282 60.9207 51.6127 59.7802L41.9375 55.5469V56.2287C41.9375 58.2555 43.1338 60.0839 44.9932 60.8959L54.6931 65.1353C57.3086 66.2758 60.2342 64.3606 60.2342 61.5095V46.2561V31.0027C60.2342 29.0565 58.8582 27.5441 57.1537 27.1475Z" fill="#78A4BF"/>
<path d="M45.3093 65.6002C45.2721 65.6002 45.2411 65.6002 45.2039 65.594L20.2195 63.654C19.6989 63.6106 19.2589 63.2635 19.1039 62.7615C18.949 62.2594 19.1101 61.7264 19.5191 61.3979C22.0232 59.3649 25.178 58.2493 28.401 58.2493H30.4216C32.9442 58.2493 35.4047 58.7513 37.7228 59.7368L45.7927 63.1582C46.3815 63.4061 46.6852 64.0135 46.5303 64.6333C46.3939 65.2159 45.8981 65.6002 45.3093 65.6002ZM28.401 59.4889C25.4569 59.4889 22.581 60.5116 20.3001 62.3648L45.3031 64.3606L45.3402 64.311L45.3216 64.3048L37.2518 60.8835C35.0825 59.9662 32.7892 59.4951 30.434 59.4951H28.401V59.4889Z" fill="#10647A"/>
<path d="M30.4216 33.9901H28.401C25.178 33.9901 22.0232 32.8683 19.5191 30.8415C19.1101 30.513 18.949 29.9738 19.1039 29.4779C19.2589 28.9759 19.6989 28.6288 20.2195 28.5854L45.2039 26.6454C45.8361 26.5896 46.3877 26.9925 46.5365 27.6123C46.6853 28.2321 46.3815 28.8395 45.7989 29.0875L37.729 32.5088C35.4047 33.4881 32.9442 33.9901 30.4216 33.9901ZM45.334 27.9284L20.3125 29.8188C22.581 31.7278 25.4569 32.7505 28.3948 32.7505H30.4154C32.7706 32.7505 35.0701 32.2856 37.2332 31.3621L45.3031 27.9408C45.3279 27.9346 45.334 27.9284 45.334 27.9284Z" fill="#10647A"/>
<path d="M56.2795 66.096C55.6597 66.096 55.0337 65.9659 54.4449 65.7117L44.7449 61.4723C42.6624 60.5612 41.3174 58.5034 41.3174 56.2349V36.2958C41.3174 34.0211 42.6624 31.9696 44.7449 31.0584L54.4449 26.819C55.8642 26.1992 57.4881 26.3355 58.7835 27.1847C60.0789 28.0338 60.8537 29.4655 60.8537 31.015V61.5219C60.8537 63.0714 60.0789 64.5031 58.7835 65.3522C58.0274 65.8419 57.1534 66.096 56.2795 66.096ZM56.2795 27.6743C55.827 27.6743 55.3684 27.7673 54.9407 27.9532L45.2407 32.1927C43.6106 32.9054 42.557 34.5169 42.557 36.2958V56.2349C42.557 58.0138 43.6106 59.6252 45.2407 60.338L54.9407 64.5775C55.9758 65.0299 57.1596 64.9308 58.1017 64.311C59.05 63.6912 59.614 62.6499 59.614 61.5157V31.0088C59.614 29.8808 59.05 28.8333 58.1017 28.2135C57.5501 27.854 56.9179 27.6743 56.2795 27.6743Z" fill="#10647A"/>
<path d="M9.13189 19.685H4.80566V0H9.13189L12.5037 2.52881V17.1562L9.13189 19.685Z" fill="black"/>
<path d="M16.8358 19.685H12.5034V0H16.8358L20.2076 2.52881V17.1562L16.8358 19.685Z" fill="black"/>
<path d="M24.5404 19.685H20.208V0H24.5404L27.9121 2.52881V17.1562L24.5404 19.685Z" fill="black"/>
<path d="M9.1381 0H4.80566V19.685H9.1381V0Z" fill="black"/>
<path d="M33.2921 0H27.9121V19.685H33.2921V0Z" fill="black"/>
<path d="M87.5556 22.5857H83.2231V2.89449H87.5556L90.9274 5.4233V20.0569L87.5556 22.5857Z" fill="black"/>
<path d="M95.2597 22.5857H90.9272V2.89449H95.2597L98.6314 5.4233V20.0569L95.2597 22.5857Z" fill="black"/>
<path d="M102.958 22.5857H98.6313V2.89449H102.958L106.329 5.4233V20.0569L102.958 22.5857Z" fill="black"/>
<path d="M87.5556 2.89449H83.2231V22.5795H87.5556V2.89449Z" fill="black"/>
<path d="M111.709 2.89449H106.329V22.5795H111.709V2.89449Z" fill="black"/>
<path d="M87.5556 89.3263H83.2231V69.6413H87.5556L90.9274 72.1701V86.7975L87.5556 89.3263Z" fill="black"/>
<path d="M95.2597 89.3263H90.9272V69.6413H95.2597L98.6314 72.1701V86.7975L95.2597 89.3263Z" fill="black"/>
<path d="M102.958 89.3263H98.6313V69.6413H102.958L106.329 72.1701V86.7975L102.958 89.3263Z" fill="black"/>
<path d="M87.5556 69.6413H83.2231V89.3263H87.5556V69.6413Z" fill="black"/>
<path d="M111.709 69.6413H106.329V89.3263H111.709V69.6413Z" fill="black"/>
<path d="M9.13189 92.2208H4.80566V72.5358H9.13189L12.5037 75.0646V89.692L9.13189 92.2208Z" fill="black"/>
<path d="M16.8358 92.2208H12.5034V72.5358H16.8358L20.2076 75.0646V89.692L16.8358 92.2208Z" fill="black"/>
<path d="M24.5404 92.2208H20.208V72.5358H24.5404L27.9121 75.0646V89.692L24.5404 92.2208Z" fill="black"/>
<path d="M9.1381 72.5358H4.80566V92.2208H9.1381V72.5358Z" fill="black"/>
<path d="M33.2921 72.5358H27.9121V92.2208H33.2921V72.5358Z" fill="black"/>
</svg>
