<svg width="123" height="93" viewBox="0 0 123 93" fill="none" xmlns="http://www.w3.org/2000/svg">
<path d="M39.6418 29.0565L38.0799 30.9841L27.723 22.5857L19.1697 15.6563L20.2791 23.1063L22.7521 39.7419L20.2977 40.1076L17.7937 23.2799L15.7793 9.71235L31.355 22.3378L39.6418 29.0565Z" fill="black"/>
<path d="M39.6418 63.1643L31.3488 69.8892H31.3426L15.7793 82.5085L17.7937 68.9533L20.2977 52.1194L22.7521 52.4789L20.2791 69.1269L19.1697 76.5707L27.7168 69.6413L38.0799 61.2368L39.6418 63.1643Z" fill="black"/>
<path d="M105.992 48.9894L102.565 64.8192L99.2984 79.9301L97.4886 79.5334L95.6044 79.9053L92.9082 66.2262L89.5117 48.9646L91.9475 48.4874L95.3688 65.8667L97.4824 76.6017L99.9492 65.2035L103.569 48.4626L105.992 48.9894Z" fill="black"/>
<path d="M105.992 43.2376L103.569 43.7644L99.9492 27.0235L97.4824 15.6191L95.3688 26.3603L91.9475 43.7397L89.5117 43.2624L92.9082 26.0008L95.6044 12.3217L97.4886 12.6874L99.2984 12.2969L102.565 27.4078L105.992 43.2376Z" fill="black"/>
<path d="M122.913 37.3371V54.8899C122.913 58.4972 120.496 61.6768 117.031 62.6375C116.696 62.7367 116.349 62.8111 116.021 62.8606L102.565 64.8192L99.9491 65.2035L95.3688 65.8667L92.9082 66.2262L58.168 71.2838C57.4739 71.3892 56.7487 71.4573 56.0049 71.4821C55.757 71.4945 55.5091 71.5007 55.2612 71.5007C54.7963 71.5007 54.3253 71.4821 53.8418 71.4511L31.3491 69.8892H31.3429L27.717 69.6413L20.2794 69.1269L17.7939 68.9533L13.4119 68.6496C13.4119 68.6496 13.3871 68.6496 13.3809 68.6496C10.1517 68.4203 7.59817 65.7799 7.44942 62.5693H3.40207C2.0323 62.5693 0.922852 61.4599 0.922852 60.0901V54.673C0.922852 53.3032 2.0323 52.1938 3.40207 52.1938H7.44321V29.949C7.44321 26.6082 10.0526 23.8129 13.3809 23.5836L17.7939 23.2799L20.2794 23.1063L27.7232 22.5857L31.3553 22.3378L53.8418 20.7759C54.3191 20.7387 54.7963 20.7263 55.2612 20.7263C55.5091 20.7263 55.757 20.7263 56.0049 20.7387C56.7487 20.7697 57.4553 20.8316 58.1556 20.937L92.9082 26.0008L95.3688 26.3603L99.9491 27.0235L102.565 27.4078L116.021 29.3664C116.039 29.3664 116.052 29.3726 116.064 29.3726C116.324 29.416 116.665 29.4779 117.031 29.5895C120.496 30.5502 122.913 33.7298 122.913 37.3371Z" fill="#10647A"/>
<path d="M7.43701 52.1938V62.5693H3.40207C2.0323 62.5693 0.922852 61.4599 0.922852 60.0901V54.673C0.922852 53.3033 2.0323 52.1938 3.40207 52.1938H7.43701Z" fill="#3D3D3D"/>
<path d="M10.6973 54.673H3.396V60.0901H10.6973V54.673Z" fill="#737373"/>
<path d="M120.427 37.3309V54.8838C120.427 57.425 118.723 59.6067 116.33 60.2513C116.113 60.3194 115.89 60.369 115.661 60.4L57.796 68.8294C57.17 68.9223 56.5377 68.9781 55.9055 69.0029C55.2733 69.0277 54.6412 69.0153 54.009 68.9719L13.5481 66.1704C11.5027 66.0278 9.91602 64.3234 9.91602 62.2718V29.9428C9.91602 27.8912 11.5027 26.193 13.5481 26.0504L54.009 23.2427C54.6412 23.1993 55.2733 23.1869 55.9055 23.2117C56.5377 23.2365 57.1638 23.2923 57.796 23.3852L115.661 31.8146C115.89 31.8518 116.113 31.8952 116.33 31.9634C118.723 32.6141 120.427 34.7897 120.427 37.3309Z" fill="#6BD9F2"/>
<path d="M16.5419 25.8521L15.73 25.9079C15.9841 25.8893 16.2506 25.8707 16.5419 25.8521Z" fill="#FF0000"/>
<path d="M120.433 53.3032L55.9116 59.5013V32.7195L120.433 38.9176V53.3032Z" fill="#4E9EB0"/>
<path d="M16.5419 25.8521L15.73 25.9079C15.9841 25.8893 16.2506 25.8707 16.5419 25.8521Z" fill="#FF0000"/>
<path d="M69.7645 67.0877C65.2151 66.2262 61.9178 62.2532 61.9178 57.6233V46.2685V45.9586V34.6037C61.9178 29.9738 65.2151 25.9946 69.7645 25.1393L57.8023 23.3976C57.1701 23.3047 56.5441 23.2489 55.9119 23.2241C55.2797 23.1993 54.6475 23.2117 54.0153 23.2551L19.5727 25.6475C19.4301 25.6599 19.2876 25.6661 19.1513 25.6785C18.8724 25.6971 18.5996 25.7157 18.3393 25.7343C18.2029 25.7405 18.0728 25.7529 17.9488 25.7591C17.6141 25.7839 17.2919 25.8087 16.982 25.8273C16.8332 25.8397 16.6844 25.8459 16.5418 25.8583L15.7299 25.914C15.606 25.9202 15.4882 25.9326 15.3705 25.9388C15.1411 25.9512 14.9304 25.9698 14.7383 25.9822C13.9759 26.0318 13.5544 26.0628 13.5544 26.0628C11.5091 26.2054 9.92236 27.9036 9.92236 29.9552V62.2842C9.92236 64.3358 11.5091 66.0402 13.5544 66.1828C13.5544 66.1828 13.9759 66.2138 14.7383 66.2634C14.9304 66.2758 15.1411 66.2944 15.3705 66.3067C15.4882 66.3129 15.606 66.3253 15.7299 66.3315C15.9841 66.3501 16.2505 66.3687 16.5418 66.3873C16.6844 66.3997 16.8332 66.4059 16.982 66.4183C17.2919 66.4369 17.6141 66.4617 17.9488 66.4865C18.0728 66.4927 18.2029 66.5051 18.3393 66.5113C18.5996 66.5299 18.8724 66.5485 19.1513 66.5671C19.2876 66.5795 19.4301 66.5857 19.5727 66.5981C19.957 66.6229 20.3537 66.6476 20.7627 66.6786C20.9673 66.691 21.178 66.7034 21.3888 66.722C22.2193 66.7778 23.0932 66.8398 24.0043 66.9018L54.0153 68.9843C54.6475 69.0277 55.2797 69.0401 55.9119 69.0153C56.5441 68.9905 57.1763 68.9347 57.8023 68.8418L60.0522 68.5133L69.7645 67.0877Z" fill="#4E9EB0"/>
<path d="M55.5338 26.6082H45.7285L20.7442 28.5482L15.7671 29.2548C14.1308 29.4903 12.916 30.8849 12.916 32.5398V46.1073V59.6748C12.916 61.3235 14.1308 62.7243 15.7671 62.9598L20.7442 63.6664L45.7285 65.6064L55.5338 65.9163C58.2796 66.0031 60.7154 64.7882 60.7154 61.119V31.0088C60.7154 28.666 59.0171 26.6082 55.5338 26.6082Z" fill="#3E7E8C"/>
<path d="M19.8019 60.4744C20.2109 60.1149 20.4527 59.5757 20.4527 58.9993V46.1073V33.2154C20.4527 32.6452 20.2109 32.0997 19.8019 31.7402L18.5623 30.6556L14.7691 27.3334C12.9282 25.7219 9.94701 26.9491 9.91602 29.3974C9.91602 29.416 9.91602 29.4346 9.91602 29.4531V32.1307V46.1073V60.0839V62.7615C9.91602 62.7801 9.91602 62.7987 9.91602 62.8173C9.94701 65.2655 12.9282 66.4927 14.7691 64.8812C16.8392 63.0714 18.5623 61.559 18.5623 61.559L19.8019 60.4744Z" fill="#6BD9F2"/>
<path d="M16.7961 31.1142C15.6805 30.1349 14.0132 30.9965 14.0132 32.546V46.1135V59.681C14.0132 61.2306 15.6805 62.0859 16.7961 61.1128L17.9986 60.0591C18.3952 59.712 18.6307 59.1852 18.6307 58.6274V46.1135V33.5996C18.6307 33.0418 18.4014 32.5212 17.9986 32.1679L16.7961 31.1142Z" fill="#4E9EB0"/>
<path d="M46.0384 63.7284L37.9685 60.307C35.7372 59.3587 33.3324 58.8691 30.9089 58.8691H28.8884C25.7955 58.8691 22.7957 59.9352 20.397 61.8814C19.9384 62.2532 20.1677 62.9908 20.7565 63.0404L45.7409 64.9804C46.4661 65.0362 46.714 64.0135 46.0384 63.7284Z" fill="#78A4BF"/>
<path d="M46.0384 28.511L37.9685 31.9324C35.7372 32.8807 33.3324 33.3703 30.9089 33.3703H28.8884C25.7955 33.3703 22.7957 32.3042 20.397 30.3581C19.9384 29.9862 20.1677 29.2486 20.7565 29.199L45.7409 27.259C46.4661 27.2032 46.714 28.2197 46.0384 28.511Z" fill="#9AC0D9"/>
<path d="M120.428 37.3309V38.6387C118.004 37.8639 116.256 35.5954 116.256 32.9179C116.256 32.5956 116.281 32.2733 116.331 31.9633C118.723 32.6141 120.428 34.7897 120.428 37.3309Z" fill="#F15A24"/>
<path d="M120.428 53.5822V54.8838C120.428 57.425 118.723 59.6067 116.331 60.2513C116.281 59.9414 116.256 59.6191 116.256 59.2968C116.256 56.6254 118.004 54.3569 120.428 53.5822Z" fill="#F15A24"/>
<path d="M9.91623 50.0369H7.43701V62.5507H9.91623V50.0369Z" fill="#10647A"/>
<path d="M45.4746 31.6286C43.6214 32.4406 42.4189 34.2752 42.4189 36.2958V46.2623V56.2287C42.4189 58.2555 43.6152 60.0839 45.4746 60.8958L55.1746 65.1353C57.7902 66.2758 60.7156 64.3606 60.7156 61.5095V46.2561V31.0027C60.7156 28.1516 57.7902 26.2364 55.1746 27.3768L45.4746 31.6286Z" fill="#9AC0D9"/>
<path d="M57.6352 27.1475V40.9009V56.1543C57.6352 59.0054 54.7097 60.9207 52.0942 59.7802L42.4189 55.5469V56.2287C42.4189 58.2555 43.6152 60.0839 45.4746 60.8959L55.1746 65.1353C57.7902 66.2758 60.7156 64.3606 60.7156 61.5095V46.2561V31.0027C60.7156 29.0565 59.3459 27.5441 57.6352 27.1475Z" fill="#78A4BF"/>
<path d="M45.7912 65.6002C45.754 65.6002 45.723 65.6002 45.6858 65.594L20.7015 63.654C20.1809 63.6106 19.7408 63.2635 19.5858 62.7615C19.4309 62.2594 19.5921 61.7264 20.0011 61.3979C22.5052 59.3649 25.6599 58.2493 28.8829 58.2493H30.9035C33.4261 58.2493 35.8867 58.7513 38.2048 59.7368L46.2747 63.1582C46.8635 63.4061 47.1672 64.0135 47.0122 64.6333C46.8759 65.2159 46.38 65.6002 45.7912 65.6002ZM28.8829 59.4889C25.9388 59.4889 23.063 60.5116 20.7821 62.3648L45.785 64.3606L45.8222 64.311L45.8036 64.3048L37.7338 60.8835C35.5644 59.9662 33.2712 59.4951 30.9159 59.4951H28.8829V59.4889Z" fill="#10647A"/>
<path d="M30.9035 33.9901H28.8829C25.6599 33.9901 22.5052 32.8683 20.0011 30.8415C19.5921 30.513 19.4309 29.9738 19.5858 29.4779C19.7408 28.9759 20.1809 28.6288 20.7015 28.5854L45.6858 26.6454C46.318 26.5896 46.8697 26.9925 47.0184 27.6123C47.1672 28.2321 46.8635 28.8395 46.2809 29.0875L38.211 32.5088C35.8867 33.4881 33.4261 33.9901 30.9035 33.9901ZM45.816 27.9284L20.7945 29.8188C23.063 31.7278 25.9388 32.7505 28.8767 32.7505H30.8973C33.2525 32.7505 35.552 32.2856 37.7151 31.3621L45.785 27.9408C45.8098 27.9346 45.816 27.9284 45.816 27.9284Z" fill="#10647A"/>
<path d="M56.7614 66.096C56.1416 66.096 55.5156 65.9659 54.9268 65.7117L45.2269 61.4723C43.1443 60.5612 41.7993 58.5034 41.7993 56.2349V36.2958C41.7993 34.0211 43.1443 31.9696 45.2269 31.0584L54.9268 26.819C56.3462 26.1992 57.9701 26.3355 59.2655 27.1847C60.5609 28.0338 61.3356 29.4655 61.3356 31.015V61.5219C61.3356 63.0714 60.5609 64.5031 59.2655 65.3523C58.5093 65.8419 57.6353 66.096 56.7614 66.096ZM56.7614 27.6743C56.309 27.6743 55.8504 27.7673 55.4227 27.9532L45.7227 32.1927C44.0926 32.9055 43.0389 34.5169 43.0389 36.2958V56.2349C43.0389 58.0138 44.0926 59.6253 45.7227 60.338L55.4227 64.5775C56.4578 65.03 57.6416 64.9308 58.5837 64.311C59.532 63.6912 60.096 62.6499 60.096 61.5157V31.0088C60.096 29.8808 59.532 28.8333 58.5837 28.2135C58.0321 27.854 57.3998 27.6743 56.7614 27.6743Z" fill="#10647A"/>
<path d="M12.9839 19.685H8.65771V0H12.9839L16.3557 2.52881V17.1562L12.9839 19.685Z" fill="black"/>
<path d="M20.6884 19.685H16.356V0H20.6884L24.0601 2.52881V17.1562L20.6884 19.685Z" fill="black"/>
<path d="M28.3925 19.685H24.0601V0H28.3925L31.7643 2.52881V17.1562L28.3925 19.685Z" fill="black"/>
<path d="M9.61857 0H5.28613V19.685H9.61857V0Z" fill="black"/>
<path d="M33.772 0H28.3921V19.685H33.772V0Z" fill="black"/>
<path d="M91.4076 22.5857H87.0752V2.89449H91.4076L94.7794 5.42329V20.0569L91.4076 22.5857Z" fill="black"/>
<path d="M99.1122 22.5857H94.7798V2.89449H99.1122L102.484 5.42329V20.0569L99.1122 22.5857Z" fill="black"/>
<path d="M106.81 22.5857H102.483V2.89449H106.81L110.181 5.42329V20.0569L106.81 22.5857Z" fill="black"/>
<path d="M88.0365 2.89449H83.7041V22.5795H88.0365V2.89449Z" fill="black"/>
<path d="M112.19 2.89449H106.811V22.5795H112.19V2.89449Z" fill="black"/>
<path d="M12.9839 92.2208H8.65771V72.5358H12.9839L16.3557 75.0646V89.692L12.9839 92.2208Z" fill="black"/>
<path d="M20.6884 92.2208H16.356V72.5358H20.6884L24.0601 75.0646V89.692L20.6884 92.2208Z" fill="black"/>
<path d="M28.3925 92.2208H24.0601V72.5358H28.3925L31.7643 75.0646V89.692L28.3925 92.2208Z" fill="black"/>
<path d="M9.61857 72.5358H5.28613V92.2208H9.61857V72.5358Z" fill="black"/>
<path d="M33.772 72.5358H28.3921V92.2208H33.772V72.5358Z" fill="black"/>
<path d="M91.4076 89.3263H87.0752V69.6413H91.4076L94.7794 72.1701V86.7975L91.4076 89.3263Z" fill="black"/>
<path d="M99.1122 89.3263H94.7798V69.6413H99.1122L102.484 72.1701V86.7975L99.1122 89.3263Z" fill="black"/>
<path d="M106.81 89.3263H102.483V69.6413H106.81L110.181 72.1701V86.7975L106.81 89.3263Z" fill="black"/>
<path d="M88.0365 69.6413H83.7041V89.3263H88.0365V69.6413Z" fill="black"/>
<path d="M112.19 69.6413H106.811V89.3263H112.19V69.6413Z" fill="black"/>
</svg>
