<svg width="122" height="93" viewBox="0 0 122 93" fill="none" xmlns="http://www.w3.org/2000/svg">
<path d="M38.7287 29.0565L37.1668 30.9841L26.8099 22.5857L18.2565 15.6563L19.366 23.1063L21.839 39.7419L19.3846 40.1076L16.8806 23.2799L14.8662 9.71235L30.4419 22.3378L38.7287 29.0565Z" fill="black"/>
<path d="M38.7287 63.1643L30.4357 69.8892H30.4295L14.8662 82.5085L16.8806 68.9533L19.3846 52.1194L21.839 52.4789L19.366 69.1269L18.2565 76.5707L26.8037 69.6413L37.1668 61.2368L38.7287 63.1643Z" fill="black"/>
<path d="M105.079 48.9894L101.651 64.8192L98.3849 79.9301L96.575 79.5334L94.6909 79.9053L91.9947 66.2262L88.5981 48.9646L91.034 48.4874L94.4553 65.8667L96.5688 76.6017L99.0357 65.2035L102.655 48.4626L105.079 48.9894Z" fill="black"/>
<path d="M105.079 43.2376L102.655 43.7644L99.0357 27.0235L96.5688 15.6191L94.4553 26.3603L91.034 43.7397L88.5981 43.2624L91.9947 26.0008L94.6909 12.3217L96.575 12.6874L98.3849 12.2969L101.651 27.4078L105.079 43.2376Z" fill="black"/>
<path d="M122 37.3371V54.8899C122 58.4972 119.583 61.6768 116.118 62.6375C115.783 62.7367 115.436 62.8111 115.108 62.8606L101.652 64.8192L99.036 65.2035L94.4557 65.8667L91.995 66.2262L57.255 71.2838C56.5608 71.3892 55.8356 71.4573 55.0918 71.4821C54.8439 71.4945 54.596 71.5007 54.348 71.5007C53.8832 71.5007 53.4122 71.4821 52.9287 71.4511L30.436 69.8892H30.4298L26.8039 69.6413L19.3663 69.1269L16.8808 68.9533L12.4989 68.6496C12.4989 68.6496 12.474 68.6496 12.4678 68.6496C9.23865 68.4203 6.68501 65.7799 6.53626 62.5693H2.48899C1.11922 62.5693 0.00976562 61.4599 0.00976562 60.0901V54.673C0.00976562 53.3032 1.11922 52.1938 2.48899 52.1938H6.53013V29.949C6.53013 26.6082 9.13948 23.8129 12.4678 23.5836L16.8808 23.2799L19.3663 23.1063L26.8101 22.5857L30.4422 22.3378L52.9287 20.7759C53.406 20.7387 53.8832 20.7263 54.348 20.7263C54.596 20.7263 54.8439 20.7263 55.0918 20.7387C55.8356 20.7697 56.5422 20.8316 57.2426 20.937L91.995 26.0008L94.4557 26.3603L99.036 27.0235L101.652 27.4078L115.108 29.3664C115.126 29.3664 115.139 29.3726 115.151 29.3726C115.411 29.416 115.752 29.4779 116.118 29.5895C119.583 30.5502 122 33.7298 122 37.3371Z" fill="#10647A"/>
<path d="M6.52392 52.1938V62.5693H2.48899C1.11922 62.5693 0.00976562 61.4599 0.00976562 60.0901V54.673C0.00976562 53.3033 1.11922 52.1938 2.48899 52.1938H6.52392Z" fill="#3D3D3D"/>
<path d="M9.78423 54.673H2.48291V60.0901H9.78423V54.673Z" fill="#737373"/>
<path d="M119.514 37.3309V54.8838C119.514 57.425 117.81 59.6067 115.417 60.2513C115.2 60.3194 114.977 60.369 114.748 60.4L56.8829 68.8294C56.2569 68.9223 55.6246 68.9781 54.9924 69.0029C54.3602 69.0277 53.7281 69.0153 53.0959 68.9719L12.635 66.1704C10.5896 66.0278 9.00293 64.3234 9.00293 62.2718V29.9428C9.00293 27.8912 10.5896 26.193 12.635 26.0504L53.0959 23.2427C53.7281 23.1993 54.3602 23.1869 54.9924 23.2117C55.6246 23.2365 56.2507 23.2923 56.8829 23.3852L114.748 31.8146C114.977 31.8518 115.2 31.8952 115.417 31.9634C117.81 32.6141 119.514 34.7897 119.514 37.3309Z" fill="#6BD9F2"/>
<path d="M15.6288 25.8521L14.8169 25.9079C15.071 25.8893 15.3375 25.8707 15.6288 25.8521Z" fill="#FF0000"/>
<path d="M119.52 53.3032L54.9985 59.5013V32.7195L119.52 38.9176V53.3032Z" fill="#4E9EB0"/>
<path d="M15.6288 25.8521L14.8169 25.9079C15.071 25.8893 15.3375 25.8707 15.6288 25.8521Z" fill="#FF0000"/>
<path d="M68.8514 67.0877C64.302 66.2262 61.0047 62.2532 61.0047 57.6233V46.2685V45.9586V34.6037C61.0047 29.9738 64.302 25.9946 68.8514 25.1393L56.8892 23.3976C56.257 23.3047 55.631 23.2489 54.9988 23.2241C54.3666 23.1993 53.7344 23.2117 53.1021 23.2551L18.6596 25.6475C18.5171 25.6599 18.3745 25.6661 18.2381 25.6785C17.9592 25.6971 17.6865 25.7157 17.4262 25.7343C17.2898 25.7405 17.1597 25.7529 17.0357 25.7591C16.701 25.7839 16.3787 25.8087 16.0688 25.8273C15.92 25.8397 15.7713 25.8459 15.6288 25.8583L14.8168 25.914C14.6929 25.9202 14.5751 25.9326 14.4573 25.9388C14.228 25.9512 14.0172 25.9698 13.8251 25.9822C13.0627 26.0318 12.6413 26.0628 12.6413 26.0628C10.596 26.2054 9.00928 27.9036 9.00928 29.9552V62.2842C9.00928 64.3358 10.596 66.0402 12.6413 66.1828C12.6413 66.1828 13.0627 66.2138 13.8251 66.2634C14.0172 66.2758 14.228 66.2944 14.4573 66.3067C14.5751 66.3129 14.6929 66.3253 14.8168 66.3315C15.071 66.3501 15.3374 66.3687 15.6288 66.3873C15.7713 66.3997 15.92 66.4059 16.0688 66.4183C16.3787 66.4369 16.701 66.4617 17.0357 66.4865C17.1597 66.4927 17.2898 66.5051 17.4262 66.5113C17.6865 66.5299 17.9592 66.5485 18.2381 66.5671C18.3745 66.5795 18.5171 66.5857 18.6596 66.5981C19.0439 66.6229 19.4406 66.6476 19.8497 66.6786C20.0542 66.691 20.2649 66.7034 20.4757 66.722C21.3062 66.7778 22.1801 66.8398 23.0912 66.9018L53.1021 68.9843C53.7344 69.0277 54.3666 69.0401 54.9988 69.0153C55.631 68.9905 56.2632 68.9347 56.8892 68.8418L59.1391 68.5133L68.8514 67.0877Z" fill="#4E9EB0"/>
<path d="M54.6207 26.6082H44.8154L19.8311 28.5482L14.854 29.2548C13.2177 29.4903 12.0029 30.8849 12.0029 32.5398V46.1073V59.6748C12.0029 61.3235 13.2177 62.7243 14.854 62.9598L19.8311 63.6664L44.8154 65.6064L54.6207 65.9163C57.3665 66.0031 59.8023 64.7882 59.8023 61.119V31.0088C59.8023 28.666 58.104 26.6082 54.6207 26.6082Z" fill="#3E7E8C"/>
<path d="M18.8888 60.4744C19.2979 60.1149 19.5396 59.5757 19.5396 58.9993V46.1073V33.2154C19.5396 32.6452 19.2979 32.0997 18.8888 31.7402L17.6492 30.6556L13.856 27.3334C12.0152 25.7219 9.03392 26.9491 9.00293 29.3974C9.00293 29.416 9.00293 29.4346 9.00293 29.4531V32.1307V46.1073V60.0839V62.7615C9.00293 62.7801 9.00293 62.7987 9.00293 62.8173C9.03392 65.2655 12.0152 66.4927 13.856 64.8812C15.9261 63.0714 17.6492 61.559 17.6492 61.559L18.8888 60.4744Z" fill="#6BD9F2"/>
<path d="M15.883 31.1142C14.7674 30.1349 13.1001 30.9965 13.1001 32.546V46.1135V59.681C13.1001 61.2306 14.7674 62.0859 15.883 61.1128L17.0854 60.0591C17.4821 59.712 17.7176 59.1852 17.7176 58.6274V46.1135V33.5996C17.7176 33.0418 17.4883 32.5212 17.0854 32.1679L15.883 31.1142Z" fill="#4E9EB0"/>
<path d="M45.1253 63.7284L37.0555 60.307C34.8242 59.3587 32.4193 58.8691 29.9959 58.8691H27.9753C24.8825 58.8691 21.8826 59.9352 19.4839 61.8814C19.0253 62.2532 19.2547 62.9908 19.8435 63.0404L44.8278 64.9804C45.553 65.0362 45.8009 64.0135 45.1253 63.7284Z" fill="#78A4BF"/>
<path d="M45.1253 28.511L37.0555 31.9324C34.8242 32.8807 32.4193 33.3703 29.9959 33.3703H27.9753C24.8825 33.3703 21.8826 32.3042 19.4839 30.3581C19.0253 29.9862 19.2547 29.2486 19.8435 29.199L44.8278 27.259C45.553 27.2032 45.8009 28.2197 45.1253 28.511Z" fill="#9AC0D9"/>
<path d="M119.515 37.3309V38.6387C117.091 37.8639 115.343 35.5954 115.343 32.9179C115.343 32.5956 115.368 32.2733 115.418 31.9633C117.81 32.6141 119.515 34.7897 119.515 37.3309Z" fill="#F15A24"/>
<path d="M119.515 53.5822V54.8838C119.515 57.425 117.81 59.6067 115.418 60.2513C115.368 59.9414 115.343 59.6191 115.343 59.2968C115.343 56.6254 117.091 54.3569 119.515 53.5822Z" fill="#F15A24"/>
<path d="M9.00315 50.0369H6.52393V62.5507H9.00315V50.0369Z" fill="#10647A"/>
<path d="M44.5615 31.6286C42.7083 32.4406 41.5059 34.2752 41.5059 36.2958V46.2623V56.2287C41.5059 58.2555 42.7021 60.0839 44.5615 60.8958L54.2614 65.1353C56.877 66.2758 59.8025 64.3606 59.8025 61.5095V46.2561V31.0027C59.8025 28.1516 56.877 26.2364 54.2614 27.3768L44.5615 31.6286Z" fill="#9AC0D9"/>
<path d="M56.7221 27.1475V40.9009V56.1543C56.7221 59.0054 53.7966 60.9207 51.181 59.7802L41.5059 55.5469V56.2287C41.5059 58.2555 42.7021 60.0839 44.5615 60.8959L54.2614 65.1353C56.877 66.2758 59.8025 64.3606 59.8025 61.5095V46.2561V31.0027C59.8025 29.0565 58.4266 27.5441 56.7221 27.1475Z" fill="#78A4BF"/>
<path d="M44.8781 65.6002C44.841 65.6002 44.8099 65.6002 44.7728 65.594L19.7884 63.654C19.2677 63.6106 18.8277 63.2635 18.6728 62.7615C18.5178 62.2594 18.6789 61.7264 19.088 61.3979C21.592 59.3649 24.7469 58.2493 27.9698 58.2493H29.9904C32.513 58.2493 34.9737 58.7513 37.2917 59.7368L45.3615 63.1582C45.9504 63.4061 46.2541 64.0135 46.0991 64.6333C45.9628 65.2159 45.467 65.6002 44.8781 65.6002ZM27.9698 59.4889C25.0258 59.4889 22.1498 60.5116 19.8689 62.3648L44.8719 64.3606L44.9091 64.311L44.8905 64.3048L36.8207 60.8835C34.6514 59.9662 32.3581 59.4951 30.0028 59.4951H27.9698V59.4889Z" fill="#10647A"/>
<path d="M29.9904 33.9901H27.9698C24.7469 33.9901 21.592 32.8683 19.088 30.8415C18.6789 30.513 18.5178 29.9738 18.6728 29.4779C18.8277 28.9759 19.2677 28.6288 19.7884 28.5854L44.7728 26.6454C45.405 26.5896 45.9566 26.9925 46.1054 27.6123C46.2541 28.2321 45.9504 28.8395 45.3677 29.0875L37.2979 32.5088C34.9736 33.4881 32.513 33.9901 29.9904 33.9901ZM44.9029 27.9284L19.8814 29.8188C22.1498 31.7278 25.0258 32.7505 27.9636 32.7505H29.9842C32.3395 32.7505 34.6389 32.2856 36.8021 31.3621L44.8719 27.9408C44.8967 27.9346 44.9029 27.9284 44.9029 27.9284Z" fill="#10647A"/>
<path d="M55.8483 66.096C55.2285 66.096 54.6026 65.9659 54.0137 65.7117L44.3138 61.4723C42.2312 60.5612 40.8862 58.5034 40.8862 56.2349V36.2958C40.8862 34.0211 42.2312 31.9696 44.3138 31.0584L54.0137 26.819C55.4331 26.1992 57.057 26.3355 58.3524 27.1847C59.6478 28.0338 60.4225 29.4655 60.4225 31.015V61.5219C60.4225 63.0714 59.6478 64.5031 58.3524 65.3523C57.5962 65.8419 56.7223 66.096 55.8483 66.096ZM55.8483 27.6743C55.3959 27.6743 54.9372 27.7673 54.5095 27.9532L44.8096 32.1927C43.1795 32.9055 42.1258 34.5169 42.1258 36.2958V56.2349C42.1258 58.0138 43.1795 59.6253 44.8096 60.338L54.5095 64.5775C55.5446 65.03 56.7284 64.9308 57.6705 64.311C58.6188 63.6912 59.1829 62.6499 59.1829 61.5157V31.0088C59.1829 29.8808 58.6188 28.8333 57.6705 28.2135C57.1189 27.854 56.4867 27.6743 55.8483 27.6743Z" fill="#10647A"/>
<path d="M10.0009 19.685H5.66846V0H10.0009L13.3726 2.52881V17.1562L10.0009 19.685Z" fill="black"/>
<path d="M17.7055 19.685H13.373V0H17.7055L21.0773 2.52881V17.1562L17.7055 19.685Z" fill="black"/>
<path d="M25.4029 19.685H21.0767V0H25.4029L28.7746 2.52881V17.1562L25.4029 19.685Z" fill="black"/>
<path d="M8.70597 0H4.37354V19.685H8.70597V0Z" fill="black"/>
<path d="M32.8599 0H27.48V19.685H32.8599V0Z" fill="black"/>
<path d="M88.4258 22.5857H84.0933V2.89449H88.4258L91.7975 5.42329V20.0569L88.4258 22.5857Z" fill="black"/>
<path d="M96.1236 22.5857H91.7974V2.89449H96.1236L99.4954 5.42329V20.0569L96.1236 22.5857Z" fill="black"/>
<path d="M103.828 22.5857H99.4951V2.89449H103.828L107.199 5.42329V20.0569L103.828 22.5857Z" fill="black"/>
<path d="M87.1234 2.89449H82.791V22.5795H87.1234V2.89449Z" fill="black"/>
<path d="M111.277 2.89449H105.897V22.5795H111.277V2.89449Z" fill="black"/>
<path d="M88.4258 89.3263H84.0933V69.6413H88.4258L91.7975 72.1701V86.7975L88.4258 89.3263Z" fill="black"/>
<path d="M96.1236 89.3263H91.7974V69.6413H96.1236L99.4954 72.1701V86.7975L96.1236 89.3263Z" fill="black"/>
<path d="M103.828 89.3263H99.4951V69.6413H103.828L107.199 72.1701V86.7975L103.828 89.3263Z" fill="black"/>
<path d="M87.1234 69.6413H82.791V89.3263H87.1234V69.6413Z" fill="black"/>
<path d="M111.277 69.6413H105.897V89.3263H111.277V69.6413Z" fill="black"/>
<path d="M10.0009 92.2208H5.66846V72.5358H10.0009L13.3726 75.0646V89.692L10.0009 92.2208Z" fill="black"/>
<path d="M17.7055 92.2208H13.373V72.5358H17.7055L21.0773 75.0646V89.692L17.7055 92.2208Z" fill="black"/>
<path d="M25.4029 92.2208H21.0767V72.5358H25.4029L28.7746 75.0646V89.692L25.4029 92.2208Z" fill="black"/>
<path d="M8.70597 72.5358H4.37354V92.2208H8.70597V72.5358Z" fill="black"/>
<path d="M32.8599 72.5358H27.48V92.2208H32.8599V72.5358Z" fill="black"/>
</svg>
