<svg width="475" height="476" viewBox="0 0 475 476" fill="none" xmlns="http://www.w3.org/2000/svg">
<path opacity="0.1" d="M453.77 242.82C452 236.92 452.86 230.61 455.86 225.23C460.74 216.48 463.52 206.41 463.52 195.68C463.52 186.32 461.4 177.46 457.62 169.55C453.45 160.82 452.27 150.88 454.48 141.46C455.42 137.44 455.92 133.25 455.92 128.95C455.92 117.93 452.66 107.67 447.06 99.0699C444.45 95.0599 443.03 90.39 443.03 85.6V85.45C443.03 70.61 435.4 57.56 423.85 49.99C420.19 47.59 417.27 44.2601 415.37 40.3101C407.4 23.7401 390.46 12.3 370.85 12.3C365.52 12.3 360.38 13.15 355.57 14.71C348.82 16.9 341.46 16.13 335.52 12.24C323.9 4.61999 310 0.189941 295.06 0.189941C284.59 0.189941 274.63 2.38006 265.6 6.31006C260.46 8.55006 254.67 8.75 249.34 7C243.32 5.02 236.89 3.94995 230.21 3.94995C221.69 3.94995 213.58 5.69997 206.21 8.83997C201.91 10.67 197.18 11.36 192.6 10.46C189.11 9.76996 185.51 9.41003 181.82 9.41003C168.61 9.41003 156.48 13.99 146.91 21.65C141.5 25.98 134.46 27.8 127.68 26.34C122.78 25.29 117.7 24.74 112.49 24.74C79.6698 24.74 51.9598 46.54 43.0198 76.45C41.4998 81.52 38.2598 85.9599 33.8098 88.8199C23.6998 95.3299 17.0098 106.68 17.0098 119.59C17.0098 124.15 17.8498 128.52 19.3798 132.55C21.7198 138.7 21.3898 145.61 18.3298 151.43C14.1798 159.34 11.8198 168.34 11.8198 177.9C11.8198 189.99 15.5798 201.19 21.9998 210.42C25.7298 215.79 27.0898 222.42 25.7198 228.81C24.8898 232.68 24.4498 236.7 24.4498 240.81C24.4498 244.87 24.8798 248.83 25.6898 252.65C27.1798 259.7 26.2398 266.99 22.9298 273.39C18.6798 281.63 16.2698 290.97 16.2698 300.88C16.2698 314.04 20.5098 326.21 27.6898 336.1C31.8198 341.79 33.0598 349 31.1798 355.77C29.7698 360.85 29.0098 366.21 29.0098 371.74C29.0098 404.74 55.7598 431.5 88.7698 431.5H88.9398C98.4698 431.49 107.6 435.03 114.86 441.21C123.36 448.44 134.37 452.81 146.4 452.81C150.05 452.81 153.6 452.41 157.01 451.65C170.08 448.74 183.85 451.39 194.33 459.73C206.45 469.36 221.78 475.12 238.46 475.12C256.31 475.12 272.61 468.52 285.08 457.64C291.15 452.34 298.88 449.32 306.93 449.47C307.3 449.48 307.67 449.48 308.04 449.48C317.21 449.48 325.87 447.31 333.54 443.47C342.89 438.78 353.6 437.24 363.71 439.95C369.32 441.45 375.28 442.12 381.43 441.81C409.53 440.38 432.64 418.26 435.25 390.25C435.72 385.26 435.53 380.39 434.77 375.71C433.86 370.08 435.3 364.37 438.38 359.58C444.94 349.4 448.75 337.28 448.75 324.27C448.75 320.2 448.38 316.22 447.67 312.36C446.78 307.53 447.31 302.54 449.43 298.11C454.25 288.05 456.96 276.79 456.96 264.89C457 257.21 455.86 249.81 453.77 242.82Z" fill="#325766"/>
<path opacity="0.22" d="M448.87 255.48C448.87 247.46 446.84 239.91 443.28 233.32C438.62 224.71 437.06 214.65 439.38 205.13C440.17 201.87 440.6 198.46 440.6 194.95C440.6 189.61 439.62 184.5 437.84 179.78C434.63 171.29 433.94 162.14 435.88 153.27C436.53 150.3 436.87 147.22 436.87 144.06C436.87 137.21 435.27 130.74 432.42 125C427.81 115.7 426.33 105.05 428.92 95C429.88 91.28 430.39 87.37 430.39 83.35C430.39 60.5 413.97 41.4799 392.29 37.4399C387.11 36.4799 382.45 33.83 378.7 30.13C374.19 25.68 368.35 22.85 361.94 22.85C359.96 22.85 358.04 23.12 356.22 23.63C349.92 25.38 343.2 24.9 337.45 21.8C327.59 16.48 316.31 13.45 304.33 13.45C295.79 13.45 287.61 14.99 280.04 17.79C274.08 20 267.52 20.17 261.58 17.88C255.09 15.37 248.04 13.99 240.66 13.99C228.11 13.99 216.5 17.98 207.02 24.75C201.25 28.87 193.97 30.2401 187 28.9301C183.82 28.3301 180.53 28.01 177.18 28.01C164.39 28.01 152.66 32.55 143.52 40.11C137.55 45.05 129.67 47.18 122.08 45.66C117.73 44.79 113.22 44.33 108.61 44.33C70.7397 44.33 40.0397 75.03 40.0397 112.9C40.0397 112.91 40.0397 112.91 40.0397 112.92C40.0397 114.25 39.7297 115.55 39.0797 116.7C36.2297 121.73 34.5897 127.53 34.5897 133.73C34.5897 134.2 34.5997 134.66 34.6197 135.13C34.7997 139.65 33.9397 144.13 31.9797 148.21C28.5997 155.26 26.6997 163.15 26.6997 171.48C26.6997 182.61 30.0697 192.94 35.8497 201.53C40.2597 208.08 41.4697 216.35 38.9597 223.84C37.1597 229.22 36.1797 234.97 36.1797 240.95C36.1797 246.12 36.9097 251.13 38.2697 255.87C39.7497 261.01 39.7497 266.51 38.0597 271.59C36.9097 275.03 36.2897 278.7 36.2897 282.53C36.2897 288.62 37.8697 294.35 40.6397 299.32C42.9597 303.49 44.2997 308.14 44.1597 312.91C44.1497 313.37 44.1397 313.84 44.1397 314.31C44.1397 321.59 45.8297 328.48 48.8497 334.6C51.7797 340.55 52.1297 347.42 50.1297 353.74C48.4197 359.13 47.4997 364.86 47.4997 370.81C47.4997 399.47 68.8397 423.15 96.4997 426.82C100.83 427.39 104.89 429.1 108.4 431.69C112.5 434.72 117.94 436.72 123.12 436.72C124.94 436.72 126.71 436.49 128.4 436.06C134.15 434.6 140.21 434.91 145.62 437.36C151.39 439.96 157.78 441.41 164.52 441.41C171.78 441.41 178.64 439.73 184.75 436.73C192.17 433.09 200.88 433.49 208.25 437.23C217.35 441.84 227.65 444.44 238.55 444.44C250.5 444.44 261.72 441.31 271.44 435.83C278.42 431.89 286.87 431.41 294.3 434.4C300.5 436.89 307.27 438.26 314.37 438.26C325.49 438.26 335.82 434.9 344.4 429.13C349.67 425.59 356.15 424.18 362.42 425.21C366.42 425.87 370.56 426.09 374.8 425.81C401.57 424.08 423.23 402.48 425.03 375.72C425.38 370.59 425 365.6 424 360.84C422.66 354.47 423.77 347.77 427.14 342.2C431.41 335.16 433.87 326.9 433.87 318.06C433.87 314.4 433.45 310.85 432.65 307.44C430.82 299.6 433.08 291.4 438.21 285.2C444.85 277.15 448.87 266.79 448.87 255.48Z" fill="#325766"/>
<path d="M441.08 254.5C441.08 245.16 438.23 236.49 433.36 229.31C429.48 223.6 428.5 216.4 430.79 209.89C432.29 205.61 433.11 201.01 433.11 196.21C433.11 189.48 431.5 183.14 428.65 177.52C425.97 172.24 425.44 166.07 427.34 160.46C428.75 156.3 429.52 151.84 429.52 147.2C429.52 138.78 427 130.94 422.68 124.41C418.82 118.57 417.89 111.18 420.37 104.64C422.24 99.69 423.27 94.33 423.27 88.73C423.27 67.62 408.73 49.9099 389.11 45.0699C382.64 43.4699 376.8 40.08 371.63 35.86C367.59 32.57 362.63 30.47 357.33 30.47C355.21 30.47 353.16 30.79 351.24 31.39C345.62 33.13 339.49 32.62 334.34 29.77C324.71 24.44 313.64 21.41 301.85 21.41C293.16 21.41 284.87 23.0601 277.25 26.0601C272.08 28.0901 266.34 27.93 261.18 25.87C254.8 23.33 247.83 21.9301 240.55 21.9301C228.09 21.9301 216.6 26.01 207.31 32.9C202.33 36.59 196.01 37.81 189.95 36.53C186.55 35.81 183.03 35.4301 179.41 35.4301C166.74 35.4301 155.16 40.06 146.25 47.71C141.02 52.21 134.05 54.08 127.3 52.63C122.81 51.66 118.15 51.15 113.37 51.15C76.9 51.15 47.33 80.7199 47.33 117.19V117.21C47.33 118.52 46.99 119.81 46.35 120.95C43.64 125.77 42.08 131.33 42.08 137.25C42.08 138 42.11 138.75 42.16 139.49C42.41 143.25 41.65 147.02 39.96 150.4C36.46 157.39 34.48 165.27 34.48 173.62C34.48 184.66 37.92 194.88 43.79 203.29C47.87 209.13 48.93 216.53 46.56 223.25C44.65 228.65 43.61 234.46 43.61 240.52C43.61 245.89 44.43 251.07 45.94 255.94C47.29 260.27 47.27 264.9 45.72 269.16C44.42 272.71 43.72 276.55 43.72 280.55C43.72 286.87 45.48 292.78 48.54 297.81C50.65 301.28 51.47 305.35 51.31 309.41C51.29 309.99 51.28 310.57 51.28 311.15C51.28 318.27 52.96 325 55.95 330.96C58.61 336.27 59.33 342.39 57.41 348.01C55.53 353.52 54.51 359.43 54.51 365.57C54.51 393.15 75.03 415.94 101.63 419.5C106.25 420.12 110.65 421.78 114.49 424.42C118.33 427.06 122.63 429.05 127.34 429.05C129.39 429.05 131.36 428.75 133.23 428.2C138.27 426.7 143.74 427.22 148.51 429.44C154.19 432.09 160.53 433.57 167.21 433.57C174.66 433.57 181.68 431.73 187.85 428.48C194.14 425.16 201.65 425.44 207.91 428.81C217.02 433.71 227.43 436.49 238.5 436.49C250.53 436.49 261.78 433.2 271.42 427.48C277.35 423.96 284.63 423.57 290.96 426.3C297.26 429.02 304.21 430.54 311.52 430.54C322.5 430.54 332.69 427.13 341.08 421.31C345.8 418.04 351.62 416.89 357.28 417.88C361.29 418.58 365.46 418.82 369.73 418.55C395.51 416.88 416.36 396.08 418.1 370.31C418.45 365.06 418.02 359.97 416.92 355.13C415.63 349.49 416.64 343.58 419.73 338.69C424.09 331.77 426.62 323.57 426.62 314.78C426.62 310.9 426.13 307.14 425.2 303.55C423.42 296.65 425.35 289.39 430.04 284.02C436.9 276.14 441.08 265.81 441.08 254.5Z" fill="#DCEEF2"/>
<path d="M359.83 54.3299C372.84 55.9399 384.6 61.63 393.82 70.13C399.69 75.54 404.54 82.1 408.01 89.46C410.72 95.21 412.61 101.46 413.5 108.04C413.5 108.05 413.51 108.07 413.51 108.08C413.83 110.48 414.15 112.94 414.47 115.48C414.77 117.82 415.07 120.21 415.36 122.66C416.18 129.5 416.98 136.8 417.74 144.5C418.51 152.37 419.22 160.64 419.85 169.26C423.62 220.95 424.25 285.18 414.15 348.16C413.72 350.82 413.14 353.41 412.39 355.94C409.02 367.49 402.48 377.64 393.77 385.34C385.98 392.24 376.45 397.17 365.91 399.4C362.21 400.18 358.26 400.99 354.09 401.8C351.1 402.38 348 402.96 344.78 403.54C295.12 412.6 218.49 421.85 127.44 416.86C127.07 416.84 126.69 416.81 126.31 416.77C123.28 416.56 120.29 416.11 117.39 415.45C109.18 413.59 101.57 410.07 94.9398 405.21C82.8498 396.38 73.9898 383.17 70.6498 367.67C70.4298 366.65 70.2198 365.61 70.0498 364.56C69.0498 358.45 68.0098 351.76 66.9798 344.45C65.7198 335.51 64.4398 325.65 63.1998 314.9C61.0098 295.85 58.9498 273.93 57.2798 249.1C56.8498 242.76 56.4498 236.22 56.0698 229.49C55.7498 223.64 55.4498 217.65 55.1698 211.5C54.9198 206.15 54.6998 200.69 54.4998 195.1C53.7098 173.45 53.2498 150.12 53.1998 125.09C53.1798 109.11 59.0898 94.22 69.0598 82.96C76.9198 74.08 87.2998 67.44 99.2898 64.28C147.05 51.72 232.87 38.7099 359.83 54.3299Z" fill="#C4D3D6"/>
<path d="M355.44 58.61C368.08 60.18 379.5 65.7 388.44 73.95C394.14 79.21 398.85 85.57 402.22 92.72C404.85 98.31 406.69 104.37 407.55 110.77C407.55 110.78 407.56 110.8 407.56 110.81C407.87 113.14 408.18 115.53 408.49 117.99C408.78 120.26 409.07 122.58 409.35 124.97C410.15 131.61 410.93 138.7 411.66 146.18C412.41 153.82 413.1 161.85 413.71 170.23C417.37 220.43 417.98 282.8 408.17 343.96C407.76 346.54 407.19 349.06 406.46 351.52C403.18 362.74 396.84 372.59 388.38 380.07C380.81 386.77 371.56 391.56 361.33 393.72C357.73 394.48 353.9 395.26 349.86 396.05C346.96 396.61 343.94 397.18 340.82 397.74C292.6 406.54 218.18 415.52 129.76 410.68C129.4 410.66 129.03 410.63 128.66 410.6C125.72 410.39 122.81 409.96 119.99 409.31C112.02 407.51 104.63 404.09 98.1897 399.37C86.4497 390.8 77.8397 377.96 74.5997 362.91C74.3797 361.91 74.1897 360.91 74.0197 359.89C73.0497 353.96 72.0397 347.46 71.0297 340.36C69.8097 331.67 68.5597 322.11 67.3597 311.67C65.2397 293.17 63.2297 271.89 61.6097 247.78C61.1997 241.62 60.7997 235.27 60.4397 228.74C60.1297 223.06 59.8397 217.24 59.5697 211.27C59.3297 206.08 59.1097 200.77 58.9197 195.35C58.1497 174.33 57.7097 151.67 57.6597 127.36C57.6397 111.84 63.3797 97.38 73.0597 86.45C80.6897 77.83 90.7797 71.3801 102.42 68.3101C148.8 56.0801 232.14 43.44 355.44 58.61Z" fill="#A1AEB0"/>
<path d="M354.11 62.6899C366.51 64.2299 377.72 69.65 386.5 77.75C392.1 82.91 396.71 89.15 400.02 96.17C402.6 101.65 404.4 107.61 405.25 113.88C405.25 113.89 405.26 113.91 405.26 113.92C405.57 116.21 405.87 118.55 406.18 120.97C406.46 123.2 406.75 125.48 407.02 127.82C407.8 134.34 408.57 141.3 409.29 148.64C410.02 156.14 410.7 164.02 411.3 172.24C414.89 221.51 415.49 282.73 405.87 342.75C405.46 345.28 404.9 347.76 404.19 350.17C400.98 361.18 394.75 370.85 386.45 378.19C379.02 384.76 369.94 389.46 359.9 391.59C356.37 392.33 352.61 393.11 348.64 393.88C345.79 394.43 342.83 394.99 339.77 395.54C292.44 404.18 219.4 412.99 132.62 408.24C132.26 408.22 131.91 408.19 131.54 408.16C128.65 407.96 125.8 407.53 123.03 406.9C115.21 405.13 107.95 401.77 101.63 397.14C90.0999 388.73 81.6599 376.13 78.4699 361.36C78.2599 360.38 78.0599 359.4 77.8999 358.4C76.9399 352.58 75.9599 346.2 74.9699 339.23C73.7699 330.7 72.5499 321.31 71.3699 311.07C69.2799 292.91 67.3199 272.02 65.7199 248.36C65.3099 242.32 64.9299 236.08 64.5699 229.67C64.2599 224.09 63.9799 218.39 63.7199 212.53C63.4899 207.43 63.2699 202.22 63.0799 196.9C62.3299 176.27 61.8899 154.03 61.8399 130.17C61.8199 114.94 67.4599 100.75 76.9599 90.01C84.4499 81.55 94.3499 75.2199 105.77 72.2099C151.3 60.2099 233.1 47.8099 354.11 62.6899Z" fill="#A6886A"/>
<path d="M349.03 67.78C361.43 69.32 372.64 74.7399 381.42 82.8399C387.02 87.9999 391.63 94.24 394.94 101.26C397.52 106.74 399.32 112.7 400.17 118.97C400.17 118.98 400.18 119 400.18 119.01C400.49 121.3 400.79 123.64 401.1 126.06C401.38 128.29 401.67 130.57 401.94 132.91C402.72 139.43 403.49 146.39 404.21 153.73C404.94 161.23 405.62 169.11 406.22 177.33C409.81 226.6 410.41 287.82 400.79 347.84C400.38 350.37 399.82 352.85 399.11 355.26C396.6 363.88 392.22 371.69 386.45 378.19C379.02 384.76 369.94 389.46 359.9 391.59C356.37 392.33 352.61 393.11 348.64 393.88C345.79 394.43 342.83 394.99 339.77 395.54C292.44 404.18 219.4 412.99 132.62 408.24C132.26 408.22 131.91 408.19 131.54 408.16C128.65 407.96 125.8 407.53 123.03 406.9C115.21 405.13 107.95 401.77 101.63 397.14C90.0999 388.73 81.6599 376.13 78.4699 361.36C78.2599 360.38 78.0599 359.4 77.8999 358.4C76.9399 352.58 75.9599 346.2 74.9699 339.23C73.7699 330.7 72.5499 321.31 71.3699 311.07C69.2799 292.91 67.3199 272.02 65.7199 248.36C65.3099 242.32 64.9299 236.08 64.5699 229.67C64.2599 224.09 63.9799 218.39 63.7199 212.53C63.4899 207.43 63.2699 202.22 63.0799 196.9C62.3299 176.27 61.8899 154.03 61.8399 130.17C61.8199 114.94 67.4599 100.75 76.9599 90.01C83.6299 84.09 91.6899 79.66 100.69 77.29C146.21 65.29 228.01 52.89 349.03 67.78Z" fill="#C9B29B"/>
<path d="M67.0597 139.64C67.0097 113.83 84.1297 91.1999 108.67 84.7299C151.79 73.3599 229.27 61.6199 343.91 75.7199C355.66 77.1699 366.28 82.3099 374.6 89.9799C379.9 94.8699 384.27 100.79 387.4 107.44C389.85 112.63 391.55 118.27 392.35 124.22C392.35 124.23 392.36 124.25 392.36 124.26C392.65 126.42 392.94 128.65 393.23 130.94C393.5 133.04 393.77 135.21 394.03 137.42C394.77 143.6 395.49 150.19 396.17 157.13C396.86 164.23 397.51 171.71 398.08 179.5C401.48 226.17 402.05 284.16 392.93 341.01C392.54 343.41 392.01 345.75 391.34 348.04C385.57 367.78 369.55 383.01 349.38 387.27C346.03 387.98 342.47 388.7 338.7 389.44C336 389.96 333.2 390.49 330.3 391.02C285.46 399.2 216.27 407.55 134.07 403.04C133.73 403.02 133.39 403 133.05 402.97C130.31 402.77 127.61 402.37 124.99 401.77C117.58 400.09 110.71 396.91 104.72 392.53C93.7997 384.56 85.7997 372.63 82.7897 358.64C82.5897 357.71 82.4097 356.78 82.2597 355.84C81.3597 350.32 80.4197 344.28 79.4797 337.68C79.4797 337.68 79.4797 337.68 79.4797 337.67C78.3397 329.59 77.1797 320.7 76.0697 310.99C74.0897 293.78 72.2397 274 70.7197 251.59C70.3397 245.86 69.9697 239.96 69.6297 233.88C69.3397 228.6 69.0697 223.19 68.8197 217.65C68.5997 212.82 68.3997 207.88 68.2197 202.85C67.5197 183.3 67.0997 162.24 67.0597 139.64Z" fill="#78B528"/>
<path d="M293.07 82.9C287.61 82.9 282.76 85.5 279.68 89.53C273.26 83.79 264.79 80.29 255.49 80.29C243.16 80.29 232.26 86.45 225.7 95.85C217.81 90.24 208.17 86.92 197.75 86.92C182.64 86.92 169.16 93.87 160.31 104.73C156.87 97.73 149.66 92.91 141.34 92.91C133.8 92.91 127.19 96.86 123.45 102.8C120.08 100.59 116.04 99.3 111.71 99.3C99.8699 99.3 90.2699 108.9 90.2699 120.74C90.2699 121.74 90.3399 122.72 90.4799 123.68C82.7999 125.25 77.0199 132.04 77.0199 140.18C77.0199 145.62 79.5999 150.45 83.5899 153.53C78.3399 157.47 74.9399 163.74 74.9399 170.81C74.9399 178.07 78.5199 184.48 84.0099 188.4C79.7099 192.35 77.0099 198.01 77.0099 204.31C77.0099 211.75 80.7799 218.32 86.5099 222.2C81.9399 228.27 79.2299 235.82 79.2299 244.01C79.2299 255.93 84.9699 266.5 93.8399 273.12C87.0599 278.93 82.7699 287.55 82.7699 297.17C82.7699 306.76 87.0399 315.34 93.7699 321.15C92.3999 323.58 91.6199 326.39 91.6199 329.38C91.6199 338.68 99.1599 346.23 108.47 346.23C109.03 346.23 109.59 346.2 110.14 346.15C109.94 347.71 109.82 349.29 109.82 350.9C109.82 370.95 126.07 387.2 146.12 387.2C153.96 387.2 161.22 384.71 167.15 380.48C172.52 387.1 180.71 391.33 189.9 391.33C199.34 391.33 207.73 386.86 213.09 379.92C220.89 385.33 230.35 388.51 240.57 388.51C249.15 388.51 257.2 386.26 264.18 382.34C267 387.68 272.62 391.33 279.08 391.33C285.87 391.33 291.71 387.31 294.38 381.53C298.16 385.05 303.22 387.2 308.78 387.2C319.26 387.2 327.95 379.57 329.62 369.57C333.79 371.24 338.33 372.16 343.09 372.16C363.14 372.16 379.39 355.91 379.39 335.86C379.39 329.05 377.51 322.67 374.24 317.22C382.94 313.42 389.02 304.75 389.02 294.65C389.02 288.29 386.61 282.5 382.66 278.13C386.1 271.49 388.05 263.96 388.05 255.97C388.05 253.62 387.87 251.32 387.54 249.06C390.83 244.74 392.79 239.35 392.79 233.5C392.79 228.51 391.36 223.86 388.9 219.91C390.11 216.71 390.78 213.25 390.78 209.63C390.78 202.08 387.89 195.21 383.17 190.05C385.22 185.01 386.36 179.51 386.36 173.73C386.36 163.83 383.03 154.72 377.43 147.43C378.14 145.45 378.53 143.32 378.53 141.1C378.53 134.06 374.65 127.94 368.92 124.73C368.99 123.95 369.03 123.15 369.03 122.35C369.03 109.78 360.75 99.15 349.34 95.61C344.06 87.93 335.22 82.88 325.19 82.88C318.09 82.88 311.59 85.41 306.52 89.6C303.46 85.54 298.57 82.9 293.07 82.9Z" fill="#90D437"/>
<path d="M313.76 322.95C313.25 322.95 312.73 323.4 312.73 324.42C312.73 324.73 312.77 325.07 312.83 325.4C312.64 325.12 312.43 324.86 312.21 324.64C311.49 323.92 310.81 323.97 310.45 324.33C310.09 324.69 310.04 325.37 310.76 326.09C310.98 326.31 311.24 326.52 311.52 326.71C311.19 326.65 310.86 326.61 310.54 326.61C309.52 326.61 309.07 327.12 309.07 327.64C309.07 328.16 309.52 328.67 310.54 328.67C310.85 328.67 311.19 328.63 311.52 328.57C311.24 328.76 310.98 328.97 310.76 329.19C310.04 329.91 310.09 330.59 310.45 330.95C310.81 331.31 311.49 331.36 312.21 330.64C312.43 330.42 312.64 330.16 312.83 329.88C312.77 330.21 312.73 330.54 312.73 330.86C312.73 331.88 313.24 332.33 313.76 332.33C314.28 332.33 314.79 331.88 314.79 330.86C314.79 330.55 314.75 330.21 314.69 329.88C314.88 330.16 315.09 330.42 315.31 330.64C316.03 331.36 316.71 331.31 317.07 330.95C317.43 330.59 317.48 329.91 316.76 329.19C316.54 328.97 316.28 328.76 316 328.57C316.33 328.63 316.66 328.67 316.98 328.67C318 328.67 318.45 328.16 318.45 327.64C318.45 327.12 318 326.61 316.98 326.61C316.67 326.61 316.33 326.65 316 326.71C316.28 326.52 316.54 326.31 316.76 326.09C317.48 325.37 317.43 324.69 317.07 324.33C316.71 323.97 316.03 323.92 315.31 324.64C315.09 324.86 314.88 325.12 314.69 325.4C314.75 325.07 314.79 324.74 314.79 324.42C314.79 323.39 314.28 322.95 313.76 322.95Z" fill="#FFFF00"/>
<path d="M153.46 362.72C152.95 362.72 152.43 363.17 152.43 364.19C152.43 364.5 152.47 364.84 152.53 365.17C152.34 364.89 152.13 364.63 151.91 364.41C151.19 363.69 150.51 363.74 150.15 364.1C149.79 364.46 149.74 365.14 150.46 365.86C150.68 366.08 150.94 366.29 151.22 366.48C150.89 366.42 150.56 366.38 150.24 366.38C149.22 366.38 148.77 366.89 148.77 367.41C148.77 367.92 149.22 368.44 150.24 368.44C150.55 368.44 150.89 368.4 151.22 368.34C150.94 368.53 150.68 368.74 150.46 368.96C149.74 369.68 149.79 370.36 150.15 370.72C150.51 371.08 151.19 371.13 151.91 370.41C152.13 370.19 152.34 369.93 152.53 369.65C152.47 369.98 152.43 370.31 152.43 370.63C152.43 371.65 152.94 372.1 153.46 372.1C153.98 372.1 154.49 371.65 154.49 370.63C154.49 370.32 154.45 369.98 154.39 369.65C154.58 369.93 154.79 370.19 155.01 370.41C155.73 371.13 156.41 371.08 156.77 370.72C157.13 370.36 157.18 369.68 156.46 368.96C156.24 368.74 155.98 368.53 155.7 368.34C156.03 368.4 156.36 368.44 156.68 368.44C157.7 368.44 158.15 367.93 158.15 367.41C158.15 366.89 157.7 366.38 156.68 366.38C156.37 366.38 156.03 366.42 155.7 366.48C155.98 366.29 156.24 366.08 156.46 365.86C157.18 365.14 157.13 364.46 156.77 364.1C156.41 363.74 155.73 363.69 155.01 364.41C154.79 364.63 154.58 364.89 154.39 365.17C154.45 364.84 154.49 364.51 154.49 364.19C154.49 363.17 153.98 362.72 153.46 362.72Z" fill="#FFFF00"/>
<path d="M331.65 160.94C331.14 160.94 330.62 161.39 330.62 162.41C330.62 162.72 330.66 163.06 330.72 163.39C330.53 163.11 330.32 162.85 330.1 162.63C329.38 161.91 328.7 161.96 328.34 162.32C327.98 162.68 327.93 163.36 328.65 164.08C328.87 164.3 329.13 164.51 329.41 164.7C329.08 164.64 328.75 164.6 328.43 164.6C327.41 164.6 326.96 165.11 326.96 165.63C326.96 166.14 327.41 166.66 328.43 166.66C328.74 166.66 329.08 166.62 329.41 166.56C329.13 166.75 328.87 166.96 328.65 167.18C327.93 167.9 327.98 168.58 328.34 168.94C328.7 169.3 329.38 169.35 330.1 168.63C330.32 168.41 330.53 168.15 330.72 167.87C330.66 168.2 330.62 168.53 330.62 168.85C330.62 169.87 331.13 170.32 331.65 170.32C332.17 170.32 332.68 169.87 332.68 168.85C332.68 168.54 332.64 168.2 332.58 167.87C332.77 168.15 332.98 168.41 333.2 168.63C333.92 169.35 334.6 169.3 334.96 168.94C335.32 168.58 335.37 167.9 334.65 167.18C334.43 166.96 334.17 166.75 333.89 166.56C334.22 166.62 334.55 166.66 334.87 166.66C335.89 166.66 336.34 166.15 336.34 165.63C336.34 165.12 335.89 164.6 334.87 164.6C334.56 164.6 334.22 164.64 333.89 164.7C334.17 164.51 334.43 164.3 334.65 164.08C335.37 163.36 335.32 162.68 334.96 162.32C334.6 161.96 333.92 161.91 333.2 162.63C332.98 162.85 332.77 163.11 332.58 163.39C332.64 163.06 332.68 162.73 332.68 162.41C332.68 161.38 332.17 160.94 331.65 160.94Z" fill="#FFFF00"/>
<path d="M361.98 138.04C361.47 138.04 360.95 138.49 360.95 139.51C360.95 139.82 360.99 140.16 361.05 140.49C360.86 140.21 360.65 139.95 360.43 139.73C359.71 139.01 359.03 139.06 358.67 139.42C358.31 139.78 358.26 140.46 358.98 141.18C359.2 141.4 359.46 141.61 359.74 141.8C359.41 141.74 359.08 141.7 358.76 141.7C357.74 141.7 357.29 142.21 357.29 142.73C357.29 143.25 357.74 143.76 358.76 143.76C359.07 143.76 359.41 143.72 359.74 143.66C359.46 143.85 359.2 144.06 358.98 144.28C358.26 145 358.31 145.68 358.67 146.04C359.03 146.4 359.71 146.45 360.43 145.73C360.65 145.51 360.86 145.25 361.05 144.97C360.99 145.3 360.95 145.63 360.95 145.95C360.95 146.97 361.46 147.42 361.98 147.42C362.5 147.42 363.01 146.97 363.01 145.95C363.01 145.64 362.97 145.3 362.91 144.97C363.1 145.25 363.31 145.51 363.53 145.73C364.25 146.45 364.93 146.4 365.29 146.04C365.65 145.68 365.7 145 364.98 144.28C364.76 144.06 364.5 143.85 364.22 143.66C364.55 143.72 364.88 143.76 365.2 143.76C366.22 143.76 366.67 143.25 366.67 142.73C366.67 142.21 366.22 141.7 365.2 141.7C364.89 141.7 364.55 141.74 364.22 141.8C364.5 141.61 364.76 141.4 364.98 141.18C365.7 140.46 365.65 139.78 365.29 139.42C364.93 139.06 364.25 139.01 363.53 139.73C363.31 139.95 363.1 140.21 362.91 140.49C362.97 140.16 363.01 139.83 363.01 139.51C363.01 138.48 362.49 138.04 361.98 138.04Z" fill="#FFFF00"/>
<path d="M305.08 104.06C304.57 104.06 304.05 104.51 304.05 105.53C304.05 105.84 304.09 106.18 304.15 106.51C303.96 106.23 303.75 105.97 303.53 105.75C302.81 105.03 302.13 105.08 301.77 105.44C301.41 105.8 301.36 106.48 302.08 107.2C302.3 107.42 302.56 107.63 302.84 107.82C302.51 107.76 302.18 107.72 301.86 107.72C300.84 107.72 300.39 108.23 300.39 108.75C300.39 109.26 300.84 109.78 301.86 109.78C302.17 109.78 302.51 109.74 302.84 109.68C302.56 109.87 302.3 110.08 302.08 110.3C301.36 111.02 301.41 111.7 301.77 112.06C302.13 112.42 302.81 112.47 303.53 111.75C303.75 111.53 303.96 111.27 304.15 110.99C304.09 111.32 304.05 111.65 304.05 111.97C304.05 112.99 304.56 113.44 305.08 113.44C305.6 113.44 306.11 112.99 306.11 111.97C306.11 111.66 306.07 111.32 306.01 110.99C306.2 111.27 306.41 111.53 306.63 111.75C307.35 112.47 308.03 112.42 308.39 112.06C308.75 111.7 308.8 111.02 308.08 110.3C307.86 110.08 307.6 109.87 307.32 109.68C307.65 109.74 307.98 109.78 308.3 109.78C309.32 109.78 309.77 109.27 309.77 108.75C309.77 108.24 309.32 107.72 308.3 107.72C307.99 107.72 307.65 107.76 307.32 107.82C307.6 107.63 307.86 107.42 308.08 107.2C308.8 106.48 308.75 105.8 308.39 105.44C308.03 105.08 307.35 105.03 306.63 105.75C306.41 105.97 306.2 106.23 306.01 106.51C306.07 106.18 306.11 105.85 306.11 105.53C306.11 104.5 305.59 104.06 305.08 104.06Z" fill="#FFFF00"/>
<path d="M168.2 160.94C167.69 160.94 167.17 161.39 167.17 162.41C167.17 162.72 167.21 163.06 167.27 163.39C167.08 163.11 166.87 162.85 166.65 162.63C165.93 161.91 165.25 161.96 164.89 162.32C164.53 162.68 164.48 163.36 165.2 164.08C165.42 164.3 165.68 164.51 165.96 164.7C165.63 164.64 165.3 164.6 164.98 164.6C163.96 164.6 163.51 165.11 163.51 165.63C163.51 166.14 163.96 166.66 164.98 166.66C165.29 166.66 165.63 166.62 165.96 166.56C165.68 166.75 165.42 166.96 165.2 167.18C164.48 167.9 164.53 168.58 164.89 168.94C165.25 169.3 165.93 169.35 166.65 168.63C166.87 168.41 167.08 168.15 167.27 167.87C167.21 168.2 167.17 168.53 167.17 168.85C167.17 169.87 167.68 170.32 168.2 170.32C168.72 170.32 169.23 169.87 169.23 168.85C169.23 168.54 169.19 168.2 169.13 167.87C169.32 168.15 169.53 168.41 169.75 168.63C170.47 169.35 171.15 169.3 171.51 168.94C171.87 168.58 171.92 167.9 171.2 167.18C170.98 166.96 170.72 166.75 170.44 166.56C170.77 166.62 171.1 166.66 171.42 166.66C172.44 166.66 172.89 166.15 172.89 165.63C172.89 165.12 172.44 164.6 171.42 164.6C171.11 164.6 170.77 164.64 170.44 164.7C170.72 164.51 170.98 164.3 171.2 164.08C171.92 163.36 171.87 162.68 171.51 162.32C171.15 161.96 170.47 161.91 169.75 162.63C169.53 162.85 169.32 163.11 169.13 163.39C169.19 163.06 169.23 162.73 169.23 162.41C169.23 161.38 168.72 160.94 168.2 160.94Z" fill="#FFFF00"/>
<path d="M262.55 365.06C262.04 365.06 261.52 365.51 261.52 366.53C261.52 366.84 261.56 367.18 261.62 367.51C261.43 367.23 261.22 366.97 261 366.75C260.28 366.03 259.6 366.08 259.24 366.44C258.88 366.8 258.83 367.48 259.55 368.2C259.77 368.42 260.03 368.63 260.31 368.82C259.98 368.76 259.65 368.72 259.33 368.72C258.31 368.72 257.86 369.23 257.86 369.75C257.86 370.27 258.31 370.78 259.33 370.78C259.64 370.78 259.98 370.74 260.31 370.68C260.03 370.87 259.77 371.08 259.55 371.3C258.83 372.02 258.88 372.7 259.24 373.06C259.6 373.42 260.28 373.47 261 372.75C261.22 372.53 261.43 372.27 261.62 371.99C261.56 372.32 261.52 372.65 261.52 372.97C261.52 373.99 262.03 374.44 262.55 374.44C263.07 374.44 263.58 373.99 263.58 372.97C263.58 372.66 263.54 372.32 263.48 371.99C263.67 372.27 263.88 372.53 264.1 372.75C264.82 373.47 265.5 373.42 265.86 373.06C266.22 372.7 266.27 372.02 265.55 371.3C265.33 371.08 265.07 370.87 264.79 370.68C265.12 370.74 265.45 370.78 265.77 370.78C266.79 370.78 267.24 370.27 267.24 369.75C267.24 369.24 266.79 368.72 265.77 368.72C265.46 368.72 265.12 368.76 264.79 368.82C265.07 368.63 265.33 368.42 265.55 368.2C266.27 367.48 266.22 366.8 265.86 366.44C265.5 366.08 264.82 366.03 264.1 366.75C263.88 366.97 263.67 367.23 263.48 367.51C263.54 367.18 263.58 366.85 263.58 366.53C263.57 365.5 263.06 365.06 262.55 365.06Z" fill="#FFFF00"/>
<path d="M107.35 265.3C106.84 265.3 106.32 265.75 106.32 266.77C106.32 267.08 106.36 267.42 106.42 267.75C106.23 267.47 106.02 267.21 105.8 266.99C105.08 266.27 104.4 266.32 104.04 266.68C103.68 267.04 103.63 267.72 104.35 268.44C104.57 268.66 104.83 268.87 105.11 269.06C104.78 269 104.45 268.96 104.13 268.96C103.11 268.96 102.66 269.47 102.66 269.99C102.66 270.51 103.11 271.02 104.13 271.02C104.44 271.02 104.78 270.98 105.11 270.92C104.83 271.11 104.57 271.32 104.35 271.54C103.63 272.26 103.68 272.94 104.04 273.3C104.4 273.66 105.08 273.71 105.8 272.99C106.02 272.77 106.23 272.51 106.42 272.23C106.36 272.56 106.32 272.89 106.32 273.21C106.32 274.23 106.83 274.68 107.35 274.68C107.86 274.68 108.38 274.23 108.38 273.21C108.38 272.9 108.34 272.56 108.28 272.23C108.47 272.51 108.68 272.77 108.9 272.99C109.62 273.71 110.3 273.66 110.66 273.3C111.02 272.94 111.07 272.26 110.35 271.54C110.13 271.32 109.87 271.11 109.59 270.92C109.92 270.98 110.25 271.02 110.57 271.02C111.59 271.02 112.04 270.51 112.04 269.99C112.04 269.47 111.59 268.96 110.57 268.96C110.26 268.96 109.92 269 109.59 269.06C109.87 268.87 110.13 268.66 110.35 268.44C111.07 267.72 111.02 267.04 110.66 266.68C110.3 266.32 109.62 266.27 108.9 266.99C108.68 267.21 108.47 267.47 108.28 267.75C108.34 267.42 108.38 267.09 108.38 266.77C108.38 265.75 107.87 265.3 107.35 265.3Z" fill="#FFFF00"/>
<path d="M172.89 208.69C172.38 208.69 171.86 209.14 171.86 210.16C171.86 210.47 171.9 210.81 171.96 211.14C171.77 210.86 171.56 210.6 171.34 210.38C170.62 209.66 169.94 209.71 169.58 210.07C169.22 210.43 169.17 211.11 169.89 211.83C170.11 212.05 170.37 212.26 170.65 212.45C170.32 212.39 169.99 212.35 169.67 212.35C168.65 212.35 168.2 212.86 168.2 213.38C168.2 213.9 168.65 214.41 169.67 214.41C169.98 214.41 170.32 214.37 170.65 214.31C170.37 214.5 170.11 214.71 169.89 214.93C169.17 215.65 169.22 216.33 169.58 216.69C169.94 217.05 170.62 217.1 171.34 216.38C171.56 216.16 171.77 215.9 171.96 215.62C171.9 215.95 171.86 216.28 171.86 216.6C171.86 217.62 172.37 218.07 172.89 218.07C173.4 218.07 173.92 217.62 173.92 216.6C173.92 216.29 173.88 215.95 173.82 215.62C174.01 215.9 174.22 216.16 174.44 216.38C175.16 217.1 175.84 217.05 176.2 216.69C176.56 216.33 176.61 215.65 175.89 214.93C175.67 214.71 175.41 214.5 175.13 214.31C175.46 214.37 175.79 214.41 176.11 214.41C177.13 214.41 177.58 213.9 177.58 213.38C177.58 212.86 177.13 212.35 176.11 212.35C175.8 212.35 175.46 212.39 175.13 212.45C175.41 212.26 175.67 212.05 175.89 211.83C176.61 211.11 176.56 210.43 176.2 210.07C175.84 209.71 175.16 209.66 174.44 210.38C174.22 210.6 174.01 210.86 173.82 211.14C173.88 210.81 173.92 210.48 173.92 210.16C173.92 209.14 173.4 208.69 172.89 208.69Z" fill="#FFFF00"/>
<path d="M347.66 342.23C346.86 342.47 346.22 343.3 346.15 344.74C346.07 346.46 347.12 348.32 347.94 349.49C346.57 349.06 344.48 348.61 342.87 349.21C341.52 349.71 340.91 350.57 340.93 351.4C340.92 352.23 341.52 353.09 342.87 353.59C344.4 354.15 346.34 353.78 347.71 353.38C346.86 354.52 345.84 356.22 345.84 357.85C345.84 359.29 346.44 360.16 347.23 360.43C348.01 360.73 349.02 360.46 349.96 359.36C351.07 358.05 351.37 355.94 351.44 354.5C352.26 355.68 353.64 357.3 355.28 357.82C356.66 358.25 357.66 357.94 358.16 357.27C358.68 356.62 358.72 355.57 357.96 354.35C357.04 352.89 355.12 351.97 353.77 351.48C355.14 351.05 357.1 350.22 358.09 348.81C358.91 347.63 358.92 346.58 358.43 345.9C357.96 345.21 356.97 344.85 355.58 345.22C353.92 345.66 352.46 347.22 351.59 348.35C351.59 346.92 351.39 344.79 350.34 343.43C349.46 342.29 348.46 341.97 347.66 342.23Z" fill="white"/>
<path d="M261.05 281.71C260.38 281.55 259.59 281.89 258.95 282.89C258.19 284.08 258.19 285.84 258.3 287.01C257.5 286.15 256.19 284.98 254.8 284.74C253.63 284.54 252.85 284.91 252.52 285.51C252.17 286.1 252.25 286.96 253.02 287.87C253.88 288.89 255.42 289.42 256.56 289.69C255.49 290.16 254.07 290.96 253.41 292.12C252.82 293.15 252.9 294.01 253.35 294.53C253.78 295.06 254.62 295.28 255.73 294.88C257.06 294.4 258.13 293.01 258.76 292.02C258.87 293.19 259.19 294.92 260.15 295.95C260.96 296.82 261.8 297 262.43 296.73C263.07 296.48 263.53 295.74 263.47 294.56C263.41 293.15 262.41 291.71 261.65 290.81C262.8 291.06 264.54 291.27 265.82 290.66C266.89 290.15 267.32 289.4 267.25 288.72C267.2 288.04 266.64 287.38 265.49 287.07C264.12 286.7 262.45 287.23 261.36 287.68C261.94 286.66 262.67 285.06 262.47 283.66C262.31 282.48 261.72 281.84 261.05 281.71Z" fill="white"/>
<path d="M348.6 114.5C347.93 114.34 347.14 114.68 346.5 115.68C345.74 116.87 345.74 118.63 345.85 119.8C345.05 118.94 343.74 117.77 342.35 117.53C341.18 117.33 340.4 117.7 340.07 118.3C339.72 118.89 339.8 119.75 340.57 120.66C341.43 121.68 342.97 122.21 344.11 122.48C343.04 122.95 341.62 123.75 340.96 124.91C340.37 125.94 340.45 126.8 340.9 127.32C341.33 127.85 342.17 128.07 343.28 127.67C344.61 127.19 345.68 125.8 346.31 124.81C346.42 125.98 346.74 127.71 347.7 128.74C348.51 129.61 349.35 129.79 349.98 129.52C350.62 129.27 351.08 128.53 351.02 127.35C350.96 125.94 349.96 124.5 349.2 123.6C350.35 123.85 352.09 124.06 353.37 123.45C354.44 122.94 354.87 122.19 354.8 121.51C354.75 120.83 354.19 120.17 353.04 119.86C351.67 119.49 350 120.02 348.91 120.47C349.49 119.45 350.22 117.85 350.02 116.45C349.86 115.27 349.28 114.64 348.6 114.5Z" fill="white"/>
<path d="M231.93 93.62C231.26 93.46 230.47 93.8001 229.83 94.8001C229.07 95.9901 229.07 97.7501 229.18 98.9201C228.38 98.0601 227.07 96.8901 225.68 96.6501C224.51 96.4501 223.73 96.8201 223.4 97.4201C223.05 98.0101 223.13 98.8701 223.9 99.7801C224.76 100.8 226.3 101.33 227.44 101.6C226.37 102.07 224.95 102.87 224.29 104.03C223.7 105.06 223.78 105.92 224.23 106.44C224.66 106.97 225.5 107.19 226.61 106.79C227.94 106.31 229.01 104.92 229.64 103.93C229.75 105.1 230.07 106.83 231.03 107.86C231.84 108.73 232.68 108.91 233.31 108.64C233.95 108.39 234.41 107.65 234.35 106.47C234.29 105.06 233.29 103.62 232.53 102.72C233.68 102.97 235.42 103.18 236.7 102.57C237.77 102.06 238.2 101.31 238.13 100.63C238.08 99.9501 237.52 99.29 236.37 98.98C235 98.61 233.33 99.14 232.24 99.59C232.82 98.57 233.55 96.97 233.35 95.57C233.19 94.39 232.6 93.75 231.93 93.62Z" fill="white"/>
<path d="M347.01 283.12C346.34 283.27 345.77 283.91 345.62 285.09C345.45 286.49 346.2 288.08 346.8 289.09C345.71 288.65 344.02 288.16 342.66 288.55C341.52 288.88 340.97 289.54 340.93 290.23C340.87 290.91 341.31 291.65 342.39 292.14C343.61 292.69 345.22 292.51 346.37 292.26C345.6 293.14 344.67 294.47 344.57 295.81C344.48 296.99 344.92 297.74 345.55 298.01C346.17 298.3 347.02 298.14 347.85 297.3C348.84 296.29 349.22 294.58 349.36 293.41C349.96 294.42 350.99 295.84 352.31 296.36C353.41 296.8 354.25 296.6 354.7 296.08C355.17 295.58 355.27 294.72 354.71 293.67C354.05 292.42 352.53 291.55 351.45 291.07C352.6 290.8 354.26 290.24 355.15 289.14C355.9 288.22 355.96 287.36 355.6 286.78C355.26 286.18 354.47 285.83 353.31 286.05C351.92 286.31 350.63 287.5 349.85 288.38C349.94 287.21 349.9 285.45 349.12 284.27C348.48 283.27 347.67 282.95 347.01 283.12Z" fill="white"/>
<path d="M339.85 230.14C339.17 230.02 338.4 230.4 337.82 231.44C337.13 232.67 337.23 234.43 337.4 235.59C336.55 234.77 335.18 233.68 333.77 233.53C332.59 233.4 331.83 233.81 331.54 234.43C331.22 235.04 331.36 235.89 332.17 236.75C333.09 237.72 334.66 238.16 335.81 238.36C334.77 238.89 333.4 239.77 332.81 240.97C332.28 242.03 332.41 242.89 332.89 243.38C333.35 243.89 334.2 244.06 335.29 243.59C336.59 243.03 337.58 241.59 338.15 240.56C338.32 241.72 338.75 243.43 339.77 244.41C340.62 245.23 341.48 245.37 342.09 245.06C342.71 244.77 343.13 244.01 343.01 242.83C342.87 241.42 341.79 240.04 340.98 239.19C342.14 239.37 343.89 239.48 345.13 238.8C346.17 238.23 346.56 237.46 346.44 236.78C346.35 236.1 345.75 235.48 344.59 235.24C343.21 234.95 341.56 235.57 340.51 236.09C341.03 235.04 341.66 233.4 341.39 232.01C341.15 230.84 340.53 230.23 339.85 230.14Z" fill="white"/>
<path d="M126.81 339.12C126.14 339.27 125.57 339.91 125.42 341.09C125.25 342.49 126 344.08 126.6 345.09C125.51 344.65 123.82 344.16 122.46 344.55C121.32 344.88 120.77 345.54 120.73 346.23C120.67 346.91 121.11 347.65 122.19 348.14C123.41 348.69 125.02 348.51 126.17 348.26C125.4 349.14 124.47 350.47 124.37 351.81C124.28 352.99 124.72 353.74 125.35 354.01C125.97 354.3 126.82 354.14 127.65 353.3C128.64 352.29 129.02 350.58 129.16 349.41C129.76 350.42 130.79 351.84 132.11 352.36C133.21 352.8 134.05 352.6 134.5 352.08C134.97 351.58 135.07 350.72 134.51 349.67C133.85 348.42 132.33 347.55 131.25 347.07C132.4 346.8 134.06 346.24 134.95 345.14C135.7 344.22 135.76 343.36 135.4 342.78C135.06 342.18 134.27 341.83 133.11 342.05C131.72 342.31 130.43 343.5 129.65 344.38C129.74 343.21 129.7 341.45 128.92 340.27C128.28 339.27 127.48 338.95 126.81 339.12Z" fill="white"/>
<path d="M310.24 364.95C309.83 365.04 309.49 365.43 309.4 366.14C309.3 366.99 309.75 367.95 310.12 368.56C309.46 368.3 308.44 368 307.61 368.23C306.92 368.43 306.59 368.83 306.56 369.25C306.52 369.66 306.79 370.11 307.44 370.41C308.18 370.74 309.16 370.63 309.85 370.48C309.39 371.01 308.82 371.82 308.76 372.63C308.71 373.35 308.97 373.8 309.35 373.96C309.73 374.14 310.24 374.04 310.74 373.53C311.34 372.92 311.57 371.88 311.65 371.17C312.01 371.78 312.64 372.64 313.44 372.96C314.11 373.22 314.62 373.11 314.89 372.79C315.17 372.49 315.23 371.97 314.9 371.33C314.5 370.57 313.58 370.05 312.93 369.75C313.62 369.59 314.63 369.25 315.17 368.58C315.62 368.02 315.66 367.5 315.45 367.15C315.24 366.79 314.77 366.58 314.06 366.71C313.22 366.87 312.44 367.59 311.96 368.12C312.01 367.41 311.99 366.35 311.52 365.63C311.13 365.05 310.64 364.85 310.24 364.95Z" fill="white"/>
<path d="M125.42 149.37C124.8 149.5 124.28 150.1 124.14 151.18C123.98 152.47 124.67 153.93 125.23 154.86C124.22 154.46 122.67 154 121.42 154.36C120.37 154.66 119.87 155.27 119.83 155.9C119.77 156.53 120.18 157.21 121.17 157.66C122.29 158.17 123.78 158 124.83 157.77C124.12 158.58 123.26 159.81 123.17 161.03C123.09 162.12 123.49 162.8 124.07 163.05C124.64 163.32 125.42 163.17 126.19 162.39C127.1 161.46 127.45 159.89 127.58 158.81C128.13 159.74 129.08 161.05 130.29 161.53C131.3 161.93 132.08 161.75 132.49 161.28C132.92 160.82 133.01 160.03 132.5 159.06C131.89 157.91 130.49 157.11 129.5 156.66C130.56 156.41 132.09 155.9 132.91 154.89C133.6 154.04 133.66 153.25 133.33 152.71C133.02 152.16 132.29 151.84 131.22 152.04C129.94 152.28 128.76 153.37 128.03 154.18C128.11 153.1 128.08 151.49 127.36 150.4C126.77 149.51 126.03 149.21 125.42 149.37Z" fill="white"/>
<path d="M111.12 203.46C110.5 203.59 109.98 204.19 109.84 205.27C109.68 206.56 110.37 208.02 110.93 208.95C109.92 208.55 108.37 208.09 107.12 208.45C106.07 208.75 105.57 209.36 105.53 209.99C105.47 210.62 105.88 211.3 106.87 211.75C107.99 212.26 109.48 212.09 110.53 211.86C109.82 212.67 108.96 213.9 108.87 215.12C108.79 216.21 109.19 216.89 109.77 217.14C110.34 217.41 111.12 217.26 111.89 216.48C112.8 215.55 113.15 213.98 113.28 212.9C113.83 213.83 114.78 215.14 115.99 215.62C117 216.02 117.78 215.84 118.19 215.37C118.62 214.91 118.71 214.12 118.2 213.15C117.59 212 116.19 211.2 115.2 210.75C116.26 210.5 117.79 209.99 118.61 208.98C119.3 208.13 119.36 207.34 119.03 206.8C118.72 206.25 117.99 205.93 116.92 206.13C115.64 206.37 114.46 207.46 113.73 208.27C113.81 207.19 113.78 205.58 113.06 204.49C112.47 203.6 111.74 203.3 111.12 203.46Z" fill="white"/>
<path d="M145.82 115.44C144.95 115.19 143.88 115.57 142.97 116.84C141.89 118.36 141.75 120.66 141.81 122.21C140.82 121.02 139.18 119.38 137.37 118.98C135.85 118.64 134.79 119.07 134.31 119.83C133.81 120.58 133.85 121.72 134.79 122.97C135.85 124.38 137.84 125.18 139.31 125.62C137.87 126.16 135.94 127.11 134.99 128.59C134.15 129.9 134.18 131.04 134.74 131.75C135.27 132.48 136.36 132.83 137.85 132.38C139.63 131.84 141.15 130.09 142.05 128.83C142.11 130.38 142.41 132.67 143.6 134.1C144.6 135.3 145.69 135.61 146.54 135.29C147.4 135 148.05 134.07 148.07 132.51C148.09 130.65 146.88 128.68 145.94 127.44C147.44 127.85 149.71 128.25 151.43 127.55C152.87 126.96 153.5 126 153.45 125.1C153.43 124.2 152.74 123.29 151.26 122.81C149.49 122.23 147.25 122.8 145.79 123.32C146.63 122.02 147.7 119.97 147.54 118.11C147.42 116.54 146.69 115.66 145.82 115.44Z" fill="white"/>
<path d="M100.94 128.29C100.51 128.46 100.19 128.96 100.23 129.76C100.27 130.72 100.95 131.7 101.47 132.32C100.69 132.15 99.4998 132 98.6298 132.41C97.8998 132.75 97.6098 133.26 97.6598 133.73C97.6898 134.2 98.0698 134.64 98.8498 134.85C99.7298 135.09 100.79 134.78 101.53 134.49C101.11 135.17 100.63 136.17 100.71 137.07C100.78 137.87 101.16 138.32 101.61 138.44C102.06 138.57 102.61 138.37 103.08 137.71C103.63 136.92 103.7 135.73 103.66 134.93C104.18 135.54 105.03 136.38 105.97 136.59C106.76 136.76 107.3 136.54 107.55 136.14C107.81 135.75 107.78 135.16 107.29 134.52C106.71 133.75 105.59 133.34 104.81 133.13C105.55 132.82 106.6 132.26 107.08 131.43C107.48 130.73 107.43 130.14 107.12 129.79C106.83 129.43 106.26 129.28 105.5 129.55C104.6 129.88 103.86 130.82 103.43 131.49C103.36 130.69 103.14 129.52 102.49 128.81C101.94 128.24 101.36 128.11 100.94 128.29Z" fill="white"/>
<path d="M192.35 296.01C191.92 296.18 191.6 296.68 191.64 297.48C191.68 298.44 192.36 299.42 192.88 300.04C192.1 299.87 190.91 299.72 190.04 300.13C189.31 300.47 189.02 300.98 189.07 301.45C189.1 301.92 189.48 302.36 190.26 302.57C191.14 302.81 192.2 302.5 192.94 302.21C192.52 302.89 192.04 303.89 192.12 304.79C192.19 305.59 192.57 306.04 193.02 306.16C193.47 306.29 194.02 306.09 194.49 305.43C195.04 304.64 195.11 303.45 195.07 302.65C195.59 303.26 196.44 304.1 197.38 304.31C198.17 304.48 198.71 304.26 198.96 303.86C199.22 303.47 199.19 302.88 198.7 302.24C198.12 301.47 197 301.06 196.22 300.85C196.96 300.54 198.01 299.98 198.49 299.15C198.89 298.45 198.84 297.86 198.53 297.51C198.24 297.15 197.67 297 196.91 297.27C196.01 297.6 195.27 298.54 194.84 299.21C194.77 298.41 194.55 297.24 193.9 296.53C193.35 295.95 192.77 295.82 192.35 296.01Z" fill="white"/>
<path d="M312.49 208.32C312.06 208.49 311.74 208.99 311.78 209.79C311.82 210.75 312.5 211.73 313.02 212.35C312.24 212.18 311.05 212.03 310.18 212.44C309.45 212.78 309.16 213.29 309.21 213.76C309.24 214.23 309.62 214.67 310.4 214.88C311.28 215.12 312.34 214.81 313.08 214.52C312.66 215.2 312.18 216.2 312.26 217.1C312.33 217.9 312.71 218.35 313.16 218.47C313.61 218.6 314.16 218.4 314.63 217.74C315.18 216.95 315.25 215.76 315.21 214.96C315.73 215.57 316.58 216.41 317.52 216.62C318.31 216.79 318.85 216.57 319.1 216.17C319.36 215.78 319.33 215.19 318.84 214.55C318.26 213.78 317.14 213.37 316.36 213.16C317.1 212.85 318.15 212.29 318.63 211.46C319.03 210.76 318.98 210.17 318.67 209.82C318.38 209.46 317.81 209.31 317.05 209.58C316.15 209.91 315.41 210.85 314.98 211.52C314.91 210.72 314.69 209.55 314.04 208.84C313.49 208.26 312.92 208.13 312.49 208.32Z" fill="white"/>
<path d="M134.69 296.01C134.26 296.18 133.94 296.68 133.98 297.48C134.02 298.44 134.7 299.42 135.22 300.04C134.44 299.87 133.25 299.72 132.38 300.13C131.65 300.47 131.36 300.98 131.41 301.45C131.44 301.92 131.82 302.36 132.6 302.57C133.48 302.81 134.54 302.5 135.28 302.21C134.86 302.89 134.38 303.89 134.46 304.79C134.53 305.59 134.91 306.04 135.36 306.16C135.81 306.29 136.36 306.09 136.83 305.43C137.38 304.64 137.45 303.45 137.41 302.65C137.93 303.26 138.78 304.1 139.72 304.31C140.51 304.48 141.05 304.26 141.3 303.86C141.56 303.47 141.53 302.88 141.04 302.24C140.46 301.47 139.34 301.06 138.56 300.85C139.3 300.54 140.35 299.98 140.83 299.15C141.23 298.45 141.18 297.86 140.87 297.51C140.58 297.15 140.01 297 139.25 297.27C138.35 297.6 137.61 298.54 137.18 299.21C137.11 298.41 136.89 297.24 136.24 296.53C135.7 295.95 135.12 295.82 134.69 296.01Z" fill="white"/>
<path d="M367.63 187.13C367.2 187.3 366.88 187.8 366.92 188.6C366.96 189.56 367.64 190.54 368.16 191.16C367.38 190.99 366.19 190.84 365.32 191.25C364.59 191.59 364.3 192.1 364.35 192.57C364.38 193.04 364.76 193.48 365.54 193.69C366.42 193.93 367.48 193.62 368.22 193.33C367.8 194.01 367.32 195.01 367.4 195.91C367.47 196.71 367.85 197.16 368.3 197.28C368.75 197.41 369.3 197.21 369.77 196.55C370.32 195.76 370.39 194.57 370.35 193.77C370.87 194.38 371.72 195.22 372.66 195.43C373.45 195.6 373.99 195.38 374.24 194.98C374.5 194.59 374.47 194 373.98 193.36C373.4 192.59 372.28 192.18 371.5 191.97C372.24 191.66 373.29 191.1 373.77 190.27C374.17 189.57 374.12 188.98 373.81 188.63C373.52 188.27 372.95 188.12 372.19 188.39C371.29 188.72 370.55 189.66 370.12 190.33C370.05 189.53 369.83 188.36 369.18 187.65C368.63 187.07 368.06 186.94 367.63 187.13Z" fill="white"/>
<path d="M360.25 317.44C359.82 317.61 359.5 318.11 359.54 318.91C359.58 319.87 360.26 320.85 360.78 321.47C360 321.3 358.81 321.15 357.94 321.56C357.21 321.9 356.92 322.41 356.97 322.88C357 323.35 357.38 323.79 358.16 324C359.04 324.24 360.1 323.93 360.84 323.64C360.42 324.32 359.94 325.32 360.02 326.22C360.09 327.02 360.47 327.47 360.92 327.59C361.37 327.72 361.92 327.52 362.39 326.86C362.94 326.07 363.01 324.88 362.97 324.08C363.49 324.69 364.34 325.53 365.28 325.74C366.07 325.91 366.61 325.69 366.86 325.29C367.12 324.9 367.09 324.31 366.6 323.67C366.02 322.9 364.9 322.49 364.12 322.28C364.86 321.97 365.91 321.41 366.39 320.58C366.79 319.88 366.74 319.29 366.43 318.94C366.14 318.58 365.57 318.43 364.81 318.7C363.91 319.03 363.17 319.97 362.74 320.64C362.67 319.84 362.45 318.67 361.8 317.96C361.25 317.38 360.67 317.25 360.25 317.44Z" fill="white"/>
<path d="M325.23 96.1C324.8 96.27 324.48 96.77 324.52 97.57C324.56 98.53 325.24 99.51 325.76 100.13C324.98 99.96 323.79 99.81 322.92 100.22C322.19 100.56 321.9 101.07 321.95 101.54C321.98 102.01 322.36 102.45 323.14 102.66C324.02 102.9 325.08 102.59 325.82 102.3C325.4 102.98 324.92 103.98 325 104.88C325.07 105.68 325.45 106.13 325.9 106.25C326.35 106.38 326.9 106.18 327.37 105.52C327.92 104.73 327.99 103.54 327.95 102.74C328.47 103.35 329.32 104.19 330.26 104.4C331.05 104.57 331.59 104.35 331.84 103.95C332.1 103.56 332.07 102.97 331.58 102.33C331 101.56 329.88 101.15 329.1 100.94C329.84 100.63 330.89 100.07 331.37 99.24C331.77 98.54 331.72 97.95 331.41 97.6C331.12 97.24 330.55 97.09 329.79 97.36C328.89 97.69 328.15 98.6301 327.72 99.3001C327.65 98.5001 327.43 97.33 326.78 96.62C326.24 96.05 325.66 95.92 325.23 96.1Z" fill="white"/>
<path d="M258.05 137.32C257.62 137.49 257.3 137.99 257.34 138.79C257.38 139.75 258.06 140.73 258.58 141.35C257.8 141.18 256.61 141.03 255.74 141.44C255.01 141.78 254.72 142.29 254.77 142.76C254.8 143.23 255.18 143.67 255.96 143.88C256.84 144.12 257.9 143.81 258.64 143.52C258.22 144.2 257.74 145.2 257.82 146.1C257.89 146.9 258.27 147.35 258.72 147.47C259.17 147.6 259.72 147.4 260.19 146.74C260.74 145.95 260.81 144.76 260.77 143.96C261.29 144.57 262.14 145.41 263.08 145.62C263.87 145.79 264.41 145.57 264.66 145.17C264.92 144.78 264.89 144.19 264.4 143.55C263.82 142.78 262.7 142.37 261.92 142.16C262.66 141.85 263.71 141.29 264.19 140.46C264.59 139.76 264.54 139.17 264.23 138.82C263.94 138.46 263.37 138.31 262.61 138.58C261.71 138.91 260.97 139.85 260.54 140.52C260.47 139.72 260.25 138.55 259.6 137.84C259.05 137.27 258.48 137.14 258.05 137.32Z" fill="white"/>
</svg>
