<svg width="475" height="475" viewBox="0 0 475 475" fill="none" xmlns="http://www.w3.org/2000/svg">
<path opacity="0.1" d="M470.44 330.05C470.44 318.06 467.75 306.7 462.94 296.54C459.56 289.39 458.56 281.38 459.88 273.58C460.41 270.45 460.69 267.24 460.69 263.96C460.69 253.35 457.82 243.42 452.81 234.89C447.88 226.5 446.4 216.61 448.43 207.1C449.09 203.99 449.44 200.76 449.44 197.45C449.44 192.36 448.62 187.46 447.1 182.88C444.93 176.33 444.5 169.37 445.93 162.61C446.71 158.92 447.12 155.1 447.12 151.17C447.12 145.96 446.4 140.93 445.05 136.15C443.04 129.04 443.14 121.46 445.42 114.43C447.48 108.09 448.6 101.31 448.6 94.28C448.6 58.32 419.44 29.16 383.48 29.16C383.27 29.16 383.06 29.1701 382.85 29.1801C377.76 25.7301 371.63 23.72 365.02 23.72C364.99 23.72 364.96 23.72 364.93 23.72C359.37 23.74 353.99 21.9201 349.65 18.4401C336.77 8.14006 320.45 1.96997 302.67 1.96997C285.8 1.96997 270.23 7.53003 257.68 16.91C252.88 20.5 246.84 22.04 240.9 21.22C238.68 20.91 236.41 20.75 234.11 20.75C228.34 20.75 222.81 21.74 217.66 23.55C210.57 26.05 202.73 25.12 196.63 20.73C184.71 12.16 170.1 7.09998 154.3 7.09998C129.25 7.09998 107.17 19.7801 94.1199 39.0701C89.6099 45.7401 82.13 49.78 74.08 49.52C71.51 49.43 68.8999 49.5 66.2499 49.74C35.1199 52.51 10.4099 78.08 8.66992 109.28C8.25992 116.6 9.10994 123.66 10.9999 130.28C12.5899 135.83 11.9399 141.75 9.41992 146.95C5.72992 154.58 3.6499 163.14 3.6499 172.18C3.6499 181.84 6.00994 190.95 10.1899 198.96C15.7299 209.59 17.0099 221.88 14.6699 233.65C13.8099 237.97 13.3599 242.43 13.3599 247C13.3599 252.73 14.0699 258.29 15.3999 263.6C17.8399 273.32 17.3299 283.58 14.1599 293.09C12.1399 299.14 11.0499 305.61 11.0499 312.35C11.0499 323.39 13.9899 333.74 19.1299 342.66C25.3699 353.49 28.3499 366 26.6199 378.38C26.2299 381.14 26.0299 383.97 26.0299 386.84C26.0299 420.45 53.2799 447.69 86.8799 447.69C87.6199 447.69 88.3699 447.68 89.0999 447.65C98.4799 447.31 107.6 450.31 114.87 456.23C127.04 466.15 142.56 472.1 159.48 472.1C169.72 472.1 179.45 469.92 188.23 465.99C196.08 462.48 204.9 461.53 213.21 463.73C219.13 465.3 225.35 466.13 231.77 466.13C242.54 466.13 252.75 463.77 261.92 459.55C269.16 456.22 277.25 455.42 285.03 457.15C290.95 458.47 297.1 459.17 303.42 459.17C317.64 459.17 331.04 455.66 342.8 449.46C349.95 445.69 358.07 444.37 366.07 445.56C368.87 445.98 371.73 446.19 374.65 446.19C397.73 446.19 417.66 432.73 427.02 413.23C431.87 403.14 438.65 394.1 446.67 386.29C461.34 372.04 470.44 352.11 470.44 330.05Z" fill="#325766"/>
<path opacity="0.22" d="M444.12 324.07C444.12 314.04 441.74 304.57 437.52 296.19C433.22 287.65 432.17 277.72 435.01 268.59C435.99 265.45 436.52 262.11 436.52 258.65C436.52 254.15 435.63 249.86 434.02 245.94C429.85 235.79 429.89 224.52 433.45 214.15C434.96 209.75 435.79 205.02 435.79 200.1C435.79 189.21 431.76 179.27 425.12 171.66C422.63 168.81 422.12 164.78 423.62 161.31C425.27 157.49 426.19 153.29 426.19 148.86C426.19 142.67 424.39 136.9 421.3 132.04C418.46 127.57 417.65 122.17 419.16 117.09C420.43 112.83 421.12 108.32 421.12 103.65C421.12 82.97 407.77 65.42 389.21 59.12C386.76 58.29 384.67 56.57 383.52 54.25C378.66 44.42 368.54 37.66 356.83 37.66C356.8 37.66 356.78 37.66 356.75 37.66C351.55 37.67 346.52 35.98 342.46 32.73C330.42 23.1 315.16 17.33 298.54 17.33C284.5 17.33 271.42 21.45 260.44 28.54C253.24 33.19 244.74 35.24 236.17 34.92C235.59 34.9 235.02 34.89 234.43 34.89C230.16 34.89 226.03 35.47 222.11 36.55C210.83 39.66 198.88 38.69 187.82 34.88C182.39 33.01 176.57 31.99 170.5 31.99C157.12 31.99 144.89 36.93 135.54 45.08C133.71 46.67 131.32 47.42 128.9 47.33C128.47 47.31 128.03 47.3101 127.59 47.3101C117.14 47.3101 107.77 51.9101 101.39 59.2001C99.0998 61.8101 95.6697 63.05 92.2397 62.5C87.0097 61.66 81.5498 61.5 75.9398 62.14C48.2698 65.3 26.3198 87.79 23.8098 115.52C23.2298 121.94 23.6798 128.16 25.0098 134.06C26.6798 141.46 25.7298 149.16 22.8898 156.2C20.3598 162.46 18.9697 169.3 18.9697 176.47C18.9697 187.22 22.0997 197.24 27.4897 205.67C32.2097 213.04 33.5197 222.03 30.9297 230.39C29.3597 235.46 28.5197 240.84 28.5197 246.42C28.5197 254.76 30.4097 262.66 33.7697 269.72C36.2297 274.89 37.4497 283.67 36.3597 289.29C34.0397 301.18 28.7598 312.55 28.7598 320.28C28.7598 329.39 31.0198 337.97 34.9998 345.5C39.2598 353.55 41.0297 362.69 40.1697 371.75C39.9997 373.54 39.9097 375.35 39.9097 377.18C39.9097 408.6 65.3798 434.08 96.8098 434.08C99.9598 434.08 102.93 435.55 104.86 438.04C110.47 445.29 119.26 449.96 129.14 449.96C133.01 449.96 136.71 449.24 140.12 447.94C147.25 445.2 155.12 445.4 162.14 448.38C167.7 450.74 173.81 452.05 180.23 452.05C185.6 452.05 190.76 451.13 195.56 449.45C201.44 447.39 207.82 447.06 213.81 448.76C219.68 450.43 225.88 451.33 232.28 451.33C243.81 451.33 254.66 448.44 264.15 443.34C272.05 439.1 281.34 438.6 289.75 441.72C295.63 443.9 301.99 445.1 308.63 445.1C318.6 445.1 327.94 442.41 335.97 437.73C343.42 433.38 352.11 431.62 360.7 432.44C362.41 432.6 364.14 432.69 365.89 432.69C395.88 432.69 420.2 408.38 420.2 378.38C420.2 378.18 420.2 377.97 420.2 377.77C420.17 374.97 421.29 372.28 423.38 370.41C436.1 359.03 444.12 342.49 444.12 324.07Z" fill="#325766"/>
<path d="M435.63 320.5C435.63 310.87 433.35 301.78 429.29 293.73C425.16 285.53 424.15 276 426.88 267.23C427.82 264.21 428.32 261.01 428.32 257.68C428.32 253.36 427.47 249.24 425.92 245.48C421.91 235.74 421.95 224.92 425.37 214.96C426.82 210.73 427.61 206.2 427.61 201.48C427.61 191.03 423.74 181.48 417.37 174.18C414.98 171.44 414.49 167.58 415.93 164.24C417.52 160.58 418.4 156.54 418.4 152.29C418.4 146.35 416.68 140.8 413.7 136.14C410.97 131.85 410.2 126.66 411.65 121.79C412.87 117.7 413.53 113.37 413.53 108.88C413.53 89.03 400.71 72.18 382.9 66.13C380.55 65.33 378.54 63.69 377.44 61.46C372.77 52.03 363.06 45.54 351.82 45.54C351.79 45.54 351.77 45.54 351.74 45.54C346.75 45.55 341.92 43.92 338.02 40.8C326.46 31.55 311.81 26.01 295.85 26.01C282.37 26.01 269.81 29.96 259.27 36.77C252.35 41.23 244.2 43.21 235.97 42.9C235.42 42.88 234.86 42.87 234.3 42.87C230.2 42.87 226.24 43.43 222.47 44.46C211.64 47.45 200.17 46.51 189.55 42.85C184.34 41.05 178.75 40.08 172.92 40.08C160.07 40.08 148.33 44.82 139.35 52.65C137.59 54.18 135.3 54.9001 132.97 54.8101C132.55 54.7901 132.13 54.79 131.71 54.79C121.68 54.79 112.69 59.21 106.56 66.21C104.36 68.72 101.07 69.91 97.7797 69.38C92.7597 68.57 87.5097 68.42 82.1297 69.04C55.5697 72.08 34.4997 93.66 32.0797 120.29C31.5197 126.45 31.9497 132.43 33.2297 138.08C34.8297 145.18 33.9197 152.58 31.1897 159.33C28.7597 165.34 27.4297 171.91 27.4297 178.79C27.4297 189.11 30.4297 198.73 35.6097 206.83C40.1397 213.91 41.3997 222.53 38.9097 230.56C37.3997 235.42 36.5897 240.59 36.5897 245.95C36.5897 253.96 38.3997 261.54 41.6297 268.31C43.9897 273.27 45.1697 281.7 44.1097 287.1C41.8797 298.52 36.8097 309.43 36.8097 316.85C36.8097 325.6 38.9797 333.83 42.7997 341.06C46.8897 348.79 48.5897 357.56 47.7597 366.26C47.5997 367.98 47.5097 369.71 47.5097 371.47C47.5097 401.64 71.9697 426.1 102.14 426.1C105.17 426.1 108.01 427.51 109.86 429.9C115.25 436.86 123.68 441.35 133.17 441.35C136.88 441.35 140.44 440.66 143.71 439.41C150.55 436.78 158.11 436.97 164.85 439.84C170.19 442.11 176.06 443.36 182.22 443.36C187.38 443.36 192.33 442.48 196.94 440.87C202.58 438.89 208.71 438.57 214.46 440.21C220.1 441.81 226.05 442.68 232.2 442.68C243.27 442.68 253.68 439.9 262.8 435.01C270.39 430.94 279.3 430.46 287.38 433.46C293.02 435.56 299.13 436.7 305.5 436.7C315.07 436.7 324.04 434.12 331.74 429.62C338.89 425.45 347.24 423.76 355.48 424.54C357.12 424.7 358.78 424.78 360.46 424.78C389.26 424.78 412.6 401.44 412.6 372.64C412.6 372.44 412.6 372.25 412.6 372.05C412.57 369.36 413.65 366.78 415.65 364.99C427.93 354.06 435.63 338.18 435.63 320.5Z" fill="#DCEEF2"/>
<path d="M334.73 57.63C362.81 57.58 387.42 76.19 394.46 102.9C406.82 149.81 419.6 234.09 404.26 358.79C402.68 371.57 397.09 383.13 388.75 392.17C383.43 397.94 376.99 402.69 369.76 406.1C364.11 408.77 357.98 410.62 351.51 411.49C351.5 411.49 351.48 411.5 351.47 411.5C349.12 411.82 346.7 412.13 344.2 412.45C341.91 412.75 339.56 413.04 337.15 413.32C330.43 414.12 323.26 414.91 315.71 415.65C307.98 416.4 299.85 417.11 291.38 417.73C240.61 421.43 177.53 422.05 115.68 412.13C113.07 411.71 110.52 411.13 108.03 410.4C86.5499 404.13 69.9899 386.7 65.3499 364.76C64.5799 361.12 63.79 357.24 62.99 353.15C62.42 350.22 61.8499 347.17 61.2799 344.02C52.3799 295.25 43.3 219.98 48.2 130.56C48.22 130.19 48.2399 129.82 48.2799 129.45C48.4899 126.47 48.94 123.53 49.58 120.68C51.41 112.62 54.87 105.15 59.63 98.63C68.3 86.75 81.28 78.05 96.5 74.77C97.51 74.55 98.52 74.36 99.55 74.19C105.55 73.21 112.13 72.18 119.3 71.17C119.3 71.17 119.3 71.17 119.31 71.17C128.09 69.93 137.77 68.6699 148.33 67.4599C167.05 65.3099 188.57 63.29 212.95 61.64C219.18 61.23 225.6 60.8299 232.21 60.4599C237.95 60.1399 243.84 59.85 249.87 59.57C255.13 59.33 260.49 59.11 265.97 58.91C287.24 58.14 310.15 57.68 334.73 57.63Z" fill="#C4D3D6"/>
<path d="M331.31 63.51C358.48 63.46 382.29 81.47 389.1 107.31C401.06 152.7 413.42 234.25 398.58 354.91C397.06 367.28 391.65 378.46 383.57 387.21C378.42 392.79 372.19 397.39 365.19 400.69C359.73 403.27 353.79 405.06 347.53 405.91C347.52 405.91 347.5 405.92 347.49 405.92C345.22 406.23 342.87 406.53 340.46 406.84C338.25 407.13 335.97 407.41 333.64 407.68C327.13 408.46 320.2 409.22 312.89 409.94C305.41 410.67 297.55 411.35 289.35 411.95C240.22 415.53 179.19 416.13 119.34 406.53C116.82 406.12 114.35 405.57 111.94 404.86C91.16 398.79 75.13 381.93 70.65 360.7C69.91 357.17 69.14 353.43 68.37 349.46C67.82 346.62 67.27 343.68 66.71 340.62C58.1 293.43 49.31 220.6 54.06 134.07C54.08 133.71 54.1 133.36 54.13 133C54.34 130.11 54.7601 127.28 55.3901 124.52C57.1601 116.72 60.51 109.49 65.12 103.19C73.51 91.69 86.07 83.28 100.8 80.1C101.78 79.89 102.76 79.7 103.75 79.54C109.55 78.59 115.92 77.6 122.86 76.62C122.86 76.62 122.86 76.62 122.87 76.62C131.37 75.42 140.73 74.2 150.95 73.03C169.06 70.95 189.88 68.99 213.47 67.4C219.5 67 225.71 66.62 232.11 66.26C237.66 65.95 243.36 65.67 249.2 65.4C254.29 65.17 259.48 64.96 264.78 64.77C285.35 63.99 307.52 63.55 331.31 63.51Z" fill="#A1AEB0"/>
<path d="M329.63 66.4C356.35 66.35 379.77 84.07 386.47 109.48C398.24 154.12 410.39 234.33 395.8 353.01C394.3 365.18 388.98 376.17 381.04 384.78C375.98 390.27 369.85 394.79 362.96 398.04C357.59 400.58 351.75 402.34 345.59 403.17C345.58 403.17 345.56 403.18 345.55 403.18C343.31 403.48 341.01 403.78 338.64 404.08C336.46 404.36 334.22 404.64 331.93 404.91C325.53 405.68 318.71 406.42 311.52 407.13C304.17 407.85 296.43 408.52 288.36 409.11C240.04 412.63 180.01 413.22 121.15 403.78C118.67 403.38 116.24 402.83 113.87 402.14C93.4298 396.17 77.6698 379.59 73.2598 358.7C72.5298 355.23 71.7797 351.54 71.0197 347.65C70.4797 344.86 69.9298 341.96 69.3898 338.96C60.9198 292.54 52.2798 220.92 56.9498 135.81C56.9698 135.46 56.9897 135.11 57.0197 134.76C57.2197 131.92 57.6398 129.13 58.2598 126.42C59.9998 118.75 63.2898 111.64 67.8298 105.44C76.0798 94.13 88.4398 85.85 102.92 82.73C103.88 82.52 104.85 82.34 105.82 82.18C111.53 81.24 117.79 80.27 124.62 79.31C124.62 79.31 124.62 79.31 124.63 79.31C132.99 78.13 142.2 76.93 152.25 75.78C170.06 73.73 190.54 71.81 213.74 70.24C219.67 69.85 225.78 69.47 232.07 69.12C237.53 68.82 243.13 68.54 248.87 68.28C253.87 68.05 258.98 67.84 264.19 67.66C284.43 66.87 306.23 66.44 329.63 66.4Z" fill="#A6886A"/>
<path d="M327.18 70.6C353.25 70.55 376.1 87.84 382.64 112.63C394.12 156.18 405.98 234.44 391.74 350.22C390.28 362.09 385.09 372.82 377.34 381.22C372.4 386.57 366.42 390.99 359.7 394.15C354.46 396.63 348.76 398.34 342.76 399.15C342.75 399.15 342.73 399.16 342.72 399.16C340.54 399.45 338.29 399.75 335.97 400.04C333.85 400.32 331.66 400.59 329.42 400.85C323.18 401.6 316.52 402.33 309.51 403.02C302.34 403.72 294.79 404.38 286.92 404.95C239.78 408.39 181.21 408.96 123.79 399.75C121.37 399.36 119 398.82 116.69 398.15C96.7502 392.32 81.3702 376.14 77.0702 355.77C76.3602 352.39 75.6202 348.79 74.8802 344.99C74.3502 342.27 73.8202 339.44 73.2902 336.51C65.0302 291.22 56.6002 221.34 61.1502 138.31C61.1702 137.97 61.1902 137.63 61.2202 137.28C61.4202 134.51 61.8302 131.79 62.4302 129.14C64.1302 121.66 67.3402 114.72 71.7602 108.67C79.8102 97.64 91.8602 89.56 105.99 86.52C106.93 86.32 107.87 86.14 108.82 85.98C114.39 85.07 120.5 84.12 127.16 83.18C127.16 83.18 127.16 83.18 127.17 83.18C135.33 82.03 144.31 80.86 154.11 79.73C171.49 77.73 191.47 75.8601 214.11 74.3201C219.9 73.9401 225.86 73.57 232 73.22C237.33 72.93 242.8 72.65 248.39 72.4C253.27 72.18 258.25 71.97 263.34 71.79C283.08 71.07 304.35 70.64 327.18 70.6Z" fill="#C9B29B"/>
<path d="M70.5999 148.11C65.2199 176.39 65.6699 297.97 83.2799 353.63C90.1099 375.21 93.3799 400.07 196.99 401.17C288.97 402.14 379.52 397.45 388.08 343.42C396.64 289.4 390.27 116.78 360.33 93.4599C342.06 79.2299 331.47 70.96 178.36 81.53C148.82 83.57 82.2599 86.75 70.5999 148.11Z" fill="#78B528"/>
<path d="M383.18 298.12C383.18 292.66 380.58 287.81 376.55 284.73C382.29 278.31 385.79 269.84 385.79 260.54C385.79 248.21 379.63 237.31 370.23 230.75C375.84 222.86 379.16 213.22 379.16 202.8C379.16 187.69 372.21 174.21 361.35 165.36C368.35 161.92 373.17 154.71 373.17 146.39C373.17 138.85 369.22 132.24 363.28 128.5C365.49 125.13 366.78 121.09 366.78 116.76C366.78 104.92 357.18 95.3201 345.34 95.3201C344.34 95.3201 343.36 95.39 342.4 95.53C340.83 87.85 334.04 82.0701 325.9 82.0701C320.46 82.0701 315.63 84.65 312.55 88.64C308.61 83.39 302.34 79.99 295.27 79.99C288.01 79.99 281.6 83.5701 277.68 89.0601C273.73 84.7601 268.07 82.0601 261.77 82.0601C254.33 82.0601 247.76 85.8301 243.88 91.5601C237.81 86.9901 230.26 84.28 222.07 84.28C210.15 84.28 199.58 90.02 192.96 98.89C187.15 92.11 178.53 87.8201 168.91 87.8201C159.32 87.8201 150.74 92.0901 144.93 98.8201C142.5 97.4501 139.69 96.67 136.7 96.67C127.4 96.67 119.85 104.21 119.85 113.52C119.85 114.08 119.88 114.64 119.93 115.19C118.37 114.99 116.79 114.87 115.18 114.87C95.13 114.87 78.88 131.12 78.88 151.17C78.88 159.01 81.37 166.27 85.6 172.2C78.98 177.57 74.75 185.76 74.75 194.95C74.75 204.39 79.22 212.78 86.16 218.14C80.75 225.94 77.57 235.4 77.57 245.62C77.57 254.2 79.82 262.25 83.74 269.23C78.4 272.05 74.75 277.67 74.75 284.13C74.75 290.92 78.77 296.76 84.55 299.43C81.03 303.21 78.88 308.27 78.88 313.83C78.88 324.31 86.51 333 96.51 334.67C94.84 338.84 93.92 343.38 93.92 348.14C93.92 368.19 110.17 384.44 130.22 384.44C137.03 384.44 143.41 382.56 148.86 379.29C152.66 387.99 161.33 394.07 171.43 394.07C177.79 394.07 183.58 391.66 187.95 387.71C194.59 391.15 202.12 393.1 210.11 393.1C212.46 393.1 214.76 392.92 217.02 392.59C221.34 395.88 226.73 397.84 232.58 397.84C237.57 397.84 242.22 396.41 246.17 393.95C249.37 395.16 252.83 395.83 256.45 395.83C264 395.83 270.87 392.94 276.03 388.22C281.07 390.27 286.57 391.41 292.35 391.41C302.25 391.41 311.36 388.08 318.65 382.48C320.63 383.19 322.76 383.58 324.98 383.58C332.02 383.58 338.14 379.7 341.35 373.97C342.13 374.04 342.93 374.08 343.73 374.08C356.3 374.08 366.93 365.8 370.47 354.39C378.15 349.11 383.2 340.27 383.2 330.24C383.2 323.14 380.67 316.64 376.48 311.57C380.54 308.52 383.18 303.63 383.18 298.12Z" fill="#90D437"/>
<path d="M143.67 365.5C143.38 365.33 143.09 365.15 142.77 365.02L141.83 364.61C141.52 364.46 141.18 364.39 140.85 364.27C140.19 364.03 139.51 363.92 138.81 363.78C138.46 363.73 138.11 363.7 137.75 363.66C137.39 363.61 137.04 363.61 136.68 363.61C135.25 363.59 133.79 363.76 132.37 364.12L131.31 364.42C131.3 364.42 131.28 364.43 131.27 364.43C131.33 364.23 131.39 364.02 131.44 363.82L131.75 362.91C132.2 361.7 132.79 360.53 133.53 359.43C133.88 358.86 134.31 358.37 134.73 357.84C135.19 357.37 135.64 356.84 136.17 356.41C137.17 355.48 138.37 354.76 139.61 354.08C138.25 354.41 136.85 354.8 135.56 355.49C134.89 355.79 134.29 356.2 133.65 356.59C133.06 357.03 132.43 357.45 131.89 357.96C130.76 358.95 129.73 360.08 128.85 361.33L128.44 361.94C127.25 360.9 125.97 359.97 124.63 359.17C123.95 358.74 123.23 358.39 122.52 358.03C122.16 357.86 121.79 357.72 121.43 357.56L120.89 357.33L120.33 357.14C119.96 357.02 119.59 356.89 119.21 356.78L118.07 356.51C117.88 356.47 117.69 356.42 117.5 356.38L116.92 356.3L115.78 356.14C117.21 356.7 118.6 357.3 119.84 358.15L120.31 358.45L120.76 358.78C121.06 359.01 121.36 359.21 121.64 359.45C122.2 359.93 122.76 360.4 123.27 360.93C124.12 361.78 124.9 362.69 125.61 363.64C124.54 363.65 123.48 363.8 122.48 364.1C121.2 364.49 120.01 365.08 119.03 365.89C118.51 366.25 118.1 366.73 117.65 367.15C117.23 367.6 116.88 368.1 116.51 368.57C117.02 368.24 117.49 367.87 118 367.58C118.53 367.32 119.02 367.01 119.58 366.85C120.63 366.42 121.76 366.28 122.81 366.29C123.87 366.31 124.9 366.53 125.85 366.92L126.47 367.2C126.09 367.63 125.77 368.1 125.52 368.58C125.05 369.55 124.85 370.55 124.79 371.51C124.77 371.99 124.81 372.46 124.82 372.92L125.03 374.27L125.37 372.98C125.54 372.57 125.67 372.16 125.86 371.78C126.24 371.02 126.73 370.37 127.29 369.91C127.87 369.46 128.5 369.2 129.14 369.1C129.46 369.05 129.78 369.04 130.1 369.07C130.26 369.09 130.41 369.1 130.56 369.14C130.64 369.15 130.7 369.17 130.77 369.19C130.78 369.19 130.79 369.2 130.79 369.2C130.79 369.2 130.79 369.2 130.8 369.19C131.33 368.68 132.09 368.47 132.81 368.64C132.96 368.68 133.11 368.72 133.26 368.77C133.44 368.81 133.6 368.9 133.77 368.98C133.94 369.06 134.12 369.13 134.27 369.25L134.76 369.57L135.21 369.97L135.44 370.18L135.64 370.41L136.05 370.89C136.3 371.23 136.53 371.6 136.77 371.96C136.7 371.53 136.64 371.09 136.55 370.65L136.36 370L136.26 369.67L136.12 369.35L135.83 368.7C135.71 368.49 135.58 368.29 135.45 368.08C135.33 367.86 135.17 367.68 135 367.49C134.83 367.3 134.68 367.09 134.48 366.93C134.49 366.84 134.49 366.82 134.5 366.73C135.27 366.36 136.08 366.05 136.93 365.82C137.23 365.74 137.53 365.65 137.83 365.61C138.13 365.56 138.44 365.49 138.75 365.45C139.37 365.41 140.01 365.33 140.65 365.37C140.97 365.39 141.3 365.37 141.61 365.42L142.58 365.55C142.91 365.58 143.22 365.68 143.54 365.76L144.51 366.01L143.67 365.5Z" fill="#78B528"/>
<path d="M374.12 291.16C373.83 290.99 373.54 290.81 373.22 290.68L372.28 290.27C371.97 290.12 371.63 290.05 371.3 289.93C370.64 289.69 369.96 289.58 369.26 289.44C368.91 289.39 368.56 289.36 368.2 289.32C367.84 289.27 367.49 289.27 367.13 289.27C365.7 289.25 364.24 289.42 362.82 289.78L361.76 290.08C361.75 290.08 361.73 290.09 361.72 290.09C361.78 289.89 361.84 289.68 361.89 289.48L362.2 288.57C362.65 287.36 363.25 286.19 363.98 285.09C364.33 284.52 364.76 284.03 365.18 283.5C365.64 283.03 366.09 282.5 366.62 282.07C367.62 281.14 368.82 280.42 370.06 279.74C368.7 280.07 367.3 280.46 366.01 281.15C365.34 281.45 364.74 281.86 364.1 282.25C363.51 282.69 362.88 283.11 362.34 283.62C361.21 284.61 360.18 285.74 359.3 286.99L358.89 287.6C357.7 286.56 356.42 285.63 355.08 284.83C354.4 284.4 353.68 284.05 352.97 283.69C352.61 283.52 352.24 283.38 351.88 283.22L351.34 282.99L350.78 282.8C350.4 282.68 350.04 282.55 349.66 282.44L348.52 282.17C348.33 282.13 348.14 282.08 347.95 282.04L347.37 281.96L346.23 281.8C347.66 282.36 349.05 282.96 350.29 283.81L350.76 284.11L351.21 284.44C351.51 284.67 351.81 284.87 352.09 285.11C352.65 285.59 353.21 286.06 353.72 286.59C354.57 287.44 355.35 288.35 356.06 289.3C354.99 289.3 353.93 289.46 352.93 289.76C351.65 290.15 350.46 290.74 349.48 291.55C348.96 291.91 348.55 292.39 348.1 292.81C347.68 293.26 347.33 293.76 346.96 294.23C347.47 293.9 347.94 293.53 348.45 293.24C348.98 292.98 349.47 292.67 350.03 292.51C351.08 292.08 352.21 291.94 353.26 291.95C354.32 291.97 355.35 292.19 356.3 292.58L356.92 292.86C356.54 293.29 356.22 293.76 355.97 294.24C355.5 295.21 355.3 296.21 355.24 297.17C355.22 297.65 355.26 298.12 355.27 298.58L355.48 299.93L355.82 298.64C355.99 298.23 356.12 297.82 356.31 297.44C356.69 296.68 357.18 296.03 357.74 295.57C358.32 295.12 358.95 294.86 359.59 294.76C359.91 294.71 360.23 294.7 360.55 294.73C360.71 294.75 360.86 294.76 361.01 294.8C361.09 294.81 361.15 294.83 361.22 294.85C361.23 294.85 361.24 294.86 361.24 294.86C361.24 294.86 361.24 294.86 361.25 294.85C361.78 294.34 362.54 294.13 363.26 294.3C363.41 294.34 363.56 294.38 363.71 294.43C363.89 294.47 364.05 294.56 364.22 294.64C364.39 294.72 364.57 294.79 364.72 294.91L365.21 295.23L365.66 295.63L365.89 295.84L366.09 296.07L366.5 296.55C366.75 296.89 366.98 297.26 367.22 297.63C367.15 297.2 367.09 296.76 367 296.32L366.81 295.67L366.71 295.34L366.57 295.02L366.28 294.37C366.16 294.16 366.03 293.96 365.9 293.75C365.78 293.53 365.62 293.35 365.45 293.16C365.28 292.97 365.13 292.76 364.93 292.6C364.94 292.51 364.94 292.49 364.95 292.4C365.72 292.03 366.53 291.72 367.38 291.49C367.68 291.41 367.98 291.32 368.28 291.28C368.58 291.23 368.89 291.16 369.2 291.12C369.82 291.08 370.46 291 371.1 291.04C371.42 291.06 371.75 291.04 372.06 291.09L373.03 291.22C373.36 291.25 373.67 291.35 373.99 291.43L374.96 291.68L374.12 291.16Z" fill="#78B528"/>
<path d="M311.95 315.94C311.76 315.47 311.61 314.96 311.34 314.5C310.89 313.53 310.2 312.65 309.4 311.85C309.04 311.5 308.65 311.17 308.23 310.88C308.33 310.79 308.44 310.71 308.54 310.62C309.2 310.04 309.82 309.41 310.38 308.76C310.95 308.11 311.44 307.4 311.87 306.7C311.13 307.1 310.4 307.44 309.64 307.7C308.88 307.96 308.12 308.17 307.35 308.31C306.94 308.39 306.53 308.45 306.12 308.51C306.2 307.99 306.29 307.46 306.39 306.94C306.68 305.59 307.06 304.25 307.72 302.96C306.43 303.64 305.24 304.6 304.14 305.63C304.12 305.65 304.1 305.67 304.08 305.69C303.83 305.32 303.58 304.95 303.33 304.58C302.24 303 301.11 301.44 299.94 299.94C300.32 301.81 300.63 303.67 300.91 305.54C301.05 306.47 301.17 307.41 301.29 308.34C301.3 308.4 301.3 308.46 301.31 308.52C301.04 308.72 300.76 308.92 300.47 309.1C299.8 309.51 299.07 309.87 298.28 310.14C297.5 310.41 296.67 310.64 295.81 310.76C294.95 310.9 294.06 310.93 293.15 310.92C293.95 311.35 294.79 311.76 295.68 312.05C296.57 312.37 297.52 312.58 298.49 312.73C299.04 312.81 299.6 312.86 300.17 312.87C300.08 313.02 300 313.17 299.91 313.32C299.66 313.77 299.45 314.25 299.24 314.72C299.06 315.21 298.86 315.67 298.73 316.16C298.42 317.12 298.28 318.11 298.18 319.07C298.69 318.24 299.22 317.47 299.87 316.8C300.17 316.45 300.52 316.15 300.85 315.84C301.2 315.55 301.54 315.26 301.91 315.01C302.4 314.66 302.9 314.35 303.41 314.06C303.47 314.03 303.52 314 303.57 313.97C303.64 313.95 303.71 313.92 303.78 313.9C303.95 313.85 304.14 313.81 304.33 313.77C304.71 313.7 305.1 313.66 305.51 313.66C306.31 313.65 307.15 313.76 307.96 314.04C308.76 314.33 309.59 314.73 310.31 315.33C310.7 315.6 311.01 315.96 311.37 316.29C311.71 316.64 312 317.03 312.32 317.42C312.21 316.93 312.11 316.43 311.95 315.94Z" fill="#78B528"/>
<path d="M149.31 114.44C149.5 114.91 149.65 115.42 149.92 115.88C150.37 116.85 151.06 117.73 151.86 118.53C152.22 118.88 152.61 119.21 153.03 119.5C152.93 119.59 152.82 119.67 152.72 119.76C152.06 120.34 151.44 120.97 150.88 121.62C150.31 122.27 149.82 122.98 149.39 123.68C150.13 123.28 150.86 122.94 151.62 122.68C152.38 122.42 153.14 122.21 153.91 122.07C154.32 121.99 154.73 121.93 155.14 121.87C155.06 122.39 154.97 122.92 154.87 123.44C154.58 124.79 154.2 126.13 153.54 127.42C154.83 126.74 156.02 125.78 157.12 124.75C157.14 124.73 157.16 124.71 157.18 124.69C157.43 125.06 157.68 125.43 157.93 125.8C159.02 127.38 160.15 128.94 161.32 130.44C160.94 128.57 160.63 126.71 160.35 124.84C160.21 123.91 160.09 122.97 159.97 122.04C159.96 121.98 159.96 121.92 159.95 121.86C160.22 121.66 160.5 121.46 160.79 121.28C161.46 120.87 162.19 120.51 162.98 120.24C163.76 119.97 164.59 119.74 165.45 119.62C166.31 119.48 167.2 119.45 168.11 119.46C167.31 119.03 166.47 118.62 165.58 118.33C164.69 118.01 163.74 117.8 162.77 117.65C162.22 117.57 161.66 117.52 161.09 117.51C161.18 117.36 161.26 117.21 161.35 117.06C161.6 116.61 161.81 116.13 162.02 115.66C162.2 115.17 162.4 114.71 162.53 114.22C162.84 113.26 162.98 112.27 163.08 111.31C162.57 112.14 162.04 112.91 161.39 113.58C161.09 113.93 160.74 114.23 160.41 114.54C160.06 114.83 159.72 115.12 159.35 115.37C158.86 115.72 158.36 116.03 157.85 116.32C157.79 116.35 157.74 116.38 157.69 116.41C157.62 116.43 157.55 116.46 157.48 116.48C157.31 116.53 157.12 116.57 156.93 116.61C156.55 116.68 156.16 116.72 155.75 116.72C154.95 116.73 154.11 116.62 153.3 116.34C152.5 116.05 151.67 115.65 150.95 115.05C150.56 114.78 150.25 114.42 149.89 114.09C149.55 113.74 149.26 113.35 148.94 112.96C149.05 113.45 149.15 113.96 149.31 114.44Z" fill="#78B528"/>
<path d="M364.24 355.07L364.15 354.76L364.02 354.46L363.74 353.85C363.63 353.66 363.5 353.47 363.38 353.27C363.26 353.07 363.11 352.89 362.96 352.71C362.81 352.53 362.66 352.34 362.47 352.19C362.09 351.82 361.65 351.49 361.17 351.22C361.33 351.11 361.5 351 361.68 350.9C362.25 350.59 362.87 350.38 363.55 350.31C364.23 350.24 364.94 350.4 365.65 350.68C365.15 350.13 364.52 349.59 363.73 349.29C362.95 348.99 362.07 348.86 361.2 348.88C360.79 348.89 360.38 348.94 359.98 349.01C360 348.97 360.02 348.94 360.04 348.9C360.3 348.33 360.52 347.75 360.69 347.17C360.85 346.58 360.95 345.98 360.96 345.4C360.28 346.35 359.39 347 358.47 347.55C358.26 347.67 358.05 347.79 357.83 347.9C357.53 347.49 357.25 347.06 356.99 346.6C356.62 345.94 356.34 345.23 356.13 344.48C355.92 343.73 355.84 342.94 355.85 342.11C355.51 342.85 355.22 343.66 355.09 344.52C354.96 345.37 354.92 346.27 354.99 347.15C355.04 347.77 355.13 348.38 355.25 349C354.58 349.06 353.93 349.17 353.29 349.34C352.51 349.55 351.75 349.86 351.07 350.25C350.39 350.65 349.81 351.18 349.34 351.73C350.02 351.45 350.7 351.27 351.39 351.23C352.07 351.2 352.73 351.26 353.38 351.4C354.02 351.55 354.64 351.76 355.23 352.03C355.52 352.16 355.81 352.31 356.09 352.46C356.23 352.54 356.36 352.62 356.49 352.7C356.53 352.73 356.57 352.76 356.62 352.78C356.43 353.39 356.2 354 355.9 354.6C355.58 355.23 355.22 355.88 354.79 356.47C354.37 357.08 353.88 357.65 353.36 358.22C354.07 357.94 354.79 357.64 355.48 357.25C356.18 356.88 356.84 356.43 357.49 355.93C358.14 355.43 358.75 354.87 359.33 354.25C359.5 354.07 359.67 353.87 359.83 353.67C360.32 353.66 360.83 353.73 361.32 353.91C361.49 353.95 361.63 354.04 361.8 354.1C361.96 354.17 362.12 354.24 362.27 354.35L362.73 354.65L363.15 355.02L363.37 355.21L363.56 355.43L363.95 355.88C364.19 356.2 364.4 356.54 364.63 356.89C364.56 356.49 364.51 356.07 364.42 355.66L364.24 355.07Z" fill="#78B528"/>
<path d="M111.63 284.65L111.54 284.34L111.41 284.04L111.13 283.43C111.02 283.24 110.89 283.05 110.77 282.85C110.65 282.65 110.5 282.47 110.35 282.29C110.2 282.11 110.05 281.92 109.86 281.77C109.48 281.4 109.04 281.07 108.56 280.8C108.72 280.69 108.89 280.58 109.07 280.48C109.64 280.17 110.26 279.96 110.94 279.89C111.62 279.82 112.33 279.98 113.04 280.26C112.54 279.71 111.91 279.17 111.12 278.87C110.34 278.57 109.46 278.44 108.59 278.46C108.18 278.47 107.77 278.52 107.37 278.59C107.39 278.55 107.41 278.52 107.43 278.48C107.69 277.91 107.91 277.33 108.08 276.75C108.24 276.16 108.34 275.56 108.35 274.98C107.67 275.93 106.78 276.58 105.86 277.13C105.65 277.25 105.44 277.37 105.22 277.48C104.92 277.07 104.64 276.64 104.38 276.18C104.01 275.52 103.73 274.81 103.52 274.06C103.31 273.31 103.23 272.52 103.24 271.69C102.9 272.43 102.61 273.24 102.48 274.1C102.35 274.95 102.31 275.85 102.38 276.73C102.43 277.35 102.52 277.96 102.64 278.58C101.97 278.64 101.32 278.75 100.68 278.92C99.9 279.13 99.14 279.44 98.46 279.83C97.78 280.23 97.2 280.76 96.73 281.31C97.41 281.03 98.09 280.85 98.78 280.81C99.46 280.78 100.12 280.84 100.77 280.98C101.41 281.13 102.03 281.34 102.62 281.61C102.91 281.74 103.2 281.89 103.48 282.04C103.62 282.12 103.75 282.2 103.88 282.28C103.92 282.31 103.96 282.34 104.01 282.36C103.82 282.97 103.59 283.58 103.29 284.18C102.97 284.81 102.61 285.46 102.18 286.05C101.76 286.66 101.27 287.23 100.75 287.8C101.46 287.52 102.18 287.22 102.87 286.83C103.57 286.46 104.23 286.01 104.88 285.51C105.53 285.01 106.14 284.45 106.72 283.83C106.89 283.65 107.06 283.45 107.22 283.25C107.71 283.24 108.22 283.31 108.71 283.49C108.88 283.53 109.02 283.62 109.19 283.68C109.35 283.75 109.51 283.82 109.66 283.93L110.12 284.23L110.54 284.6L110.76 284.79L110.95 285.01L111.34 285.46C111.58 285.78 111.79 286.12 112.02 286.47C111.95 286.07 111.9 285.65 111.81 285.24L111.63 284.65Z" fill="#78B528"/>
<path d="M96.6499 140.15L96.7599 139.77L96.9199 139.4L97.2599 138.66C97.3999 138.42 97.55 138.19 97.7 137.95C97.84 137.7 98.0299 137.49 98.2099 137.27C98.3999 137.05 98.5799 136.81 98.8099 136.63C99.2799 136.17 99.8199 135.78 100.4 135.44C100.2 135.3 99.9899 135.17 99.7799 135.05C99.0799 134.68 98.3199 134.41 97.4899 134.33C96.6599 134.25 95.7899 134.45 94.9199 134.79C95.5399 134.11 96.3099 133.46 97.2699 133.08C98.2199 132.71 99.2999 132.55 100.37 132.58C100.87 132.6 101.37 132.66 101.87 132.74C101.85 132.69 101.82 132.65 101.8 132.6C101.48 131.9 101.21 131.19 101 130.48C100.8 129.75 100.68 129.02 100.67 128.31C101.5 129.47 102.59 130.27 103.72 130.94C103.98 131.09 104.24 131.23 104.5 131.36C104.87 130.85 105.22 130.33 105.52 129.77C105.97 128.96 106.32 128.09 106.58 127.17C106.84 126.25 106.93 125.28 106.92 124.27C107.34 125.18 107.69 126.17 107.85 127.22C108.01 128.27 108.06 129.36 107.97 130.44C107.91 131.2 107.8 131.95 107.65 132.7C108.47 132.78 109.27 132.91 110.06 133.12C111.02 133.37 111.94 133.76 112.77 134.24C113.6 134.73 114.31 135.38 114.88 136.06C114.04 135.71 113.21 135.49 112.37 135.45C111.53 135.41 110.72 135.48 109.94 135.66C109.15 135.84 108.4 136.1 107.67 136.43C107.31 136.59 106.96 136.77 106.62 136.96C106.45 137.05 106.29 137.15 106.13 137.25C106.08 137.28 106.03 137.32 105.98 137.35C106.21 138.1 106.5 138.85 106.86 139.58C107.25 140.36 107.69 141.14 108.22 141.87C108.74 142.62 109.34 143.32 109.97 144.01C109.1 143.67 108.22 143.3 107.38 142.82C106.52 142.37 105.71 141.81 104.91 141.21C104.12 140.6 103.37 139.91 102.66 139.15C102.45 138.92 102.25 138.69 102.05 138.45C101.44 138.44 100.83 138.53 100.22 138.74C100.01 138.79 99.83 138.89 99.64 138.98C99.44 139.07 99.2399 139.16 99.0699 139.29L98.5099 139.66L97.9899 140.12L97.7299 140.36L97.4999 140.63L97.0299 141.18C96.7399 141.57 96.48 141.99 96.2 142.41C96.28 141.92 96.3499 141.41 96.4599 140.91L96.6499 140.15Z" fill="#78B528"/>
<path d="M174.73 334.71L174.72 334.69L174.71 334.7C174.69 334.7 174.72 334.71 174.73 334.71Z" fill="#78B528"/>
<path d="M183.92 328.99C184.97 328.78 186.08 328.76 187.22 329.02C186.29 328.34 185.15 327.85 183.93 327.59C182.71 327.34 181.45 327.33 180.19 327.42C179.36 327.48 178.55 327.62 177.74 327.79C178.08 327.39 178.44 327.01 178.84 326.65C179.58 326 180.41 325.38 181.34 324.91C181.8 324.64 182.29 324.46 182.78 324.24C183.28 324.04 183.8 323.9 184.33 323.72C183.79 323.66 183.23 323.57 182.68 323.55C182.12 323.54 181.55 323.5 180.98 323.56C179.83 323.61 178.67 323.85 177.51 324.19C176.64 324.45 175.79 324.81 174.96 325.25C174.08 324.24 173.12 323.35 172.1 322.58C171.47 322.16 170.88 321.71 170.22 321.37C169.9 321.19 169.59 321 169.26 320.84L168.27 320.38C167.95 320.22 167.61 320.09 167.27 319.98L166.27 319.62C165.59 319.41 164.9 319.24 164.24 319.05C164.82 319.45 165.4 319.83 165.95 320.24L166.75 320.89C167.02 321.1 167.28 321.32 167.52 321.56L168.25 322.26C168.49 322.49 168.7 322.76 168.92 323C169.37 323.48 169.74 324.03 170.13 324.54C170.78 325.52 171.31 326.55 171.7 327.59C171.67 327.62 171.65 327.64 171.62 327.67C170.64 327.75 169.67 327.9 168.72 328.15C167.66 328.43 166.65 328.85 165.74 329.38C164.82 329.91 164.05 330.63 163.42 331.38C164.34 331 165.26 330.76 166.18 330.71C167.1 330.67 167.99 330.75 168.86 330.94C169.41 331.07 169.94 331.23 170.46 331.42C170.06 331.9 169.72 332.41 169.45 332.94C168.85 334.17 168.6 335.43 168.53 336.64C168.5 337.24 168.55 337.84 168.57 338.42L168.83 340.13L169.26 338.5C169.47 337.98 169.57 337.42 169.88 336.99C171.76 334.4 174.74 334.68 174.74 334.68L174.78 334.66C174.81 334.64 174.84 334.62 174.89 334.6C174.97 334.56 175.05 334.52 175.15 334.48C175.33 334.4 175.53 334.34 175.73 334.28C175.93 334.22 176.13 334.18 176.34 334.13C176.54 334.1 176.76 334.06 176.97 334.04C177.82 333.96 178.7 334.03 179.56 334.33C179.79 334.38 179.98 334.5 180.2 334.59C180.42 334.69 180.64 334.78 180.83 334.93L181.45 335.34L182.02 335.84L182.31 336.1L182.56 336.39L183.08 337C183.4 337.43 183.68 337.89 183.99 338.36C183.9 337.82 183.83 337.26 183.71 336.71L183.47 335.89L183.34 335.47L183.16 335.07L182.79 334.25C182.64 333.99 182.47 333.73 182.3 333.47C182.14 333.2 181.94 332.96 181.73 332.72C181.52 332.48 181.32 332.22 181.08 332.01C180.65 331.59 180.17 331.22 179.66 330.9C180.08 330.62 180.51 330.36 180.95 330.13C181.87 329.64 182.86 329.22 183.92 328.99Z" fill="#78B528"/>
<path d="M296.13 143.93L296.14 143.91L296.15 143.92C296.16 143.92 296.13 143.92 296.13 143.93Z" fill="#78B528"/>
<path d="M286.94 138.21C285.89 138 284.78 137.98 283.64 138.24C284.57 137.56 285.71 137.07 286.93 136.81C288.15 136.56 289.41 136.55 290.67 136.64C291.5 136.7 292.31 136.84 293.12 137.01C292.78 136.61 292.42 136.23 292.02 135.87C291.28 135.22 290.45 134.6 289.52 134.13C289.06 133.86 288.57 133.68 288.08 133.46C287.58 133.26 287.06 133.12 286.53 132.94C287.07 132.88 287.63 132.79 288.18 132.77C288.74 132.76 289.31 132.72 289.88 132.78C291.03 132.83 292.19 133.07 293.35 133.41C294.22 133.67 295.07 134.03 295.9 134.47C296.78 133.46 297.74 132.57 298.76 131.8C299.39 131.38 299.98 130.93 300.64 130.59C300.96 130.41 301.27 130.22 301.6 130.06L302.59 129.6C302.91 129.44 303.25 129.31 303.59 129.2L304.59 128.84C305.27 128.63 305.96 128.46 306.62 128.27C306.04 128.67 305.46 129.05 304.91 129.46L304.11 130.11C303.84 130.32 303.58 130.54 303.34 130.78L302.61 131.48C302.37 131.71 302.16 131.98 301.94 132.22C301.49 132.7 301.12 133.25 300.73 133.76C300.08 134.74 299.55 135.77 299.16 136.81C299.19 136.84 299.21 136.86 299.24 136.89C300.22 136.97 301.19 137.12 302.14 137.37C303.2 137.65 304.21 138.07 305.12 138.6C306.04 139.13 306.81 139.85 307.44 140.6C306.52 140.22 305.6 139.98 304.68 139.93C303.76 139.89 302.54 140.17 301.7 140.47C297.91 141.79 296.12 143.9 296.12 143.9L296.08 143.88C296.05 143.86 296.02 143.84 295.97 143.82C295.89 143.78 295.81 143.74 295.71 143.7C295.53 143.62 295.33 143.56 295.13 143.5C294.93 143.44 294.73 143.4 294.52 143.35C294.32 143.32 294.1 143.28 293.89 143.26C293.04 143.18 292.16 143.25 291.3 143.55C291.07 143.6 290.88 143.72 290.66 143.81C290.44 143.91 290.22 144 290.03 144.15L289.41 144.56L288.84 145.06L288.55 145.32L288.3 145.61L287.78 146.22C287.46 146.65 287.18 147.11 286.87 147.58C286.96 147.04 287.03 146.48 287.15 145.93L287.39 145.11L287.52 144.69L287.7 144.29L288.07 143.47C288.22 143.21 288.39 142.95 288.56 142.69C288.72 142.42 288.92 142.18 289.13 141.94C289.34 141.7 289.54 141.44 289.78 141.23C290.21 140.81 290.69 140.44 291.2 140.12C290.78 139.84 290.35 139.58 289.91 139.35C288.98 138.85 287.99 138.43 286.94 138.21Z" fill="#78B528"/>
<path d="M357.96 120.39C357.65 120.21 357.34 120.01 357 119.88L356 119.44C355.67 119.28 355.31 119.2 354.96 119.08C354.26 118.82 353.52 118.71 352.78 118.55C352.41 118.49 352.03 118.47 351.65 118.42C351.27 118.37 350.89 118.37 350.51 118.36C348.98 118.33 347.42 118.52 345.9 118.9L345.55 119C346.14 118.21 346.87 117.48 347.7 116.83L348.4 116.31C348.64 116.14 348.9 116 349.15 115.84C349.65 115.51 350.2 115.27 350.74 114.99C351.29 114.73 351.86 114.53 352.43 114.29L354.21 113.73L352.33 113.71C351.7 113.76 351.06 113.77 350.42 113.85C349.79 113.95 349.14 114.01 348.5 114.18C348.18 114.26 347.86 114.32 347.54 114.42L346.59 114.73C345.44 115.15 344.3 115.71 343.23 116.44C342.51 115.4 341.7 114.44 340.82 113.57C339.77 112.53 338.63 111.6 337.4 110.85C336.81 110.45 336.16 110.13 335.53 109.81C335.22 109.64 334.89 109.52 334.56 109.38L333.59 108.98L334.41 109.63C334.68 109.85 334.96 110.05 335.2 110.3C335.7 110.78 336.2 111.23 336.64 111.76C337.55 112.76 338.31 113.87 338.95 115.02C339.56 116.1 340.04 117.24 340.39 118.4C340.08 118.38 339.77 118.38 339.47 118.41C339.26 118.41 339.05 118.46 338.85 118.49C338.65 118.52 338.45 118.55 338.25 118.61L337.68 118.77L337.14 118.99C336.78 119.12 336.46 119.34 336.14 119.52C335.83 119.72 335.54 119.95 335.25 120.16C335.61 120.13 335.96 120.09 336.31 120.09C336.66 120.11 336.99 120.09 337.32 120.17L337.8 120.25L338.26 120.39C338.41 120.43 338.55 120.49 338.69 120.55C338.83 120.62 338.97 120.66 339.09 120.74C339.37 120.89 339.63 121.07 339.86 121.27C339.1 121.63 338.38 122.06 337.76 122.59C337.52 122.77 337.31 123 337.1 123.2L336.78 123.51L336.5 123.85C336.32 124.08 336.13 124.3 335.96 124.53L335.51 125.26C335.44 125.38 335.36 125.5 335.29 125.62L335.11 126L334.76 126.75C334.56 127.26 334.4 127.78 334.23 128.28C334.58 127.87 334.91 127.45 335.26 127.07L335.83 126.53L336.11 126.27C336.21 126.19 336.31 126.11 336.42 126.04L337.02 125.59C337.23 125.45 337.45 125.34 337.66 125.22L337.97 125.04L338.3 124.9C338.52 124.82 338.73 124.7 338.96 124.64C339.84 124.33 340.75 124.25 341.62 124.3C342.05 124.32 342.48 124.39 342.89 124.49C343.09 124.55 343.29 124.6 343.48 124.67C343.58 124.7 343.66 124.74 343.74 124.78C343.79 124.8 343.82 124.82 343.85 124.84C343.87 124.85 343.88 124.86 343.89 124.87C343.89 124.87 344.48 124.56 345.61 124.64C346.34 124.69 347.09 124.89 347.84 125.17C348.59 125.45 349.33 125.83 350.05 126.28C350.42 126.5 350.75 126.76 351.11 127.01C351.45 127.28 351.78 127.56 352.12 127.84C351.94 127.44 351.76 127.03 351.56 126.63C351.34 126.24 351.14 125.83 350.89 125.45C350.41 124.67 349.84 123.92 349.18 123.22C348.74 122.77 348.26 122.33 347.74 121.93C348.7 121.42 349.72 121.01 350.79 120.72C351.11 120.63 351.43 120.54 351.76 120.49C352.09 120.44 352.42 120.37 352.75 120.32C353.41 120.28 354.1 120.19 354.78 120.24C355.12 120.26 355.47 120.24 355.81 120.29L356.84 120.43C357.19 120.46 357.53 120.57 357.87 120.65L358.91 120.91L357.96 120.39Z" fill="#78B528"/>
<path d="M343.87 124.87V124.89C343.88 124.89 343.88 124.88 343.87 124.87Z" fill="#78B528"/>
<path d="M221.88 379.96C222.14 379.81 222.39 379.65 222.67 379.54L223.5 379.18C223.78 379.05 224.07 378.99 224.36 378.88C224.94 378.67 225.55 378.57 226.16 378.45C226.47 378.4 226.78 378.38 227.09 378.35C227.4 378.31 227.72 378.31 228.03 378.3C229.29 378.28 230.58 378.43 231.83 378.75L232.12 378.83C231.63 378.18 231.03 377.58 230.35 377.04L229.77 376.62C229.57 376.48 229.36 376.36 229.15 376.23C228.74 375.96 228.29 375.76 227.84 375.53C227.39 375.31 226.91 375.15 226.44 374.95L224.98 374.49L226.53 374.47C227.05 374.51 227.58 374.52 228.1 374.59C228.62 374.67 229.16 374.72 229.68 374.86C229.94 374.92 230.21 374.98 230.47 375.06L231.26 375.31C232.21 375.66 233.15 376.12 234.03 376.72C234.63 375.87 235.29 375.07 236.02 374.36C236.89 373.5 237.82 372.74 238.84 372.12C239.33 371.79 239.86 371.53 240.38 371.26C240.63 371.12 240.91 371.02 241.18 370.9L241.98 370.57L241.31 371.11C241.09 371.29 240.86 371.46 240.66 371.66C240.25 372.05 239.83 372.43 239.48 372.86C238.73 373.68 238.11 374.6 237.58 375.55C237.08 376.44 236.69 377.38 236.39 378.34C236.65 378.33 236.9 378.32 237.15 378.34C237.32 378.34 237.5 378.38 237.66 378.4C237.83 378.43 237.99 378.45 238.15 378.5L238.62 378.64L239.07 378.82C239.37 378.93 239.63 379.11 239.89 379.25C240.15 379.41 240.39 379.6 240.62 379.77C240.32 379.75 240.03 379.72 239.75 379.71C239.46 379.73 239.19 379.71 238.91 379.77L238.51 379.84L238.13 379.95C238.01 379.98 237.89 380.03 237.77 380.09C237.66 380.14 237.54 380.18 237.44 380.25C237.21 380.37 237 380.52 236.8 380.69C237.43 380.99 238.02 381.34 238.53 381.78C238.73 381.93 238.9 382.12 239.08 382.28L239.34 382.54L239.57 382.82C239.72 383.01 239.88 383.19 240.01 383.38L240.38 383.98C240.44 384.08 240.5 384.18 240.56 384.28L240.71 384.59L241 385.21C241.17 385.63 241.3 386.06 241.44 386.48C241.15 386.14 240.88 385.8 240.59 385.48L240.12 385.03L239.89 384.81C239.81 384.74 239.72 384.68 239.64 384.62L239.14 384.25C238.97 384.14 238.79 384.04 238.61 383.94L238.35 383.79L238.07 383.68C237.88 383.61 237.72 383.52 237.53 383.47C236.8 383.22 236.05 383.15 235.34 383.19C234.98 383.21 234.63 383.27 234.3 383.35C234.13 383.4 233.97 383.44 233.82 383.5C233.74 383.52 233.67 383.56 233.6 383.59C233.56 383.6 233.53 383.62 233.51 383.64C233.5 383.65 233.48 383.66 233.47 383.66C233.47 383.66 232.34 383.27 230.21 383.9C229.58 384.09 228.98 384.44 228.39 384.81C228.09 384.99 227.81 385.21 227.52 385.41C227.24 385.63 226.97 385.86 226.69 386.1C226.84 385.77 226.99 385.44 227.15 385.1C227.33 384.78 227.5 384.44 227.7 384.13C228.1 383.49 228.56 382.87 229.11 382.29C229.47 381.92 229.87 381.56 230.3 381.23C229.51 380.81 228.67 380.47 227.78 380.23C227.52 380.16 227.25 380.08 226.98 380.04C226.71 380 226.44 379.94 226.16 379.9C225.61 379.86 225.05 379.79 224.49 379.83C224.21 379.85 223.92 379.83 223.64 379.87L222.79 379.99C222.5 380.02 222.22 380.1 221.94 380.17L221.09 380.39L221.88 379.96Z" fill="#78B528"/>
<path d="M233.5 383.65V383.66C233.49 383.67 233.49 383.66 233.5 383.65Z" fill="#78B528"/>
<path d="M255.82 106.18C256.02 106.06 256.22 105.93 256.44 105.85L257.09 105.56C257.31 105.46 257.54 105.41 257.77 105.33C258.23 105.16 258.7 105.09 259.19 104.99C259.43 104.95 259.68 104.94 259.92 104.91C260.17 104.88 260.41 104.88 260.66 104.87C261.66 104.85 262.67 104.97 263.66 105.22L263.89 105.29C263.5 104.78 263.03 104.3 262.49 103.88L262.03 103.55C261.87 103.44 261.71 103.35 261.54 103.25C261.22 103.04 260.86 102.88 260.51 102.7C260.15 102.53 259.78 102.4 259.41 102.24L258.26 101.88L259.48 101.87C259.89 101.9 260.3 101.91 260.72 101.96C261.13 102.02 261.55 102.07 261.97 102.18C262.18 102.23 262.39 102.27 262.59 102.33L263.21 102.53C263.96 102.8 264.7 103.17 265.39 103.64C265.86 102.97 266.38 102.34 266.96 101.78C267.65 101.11 268.38 100.5 269.18 100.01C269.57 99.75 269.99 99.54 270.39 99.33C270.59 99.22 270.81 99.14 271.02 99.05L271.65 98.79L271.12 99.21C270.95 99.35 270.76 99.48 270.61 99.64C270.29 99.95 269.96 100.25 269.68 100.59C269.09 101.24 268.6 101.96 268.18 102.71C267.78 103.41 267.47 104.15 267.24 104.91C267.44 104.9 267.64 104.9 267.84 104.91C267.98 104.91 268.11 104.94 268.24 104.96C268.37 104.98 268.5 105 268.63 105.04L269 105.15L269.35 105.3C269.58 105.39 269.79 105.53 270 105.64C270.2 105.77 270.39 105.92 270.58 106.05C270.34 106.03 270.12 106.01 269.89 106.01C269.66 106.03 269.45 106.01 269.23 106.06L268.92 106.11L268.62 106.2C268.52 106.22 268.43 106.27 268.34 106.31C268.25 106.35 268.16 106.38 268.08 106.44C267.9 106.54 267.73 106.66 267.58 106.79C268.08 107.02 268.54 107.31 268.94 107.65C269.1 107.77 269.23 107.92 269.37 108.05L269.58 108.25L269.76 108.47C269.88 108.62 270 108.76 270.11 108.91L270.41 109.38C270.46 109.46 270.51 109.53 270.55 109.61L270.67 109.86L270.9 110.35C271.03 110.68 271.13 111.02 271.25 111.35C271.02 111.08 270.81 110.81 270.58 110.56L270.21 110.21L270.03 110.04C269.97 109.99 269.9 109.94 269.83 109.89L269.44 109.6C269.3 109.51 269.16 109.44 269.02 109.36L268.82 109.24L268.6 109.15C268.45 109.09 268.32 109.02 268.17 108.98C267.6 108.78 267.01 108.73 266.44 108.76C266.16 108.78 265.88 108.82 265.62 108.88C265.49 108.92 265.36 108.95 265.24 109C265.18 109.02 265.12 109.05 265.07 109.07C265.04 109.08 265.02 109.09 265 109.11C264.99 109.12 264.98 109.12 264.97 109.13C264.97 109.13 264.08 108.82 262.4 109.32C261.9 109.47 261.43 109.75 260.97 110.04C260.73 110.18 260.52 110.35 260.28 110.51C260.06 110.68 259.84 110.87 259.62 111.05C259.74 110.79 259.85 110.53 259.98 110.26C260.12 110.01 260.25 109.74 260.41 109.49C260.72 108.99 261.09 108.5 261.52 108.04C261.8 107.75 262.12 107.46 262.46 107.2C261.84 106.87 261.17 106.6 260.48 106.42C260.27 106.36 260.06 106.3 259.85 106.27C259.64 106.23 259.42 106.19 259.21 106.16C258.78 106.13 258.33 106.07 257.89 106.11C257.67 106.12 257.44 106.11 257.22 106.15L256.55 106.24C256.32 106.26 256.1 106.33 255.88 106.38L255.21 106.55L255.82 106.18Z" fill="#78B528"/>
<path d="M264.98 109.09V109.1C264.97 109.1 264.97 109.09 264.98 109.09Z" fill="#78B528"/>
<path d="M121.36 180.75C121.26 180.96 121.17 181.18 121.04 181.38L120.67 181.99C120.55 182.2 120.39 182.38 120.25 182.57C119.97 182.97 119.63 183.31 119.29 183.67C119.11 183.84 118.92 184 118.74 184.16C118.56 184.33 118.36 184.47 118.15 184.62C117.35 185.21 116.45 185.7 115.5 186.06L115.28 186.14C115.89 186.34 116.55 186.45 117.24 186.48L117.81 186.49C118 186.49 118.19 186.47 118.38 186.46C118.77 186.45 119.15 186.37 119.54 186.31C119.93 186.24 120.31 186.13 120.7 186.05L121.85 185.68L120.86 186.4C120.51 186.61 120.16 186.84 119.8 187.04C119.43 187.22 119.06 187.44 118.66 187.58C118.46 187.66 118.27 187.75 118.06 187.81L117.44 188C116.67 188.21 115.86 188.34 115.01 188.35C115.01 189.17 114.95 189.98 114.81 190.78C114.64 191.73 114.39 192.65 114.01 193.51C113.85 193.95 113.62 194.36 113.41 194.77C113.31 194.98 113.18 195.17 113.06 195.36L112.69 195.94L112.88 195.29C112.94 195.07 113.01 194.86 113.05 194.64C113.14 194.2 113.23 193.77 113.27 193.33C113.38 192.46 113.36 191.58 113.27 190.74C113.19 189.94 113.01 189.15 112.77 188.41C112.61 188.54 112.45 188.65 112.28 188.75C112.17 188.83 112.04 188.88 111.92 188.94C111.8 189 111.68 189.06 111.56 189.1L111.19 189.23L110.82 189.31C110.58 189.38 110.33 189.38 110.09 189.41C109.85 189.42 109.61 189.41 109.38 189.41C109.58 189.29 109.78 189.18 109.97 189.05C110.15 188.91 110.33 188.79 110.48 188.63L110.7 188.41L110.89 188.17C110.96 188.09 111.01 188.01 111.06 187.92C111.11 187.83 111.17 187.76 111.2 187.67C111.29 187.48 111.36 187.29 111.41 187.1C110.87 187.2 110.33 187.23 109.8 187.18C109.6 187.18 109.41 187.13 109.22 187.1L108.94 187.05L108.66 186.97C108.48 186.92 108.29 186.87 108.12 186.81L107.61 186.6C107.53 186.56 107.44 186.53 107.36 186.49L107.12 186.36L106.65 186.09C106.35 185.89 106.07 185.68 105.79 185.48C106.13 185.57 106.46 185.67 106.79 185.74L107.29 185.81L107.54 185.85C107.62 185.86 107.71 185.86 107.79 185.86L108.28 185.87C108.44 185.86 108.6 185.84 108.76 185.83L108.99 185.81L109.22 185.76C109.37 185.72 109.52 185.71 109.67 185.65C110.25 185.48 110.77 185.18 111.21 184.84C111.43 184.66 111.63 184.47 111.81 184.26C111.9 184.15 111.98 184.05 112.05 183.95C112.09 183.9 112.12 183.85 112.15 183.79C112.17 183.76 112.18 183.74 112.19 183.72C112.2 183.71 112.2 183.7 112.2 183.69C112.2 183.69 113.11 183.42 114.19 182.05C114.51 181.64 114.73 181.14 114.95 180.63C115.06 180.38 115.14 180.11 115.24 179.85C115.32 179.58 115.39 179.31 115.47 179.03C115.52 179.31 115.58 179.59 115.63 179.88C115.66 180.17 115.71 180.46 115.72 180.76C115.75 181.35 115.74 181.96 115.65 182.58C115.59 182.99 115.49 183.39 115.37 183.8C116.07 183.71 116.77 183.55 117.44 183.3C117.64 183.23 117.85 183.16 118.04 183.06C118.23 182.97 118.43 182.88 118.63 182.78C119 182.55 119.39 182.35 119.74 182.06C119.91 181.92 120.11 181.8 120.27 181.64L120.76 181.18C120.94 181.03 121.07 180.85 121.22 180.68L121.67 180.15L121.36 180.75Z" fill="#78B528"/>
<path d="M341.74 153.48C341.94 153.36 342.14 153.23 342.36 153.15L343.01 152.86C343.23 152.76 343.46 152.71 343.69 152.63C344.15 152.46 344.62 152.39 345.11 152.29C345.35 152.25 345.6 152.24 345.84 152.21C346.09 152.18 346.33 152.18 346.58 152.17C347.58 152.15 348.59 152.27 349.58 152.52L349.81 152.59C349.42 152.08 348.95 151.6 348.41 151.18L347.95 150.85C347.79 150.74 347.63 150.65 347.46 150.55C347.14 150.34 346.78 150.18 346.43 150C346.07 149.83 345.7 149.7 345.33 149.54L344.18 149.18L345.4 149.17C345.81 149.2 346.22 149.21 346.64 149.26C347.05 149.32 347.47 149.37 347.89 149.48C348.1 149.53 348.31 149.57 348.51 149.63L349.13 149.83C349.88 150.1 350.62 150.47 351.31 150.94C351.78 150.27 352.3 149.64 352.88 149.08C353.57 148.41 354.3 147.8 355.1 147.31C355.49 147.05 355.91 146.84 356.31 146.63C356.51 146.52 356.73 146.44 356.94 146.35L357.57 146.09L357.04 146.51C356.87 146.65 356.68 146.78 356.53 146.94C356.21 147.25 355.88 147.55 355.6 147.89C355.01 148.54 354.52 149.26 354.1 150.01C353.7 150.71 353.39 151.45 353.16 152.21C353.36 152.2 353.56 152.2 353.76 152.21C353.9 152.21 354.03 152.24 354.16 152.26C354.29 152.28 354.42 152.3 354.55 152.34L354.92 152.45L355.27 152.6C355.5 152.69 355.71 152.83 355.92 152.94C356.12 153.07 356.31 153.22 356.5 153.35C356.26 153.33 356.04 153.31 355.81 153.31C355.58 153.33 355.37 153.31 355.15 153.36L354.84 153.41L354.54 153.5C354.44 153.52 354.35 153.57 354.26 153.61C354.17 153.65 354.08 153.68 354 153.74C353.82 153.84 353.65 153.96 353.5 154.09C354 154.32 354.46 154.61 354.86 154.95C355.02 155.07 355.15 155.22 355.29 155.35L355.5 155.55L355.68 155.77C355.8 155.92 355.92 156.06 356.03 156.21L356.33 156.68C356.38 156.76 356.43 156.83 356.47 156.91L356.59 157.16L356.82 157.65C356.95 157.98 357.05 158.32 357.17 158.65C356.94 158.38 356.73 158.11 356.5 157.86L356.13 157.51L355.95 157.34C355.89 157.29 355.82 157.24 355.75 157.19L355.36 156.9C355.22 156.81 355.08 156.74 354.94 156.66L354.74 156.54L354.52 156.45C354.37 156.39 354.24 156.32 354.09 156.28C353.52 156.08 352.93 156.03 352.36 156.06C352.08 156.08 351.8 156.12 351.54 156.18C351.41 156.22 351.28 156.25 351.16 156.3C351.1 156.32 351.04 156.35 350.99 156.37C350.96 156.38 350.94 156.39 350.92 156.41C350.91 156.42 350.9 156.42 350.89 156.43C350.89 156.43 350 156.12 348.32 156.62C347.82 156.77 347.35 157.05 346.89 157.34C346.65 157.48 346.44 157.65 346.2 157.81C345.98 157.98 345.76 158.17 345.54 158.35C345.66 158.09 345.77 157.83 345.9 157.56C346.04 157.31 346.17 157.04 346.33 156.79C346.64 156.29 347.01 155.8 347.44 155.34C347.72 155.05 348.04 154.76 348.38 154.5C347.76 154.17 347.09 153.9 346.4 153.72C346.19 153.66 345.98 153.6 345.77 153.57C345.56 153.53 345.34 153.49 345.13 153.46C344.7 153.43 344.25 153.37 343.81 153.41C343.59 153.42 343.36 153.41 343.14 153.45L342.47 153.54C342.24 153.56 342.02 153.63 341.8 153.68L341.13 153.85L341.74 153.48Z" fill="#78B528"/>
</svg>
