<svg width="475" height="475" viewBox="0 0 475 475" fill="none" xmlns="http://www.w3.org/2000/svg">
<path opacity="0.1" d="M471.02 303.12C471.02 288.57 467.25 274.9 460.64 263.02C450.43 244.68 448.55 222.68 456.9 203.42C460.92 194.15 463.14 183.92 463.14 173.17C463.14 160.34 459.96 148.24 454.36 137.64C445.98 121.78 442.33 103.8 444 85.9399C444.15 84.3799 444.22 82.7999 444.22 81.2C444.22 53.28 421.59 30.65 393.67 30.65H393.61C389.68 30.65 385.93 29.05 383.19 26.22C369.44 12.03 350.18 3.20996 328.86 3.20996C321.37 3.20996 314.13 4.29997 307.3 6.33997C292.36 10.79 276.61 12.18 261.27 9.37C255.95 8.39999 250.46 7.89001 244.85 7.89001C234.8 7.89001 225.13 9.53005 216.09 12.55C200.92 17.62 184.72 19.31 169.01 16.28C164.93 15.49 160.72 15.08 156.41 15.08C138.86 15.08 122.9 21.9101 111.05 33.0601C107.08 36.8001 101.89 38.98 96.4399 38.97H95.88C54.89 38.97 21.66 72.1999 21.66 113.19C21.66 117.42 22.02 121.57 22.7 125.6C23.68 131.38 22.11 137.24 18.63 141.95C11.46 151.64 7.21997 163.62 7.21997 176.6C7.21997 185.99 9.44 194.86 13.38 202.71C18.71 213.33 18.61 225.91 12.8 236.27C6.70005 247.13 3.22998 259.66 3.22998 273C3.22998 289.32 8.43001 304.42 17.26 316.74C24.41 326.72 25.79 339.6 21.37 351.06C18.73 357.89 17.29 365.3 17.29 373.06C17.29 406.84 44.67 434.22 78.45 434.22C79.09 434.22 79.74 434.21 80.38 434.19C82.7 434.11 84.85 435.28 86.04 437.27C97.33 456.14 117.96 468.78 141.56 468.78C152.13 468.78 162.11 466.24 170.92 461.73C180.18 457 191.31 457.2 200.32 462.4C210.98 468.54 223.34 472.06 236.52 472.06C246.92 472.06 256.81 469.87 265.75 465.93C276.92 461.01 289.18 458.83 301.31 460.24C304.6 460.62 307.96 460.82 311.35 460.82C321.82 460.82 331.86 458.95 341.14 455.54C351.43 451.75 362.45 450.37 373.35 451.63C376.28 451.97 379.29 452.09 382.34 451.98C412.37 450.87 436.94 426.62 438.44 396.6C438.47 395.99 438.49 395.38 438.5 394.77C438.79 379.82 444.45 365.57 453.64 353.76C464.54 339.8 471.02 322.22 471.02 303.12Z" fill="#325766"/>
<path opacity="0.22" d="M449.28 265.57C449.28 258.56 447.75 251.92 445.02 245.94C438.81 232.38 438.11 216.97 443.49 203.06C446.57 195.1 448.26 186.46 448.26 177.42C448.26 163.42 444.22 150.37 437.24 139.36C429.88 127.75 427.26 113.67 429.78 100.15C430.3 97.34 430.58 94.43 430.58 91.47C430.58 65.38 409.43 44.24 383.35 44.24H383.29C379.62 44.24 376.11 42.74 373.55 40.1C360.7 26.84 342.71 18.6 322.78 18.6C308.44 18.6 295.11 22.88 283.97 30.22C279.74 33 274.26 33.08 269.99 30.38C260.93 24.64 250.19 21.3199 238.67 21.3199C224.8 21.3199 212.06 26.1401 202.02 34.1801C198.15 37.2801 192.83 37.89 188.36 35.74C180.28 31.86 171.22 29.6899 161.66 29.6899C144.35 29.6899 128.71 36.8 117.47 48.25C114.87 50.9 111.21 52.2001 107.5 52.0601C106.7 52.0301 105.9 52.02 105.1 52.02C66.7897 52.02 35.7397 83.07 35.7397 121.38C35.7397 121.39 35.7397 121.39 35.7397 121.4C35.7397 122.74 35.4298 124.06 34.7698 125.23C31.8798 130.31 30.2297 136.19 30.2297 142.45C30.2297 144.34 30.3798 146.2 30.6798 148.01C30.9598 149.72 30.6798 151.48 29.7998 152.97C25.0098 161.08 22.2598 170.54 22.2598 180.64C22.2598 190.51 24.8797 199.76 29.4697 207.75C34.5797 216.64 36.1997 227.21 33.6097 237.13C32.4597 241.53 31.8497 246.15 31.8497 250.91C31.8497 254.05 32.1198 257.13 32.6298 260.13C34.0498 268.45 32.2798 276.93 28.1698 284.31C24.7798 290.4 22.8597 297.41 22.8597 304.87C22.8597 312.55 24.8997 319.74 28.4697 325.95C33.1997 334.18 34.5397 343.93 32.7197 353.24C32.0197 356.8 31.6598 360.47 31.6598 364.23C31.6598 391.5 50.7498 414.3 76.2998 420.01C82.5998 421.42 88.1998 425.28 91.2898 430.95C95.2198 438.16 103.32 443.11 111.89 443.11C114.68 443.11 117.35 442.58 119.8 441.61C124.19 439.88 129.19 440.8 132.89 443.72C140.81 449.95 150.79 453.68 161.65 453.68C170.77 453.68 179.28 451.05 186.46 446.52C190.85 443.75 196.44 443.91 200.85 446.64C211.22 453.05 223.43 456.75 236.52 456.75C250.55 456.75 263.59 452.48 274.41 445.18C278.51 442.41 283.81 442.15 288.21 444.42C295.7 448.3 304.2 450.49 313.22 450.49C325.76 450.49 337.31 446.26 346.52 439.14C349.83 436.59 354.06 435.58 358.13 436.54C363.17 437.73 368.47 438.23 373.94 437.91C400.31 436.39 422.03 415.78 424.95 389.53C425.03 388.83 425.09 388.14 425.14 387.45C425.94 376.52 429.53 365.91 436.36 357.35C442.8 349.28 446.65 339.06 446.65 327.93C446.65 323.56 446.06 319.33 444.94 315.31C441.91 304.37 442.29 292.83 446.3 282.21C448.21 277.02 449.28 271.42 449.28 265.57Z" fill="#325766"/>
<path d="M442.77 264.72C442.77 257.93 441.29 251.48 438.64 245.69C432.62 232.54 431.94 217.6 437.15 204.12C440.13 196.41 441.77 188.02 441.77 179.26C441.77 165.69 437.85 153.04 431.09 142.37C423.95 131.11 421.42 117.46 423.86 104.36C424.37 101.63 424.63 98.8199 424.63 95.9399C424.63 70.6499 404.13 50.15 378.84 50.15H378.78C375.22 50.15 371.82 48.7 369.34 46.14C356.88 33.29 339.44 25.3 320.12 25.3C306.22 25.3 293.29 29.4501 282.49 36.5601C278.39 39.2601 273.08 39.34 268.93 36.71C260.14 31.15 249.73 27.92 238.56 27.92C225.11 27.92 212.76 32.59 203.03 40.39C199.28 43.4 194.12 43.98 189.78 41.9C181.94 38.14 173.16 36.03 163.89 36.03C147.11 36.03 131.94 42.92 121.05 54.02C118.53 56.59 114.98 57.85 111.38 57.71C110.61 57.68 109.83 57.67 109.05 57.67C71.9098 57.67 41.7998 87.78 41.7998 124.92C41.7998 124.93 41.7998 124.93 41.7998 124.94C41.7998 126.24 41.4997 127.52 40.8597 128.65C38.0597 133.58 36.4597 139.28 36.4597 145.35C36.4597 147.18 36.6098 148.98 36.8898 150.74C37.1598 152.4 36.8898 154.1 36.0298 155.55C31.3898 163.42 28.7197 172.58 28.7197 182.38C28.7197 191.95 31.2597 200.92 35.7097 208.66C40.6597 217.28 42.2397 227.53 39.7297 237.14C38.6197 241.41 38.0198 245.88 38.0198 250.5C38.0198 253.55 38.2798 256.53 38.7798 259.44C40.1598 267.51 38.4397 275.72 34.4597 282.88C31.1797 288.78 29.3098 295.58 29.3098 302.81C29.3098 310.25 31.2898 317.23 34.7498 323.25C39.3398 331.23 40.6298 340.68 38.8698 349.71C38.1998 353.16 37.8397 356.72 37.8397 360.37C37.8397 386.8 56.3498 408.92 81.1198 414.45C87.2298 415.82 92.6598 419.56 95.6598 425.06C99.4698 432.05 107.32 436.85 115.63 436.85C118.34 436.85 120.92 436.33 123.3 435.4C127.56 433.72 132.4 434.61 136 437.44C143.68 443.48 153.36 447.09 163.88 447.09C172.72 447.09 180.97 444.54 187.93 440.15C192.18 437.46 197.61 437.62 201.88 440.26C211.93 446.48 223.78 450.06 236.46 450.06C250.07 450.06 262.7 445.92 273.19 438.85C277.17 436.17 282.3 435.91 286.57 438.12C293.83 441.88 302.08 444 310.82 444C322.98 444 334.18 439.9 343.11 433C346.31 430.53 350.42 429.55 354.36 430.48C359.24 431.64 364.39 432.12 369.69 431.81C395.26 430.34 416.31 410.36 419.14 384.9C419.22 384.22 419.28 383.55 419.33 382.88C420.1 372.29 423.58 362 430.21 353.7C436.45 345.88 440.19 335.97 440.19 325.18C440.19 320.94 439.61 316.84 438.53 312.95C435.59 302.34 435.96 291.15 439.85 280.85C441.73 275.82 442.77 270.39 442.77 264.72Z" fill="#DCEEF2"/>
<path d="M345.3 56.5699C373.64 56.5199 398.47 75.3 405.58 102.25C418.06 149.59 430.95 234.65 415.47 360.49C413.88 373.39 408.24 385.05 399.82 394.18C394.45 400 387.95 404.8 380.65 408.24C374.95 410.93 368.76 412.8 362.23 413.68C362.22 413.68 362.2 413.69 362.19 413.69C359.82 414.01 357.38 414.33 354.86 414.65C352.55 414.95 350.17 415.24 347.74 415.53C340.95 416.34 333.72 417.13 326.1 417.88C318.3 418.64 310.1 419.35 301.55 419.98C250.31 423.71 101.9 434.64 75.97 393.41C44.86 343.95 51.2 220.41 56.15 130.17C56.17 129.8 56.19 129.43 56.23 129.05C56.45 126.04 56.8901 123.08 57.5501 120.2C59.3901 112.07 62.89 104.53 67.69 97.9499C76.44 85.9599 89.54 77.18 104.9 73.87C105.92 73.65 106.94 73.45 107.98 73.28C114.03 72.29 120.67 71.26 127.91 70.23C127.91 70.23 127.91 70.23 127.92 70.23C136.79 68.97 146.55 67.71 157.21 66.48C176.1 64.31 197.82 62.27 222.42 60.6C228.71 60.18 235.19 59.78 241.86 59.41C247.65 59.09 253.59 58.79 259.68 58.52C264.98 58.28 270.4 58.06 275.93 57.86C297.37 57.08 320.49 56.6199 345.3 56.5699Z" fill="#C4D3D6"/>
<path d="M341.66 62.77C369.04 62.72 393.04 80.87 399.9 106.91C411.96 152.65 424.41 234.84 409.46 356.45C407.92 368.92 402.47 380.18 394.34 389.01C389.15 394.63 382.87 399.27 375.82 402.59C370.31 405.19 364.33 407 358.02 407.85C358.01 407.85 357.99 407.86 357.98 407.86C355.69 408.17 353.33 408.48 350.89 408.78C348.66 409.07 346.36 409.35 344.01 409.63C337.45 410.41 330.47 411.18 323.1 411.9C315.57 412.64 307.64 413.32 299.37 413.93C249.86 417.54 106.45 428.1 81.39 388.25C51.33 340.46 57.4599 221.08 62.2399 133.88C62.2599 133.52 62.28 133.16 62.31 132.8C62.52 129.89 62.9499 127.03 63.5799 124.25C65.3599 116.39 68.74 109.1 73.38 102.75C81.84 91.16 94.4899 82.68 109.34 79.48C110.32 79.27 111.31 79.08 112.31 78.91C118.16 77.95 124.58 76.95 131.57 75.97C131.57 75.97 131.57 75.97 131.58 75.97C140.15 74.76 149.58 73.53 159.88 72.35C178.13 70.25 199.12 68.28 222.89 66.67C228.97 66.27 235.23 65.88 241.68 65.52C247.28 65.21 253.02 64.92 258.9 64.66C264.03 64.42 269.26 64.21 274.6 64.02C295.34 63.26 317.69 62.81 341.66 62.77Z" fill="#A1AEB0"/>
<path d="M338.57 68.03C365.14 67.98 388.43 85.6 395.09 110.86C406.79 155.24 418.88 235 404.36 353C402.87 365.1 397.58 376.03 389.68 384.59C384.65 390.05 378.55 394.54 371.71 397.77C366.37 400.29 360.56 402.04 354.44 402.87C354.43 402.87 354.41 402.88 354.4 402.88C352.18 403.18 349.89 403.48 347.52 403.78C345.36 404.06 343.13 404.34 340.85 404.61C334.49 405.37 327.71 406.11 320.56 406.82C313.25 407.53 305.56 408.2 297.54 408.79C249.5 412.29 110.34 422.54 86.0202 383.87C56.8502 337.49 62.8001 221.66 67.4401 137.04C67.4601 136.69 67.4802 136.34 67.5102 135.99C67.7102 133.17 68.1302 130.39 68.7402 127.69C70.4702 120.07 73.7402 112.99 78.2502 106.83C86.4602 95.5899 98.7402 87.35 113.14 84.25C114.09 84.05 115.05 83.8599 116.03 83.6999C121.71 82.7699 127.93 81.7999 134.72 80.8399C134.72 80.8399 134.72 80.8399 134.73 80.8399C143.04 79.6599 152.2 78.4699 162.19 77.3299C179.9 75.2899 200.26 73.3799 223.34 71.8199C229.24 71.4299 235.31 71.0499 241.57 70.6999C247 70.3999 252.57 70.12 258.28 69.86C263.25 69.63 268.33 69.43 273.52 69.24C293.62 68.5 315.31 68.07 338.57 68.03Z" fill="#A6886A"/>
<path d="M79.1799 143.67C67.7799 193.35 64.2599 326.13 88.6699 371.26C95.6299 384.13 95.5399 401.76 205.99 404.16C299.29 406.19 391.16 400.38 399.84 345.58C408.53 290.78 402.06 115.66 371.69 92.01C353.15 77.58 342.41 69.18 187.09 79.91C157.12 81.97 93.9299 79.4 79.1799 143.67Z" fill="#C9A27B"/>
<path d="M88.7598 147.97C83.3398 175.51 75.9199 312.27 93.3999 364.74C97.8499 378.09 98.0399 401.22 207.31 397.78C296.96 394.96 385.29 394.15 393.64 341.47C401.99 288.79 395.78 120.47 366.58 97.74C348.76 83.87 338.44 75.8 189.14 86.11C160.33 88.1 99.5798 92.98 88.7598 147.97Z" fill="#E9C77F"/>
<path d="M118.55 115.24C100.94 128.93 85.8001 159.36 93.3701 213.24C99.7301 258.54 84.4301 298.87 94.1601 332.05C106.43 373.86 136.48 382.13 175.22 386.49C201.03 389.39 259.8 386.07 305.16 378.34C358.8 369.2 384.08 346.15 388.85 311.78C393.79 276.15 389.18 234.87 384.84 211.05C380.48 187.15 380.45 168.09 372.3 137.43C366.22 114.55 352.75 90.86 309.54 89.39C275.78 88.24 258.36 89.3499 205.83 89.9499C164.92 90.4299 139.86 98.68 118.55 115.24Z" fill="#F4DA8F"/>
<path d="M168.47 105.69C168.47 105.69 112.35 118.68 107.03 177.49C101.71 236.3 90.0901 323.43 118.55 347.42C147.01 371.41 212.7 388 294.03 357.46C375.36 326.91 383.04 281.21 375.89 245.84C368.74 210.47 367.94 146.92 352.05 126.64C336.16 106.36 306.75 97.89 258.27 99.35C209.79 100.8 168.47 105.69 168.47 105.69Z" fill="#FFE99D"/>
<path d="M129.97 319.51C130.975 319.51 131.79 318.695 131.79 317.69C131.79 316.685 130.975 315.87 129.97 315.87C128.965 315.87 128.15 316.685 128.15 317.69C128.15 318.695 128.965 319.51 129.97 319.51Z" fill="#F4DA8F"/>
<path d="M115.59 335.8C116.705 335.8 117.61 334.896 117.61 333.78C117.61 332.664 116.705 331.76 115.59 331.76C114.474 331.76 113.57 332.664 113.57 333.78C113.57 334.896 114.474 335.8 115.59 335.8Z" fill="#F4DA8F"/>
<path d="M146.69 365.62C148.187 365.62 149.4 364.407 149.4 362.91C149.4 361.413 148.187 360.2 146.69 360.2C145.193 360.2 143.98 361.413 143.98 362.91C143.98 364.407 145.193 365.62 146.69 365.62Z" fill="#F4DA8F"/>
<path d="M165.36 373.04C166.857 373.04 168.07 371.827 168.07 370.33C168.07 368.833 166.857 367.62 165.36 367.62C163.863 367.62 162.65 368.833 162.65 370.33C162.65 371.827 163.863 373.04 165.36 373.04Z" fill="#F4DA8F"/>
<path d="M110.33 313.74C111.827 313.74 113.04 312.527 113.04 311.03C113.04 309.533 111.827 308.32 110.33 308.32C108.833 308.32 107.62 309.533 107.62 311.03C107.62 312.527 108.833 313.74 110.33 313.74Z" fill="#F4DA8F"/>
<path d="M101.82 304.24C103.317 304.24 104.53 303.027 104.53 301.53C104.53 300.033 103.317 298.82 101.82 298.82C100.323 298.82 99.1099 300.033 99.1099 301.53C99.1099 303.027 100.323 304.24 101.82 304.24Z" fill="#F4DA8F"/>
<path d="M100.33 300.79C101.827 300.79 103.04 299.577 103.04 298.08C103.04 296.583 101.827 295.37 100.33 295.37C98.8334 295.37 97.6201 296.583 97.6201 298.08C97.6201 299.577 98.8334 300.79 100.33 300.79Z" fill="#F4DA8F"/>
<path d="M99.71 286.09C101.207 286.09 102.42 284.877 102.42 283.38C102.42 281.883 101.207 280.67 99.71 280.67C98.2133 280.67 97 281.883 97 283.38C97 284.877 98.2133 286.09 99.71 286.09Z" fill="#F4DA8F"/>
<path d="M128.48 357.65C129.977 357.65 131.19 356.437 131.19 354.94C131.19 353.443 129.977 352.23 128.48 352.23C126.983 352.23 125.77 353.443 125.77 354.94C125.77 356.437 126.983 357.65 128.48 357.65Z" fill="#F4DA8F"/>
<path d="M135.3 339.24C136.797 339.24 138.01 338.027 138.01 336.53C138.01 335.033 136.797 333.82 135.3 333.82C133.803 333.82 132.59 335.033 132.59 336.53C132.59 338.027 133.803 339.24 135.3 339.24Z" fill="#F4DA8F"/>
<path d="M118.03 348.09C119.527 348.09 120.74 346.877 120.74 345.38C120.74 343.883 119.527 342.67 118.03 342.67C116.533 342.67 115.32 343.883 115.32 345.38C115.32 346.877 116.533 348.09 118.03 348.09Z" fill="#F4DA8F"/>
<path d="M136.28 361.62C137.777 361.62 138.99 360.407 138.99 358.91C138.99 357.413 137.777 356.2 136.28 356.2C134.783 356.2 133.57 357.413 133.57 358.91C133.57 360.407 134.783 361.62 136.28 361.62Z" fill="#F4DA8F"/>
<path d="M161.53 370.89C163.027 370.89 164.24 369.677 164.24 368.18C164.24 366.683 163.027 365.47 161.53 365.47C160.033 365.47 158.82 366.683 158.82 368.18C158.82 369.677 160.033 370.89 161.53 370.89Z" fill="#F4DA8F"/>
<path d="M141.14 364.2C143.349 364.2 145.14 362.409 145.14 360.2C145.14 357.991 143.349 356.2 141.14 356.2C138.931 356.2 137.14 357.991 137.14 360.2C137.14 362.409 138.931 364.2 141.14 364.2Z" fill="#F4DA8F"/>
<path d="M152.81 355.67C153.76 355.67 154.53 354.9 154.53 353.95C154.53 353 153.76 352.23 152.81 352.23C151.86 352.23 151.09 353 151.09 353.95C151.09 354.9 151.86 355.67 152.81 355.67Z" fill="#F4DA8F"/>
<path d="M114.76 342.67C115.71 342.67 116.48 341.9 116.48 340.95C116.48 340 115.71 339.23 114.76 339.23C113.81 339.23 113.04 340 113.04 340.95C113.04 341.9 113.81 342.67 114.76 342.67Z" fill="#F4DA8F"/>
<path d="M166.35 365.92C167.3 365.92 168.07 365.15 168.07 364.2C168.07 363.25 167.3 362.48 166.35 362.48C165.4 362.48 164.63 363.25 164.63 364.2C164.63 365.15 165.4 365.92 166.35 365.92Z" fill="#F4DA8F"/>
<path d="M123.5 337.51C124.45 337.51 125.22 336.74 125.22 335.79C125.22 334.84 124.45 334.07 123.5 334.07C122.55 334.07 121.78 334.84 121.78 335.79C121.78 336.74 122.55 337.51 123.5 337.51Z" fill="#F4DA8F"/>
<path d="M128.16 346.26C129.11 346.26 129.88 345.49 129.88 344.54C129.88 343.59 129.11 342.82 128.16 342.82C127.21 342.82 126.44 343.59 126.44 344.54C126.44 345.49 127.21 346.26 128.16 346.26Z" fill="#F4DA8F"/>
<path d="M149.79 339.23C150.74 339.23 151.51 338.46 151.51 337.51C151.51 336.56 150.74 335.79 149.79 335.79C148.84 335.79 148.07 336.56 148.07 337.51C148.07 338.46 148.84 339.23 149.79 339.23Z" fill="#F4DA8F"/>
<path d="M108.42 319.51C108.934 319.51 109.35 319.094 109.35 318.58C109.35 318.066 108.934 317.65 108.42 317.65C107.907 317.65 107.49 318.066 107.49 318.58C107.49 319.094 107.907 319.51 108.42 319.51Z" fill="#F4DA8F"/>
<path d="M103.67 306.34C104.184 306.34 104.6 305.924 104.6 305.41C104.6 304.896 104.184 304.48 103.67 304.48C103.157 304.48 102.74 304.896 102.74 305.41C102.74 305.924 103.157 306.34 103.67 306.34Z" fill="#F4DA8F"/>
<path d="M104.53 298.82C105.044 298.82 105.46 298.404 105.46 297.89C105.46 297.376 105.044 296.96 104.53 296.96C104.017 296.96 103.6 297.376 103.6 297.89C103.6 298.404 104.017 298.82 104.53 298.82Z" fill="#F4DA8F"/>
<path d="M110.33 307.27C110.843 307.27 111.26 306.854 111.26 306.34C111.26 305.826 110.843 305.41 110.33 305.41C109.816 305.41 109.4 305.826 109.4 306.34C109.4 306.854 109.816 307.27 110.33 307.27Z" fill="#F4DA8F"/>
<path d="M105.12 311.03C105.634 311.03 106.05 310.614 106.05 310.1C106.05 309.586 105.634 309.17 105.12 309.17C104.606 309.17 104.19 309.586 104.19 310.1C104.19 310.614 104.606 311.03 105.12 311.03Z" fill="#F4DA8F"/>
<path d="M118.35 310.58C118.863 310.58 119.28 310.164 119.28 309.65C119.28 309.136 118.863 308.72 118.35 308.72C117.836 308.72 117.42 309.136 117.42 309.65C117.42 310.164 117.836 310.58 118.35 310.58Z" fill="#F4DA8F"/>
<path d="M136.28 298.08C136.794 298.08 137.21 297.664 137.21 297.15C137.21 296.636 136.794 296.22 136.28 296.22C135.767 296.22 135.35 296.636 135.35 297.15C135.35 297.664 135.767 298.08 136.28 298.08Z" fill="#F4DA8F"/>
<path d="M167.87 282.53C168.384 282.53 168.8 282.114 168.8 281.6C168.8 281.086 168.384 280.67 167.87 280.67C167.356 280.67 166.94 281.086 166.94 281.6C166.94 282.114 167.356 282.53 167.87 282.53Z" fill="#F4DA8F"/>
<path d="M113.04 328.6C113.554 328.6 113.97 328.184 113.97 327.67C113.97 327.156 113.554 326.74 113.04 326.74C112.526 326.74 112.11 327.156 112.11 327.67C112.11 328.184 112.526 328.6 113.04 328.6Z" fill="#F4DA8F"/>
<path d="M123.9 327.67C124.413 327.67 124.83 327.254 124.83 326.74C124.83 326.226 124.413 325.81 123.9 325.81C123.386 325.81 122.97 326.226 122.97 326.74C122.97 327.254 123.386 327.67 123.9 327.67Z" fill="#F4DA8F"/>
<path d="M199 372.19C199.514 372.19 199.93 371.774 199.93 371.26C199.93 370.746 199.514 370.33 199 370.33C198.486 370.33 198.07 370.746 198.07 371.26C198.07 371.774 198.486 372.19 199 372.19Z" fill="#F4DA8F"/>
<path d="M177.85 334.75C178.363 334.75 178.78 334.334 178.78 333.82C178.78 333.306 178.363 332.89 177.85 332.89C177.336 332.89 176.92 333.306 176.92 333.82C176.92 334.334 177.336 334.75 177.85 334.75Z" fill="#F4DA8F"/>
<path d="M203.46 363.84C203.974 363.84 204.39 363.424 204.39 362.91C204.39 362.396 203.974 361.98 203.46 361.98C202.947 361.98 202.53 362.396 202.53 362.91C202.53 363.424 202.947 363.84 203.46 363.84Z" fill="#F4DA8F"/>
<path d="M201.6 374.54C202.113 374.54 202.53 374.124 202.53 373.61C202.53 373.096 202.113 372.68 201.6 372.68C201.086 372.68 200.67 373.096 200.67 373.61C200.67 374.124 201.086 374.54 201.6 374.54Z" fill="#F4DA8F"/>
<path d="M178.38 367.78C178.894 367.78 179.31 367.364 179.31 366.85C179.31 366.336 178.894 365.92 178.38 365.92C177.867 365.92 177.45 366.336 177.45 366.85C177.45 367.364 177.867 367.78 178.38 367.78Z" fill="#F4DA8F"/>
<path d="M115.32 344.54C116.065 344.54 116.67 343.936 116.67 343.19C116.67 342.444 116.065 341.84 115.32 341.84C114.574 341.84 113.97 342.444 113.97 343.19C113.97 343.936 114.574 344.54 115.32 344.54Z" fill="#F4DA8F"/>
<path d="M172.4 320.3C173.35 320.3 174.12 319.53 174.12 318.58C174.12 317.63 173.35 316.86 172.4 316.86C171.45 316.86 170.68 317.63 170.68 318.58C170.68 319.53 171.45 320.3 172.4 320.3Z" fill="#F4DA8F"/>
<path d="M120.07 293.22C121.02 293.22 121.79 292.45 121.79 291.5C121.79 290.55 121.02 289.78 120.07 289.78C119.12 289.78 118.35 290.55 118.35 291.5C118.35 292.45 119.12 293.22 120.07 293.22Z" fill="#F4DA8F"/>
<path d="M107.35 275.34C108.3 275.34 109.07 274.57 109.07 273.62C109.07 272.67 108.3 271.9 107.35 271.9C106.4 271.9 105.63 272.67 105.63 273.62C105.63 274.57 106.4 275.34 107.35 275.34Z" fill="#F4DA8F"/>
<path d="M103.67 289.02C104.62 289.02 105.39 288.25 105.39 287.3C105.39 286.35 104.62 285.58 103.67 285.58C102.72 285.58 101.95 286.35 101.95 287.3C101.95 288.25 102.72 289.02 103.67 289.02Z" fill="#F4DA8F"/>
<path d="M105.91 307.67C106.86 307.67 107.63 306.9 107.63 305.95C107.63 305 106.86 304.23 105.91 304.23C104.96 304.23 104.19 305 104.19 305.95C104.19 306.9 104.96 307.67 105.91 307.67Z" fill="#F4DA8F"/>
<path d="M100.33 282.39C101.28 282.39 102.05 281.62 102.05 280.67C102.05 279.72 101.28 278.95 100.33 278.95C99.3799 278.95 98.6099 279.72 98.6099 280.67C98.6099 281.62 99.3799 282.39 100.33 282.39Z" fill="#F4DA8F"/>
<path d="M100.33 283.03C102.169 283.03 103.66 281.539 103.66 279.7C103.66 277.861 102.169 276.37 100.33 276.37C98.4908 276.37 97 277.861 97 279.7C97 281.539 98.4908 283.03 100.33 283.03Z" fill="#F4DA8F"/>
<path d="M340.36 154.87C341.365 154.87 342.18 154.055 342.18 153.05C342.18 152.045 341.365 151.23 340.36 151.23C339.355 151.23 338.54 152.045 338.54 153.05C338.54 154.055 339.355 154.87 340.36 154.87Z" fill="#F4DA8F"/>
<path d="M354.74 138.98C355.855 138.98 356.76 138.076 356.76 136.96C356.76 135.844 355.855 134.94 354.74 134.94C353.624 134.94 352.72 135.844 352.72 136.96C352.72 138.076 353.624 138.98 354.74 138.98Z" fill="#F4DA8F"/>
<path d="M323.64 110.54C325.136 110.54 326.35 109.327 326.35 107.83C326.35 106.333 325.136 105.12 323.64 105.12C322.143 105.12 320.93 106.333 320.93 107.83C320.93 109.327 322.143 110.54 323.64 110.54Z" fill="#F4DA8F"/>
<path d="M304.97 103.12C306.466 103.12 307.68 101.907 307.68 100.41C307.68 98.9133 306.466 97.7 304.97 97.7C303.473 97.7 302.26 98.9133 302.26 100.41C302.26 101.907 303.473 103.12 304.97 103.12Z" fill="#F4DA8F"/>
<path d="M360 162.42C361.497 162.42 362.71 161.207 362.71 159.71C362.71 158.213 361.497 157 360 157C358.503 157 357.29 158.213 357.29 159.71C357.29 161.207 358.503 162.42 360 162.42Z" fill="#F4DA8F"/>
<path d="M368.51 171.92C370.006 171.92 371.22 170.707 371.22 169.21C371.22 167.713 370.006 166.5 368.51 166.5C367.013 166.5 365.8 167.713 365.8 169.21C365.8 170.707 367.013 171.92 368.51 171.92Z" fill="#F4DA8F"/>
<path d="M370 175.37C371.497 175.37 372.71 174.157 372.71 172.66C372.71 171.163 371.497 169.95 370 169.95C368.503 169.95 367.29 171.163 367.29 172.66C367.29 174.157 368.503 175.37 370 175.37Z" fill="#F4DA8F"/>
<path d="M370.62 190.07C372.117 190.07 373.33 188.857 373.33 187.36C373.33 185.863 372.117 184.65 370.62 184.65C369.124 184.65 367.91 185.863 367.91 187.36C367.91 188.857 369.124 190.07 370.62 190.07Z" fill="#F4DA8F"/>
<path d="M341.85 118.51C343.347 118.51 344.56 117.297 344.56 115.8C344.56 114.303 343.347 113.09 341.85 113.09C340.353 113.09 339.14 114.303 339.14 115.8C339.14 117.297 340.353 118.51 341.85 118.51Z" fill="#F4DA8F"/>
<path d="M335.03 136.92C336.527 136.92 337.74 135.707 337.74 134.21C337.74 132.713 336.527 131.5 335.03 131.5C333.534 131.5 332.32 132.713 332.32 134.21C332.32 135.707 333.534 136.92 335.03 136.92Z" fill="#F4DA8F"/>
<path d="M352.3 128.07C353.796 128.07 355.01 126.857 355.01 125.36C355.01 123.863 353.796 122.65 352.3 122.65C350.803 122.65 349.59 123.863 349.59 125.36C349.59 126.857 350.803 128.07 352.3 128.07Z" fill="#F4DA8F"/>
<path d="M334.05 114.54C335.546 114.54 336.76 113.327 336.76 111.83C336.76 110.333 335.546 109.12 334.05 109.12C332.553 109.12 331.34 110.333 331.34 111.83C331.34 113.327 332.553 114.54 334.05 114.54Z" fill="#F4DA8F"/>
<path d="M308.8 105.27C310.296 105.27 311.51 104.057 311.51 102.56C311.51 101.063 310.296 99.85 308.8 99.85C307.303 99.85 306.09 101.063 306.09 102.56C306.09 104.057 307.303 105.27 308.8 105.27Z" fill="#F4DA8F"/>
<path d="M329.19 114.54C331.399 114.54 333.19 112.749 333.19 110.54C333.19 108.331 331.399 106.54 329.19 106.54C326.981 106.54 325.19 108.331 325.19 110.54C325.19 112.749 326.981 114.54 329.19 114.54Z" fill="#F4DA8F"/>
<path d="M317.52 118.51C318.47 118.51 319.24 117.74 319.24 116.79C319.24 115.84 318.47 115.07 317.52 115.07C316.57 115.07 315.8 115.84 315.8 116.79C315.8 117.74 316.57 118.51 317.52 118.51Z" fill="#F4DA8F"/>
<path d="M355.57 131.51C356.52 131.51 357.29 130.74 357.29 129.79C357.29 128.84 356.52 128.07 355.57 128.07C354.62 128.07 353.85 128.84 353.85 129.79C353.85 130.74 354.62 131.51 355.57 131.51Z" fill="#F4DA8F"/>
<path d="M303.98 108.26C304.93 108.26 305.7 107.49 305.7 106.54C305.7 105.59 304.93 104.82 303.98 104.82C303.03 104.82 302.26 105.59 302.26 106.54C302.26 107.49 303.03 108.26 303.98 108.26Z" fill="#F4DA8F"/>
<path d="M346.83 136.66C347.78 136.66 348.55 135.89 348.55 134.94C348.55 133.99 347.78 133.22 346.83 133.22C345.88 133.22 345.11 133.99 345.11 134.94C345.11 135.89 345.88 136.66 346.83 136.66Z" fill="#F4DA8F"/>
<path d="M342.17 127.92C343.12 127.92 343.89 127.15 343.89 126.2C343.89 125.25 343.12 124.48 342.17 124.48C341.22 124.48 340.45 125.25 340.45 126.2C340.45 127.15 341.22 127.92 342.17 127.92Z" fill="#F4DA8F"/>
<path d="M320.54 134.94C321.49 134.94 322.26 134.17 322.26 133.22C322.26 132.27 321.49 131.5 320.54 131.5C319.59 131.5 318.82 132.27 318.82 133.22C318.82 134.17 319.59 134.94 320.54 134.94Z" fill="#F4DA8F"/>
<path d="M361.91 153.09C362.424 153.09 362.84 152.674 362.84 152.16C362.84 151.646 362.424 151.23 361.91 151.23C361.396 151.23 360.98 151.646 360.98 152.16C360.98 152.674 361.396 153.09 361.91 153.09Z" fill="#F4DA8F"/>
<path d="M366.66 166.26C367.174 166.26 367.59 165.844 367.59 165.33C367.59 164.816 367.174 164.4 366.66 164.4C366.146 164.4 365.73 164.816 365.73 165.33C365.73 165.844 366.146 166.26 366.66 166.26Z" fill="#F4DA8F"/>
<path d="M365.8 173.78C366.314 173.78 366.73 173.364 366.73 172.85C366.73 172.336 366.314 171.92 365.8 171.92C365.286 171.92 364.87 172.336 364.87 172.85C364.87 173.364 365.286 173.78 365.8 173.78Z" fill="#F4DA8F"/>
<path d="M360 165.33C360.514 165.33 360.93 164.914 360.93 164.4C360.93 163.886 360.514 163.47 360 163.47C359.487 163.47 359.07 163.886 359.07 164.4C359.07 164.914 359.487 165.33 360 165.33Z" fill="#F4DA8F"/>
<path d="M365.21 161.57C365.724 161.57 366.14 161.154 366.14 160.64C366.14 160.126 365.724 159.71 365.21 159.71C364.697 159.71 364.28 160.126 364.28 160.64C364.28 161.154 364.697 161.57 365.21 161.57Z" fill="#F4DA8F"/>
<path d="M351.98 162.02C352.493 162.02 352.91 161.604 352.91 161.09C352.91 160.576 352.493 160.16 351.98 160.16C351.466 160.16 351.05 160.576 351.05 161.09C351.05 161.604 351.466 162.02 351.98 162.02Z" fill="#F4DA8F"/>
<path d="M334.05 174.51C334.564 174.51 334.98 174.094 334.98 173.58C334.98 173.066 334.564 172.65 334.05 172.65C333.536 172.65 333.12 173.066 333.12 173.58C333.12 174.094 333.536 174.51 334.05 174.51Z" fill="#F4DA8F"/>
<path d="M302.46 190.07C302.974 190.07 303.39 189.654 303.39 189.14C303.39 188.626 302.974 188.21 302.46 188.21C301.947 188.21 301.53 188.626 301.53 189.14C301.53 189.654 301.947 190.07 302.46 190.07Z" fill="#F4DA8F"/>
<path d="M357.29 144C357.804 144 358.22 143.584 358.22 143.07C358.22 142.556 357.804 142.14 357.29 142.14C356.777 142.14 356.36 142.556 356.36 143.07C356.36 143.584 356.777 144 357.29 144Z" fill="#F4DA8F"/>
<path d="M346.43 144.93C346.944 144.93 347.36 144.514 347.36 144C347.36 143.486 346.944 143.07 346.43 143.07C345.916 143.07 345.5 143.486 345.5 144C345.5 144.514 345.916 144.93 346.43 144.93Z" fill="#F4DA8F"/>
<path d="M271.33 100.41C271.843 100.41 272.26 99.9936 272.26 99.48C272.26 98.9664 271.843 98.55 271.33 98.55C270.816 98.55 270.4 98.9664 270.4 99.48C270.4 99.9936 270.816 100.41 271.33 100.41Z" fill="#F4DA8F"/>
<path d="M292.48 137.85C292.993 137.85 293.41 137.434 293.41 136.92C293.41 136.406 292.993 135.99 292.48 135.99C291.966 135.99 291.55 136.406 291.55 136.92C291.55 137.434 291.966 137.85 292.48 137.85Z" fill="#F4DA8F"/>
<path d="M266.87 108.76C267.384 108.76 267.8 108.344 267.8 107.83C267.8 107.316 267.384 106.9 266.87 106.9C266.356 106.9 265.94 107.316 265.94 107.83C265.94 108.344 266.356 108.76 266.87 108.76Z" fill="#F4DA8F"/>
<path d="M268.72 98.0601C269.234 98.0601 269.65 97.6436 269.65 97.13C269.65 96.6164 269.234 96.2 268.72 96.2C268.206 96.2 267.79 96.6164 267.79 97.13C267.79 97.6436 268.206 98.0601 268.72 98.0601Z" fill="#F4DA8F"/>
<path d="M291.95 104.82C292.464 104.82 292.88 104.404 292.88 103.89C292.88 103.376 292.464 102.96 291.95 102.96C291.436 102.96 291.02 103.376 291.02 103.89C291.02 104.404 291.436 104.82 291.95 104.82Z" fill="#F4DA8F"/>
<path d="M355.01 128.9C355.756 128.9 356.36 128.296 356.36 127.55C356.36 126.804 355.756 126.2 355.01 126.2C354.265 126.2 353.66 126.804 353.66 127.55C353.66 128.296 354.265 128.9 355.01 128.9Z" fill="#F4DA8F"/>
<path d="M297.93 153.88C298.88 153.88 299.65 153.11 299.65 152.16C299.65 151.21 298.88 150.44 297.93 150.44C296.98 150.44 296.21 151.21 296.21 152.16C296.21 153.11 296.98 153.88 297.93 153.88Z" fill="#F4DA8F"/>
<path d="M350.26 180.96C351.21 180.96 351.98 180.19 351.98 179.24C351.98 178.29 351.21 177.52 350.26 177.52C349.31 177.52 348.54 178.29 348.54 179.24C348.54 180.19 349.31 180.96 350.26 180.96Z" fill="#F4DA8F"/>
<path d="M362.98 198.84C363.93 198.84 364.7 198.07 364.7 197.12C364.7 196.17 363.93 195.4 362.98 195.4C362.03 195.4 361.26 196.17 361.26 197.12C361.26 198.07 362.03 198.84 362.98 198.84Z" fill="#F4DA8F"/>
<path d="M366.66 185.16C367.61 185.16 368.38 184.39 368.38 183.44C368.38 182.49 367.61 181.72 366.66 181.72C365.71 181.72 364.94 182.49 364.94 183.44C364.94 184.39 365.71 185.16 366.66 185.16Z" fill="#F4DA8F"/>
<path d="M364.42 166.51C365.37 166.51 366.14 165.74 366.14 164.79C366.14 163.84 365.37 163.07 364.42 163.07C363.47 163.07 362.7 163.84 362.7 164.79C362.7 165.74 363.47 166.51 364.42 166.51Z" fill="#F4DA8F"/>
<path d="M370 191.79C370.95 191.79 371.72 191.02 371.72 190.07C371.72 189.12 370.95 188.35 370 188.35C369.05 188.35 368.28 189.12 368.28 190.07C368.28 191.02 369.05 191.79 370 191.79Z" fill="#F4DA8F"/>
<path d="M370 194.37C371.839 194.37 373.33 192.879 373.33 191.04C373.33 189.201 371.839 187.71 370 187.71C368.161 187.71 366.67 189.201 366.67 191.04C366.67 192.879 368.161 194.37 370 194.37Z" fill="#F4DA8F"/>
<path d="M299.52 330.92C300.525 330.92 301.34 330.105 301.34 329.1C301.34 328.095 300.525 327.28 299.52 327.28C298.515 327.28 297.7 328.095 297.7 329.1C297.7 330.105 298.515 330.92 299.52 330.92Z" fill="#F4DA8F"/>
<path d="M323.54 344.78C324.656 344.78 325.56 343.876 325.56 342.76C325.56 341.644 324.656 340.74 323.54 340.74C322.424 340.74 321.52 341.644 321.52 342.76C321.52 343.876 322.424 344.78 323.54 344.78Z" fill="#F4DA8F"/>
<path d="M357.57 324.02C360.16 324.02 362.26 321.92 362.26 319.33C362.26 316.74 360.16 314.64 357.57 314.64C354.98 314.64 352.88 316.74 352.88 319.33C352.88 321.92 354.98 324.02 357.57 324.02Z" fill="#F4DA8F"/>
<path d="M376.96 257.38C379.55 257.38 381.65 255.28 381.65 252.69C381.65 250.1 379.55 248 376.96 248C374.37 248 372.27 250.1 372.27 252.69C372.27 255.28 374.37 257.38 376.96 257.38Z" fill="#F4DA8F"/>
<path d="M368.01 308.32C370.363 308.32 372.27 306.413 372.27 304.06C372.27 301.707 370.363 299.8 368.01 299.8C365.657 299.8 363.75 301.707 363.75 304.06C363.75 306.413 365.657 308.32 368.01 308.32Z" fill="#F4DA8F"/>
<path d="M296.53 360.24C298.026 360.24 299.24 359.027 299.24 357.53C299.24 356.033 298.026 354.82 296.53 354.82C295.033 354.82 293.82 356.033 293.82 357.53C293.82 359.027 295.033 360.24 296.53 360.24Z" fill="#F4DA8F"/>
<path d="M285.17 362.49C286.667 362.49 287.88 361.277 287.88 359.78C287.88 358.283 286.667 357.07 285.17 357.07C283.673 357.07 282.46 358.283 282.46 359.78C282.46 361.277 283.673 362.49 285.17 362.49Z" fill="#F4DA8F"/>
<path d="M253.71 371.26C255.207 371.26 256.42 370.047 256.42 368.55C256.42 367.053 255.207 365.84 253.71 365.84C252.213 365.84 251 367.053 251 368.55C251 370.047 252.213 371.26 253.71 371.26Z" fill="#F4DA8F"/>
<path d="M276.02 365.13C277.517 365.13 278.73 363.917 278.73 362.42C278.73 360.923 277.517 359.71 276.02 359.71C274.523 359.71 273.31 360.923 273.31 362.42C273.31 363.917 274.523 365.13 276.02 365.13Z" fill="#F4DA8F"/>
<path d="M344.69 332.58C346.187 332.58 347.4 331.367 347.4 329.87C347.4 328.373 346.187 327.16 344.69 327.16C343.193 327.16 341.98 328.373 341.98 329.87C341.98 331.367 343.193 332.58 344.69 332.58Z" fill="#F4DA8F"/>
<path d="M326.29 325.76C327.787 325.76 329 324.547 329 323.05C329 321.553 327.787 320.34 326.29 320.34C324.793 320.34 323.58 321.553 323.58 323.05C323.58 324.547 324.793 325.76 326.29 325.76Z" fill="#F4DA8F"/>
<path d="M336.02 339.27C337.517 339.27 338.73 338.057 338.73 336.56C338.73 335.063 337.517 333.85 336.02 333.85C334.523 333.85 333.31 335.063 333.31 336.56C333.31 338.057 334.523 339.27 336.02 339.27Z" fill="#F4DA8F"/>
<path d="M349.63 330.87C351.127 330.87 352.34 329.657 352.34 328.16C352.34 326.663 351.127 325.45 349.63 325.45C348.133 325.45 346.92 326.663 346.92 328.16C346.92 329.657 348.133 330.87 349.63 330.87Z" fill="#F4DA8F"/>
<path d="M358.91 305.61C360.406 305.61 361.62 304.397 361.62 302.9C361.62 301.403 360.406 300.19 358.91 300.19C357.413 300.19 356.2 301.403 356.2 302.9C356.2 304.397 357.413 305.61 358.91 305.61Z" fill="#F4DA8F"/>
<path d="M354.56 333.61C358.05 333.61 360.88 330.78 360.88 327.29C360.88 323.8 358.05 320.97 354.56 320.97C351.069 320.97 348.24 323.8 348.24 327.29C348.24 330.78 351.069 333.61 354.56 333.61Z" fill="#F4DA8F"/>
<path d="M344.67 313.34C345.62 313.34 346.39 312.57 346.39 311.62C346.39 310.67 345.62 309.9 344.67 309.9C343.72 309.9 342.95 310.67 342.95 311.62C342.95 312.57 343.72 313.34 344.67 313.34Z" fill="#F4DA8F"/>
<path d="M329.02 341.87C329.97 341.87 330.74 341.1 330.74 340.15C330.74 339.2 329.97 338.43 329.02 338.43C328.07 338.43 327.3 339.2 327.3 340.15C327.3 341.1 328.07 341.87 329.02 341.87Z" fill="#F4DA8F"/>
<path d="M368.8 260.04C369.75 260.04 370.52 259.27 370.52 258.32C370.52 257.37 369.75 256.6 368.8 256.6C367.85 256.6 367.08 257.37 367.08 258.32C367.08 259.27 367.85 260.04 368.8 260.04Z" fill="#F4DA8F"/>
<path d="M354.92 299.8C355.87 299.8 356.64 299.03 356.64 298.08C356.64 297.13 355.87 296.36 354.92 296.36C353.97 296.36 353.2 297.13 353.2 298.08C353.2 299.03 353.97 299.8 354.92 299.8Z" fill="#F4DA8F"/>
<path d="M373.99 262.69C374.94 262.69 375.71 261.92 375.71 260.97C375.71 260.02 374.94 259.25 373.99 259.25C373.04 259.25 372.27 260.02 372.27 260.97C372.27 261.92 373.04 262.69 373.99 262.69Z" fill="#F4DA8F"/>
<path d="M325.55 336.56C326.5 336.56 327.27 335.79 327.27 334.84C327.27 333.89 326.5 333.12 325.55 333.12C324.6 333.12 323.83 333.89 323.83 334.84C323.83 335.79 324.6 336.56 325.55 336.56Z" fill="#F4DA8F"/>
<path d="M334.3 331.91C335.25 331.91 336.02 331.14 336.02 330.19C336.02 329.24 335.25 328.47 334.3 328.47C333.35 328.47 332.58 329.24 332.58 330.19C332.58 331.14 333.35 331.91 334.3 331.91Z" fill="#F4DA8F"/>
<path d="M328.24 316.36C329.19 316.36 329.96 315.59 329.96 314.64C329.96 313.69 329.19 312.92 328.24 312.92C327.29 312.92 326.52 313.69 326.52 314.64C326.52 315.59 327.29 316.36 328.24 316.36Z" fill="#F4DA8F"/>
<path d="M300.41 351.59C300.924 351.59 301.34 351.174 301.34 350.66C301.34 350.146 300.924 349.73 300.41 349.73C299.896 349.73 299.48 350.146 299.48 350.66C299.48 351.174 299.896 351.59 300.41 351.59Z" fill="#F4DA8F"/>
<path d="M258.14 330.8C258.654 330.8 259.07 330.384 259.07 329.87C259.07 329.356 258.654 328.94 258.14 328.94C257.626 328.94 257.21 329.356 257.21 329.87C257.21 330.384 257.626 330.8 258.14 330.8Z" fill="#F4DA8F"/>
<path d="M280.69 361.56C281.203 361.56 281.62 361.144 281.62 360.63C281.62 360.116 281.203 359.7 280.69 359.7C280.176 359.7 279.76 360.116 279.76 360.63C279.76 361.144 280.176 361.56 280.69 361.56Z" fill="#F4DA8F"/>
<path d="M289.13 355.76C289.643 355.76 290.06 355.344 290.06 354.83C290.06 354.316 289.643 353.9 289.13 353.9C288.616 353.9 288.2 354.316 288.2 354.83C288.2 355.344 288.616 355.76 289.13 355.76Z" fill="#F4DA8F"/>
<path d="M276.95 337.49C277.464 337.49 277.88 337.074 277.88 336.56C277.88 336.046 277.464 335.63 276.95 335.63C276.436 335.63 276.02 336.046 276.02 336.56C276.02 337.074 276.436 337.49 276.95 337.49Z" fill="#F4DA8F"/>
<path d="M292.44 347.75C292.953 347.75 293.37 347.334 293.37 346.82C293.37 346.306 292.953 345.89 292.44 345.89C291.926 345.89 291.51 346.306 291.51 346.82C291.51 347.334 291.926 347.75 292.44 347.75Z" fill="#F4DA8F"/>
<path d="M239.16 362.91C239.674 362.91 240.09 362.494 240.09 361.98C240.09 361.466 239.674 361.05 239.16 361.05C238.646 361.05 238.23 361.466 238.23 361.98C238.23 362.494 238.646 362.91 239.16 362.91Z" fill="#F4DA8F"/>
<path d="M307.58 343.69C308.094 343.69 308.51 343.274 308.51 342.76C308.51 342.246 308.094 341.83 307.58 341.83C307.066 341.83 306.65 342.246 306.65 342.76C306.65 343.274 307.066 343.69 307.58 343.69Z" fill="#F4DA8F"/>
<path d="M287.88 329.09C288.393 329.09 288.81 328.674 288.81 328.16C288.81 327.646 288.393 327.23 287.88 327.23C287.366 327.23 286.95 327.646 286.95 328.16C286.95 328.674 287.366 329.09 287.88 329.09Z" fill="#F4DA8F"/>
<path d="M302.27 301.66C302.783 301.66 303.2 301.244 303.2 300.73C303.2 300.216 302.783 299.8 302.27 299.8C301.756 299.8 301.34 300.216 301.34 300.73C301.34 301.244 301.756 301.66 302.27 301.66Z" fill="#F4DA8F"/>
<path d="M272.32 297.49C272.833 297.49 273.25 297.074 273.25 296.56C273.25 296.046 272.833 295.63 272.32 295.63C271.806 295.63 271.39 296.046 271.39 296.56C271.39 297.074 271.806 297.49 272.32 297.49Z" fill="#F4DA8F"/>
<path d="M317.43 346.24C317.944 346.24 318.36 345.824 318.36 345.31C318.36 344.796 317.944 344.38 317.43 344.38C316.916 344.38 316.5 344.796 316.5 345.31C316.5 345.824 316.916 346.24 317.43 346.24Z" fill="#F4DA8F"/>
<path d="M316.5 335.38C317.013 335.38 317.43 334.964 317.43 334.45C317.43 333.936 317.013 333.52 316.5 333.52C315.986 333.52 315.57 333.936 315.57 334.45C315.57 334.964 315.986 335.38 316.5 335.38Z" fill="#F4DA8F"/>
<path d="M222.58 369.11C223.093 369.11 223.51 368.694 223.51 368.18C223.51 367.666 223.093 367.25 222.58 367.25C222.066 367.25 221.65 367.666 221.65 368.18C221.65 368.694 222.066 369.11 222.58 369.11Z" fill="#F4DA8F"/>
<path d="M361.98 266.36C362.493 266.36 362.91 265.944 362.91 265.43C362.91 264.916 362.493 264.5 361.98 264.5C361.466 264.5 361.05 264.916 361.05 265.43C361.05 265.944 361.466 266.36 361.98 266.36Z" fill="#F4DA8F"/>
<path d="M324.54 287.51C325.053 287.51 325.47 287.094 325.47 286.58C325.47 286.066 325.053 285.65 324.54 285.65C324.026 285.65 323.61 286.066 323.61 286.58C323.61 287.094 324.026 287.51 324.54 287.51Z" fill="#F4DA8F"/>
<path d="M340.4 234.76C340.913 234.76 341.33 234.344 341.33 233.83C341.33 233.316 340.913 232.9 340.4 232.9C339.886 232.9 339.47 233.316 339.47 233.83C339.47 234.344 339.886 234.76 340.4 234.76Z" fill="#F4DA8F"/>
<path d="M353.63 261.9C354.143 261.9 354.56 261.484 354.56 260.97C354.56 260.456 354.143 260.04 353.63 260.04C353.116 260.04 352.7 260.456 352.7 260.97C352.7 261.484 353.116 261.9 353.63 261.9Z" fill="#F4DA8F"/>
<path d="M367.08 242.23C367.594 242.23 368.01 241.814 368.01 241.3C368.01 240.786 367.594 240.37 367.08 240.37C366.566 240.37 366.15 240.786 366.15 241.3C366.15 241.814 366.566 242.23 367.08 242.23Z" fill="#F4DA8F"/>
<path d="M364.33 263.76C364.844 263.76 365.26 263.344 365.26 262.83C365.26 262.316 364.844 261.9 364.33 261.9C363.816 261.9 363.4 262.316 363.4 262.83C363.4 263.344 363.816 263.76 364.33 263.76Z" fill="#F4DA8F"/>
<path d="M320.59 254.55C321.103 254.55 321.52 254.134 321.52 253.62C321.52 253.106 321.103 252.69 320.59 252.69C320.076 252.69 319.66 253.106 319.66 253.62C319.66 254.134 320.076 254.55 320.59 254.55Z" fill="#F4DA8F"/>
<path d="M357.57 286.98C358.083 286.98 358.5 286.564 358.5 286.05C358.5 285.536 358.083 285.12 357.57 285.12C357.056 285.12 356.64 285.536 356.64 286.05C356.64 286.564 357.056 286.98 357.57 286.98Z" fill="#F4DA8F"/>
<path d="M329.91 334.47C330.655 334.47 331.26 333.866 331.26 333.12C331.26 332.374 330.655 331.77 329.91 331.77C329.164 331.77 328.56 332.374 328.56 333.12C328.56 333.866 329.164 334.47 329.91 334.47Z" fill="#F4DA8F"/>
<path d="M309.3 293.76C310.25 293.76 311.02 292.99 311.02 292.04C311.02 291.09 310.25 290.32 309.3 290.32C308.35 290.32 307.58 291.09 307.58 292.04C307.58 292.99 308.35 293.76 309.3 293.76Z" fill="#F4DA8F"/>
<path d="M274.3 346.82C275.25 346.82 276.02 346.05 276.02 345.1C276.02 344.15 275.25 343.38 274.3 343.38C273.35 343.38 272.58 344.15 272.58 345.1C272.58 346.05 273.35 346.82 274.3 346.82Z" fill="#F4DA8F"/>
<path d="M256.42 359.53C257.37 359.53 258.14 358.76 258.14 357.81C258.14 356.86 257.37 356.09 256.42 356.09C255.47 356.09 254.7 356.86 254.7 357.81C254.7 358.76 255.47 359.53 256.42 359.53Z" fill="#F4DA8F"/>
<path d="M270.09 363.22C271.04 363.22 271.81 362.45 271.81 361.5C271.81 360.55 271.04 359.78 270.09 359.78C269.14 359.78 268.37 360.55 268.37 361.5C268.37 362.45 269.14 363.22 270.09 363.22Z" fill="#F4DA8F"/>
<path d="M288.75 360.97C289.7 360.97 290.47 360.2 290.47 359.25C290.47 358.3 289.7 357.53 288.75 357.53C287.8 357.53 287.03 358.3 287.03 359.25C287.03 360.2 287.8 360.97 288.75 360.97Z" fill="#F4DA8F"/>
<path d="M263.47 366.55C264.42 366.55 265.19 365.78 265.19 364.83C265.19 363.88 264.42 363.11 263.47 363.11C262.52 363.11 261.75 363.88 261.75 364.83C261.75 365.78 262.52 366.55 263.47 366.55Z" fill="#F4DA8F"/>
<path d="M309.3 353.99C311.139 353.99 312.63 352.499 312.63 350.66C312.63 348.821 311.139 347.33 309.3 347.33C307.461 347.33 305.97 348.821 305.97 350.66C305.97 352.499 307.461 353.99 309.3 353.99Z" fill="#F4DA8F"/>
<path d="M364.65 352.28C364.65 352.28 366.45 352.23 366.64 353.05C366.83 353.87 366.21 354.13 365.16 355C364.11 355.87 363.26 356.17 363.88 357.49C364.5 358.81 365.28 360.27 364.86 360.75C364.43 361.23 364.11 361.36 363.24 360.62C362.37 359.88 361.27 358.87 360.37 359.43C359.46 359.99 357.47 361.26 357.47 361.26C357.47 361.26 356.89 361.54 356.62 361.27C356.35 361.01 356.18 360.48 356.49 359.89C356.8 359.29 357.52 357.84 357.52 357.84C357.52 357.84 358.5 356.63 357.28 356.54C356.06 356.46 355.02 356.13 354.46 355.98C353.9 355.82 353.06 355.35 353.37 354.82C353.68 354.29 354.11 354.08 355.53 353.65C356.95 353.22 358.14 353.08 358.18 352.22C358.22 351.36 358.34 350.06 358.46 349.35C358.54 348.84 358.71 348.21 359.15 348.27C359.61 348.33 360.08 348.66 360.56 349.58C360.87 350.17 361.35 351 361.71 351.62C362.01 352.13 362.57 352.43 363.17 352.39L364.65 352.28Z" fill="#E96137"/>
<path d="M365.24 353.38C365.24 353.38 363.82 353.5 361.8 354.83C361.8 354.83 363.55 354.42 365.24 353.38Z" fill="#F98959"/>
<path d="M361.41 356.16C361.41 356.16 362.99 357.31 363.72 359.39C363.72 359.39 362.26 358.23 361.41 356.16Z" fill="#F98959"/>
<path d="M358.05 359.8C358.05 359.8 359.54 358.85 360.35 356.34C360.35 356.34 359.09 357.43 358.05 359.8Z" fill="#F98959"/>
<path d="M355.65 354.81C355.65 354.81 357.691 354.1 359.551 354.85C359.551 354.85 358 355.25 355.65 354.81Z" fill="#F98959"/>
<path d="M360.61 354.08C360.61 354.08 360.61 352.18 359.49 349.8C359.49 349.79 359.61 351.96 360.61 354.08Z" fill="#F98959"/>
<path d="M350.65 119.23C350.65 119.23 351.9 117.94 352.62 118.39C353.34 118.84 353.06 119.46 352.92 120.82C352.77 122.18 352.38 122.99 353.74 123.5C355.1 124.01 356.69 124.51 356.72 125.15C356.75 125.79 356.61 126.11 355.47 126.19C354.33 126.27 352.84 126.31 352.58 127.34C352.32 128.37 351.78 130.67 351.78 130.67C351.78 130.67 351.56 131.27 351.18 131.27C350.8 131.27 350.31 131.02 350.12 130.37C349.93 129.73 349.43 128.18 349.43 128.18C349.43 128.18 349.28 126.63 348.36 127.42C347.43 128.21 346.46 128.7 345.95 128.98C345.44 129.26 344.51 129.51 344.36 128.91C344.22 128.32 344.38 127.86 345.08 126.56C345.79 125.26 346.55 124.33 345.97 123.68C345.39 123.03 344.58 122.02 344.16 121.43C343.86 121.01 343.55 120.44 343.9 120.17C344.27 119.89 344.83 119.8 345.83 120.12C346.46 120.33 347.39 120.59 348.08 120.77C348.65 120.93 349.26 120.75 349.66 120.3L350.65 119.23Z" fill="#E96137"/>
<path d="M351.84 119.61C351.84 119.61 350.91 120.69 350.39 123.05C350.39 123.04 351.36 121.53 351.84 119.61Z" fill="#F98959"/>
<path d="M351.04 124.27C351.04 124.27 352.98 123.99 354.95 124.97C354.95 124.97 353.1 125.15 351.04 124.27Z" fill="#F98959"/>
<path d="M351.18 129.23C351.18 129.23 351.58 127.51 350.41 125.15C350.41 125.14 350.27 126.8 351.18 129.23Z" fill="#F98959"/>
<path d="M345.98 127.33C345.98 127.33 346.95 125.4 348.8 124.63C348.8 124.63 347.97 126 345.98 127.33Z" fill="#F98959"/>
<path d="M349.01 123.34C349.01 123.34 347.69 121.98 345.22 121.06C345.22 121.05 346.82 122.52 349.01 123.34Z" fill="#F98959"/>
<path d="M381.69 319.74C381.69 319.74 383.68 320.93 383.32 321.97C382.96 323.01 382.1 322.84 380.35 323.05C378.6 323.26 377.47 323 377.23 324.86C376.99 326.72 376.82 328.86 376.02 329.08C375.23 329.3 374.78 329.22 374.35 327.81C373.92 326.4 373.43 324.54 372.06 324.52C370.68 324.5 367.64 324.49 367.64 324.49C367.64 324.49 366.82 324.39 366.71 323.92C366.6 323.44 366.77 322.76 367.53 322.32C368.28 321.89 370.08 320.81 370.08 320.81C370.08 320.81 371.99 320.17 370.73 319.24C369.47 318.3 368.56 317.22 368.06 316.67C367.56 316.11 366.98 315.01 367.68 314.65C368.38 314.29 369.01 314.36 370.84 314.88C372.67 315.39 374.07 316.07 374.72 315.17C375.36 314.26 376.4 312.94 377.02 312.25C377.46 311.75 378.09 311.19 378.52 311.55C378.98 311.93 379.26 312.62 379.14 313.96C379.07 314.82 379.01 316.05 378.97 316.97C378.94 317.74 379.35 318.45 380.02 318.82L381.69 319.74Z" fill="#E98572"/>
<path d="M381.56 321.34C381.56 321.34 379.93 320.48 376.82 320.52C376.81 320.52 379 321.29 381.56 321.34Z" fill="#F93E00"/>
<path d="M375.46 321.69C375.46 321.69 376.37 324.05 375.71 326.81C375.72 326.81 374.95 324.53 375.46 321.69Z" fill="#F93E00"/>
<path d="M369.27 323.31C369.27 323.31 371.55 323.32 374.18 321.16C374.18 321.15 372.06 321.45 369.27 323.31Z" fill="#F93E00"/>
<path d="M370.14 316.21C370.14 316.21 372.85 316.86 374.35 318.97C374.36 318.97 372.39 318.33 370.14 316.21Z" fill="#F93E00"/>
<path d="M376.04 318.87C376.04 318.87 377.36 316.81 377.81 313.43C377.81 313.43 376.43 315.87 376.04 318.87Z" fill="#F93E00"/>
<path d="M317.43 109.99C317.43 109.99 315.05 110.18 313.75 108.73C312.45 107.28 312.9 104.94 312.9 104.94C312.9 104.94 312.88 102.45 312.05 100.47C311.22 98.5 310.56 95.6699 312.73 94.8299C312.73 94.8299 313.71 94.47 314.34 95.09C314.34 95.09 315.06 93.79 316.65 93.64C318.24 93.49 318.97 94.47 318.97 94.47C318.97 94.47 320.01 93.47 321.63 93.93C323.25 94.39 323.81 95.43 323.81 95.43C323.81 95.43 325.25 95.11 326.47 96.64C327.69 98.16 327.04 99.22 327.04 99.22C327.04 99.22 328.87 100.19 328.92 101.45C328.98 102.71 328.2 103.6 328.2 103.6C328.2 103.6 329.51 104.54 329.05 106.09C328.59 107.64 327.59 107.97 327.59 107.97C327.59 107.97 328.57 109.15 327.72 110.5C326.87 111.85 325.93 112.29 324.56 111.76C323.19 111.23 321.09 110.53 319.91 110.35C318.72 110.18 317.43 109.99 317.43 109.99Z" fill="#F2A0A0"/>
<path d="M314.75 103.81C314.75 103.81 316.01 100.97 313.81 97.33C313.82 97.34 312.89 99.7001 314.75 103.81Z" fill="#BA4129"/>
<path d="M316.45 103.71C316.45 103.71 316.35 98.19 318.44 95.35C318.44 95.35 318.37 99.33 316.45 103.71Z" fill="#BA4129"/>
<path d="M317.83 103.97C317.83 103.97 319.59 98.89 322.4 97.15C322.4 97.15 321.17 100.96 317.83 103.97Z" fill="#BA4129"/>
<path d="M318.57 105.12C318.57 105.12 321.5 101.66 325.4 100.94C325.41 100.94 323.02 103.65 318.57 105.12Z" fill="#BA4129"/>
<path d="M318.38 108.09C318.38 108.09 322.48 107.71 325.88 110.24C325.89 110.24 322.3 110.46 318.38 108.09Z" fill="#BA4129"/>
<path d="M318.33 106.56C318.33 106.56 321.85 105.15 326.39 105.84C326.39 105.84 323.04 107.29 318.33 106.56Z" fill="#BA4129"/>
<path d="M111.03 338.8C111.03 338.8 106.09 333.21 105.7 328.07C105.63 327.18 108.64 328.83 114.05 335.78C114.05 335.78 122.45 325.75 122.79 327.19C123.2 328.91 120.39 334.95 118.66 337.29C118.66 337.29 126.83 339.76 128.84 341.42C130.9 343.13 125.22 342.14 118.11 341.42C118.11 341.42 120.99 348.86 121.32 350.35C122.02 353.53 116.16 349.17 113.66 341.98C113.66 341.98 105.64 345.95 104.69 346.43C102.22 347.67 104.35 343.69 111.03 338.8Z" fill="#62743A"/>
<path d="M114.75 340.23C115.495 340.23 116.1 339.626 116.1 338.88C116.1 338.134 115.495 337.53 114.75 337.53C114.004 337.53 113.4 338.134 113.4 338.88C113.4 339.626 114.004 340.23 114.75 340.23Z" fill="#B0D041"/>
<path d="M112.42 337.37C112.862 337.37 113.22 337.012 113.22 336.57C113.22 336.128 112.862 335.77 112.42 335.77C111.978 335.77 111.62 336.128 111.62 336.57C111.62 337.012 111.978 337.37 112.42 337.37Z" fill="#B0D041"/>
<path d="M116.79 336.82C117.232 336.82 117.59 336.462 117.59 336.02C117.59 335.578 117.232 335.22 116.79 335.22C116.348 335.22 115.99 335.578 115.99 336.02C115.99 336.462 116.348 336.82 116.79 336.82Z" fill="#B0D041"/>
<path d="M118.59 340.23C119.032 340.23 119.39 339.872 119.39 339.43C119.39 338.988 119.032 338.63 118.59 338.63C118.148 338.63 117.79 338.988 117.79 339.43C117.79 339.872 118.148 340.23 118.59 340.23Z" fill="#B0D041"/>
<path d="M116.11 343.2C116.552 343.2 116.91 342.842 116.91 342.4C116.91 341.958 116.552 341.6 116.11 341.6C115.668 341.6 115.31 341.958 115.31 342.4C115.31 342.842 115.668 343.2 116.11 343.2Z" fill="#B0D041"/>
<path d="M111.61 341.59C112.052 341.59 112.41 341.232 112.41 340.79C112.41 340.348 112.052 339.99 111.61 339.99C111.168 339.99 110.81 340.348 110.81 340.79C110.81 341.232 111.168 341.59 111.61 341.59Z" fill="#B0D041"/>
<path d="M110.78 335.22C111.056 335.22 111.28 334.996 111.28 334.72C111.28 334.444 111.056 334.22 110.78 334.22C110.504 334.22 110.28 334.444 110.28 334.72C110.28 334.996 110.504 335.22 110.78 335.22Z" fill="#B0D041"/>
<path d="M117.39 345.56C117.666 345.56 117.89 345.336 117.89 345.06C117.89 344.784 117.666 344.56 117.39 344.56C117.114 344.56 116.89 344.784 116.89 345.06C116.89 345.336 117.114 345.56 117.39 345.56Z" fill="#B0D041"/>
<path d="M121.23 340.58C121.506 340.58 121.73 340.356 121.73 340.08C121.73 339.804 121.506 339.58 121.23 339.58C120.954 339.58 120.73 339.804 120.73 340.08C120.73 340.356 120.954 340.58 121.23 340.58Z" fill="#B0D041"/>
<path d="M118.28 334.56C118.556 334.56 118.78 334.336 118.78 334.06C118.78 333.784 118.556 333.56 118.28 333.56C118.004 333.56 117.78 333.784 117.78 334.06C117.78 334.336 118.004 334.56 118.28 334.56Z" fill="#B0D041"/>
<path d="M109.39 342.73C109.666 342.73 109.89 342.506 109.89 342.23C109.89 341.954 109.666 341.73 109.39 341.73C109.114 341.73 108.89 341.954 108.89 342.23C108.89 342.506 109.114 342.73 109.39 342.73Z" fill="#B0D041"/>
</svg>
