<svg width="475" height="475" viewBox="0 0 475 475" fill="none" xmlns="http://www.w3.org/2000/svg">
<path opacity="0.1" d="M467.42 266.57C467.42 258.12 465.36 250.15 461.71 243.13C456.54 233.19 454.8 221.82 457.26 210.9C458.01 207.59 458.4 204.14 458.4 200.6C458.4 194.64 457.28 188.94 455.25 183.69C451.77 174.71 451.02 164.95 453.17 155.56C453.93 152.21 454.34 148.72 454.34 145.14C454.34 137.68 452.59 130.62 449.49 124.36C444.46 114.22 442.85 102.62 445.67 91.66C446.71 87.6 447.27 83.35 447.27 78.96C447.27 50.85 424.48 28.0601 396.37 28.0601H396.35C395.26 28.0601 394.27 27.4299 393.8 26.4399C390.05 18.5099 382 13.02 372.65 13.02C369.72 13.02 366.91 13.56 364.33 14.55C359.09 16.56 353.18 16.05 348.34 13.21C337.05 6.57996 323.9 2.77002 309.85 2.77002C302.31 2.77002 295.03 3.87003 288.15 5.91003C278.61 8.75003 268.46 9.01999 258.94 6.10999C253.09 4.31999 246.89 3.35999 240.46 3.35999C229.06 3.35999 218.38 6.38002 209.15 11.65C199.43 17.2 188.34 20.0899 177.21 18.9399C175.26 18.7399 173.27 18.64 171.27 18.64C159.61 18.64 148.76 22.1001 139.7 28.0601C129.31 34.8801 116.97 38.21 104.62 36.88C101.96 36.59 99.26 36.4399 96.53 36.4399C55.25 36.4399 21.79 69.9001 21.79 111.18C21.79 111.19 21.79 111.2 21.79 111.2C21.79 112.64 21.45 114.07 20.74 115.32C17.63 120.8 15.85 127.13 15.85 133.88C15.85 135.92 16.02 137.92 16.33 139.87C16.63 141.73 16.31 143.63 15.36 145.25C10.21 153.98 7.25 164.16 7.25 175.03C7.25 188.29 11.6501 200.53 19.0601 210.36C23.1501 215.79 24.16 222.91 21.66 229.23C19.03 235.89 17.58 243.15 17.58 250.75C17.58 257.26 18.64 263.53 20.59 269.38C22 273.59 21.9301 278.13 20.3101 282.26C18.6201 286.53 17.7 291.19 17.7 296.06C17.7 303.52 19.87 310.47 23.61 316.32C25.7 319.59 26.62 323.48 26.36 327.36C26.29 328.46 26.25 329.58 26.25 330.7C26.25 339.44 28.49 347.66 32.42 354.81C35.17 359.81 35.63 365.7 33.66 371.06C31.23 377.68 29.9 384.82 29.9 392.29C29.9 426.31 57.48 453.88 91.49 453.88H91.5C92.37 453.88 93.21 454.26 93.73 454.95C98.01 460.53 104.75 464.13 112.32 464.13C117.19 464.13 121.71 462.64 125.45 460.09C126.39 459.45 127.62 459.44 128.55 460.09C136.72 465.85 146.68 469.25 157.44 469.25C165.88 469.25 173.82 467.17 180.8 463.49C187.92 459.74 196.42 460.05 203.5 463.86C213.81 469.41 225.6 472.55 238.12 472.55C251.82 472.55 264.63 468.78 275.59 462.22C282.15 458.29 290.25 457.85 297.26 460.92C304.46 464.07 312.4 465.82 320.76 465.82C333.19 465.82 344.72 461.96 354.21 455.38C359.48 451.73 365.97 450.32 372.28 451.45C376.9 452.28 381.7 452.57 386.63 452.25C415.81 450.36 439.41 426.82 441.38 397.64C441.79 391.63 441.28 385.8 440 380.27C438.55 374.02 439.67 367.45 443.11 362.04C448.11 354.17 451.01 344.83 451.01 334.81C451.01 332.57 450.86 330.36 450.58 328.2C449.1 316.82 451.58 305.19 458.18 295.8C464 287.52 467.42 277.44 467.42 266.57Z" fill="#325766"/>
<path opacity="0.22" d="M432.16 319.63C430.29 306.83 431.9 293.69 437.87 282.22C441.22 275.8 443.11 268.51 443.11 260.77C443.11 255.14 442.11 249.75 440.28 244.76C435.6 232.01 434.87 218.04 438.89 205.06C441.31 197.23 442.62 188.91 442.62 180.28C442.62 166.49 439.28 153.47 433.37 142C427.17 129.98 425.03 116.23 428.05 103.04C428.93 99.22 429.33 95.21 429.2 91.09C428.42 67.06 409 47.32 384.99 46.17C381.38 46 377.85 46.24 374.45 46.85C365.39 48.48 356.01 45.8299 349.03 39.8199C336.85 29.3399 321.01 23 303.68 23C295.44 23 287.53 24.4399 280.19 27.0699C273.53 29.4599 266.26 29.22 259.6 26.85C253.56 24.7 247.06 23.54 240.28 23.54C227.43 23.54 215.56 27.74 205.97 34.83C200.39 38.95 193.25 40.5201 186.6 38.5601C179.92 36.6001 172.85 35.54 165.53 35.54C149.21 35.54 134.11 40.78 121.82 49.66C118.05 52.38 113.49 53.77 108.84 53.76H108.76C71.0399 53.76 40.4598 84.3401 40.4598 122.06C40.4598 122.83 40.4699 123.59 40.4999 124.36C40.8499 134.92 38.7698 145.46 33.6998 154.74C29.5398 162.37 27.1699 171.11 27.1699 180.41C27.1699 188.63 29.0198 196.42 32.3198 203.38C37.6998 214.72 39.7899 227.45 37.5099 239.79C36.9199 242.97 36.6099 246.25 36.6099 249.59C36.6099 255.16 37.4599 260.53 39.0299 265.58C40.4199 270.03 40.4099 274.8 38.7999 279.17C37.4499 282.86 36.7098 286.84 36.7098 290.99C36.7098 297.77 38.6699 304.08 42.0499 309.41C44.5999 313.42 45.5298 318.25 44.9398 322.97C44.6698 325.13 44.5299 327.33 44.5299 329.56C44.5299 340.62 47.9399 350.87 53.7599 359.34C55.6399 362.08 55.9999 365.58 54.5999 368.58L54.5698 368.65C41.4598 396.83 53.6799 430.3 81.8699 443.41C95.4699 449.74 110.3 450.15 123.48 445.73C128.57 444.02 134.1 444.46 139.06 446.52C147.39 449.97 156.74 451.25 166.3 449.76C172.62 448.77 178.49 446.66 183.73 443.65C190.44 439.8 198.6 439.82 205.33 443.63C215.03 449.12 226.23 452.25 238.17 452.25C250.63 452.25 262.29 448.83 272.28 442.89C278.37 439.26 285.86 438.86 292.36 441.68C298.9 444.52 306.11 446.09 313.69 446.09C325.02 446.09 335.53 442.58 344.2 436.59C349.11 433.2 355.13 431.97 361.01 433C365.16 433.73 369.47 433.98 373.88 433.69C400.54 431.96 422.11 410.45 423.91 383.79C424.11 380.87 424.07 378 423.81 375.19C422.88 364.99 424.48 354.69 428.67 345.34C431.27 339.55 432.71 333.13 432.71 326.37C432.65 324.11 432.48 321.84 432.16 319.63Z" fill="#325766"/>
<path d="M426.13 317.12C424.31 304.72 425.87 291.98 431.67 280.86C434.91 274.64 436.75 267.57 436.75 260.07C436.75 254.61 435.78 249.39 434 244.55C429.46 232.19 428.76 218.65 432.65 206.07C435 198.48 436.26 190.41 436.26 182.05C436.26 168.68 433.02 156.07 427.29 144.95C421.28 133.29 419.21 119.97 422.14 107.18C422.99 103.47 423.38 99.59 423.25 95.6C422.5 72.3 403.67 53.1701 380.39 52.0601C376.89 51.8901 373.47 52.13 370.17 52.72C361.38 54.3 352.29 51.73 345.53 45.91C333.72 35.75 318.36 29.61 301.56 29.61C293.57 29.61 285.9 31.0001 278.79 33.5601C272.33 35.8801 265.29 35.64 258.83 33.35C252.97 31.27 246.67 30.14 240.1 30.14C227.64 30.14 216.14 34.21 206.84 41.08C201.43 45.08 194.51 46.5899 188.06 44.6899C181.58 42.7899 174.73 41.76 167.63 41.76C151.81 41.76 137.17 46.84 125.26 55.45C121.61 58.09 117.18 59.4301 112.68 59.4301H112.61C76.05 59.4301 46.4 89.07 46.4 125.64C46.4 126.39 46.4099 127.13 46.4399 127.87C46.7799 138.11 44.76 148.33 39.85 157.32C35.82 164.71 33.52 173.19 33.52 182.21C33.52 190.18 35.31 197.73 38.51 204.48C43.72 215.47 45.75 227.81 43.54 239.78C42.97 242.86 42.67 246.04 42.67 249.28C42.67 254.68 43.49 259.88 45.02 264.78C46.36 269.1 46.36 273.71 44.8 277.96C43.49 281.53 42.78 285.39 42.78 289.42C42.78 295.99 44.68 302.11 47.96 307.27C50.43 311.16 51.34 315.84 50.76 320.41C50.5 322.5 50.36 324.63 50.36 326.8C50.36 337.52 53.6701 347.46 59.3101 355.67C61.1301 358.32 61.48 361.72 60.12 364.63L60.09 364.7C47.38 392.02 59.23 424.47 86.55 437.17C99.73 443.3 114.11 443.71 126.89 439.42C131.82 437.76 137.18 438.19 141.99 440.18C150.06 443.52 159.13 444.77 168.39 443.32C174.52 442.36 180.21 440.31 185.29 437.4C191.79 433.67 199.7 433.69 206.23 437.38C215.63 442.7 226.49 445.74 238.06 445.74C250.14 445.74 261.44 442.43 271.12 436.67C277.03 433.16 284.28 432.76 290.59 435.5C296.93 438.25 303.92 439.77 311.27 439.77C322.25 439.77 332.44 436.37 340.84 430.56C345.6 427.27 351.44 426.08 357.14 427.08C361.16 427.78 365.34 428.03 369.62 427.75C395.47 426.07 416.37 405.22 418.11 379.38C418.3 376.55 418.26 373.76 418.02 371.04C417.12 361.15 418.67 351.17 422.73 342.11C425.25 336.49 426.65 330.27 426.65 323.72C426.6 321.47 426.44 319.27 426.13 317.12Z" fill="#DCEEF2"/>
<path d="M414.17 164.45C419.71 42.3599 347.02 62.6599 114.32 75.8399C91.8498 77.1099 66.7599 98.6999 60.1699 120.22C41.4399 181.4 65.9198 257.31 69.8398 344.68C74.1998 441.8 132.17 414.55 311.09 418.68C433.74 421.51 404.85 369.67 414.17 164.45Z" fill="#C4D3D6"/>
<path d="M407.72 167.25C413.07 49.53 342.98 69.1 118.6 81.81C96.93 83.04 72.74 103.85 66.39 124.6C48.33 183.59 71.94 256.79 75.72 341.02C79.92 434.67 135.82 408.39 308.33 412.37C426.58 415.1 398.73 365.12 407.72 167.25Z" fill="#A1AEB0"/>
<path d="M403.98 168.86C409.21 53.67 340.63 72.82 121.07 85.25C99.8701 86.45 76.1901 106.82 69.9801 127.12C52.3101 184.84 75.4101 256.47 79.1101 338.9C83.2201 430.54 137.92 404.82 306.73 408.72C422.44 411.39 395.19 362.49 403.98 168.86Z" fill="#A6886A"/>
<path d="M127.81 89.6801C107.6 90.8301 44.8297 109.23 79.0697 258.4V258.42C79.6797 263.51 80.2998 268.68 80.8898 273.92C80.8998 273.95 80.8998 273.98 80.8998 274.01C82.7998 290.73 84.4798 308.2 85.2998 326.49C89.2298 413.84 143.86 394.32 304.78 398.04C333.37 398.7 352.8 396.06 366.05 388.56C387.87 376.23 392.92 350.76 394.47 305.25V305.24C395.61 271.73 394.86 227.36 397.49 169.38C402.48 59.5801 337.1 77.8301 127.81 89.6801Z" fill="#C9A27B"/>
<path d="M128.3 95.3499C108.46 96.4799 84.9397 119.74 80.4897 134.53C71.9897 162.77 78.2996 186.07 80.9696 211.3C85.6496 255.43 90.6697 309.07 96.2797 343.63C99.7497 365.02 120.42 387.25 142.09 387.25C142.09 387.25 270.43 397.23 347.11 387.65C358.8 386.19 369.24 379.35 374.86 368.99C382.62 354.69 385.13 333.76 386.14 304.24C386.14 304.24 390.71 228.23 393.29 171.32C398.19 63.5599 333.75 83.7099 128.3 95.3499Z" fill="#E9C77F"/>
<path d="M343.11 376.24C343.11 376.24 195.75 383.11 161.65 380.96C127.55 378.81 112.81 371.16 112.22 335.38C111.63 299.6 86.4198 207.75 92.9598 168.99C99.2798 131.5 132.72 104.65 296.09 104.38C296.09 104.38 387.57 96.4 377.46 203.25C367.35 310.1 383.6 364.62 343.11 376.24Z" fill="#F4DA8F"/>
<path d="M356.25 284.05C356.25 284.05 372.15 357.72 322.01 358.32C271.87 358.92 170.28 372.73 140.96 334.9C111.64 297.07 91.6998 209.54 114.87 177.71C138.04 145.88 195.66 103.26 275.05 113.33C354.43 123.38 324.56 189.79 356.25 284.05Z" fill="#FFE99D"/>
<path d="M333.449 134.39C334.388 134.39 335.15 133.629 335.15 132.69C335.15 131.751 334.388 130.99 333.449 130.99C332.511 130.99 331.75 131.751 331.75 132.69C331.75 133.629 332.511 134.39 333.449 134.39Z" fill="#E9C77F"/>
<path d="M352.32 123.41C353.363 123.41 354.21 122.564 354.21 121.52C354.21 120.476 353.363 119.63 352.32 119.63C351.276 119.63 350.43 120.476 350.43 121.52C350.43 122.564 351.276 123.41 352.32 123.41Z" fill="#E9C77F"/>
<path d="M376.88 161.67C378.277 161.67 379.41 160.537 379.41 159.14C379.41 157.743 378.277 156.61 376.88 156.61C375.482 156.61 374.35 157.743 374.35 159.14C374.35 160.537 375.482 161.67 376.88 161.67Z" fill="#E9C77F"/>
<path d="M376.88 175.67C378.277 175.67 379.41 174.537 379.41 173.14C379.41 171.743 378.277 170.61 376.88 170.61C375.482 170.61 374.35 171.743 374.35 173.14C374.35 174.537 375.482 175.67 376.88 175.67Z" fill="#E9C77F"/>
<path d="M335.839 113.96C337.237 113.96 338.37 112.827 338.37 111.43C338.37 110.033 337.237 108.9 335.839 108.9C334.442 108.9 333.31 110.033 333.31 111.43C333.31 112.827 334.442 113.96 335.839 113.96Z" fill="#E9C77F"/>
<path d="M323.219 109.26C324.617 109.26 325.75 108.127 325.75 106.73C325.75 105.333 324.617 104.2 323.219 104.2C321.822 104.2 320.689 105.333 320.689 106.73C320.689 108.127 321.822 109.26 323.219 109.26Z" fill="#E9C77F"/>
<path d="M319.81 108.42C321.207 108.42 322.34 107.287 322.34 105.89C322.34 104.493 321.207 103.36 319.81 103.36C318.413 103.36 317.28 104.493 317.28 105.89C317.28 107.287 318.413 108.42 319.81 108.42Z" fill="#E9C77F"/>
<path d="M305.139 105.77C306.537 105.77 307.669 104.637 307.669 103.24C307.669 101.843 306.537 100.71 305.139 100.71C303.742 100.71 302.609 101.843 302.609 103.24C302.609 104.637 303.742 105.77 305.139 105.77Z" fill="#E9C77F"/>
<path d="M368.089 139.32C369.487 139.32 370.62 138.187 370.62 136.79C370.62 135.393 369.487 134.26 368.089 134.26C366.692 134.26 365.56 135.393 365.56 136.79C365.56 138.187 366.692 139.32 368.089 139.32Z" fill="#E9C77F"/>
<path d="M350.069 142.91C351.467 142.91 352.599 141.777 352.599 140.38C352.599 138.983 351.467 137.85 350.069 137.85C348.672 137.85 347.54 138.983 347.54 140.38C347.54 141.777 348.672 142.91 350.069 142.91Z" fill="#E9C77F"/>
<path d="M378.25 194.69C379.647 194.69 380.78 193.557 380.78 192.16C380.78 190.763 379.647 189.63 378.25 189.63C376.852 189.63 375.72 190.763 375.72 192.16C375.72 193.557 376.852 194.69 378.25 194.69Z" fill="#E9C77F"/>
<path d="M370.61 147.11C372.007 147.11 373.14 145.977 373.14 144.58C373.14 143.183 372.007 142.05 370.61 142.05C369.212 142.05 368.08 143.183 368.08 144.58C368.08 145.977 369.212 147.11 370.61 147.11Z" fill="#E9C77F"/>
<path d="M375.46 171.82C376.857 171.82 377.99 170.687 377.99 169.29C377.99 167.893 376.857 166.76 375.46 166.76C374.062 166.76 372.93 167.893 372.93 169.29C372.93 170.687 374.062 171.82 375.46 171.82Z" fill="#E9C77F"/>
<path d="M372.99 153.12C375.055 153.12 376.729 151.446 376.729 149.38C376.729 147.314 375.055 145.64 372.99 145.64C370.924 145.64 369.25 147.314 369.25 149.38C369.25 151.446 370.924 153.12 372.99 153.12Z" fill="#E9C77F"/>
<path d="M363.589 160.75C364.479 160.75 365.199 160.029 365.199 159.14C365.199 158.251 364.479 157.53 363.589 157.53C362.7 157.53 361.979 158.251 361.979 159.14C361.979 160.029 362.7 160.75 363.589 160.75Z" fill="#E9C77F"/>
<path d="M370.609 196.31C371.499 196.31 372.219 195.589 372.219 194.7C372.219 193.811 371.499 193.09 370.609 193.09C369.72 193.09 369 193.811 369 194.7C369 195.589 369.72 196.31 370.609 196.31Z" fill="#E9C77F"/>
<path d="M378.25 190.13C379.139 190.13 379.86 189.409 379.86 188.52C379.86 187.631 379.139 186.91 378.25 186.91C377.36 186.91 376.64 187.631 376.64 188.52C376.64 189.409 377.36 190.13 378.25 190.13Z" fill="#E9C77F"/>
<path d="M371.069 174.76C371.959 174.76 372.68 174.039 372.68 173.15C372.68 172.261 371.959 171.54 371.069 171.54C370.18 171.54 369.459 172.261 369.459 173.15C369.459 174.039 370.18 174.76 371.069 174.76Z" fill="#E9C77F"/>
<path d="M351.13 130.98C352.019 130.98 352.74 130.259 352.74 129.37C352.74 128.481 352.019 127.76 351.13 127.76C350.24 127.76 349.52 128.481 349.52 129.37C349.52 130.259 350.24 130.98 351.13 130.98Z" fill="#E9C77F"/>
<path d="M358.53 136.57C359.419 136.57 360.14 135.849 360.14 134.96C360.14 134.071 359.419 133.35 358.53 133.35C357.641 133.35 356.92 134.071 356.92 134.96C356.92 135.849 357.641 136.57 358.53 136.57Z" fill="#E9C77F"/>
<path d="M378 197.92C378.889 197.92 379.61 197.199 379.61 196.31C379.61 195.421 378.889 194.7 378 194.7C377.11 194.7 376.39 195.421 376.39 196.31C376.39 197.199 377.11 197.92 378 197.92Z" fill="#E9C77F"/>
<path d="M348.85 155.53C349.739 155.53 350.46 154.809 350.46 153.92C350.46 153.031 349.739 152.31 348.85 152.31C347.961 152.31 347.24 153.031 347.24 153.92C347.24 154.809 347.961 155.53 348.85 155.53Z" fill="#E9C77F"/>
<path d="M331.17 127.01C331.65 127.01 332.04 126.621 332.04 126.14C332.04 125.66 331.65 125.27 331.17 125.27C330.689 125.27 330.3 125.66 330.3 126.14C330.3 126.621 330.689 127.01 331.17 127.01Z" fill="#E9C77F"/>
<path d="M327.09 108.71C327.57 108.71 327.96 108.32 327.96 107.84C327.96 107.359 327.57 106.97 327.09 106.97C326.609 106.97 326.22 107.359 326.22 107.84C326.22 108.32 326.609 108.71 327.09 108.71Z" fill="#E9C77F"/>
<path d="M320.28 110.66C320.76 110.66 321.15 110.271 321.15 109.79C321.15 109.31 320.76 108.92 320.28 108.92C319.799 108.92 319.41 109.31 319.41 109.79C319.41 110.271 319.799 110.66 320.28 110.66Z" fill="#E9C77F"/>
<path d="M328.97 114.72C329.45 114.72 329.84 114.33 329.84 113.85C329.84 113.369 329.45 112.98 328.97 112.98C328.489 112.98 328.1 113.369 328.1 113.85C328.1 114.33 328.489 114.72 328.97 114.72Z" fill="#E9C77F"/>
<path d="M331.64 109.32C332.12 109.32 332.51 108.93 332.51 108.45C332.51 107.969 332.12 107.58 331.64 107.58C331.159 107.58 330.77 107.969 330.77 108.45C330.77 108.93 331.159 109.32 331.64 109.32Z" fill="#E9C77F"/>
<path d="M327.729 121.63C328.21 121.63 328.599 121.24 328.599 120.76C328.599 120.28 328.21 119.89 327.729 119.89C327.249 119.89 326.859 120.28 326.859 120.76C326.859 121.24 327.249 121.63 327.729 121.63Z" fill="#E9C77F"/>
<path d="M355.579 171.28C356.06 171.28 356.449 170.891 356.449 170.41C356.449 169.93 356.06 169.54 355.579 169.54C355.099 169.54 354.709 169.93 354.709 170.41C354.709 170.891 355.099 171.28 355.579 171.28Z" fill="#E9C77F"/>
<path d="M370.88 224.13C371.36 224.13 371.75 223.74 371.75 223.26C371.75 222.78 371.36 222.39 370.88 222.39C370.399 222.39 370.01 222.78 370.01 223.26C370.01 223.74 370.399 224.13 370.88 224.13Z" fill="#E9C77F"/>
<path d="M345.16 119.38C345.64 119.38 346.03 118.99 346.03 118.51C346.03 118.03 345.64 117.64 345.16 117.64C344.679 117.64 344.29 118.03 344.29 118.51C344.29 118.99 344.679 119.38 345.16 119.38Z" fill="#E9C77F"/>
<path d="M342.7 129.28C343.18 129.28 343.57 128.891 343.57 128.41C343.57 127.93 343.18 127.54 342.7 127.54C342.219 127.54 341.83 127.93 341.83 128.41C341.83 128.891 342.219 129.28 342.7 129.28Z" fill="#E9C77F"/>
<path d="M372.78 205.24C373.26 205.24 373.65 204.85 373.65 204.37C373.65 203.89 373.26 203.5 372.78 203.5C372.299 203.5 371.91 203.89 371.91 204.37C371.91 204.85 372.299 205.24 372.78 205.24Z" fill="#E9C77F"/>
<path d="M341.3 180.18C341.78 180.18 342.17 179.791 342.17 179.31C342.17 178.83 341.78 178.44 341.3 178.44C340.819 178.44 340.43 178.83 340.43 179.31C340.43 179.791 340.819 180.18 341.3 180.18Z" fill="#E9C77F"/>
<path d="M364.41 208.13C364.89 208.13 365.28 207.74 365.28 207.26C365.28 206.78 364.89 206.39 364.41 206.39C363.929 206.39 363.54 206.78 363.54 207.26C363.54 207.74 363.929 208.13 364.41 208.13Z" fill="#E9C77F"/>
<path d="M374.579 207.99C375.06 207.99 375.449 207.6 375.449 207.12C375.449 206.64 375.06 206.25 374.579 206.25C374.099 206.25 373.709 206.64 373.709 207.12C373.709 207.6 374.099 207.99 374.579 207.99Z" fill="#E9C77F"/>
<path d="M371.75 185.54C372.23 185.54 372.62 185.151 372.62 184.67C372.62 184.19 372.23 183.8 371.75 183.8C371.269 183.8 370.88 184.19 370.88 184.67C370.88 185.151 371.269 185.54 371.75 185.54Z" fill="#E9C77F"/>
<path d="M354.71 124.16C355.406 124.16 355.97 123.596 355.97 122.9C355.97 122.204 355.406 121.64 354.71 121.64C354.014 121.64 353.45 122.204 353.45 122.9C353.45 123.596 354.014 124.16 354.71 124.16Z" fill="#E9C77F"/>
<path d="M365.2 244.42C366.089 244.42 366.81 243.699 366.81 242.81C366.81 241.921 366.089 241.2 365.2 241.2C364.311 241.2 363.59 241.921 363.59 242.81C363.59 243.699 364.311 244.42 365.2 244.42Z" fill="#E9C77F"/>
<path d="M310.7 121.28C311.589 121.28 312.31 120.559 312.31 119.67C312.31 118.781 311.589 118.06 310.7 118.06C309.811 118.06 309.09 118.781 309.09 119.67C309.09 120.559 309.811 121.28 310.7 121.28Z" fill="#E9C77F"/>
<path d="M294.99 110.48C295.879 110.48 296.6 109.759 296.6 108.87C296.6 107.981 295.879 107.26 294.99 107.26C294.101 107.26 293.38 107.981 293.38 108.87C293.38 109.759 294.101 110.48 294.99 110.48Z" fill="#E9C77F"/>
<path d="M308.179 109.09C309.069 109.09 309.789 108.369 309.789 107.48C309.789 106.591 309.069 105.87 308.179 105.87C307.29 105.87 306.569 106.591 306.569 107.48C306.569 108.369 307.29 109.09 308.179 109.09Z" fill="#E9C77F"/>
<path d="M327.94 111.43C328.829 111.43 329.55 110.709 329.55 109.82C329.55 108.931 328.829 108.21 327.94 108.21C327.05 108.21 326.33 108.931 326.33 109.82C326.33 110.709 327.05 111.43 327.94 111.43Z" fill="#E9C77F"/>
<path d="M302.55 105.03C303.439 105.03 304.16 104.309 304.16 103.42C304.16 102.531 303.439 101.81 302.55 101.81C301.66 101.81 300.939 102.531 300.939 103.42C300.939 104.309 301.66 105.03 302.55 105.03Z" fill="#E9C77F"/>
<path d="M301.65 106.4C303.373 106.4 304.77 105.003 304.77 103.28C304.77 101.557 303.373 100.16 301.65 100.16C299.927 100.16 298.53 101.557 298.53 103.28C298.53 105.003 299.927 106.4 301.65 106.4Z" fill="#E9C77F"/>
<path d="M155.08 357.72C156.019 357.72 156.78 356.959 156.78 356.02C156.78 355.081 156.019 354.32 155.08 354.32C154.141 354.32 153.38 355.081 153.38 356.02C153.38 356.959 154.141 357.72 155.08 357.72Z" fill="#E9C77F"/>
<path d="M133.54 374.43C134.479 374.43 135.24 373.669 135.24 372.73C135.24 371.791 134.479 371.03 133.54 371.03C132.601 371.03 131.84 371.791 131.84 372.73C131.84 373.669 132.601 374.43 133.54 374.43Z" fill="#E9C77F"/>
<path d="M133.23 372.24C134.274 372.24 135.12 371.394 135.12 370.35C135.12 369.306 134.274 368.46 133.23 368.46C132.186 368.46 131.34 369.306 131.34 370.35C131.34 371.394 132.186 372.24 133.23 372.24Z" fill="#E9C77F"/>
<path d="M123.97 372.98C125.013 372.98 125.86 372.134 125.86 371.09C125.86 370.046 125.013 369.2 123.97 369.2C122.926 369.2 122.08 370.046 122.08 371.09C122.08 372.134 122.926 372.98 123.97 372.98Z" fill="#E9C77F"/>
<path d="M113.67 347.59C115.067 347.59 116.2 346.457 116.2 345.06C116.2 343.663 115.067 342.53 113.67 342.53C112.272 342.53 111.14 343.663 111.14 345.06C111.14 346.457 112.272 347.59 113.67 347.59Z" fill="#E9C77F"/>
<path d="M113.67 358.09C115.067 358.09 116.2 356.957 116.2 355.56C116.2 354.163 115.067 353.03 113.67 353.03C112.272 353.03 111.14 354.163 111.14 355.56C111.14 356.957 112.272 358.09 113.67 358.09Z" fill="#E9C77F"/>
<path d="M118.76 353.76C120.157 353.76 121.29 352.627 121.29 351.23C121.29 349.833 120.157 348.7 118.76 348.7C117.362 348.7 116.229 349.833 116.229 351.23C116.229 352.627 117.362 353.76 118.76 353.76Z" fill="#E9C77F"/>
<path d="M114.62 361.45C116.017 361.45 117.15 360.317 117.15 358.92C117.15 357.523 116.017 356.39 114.62 356.39C113.223 356.39 112.09 357.523 112.09 358.92C112.09 360.317 113.223 361.45 114.62 361.45Z" fill="#E9C77F"/>
<path d="M118.8 328.64C119.335 328.64 119.77 328.206 119.77 327.67C119.77 327.134 119.335 326.7 118.8 326.7C118.264 326.7 117.83 327.134 117.83 327.67C117.83 328.206 118.264 328.64 118.8 328.64Z" fill="#E9C77F"/>
<path d="M125.609 358.44C126.499 358.44 127.219 357.719 127.219 356.83C127.219 355.941 126.499 355.22 125.609 355.22C124.72 355.22 124 355.941 124 356.83C124 357.719 124.72 358.44 125.609 358.44Z" fill="#E9C77F"/>
<path d="M130.29 354.8C131.179 354.8 131.9 354.079 131.9 353.19C131.9 352.301 131.179 351.58 130.29 351.58C129.4 351.58 128.68 352.301 128.68 353.19C128.68 354.079 129.4 354.8 130.29 354.8Z" fill="#E9C77F"/>
<path d="M117.15 363.47C118.039 363.47 118.76 362.749 118.76 361.86C118.76 360.971 118.039 360.25 117.15 360.25C116.26 360.25 115.54 360.971 115.54 361.86C115.54 362.749 116.26 363.47 117.15 363.47Z" fill="#E9C77F"/>
<path d="M114.62 335.38C115.509 335.38 116.23 334.659 116.23 333.77C116.23 332.881 115.509 332.16 114.62 332.16C113.731 332.16 113.01 332.881 113.01 333.77C113.01 334.659 113.731 335.38 114.62 335.38Z" fill="#E9C77F"/>
<path d="M134.06 336.1C134.949 336.1 135.67 335.379 135.67 334.49C135.67 333.601 134.949 332.88 134.06 332.88C133.171 332.88 132.45 333.601 132.45 334.49C132.45 335.379 133.171 336.1 134.06 336.1Z" fill="#E9C77F"/>
<path d="M130.16 346.46C131.049 346.46 131.77 345.739 131.77 344.85C131.77 343.961 131.049 343.24 130.16 343.24C129.271 343.24 128.55 343.961 128.55 344.85C128.55 345.739 129.271 346.46 130.16 346.46Z" fill="#E9C77F"/>
<path d="M191.479 370.15C191.96 370.15 192.349 369.761 192.349 369.28C192.349 368.8 191.96 368.41 191.479 368.41C190.999 368.41 190.609 368.8 190.609 369.28C190.609 369.761 190.999 370.15 191.479 370.15Z" fill="#E9C77F"/>
<path d="M172.79 370.35C173.27 370.35 173.66 369.96 173.66 369.48C173.66 368.999 173.27 368.61 172.79 368.61C172.309 368.61 171.92 368.999 171.92 369.48C171.92 369.96 172.309 370.35 172.79 370.35Z" fill="#E9C77F"/>
<path d="M155.96 374.72C156.44 374.72 156.83 374.33 156.83 373.85C156.83 373.369 156.44 372.98 155.96 372.98C155.479 372.98 155.09 373.369 155.09 373.85C155.09 374.33 155.479 374.72 155.96 374.72Z" fill="#E9C77F"/>
<path d="M143.79 366.53C144.27 366.53 144.66 366.141 144.66 365.66C144.66 365.18 144.27 364.79 143.79 364.79C143.309 364.79 142.92 365.18 142.92 365.66C142.92 366.141 143.309 366.53 143.79 366.53Z" fill="#E9C77F"/>
<path d="M165.67 359.59C166.15 359.59 166.54 359.2 166.54 358.72C166.54 358.239 166.15 357.85 165.67 357.85C165.189 357.85 164.8 358.239 164.8 358.72C164.8 359.2 165.189 359.59 165.67 359.59Z" fill="#E9C77F"/>
<path d="M138.61 374.72C139.09 374.72 139.48 374.33 139.48 373.85C139.48 373.369 139.09 372.98 138.61 372.98C138.129 372.98 137.74 373.369 137.74 373.85C137.74 374.33 138.129 374.72 138.61 374.72Z" fill="#E9C77F"/>
<path d="M130.29 364.79C130.77 364.79 131.16 364.401 131.16 363.92C131.16 363.44 130.77 363.05 130.29 363.05C129.809 363.05 129.42 363.44 129.42 363.92C129.42 364.401 129.809 364.79 130.29 364.79Z" fill="#E9C77F"/>
<path d="M130.75 336.11C131.23 336.11 131.62 335.72 131.62 335.24C131.62 334.76 131.23 334.37 130.75 334.37C130.269 334.37 129.88 334.76 129.88 335.24C129.88 335.72 130.269 336.11 130.75 336.11Z" fill="#E9C77F"/>
<path d="M160.12 368.36C160.6 368.36 160.99 367.97 160.99 367.49C160.99 367.01 160.6 366.62 160.12 366.62C159.639 366.62 159.25 367.01 159.25 367.49C159.25 367.97 159.639 368.36 160.12 368.36Z" fill="#E9C77F"/>
<path d="M127.22 375.32C128.65 375.32 129.81 374.16 129.81 372.73C129.81 371.3 128.65 370.14 127.22 370.14C125.789 370.14 124.63 371.3 124.63 372.73C124.63 374.16 125.789 375.32 127.22 375.32Z" fill="#E9C77F"/>
<path d="M138.43 356.46C138.91 356.46 139.3 356.07 139.3 355.59C139.3 355.109 138.91 354.72 138.43 354.72C137.949 354.72 137.56 355.109 137.56 355.59C137.56 356.07 137.949 356.46 138.43 356.46Z" fill="#E9C77F"/>
<path d="M115.329 316.81C115.81 316.81 116.199 316.42 116.199 315.94C116.199 315.459 115.81 315.07 115.329 315.07C114.849 315.07 114.459 315.459 114.459 315.94C114.459 316.42 114.849 316.81 115.329 316.81Z" fill="#E9C77F"/>
<path d="M126.96 351.6C127.656 351.6 128.22 351.036 128.22 350.34C128.22 349.644 127.656 349.08 126.96 349.08C126.264 349.08 125.7 349.644 125.7 350.34C125.7 351.036 126.264 351.6 126.96 351.6Z" fill="#E9C77F"/>
<path d="M127.16 327.01C128.049 327.01 128.77 326.289 128.77 325.4C128.77 324.511 128.049 323.79 127.16 323.79C126.271 323.79 125.55 324.511 125.55 325.4C125.55 326.289 126.271 327.01 127.16 327.01Z" fill="#E9C77F"/>
<path d="M172.54 379.45C173.429 379.45 174.15 378.729 174.15 377.84C174.15 376.951 173.429 376.23 172.54 376.23C171.65 376.23 170.93 376.951 170.93 377.84C170.93 378.729 171.65 379.45 172.54 379.45Z" fill="#E9C77F"/>
<path d="M148.759 377.84C149.649 377.84 150.369 377.119 150.369 376.23C150.369 375.341 149.649 374.62 148.759 374.62C147.87 374.62 147.149 375.341 147.149 376.23C147.149 377.119 147.87 377.84 148.759 377.84Z" fill="#E9C77F"/>
<path d="M275.2 136.12C276.139 136.12 276.9 135.359 276.9 134.42C276.9 133.481 276.139 132.72 275.2 132.72C274.261 132.72 273.5 133.481 273.5 134.42C273.5 135.359 274.261 136.12 275.2 136.12Z" fill="#F4DA8F"/>
<path d="M285.62 119.01C286.664 119.01 287.51 118.164 287.51 117.12C287.51 116.076 286.664 115.23 285.62 115.23C284.576 115.23 283.73 116.076 283.73 117.12C283.73 118.164 284.576 119.01 285.62 119.01Z" fill="#F4DA8F"/>
<path d="M320.25 139.41C321.647 139.41 322.78 138.277 322.78 136.88C322.78 135.483 321.647 134.35 320.25 134.35C318.852 134.35 317.72 135.483 317.72 136.88C317.72 138.277 318.852 139.41 320.25 139.41Z" fill="#F4DA8F"/>
<path d="M332.04 154.06C333.437 154.06 334.57 152.927 334.57 151.53C334.57 150.133 333.437 149 332.04 149C330.643 149 329.51 150.133 329.51 151.53C329.51 152.927 330.643 154.06 332.04 154.06Z" fill="#F4DA8F"/>
<path d="M263.82 121.23C265.217 121.23 266.35 120.097 266.35 118.7C266.35 117.303 265.217 116.17 263.82 116.17C262.423 116.17 261.29 117.303 261.29 118.7C261.29 120.097 262.423 121.23 263.82 121.23Z" fill="#F4DA8F"/>
<path d="M252.98 116.24C254.378 116.24 255.51 115.107 255.51 113.71C255.51 112.313 254.378 111.18 252.98 111.18C251.583 111.18 250.45 112.313 250.45 113.71C250.45 115.107 251.583 116.24 252.98 116.24Z" fill="#F4DA8F"/>
<path d="M249.49 115.86C250.887 115.86 252.02 114.727 252.02 113.33C252.02 111.933 250.887 110.8 249.49 110.8C248.093 110.8 246.96 111.933 246.96 113.33C246.96 114.727 248.093 115.86 249.49 115.86Z" fill="#F4DA8F"/>
<path d="M236.17 119.36C237.567 119.36 238.7 118.227 238.7 116.83C238.7 115.433 237.567 114.3 236.17 114.3C234.773 114.3 233.64 115.433 233.64 116.83C233.64 118.227 234.773 119.36 236.17 119.36Z" fill="#F4DA8F"/>
<path d="M308.09 125.33C309.487 125.33 310.62 124.197 310.62 122.8C310.62 121.403 309.487 120.27 308.09 120.27C306.693 120.27 305.56 121.403 305.56 122.8C305.56 124.197 306.693 125.33 308.09 125.33Z" fill="#F4DA8F"/>
<path d="M293.52 136.51C294.918 136.51 296.05 135.377 296.05 133.98C296.05 132.583 294.918 131.45 293.52 131.45C292.123 131.45 290.99 132.583 290.99 133.98C290.99 135.377 292.123 136.51 293.52 136.51Z" fill="#F4DA8F"/>
<path d="M296.66 118.62C298.057 118.62 299.19 117.487 299.19 116.09C299.19 114.693 298.057 113.56 296.66 113.56C295.263 113.56 294.13 114.693 294.13 116.09C294.13 117.487 295.263 118.62 296.66 118.62Z" fill="#F4DA8F"/>
<path d="M313.8 131.21C315.197 131.21 316.33 130.077 316.33 128.68C316.33 127.283 315.197 126.15 313.8 126.15C312.403 126.15 311.27 127.283 311.27 128.68C311.27 130.077 312.403 131.21 313.8 131.21Z" fill="#F4DA8F"/>
<path d="M329.06 151.23C330.458 151.23 331.59 150.097 331.59 148.7C331.59 147.303 330.458 146.17 329.06 146.17C327.663 146.17 326.53 147.303 326.53 148.7C326.53 150.097 327.663 151.23 329.06 151.23Z" fill="#F4DA8F"/>
<path d="M316.3 136.41C318.366 136.41 320.04 134.736 320.04 132.67C320.04 130.604 318.366 128.93 316.3 128.93C314.235 128.93 312.56 130.604 312.56 132.67C312.56 134.736 314.235 136.41 316.3 136.41Z" fill="#F4DA8F"/>
<path d="M313.93 146.45C314.819 146.45 315.54 145.729 315.54 144.84C315.54 143.951 314.819 143.23 313.93 143.23C313.041 143.23 312.32 143.951 312.32 144.84C312.32 145.729 313.041 146.45 313.93 146.45Z" fill="#F4DA8F"/>
<path d="M291.8 116.01C292.689 116.01 293.41 115.289 293.41 114.4C293.41 113.511 292.689 112.79 291.8 112.79C290.911 112.79 290.19 113.511 290.19 114.4C290.19 115.289 290.911 116.01 291.8 116.01Z" fill="#F4DA8F"/>
<path d="M326.83 155.72C327.719 155.72 328.44 154.999 328.44 154.11C328.44 153.221 327.719 152.5 326.83 152.5C325.941 152.5 325.22 153.221 325.22 154.11C325.22 154.999 325.941 155.72 326.83 155.72Z" fill="#F4DA8F"/>
<path d="M289.6 125.25C290.489 125.25 291.21 124.529 291.21 123.64C291.21 122.751 290.489 122.03 289.6 122.03C288.711 122.03 287.99 122.751 287.99 123.64C287.99 124.529 288.711 125.25 289.6 125.25Z" fill="#F4DA8F"/>
<path d="M298.71 126.99C299.599 126.99 300.32 126.269 300.32 125.38C300.32 124.491 299.599 123.77 298.71 123.77C297.821 123.77 297.1 124.491 297.1 125.38C297.1 126.269 297.821 126.99 298.71 126.99Z" fill="#F4DA8F"/>
<path d="M298.4 148.28C299.289 148.28 300.01 147.559 300.01 146.67C300.01 145.781 299.289 145.06 298.4 145.06C297.511 145.06 296.79 145.781 296.79 146.67C296.79 147.559 297.511 148.28 298.4 148.28Z" fill="#F4DA8F"/>
<path d="M270.05 115.77C270.531 115.77 270.92 115.381 270.92 114.9C270.92 114.42 270.531 114.03 270.05 114.03C269.57 114.03 269.18 114.42 269.18 114.9C269.18 115.381 269.57 115.77 270.05 115.77Z" fill="#F4DA8F"/>
<path d="M256.96 115.16C257.44 115.16 257.83 114.771 257.83 114.29C257.83 113.81 257.44 113.42 256.96 113.42C256.479 113.42 256.09 113.81 256.09 114.29C256.09 114.771 256.479 115.16 256.96 115.16Z" fill="#F4DA8F"/>
<path d="M250.47 118C250.951 118 251.34 117.61 251.34 117.13C251.34 116.65 250.951 116.26 250.47 116.26C249.99 116.26 249.6 116.65 249.6 117.13C249.6 117.61 249.99 118 250.47 118Z" fill="#F4DA8F"/>
<path d="M259.63 120.86C260.11 120.86 260.5 120.47 260.5 119.99C260.5 119.51 260.11 119.12 259.63 119.12C259.149 119.12 258.76 119.51 258.76 119.99C258.76 120.47 259.149 120.86 259.63 120.86Z" fill="#F4DA8F"/>
<path d="M261.55 115.16C262.031 115.16 262.42 114.771 262.42 114.29C262.42 113.81 262.031 113.42 261.55 113.42C261.07 113.42 260.68 113.81 260.68 114.29C260.68 114.771 261.07 115.16 261.55 115.16Z" fill="#F4DA8F"/>
<path d="M264.8 127.11C265.281 127.11 265.67 126.72 265.67 126.24C265.67 125.76 265.281 125.37 264.8 125.37C264.32 125.37 263.93 125.76 263.93 126.24C263.93 126.72 264.32 127.11 264.8 127.11Z" fill="#F4DA8F"/>
<path d="M258.58 146.59C259.06 146.59 259.45 146.2 259.45 145.72C259.45 145.239 259.06 144.85 258.58 144.85C258.099 144.85 257.71 145.239 257.71 145.72C257.71 146.2 258.099 146.59 258.58 146.59Z" fill="#F4DA8F"/>
<path d="M253.39 179.14C253.871 179.14 254.26 178.751 254.26 178.27C254.26 177.79 253.871 177.4 253.39 177.4C252.91 177.4 252.52 177.79 252.52 178.27C252.52 178.751 252.91 179.14 253.39 179.14Z" fill="#F4DA8F"/>
<path d="M279.45 117.39C279.931 117.39 280.32 117.001 280.32 116.52C280.32 116.04 279.931 115.65 279.45 115.65C278.97 115.65 278.58 116.04 278.58 116.52C278.58 117.001 278.97 117.39 279.45 117.39Z" fill="#F4DA8F"/>
<path d="M281.62 127.36C282.1 127.36 282.49 126.97 282.49 126.49C282.49 126.01 282.1 125.62 281.62 125.62C281.14 125.62 280.75 126.01 280.75 126.49C280.75 126.97 281.14 127.36 281.62 127.36Z" fill="#F4DA8F"/>
<path d="M342.15 182.23C342.631 182.23 343.02 181.84 343.02 181.36C343.02 180.879 342.631 180.49 342.15 180.49C341.67 180.49 341.28 180.879 341.28 181.36C341.28 181.84 341.67 182.23 342.15 182.23Z" fill="#F4DA8F"/>
<path d="M302.84 173.65C303.32 173.65 303.71 173.261 303.71 172.78C303.71 172.3 303.32 171.91 302.84 171.91C302.359 171.91 301.97 172.3 301.97 172.78C301.97 173.261 302.359 173.65 302.84 173.65Z" fill="#F4DA8F"/>
<path d="M335.92 188.52C336.4 188.52 336.79 188.131 336.79 187.65C336.79 187.17 336.4 186.78 335.92 186.78C335.439 186.78 335.05 187.17 335.05 187.65C335.05 188.131 335.439 188.52 335.92 188.52Z" fill="#F4DA8F"/>
<path d="M344.98 183.91C345.46 183.91 345.85 183.521 345.85 183.04C345.85 182.56 345.46 182.17 344.98 182.17C344.499 182.17 344.11 182.56 344.11 183.04C344.11 183.521 344.499 183.91 344.98 183.91Z" fill="#F4DA8F"/>
<path d="M332.52 165.01C333 165.01 333.39 164.621 333.39 164.14C333.39 163.66 333 163.27 332.52 163.27C332.039 163.27 331.65 163.66 331.65 164.14C331.65 164.621 332.039 165.01 332.52 165.01Z" fill="#F4DA8F"/>
<path d="M293.96 115.54C294.656 115.54 295.22 114.976 295.22 114.28C295.22 113.584 294.656 113.02 293.96 113.02C293.264 113.02 292.7 113.584 292.7 114.28C292.7 114.976 293.264 115.54 293.96 115.54Z" fill="#F4DA8F"/>
<path d="M287.71 173.72C288.599 173.72 289.32 172.999 289.32 172.11C289.32 171.221 288.599 170.5 287.71 170.5C286.821 170.5 286.1 171.221 286.1 172.11C286.1 172.999 286.821 173.72 287.71 173.72Z" fill="#F4DA8F"/>
<path d="M249.05 134.4C249.939 134.4 250.66 133.679 250.66 132.79C250.66 131.901 249.939 131.18 249.05 131.18C248.161 131.18 247.44 131.901 247.44 132.79C247.44 133.679 248.161 134.4 249.05 134.4Z" fill="#F4DA8F"/>
<path d="M229.55 127.96C230.439 127.96 231.16 127.239 231.16 126.35C231.16 125.461 230.439 124.74 229.55 124.74C228.661 124.74 227.94 125.461 227.94 126.35C227.94 127.239 228.661 127.96 229.55 127.96Z" fill="#F4DA8F"/>
<path d="M240.76 120.9C241.649 120.9 242.37 120.179 242.37 119.29C242.37 118.401 241.649 117.68 240.76 117.68C239.871 117.68 239.15 118.401 239.15 119.29C239.15 120.179 239.871 120.9 240.76 120.9Z" fill="#F4DA8F"/>
<path d="M258.06 117.75C258.949 117.75 259.67 117.029 259.67 116.14C259.67 115.251 258.949 114.53 258.06 114.53C257.171 114.53 256.45 115.251 256.45 116.14C256.45 117.029 257.171 117.75 258.06 117.75Z" fill="#F4DA8F"/>
<path d="M233.92 119.74C234.809 119.74 235.53 119.019 235.53 118.13C235.53 117.241 234.809 116.52 233.92 116.52C233.031 116.52 232.31 117.241 232.31 118.13C232.31 119.019 233.031 119.74 233.92 119.74Z" fill="#F4DA8F"/>
<path d="M233.05 121.52C234.773 121.52 236.17 120.123 236.17 118.4C236.17 116.677 234.773 115.28 233.05 115.28C231.327 115.28 229.93 116.677 229.93 118.4C229.93 120.123 231.327 121.52 233.05 121.52Z" fill="#F4DA8F"/>
<path d="M194.43 332.62C195.368 332.62 196.13 331.859 196.13 330.92C196.13 329.981 195.368 329.22 194.43 329.22C193.491 329.22 192.729 329.981 192.729 330.92C192.729 331.859 193.491 332.62 194.43 332.62Z" fill="#F4DA8F"/>
<path d="M298.68 357.63C299.618 357.63 300.38 356.869 300.38 355.93C300.38 354.991 299.618 354.23 298.68 354.23C297.741 354.23 296.979 354.991 296.979 355.93C296.979 356.869 297.741 357.63 298.68 357.63Z" fill="#F4DA8F"/>
<path d="M173.86 348.47C174.904 348.47 175.75 347.624 175.75 346.58C175.75 345.536 174.904 344.69 173.86 344.69C172.816 344.69 171.97 345.536 171.97 346.58C171.97 347.624 172.816 348.47 173.86 348.47Z" fill="#F4DA8F"/>
<path d="M266.4 352.04C267.444 352.04 268.29 351.194 268.29 350.15C268.29 349.106 267.444 348.26 266.4 348.26C265.356 348.26 264.51 349.106 264.51 350.15C264.51 351.194 265.356 352.04 266.4 352.04Z" fill="#F4DA8F"/>
<path d="M134.22 336.27C136.644 336.27 138.61 334.305 138.61 331.88C138.61 329.455 136.644 327.49 134.22 327.49C131.795 327.49 129.83 329.455 129.83 331.88C129.83 334.305 131.795 336.27 134.22 336.27Z" fill="#F4DA8F"/>
<path d="M113.06 274.11C115.484 274.11 117.45 272.145 117.45 269.72C117.45 267.295 115.484 265.33 113.06 265.33C110.635 265.33 108.67 267.295 108.67 269.72C108.67 272.145 110.635 274.11 113.06 274.11Z" fill="#F4DA8F"/>
<path d="M109.13 268.8C111.554 268.8 113.52 266.835 113.52 264.41C113.52 261.986 111.554 260.02 109.13 260.02C106.705 260.02 104.74 261.986 104.74 264.41C104.74 266.835 106.705 268.8 109.13 268.8Z" fill="#F4DA8F"/>
<path d="M127.78 320.23C129.978 320.23 131.76 318.448 131.76 316.25C131.76 314.052 129.978 312.27 127.78 312.27C125.582 312.27 123.8 314.052 123.8 316.25C123.8 318.448 125.582 320.23 127.78 320.23Z" fill="#F4DA8F"/>
<path d="M199.7 361.98C201.097 361.98 202.23 360.847 202.23 359.45C202.23 358.053 201.097 356.92 199.7 356.92C198.303 356.92 197.17 358.053 197.17 359.45C197.17 360.847 198.303 361.98 199.7 361.98Z" fill="#F4DA8F"/>
<path d="M209.8 362.64C211.197 362.64 212.329 361.507 212.329 360.11C212.329 358.713 211.197 357.58 209.8 357.58C208.402 357.58 207.27 358.713 207.27 360.11C207.27 361.507 208.402 362.64 209.8 362.64Z" fill="#F4DA8F"/>
<path d="M241.85 364.31C243.247 364.31 244.38 363.177 244.38 361.78C244.38 360.383 243.247 359.25 241.85 359.25C240.453 359.25 239.32 360.383 239.32 361.78C239.32 363.177 240.453 364.31 241.85 364.31Z" fill="#F4DA8F"/>
<path d="M220.39 361.41C221.787 361.41 222.92 360.277 222.92 358.88C222.92 357.483 221.787 356.35 220.39 356.35C218.993 356.35 217.86 357.483 217.86 358.88C217.86 360.277 218.993 361.41 220.39 361.41Z" fill="#F4DA8F"/>
<path d="M157.69 340.13C159.087 340.13 160.22 338.997 160.22 337.6C160.22 336.203 159.087 335.07 157.69 335.07C156.292 335.07 155.16 336.203 155.16 337.6C155.16 338.997 156.292 340.13 157.69 340.13Z" fill="#F4DA8F"/>
<path d="M168.85 331.17C170.247 331.17 171.38 330.037 171.38 328.64C171.38 327.243 170.247 326.11 168.85 326.11C167.453 326.11 166.32 327.243 166.32 328.64C166.32 330.037 167.453 331.17 168.85 331.17Z" fill="#F4DA8F"/>
<path d="M161.51 344.92C162.907 344.92 164.04 343.787 164.04 342.39C164.04 340.993 162.907 339.86 161.51 339.86C160.112 339.86 158.979 340.993 158.979 342.39C158.979 343.787 160.112 344.92 161.51 344.92Z" fill="#F4DA8F"/>
<path d="M157.95 326.85C159.347 326.85 160.48 325.717 160.48 324.32C160.48 322.923 159.347 321.79 157.95 321.79C156.553 321.79 155.42 322.923 155.42 324.32C155.42 325.717 156.553 326.85 157.95 326.85Z" fill="#F4DA8F"/>
<path d="M136.08 316.57C137.477 316.57 138.61 315.437 138.61 314.04C138.61 312.643 137.477 311.51 136.08 311.51C134.682 311.51 133.55 312.643 133.55 314.04C133.55 315.437 134.682 316.57 136.08 316.57Z" fill="#F4DA8F"/>
<path d="M139.189 342.95C142.459 342.95 145.109 340.3 145.109 337.03C145.109 333.761 142.459 331.11 139.189 331.11C135.92 331.11 133.27 333.761 133.27 337.03C133.27 340.3 135.92 342.95 139.189 342.95Z" fill="#F4DA8F"/>
<path d="M150.37 321.95C151.259 321.95 151.98 321.229 151.98 320.34C151.98 319.451 151.259 318.73 150.37 318.73C149.481 318.73 148.76 319.451 148.76 320.34C148.76 321.229 149.481 321.95 150.37 321.95Z" fill="#F4DA8F"/>
<path d="M168.45 346.46C169.339 346.46 170.06 345.739 170.06 344.85C170.06 343.961 169.339 343.24 168.45 343.24C167.561 343.24 166.84 343.961 166.84 344.85C166.84 345.739 167.561 346.46 168.45 346.46Z" fill="#F4DA8F"/>
<path d="M121.33 275.53C122.219 275.53 122.94 274.809 122.94 273.92C122.94 273.031 122.219 272.31 121.33 272.31C120.441 272.31 119.72 273.031 119.72 273.92C119.72 274.809 120.441 275.53 121.33 275.53Z" fill="#F4DA8F"/>
<path d="M130.16 222.87C131.049 222.87 131.77 222.149 131.77 221.26C131.77 220.371 131.049 219.65 130.16 219.65C129.271 219.65 128.55 220.371 128.55 221.26C128.55 222.149 129.271 222.87 130.16 222.87Z" fill="#F4DA8F"/>
<path d="M139.17 310.68C140.059 310.68 140.78 309.959 140.78 309.07C140.78 308.181 140.059 307.46 139.17 307.46C138.28 307.46 137.56 308.181 137.56 309.07C137.56 309.959 138.28 310.68 139.17 310.68Z" fill="#F4DA8F"/>
<path d="M128.55 307.43C129.439 307.43 130.16 306.709 130.16 305.82C130.16 304.931 129.439 304.21 128.55 304.21C127.66 304.21 126.939 304.931 126.939 305.82C126.939 306.709 127.66 307.43 128.55 307.43Z" fill="#F4DA8F"/>
<path d="M116.85 278.64C117.739 278.64 118.46 277.919 118.46 277.03C118.46 276.141 117.739 275.42 116.85 275.42C115.961 275.42 115.24 276.141 115.24 277.03C115.24 277.919 115.961 278.64 116.85 278.64Z" fill="#F4DA8F"/>
<path d="M171 341.1C171.889 341.1 172.61 340.379 172.61 339.49C172.61 338.601 171.889 337.88 171 337.88C170.11 337.88 169.39 338.601 169.39 339.49C169.39 340.379 170.11 341.1 171 341.1Z" fill="#F4DA8F"/>
<path d="M162.31 337.88C163.199 337.88 163.92 337.159 163.92 336.27C163.92 335.381 163.199 334.66 162.31 334.66C161.421 334.66 160.7 335.381 160.7 336.27C160.7 337.159 161.421 337.88 162.31 337.88Z" fill="#F4DA8F"/>
<path d="M165.99 322.7C166.879 322.7 167.6 321.979 167.6 321.09C167.6 320.201 166.879 319.48 165.99 319.48C165.101 319.48 164.38 320.201 164.38 321.09C164.38 321.979 165.101 322.7 165.99 322.7Z" fill="#F4DA8F"/>
<path d="M196.3 351.89C196.78 351.89 197.17 351.501 197.17 351.02C197.17 350.54 196.78 350.15 196.3 350.15C195.819 350.15 195.43 350.54 195.43 351.02C195.43 351.501 195.819 351.89 196.3 351.89Z" fill="#F4DA8F"/>
<path d="M232.91 327.33C233.391 327.33 233.78 326.94 233.78 326.46C233.78 325.979 233.391 325.59 232.91 325.59C232.43 325.59 232.04 325.979 232.04 326.46C232.04 326.94 232.43 327.33 232.91 327.33Z" fill="#F4DA8F"/>
<path d="M245.25 353.48C245.73 353.48 246.12 353.09 246.12 352.61C246.12 352.129 245.73 351.74 245.25 351.74C244.769 351.74 244.38 352.129 244.38 352.61C244.38 353.09 244.769 353.48 245.25 353.48Z" fill="#F4DA8F"/>
<path d="M215.84 358.68C216.32 358.68 216.71 358.291 216.71 357.81C216.71 357.33 216.32 356.94 215.84 356.94C215.359 356.94 214.97 357.33 214.97 357.81C214.97 358.291 215.359 358.68 215.84 358.68Z" fill="#F4DA8F"/>
<path d="M207.28 354.35C207.76 354.35 208.15 353.96 208.15 353.48C208.15 352.999 207.76 352.61 207.28 352.61C206.799 352.61 206.41 352.999 206.41 353.48C206.41 353.96 206.799 354.35 207.28 354.35Z" fill="#F4DA8F"/>
<path d="M216.3 335.88C216.78 335.88 217.17 335.49 217.17 335.01C217.17 334.53 216.78 334.14 216.3 334.14C215.819 334.14 215.43 334.53 215.43 335.01C215.43 335.49 215.819 335.88 216.3 335.88Z" fill="#F4DA8F"/>
<path d="M203.21 347.33C203.69 347.33 204.08 346.94 204.08 346.46C204.08 345.979 203.69 345.59 203.21 345.59C202.729 345.59 202.34 345.979 202.34 346.46C202.34 346.94 202.729 347.33 203.21 347.33Z" fill="#F4DA8F"/>
<path d="M254.52 354.74C255 354.74 255.39 354.35 255.39 353.87C255.39 353.39 255 353 254.52 353C254.039 353 253.65 353.39 253.65 353.87C253.65 354.35 254.039 354.74 254.52 354.74Z" fill="#F4DA8F"/>
<path d="M188.66 345.46C189.141 345.46 189.53 345.07 189.53 344.59C189.53 344.109 189.141 343.72 188.66 343.72C188.18 343.72 187.79 344.109 187.79 344.59C187.79 345.07 188.18 345.46 188.66 345.46Z" fill="#F4DA8F"/>
<path d="M205.11 329.45C205.59 329.45 205.98 329.06 205.98 328.58C205.98 328.099 205.59 327.71 205.11 327.71C204.629 327.71 204.24 328.099 204.24 328.58C204.24 329.06 204.629 329.45 205.11 329.45Z" fill="#F4DA8F"/>
<path d="M188.34 305.82C188.82 305.82 189.21 305.43 189.21 304.95C189.21 304.469 188.82 304.08 188.34 304.08C187.859 304.08 187.47 304.469 187.47 304.95C187.47 305.43 187.859 305.82 188.34 305.82Z" fill="#F4DA8F"/>
<path d="M204.07 339.78C204.55 339.78 204.94 339.391 204.94 338.91C204.94 338.43 204.55 338.04 204.07 338.04C203.589 338.04 203.2 338.43 203.2 338.91C203.2 339.391 203.589 339.78 204.07 339.78Z" fill="#F4DA8F"/>
<path d="M142.84 292.99C143.32 292.99 143.71 292.6 143.71 292.12C143.71 291.64 143.32 291.25 142.84 291.25C142.359 291.25 141.97 291.64 141.97 292.12C141.97 292.6 142.359 292.99 142.84 292.99Z" fill="#F4DA8F"/>
<path d="M215.59 298.2C216.07 298.2 216.46 297.81 216.46 297.33C216.46 296.849 216.07 296.46 215.59 296.46C215.109 296.46 214.72 296.849 214.72 297.33C214.72 297.81 215.109 298.2 215.59 298.2Z" fill="#F4DA8F"/>
<path d="M179.84 349.05C180.32 349.05 180.71 348.661 180.71 348.18C180.71 347.7 180.32 347.31 179.84 347.31C179.359 347.31 178.97 347.7 178.97 348.18C178.97 348.661 179.359 349.05 179.84 349.05Z" fill="#F4DA8F"/>
<path d="M179.349 338.86C179.83 338.86 180.219 338.47 180.219 337.99C180.219 337.51 179.83 337.12 179.349 337.12C178.869 337.12 178.479 337.51 178.479 337.99C178.479 338.47 178.869 338.86 179.349 338.86Z" fill="#F4DA8F"/>
<path d="M270.68 358.42C271.16 358.42 271.55 358.031 271.55 357.55C271.55 357.07 271.16 356.68 270.68 356.68C270.199 356.68 269.81 357.07 269.81 357.55C269.81 358.031 270.199 358.42 270.68 358.42Z" fill="#F4DA8F"/>
<path d="M128.55 280.54C129.03 280.54 129.42 280.151 129.42 279.67C129.42 279.19 129.03 278.8 128.55 278.8C128.069 278.8 127.68 279.19 127.68 279.67C127.68 280.151 128.069 280.54 128.55 280.54Z" fill="#F4DA8F"/>
<path d="M165.91 295.47C166.391 295.47 166.78 295.08 166.78 294.6C166.78 294.119 166.391 293.73 165.91 293.73C165.43 293.73 165.04 294.119 165.04 294.6C165.04 295.08 165.43 295.47 165.91 295.47Z" fill="#F4DA8F"/>
<path d="M144.61 248.53C145.09 248.53 145.48 248.141 145.48 247.66C145.48 247.18 145.09 246.79 144.61 246.79C144.129 246.79 143.74 247.18 143.74 247.66C143.74 248.141 144.129 248.53 144.61 248.53Z" fill="#F4DA8F"/>
<path d="M135.73 275.36C136.21 275.36 136.6 274.97 136.6 274.49C136.6 274.01 136.21 273.62 135.73 273.62C135.249 273.62 134.86 274.01 134.86 274.49C134.86 274.97 135.249 275.36 135.73 275.36Z" fill="#F4DA8F"/>
<path d="M120.8 258.79C121.28 258.79 121.67 258.401 121.67 257.92C121.67 257.44 121.28 257.05 120.8 257.05C120.319 257.05 119.93 257.44 119.93 257.92C119.93 258.401 120.319 258.79 120.8 258.79Z" fill="#F4DA8F"/>
<path d="M126.04 278.41C126.52 278.41 126.91 278.021 126.91 277.54C126.91 277.06 126.52 276.67 126.04 276.67C125.559 276.67 125.17 277.06 125.17 277.54C125.17 278.021 125.559 278.41 126.04 278.41Z" fill="#F4DA8F"/>
<path d="M165.45 264.41C165.93 264.41 166.32 264.021 166.32 263.54C166.32 263.06 165.93 262.67 165.45 262.67C164.969 262.67 164.58 263.06 164.58 263.54C164.58 264.021 164.969 264.41 165.45 264.41Z" fill="#F4DA8F"/>
<path d="M135.21 299.11C135.69 299.11 136.08 298.72 136.08 298.24C136.08 297.76 135.69 297.37 135.21 297.37C134.729 297.37 134.34 297.76 134.34 298.24C134.34 298.72 134.729 299.11 135.21 299.11Z" fill="#F4DA8F"/>
<path d="M166.75 339.7C167.446 339.7 168.01 339.136 168.01 338.44C168.01 337.744 167.446 337.18 166.75 337.18C166.054 337.18 165.49 337.744 165.49 338.44C165.49 339.136 166.054 339.7 166.75 339.7Z" fill="#F4DA8F"/>
<path d="M180.73 299.37C181.619 299.37 182.34 298.649 182.34 297.76C182.34 296.871 181.619 296.15 180.73 296.15C179.84 296.15 179.12 296.871 179.12 297.76C179.12 298.649 179.84 299.37 180.73 299.37Z" fill="#F4DA8F"/>
<path d="M127.78 295.34C128.669 295.34 129.39 294.619 129.39 293.73C129.39 292.841 128.669 292.12 127.78 292.12C126.891 292.12 126.17 292.841 126.17 293.73C126.17 294.619 126.891 295.34 127.78 295.34Z" fill="#F4DA8F"/>
<path d="M219.82 344.21C220.709 344.21 221.43 343.489 221.43 342.6C221.43 341.711 220.709 340.99 219.82 340.99C218.931 340.99 218.21 341.711 218.21 342.6C218.21 343.489 218.931 344.21 219.82 344.21Z" fill="#F4DA8F"/>
<path d="M237.99 353.77C238.879 353.77 239.6 353.049 239.6 352.16C239.6 351.271 238.879 350.55 237.99 350.55C237.101 350.55 236.38 351.271 236.38 352.16C236.38 353.049 237.101 353.77 237.99 353.77Z" fill="#F4DA8F"/>
<path d="M266.4 343.64C267.289 343.64 268.01 342.919 268.01 342.03C268.01 341.141 267.289 340.42 266.4 340.42C265.511 340.42 264.79 341.141 264.79 342.03C264.79 342.919 265.511 343.64 266.4 343.64Z" fill="#F4DA8F"/>
<path d="M292.33 357.17C293.219 357.17 293.94 356.449 293.94 355.56C293.94 354.671 293.219 353.95 292.33 353.95C291.441 353.95 290.72 354.671 290.72 355.56C290.72 356.449 291.441 357.17 292.33 357.17Z" fill="#F4DA8F"/>
<path d="M225.77 358.89C226.659 358.89 227.38 358.169 227.38 357.28C227.38 356.391 226.659 355.67 225.77 355.67C224.88 355.67 224.16 356.391 224.16 357.28C224.16 358.169 224.88 358.89 225.77 358.89Z" fill="#F4DA8F"/>
<path d="M208.19 359.15C209.079 359.15 209.8 358.429 209.8 357.54C209.8 356.651 209.079 355.93 208.19 355.93C207.3 355.93 206.58 356.651 206.58 357.54C206.58 358.429 207.3 359.15 208.19 359.15Z" fill="#F4DA8F"/>
<path d="M232.33 361.16C233.219 361.16 233.94 360.439 233.94 359.55C233.94 358.661 233.219 357.94 232.33 357.94C231.441 357.94 230.72 358.661 230.72 359.55C230.72 360.439 231.441 361.16 232.33 361.16Z" fill="#F4DA8F"/>
<path d="M188.05 355.25C189.773 355.25 191.17 353.853 191.17 352.13C191.17 350.407 189.773 349.01 188.05 349.01C186.327 349.01 184.93 350.407 184.93 352.13C184.93 353.853 186.327 355.25 188.05 355.25Z" fill="#F4DA8F"/>
<path d="M170.06 357.47C171.783 357.47 173.18 356.073 173.18 354.35C173.18 352.627 171.783 351.23 170.06 351.23C168.336 351.23 166.939 352.627 166.939 354.35C166.939 356.073 168.336 357.47 170.06 357.47Z" fill="#F4DA8F"/>
<path d="M195.43 361.79C197.153 361.79 198.55 360.393 198.55 358.67C198.55 356.947 197.153 355.55 195.43 355.55C193.706 355.55 192.31 356.947 192.31 358.67C192.31 360.393 193.706 361.79 195.43 361.79Z" fill="#F4DA8F"/>
<path d="M165.91 355.01C167.633 355.01 169.03 353.613 169.03 351.89C169.03 350.167 167.633 348.77 165.91 348.77C164.187 348.77 162.79 350.167 162.79 351.89C162.79 353.613 164.187 355.01 165.91 355.01Z" fill="#F4DA8F"/>
<path d="M144.42 344.68C146.143 344.68 147.54 343.283 147.54 341.56C147.54 339.837 146.143 338.44 144.42 338.44C142.697 338.44 141.3 339.837 141.3 341.56C141.3 343.283 142.697 344.68 144.42 344.68Z" fill="#F4DA8F"/>
<path d="M134.94 371.33C134.94 371.33 138.32 371.43 138.7 369.88C139.07 368.32 137.89 367.85 135.9 366.21C133.92 364.57 132.31 364 133.48 361.52C134.65 359.04 136.13 356.27 135.32 355.37C134.52 354.47 133.9 354.22 132.26 355.61C130.62 357 128.56 358.91 126.85 357.85C125.14 356.79 121.39 354.4 121.39 354.4C121.39 354.4 120.3 353.87 119.79 354.37C119.28 354.87 118.95 355.85 119.54 356.98C120.13 358.11 121.48 360.84 121.48 360.84C121.48 360.84 123.33 363.13 121.03 363.28C118.74 363.44 116.78 364.05 115.72 364.34C114.67 364.63 113.08 365.53 113.67 366.52C114.26 367.51 115.07 367.92 117.73 368.73C120.39 369.54 122.65 369.81 122.72 371.43C122.79 373.05 123.02 375.5 123.24 376.84C123.4 377.8 123.72 378.98 124.54 378.88C125.41 378.77 126.29 378.15 127.2 376.41C127.78 375.3 128.69 373.73 129.37 372.57C129.94 371.61 131 371.04 132.12 371.12L134.94 371.33Z" fill="#F2A0A0"/>
<path d="M136.05 369.25C136.05 369.25 133.37 369.02 129.57 366.53C129.57 366.52 132.87 367.29 136.05 369.25Z" fill="#BA4129"/>
<path d="M128.83 364.02C128.83 364.02 131.81 361.84 133.18 357.93C133.18 357.93 130.44 360.12 128.83 364.02Z" fill="#BA4129"/>
<path d="M122.49 357.15C122.49 357.15 125.3 358.94 126.83 363.67C126.84 363.67 124.46 361.63 122.49 357.15Z" fill="#BA4129"/>
<path d="M117.98 366.56C117.98 366.56 121.83 367.9 125.34 366.49C125.33 366.49 122.4 365.73 117.98 366.56Z" fill="#BA4129"/>
<path d="M127.33 367.94C127.33 367.94 127.33 371.51 125.22 376.01C125.21 376.02 125.44 371.93 127.33 367.94Z" fill="#BA4129"/>
<path d="M162.67 363.13C162.67 363.13 165.16 361.64 164.71 360.34C164.26 359.04 163.19 359.25 161 358.99C158.81 358.73 157.39 359.06 157.09 356.73C156.79 354.4 156.57 351.72 155.58 351.45C154.59 351.18 154.03 351.27 153.48 353.03C152.93 354.79 152.33 357.12 150.61 357.15C148.89 357.18 145.08 357.19 145.08 357.19C145.08 357.19 144.05 357.31 143.92 357.91C143.78 358.51 144 359.37 144.94 359.91C145.88 360.45 148.13 361.8 148.13 361.8C148.13 361.8 150.52 362.59 148.94 363.77C147.36 364.94 146.23 366.29 145.61 366.99C144.99 367.69 144.25 369.07 145.14 369.51C146.02 369.95 146.8 369.87 149.09 369.22C151.39 368.58 153.14 367.73 153.94 368.86C154.74 370 156.04 371.65 156.82 372.52C157.38 373.14 158.15 373.84 158.7 373.39C159.28 372.91 159.62 372.05 159.48 370.38C159.39 369.31 159.32 367.76 159.27 366.61C159.23 365.65 159.74 364.76 160.58 364.3L162.67 363.13Z" fill="#F98959"/>
<path d="M162.51 361.12C162.51 361.12 160.48 362.19 156.58 362.15C156.57 362.15 159.31 361.18 162.51 361.12Z" fill="#F98959"/>
<path d="M154.88 360.69C154.88 360.69 156.02 357.74 155.2 354.29C155.2 354.29 154.24 357.13 154.88 360.69Z" fill="#F98959"/>
<path d="M147.13 358.66C147.13 358.66 149.98 358.65 153.28 361.35C153.28 361.36 150.62 360.98 147.13 358.66Z" fill="#F98959"/>
<path d="M148.23 367.54C148.23 367.54 151.62 366.73 153.5 364.09C153.5 364.08 151.04 364.89 148.23 367.54Z" fill="#F98959"/>
<path d="M155.61 364.21C155.61 364.21 157.26 366.79 157.82 371.01C157.82 371.01 156.09 367.96 155.61 364.21Z" fill="#F98959"/>
</svg>
