<svg width="61" height="123" viewBox="0 0 61 123" fill="none" xmlns="http://www.w3.org/2000/svg">
<path d="M53.44 99.1101C53.44 99.1101 49.98 104.88 46.64 110.14C44.46 113.56 42.34 116.76 41.27 118.02C39.27 120.36 35.38 118.22 36.45 112.25C37.07 108.79 39 106.7 39 106.7C35.62 104 36.45 99.8801 39.4 98.5301C36.04 98.0601 35.19 94.3901 36.79 92.5201C35.32 92.4001 33.39 90.4101 34.81 86.9501C36.32 83.3001 34.85 82.5101 34.11 78.5701C33.89 77.4301 33.74 76.0101 33.74 74.1901C33.73 64.7901 41.97 61.2101 41.97 61.2101H49.33C49.33 61.2101 44.68 71.7601 55.27 89.7101C56.95 92.5601 55.16 96.3101 53.44 99.1101Z" fill="#006970"/>
<path d="M53.44 99.1101C53.44 99.1101 49.98 104.88 46.64 110.14C45.38 110.48 44 110.27 42.95 109.43C39.55 106.72 43.94 101.81 43.94 101.81C43.94 101.81 41.74 100.67 41.53 98.5401C41.23 95.2601 42.73 93.3301 42.73 93.3301C42.73 93.3301 39.59 93.0601 38.86 90.6601C37.95 87.7001 39.18 86.2501 39.18 86.2501C36.62 83.9101 35.06 81.1501 34.11 78.5801C33.89 77.4401 33.74 76.0201 33.74 74.2001C33.73 64.8001 41.97 61.2201 41.97 61.2201H49.33C49.33 61.2201 44.68 71.7701 55.27 89.7201C56.95 92.5601 55.16 96.3101 53.44 99.1101Z" fill="#00A7B3"/>
<path d="M53.44 23.3301C53.44 23.3301 49.98 17.5601 46.64 12.3001C44.46 8.88005 42.34 5.68005 41.27 4.42005C39.27 2.08005 35.38 4.22005 36.45 10.1901C37.07 13.6501 39 15.74 39 15.74C35.62 18.44 36.45 22.56 39.4 23.91C36.04 24.38 35.19 28.05 36.79 29.92C35.32 30.04 33.39 32.03 34.81 35.49C36.32 39.14 34.85 39.93 34.11 43.87C33.89 45.01 33.74 46.43 33.74 48.25C33.73 57.65 41.97 61.23 41.97 61.23H49.33C49.33 61.23 44.68 50.68 55.27 32.73C56.95 29.88 55.16 26.1301 53.44 23.3301Z" fill="#006970"/>
<path d="M53.44 23.33C53.44 23.33 49.98 17.56 46.64 12.3C45.38 11.96 44 12.17 42.95 13.01C39.55 15.72 43.94 20.63 43.94 20.63C43.94 20.63 41.74 21.77 41.53 23.9C41.23 27.18 42.73 29.11 42.73 29.11C42.73 29.11 39.59 29.38 38.86 31.78C37.95 34.74 39.18 36.19 39.18 36.19C36.62 38.53 35.06 41.29 34.11 43.86C33.89 45 33.74 46.42 33.74 48.24C33.73 57.64 41.97 61.22 41.97 61.22H49.33C49.33 61.22 44.68 50.67 55.27 32.72C56.95 29.88 55.16 26.13 53.44 23.33Z" fill="#00A7B3"/>
<path d="M59.73 60.61L56.36 59.63V61.21V62.79L59.73 61.81C60.33 61.64 60.33 60.79 59.73 60.61Z" fill="#F7931E"/>
<path d="M57.46 61.21C57.46 64.49 50.61 67.15 42.16 67.15C39.96 67.15 37.87 66.96 35.98 66.64C34.54 66.53 32.94 66.28 31.15 65.85C28.33 65.18 25.97 64.62 24.22 64.21C22.14 63.73 19.98 63.85 17.97 64.54C16.75 64.96 15.3 65.4 13.93 65.69C11.97 66.11 10.17 66.2 9.46001 65.45C8.39001 64.3 9.69001 62.99 9.69001 62.99C9.69001 62.99 7.71 62.82 7.63 61.22C7.71 59.61 9.69001 59.44 9.69001 59.44C9.69001 59.44 8.39001 58.13 9.46001 56.99C10.17 56.23 11.96 56.33 13.92 56.74C15.29 57.03 16.75 57.48 17.97 57.89C19.98 58.58 22.14 58.7 24.22 58.21C25.96 57.81 28.33 57.25 31.15 56.57C32.93 56.15 34.54 55.9 35.98 55.79C37.87 55.46 39.96 55.28 42.16 55.28C50.61 55.28 57.46 57.94 57.46 61.21Z" fill="#00A7B3"/>
<path d="M13.93 65.69C11.97 66.11 10.17 66.2 9.46001 65.45C8.39001 64.3 9.69001 62.99 9.69001 62.99C9.69001 62.99 7.71 62.82 7.63 61.22C7.71 59.61 9.69001 59.44 9.69001 59.44C9.69001 59.44 8.39001 58.13 9.46001 56.99C10.17 56.23 11.96 56.33 13.92 56.74C13.15 57.78 12.35 59.31 12.35 61.21C12.35 63.11 13.16 64.65 13.93 65.69Z" fill="#006970"/>
</svg>
