<svg width="62" height="123" viewBox="0 0 62 123" fill="none" xmlns="http://www.w3.org/2000/svg">
<path d="M54.33 94.0101C54.33 94.0101 50.87 99.0001 47.53 103.56C45.35 106.52 43.23 109.29 42.16 110.38C40.16 112.4 36.27 110.55 37.34 105.39C37.96 102.39 39.89 100.58 39.89 100.58C36.51 98.2501 37.34 94.6801 40.29 93.5101C36.93 93.1001 36.08 89.9301 37.68 88.3101C36.21 88.2101 34.28 86.4801 35.7 83.4901C37.21 80.3301 35.74 79.6501 35 76.2401C34.78 75.2501 34.63 74.0301 34.63 72.4501C34.62 64.3101 42.86 61.2201 42.86 61.2201H50.22C50.22 61.2201 45.57 70.3501 56.16 85.8901C57.85 88.3401 56.05 91.5801 54.33 94.0101Z" fill="#006970"/>
<path d="M54.33 94.0101C54.33 94.0101 50.87 99.0001 47.53 103.56C46.27 103.85 44.89 103.67 43.84 102.94C40.44 100.6 44.83 96.3401 44.83 96.3401C44.83 96.3401 42.63 95.3601 42.42 93.5101C42.12 90.6801 43.62 89.0001 43.62 89.0001C43.62 89.0001 40.48 88.7701 39.75 86.6901C38.84 84.1301 40.07 82.8801 40.07 82.8801C37.51 80.8601 35.95 78.4701 35 76.2401C34.78 75.2501 34.63 74.0301 34.63 72.4501C34.62 64.3101 42.86 61.2201 42.86 61.2201H50.22C50.22 61.2201 45.57 70.3501 56.16 85.8901C57.85 88.3401 56.05 91.5801 54.33 94.0101Z" fill="#00A7B3"/>
<path d="M54.33 28.43C54.33 28.43 50.87 23.44 47.53 18.88C45.35 15.92 43.23 13.1501 42.16 12.0601C40.16 10.0401 36.27 11.8901 37.34 17.0501C37.96 20.0501 39.89 21.8601 39.89 21.8601C36.51 24.1901 37.34 27.76 40.29 28.93C36.93 29.34 36.08 32.51 37.68 34.13C36.21 34.23 34.28 35.9601 35.7 38.9501C37.21 42.1101 35.74 42.7901 35 46.2001C34.78 47.1901 34.63 48.41 34.63 49.99C34.62 58.13 42.86 61.2201 42.86 61.2201H50.22C50.22 61.2201 45.57 52.0901 56.16 36.5501C57.85 34.1001 56.05 30.86 54.33 28.43Z" fill="#006970"/>
<path d="M54.33 28.43C54.33 28.43 50.87 23.44 47.53 18.88C46.27 18.59 44.89 18.77 43.84 19.5C40.44 21.84 44.83 26.1 44.83 26.1C44.83 26.1 42.63 27.08 42.42 28.93C42.12 31.76 43.62 33.44 43.62 33.44C43.62 33.44 40.48 33.67 39.75 35.75C38.84 38.31 40.07 39.56 40.07 39.56C37.51 41.58 35.95 43.97 35 46.2C34.78 47.19 34.63 48.41 34.63 49.99C34.62 58.13 42.86 61.22 42.86 61.22H50.22C50.22 61.22 45.57 52.09 56.16 36.55C57.85 34.1 56.05 30.86 54.33 28.43Z" fill="#00A7B3"/>
<path d="M60.62 60.61L57.25 59.63V61.21V62.79L60.62 61.81C61.22 61.64 61.22 60.79 60.62 60.61Z" fill="#F7931E"/>
<path d="M58.36 61.21C58.36 64.49 51.51 67.15 43.06 67.15C40.86 67.15 38.77 66.96 36.88 66.64C35.44 66.53 33.84 66.28 32.05 65.85C29.23 65.18 26.87 64.62 25.12 64.21C23.04 63.73 20.88 63.85 18.87 64.54C17.65 64.96 16.2 65.4 14.83 65.69C12.87 66.11 11.07 66.2 10.36 65.45C9.29002 64.3 10.59 62.99 10.59 62.99C10.59 62.99 8.61003 62.82 8.53003 61.22C8.61003 59.61 10.59 59.44 10.59 59.44C10.59 59.44 9.29002 58.13 10.36 56.99C11.07 56.23 12.86 56.33 14.82 56.74C16.19 57.03 17.65 57.48 18.87 57.89C20.88 58.58 23.04 58.7 25.12 58.21C26.86 57.81 29.23 57.25 32.05 56.57C33.83 56.15 35.44 55.9 36.88 55.79C38.77 55.46 40.86 55.28 43.06 55.28C51.51 55.28 58.36 57.94 58.36 61.21Z" fill="#00A7B3"/>
<path d="M14.83 65.69C12.87 66.11 11.07 66.2 10.36 65.45C9.29002 64.3 10.59 62.99 10.59 62.99C10.59 62.99 8.61003 62.82 8.53003 61.22C8.61003 59.61 10.59 59.44 10.59 59.44C10.59 59.44 9.29002 58.13 10.36 56.99C11.07 56.23 12.86 56.33 14.82 56.74C14.05 57.78 13.25 59.31 13.25 61.21C13.25 63.11 14.06 64.65 14.83 65.69Z" fill="#006970"/>
</svg>
