<svg width="61" height="123" viewBox="0 0 61 123" fill="none" xmlns="http://www.w3.org/2000/svg">
<path d="M54.22 88.33C54.22 88.33 50.76 92.46 47.42 96.22C45.24 98.67 43.12 100.96 42.05 101.86C40.05 103.53 36.16 102 37.23 97.73C37.85 95.25 39.78 93.76 39.78 93.76C36.4 91.83 37.23 88.88 40.18 87.92C36.82 87.58 35.97 84.96 37.57 83.62C36.1 83.53 34.17 82.11 35.59 79.64C37.1 77.03 35.63 76.47 34.89 73.64C34.67 72.82 34.52 71.81 34.52 70.5C34.51 63.77 42.75 61.21 42.75 61.21H50.11C50.11 61.21 45.46 68.76 56.05 81.61C57.74 83.64 55.94 86.33 54.22 88.33Z" fill="#006970"/>
<path d="M54.22 88.33C54.22 88.33 50.76 92.46 47.42 96.22C46.16 96.46 44.78 96.31 43.73 95.71C40.33 93.77 44.72 90.26 44.72 90.26C44.72 90.26 42.52 89.45 42.31 87.92C42.01 85.58 43.51 84.19 43.51 84.19C43.51 84.19 40.37 84 39.64 82.28C38.73 80.17 39.96 79.13 39.96 79.13C37.4 77.46 35.84 75.48 34.89 73.64C34.67 72.82 34.52 71.81 34.52 70.5C34.51 63.77 42.75 61.21 42.75 61.21H50.11C50.11 61.21 45.46 68.76 56.05 81.61C57.74 83.64 55.94 86.33 54.22 88.33Z" fill="#00A7B3"/>
<path d="M54.22 34.11C54.22 34.11 50.76 29.98 47.42 26.22C45.24 23.77 43.12 21.48 42.05 20.58C40.05 18.91 36.16 20.44 37.23 24.71C37.85 27.19 39.78 28.68 39.78 28.68C36.4 30.61 37.23 33.56 40.18 34.52C36.82 34.86 35.97 37.48 37.57 38.82C36.1 38.91 34.17 40.33 35.59 42.8C37.1 45.41 35.63 45.97 34.89 48.8C34.67 49.62 34.52 50.63 34.52 51.94C34.51 58.67 42.75 61.23 42.75 61.23H50.11C50.11 61.23 45.46 53.68 56.05 40.83C57.74 38.8 55.94 36.12 54.22 34.11Z" fill="#006970"/>
<path d="M54.22 34.11C54.22 34.11 50.76 29.98 47.42 26.22C46.16 25.98 44.78 26.13 43.73 26.73C40.33 28.67 44.72 32.18 44.72 32.18C44.72 32.18 42.52 32.99 42.31 34.52C42.01 36.86 43.51 38.25 43.51 38.25C43.51 38.25 40.37 38.44 39.64 40.16C38.73 42.27 39.96 43.31 39.96 43.31C37.4 44.98 35.84 46.96 34.89 48.8C34.67 49.62 34.52 50.63 34.52 51.94C34.51 58.67 42.75 61.23 42.75 61.23H50.11C50.11 61.23 45.46 53.68 56.05 40.83C57.74 38.8 55.94 36.12 54.22 34.11Z" fill="#00A7B3"/>
<path d="M60.51 60.61L57.14 59.63V61.21V62.79L60.51 61.81C61.11 61.64 61.11 60.79 60.51 60.61Z" fill="#F7931E"/>
<path d="M58.2501 61.21C58.2501 64.49 51.4 67.15 42.95 67.15C40.75 67.15 38.6601 66.96 36.7701 66.64C35.33 66.53 33.7301 66.28 31.9401 65.85C29.1201 65.18 26.76 64.62 25.01 64.21C22.93 63.73 20.77 63.85 18.76 64.54C17.54 64.96 16.0901 65.4 14.7201 65.69C12.7601 66.11 10.9601 66.2 10.2501 65.45C9.18006 64.3 10.48 62.99 10.48 62.99C10.48 62.99 8.50004 62.82 8.42004 61.22C8.50004 59.61 10.48 59.44 10.48 59.44C10.48 59.44 9.18006 58.13 10.2501 56.99C10.9601 56.23 12.7501 56.33 14.7101 56.74C16.0801 57.03 17.54 57.48 18.76 57.89C20.77 58.58 22.93 58.7 25.01 58.21C26.75 57.81 29.1201 57.25 31.9401 56.57C33.7201 56.15 35.33 55.9 36.7701 55.79C38.6601 55.46 40.75 55.28 42.95 55.28C51.4 55.28 58.2501 57.94 58.2501 61.21Z" fill="#00A7B3"/>
<path d="M14.7201 65.69C12.7601 66.11 10.9601 66.2 10.2501 65.45C9.18006 64.3 10.48 62.99 10.48 62.99C10.48 62.99 8.50004 62.82 8.42004 61.22C8.50004 59.61 10.48 59.44 10.48 59.44C10.48 59.44 9.18006 58.13 10.2501 56.99C10.9601 56.23 12.7501 56.33 14.7101 56.74C13.9401 57.78 13.14 59.31 13.14 61.21C13.14 63.11 13.9501 64.65 14.7201 65.69Z" fill="#006970"/>
</svg>
