<svg width="61" height="123" viewBox="0 0 61 123" fill="none" xmlns="http://www.w3.org/2000/svg">
<path d="M54.1099 81.06C54.1099 81.06 50.6499 84.08 47.3099 86.84C45.1299 88.63 43.01 90.31 41.94 90.97C39.94 92.19 36.0499 91.07 37.1199 87.95C37.7399 86.14 39.6699 85.04 39.6699 85.04C36.2899 83.63 37.12 81.47 40.07 80.76C36.71 80.51 35.86 78.59 37.46 77.61C35.99 77.55 34.0599 76.51 35.4799 74.7C36.9899 72.79 35.5199 72.38 34.7799 70.31C34.5599 69.71 34.4099 68.97 34.4099 68.02C34.3999 63.1 42.64 61.23 42.64 61.23H49.9999C49.9999 61.23 45.35 66.75 55.94 76.15C57.63 77.63 55.8299 79.59 54.1099 81.06Z" fill="#006970"/>
<path d="M54.1099 81.06C54.1099 81.06 50.6499 84.08 47.3099 86.84C46.0499 87.02 44.6699 86.91 43.6199 86.47C40.2199 85.05 44.6099 82.48 44.6099 82.48C44.6099 82.48 42.41 81.89 42.2 80.77C41.9 79.05 43.3999 78.04 43.3999 78.04C43.3999 78.04 40.2599 77.9 39.5299 76.64C38.6199 75.09 39.8499 74.33 39.8499 74.33C37.2899 73.11 35.7299 71.66 34.7799 70.31C34.5599 69.71 34.4099 68.97 34.4099 68.02C34.3999 63.1 42.64 61.23 42.64 61.23H49.9999C49.9999 61.23 45.35 66.75 55.94 76.15C57.63 77.63 55.8299 79.59 54.1099 81.06Z" fill="#00A7B3"/>
<path d="M54.1099 41.3799C54.1099 41.3799 50.6499 38.3599 47.3099 35.5999C45.1299 33.8099 43.01 32.1299 41.94 31.4699C39.94 30.2499 36.0499 31.3699 37.1199 34.4899C37.7399 36.2999 39.6699 37.3999 39.6699 37.3999C36.2899 38.8099 37.12 40.9699 40.07 41.6799C36.71 41.9299 35.86 43.8499 37.46 44.8299C35.99 44.8899 34.0599 45.9299 35.4799 47.7399C36.9899 49.6499 35.5199 50.0599 34.7799 52.1299C34.5599 52.7299 34.4099 53.4699 34.4099 54.4199C34.3999 59.3399 42.64 61.2099 42.64 61.2099H49.9999C49.9999 61.2099 45.35 55.6899 55.94 46.2899C57.63 44.8099 55.8299 42.8499 54.1099 41.3799Z" fill="#006970"/>
<path d="M54.1099 41.38C54.1099 41.38 50.6499 38.36 47.3099 35.6C46.0499 35.42 44.6699 35.53 43.6199 35.97C40.2199 37.39 44.6099 39.96 44.6099 39.96C44.6099 39.96 42.41 40.55 42.2 41.67C41.9 43.39 43.3999 44.4 43.3999 44.4C43.3999 44.4 40.2599 44.54 39.5299 45.8C38.6199 47.35 39.8499 48.11 39.8499 48.11C37.2899 49.33 35.7299 50.78 34.7799 52.13C34.5599 52.73 34.4099 53.47 34.4099 54.42C34.3999 59.34 42.64 61.21 42.64 61.21H49.9999C49.9999 61.21 45.35 55.69 55.94 46.29C57.63 44.81 55.8299 42.85 54.1099 41.38Z" fill="#00A7B3"/>
<path d="M60.3999 60.6099L57.0299 59.6299V61.2099V62.7899L60.3999 61.8099C60.9999 61.6399 60.9999 60.7899 60.3999 60.6099Z" fill="#F7931E"/>
<path d="M58.14 61.2099C58.14 64.4899 51.2899 67.1499 42.8399 67.1499C40.6399 67.1499 38.5499 66.9599 36.6599 66.6399C35.2199 66.5299 33.62 66.2799 31.83 65.8499C29.01 65.1799 26.6499 64.6199 24.8999 64.2099C22.8199 63.7299 20.6599 63.8499 18.6499 64.5399C17.4299 64.9599 15.9799 65.3999 14.6099 65.6899C12.6499 66.1099 10.85 66.1999 10.14 65.4499C9.06995 64.2999 10.3699 62.9899 10.3699 62.9899C10.3699 62.9899 8.38994 62.8199 8.30994 61.2199C8.38994 59.6099 10.3699 59.4399 10.3699 59.4399C10.3699 59.4399 9.06995 58.1299 10.14 56.9899C10.85 56.2299 12.6399 56.3299 14.5999 56.7399C15.9699 57.0299 17.4299 57.4799 18.6499 57.8899C20.6599 58.5799 22.8199 58.6999 24.8999 58.2099C26.6399 57.8099 29.01 57.2499 31.83 56.5699C33.61 56.1499 35.2199 55.8999 36.6599 55.7899C38.5499 55.4599 40.6399 55.2799 42.8399 55.2799C51.2899 55.2799 58.14 57.9399 58.14 61.2099Z" fill="#00A7B3"/>
<path d="M14.6099 65.6899C12.6499 66.1099 10.85 66.1999 10.14 65.4499C9.06995 64.2999 10.3699 62.9899 10.3699 62.9899C10.3699 62.9899 8.38994 62.8199 8.30994 61.2199C8.38994 59.6099 10.3699 59.4399 10.3699 59.4399C10.3699 59.4399 9.06995 58.1299 10.14 56.9899C10.85 56.2299 12.6399 56.3299 14.5999 56.7399C13.8299 57.7799 13.0299 59.3099 13.0299 61.2099C13.0299 63.1099 13.8399 64.6499 14.6099 65.6899Z" fill="#006970"/>
</svg>
