<svg width="61" height="123" viewBox="0 0 61 123" fill="none" xmlns="http://www.w3.org/2000/svg">
<path d="M54.0001 75.12C54.0001 75.12 50.5401 77.24 47.2001 79.17C45.0201 80.42 42.9001 81.6 41.8301 82.06C39.8301 82.92 35.9401 82.13 37.0101 79.95C37.6301 78.68 39.5601 77.91 39.5601 77.91C36.1801 76.92 37.0101 75.41 39.9601 74.92C36.6001 74.75 35.75 73.4 37.35 72.72C35.88 72.68 33.9501 71.95 35.3701 70.68C36.8801 69.34 35.4101 69.05 34.6701 67.61C34.4501 67.19 34.3001 66.67 34.3001 66C34.2901 62.55 42.53 61.24 42.53 61.24H49.8901C49.8901 61.24 45.2401 65.11 55.8301 71.69C57.5201 72.71 55.7301 74.09 54.0001 75.12Z" fill="#006970"/>
<path d="M54.0001 75.12C54.0001 75.12 50.5401 77.24 47.2001 79.17C45.9401 79.29 44.5601 79.22 43.5101 78.91C40.1101 77.92 44.5001 76.11 44.5001 76.11C44.5001 76.11 42.3 75.69 42.09 74.91C41.79 73.71 43.29 73 43.29 73C43.29 73 40.1501 72.9 39.4201 72.02C38.5101 70.94 39.7401 70.4 39.7401 70.4C37.1801 69.54 35.6201 68.53 34.6701 67.59C34.4501 67.17 34.3001 66.65 34.3001 65.98C34.2901 62.53 42.53 61.22 42.53 61.22H49.8901C49.8901 61.22 45.2401 65.09 55.8301 71.67C57.5201 72.71 55.7301 74.09 54.0001 75.12Z" fill="#00A7B3"/>
<path d="M54.0001 47.32C54.0001 47.32 50.5401 45.2 47.2001 43.27C45.0201 42.02 42.9001 40.84 41.8301 40.38C39.8301 39.52 35.9401 40.31 37.0101 42.49C37.6301 43.76 39.5601 44.53 39.5601 44.53C36.1801 45.52 37.0101 47.03 39.9601 47.52C36.6001 47.69 35.75 49.04 37.35 49.72C35.88 49.76 33.9501 50.49 35.3701 51.76C36.8801 53.1 35.4101 53.39 34.6701 54.83C34.4501 55.25 34.3001 55.77 34.3001 56.44C34.2901 59.89 42.53 61.2 42.53 61.2H49.8901C49.8901 61.2 45.2401 57.33 55.8301 50.75C57.5201 49.73 55.7301 48.35 54.0001 47.32Z" fill="#006970"/>
<path d="M54.0001 47.32C54.0001 47.32 50.5401 45.2 47.2001 43.27C45.9401 43.15 44.5601 43.22 43.5101 43.53C40.1101 44.52 44.5001 46.33 44.5001 46.33C44.5001 46.33 42.3 46.75 42.09 47.53C41.79 48.73 43.29 49.44 43.29 49.44C43.29 49.44 40.1501 49.54 39.4201 50.42C38.5101 51.5 39.7401 52.04 39.7401 52.04C37.1801 52.9 35.6201 53.91 34.6701 54.85C34.4501 55.27 34.3001 55.79 34.3001 56.46C34.2901 59.91 42.53 61.22 42.53 61.22H49.8901C49.8901 61.22 45.2401 57.35 55.8301 50.77C57.5201 49.73 55.7301 48.35 54.0001 47.32Z" fill="#00A7B3"/>
<path d="M60.29 60.61L56.92 59.63V61.21V62.79L60.29 61.81C60.9 61.64 60.9 60.79 60.29 60.61Z" fill="#F7931E"/>
<path d="M58.03 61.21C58.03 64.49 51.18 67.15 42.73 67.15C40.53 67.15 38.44 66.96 36.55 66.64C35.11 66.53 33.51 66.28 31.72 65.85C28.9 65.18 26.54 64.62 24.79 64.21C22.71 63.73 20.55 63.85 18.54 64.54C17.32 64.96 15.8701 65.4 14.5001 65.69C12.5401 66.11 10.74 66.2 10.03 65.45C8.96003 64.3 10.2601 62.99 10.2601 62.99C10.2601 62.99 8.28007 62.82 8.20007 61.22C8.28007 59.61 10.2601 59.44 10.2601 59.44C10.2601 59.44 8.96003 58.13 10.03 56.99C10.74 56.23 12.5301 56.33 14.4901 56.74C15.8601 57.03 17.32 57.48 18.54 57.89C20.55 58.58 22.71 58.7 24.79 58.21C26.53 57.81 28.9 57.25 31.72 56.57C33.5 56.15 35.11 55.9 36.55 55.79C38.44 55.46 40.53 55.28 42.73 55.28C51.18 55.28 58.03 57.94 58.03 61.21Z" fill="#00A7B3"/>
<path d="M14.5001 65.69C12.5401 66.11 10.74 66.2 10.03 65.45C8.96003 64.3 10.2601 62.99 10.2601 62.99C10.2601 62.99 8.28007 62.82 8.20007 61.22C8.28007 59.61 10.2601 59.44 10.2601 59.44C10.2601 59.44 8.96003 58.13 10.03 56.99C10.74 56.23 12.5301 56.33 14.4901 56.74C13.7201 57.78 12.92 59.31 12.92 61.21C12.92 63.11 13.7301 64.65 14.5001 65.69Z" fill="#006970"/>
</svg>
