<svg width="61" height="123" viewBox="0 0 61 123" fill="none" xmlns="http://www.w3.org/2000/svg">
<path d="M53.89 81.06C53.89 81.06 50.43 84.08 47.09 86.84C44.91 88.63 42.79 90.31 41.72 90.97C39.72 92.19 35.83 91.07 36.9 87.95C37.52 86.14 39.45 85.04 39.45 85.04C36.07 83.63 36.9 81.47 39.85 80.76C36.49 80.51 35.64 78.59 37.24 77.61C35.77 77.55 33.84 76.51 35.26 74.7C36.77 72.79 35.3 72.38 34.56 70.31C34.34 69.71 34.19 68.97 34.19 68.02C34.18 63.1 42.42 61.23 42.42 61.23H49.78C49.78 61.23 45.13 66.75 55.72 76.15C57.41 77.63 55.62 79.59 53.89 81.06Z" fill="#006970"/>
<path d="M53.89 81.06C53.89 81.06 50.43 84.08 47.09 86.84C45.83 87.02 44.45 86.91 43.4 86.47C40 85.05 44.39 82.48 44.39 82.48C44.39 82.48 42.19 81.89 41.98 80.77C41.68 79.05 43.18 78.04 43.18 78.04C43.18 78.04 40.04 77.9 39.31 76.64C38.4 75.09 39.63 74.33 39.63 74.33C37.07 73.11 35.51 71.66 34.56 70.31C34.34 69.71 34.19 68.97 34.19 68.02C34.18 63.1 42.42 61.23 42.42 61.23H49.78C49.78 61.23 45.13 66.75 55.72 76.15C57.41 77.63 55.62 79.59 53.89 81.06Z" fill="#00A7B3"/>
<path d="M53.89 41.3799C53.89 41.3799 50.43 38.3599 47.09 35.5999C44.91 33.8099 42.79 32.1299 41.72 31.4699C39.72 30.2499 35.83 31.3699 36.9 34.4899C37.52 36.2999 39.45 37.3999 39.45 37.3999C36.07 38.8099 36.9 40.9699 39.85 41.6799C36.49 41.9299 35.64 43.8499 37.24 44.8299C35.77 44.8899 33.84 45.9299 35.26 47.7399C36.77 49.6499 35.3 50.0599 34.56 52.1299C34.34 52.7299 34.19 53.4699 34.19 54.4199C34.18 59.3399 42.42 61.2099 42.42 61.2099H49.78C49.78 61.2099 45.13 55.6899 55.72 46.2899C57.41 44.8099 55.62 42.8499 53.89 41.3799Z" fill="#006970"/>
<path d="M53.89 41.38C53.89 41.38 50.43 38.36 47.09 35.6C45.83 35.42 44.45 35.53 43.4 35.97C40 37.39 44.39 39.96 44.39 39.96C44.39 39.96 42.19 40.55 41.98 41.67C41.68 43.39 43.18 44.4 43.18 44.4C43.18 44.4 40.04 44.54 39.31 45.8C38.4 47.35 39.63 48.11 39.63 48.11C37.07 49.33 35.51 50.78 34.56 52.13C34.34 52.73 34.19 53.47 34.19 54.42C34.18 59.34 42.42 61.21 42.42 61.21H49.78C49.78 61.21 45.13 55.69 55.72 46.29C57.41 44.81 55.62 42.85 53.89 41.38Z" fill="#00A7B3"/>
<path d="M60.18 60.6099L56.81 59.6299V61.2099V62.7899L60.18 61.8099C60.79 61.6399 60.79 60.7899 60.18 60.6099Z" fill="#F7931E"/>
<path d="M57.92 61.2099C57.92 64.4899 51.07 67.1499 42.62 67.1499C40.42 67.1499 38.33 66.9599 36.44 66.6399C35 66.5299 33.4 66.2799 31.61 65.8499C28.79 65.1799 26.43 64.6199 24.68 64.2099C22.6 63.7299 20.44 63.8499 18.43 64.5399C17.21 64.9599 15.76 65.3999 14.39 65.6899C12.43 66.1099 10.63 66.1999 9.91998 65.4499C8.84998 64.2999 10.15 62.9899 10.15 62.9899C10.15 62.9899 8.16997 62.8199 8.08997 61.2199C8.16997 59.6099 10.15 59.4399 10.15 59.4399C10.15 59.4399 8.84998 58.1299 9.91998 56.9899C10.63 56.2299 12.42 56.3299 14.38 56.7399C15.75 57.0299 17.21 57.4799 18.43 57.8899C20.44 58.5799 22.6 58.6999 24.68 58.2099C26.42 57.8099 28.79 57.2499 31.61 56.5699C33.39 56.1499 35 55.8999 36.44 55.7899C38.33 55.4599 40.42 55.2799 42.62 55.2799C51.07 55.2799 57.92 57.9399 57.92 61.2099Z" fill="#00A7B3"/>
<path d="M14.39 65.6899C12.43 66.1099 10.63 66.1999 9.91998 65.4499C8.84998 64.2999 10.15 62.9899 10.15 62.9899C10.15 62.9899 8.16997 62.8199 8.08997 61.2199C8.16997 59.6099 10.15 59.4399 10.15 59.4399C10.15 59.4399 8.84998 58.1299 9.91998 56.9899C10.63 56.2299 12.42 56.3299 14.38 56.7399C13.61 57.7799 12.81 59.3099 12.81 61.2099C12.81 63.1099 13.62 64.6499 14.39 65.6899Z" fill="#006970"/>
</svg>
