<svg width="61" height="123" viewBox="0 0 61 123" fill="none" xmlns="http://www.w3.org/2000/svg">
<path d="M53.79 88.33C53.79 88.33 50.3301 92.46 46.9901 96.22C44.8101 98.67 42.6899 100.96 41.6199 101.86C39.6199 103.53 35.73 102 36.8 97.73C37.42 95.25 39.35 93.76 39.35 93.76C35.97 91.83 36.7999 88.88 39.7499 87.92C36.3899 87.58 35.54 84.96 37.15 83.62C35.68 83.53 33.75 82.11 35.17 79.64C36.68 77.03 35.21 76.47 34.47 73.64C34.25 72.82 34.1 71.81 34.1 70.5C34.09 63.77 42.33 61.21 42.33 61.21H49.69C49.69 61.21 45.04 68.76 55.63 81.61C57.3 83.64 55.51 86.33 53.79 88.33Z" fill="#006970"/>
<path d="M53.79 88.33C53.79 88.33 50.3301 92.46 46.9901 96.22C45.7301 96.46 44.35 96.31 43.3 95.71C39.9 93.77 44.29 90.26 44.29 90.26C44.29 90.26 42.09 89.45 41.88 87.92C41.58 85.58 43.08 84.19 43.08 84.19C43.08 84.19 39.94 84 39.21 82.28C38.3 80.17 39.53 79.13 39.53 79.13C36.97 77.46 35.41 75.48 34.46 73.64C34.24 72.82 34.09 71.81 34.09 70.5C34.08 63.77 42.32 61.21 42.32 61.21H49.68C49.68 61.21 45.0299 68.76 55.6199 81.61C57.2999 83.64 55.51 86.33 53.79 88.33Z" fill="#00A7B3"/>
<path d="M53.79 34.11C53.79 34.11 50.3301 29.98 46.9901 26.22C44.8101 23.77 42.6899 21.48 41.6199 20.58C39.6199 18.91 35.73 20.44 36.8 24.71C37.42 27.19 39.35 28.68 39.35 28.68C35.97 30.61 36.7999 33.56 39.7499 34.52C36.3899 34.86 35.54 37.48 37.15 38.82C35.68 38.91 33.75 40.33 35.17 42.8C36.68 45.41 35.21 45.97 34.47 48.8C34.25 49.62 34.1 50.63 34.1 51.94C34.09 58.67 42.33 61.23 42.33 61.23H49.69C49.69 61.23 45.04 53.68 55.63 40.83C57.3 38.8 55.51 36.12 53.79 34.11Z" fill="#006970"/>
<path d="M53.79 34.11C53.79 34.11 50.3301 29.98 46.9901 26.22C45.7301 25.98 44.35 26.13 43.3 26.73C39.9 28.67 44.29 32.18 44.29 32.18C44.29 32.18 42.09 32.99 41.88 34.52C41.58 36.86 43.08 38.25 43.08 38.25C43.08 38.25 39.94 38.44 39.21 40.16C38.3 42.27 39.53 43.31 39.53 43.31C36.97 44.98 35.41 46.96 34.46 48.8C34.24 49.62 34.09 50.63 34.09 51.94C34.08 58.67 42.32 61.23 42.32 61.23H49.68C49.68 61.23 45.0299 53.68 55.6199 40.83C57.2999 38.8 55.51 36.12 53.79 34.11Z" fill="#00A7B3"/>
<path d="M60.08 60.61L56.71 59.63V61.21V62.79L60.08 61.81C60.68 61.64 60.68 60.79 60.08 60.61Z" fill="#F7931E"/>
<path d="M57.81 61.21C57.81 64.49 50.9599 67.15 42.5099 67.15C40.3099 67.15 38.22 66.96 36.33 66.64C34.89 66.53 33.2899 66.28 31.4999 65.85C28.6799 65.18 26.32 64.62 24.57 64.21C22.49 63.73 20.33 63.85 18.32 64.54C17.1 64.96 15.65 65.4 14.28 65.69C12.32 66.11 10.52 66.2 9.81 65.45C8.74 64.3 10.04 62.99 10.04 62.99C10.04 62.99 8.06004 62.82 7.98004 61.22C8.06004 59.61 10.04 59.44 10.04 59.44C10.04 59.44 8.74 58.13 9.81 56.99C10.52 56.23 12.31 56.33 14.27 56.74C15.64 57.03 17.1 57.48 18.32 57.89C20.33 58.58 22.49 58.7 24.57 58.21C26.31 57.81 28.6799 57.25 31.4999 56.57C33.2799 56.15 34.89 55.9 36.33 55.79C38.22 55.46 40.3099 55.28 42.5099 55.28C50.9599 55.28 57.81 57.94 57.81 61.21Z" fill="#00A7B3"/>
<path d="M14.28 65.69C12.32 66.11 10.52 66.2 9.81 65.45C8.74 64.3 10.04 62.99 10.04 62.99C10.04 62.99 8.06004 62.82 7.98004 61.22C8.06004 59.61 10.04 59.44 10.04 59.44C10.04 59.44 8.74 58.13 9.81 56.99C10.52 56.23 12.31 56.33 14.27 56.74C13.5 57.78 12.7 59.31 12.7 61.21C12.7 63.11 13.51 64.65 14.28 65.69Z" fill="#006970"/>
</svg>
