<svg width="61" height="123" viewBox="0 0 61 123" fill="none" xmlns="http://www.w3.org/2000/svg">
<path d="M53.6801 94.0101C53.6801 94.0101 50.22 99.0001 46.88 103.56C44.7 106.52 42.58 109.29 41.51 110.38C39.51 112.4 35.6201 110.55 36.6901 105.39C37.3101 102.39 39.2401 100.58 39.2401 100.58C35.8601 98.2501 36.69 94.6801 39.64 93.5101C36.28 93.1001 35.43 89.9301 37.04 88.3101C35.57 88.2101 33.6401 86.4801 35.0601 83.4901C36.5701 80.3301 35.1001 79.6501 34.3601 76.2401C34.1401 75.2501 33.9901 74.0301 33.9901 72.4501C33.9801 64.3101 42.2201 61.2201 42.2201 61.2201H49.5801C49.5801 61.2201 44.93 70.3501 55.52 85.8901C57.2 88.3401 55.4001 91.5801 53.6801 94.0101Z" fill="#006970"/>
<path d="M53.6801 94.0101C53.6801 94.0101 50.22 99.0001 46.88 103.56C45.62 103.85 44.2401 103.67 43.1901 102.94C39.7901 100.6 44.1801 96.3401 44.1801 96.3401C44.1801 96.3401 41.98 95.3601 41.77 93.5101C41.47 90.6801 42.9701 89.0001 42.9701 89.0001C42.9701 89.0001 39.8301 88.7701 39.1001 86.6901C38.1901 84.1301 39.4201 82.8801 39.4201 82.8801C36.8601 80.8601 35.3001 78.4701 34.3501 76.2401C34.1301 75.2501 33.9801 74.0301 33.9801 72.4501C33.9701 64.3101 42.2101 61.2201 42.2101 61.2201H49.5701C49.5701 61.2201 44.92 70.3501 55.51 85.8901C57.2 88.3401 55.4001 91.5801 53.6801 94.0101Z" fill="#00A7B3"/>
<path d="M53.6801 28.43C53.6801 28.43 50.22 23.44 46.88 18.88C44.7 15.92 42.58 13.1501 41.51 12.0601C39.51 10.0401 35.6201 11.8901 36.6901 17.0501C37.3101 20.0501 39.2401 21.8601 39.2401 21.8601C35.8601 24.1901 36.69 27.76 39.64 28.93C36.28 29.34 35.43 32.51 37.04 34.13C35.57 34.23 33.6401 35.9601 35.0601 38.9501C36.5701 42.1101 35.1001 42.7901 34.3601 46.2001C34.1401 47.1901 33.9901 48.41 33.9901 49.99C33.9801 58.13 42.2201 61.2201 42.2201 61.2201H49.5801C49.5801 61.2201 44.93 52.0901 55.52 36.5501C57.2 34.1001 55.4001 30.86 53.6801 28.43Z" fill="#006970"/>
<path d="M53.6801 28.43C53.6801 28.43 50.22 23.44 46.88 18.88C45.62 18.59 44.2401 18.77 43.1901 19.5C39.7901 21.84 44.1801 26.1 44.1801 26.1C44.1801 26.1 41.98 27.08 41.77 28.93C41.47 31.76 42.9701 33.44 42.9701 33.44C42.9701 33.44 39.8301 33.67 39.1001 35.75C38.1901 38.31 39.4201 39.56 39.4201 39.56C36.8601 41.58 35.3001 43.97 34.3501 46.2C34.1301 47.19 33.9801 48.41 33.9801 49.99C33.9701 58.13 42.2101 61.22 42.2101 61.22H49.5701C49.5701 61.22 44.92 52.09 55.51 36.55C57.2 34.1 55.4001 30.86 53.6801 28.43Z" fill="#00A7B3"/>
<path d="M59.9701 60.61L56.6001 59.63V61.21V62.79L59.9701 61.81C60.5701 61.64 60.5701 60.79 59.9701 60.61Z" fill="#F7931E"/>
<path d="M57.7101 61.21C57.7101 64.49 50.86 67.15 42.41 67.15C40.21 67.15 38.1201 66.96 36.2301 66.64C34.7901 66.53 33.19 66.28 31.4 65.85C28.58 65.18 26.2201 64.62 24.4701 64.21C22.3901 63.73 20.2301 63.85 18.2201 64.54C17.0001 64.96 15.5501 65.4 14.1801 65.69C12.2201 66.11 10.4201 66.2 9.71008 65.45C8.64008 64.3 9.94006 62.99 9.94006 62.99C9.94006 62.99 7.96 62.82 7.88 61.22C7.96 59.61 9.94006 59.44 9.94006 59.44C9.94006 59.44 8.64008 58.13 9.71008 56.99C10.4201 56.23 12.21 56.33 14.17 56.74C15.54 57.03 17.0001 57.48 18.2201 57.89C20.2301 58.58 22.3901 58.7 24.4701 58.21C26.2101 57.81 28.58 57.25 31.4 56.57C33.18 56.15 34.7901 55.9 36.2301 55.79C38.1201 55.46 40.21 55.28 42.41 55.28C50.86 55.28 57.7101 57.94 57.7101 61.21Z" fill="#00A7B3"/>
<path d="M14.1801 65.69C12.2201 66.11 10.4201 66.2 9.71008 65.45C8.64008 64.3 9.94006 62.99 9.94006 62.99C9.94006 62.99 7.96 62.82 7.88 61.22C7.96 59.61 9.94006 59.44 9.94006 59.44C9.94006 59.44 8.64008 58.13 9.71008 56.99C10.4201 56.23 12.21 56.33 14.17 56.74C13.4 57.78 12.6001 59.31 12.6001 61.21C12.6001 63.11 13.4101 64.65 14.1801 65.69Z" fill="#006970"/>
</svg>
