<svg width="202" height="164" viewBox="0 0 202 164" fill="none" xmlns="http://www.w3.org/2000/svg">
<path d="M137.5 134.79C135.15 134.79 133.24 132.88 133.24 130.53V33.8498C133.24 31.4998 135.15 29.5898 137.5 29.5898H154.32C156.67 29.5898 158.58 31.4998 158.58 33.8498V130.53C158.58 132.88 156.67 134.79 154.32 134.79H137.5Z" fill="#7A542D"/>
<path d="M154.32 30.8696C155.97 30.8696 157.3 32.2095 157.3 33.8495V130.53C157.3 132.18 155.96 133.51 154.32 133.51H137.5C135.85 133.51 134.52 132.17 134.52 130.53V33.8495C134.52 32.1995 135.86 30.8696 137.5 30.8696H154.32ZM154.32 28.3096H137.5C134.44 28.3096 131.96 30.7895 131.96 33.8495V130.53C131.96 133.59 134.44 136.07 137.5 136.07H154.32C157.38 136.07 159.86 133.59 159.86 130.53V33.8495C159.86 30.7895 157.38 28.3096 154.32 28.3096Z" fill="#634425"/>
<path d="M145.91 134.11C147.859 134.11 149.44 132.529 149.44 130.58C149.44 128.63 147.859 127.05 145.91 127.05C143.96 127.05 142.38 128.63 142.38 130.58C142.38 132.529 143.96 134.11 145.91 134.11Z" fill="#A67C52"/>
<path d="M145.91 37.2997C147.859 37.2997 149.44 35.7193 149.44 33.7698C149.44 31.8202 147.859 30.2397 145.91 30.2397C143.96 30.2397 142.38 31.8202 142.38 33.7698C142.38 35.7193 143.96 37.2997 145.91 37.2997Z" fill="#A67C52"/>
<path d="M145.9 35.7697C144.76 35.7697 143.77 34.9197 143.62 33.7597L140.69 10.4197C140.53 9.15966 141.43 8.00965 142.69 7.84965C143.95 7.68965 145.1 8.57965 145.26 9.84965L148.19 33.1897C148.35 34.4497 147.45 35.5997 146.19 35.7597C146.1 35.7597 146 35.7697 145.9 35.7697Z" fill="#4A3A2B"/>
<path d="M142.98 156.56C142.88 156.56 142.79 156.55 142.69 156.54C141.43 156.38 140.54 155.23 140.69 153.97L143.62 130.63C143.78 129.37 144.93 128.48 146.19 128.63C147.45 128.79 148.34 129.94 148.19 131.2L145.26 154.54C145.12 155.71 144.13 156.56 142.98 156.56Z" fill="#4A3A2B"/>
<path d="M170.81 134.79C168.46 134.79 166.55 132.88 166.55 130.53V33.8498C166.55 31.4998 168.46 29.5898 170.81 29.5898H193.21C195.56 29.5898 197.47 31.4998 197.47 33.8498V130.53C197.47 132.88 195.56 134.79 193.21 134.79H170.81Z" fill="#7A542D"/>
<path d="M193.21 30.8701C194.86 30.8701 196.19 32.21 196.19 33.85V130.53C196.19 132.18 194.85 133.51 193.21 133.51H170.81C169.16 133.51 167.83 132.17 167.83 130.53V33.85C167.83 32.2 169.17 30.8701 170.81 30.8701H193.21ZM193.21 28.3101H170.81C167.75 28.3101 165.27 30.79 165.27 33.85V130.53C165.27 133.59 167.75 136.07 170.81 136.07H193.21C196.27 136.07 198.75 133.59 198.75 130.53V33.85C198.75 30.79 196.27 28.3101 193.21 28.3101Z" fill="#634425"/>
<path d="M182.01 134.11C183.96 134.11 185.54 132.53 185.54 130.58C185.54 128.631 183.96 127.05 182.01 127.05C180.06 127.05 178.48 128.631 178.48 130.58C178.48 132.53 180.06 134.11 182.01 134.11Z" fill="#A67C52"/>
<path d="M182.01 37.3002C183.96 37.3002 185.54 35.7198 185.54 33.7703C185.54 31.8207 183.96 30.2402 182.01 30.2402C180.06 30.2402 178.48 31.8207 178.48 33.7703C178.48 35.7198 180.06 37.3002 182.01 37.3002Z" fill="#A67C52"/>
<path d="M182.01 35.7702C180.83 35.7702 179.83 34.8701 179.72 33.6701L177.79 11.8602C177.68 10.6002 178.61 9.48016 179.88 9.37016C181.14 9.26016 182.26 10.1902 182.37 11.4602L184.3 33.2702C184.41 34.5302 183.48 35.6502 182.21 35.7602C182.15 35.7602 182.08 35.7702 182.01 35.7702Z" fill="#4A3A2B"/>
<path d="M180.08 155.02C180.01 155.02 179.94 155.02 179.87 155.01C178.61 154.9 177.67 153.78 177.78 152.52L179.71 130.71C179.82 129.45 180.94 128.52 182.2 128.62C183.46 128.73 184.4 129.85 184.29 131.11L182.36 152.92C182.26 154.12 181.26 155.02 180.08 155.02Z" fill="#4A3A2B"/>
<path d="M122.76 151.98L123.16 158.57C123.71 158.54 153.54 156.76 201.48 155.12V148.52C153.3 150.16 123.31 151.94 122.76 151.98Z" fill="#8F704D"/>
<path d="M123.15 5.81006L122.75 12.4001C123.3 12.4301 153.29 14.22 201.47 15.86V9.26007C153.53 7.63007 123.7 5.85006 123.15 5.81006Z" fill="#8F704D"/>
<path d="M123.2 15.7902C119.39 15.7902 116.28 12.6802 116.28 8.87018C116.28 5.05018 119.38 1.9502 123.2 1.9502C124.38 1.9502 125.54 2.25019 126.56 2.82019C128.55 3.92019 129.87 5.93019 130.09 8.19019C130.11 8.43019 130.12 8.66018 130.12 8.87018C130.12 9.49018 130.04 10.1002 129.88 10.6802C129.07 13.6902 126.32 15.7902 123.2 15.7902Z" fill="#75512B"/>
<path d="M123.2 3.21991C124.16 3.21991 125.11 3.45993 125.95 3.92993C127.57 4.82993 128.64 6.45993 128.82 8.29993C128.84 8.49993 128.85 8.68992 128.85 8.85992C128.85 9.36992 128.78 9.85997 128.65 10.34C127.99 12.79 125.75 14.4999 123.2 14.4999C120.09 14.4999 117.56 11.9699 117.56 8.84991C117.56 5.75991 120.09 3.21991 123.2 3.21991ZM123.2 0.669922C118.67 0.669922 115.01 4.33993 115.01 8.86993C115.01 13.3999 118.68 17.0699 123.2 17.0699C126.99 17.0699 130.17 14.51 131.11 11.02C131.3 10.34 131.4 9.61993 131.4 8.86993C131.4 8.59993 131.38 8.32994 131.36 8.05994C131.09 5.31994 129.48 2.96995 127.19 1.69995C126 1.03995 124.64 0.669922 123.2 0.669922Z" fill="#4A3A2B"/>
<path d="M123.2 162.43C119.38 162.43 116.28 159.32 116.28 155.51C116.28 151.7 119.39 148.59 123.2 148.59C127.02 148.59 130.12 151.7 130.12 155.51C130.12 159.32 127.01 162.43 123.2 162.43Z" fill="#75512B"/>
<path d="M123.2 149.87C126.31 149.87 128.84 152.4 128.84 155.51C128.84 158.62 126.31 161.15 123.2 161.15C120.09 161.15 117.56 158.62 117.56 155.51C117.56 152.4 120.09 149.87 123.2 149.87ZM123.2 147.31C118.67 147.31 115 150.98 115 155.51C115 160.04 118.67 163.71 123.2 163.71C127.73 163.71 131.4 160.04 131.4 155.51C131.4 150.98 127.73 147.31 123.2 147.31Z" fill="#4A3A2B"/>
</svg>
