<svg width="107" height="147" viewBox="0 0 107 147" fill="none" xmlns="http://www.w3.org/2000/svg">
<path d="M8.31958 125.79C6.05958 125.79 4.22949 123.96 4.22949 121.7V24.6798C4.22949 22.4198 6.06958 20.5898 8.31958 20.5898H24.9294C27.1894 20.5898 29.0195 22.4298 29.0195 24.6798V121.7C29.0195 123.96 27.1794 125.79 24.9294 125.79H8.31958Z" fill="#7A542D"/>
<path d="M24.9297 21.8696C26.4797 21.8696 27.7397 23.1296 27.7397 24.6796V121.7C27.7397 123.25 26.4797 124.51 24.9297 124.51H8.31982C6.76982 124.51 5.50977 123.25 5.50977 121.7V24.6796C5.50977 23.1296 6.76982 21.8696 8.31982 21.8696H24.9297ZM24.9297 19.3096H8.31982C5.35982 19.3096 2.94971 21.7096 2.94971 24.6796V121.7C2.94971 124.66 5.34982 127.07 8.31982 127.07H24.9297C27.8897 127.07 30.2998 124.67 30.2998 121.7V24.6796C30.2998 21.7196 27.8997 19.3096 24.9297 19.3096Z" fill="#634425"/>
<path d="M16.6294 125.11C18.579 125.11 20.1594 123.529 20.1594 121.58C20.1594 119.63 18.579 118.05 16.6294 118.05C14.6798 118.05 13.0996 119.63 13.0996 121.58C13.0996 123.529 14.6798 125.11 16.6294 125.11Z" fill="#A67C52"/>
<path d="M16.6294 28.2997C18.579 28.2997 20.1594 26.7193 20.1594 24.7698C20.1594 22.8202 18.579 21.2397 16.6294 21.2397C14.6798 21.2397 13.0996 22.8202 13.0996 24.7698C13.0996 26.7193 14.6798 28.2997 16.6294 28.2997Z" fill="#A67C52"/>
<path d="M16.6294 26.7697C15.4294 26.7697 14.4196 25.8396 14.3396 24.6296L12.8994 4.03962C12.8094 2.76962 13.7695 1.66966 15.0295 1.58966C16.2995 1.50966 17.3895 2.45961 17.4795 3.71961L18.9194 24.3096C19.0094 25.5796 18.0495 26.6796 16.7895 26.7596C16.7295 26.7596 16.6794 26.7697 16.6294 26.7697Z" fill="#4A3A2B"/>
<path d="M15.1895 144.809C15.1395 144.809 15.0796 144.809 15.0296 144.799C13.7596 144.709 12.8095 143.609 12.8995 142.349L14.3396 121.759C14.4296 120.489 15.5196 119.539 16.7896 119.629C18.0596 119.719 19.0095 120.819 18.9195 122.079L17.4795 142.669C17.3995 143.879 16.3895 144.809 15.1895 144.809Z" fill="#4A3A2B"/>
<path d="M41.26 125.79C39 125.79 37.1699 123.96 37.1699 121.7V24.6798C37.1699 22.4198 39.01 20.5898 41.26 20.5898H57.8701C60.1301 20.5898 61.96 22.4298 61.96 24.6798V121.7C61.96 123.96 60.1201 125.79 57.8701 125.79H41.26Z" fill="#7A542D"/>
<path d="M57.8699 21.8696C59.4199 21.8696 60.6797 23.1296 60.6797 24.6796V121.7C60.6797 123.25 59.4199 124.51 57.8699 124.51H41.2598C39.7098 124.51 38.4497 123.25 38.4497 121.7V24.6796C38.4497 23.1296 39.7098 21.8696 41.2598 21.8696H57.8699ZM57.8699 19.3096H41.2598C38.2998 19.3096 35.8896 21.7096 35.8896 24.6796V121.7C35.8896 124.66 38.2898 127.07 41.2598 127.07H57.8699C60.8299 127.07 63.2397 124.67 63.2397 121.7V24.6796C63.2397 21.7196 60.8399 19.3096 57.8699 19.3096Z" fill="#634425"/>
<path d="M49.6599 125.11C51.6095 125.11 53.1899 123.529 53.1899 121.58C53.1899 119.63 51.6095 118.05 49.6599 118.05C47.7103 118.05 46.1299 119.63 46.1299 121.58C46.1299 123.529 47.7103 125.11 49.6599 125.11Z" fill="#A67C52"/>
<path d="M49.6599 28.2997C51.6095 28.2997 53.1899 26.7193 53.1899 24.7698C53.1899 22.8202 51.6095 21.2397 49.6599 21.2397C47.7103 21.2397 46.1299 22.8202 46.1299 24.7698C46.1299 26.7193 47.7103 28.2997 49.6599 28.2997Z" fill="#A67C52"/>
<path d="M49.66 26.7697C48.4 26.7697 47.3702 25.7597 47.3602 24.4897L47.17 5.51971C47.16 4.24971 48.18 3.20971 49.45 3.19971C49.46 3.19971 49.47 3.19971 49.47 3.19971C50.73 3.19971 51.7601 4.20968 51.7701 5.47968L51.96 24.4497C51.97 25.7197 50.95 26.7597 49.68 26.7697C49.67 26.7697 49.67 26.7697 49.66 26.7697Z" fill="#4A3A2B"/>
<path d="M49.47 143.18C49.46 143.18 49.45 143.18 49.45 143.18C48.18 143.17 47.16 142.13 47.17 140.86L47.3602 121.89C47.3702 120.63 48.4 119.61 49.66 119.61C49.67 119.61 49.68 119.61 49.68 119.61C50.95 119.62 51.97 120.66 51.96 121.93L51.7701 140.9C51.7601 142.17 50.73 143.18 49.47 143.18Z" fill="#4A3A2B"/>
<path d="M74.5798 125.79C72.2298 125.79 70.3198 123.88 70.3198 121.53V24.8498C70.3198 22.4998 72.2298 20.5898 74.5798 20.5898H96.9797C99.3297 20.5898 101.24 22.4998 101.24 24.8498V121.53C101.24 123.88 99.3297 125.79 96.9797 125.79H74.5798Z" fill="#7A542D"/>
<path d="M96.9897 21.8701C98.6397 21.8701 99.9697 23.21 99.9697 24.85V121.53C99.9697 123.18 98.6297 124.51 96.9897 124.51H74.5898C72.9398 124.51 71.6099 123.17 71.6099 121.53V24.85C71.6099 23.2 72.9498 21.8701 74.5898 21.8701H96.9897ZM96.9897 19.3101H74.5898C71.5298 19.3101 69.0498 21.79 69.0498 24.85V121.53C69.0498 124.59 71.5298 127.07 74.5898 127.07H96.9897C100.05 127.07 102.53 124.59 102.53 121.53V24.85C102.52 21.79 100.04 19.3101 96.9897 19.3101Z" fill="#634425"/>
<path d="M85.78 125.11C87.7296 125.11 89.3101 123.529 89.3101 121.58C89.3101 119.63 87.7296 118.05 85.78 118.05C83.8305 118.05 82.25 119.63 82.25 121.58C82.25 123.529 83.8305 125.11 85.78 125.11Z" fill="#A67C52"/>
<path d="M85.78 28.2997C87.7296 28.2997 89.3101 26.7193 89.3101 24.7698C89.3101 22.8202 87.7296 21.2397 85.78 21.2397C83.8305 21.2397 82.25 22.8202 82.25 24.7698C82.25 26.7193 83.8305 28.2997 85.78 28.2997Z" fill="#A67C52"/>
<path d="M85.7795 26.7699C84.5095 26.7699 83.4795 25.7398 83.4795 24.4698V5.90985C83.4795 4.63985 84.5095 3.60986 85.7795 3.60986C87.0495 3.60986 88.0796 4.63985 88.0796 5.90985V24.4698C88.0796 25.7398 87.0495 26.7699 85.7795 26.7699Z" fill="#4A3A2B"/>
<path d="M85.7795 142.77C84.5095 142.77 83.4795 141.74 83.4795 140.47V121.91C83.4795 120.64 84.5095 119.61 85.7795 119.61C87.0495 119.61 88.0796 120.64 88.0796 121.91V140.47C88.0796 141.74 87.0495 142.77 85.7795 142.77Z" fill="#4A3A2B"/>
<path d="M0.259766 139.51V146.11C29.6498 145.11 65.8498 144.15 106.27 143.69V137.09C65.8598 137.56 29.6698 138.51 0.259766 139.51Z" fill="#8F704D"/>
<path d="M0.259766 0.259766V6.85974C29.6698 7.85974 65.8698 8.80978 106.27 9.27979V2.67975C65.8398 2.21975 29.6398 1.26977 0.259766 0.259766Z" fill="#8F704D"/>
</svg>
