<svg width="105" height="142" viewBox="0 0 105 142" fill="none" xmlns="http://www.w3.org/2000/svg">
<path d="M7.37012 123.79C5.28012 123.79 3.58008 122.09 3.58008 120V22.3696C3.58008 20.2796 5.28012 18.5796 7.37012 18.5796H25.0801C27.1701 18.5796 28.8701 20.2796 28.8701 22.3696V120C28.8701 122.09 27.1701 123.79 25.0801 123.79H7.37012Z" fill="#7A542D"/>
<path d="M25.0801 19.8696C26.4601 19.8696 27.5901 20.9996 27.5901 22.3796V120.01C27.5901 121.39 26.4601 122.52 25.0801 122.52H7.37012C5.99012 122.52 4.86011 121.39 4.86011 120.01V22.3796C4.86011 20.9996 5.99012 19.8696 7.37012 19.8696H25.0801ZM25.0801 17.3096H7.37012C4.57012 17.3096 2.31006 19.5796 2.31006 22.3696V120C2.31006 122.8 4.58012 125.06 7.37012 125.06H25.0801C27.8801 125.06 30.1399 122.79 30.1399 120V22.3696C30.1499 19.5796 27.8801 17.3096 25.0801 17.3096Z" fill="#634425"/>
<path d="M16.2302 123.11C18.1798 123.11 19.7603 121.529 19.7603 119.58C19.7603 117.63 18.1798 116.05 16.2302 116.05C14.2807 116.05 12.7002 117.63 12.7002 119.58C12.7002 121.529 14.2807 123.11 16.2302 123.11Z" fill="#A67C52"/>
<path d="M16.2302 26.2997C18.1798 26.2997 19.7603 24.7193 19.7603 22.7698C19.7603 20.8202 18.1798 19.2397 16.2302 19.2397C14.2807 19.2397 12.7002 20.8202 12.7002 22.7698C12.7002 24.7193 14.2807 26.2997 16.2302 26.2997Z" fill="#A67C52"/>
<path d="M16.2297 24.7698C14.9597 24.7698 13.9297 23.7397 13.9297 22.4697V4.03973C13.9297 2.76973 14.9597 1.73975 16.2297 1.73975C17.4997 1.73975 18.5298 2.76973 18.5298 4.03973V22.4697C18.5298 23.7397 17.4997 24.7698 16.2297 24.7698Z" fill="#4A3A2B"/>
<path d="M16.2297 140.64C14.9597 140.64 13.9297 139.61 13.9297 138.34V119.91C13.9297 118.64 14.9597 117.61 16.2297 117.61C17.4997 117.61 18.5298 118.64 18.5298 119.91V138.34C18.5298 139.61 17.4997 140.64 16.2297 140.64Z" fill="#4A3A2B"/>
<path d="M97.8101 123.79C99.9001 123.79 101.6 122.09 101.6 120V22.3696C101.6 20.2796 99.9001 18.5796 97.8101 18.5796H80.1001C78.0101 18.5796 76.3101 20.2796 76.3101 22.3696V120C76.3101 122.09 78.0101 123.79 80.1001 123.79H97.8101Z" fill="#7A542D"/>
<path d="M80.1001 19.8696H97.8101C99.1901 19.8696 100.32 20.9996 100.32 22.3796V120.01C100.32 121.39 99.1901 122.52 97.8101 122.52H80.1001C78.7201 122.52 77.5901 121.39 77.5901 120.01V22.3796C77.5901 20.9896 78.7201 19.8696 80.1001 19.8696ZM80.1001 17.3096C77.3001 17.3096 75.04 19.5796 75.04 22.3696V120C75.04 122.8 77.3101 125.06 80.1001 125.06H97.8101C100.61 125.06 102.87 122.79 102.87 120V22.3696C102.87 19.5696 100.6 17.3096 97.8101 17.3096H80.1001Z" fill="#634425"/>
<path d="M88.9597 123.11C90.9093 123.11 92.4897 121.529 92.4897 119.58C92.4897 117.63 90.9093 116.05 88.9597 116.05C87.0102 116.05 85.4297 117.63 85.4297 119.58C85.4297 121.529 87.0102 123.11 88.9597 123.11Z" fill="#A67C52"/>
<path d="M88.9597 26.2997C90.9093 26.2997 92.4897 24.7193 92.4897 22.7698C92.4897 20.8202 90.9093 19.2397 88.9597 19.2397C87.0102 19.2397 85.4297 20.8202 85.4297 22.7698C85.4297 24.7193 87.0102 26.2997 88.9597 26.2997Z" fill="#A67C52"/>
<path d="M88.9602 24.7698C90.2302 24.7698 91.2603 23.7397 91.2603 22.4697V4.03973C91.2603 2.76973 90.2302 1.73975 88.9602 1.73975C87.6902 1.73975 86.6602 2.76973 86.6602 4.03973V22.4697C86.6602 23.7397 87.6902 24.7698 88.9602 24.7698Z" fill="#4A3A2B"/>
<path d="M88.9602 140.64C90.2302 140.64 91.2603 139.61 91.2603 138.34V119.91C91.2603 118.64 90.2302 117.61 88.9602 117.61C87.6902 117.61 86.6602 118.64 86.6602 119.91V138.34C86.6602 139.61 87.6902 140.64 88.9602 140.64Z" fill="#4A3A2B"/>
<path d="M41.74 123.79C39.39 123.79 37.48 121.88 37.48 119.53V22.8498C37.48 20.4998 39.39 18.5898 41.74 18.5898H64.1399C66.4899 18.5898 68.3999 20.4998 68.3999 22.8498V119.53C68.3999 121.88 66.4899 123.79 64.1399 123.79H41.74Z" fill="#7A542D"/>
<path d="M64.1499 19.8696C65.7999 19.8696 67.1299 21.2095 67.1299 22.8495V119.53C67.1299 121.18 65.7899 122.51 64.1499 122.51H41.75C40.1 122.51 38.77 121.17 38.77 119.53V22.8495C38.77 21.1995 40.11 19.8696 41.75 19.8696H64.1499ZM64.1499 17.3096H41.75C38.69 17.3096 36.21 19.7895 36.21 22.8495V119.53C36.21 122.59 38.69 125.07 41.75 125.07H64.1499C67.2099 125.07 69.6899 122.59 69.6899 119.53V22.8495C69.6899 19.7895 67.2099 17.3096 64.1499 17.3096Z" fill="#634425"/>
<path d="M52.95 123.11C54.8995 123.11 56.48 121.529 56.48 119.58C56.48 117.63 54.8995 116.05 52.95 116.05C51.0004 116.05 49.4199 117.63 49.4199 119.58C49.4199 121.529 51.0004 123.11 52.95 123.11Z" fill="#A67C52"/>
<path d="M52.95 26.2997C54.8995 26.2997 56.48 24.7193 56.48 22.7698C56.48 20.8202 54.8995 19.2397 52.95 19.2397C51.0004 19.2397 49.4199 20.8202 49.4199 22.7698C49.4199 24.7193 51.0004 26.2997 52.95 26.2997Z" fill="#A67C52"/>
<path d="M52.95 24.7698C51.68 24.7698 50.6499 23.7397 50.6499 22.4697V4.03973C50.6499 2.76973 51.68 1.73975 52.95 1.73975C54.22 1.73975 55.25 2.76973 55.25 4.03973V22.4697C55.24 23.7397 54.22 24.7698 52.95 24.7698Z" fill="#4A3A2B"/>
<path d="M52.95 140.64C51.68 140.64 50.6499 139.61 50.6499 138.34V119.91C50.6499 118.64 51.68 117.61 52.95 117.61C54.22 117.61 55.25 118.64 55.25 119.91V138.34C55.24 139.61 54.22 140.64 52.95 140.64Z" fill="#4A3A2B"/>
<path d="M52.02 134.79C34.39 134.79 17.2901 134.9 0.870117 135.09V141.69C17.2801 141.5 34.38 141.39 52.02 141.39C70.47 141.39 88.08 141.5 104.77 141.69V135.09C88.07 134.9 70.46 134.79 52.02 134.79Z" fill="#8F704D"/>
<path d="M52.02 0.989929C34.39 0.989929 17.2801 0.879941 0.870117 0.689941V7.28992C17.2801 7.47992 34.39 7.58997 52.02 7.58997C70.46 7.58997 88.07 7.47992 104.77 7.28992V0.689941C88.07 0.879941 70.46 0.989929 52.02 0.989929Z" fill="#8F704D"/>
</svg>
