<svg width="103" height="146" viewBox="0 0 103 146" fill="none" xmlns="http://www.w3.org/2000/svg">
<path d="M93.28 125.79C95.54 125.79 97.3701 123.96 97.3701 121.7V24.6798C97.3701 22.4198 95.53 20.5898 93.28 20.5898H76.6699C74.4099 20.5898 72.5801 22.4298 72.5801 24.6798V121.7C72.5801 123.96 74.4199 125.79 76.6699 125.79H93.28Z" fill="#7A542D"/>
<path d="M76.6697 21.8701H93.2798C94.8298 21.8701 96.0898 23.1301 96.0898 24.6801V121.7C96.0898 123.25 94.8298 124.51 93.2798 124.51H76.6697C75.1197 124.51 73.8599 123.25 73.8599 121.7V24.6801C73.8599 23.1301 75.1197 21.8701 76.6697 21.8701ZM76.6697 19.3101C73.7097 19.3101 71.2998 21.7101 71.2998 24.6801V121.7C71.2998 124.66 73.6997 127.07 76.6697 127.07H93.2798C96.2398 127.07 98.6497 124.67 98.6497 121.7V24.6801C98.6497 21.7201 96.2498 19.3101 93.2798 19.3101H76.6697Z" fill="#634425"/>
<path d="M84.9797 125.11C86.9293 125.11 88.5098 123.53 88.5098 121.58C88.5098 119.631 86.9293 118.05 84.9797 118.05C83.0302 118.05 81.4497 119.631 81.4497 121.58C81.4497 123.53 83.0302 125.11 84.9797 125.11Z" fill="#A67C52"/>
<path d="M84.9797 28.3002C86.9293 28.3002 88.5098 26.7198 88.5098 24.7703C88.5098 22.8207 86.9293 21.2402 84.9797 21.2402C83.0302 21.2402 81.4497 22.8207 81.4497 24.7703C81.4497 26.7198 83.0302 28.3002 84.9797 28.3002Z" fill="#A67C52"/>
<path d="M84.9795 26.7701C86.1795 26.7701 87.1895 25.8401 87.2695 24.6301L88.7095 4.0401C88.7995 2.7701 87.8396 1.67015 86.5796 1.59015C85.3096 1.51015 84.2194 2.4601 84.1294 3.7201L82.6894 24.3101C82.5994 25.5801 83.5596 26.6801 84.8196 26.7601C84.8696 26.7601 84.9295 26.7701 84.9795 26.7701Z" fill="#4A3A2B"/>
<path d="M86.4097 144.81C86.4597 144.81 86.5199 144.81 86.5699 144.8C87.8399 144.71 88.7897 143.61 88.6997 142.35L87.2598 121.76C87.1698 120.49 86.0799 119.54 84.8099 119.63C83.5399 119.72 82.5897 120.82 82.6797 122.08L84.1199 142.67C84.2099 143.88 85.2097 144.81 86.4097 144.81Z" fill="#4A3A2B"/>
<path d="M59.4197 125.79C61.6797 125.79 63.5098 123.96 63.5098 121.7V24.6798C63.5098 22.4198 61.6697 20.5898 59.4197 20.5898H42.8098C40.5498 20.5898 38.7197 22.4298 38.7197 24.6798V121.7C38.7197 123.96 40.5598 125.79 42.8098 125.79H59.4197Z" fill="#7A542D"/>
<path d="M42.8101 21.8701H59.4199C60.9699 21.8701 62.23 23.1301 62.23 24.6801V121.7C62.23 123.25 60.9699 124.51 59.4199 124.51H42.8101C41.2601 124.51 40 123.25 40 121.7V24.6801C40 23.1301 41.2601 21.8701 42.8101 21.8701ZM42.8101 19.3101C39.8501 19.3101 37.4399 21.7101 37.4399 24.6801V121.7C37.4399 124.66 39.8401 127.07 42.8101 127.07H59.4199C62.3799 127.07 64.79 124.67 64.79 121.7V24.6801C64.79 21.7201 62.3899 19.3101 59.4199 19.3101H42.8101Z" fill="#634425"/>
<path d="M51.0203 125.11C52.9698 125.11 54.5503 123.53 54.5503 121.58C54.5503 119.631 52.9698 118.05 51.0203 118.05C49.0707 118.05 47.4902 119.631 47.4902 121.58C47.4902 123.53 49.0707 125.11 51.0203 125.11Z" fill="#A67C52"/>
<path d="M51.0203 28.3002C52.9698 28.3002 54.5503 26.7198 54.5503 24.7703C54.5503 22.8207 52.9698 21.2402 51.0203 21.2402C49.0707 21.2402 47.4902 22.8207 47.4902 24.7703C47.4902 26.7198 49.0707 28.3002 51.0203 28.3002Z" fill="#A67C52"/>
<path d="M51.0198 26.7702C52.2798 26.7702 53.3099 25.7602 53.3199 24.4902L53.5098 5.5202C53.5198 4.2502 52.4998 3.2102 51.2298 3.2002C51.2198 3.2002 51.2098 3.2002 51.2098 3.2002C49.9498 3.2002 48.9197 4.21016 48.9097 5.48016L48.7198 24.4502C48.7098 25.7202 49.7298 26.7602 50.9998 26.7702C51.0098 26.7702 51.0198 26.7702 51.0198 26.7702Z" fill="#4A3A2B"/>
<path d="M51.2098 143.18C51.2198 143.18 51.2298 143.18 51.2298 143.18C52.4998 143.17 53.5198 142.13 53.5098 140.86L53.3199 121.89C53.3099 120.63 52.2798 119.61 51.0198 119.61C51.0098 119.61 50.9998 119.61 50.9998 119.61C49.7298 119.62 48.7098 120.66 48.7198 121.93L48.9097 140.9C48.9197 142.17 49.9498 143.18 51.2098 143.18Z" fill="#4A3A2B"/>
<path d="M27.04 125.791C29.13 125.791 30.8301 124.091 30.8301 122.001V24.3705C30.8301 22.2805 29.13 20.5806 27.04 20.5806H9.33008C7.24008 20.5806 5.54004 22.2805 5.54004 24.3705V122.001C5.54004 124.091 7.24008 125.791 9.33008 125.791H27.04Z" fill="#7A542D"/>
<path d="M9.33008 21.8705H27.04C28.42 21.8705 29.55 23.0006 29.55 24.3806V122.001C29.55 123.381 28.42 124.511 27.04 124.511H9.33008C7.95008 124.511 6.82007 123.381 6.82007 122.001V24.3705C6.83007 22.9905 7.95008 21.8705 9.33008 21.8705ZM9.33008 19.3105C6.53008 19.3105 4.27002 21.5805 4.27002 24.3705V122.001C4.27002 124.801 6.54008 127.061 9.33008 127.061H27.04C29.84 127.061 32.1001 124.791 32.1001 122.001V24.3705C32.1001 21.5705 29.83 19.3105 27.04 19.3105H9.33008Z" fill="#634425"/>
<path d="M18.1902 125.11C20.1398 125.11 21.7202 123.53 21.7202 121.58C21.7202 119.631 20.1398 118.05 18.1902 118.05C16.2406 118.05 14.6602 119.631 14.6602 121.58C14.6602 123.53 16.2406 125.11 18.1902 125.11Z" fill="#A67C52"/>
<path d="M18.1902 28.3002C20.1398 28.3002 21.7202 26.7198 21.7202 24.7703C21.7202 22.8207 20.1398 21.2402 18.1902 21.2402C16.2406 21.2402 14.6602 22.8207 14.6602 24.7703C14.6602 26.7198 16.2406 28.3002 18.1902 28.3002Z" fill="#A67C52"/>
<path d="M18.1897 26.7704C19.4597 26.7704 20.4897 25.7403 20.4897 24.4703V5.91034C20.4897 4.64034 19.4597 3.61035 18.1897 3.61035C16.9197 3.61035 15.8896 4.64034 15.8896 5.91034V24.4703C15.8896 25.7403 16.9197 26.7704 18.1897 26.7704Z" fill="#4A3A2B"/>
<path d="M18.1897 142.77C19.4597 142.77 20.4897 141.74 20.4897 140.47V121.91C20.4897 120.64 19.4597 119.61 18.1897 119.61C16.9197 119.61 15.8896 120.64 15.8896 121.91V140.47C15.8896 141.74 16.9197 142.77 18.1897 142.77Z" fill="#4A3A2B"/>
<path d="M102.64 139.39C74.8799 138.43 40.4801 137.54 0.870117 137.09V143.69C40.5101 144.14 74.9099 145.03 102.64 145.99V139.39Z" fill="#8F704D"/>
<path d="M102.64 0.390137C74.9099 1.35014 40.5101 2.25012 0.870117 2.69012V9.2901C40.4801 8.8401 74.8799 7.95011 102.64 6.99011V0.390137Z" fill="#8F704D"/>
</svg>
