<svg width="86" height="164" viewBox="0 0 86 164" fill="none" xmlns="http://www.w3.org/2000/svg">
<path d="M63.6501 134.79C66.0001 134.79 67.9102 132.88 67.9102 130.53V33.8498C67.9102 31.4998 66.0001 29.5898 63.6501 29.5898H46.8303C44.4803 29.5898 42.5703 31.4998 42.5703 33.8498V130.53C42.5703 132.88 44.4803 134.79 46.8303 134.79H63.6501Z" fill="#7A542D"/>
<path d="M46.8301 30.8696H63.6499C65.2999 30.8696 66.6299 32.2095 66.6299 33.8495V130.53C66.6299 132.18 65.2899 133.51 63.6499 133.51H46.8301C45.1801 133.51 43.8501 132.17 43.8501 130.53V33.8495C43.8501 32.2095 45.1801 30.8696 46.8301 30.8696ZM46.8301 28.3096C43.7701 28.3096 41.29 30.7895 41.29 33.8495V130.53C41.29 133.59 43.7701 136.07 46.8301 136.07H63.6499C66.7099 136.07 69.1899 133.59 69.1899 130.53V33.8495C69.1899 30.7895 66.7099 28.3096 63.6499 28.3096H46.8301Z" fill="#634425"/>
<path d="M55.24 134.11C57.1896 134.11 58.77 132.529 58.77 130.58C58.77 128.63 57.1896 127.05 55.24 127.05C53.2904 127.05 51.71 128.63 51.71 130.58C51.71 132.529 53.2904 134.11 55.24 134.11Z" fill="#A67C52"/>
<path d="M55.24 37.2997C57.1896 37.2997 58.77 35.7193 58.77 33.7698C58.77 31.8202 57.1896 30.2397 55.24 30.2397C53.2904 30.2397 51.71 31.8202 51.71 33.7698C51.71 35.7193 53.2904 37.2997 55.24 37.2997Z" fill="#A67C52"/>
<path d="M55.2401 35.7697C56.3801 35.7697 57.3701 34.9197 57.5201 33.7597L60.4501 10.4197C60.6101 9.15966 59.7101 8.00965 58.4501 7.84965C57.1901 7.68965 56.04 8.57965 55.88 9.84965L52.9501 33.1897C52.7901 34.4497 53.6901 35.5997 54.9501 35.7597C55.0501 35.7597 55.1501 35.7697 55.2401 35.7697Z" fill="#4A3A2B"/>
<path d="M58.16 156.56C58.26 156.56 58.3501 156.55 58.4501 156.54C59.7101 156.38 60.6001 155.23 60.4501 153.97L57.5201 130.63C57.3601 129.37 56.2101 128.48 54.9501 128.63C53.6901 128.79 52.8001 129.94 52.9501 131.2L55.88 154.54C56.03 155.71 57.02 156.56 58.16 156.56Z" fill="#4A3A2B"/>
<path d="M30.3398 134.79C32.6898 134.79 34.5999 132.88 34.5999 130.53V33.8498C34.5999 31.4998 32.6898 29.5898 30.3398 29.5898H7.9397C5.5897 29.5898 3.67969 31.4998 3.67969 33.8498V130.53C3.67969 132.88 5.5897 134.79 7.9397 134.79H30.3398Z" fill="#7A542D"/>
<path d="M7.92969 30.8701H30.3298C31.9798 30.8701 33.3098 32.21 33.3098 33.85V130.53C33.3098 132.18 31.9698 133.51 30.3298 133.51H7.92969C6.27969 133.51 4.94971 132.17 4.94971 130.53V33.85C4.94971 32.2 6.28969 30.8701 7.92969 30.8701ZM7.92969 28.3101C4.86969 28.3101 2.38965 30.79 2.38965 33.85V130.53C2.38965 133.59 4.86969 136.07 7.92969 136.07H30.3298C33.3898 136.07 35.8699 133.59 35.8699 130.53V33.85C35.8699 30.79 33.3898 28.3101 30.3298 28.3101H7.92969Z" fill="#634425"/>
<path d="M19.1294 134.11C21.079 134.11 22.6594 132.53 22.6594 130.58C22.6594 128.631 21.079 127.05 19.1294 127.05C17.1798 127.05 15.5996 128.631 15.5996 130.58C15.5996 132.53 17.1798 134.11 19.1294 134.11Z" fill="#A67C52"/>
<path d="M19.1294 37.3002C21.079 37.3002 22.6594 35.7198 22.6594 33.7703C22.6594 31.8207 21.079 30.2402 19.1294 30.2402C17.1798 30.2402 15.5996 31.8207 15.5996 33.7703C15.5996 35.7198 17.1798 37.3002 19.1294 37.3002Z" fill="#A67C52"/>
<path d="M19.1394 35.7702C20.3194 35.7702 21.3195 34.8701 21.4295 33.6701L23.3597 11.8602C23.4697 10.6002 22.5396 9.48016 21.2696 9.37016C20.0096 9.26016 18.8896 10.1902 18.7796 11.4602L16.8497 33.2702C16.7397 34.5302 17.6695 35.6502 18.9395 35.7602C18.9995 35.7602 19.0694 35.7702 19.1394 35.7702Z" fill="#4A3A2B"/>
<path d="M21.0698 155.02C21.1398 155.02 21.2097 155.02 21.2797 155.01C22.5397 154.9 23.4798 153.78 23.3698 152.52L21.4397 130.71C21.3297 129.45 20.2097 128.52 18.9497 128.62C17.6897 128.73 16.7498 129.85 16.8598 131.11L18.7898 152.92C18.8898 154.12 19.8898 155.02 21.0698 155.02Z" fill="#4A3A2B"/>
<path d="M77.8896 151.98C77.3896 151.95 49.1099 150.07 0.609863 148.39V154.99C48.8499 156.66 76.9397 158.53 77.4497 158.56L77.8896 151.98Z" fill="#8F704D"/>
<path d="M77.4497 5.81006C76.9497 5.84006 48.8499 7.71007 0.609863 9.38007V15.98C49.1099 14.3 77.3896 12.4201 77.8896 12.3901L77.4497 5.81006Z" fill="#8F704D"/>
<path d="M77.6699 162.43C73.8499 162.43 70.75 159.32 70.75 155.51C70.75 151.7 73.8599 148.59 77.6699 148.59C81.4899 148.59 84.5901 151.7 84.5901 155.51C84.5901 159.32 81.4799 162.43 77.6699 162.43Z" fill="#75512B"/>
<path d="M77.6697 149.87C80.7797 149.87 83.3098 152.4 83.3098 155.51C83.3098 158.62 80.7797 161.15 77.6697 161.15C74.5597 161.15 72.0298 158.62 72.0298 155.51C72.0298 152.4 74.5597 149.87 77.6697 149.87ZM77.6697 147.31C73.1397 147.31 69.4697 150.98 69.4697 155.51C69.4697 160.04 73.1397 163.71 77.6697 163.71C82.1997 163.71 85.8699 160.04 85.8699 155.51C85.8699 150.98 82.1997 147.31 77.6697 147.31Z" fill="#4A3A2B"/>
<path d="M77.6699 15.7902C73.8499 15.7902 70.75 12.6802 70.75 8.87018C70.75 5.05018 73.8599 1.9502 77.6699 1.9502C81.4899 1.9502 84.5901 5.06018 84.5901 8.87018C84.5901 12.6802 81.4799 15.7902 77.6699 15.7902Z" fill="#75512B"/>
<path d="M77.6697 3.21991C80.7797 3.21991 83.3098 5.74992 83.3098 8.85992C83.3098 11.9699 80.7797 14.4999 77.6697 14.4999C74.5597 14.4999 72.0298 11.9699 72.0298 8.85992C72.0298 5.74992 74.5597 3.21991 77.6697 3.21991ZM77.6697 0.669922C73.1397 0.669922 69.4697 4.33993 69.4697 8.86993C69.4697 13.3999 73.1397 17.0699 77.6697 17.0699C82.1997 17.0699 85.8699 13.3999 85.8699 8.86993C85.8699 4.33993 82.1997 0.669922 77.6697 0.669922Z" fill="#4A3A2B"/>
</svg>
