<svg width="45" height="86" viewBox="0 0 45 86" fill="none" xmlns="http://www.w3.org/2000/svg">
<path d="M33.5199 78.4895C33.1899 79.6695 32.8199 80.7695 32.4299 81.7595C32.0999 82.5895 31.7699 83.3595 31.4199 84.0095C31.3999 84.0495 31.3799 84.0895 31.3599 84.1195C30.3499 85.9895 27.4999 85.3395 27.3999 83.2295C27.3899 82.9595 27.3699 82.6895 27.3499 82.4095C27.3399 82.1895 27.3199 81.9595 27.2999 81.7295C27.2199 80.6795 27.0899 79.5495 26.8899 78.3695C26.8499 78.1195 26.8099 77.8595 26.7599 77.5995C26.6799 77.1595 26.5999 76.7195 26.4999 76.2695C26.4599 76.0895 26.4199 75.9095 26.3799 75.7195C26.1399 74.6295 25.8399 73.5095 25.4799 72.3695C25.3699 72.0395 25.2599 71.6995 25.1499 71.3695C24.8699 70.5695 24.5599 69.7595 24.2199 68.9395C24.0599 68.5395 23.8999 68.1495 23.7099 67.7495C21.1199 62.0795 20.5499 58.4395 20.7699 54.7895C20.8599 53.3095 21.0699 51.8195 21.3299 50.1895C21.7099 47.8895 22.9299 45.1795 25.3199 42.8495H34.4599L34.7299 50.1095C34.8499 53.2295 35.1199 56.3595 35.4899 59.4595C36.1899 65.1495 35.1799 72.7495 33.5199 78.4895Z" fill="#F2E23D"/>
<path d="M33.5199 78.4895C33.1899 79.6695 32.8199 80.7695 32.4299 81.7595C32.0999 82.5895 31.7699 83.3595 31.4199 84.0095C31.3999 84.0495 31.3799 84.0895 31.3599 84.1195C30.3499 85.9895 27.4999 85.3395 27.3999 83.2295C27.3899 82.9595 27.3699 82.6895 27.3499 82.4095C27.3399 82.1895 27.3199 81.9595 27.2999 81.7295C27.2199 80.6795 27.0899 79.5495 26.8899 78.3695C26.8499 78.1195 26.8099 77.8595 26.7599 77.5995C26.6799 77.1595 26.5999 76.7195 26.4999 76.2695C26.4599 76.0895 26.4199 75.9095 26.3799 75.7195C26.1399 74.6295 25.8399 73.5095 25.4799 72.3695C25.3699 72.0395 25.2599 71.6995 25.1499 71.3695C24.8699 70.5695 24.5599 69.7595 24.2199 68.9395C24.0599 68.5395 23.8999 68.1495 23.7099 67.7495C21.1199 62.0795 20.5499 58.4395 20.7699 54.7895C21.9399 57.0295 23.3799 59.5195 25.1499 62.3195C27.6699 66.2895 30.8199 72.0895 33.5199 78.4895Z" fill="#D9AF04"/>
<path d="M33.5199 7.20949C33.1899 6.02949 32.8199 4.9295 32.4299 3.9395C32.0999 3.1095 31.7699 2.3395 31.4199 1.6895C31.3999 1.6495 31.3799 1.60948 31.3599 1.57948C30.3499 -0.290515 27.4999 0.3595 27.3999 2.4695C27.3899 2.7395 27.3699 3.00951 27.3499 3.28951C27.3399 3.50951 27.3199 3.7395 27.2999 3.9695C27.2199 5.0195 27.0899 6.14948 26.8899 7.32948C26.8499 7.57948 26.8099 7.8395 26.7599 8.0995C26.6799 8.5395 26.5999 8.97949 26.4999 9.42949C26.4599 9.60949 26.4199 9.78948 26.3799 9.97948C26.1399 11.0695 25.8399 12.1895 25.4799 13.3295C25.3699 13.6595 25.2599 13.9995 25.1499 14.3295C24.8699 15.1295 24.5599 15.9395 24.2199 16.7595C24.0599 17.1595 23.8999 17.5495 23.7099 17.9495C21.1199 23.6195 20.5499 27.2595 20.7699 30.9095C20.8599 32.3895 21.0699 33.8795 21.3299 35.5095C21.7099 37.8095 22.9299 40.5195 25.3199 42.8495H34.4599L34.7299 35.5895C34.8499 32.4695 35.1199 29.3395 35.4899 26.2395C36.1899 20.5495 35.1799 12.9495 33.5199 7.20949Z" fill="#F2E23D"/>
<path d="M33.5199 7.20949C33.1899 6.02949 32.8199 4.9295 32.4299 3.9395C32.0999 3.1095 31.7699 2.3395 31.4199 1.6895C31.3999 1.6495 31.3799 1.60948 31.3599 1.57948C30.3499 -0.290515 27.4999 0.3595 27.3999 2.4695C27.3899 2.7395 27.3699 3.00951 27.3499 3.28951C27.3399 3.50951 27.3199 3.7395 27.2999 3.9695C27.2199 5.0195 27.0899 6.14948 26.8899 7.32948C26.8499 7.57948 26.8099 7.8395 26.7599 8.0995C26.6799 8.5395 26.5999 8.97949 26.4999 9.42949C26.4599 9.60949 26.4199 9.78948 26.3799 9.97948C26.1399 11.0695 25.8399 12.1895 25.4799 13.3295C25.3699 13.6595 25.2599 13.9995 25.1499 14.3295C24.8699 15.1295 24.5599 15.9395 24.2199 16.7595C24.0599 17.1595 23.8999 17.5495 23.7099 17.9495C21.1199 23.6195 20.5499 27.2595 20.7699 30.9095C21.9399 28.6695 23.3799 26.1795 25.1499 23.3795C27.6699 19.4095 30.8199 13.6095 33.5199 7.20949Z" fill="#D9AF04"/>
<path d="M44.2099 43.3195C44.6799 43.1795 44.6799 42.5095 44.2099 42.3695L41.4099 41.5595V42.8495V44.1395L44.2099 43.3195Z" fill="#D9AF04"/>
<path d="M29.7199 36.9995C27.1299 36.9995 24.7199 37.3695 22.7299 37.9995C20.0099 38.8695 17.2199 39.4995 14.3699 39.6895C11.2999 39.8995 7.83994 40.0295 6.23994 39.8095C5.49994 39.7095 4.75994 39.5795 4.03994 39.4295C3.84994 39.3895 3.66994 39.3495 3.48994 39.2995C3.07994 39.1995 2.67993 39.0995 2.27993 38.9795C2.04993 38.9195 1.81993 38.8495 1.58993 38.7695C1.54993 38.7695 1.50994 38.7495 1.46994 38.7395C0.719937 38.4995 0.159934 39.4195 0.669934 39.9895C0.679934 40.0095 0.689943 40.0195 0.709943 40.0395C1.21994 40.5395 1.63994 40.9695 1.98994 41.3295C2.99994 42.3795 3.38994 42.8495 3.38994 42.8495C3.38994 42.8495 3.04994 43.3595 2.12994 44.3595C2.11994 44.3795 2.09993 44.3995 2.08993 44.4095C1.98993 44.5095 1.88994 44.6195 1.78994 44.7295C1.77994 44.7395 1.77995 44.7495 1.75995 44.7595C1.60995 44.9195 1.43995 45.0995 1.25995 45.2795L0.959943 45.5795C0.379943 46.1495 0.949937 47.1095 1.71994 46.8695C2.29994 46.6895 2.88994 46.5295 3.48994 46.3895C3.74994 46.3195 4.01994 46.2595 4.28994 46.2095C5.03994 46.0595 5.78994 45.9395 6.54994 45.8395C8.30994 45.6095 12.6199 45.8895 16.0299 46.2195C18.3999 46.4495 20.7199 46.9995 22.9899 47.6895C24.9299 48.2795 27.2399 48.6195 29.7199 48.6195C36.5899 48.6195 42.1599 46.0195 42.1599 42.8095C42.1599 39.5995 36.5899 36.9995 29.7199 36.9995Z" fill="#F2E23D"/>
<path d="M3.86993 45.5395C3.72993 45.8295 3.59994 46.1195 3.48994 46.3895C2.88994 46.5295 2.29994 46.6895 1.71994 46.8695C0.949937 47.1095 0.379943 46.1495 0.959943 45.5795L1.25995 45.2795C1.43995 45.0995 1.60995 44.9195 1.75995 44.7595C1.77995 44.7495 1.77994 44.7395 1.78994 44.7295C1.87994 44.6395 1.94993 44.5595 2.02993 44.4795C2.04993 44.4595 2.06993 44.4395 2.08993 44.4095C2.09993 44.3995 2.11994 44.3795 2.12994 44.3595C2.85994 43.4695 2.79994 42.1695 1.98994 41.3295C1.63994 40.9695 1.21994 40.5395 0.709943 40.0395C0.689943 40.0195 0.679934 40.0095 0.669934 39.9895C0.159934 39.4195 0.719937 38.4995 1.46994 38.7395C1.50994 38.7495 1.54993 38.7695 1.58993 38.7695C1.81993 38.8495 2.04993 38.9195 2.27993 38.9795C2.67993 39.0995 3.07994 39.1995 3.48994 39.2995C3.59994 39.5795 3.72993 39.8695 3.86993 40.1495C4.69993 41.8595 4.69993 43.8395 3.86993 45.5395Z" fill="#D9AF04"/>
</svg>
