<svg width="46" height="86" viewBox="0 0 46 86" fill="none" xmlns="http://www.w3.org/2000/svg">
<path d="M33.9698 74.3095C33.6398 75.3495 33.2698 76.3195 32.8798 77.1995C32.5498 77.9295 32.2198 78.6095 31.8698 79.1895C31.8498 79.2295 31.8298 79.2595 31.8098 79.2895C30.7998 80.9395 27.9498 80.3695 27.8498 78.4995C27.8398 78.2595 27.8198 78.0195 27.7998 77.7795C27.7898 77.5895 27.7698 77.3795 27.7498 77.1795C27.6698 76.2495 27.5398 75.2595 27.3398 74.2095C27.2998 73.9895 27.2598 73.7595 27.2098 73.5295C27.1298 73.1395 27.0498 72.7495 26.9498 72.3595C26.9098 72.1995 26.8698 72.0395 26.8298 71.8695C26.5898 70.9095 26.2898 69.9195 25.9298 68.9095C25.8198 68.6195 25.7098 68.3195 25.5998 68.0295C25.3198 67.3195 25.0098 66.6095 24.6698 65.8795C24.5098 65.5295 24.3498 65.1795 24.1598 64.8295C21.5698 59.8195 20.9998 56.6095 21.2198 53.3895C21.3098 52.0795 21.5198 50.7695 21.7798 49.3295C22.1598 47.2995 23.3798 44.9095 25.7698 42.8495H34.9098L35.1798 49.2595C35.2998 52.0095 35.5698 54.7795 35.9398 57.5195C36.6398 62.5295 35.6298 69.2395 33.9698 74.3095Z" fill="#F2E23D"/>
<path d="M33.9698 74.3095C33.6398 75.3495 33.2698 76.3195 32.8798 77.1995C32.5498 77.9295 32.2198 78.6095 31.8698 79.1895C31.8498 79.2295 31.8298 79.2595 31.8098 79.2895C30.7998 80.9395 27.9498 80.3695 27.8498 78.4995C27.8398 78.2595 27.8198 78.0195 27.7998 77.7795C27.7898 77.5895 27.7698 77.3795 27.7498 77.1795C27.6698 76.2495 27.5398 75.2595 27.3398 74.2095C27.2998 73.9895 27.2598 73.7595 27.2098 73.5295C27.1298 73.1395 27.0498 72.7495 26.9498 72.3595C26.9098 72.1995 26.8698 72.0395 26.8298 71.8695C26.5898 70.9095 26.2898 69.9195 25.9298 68.9095C25.8198 68.6195 25.7098 68.3195 25.5998 68.0295C25.3198 67.3195 25.0098 66.6095 24.6698 65.8795C24.5098 65.5295 24.3498 65.1795 24.1598 64.8295C21.5698 59.8195 20.9998 56.6095 21.2198 53.3895C22.3898 55.3695 23.8298 57.5695 25.5998 60.0395C28.1198 63.5395 31.2698 68.6595 33.9698 74.3095Z" fill="#D9AF04"/>
<path d="M33.9698 11.3795C33.6398 10.3395 33.2698 9.36948 32.8798 8.48948C32.5498 7.75948 32.2198 7.07949 31.8698 6.49949C31.8498 6.45949 31.8298 6.42948 31.8098 6.39948C30.7998 4.74948 27.9498 5.31949 27.8498 7.18949C27.8398 7.42949 27.8198 7.66949 27.7998 7.90949C27.7898 8.09949 27.7698 8.3095 27.7498 8.5095C27.6698 9.4395 27.5398 10.4295 27.3398 11.4795C27.2998 11.6995 27.2598 11.9295 27.2098 12.1595C27.1298 12.5495 27.0498 12.9395 26.9498 13.3295C26.9098 13.4895 26.8698 13.6495 26.8298 13.8195C26.5898 14.7795 26.2898 15.7695 25.9298 16.7795C25.8198 17.0695 25.7098 17.3695 25.5998 17.6595C25.3198 18.3695 25.0098 19.0795 24.6698 19.8095C24.5098 20.1595 24.3498 20.5095 24.1598 20.8595C21.5698 25.8695 20.9998 29.0795 21.2198 32.2995C21.3098 33.6095 21.5198 34.9195 21.7798 36.3595C22.1598 38.3895 23.3798 40.7795 25.7698 42.8395H34.9098L35.1798 36.4295C35.2998 33.6795 35.5698 30.9095 35.9398 28.1695C36.6398 23.1595 35.6298 16.4495 33.9698 11.3795Z" fill="#F2E23D"/>
<path d="M33.9698 11.3795C33.6398 10.3395 33.2698 9.36948 32.8798 8.48948C32.5498 7.75948 32.2198 7.07949 31.8698 6.49949C31.8498 6.45949 31.8298 6.42948 31.8098 6.39948C30.7998 4.74948 27.9498 5.31949 27.8498 7.18949C27.8398 7.42949 27.8198 7.66949 27.7998 7.90949C27.7898 8.09949 27.7698 8.3095 27.7498 8.5095C27.6698 9.4395 27.5398 10.4295 27.3398 11.4795C27.2998 11.6995 27.2598 11.9295 27.2098 12.1595C27.1298 12.5495 27.0498 12.9395 26.9498 13.3295C26.9098 13.4895 26.8698 13.6495 26.8298 13.8195C26.5898 14.7795 26.2898 15.7695 25.9298 16.7795C25.8198 17.0695 25.7098 17.3695 25.5998 17.6595C25.3198 18.3695 25.0098 19.0795 24.6698 19.8095C24.5098 20.1595 24.3498 20.5095 24.1598 20.8595C21.5698 25.8695 20.9998 29.0795 21.2198 32.2995C22.3898 30.3195 23.8298 28.1195 25.5998 25.6495C28.1198 22.1495 31.2698 17.0295 33.9698 11.3795Z" fill="#D9AF04"/>
<path d="M44.6599 43.3195C45.1299 43.1795 45.1299 42.5095 44.6599 42.3695L41.8599 41.5595V42.8495V44.1395L44.6599 43.3195Z" fill="#D9AF04"/>
<path d="M30.1699 36.9995C27.5799 36.9995 25.1699 37.3695 23.1799 37.9995C20.4599 38.8695 17.6699 39.4995 14.8199 39.6895C11.7499 39.8995 8.28989 40.0295 6.68989 39.8095C5.94989 39.7095 5.20988 39.5795 4.48988 39.4295C4.29988 39.3895 4.11989 39.3495 3.93989 39.2995C3.52989 39.1995 3.1299 39.0995 2.7299 38.9795C2.4999 38.9195 2.2699 38.8495 2.0399 38.7695C1.9999 38.7695 1.9599 38.7495 1.9199 38.7395C1.1699 38.4995 0.609883 39.4195 1.11988 39.9895C1.12988 40.0095 1.13989 40.0195 1.15989 40.0395C1.66989 40.5395 2.08989 40.9695 2.43989 41.3295C3.44989 42.3795 3.83988 42.8495 3.83988 42.8495C3.83988 42.8495 3.4999 43.3595 2.5799 44.3595C2.5699 44.3795 2.5499 44.3995 2.5399 44.4095C2.4399 44.5095 2.33988 44.6195 2.23988 44.7295C2.22988 44.7395 2.22988 44.7495 2.20988 44.7595C2.05988 44.9195 1.88988 45.0995 1.70988 45.2795L1.40989 45.5795C0.829891 46.1495 1.3999 47.1095 2.1699 46.8695C2.7499 46.6895 3.33989 46.5295 3.93989 46.3895C4.19989 46.3195 4.46988 46.2595 4.73988 46.2095C5.48988 46.0595 6.23989 45.9395 6.99989 45.8395C8.75989 45.6095 13.0699 45.8895 16.4799 46.2195C18.8499 46.4495 21.1699 46.9995 23.4399 47.6895C25.3799 48.2795 27.6899 48.6195 30.1699 48.6195C37.0399 48.6195 42.6099 46.0195 42.6099 42.8095C42.6099 39.5995 37.0399 36.9995 30.1699 36.9995Z" fill="#F2E23D"/>
<path d="M4.31989 45.5395C4.17989 45.8295 4.04989 46.1195 3.93989 46.3895C3.33989 46.5295 2.7499 46.6895 2.1699 46.8695C1.3999 47.1095 0.829891 46.1495 1.40989 45.5795L1.70988 45.2795C1.88988 45.0995 2.05988 44.9195 2.20988 44.7595C2.22988 44.7495 2.22988 44.7395 2.23988 44.7295C2.32988 44.6395 2.3999 44.5595 2.4799 44.4795C2.4999 44.4595 2.5199 44.4395 2.5399 44.4095C2.5499 44.3995 2.5699 44.3795 2.5799 44.3595C3.3099 43.4695 3.24989 42.1695 2.43989 41.3295C2.08989 40.9695 1.66989 40.5395 1.15989 40.0395C1.13989 40.0195 1.12988 40.0095 1.11988 39.9895C0.609883 39.4195 1.1699 38.4995 1.9199 38.7395C1.9599 38.7495 1.9999 38.7695 2.0399 38.7695C2.2699 38.8495 2.4999 38.9195 2.7299 38.9795C3.1299 39.0995 3.52989 39.1995 3.93989 39.2995C4.04989 39.5795 4.17989 39.8695 4.31989 40.1495C5.14989 41.8595 5.14989 43.8395 4.31989 45.5395Z" fill="#D9AF04"/>
</svg>
