<svg width="45" height="86" viewBox="0 0 45 86" fill="none" xmlns="http://www.w3.org/2000/svg">
<path d="M33.5199 65.5195C33.1899 66.2695 32.8199 66.9695 32.4299 67.5995C32.0999 68.1295 31.7698 68.6195 31.4198 69.0295C31.3998 69.0595 31.3798 69.0795 31.3598 69.0995C30.3498 70.2895 27.4999 69.8795 27.3999 68.5295C27.3899 68.3595 27.3698 68.1895 27.3498 68.0095C27.3398 67.8695 27.3198 67.7195 27.2998 67.5795C27.2198 66.9095 27.0899 66.1895 26.8899 65.4395C26.8499 65.2795 26.8099 65.1195 26.7599 64.9495C26.6799 64.6695 26.5999 64.3895 26.4999 64.0995C26.4599 63.9895 26.4199 63.8695 26.3799 63.7495C26.1399 63.0595 25.8398 62.3395 25.4798 61.6195C25.3698 61.4095 25.2599 61.1895 25.1499 60.9795C24.8699 60.4695 24.5599 59.9595 24.2199 59.4295C24.0599 59.1795 23.8999 58.9295 23.7099 58.6695C21.1199 55.0595 20.5499 52.7495 20.7699 50.4195C20.8599 49.4795 21.0699 48.5295 21.3299 47.4895C21.7099 46.0295 22.9299 44.2995 25.3199 42.8195H34.4599L34.7298 47.4395C34.8498 49.4195 35.1199 51.4195 35.4899 53.3895C36.1899 57.0295 35.1799 61.8695 33.5199 65.5195Z" fill="#F2E23D"/>
<path d="M33.5199 65.5195C33.1899 66.2695 32.8199 66.9695 32.4299 67.5995C32.0999 68.1295 31.7698 68.6195 31.4198 69.0295C31.3998 69.0595 31.3798 69.0795 31.3598 69.0995C30.3498 70.2895 27.4999 69.8795 27.3999 68.5295C27.3899 68.3595 27.3698 68.1895 27.3498 68.0095C27.3398 67.8695 27.3198 67.7195 27.2998 67.5795C27.2198 66.9095 27.0899 66.1895 26.8899 65.4395C26.8499 65.2795 26.8099 65.1195 26.7599 64.9495C26.6799 64.6695 26.5999 64.3895 26.4999 64.0995C26.4599 63.9895 26.4199 63.8695 26.3799 63.7495C26.1399 63.0595 25.8398 62.3395 25.4798 61.6195C25.3698 61.4095 25.2599 61.1895 25.1499 60.9795C24.8699 60.4695 24.5599 59.9595 24.2199 59.4295C24.0599 59.1795 23.8999 58.9295 23.7099 58.6695C21.1199 55.0595 20.5499 52.7495 20.7699 50.4195C21.9399 51.8495 23.3799 53.4295 25.1499 55.2095C27.6699 57.7595 30.8199 61.4495 33.5199 65.5195Z" fill="#D9AF04"/>
<path d="M33.5199 20.1695C33.1899 19.4195 32.8199 18.7195 32.4299 18.0895C32.0999 17.5595 31.7698 17.0695 31.4198 16.6595C31.3998 16.6295 31.3798 16.6095 31.3598 16.5895C30.3498 15.3995 27.4999 15.8095 27.3999 17.1595C27.3899 17.3295 27.3698 17.4995 27.3498 17.6795C27.3398 17.8195 27.3198 17.9695 27.2998 18.1095C27.2198 18.7795 27.0899 19.4995 26.8899 20.2495C26.8499 20.4095 26.8099 20.5695 26.7599 20.7395C26.6799 21.0195 26.5999 21.2995 26.4999 21.5895C26.4599 21.6995 26.4199 21.8195 26.3799 21.9395C26.1399 22.6295 25.8398 23.3495 25.4798 24.0695C25.3698 24.2795 25.2599 24.4995 25.1499 24.7095C24.8699 25.2195 24.5599 25.7295 24.2199 26.2595C24.0599 26.5095 23.8999 26.7595 23.7099 27.0195C21.1199 30.6295 20.5499 32.9395 20.7699 35.2695C20.8599 36.2095 21.0699 37.1595 21.3299 38.1995C21.7099 39.6595 22.9299 41.3895 25.3199 42.8695H34.4599L34.7298 38.2495C34.8498 36.2695 35.1199 34.2695 35.4899 32.2995C36.1899 28.6595 35.1799 23.8195 33.5199 20.1695Z" fill="#F2E23D"/>
<path d="M33.5199 20.1695C33.1899 19.4195 32.8199 18.7195 32.4299 18.0895C32.0999 17.5595 31.7698 17.0695 31.4198 16.6595C31.3998 16.6295 31.3798 16.6095 31.3598 16.5895C30.3498 15.3995 27.4999 15.8095 27.3999 17.1595C27.3899 17.3295 27.3698 17.4995 27.3498 17.6795C27.3398 17.8195 27.3198 17.9695 27.2998 18.1095C27.2198 18.7795 27.0899 19.4995 26.8899 20.2495C26.8499 20.4095 26.8099 20.5695 26.7599 20.7395C26.6799 21.0195 26.5999 21.2995 26.4999 21.5895C26.4599 21.6995 26.4199 21.8195 26.3799 21.9395C26.1399 22.6295 25.8398 23.3495 25.4798 24.0695C25.3698 24.2795 25.2599 24.4995 25.1499 24.7095C24.8699 25.2195 24.5599 25.7295 24.2199 26.2595C24.0599 26.5095 23.8999 26.7595 23.7099 27.0195C21.1199 30.6295 20.5499 32.9395 20.7699 35.2695C21.9399 33.8395 23.3799 32.2595 25.1499 30.4795C27.6699 27.9295 30.8199 24.2395 33.5199 20.1695Z" fill="#D9AF04"/>
<path d="M44.21 43.3195C44.68 43.1795 44.68 42.5095 44.21 42.3695L41.4099 41.5595V42.8495V44.1395L44.21 43.3195Z" fill="#D9AF04"/>
<path d="M29.72 36.9995C27.13 36.9995 24.7199 37.3695 22.7299 37.9995C20.0099 38.8695 17.2199 39.4995 14.3699 39.6895C11.2999 39.8995 7.83993 40.0295 6.23993 39.8095C5.49993 39.7095 4.75992 39.5795 4.03992 39.4295C3.84992 39.3895 3.66993 39.3495 3.48993 39.2995C3.07993 39.1995 2.67997 39.0995 2.27997 38.9795C2.04997 38.9195 1.81997 38.8495 1.58997 38.7695C1.54997 38.7695 1.50997 38.7495 1.46997 38.7395C0.719975 38.4995 0.159926 39.4195 0.669926 39.9895C0.679926 40.0095 0.689965 40.0195 0.709965 40.0395C1.21997 40.5395 1.63993 40.9695 1.98993 41.3295C2.99993 42.3795 3.38996 42.8495 3.38996 42.8495C3.38996 42.8495 3.04995 43.3595 2.12995 44.3595C2.11995 44.3795 2.09997 44.3995 2.08997 44.4095C1.98997 44.5095 1.88992 44.6195 1.78992 44.7295C1.77992 44.7395 1.77995 44.7495 1.75995 44.7595C1.60995 44.9195 1.43995 45.0995 1.25995 45.2795L0.959965 45.5795C0.379965 46.1495 0.949975 47.1095 1.71997 46.8695C2.29997 46.6895 2.88993 46.5295 3.48993 46.3895C3.74993 46.3195 4.01992 46.2595 4.28992 46.2095C5.03992 46.0595 5.78993 45.9395 6.54993 45.8395C8.30993 45.6095 12.62 45.8895 16.03 46.2195C18.4 46.4495 20.7199 46.9995 22.9899 47.6895C24.9299 48.2795 27.24 48.6195 29.72 48.6195C36.59 48.6195 42.1599 46.0195 42.1599 42.8095C42.1699 39.5995 36.6 36.9995 29.72 36.9995Z" fill="#F2E23D"/>
<path d="M3.87996 45.5395C3.73996 45.8295 3.60995 46.1195 3.49995 46.3895C2.89995 46.5295 2.30993 46.6895 1.72993 46.8695C0.959934 47.1095 0.389986 46.1495 0.969986 45.5795L1.26997 45.2795C1.44997 45.0995 1.61997 44.9195 1.76997 44.7595C1.78997 44.7495 1.78994 44.7395 1.79994 44.7295C1.88994 44.6395 1.95993 44.5595 2.03993 44.4795C2.05993 44.4595 2.07993 44.4395 2.09993 44.4095C2.10993 44.3995 2.12997 44.3795 2.13997 44.3595C2.86997 43.4695 2.80995 42.1695 1.99995 41.3295C1.64995 40.9695 1.22999 40.5395 0.719986 40.0395C0.699986 40.0195 0.689947 40.0095 0.679947 39.9895C0.169947 39.4195 0.729934 38.4995 1.47993 38.7395C1.51993 38.7495 1.55993 38.7695 1.59993 38.7695C1.82993 38.8495 2.05993 38.9195 2.28993 38.9795C2.68993 39.0995 3.08995 39.1995 3.49995 39.2995C3.60995 39.5795 3.73996 39.8695 3.87996 40.1495C4.69996 41.8595 4.69996 43.8395 3.87996 45.5395Z" fill="#D9AF04"/>
</svg>
