<svg width="45" height="86" viewBox="0 0 45 86" fill="none" xmlns="http://www.w3.org/2000/svg">
<path d="M33.89 61.3095C33.56 61.9195 33.19 62.4895 32.8 62.9995C32.47 63.4295 32.14 63.8295 31.79 64.1695C31.77 64.1895 31.75 64.2095 31.73 64.2295C30.72 65.1995 27.87 64.8595 27.77 63.7695C27.76 63.6295 27.74 63.4895 27.72 63.3495C27.71 63.2395 27.69 63.1195 27.67 62.9995C27.59 62.4595 27.46 61.8695 27.26 61.2595C27.22 61.1295 27.18 60.9995 27.13 60.8595C27.05 60.6295 26.97 60.3995 26.87 60.1695C26.83 60.0795 26.79 59.9795 26.75 59.8895C26.51 59.3295 26.21 58.7495 25.85 58.1495C25.74 57.9795 25.63 57.7995 25.52 57.6295C25.24 57.2195 24.93 56.7995 24.59 56.3695C24.43 56.1595 24.27 55.9595 24.08 55.7495C21.49 52.8095 20.92 50.9295 21.14 49.0395C21.23 48.2695 21.44 47.4995 21.7 46.6595C22.08 45.4695 23.3 44.0595 25.69 42.8595H34.83L35.1 46.6195C35.22 48.2395 35.49 49.8595 35.86 51.4595C36.56 54.3995 35.55 58.3395 33.89 61.3095Z" fill="#F2E23D"/>
<path d="M33.89 61.3095C33.56 61.9195 33.19 62.4895 32.8 62.9995C32.47 63.4295 32.14 63.8295 31.79 64.1695C31.77 64.1895 31.75 64.2095 31.73 64.2295C30.72 65.1995 27.87 64.8595 27.77 63.7695C27.76 63.6295 27.74 63.4895 27.72 63.3495C27.71 63.2395 27.69 63.1195 27.67 62.9995C27.59 62.4595 27.46 61.8696 27.26 61.2596C27.22 61.1296 27.18 60.9995 27.13 60.8595C27.05 60.6295 26.97 60.3995 26.87 60.1695C26.83 60.0795 26.79 59.9795 26.75 59.8895C26.51 59.3295 26.21 58.7495 25.85 58.1495C25.74 57.9795 25.63 57.7995 25.52 57.6295C25.24 57.2195 24.93 56.7995 24.59 56.3695C24.43 56.1595 24.27 55.9595 24.08 55.7495C21.49 52.8095 20.92 50.9296 21.14 49.0396C22.31 50.1996 23.75 51.4895 25.52 52.9395C28.04 54.9895 31.19 57.9895 33.89 61.3095Z" fill="#D9AF04"/>
<path d="M33.89 24.3795C33.56 23.7695 33.19 23.1995 32.8 22.6895C32.47 22.2595 32.14 21.8595 31.79 21.5195C31.77 21.4995 31.75 21.4795 31.73 21.4595C30.72 20.4895 27.87 20.8295 27.77 21.9195C27.76 22.0595 27.74 22.1995 27.72 22.3395C27.71 22.4495 27.69 22.5695 27.67 22.6895C27.59 23.2295 27.46 23.8195 27.26 24.4295C27.22 24.5595 27.18 24.6895 27.13 24.8295C27.05 25.0595 26.97 25.2895 26.87 25.5195C26.83 25.6095 26.79 25.7095 26.75 25.7995C26.51 26.3595 26.21 26.9395 25.85 27.5395C25.74 27.7095 25.63 27.8895 25.52 28.0595C25.24 28.4695 24.93 28.8895 24.59 29.3195C24.43 29.5295 24.27 29.7295 24.08 29.9395C21.49 32.8795 20.92 34.7595 21.14 36.6495C21.23 37.4195 21.44 38.1895 21.7 39.0295C22.08 40.2195 23.3 41.6295 25.69 42.8295H34.83L35.1 39.0695C35.22 37.4495 35.49 35.8295 35.86 34.2295C36.56 31.2895 35.55 27.3595 33.89 24.3795Z" fill="#F2E23D"/>
<path d="M33.89 24.3795C33.56 23.7695 33.19 23.1995 32.8 22.6895C32.47 22.2595 32.14 21.8595 31.79 21.5195C31.77 21.4995 31.75 21.4795 31.73 21.4595C30.72 20.4895 27.87 20.8295 27.77 21.9195C27.76 22.0595 27.74 22.1995 27.72 22.3395C27.71 22.4495 27.69 22.5695 27.67 22.6895C27.59 23.2295 27.46 23.8195 27.26 24.4295C27.22 24.5595 27.18 24.6895 27.13 24.8295C27.05 25.0595 26.97 25.2895 26.87 25.5195C26.83 25.6095 26.79 25.7095 26.75 25.7995C26.51 26.3595 26.21 26.9395 25.85 27.5395C25.74 27.7095 25.63 27.8895 25.52 28.0595C25.24 28.4695 24.93 28.8895 24.59 29.3195C24.43 29.5295 24.27 29.7295 24.08 29.9395C21.49 32.8795 20.92 34.7595 21.14 36.6495C22.31 35.4895 23.75 34.1995 25.52 32.7495C28.04 30.6995 31.19 27.6995 33.89 24.3795Z" fill="#D9AF04"/>
<path d="M44.58 43.3195C45.05 43.1795 45.05 42.5095 44.58 42.3695L41.78 41.5595V42.8495V44.1395L44.58 43.3195Z" fill="#D9AF04"/>
<path d="M30.09 36.9995C27.5 36.9995 25.0899 37.3695 23.0999 37.9995C20.3799 38.8695 17.5899 39.4995 14.7399 39.6895C11.6699 39.8995 8.20993 40.0295 6.60993 39.8095C5.86993 39.7095 5.12992 39.5795 4.40992 39.4295C4.21992 39.3895 4.03993 39.3495 3.85993 39.2995C3.44993 39.1995 3.04997 39.0995 2.64997 38.9795C2.41997 38.9195 2.18997 38.8495 1.95997 38.7695C1.91997 38.7695 1.87997 38.7495 1.83997 38.7395C1.08997 38.4995 0.529921 39.4195 1.03992 39.9895C1.04992 40.0095 1.05996 40.0195 1.07996 40.0395C1.58996 40.5395 2.00993 40.9695 2.35993 41.3295C3.36993 42.3795 3.75995 42.8495 3.75995 42.8495C3.75995 42.8495 3.41994 43.3595 2.49994 44.3595C2.48994 44.3795 2.46997 44.3995 2.45997 44.4095C2.35997 44.5095 2.25992 44.6195 2.15992 44.7295C2.14992 44.7395 2.14995 44.7495 2.12995 44.7595C1.97995 44.9195 1.80995 45.0995 1.62995 45.2795L1.32996 45.5795C0.74996 46.1495 1.31997 47.1095 2.08997 46.8695C2.66997 46.6895 3.25993 46.5295 3.85993 46.3895C4.11993 46.3195 4.38992 46.2595 4.65992 46.2095C5.40992 46.0595 6.15993 45.9395 6.91993 45.8395C8.67993 45.6095 12.99 45.8895 16.4 46.2195C18.77 46.4495 21.0899 46.9995 23.3599 47.6895C25.2999 48.2795 27.61 48.6195 30.09 48.6195C36.96 48.6195 42.53 46.0195 42.53 42.8095C42.53 39.5995 36.96 36.9995 30.09 36.9995Z" fill="#F2E23D"/>
<path d="M4.23993 45.5395C4.09993 45.8295 3.96993 46.1195 3.85993 46.3895C3.25993 46.5295 2.66997 46.6895 2.08997 46.8695C1.31997 47.1095 0.74996 46.1495 1.32996 45.5795L1.62995 45.2795C1.80995 45.0995 1.97995 44.9195 2.12995 44.7595C2.14995 44.7495 2.14992 44.7395 2.15992 44.7295C2.24992 44.6395 2.31997 44.5595 2.39997 44.4795C2.41997 44.4595 2.43997 44.4395 2.45997 44.4095C2.46997 44.3995 2.48994 44.3795 2.49994 44.3595C3.22994 43.4695 3.16993 42.1695 2.35993 41.3295C2.00993 40.9695 1.58996 40.5395 1.07996 40.0395C1.05996 40.0195 1.04992 40.0095 1.03992 39.9895C0.529921 39.4195 1.08997 38.4995 1.83997 38.7395C1.87997 38.7495 1.91997 38.7695 1.95997 38.7695C2.18997 38.8495 2.41997 38.9195 2.64997 38.9795C3.04997 39.0995 3.44993 39.1995 3.85993 39.2995C3.96993 39.5795 4.09993 39.8695 4.23993 40.1495C5.06993 41.8595 5.06993 43.8395 4.23993 45.5395Z" fill="#D9AF04"/>
</svg>
