<svg width="45" height="86" viewBox="0 0 45 86" fill="none" xmlns="http://www.w3.org/2000/svg">
<path d="M33.8399 56.4195C33.5099 56.8695 33.1399 57.2895 32.7499 57.6695C32.4199 57.9895 32.0899 58.2795 31.7399 58.5295C31.7199 58.5495 31.6999 58.5595 31.6799 58.5695C30.6699 59.2795 27.82 59.0295 27.72 58.2295C27.71 58.1295 27.6899 58.0195 27.6699 57.9195C27.6599 57.8395 27.6399 57.7495 27.6199 57.6595C27.5399 57.2595 27.4099 56.8295 27.2099 56.3795C27.1699 56.2795 27.1299 56.1895 27.0799 56.0895C26.9999 55.9195 26.9199 55.7495 26.8199 55.5795C26.7799 55.5095 26.7399 55.4395 26.6999 55.3695C26.4599 54.9495 26.1599 54.5295 25.7999 54.0895C25.6899 53.9595 25.58 53.8295 25.47 53.7095C25.19 53.4095 24.8799 53.0995 24.5399 52.7795C24.3799 52.6295 24.22 52.4795 24.03 52.3295C21.44 50.1695 20.8699 48.7795 21.0899 47.3895C21.1799 46.8295 21.3899 46.2595 21.6499 45.6395C22.0299 44.7595 23.2499 43.7295 25.6399 42.8395H34.78L35.0499 45.5995C35.1699 46.7895 35.4399 47.9795 35.8099 49.1595C36.5099 51.3395 35.4999 54.2295 33.8399 56.4195Z" fill="#F2E23D"/>
<path d="M33.8399 56.4195C33.5099 56.8695 33.1399 57.2895 32.7499 57.6695C32.4199 57.9895 32.0899 58.2795 31.7399 58.5295C31.7199 58.5495 31.6999 58.5595 31.6799 58.5695C30.6699 59.2795 27.82 59.0295 27.72 58.2295C27.71 58.1295 27.6899 58.0195 27.6699 57.9195C27.6599 57.8395 27.6399 57.7495 27.6199 57.6595C27.5399 57.2595 27.4099 56.8295 27.2099 56.3795C27.1699 56.2795 27.1299 56.1895 27.0799 56.0895C26.9999 55.9195 26.9199 55.7495 26.8199 55.5795C26.7799 55.5095 26.7399 55.4395 26.6999 55.3695C26.4599 54.9495 26.1599 54.5295 25.7999 54.0895C25.6899 53.9595 25.58 53.8295 25.47 53.7095C25.19 53.4095 24.8799 53.0995 24.5399 52.7795C24.3799 52.6295 24.22 52.4795 24.03 52.3295C21.44 50.1695 20.8699 48.7795 21.0899 47.3895C22.2599 48.2395 23.7 49.1896 25.47 50.2596C27.99 51.7696 31.1399 53.9795 33.8399 56.4195Z" fill="#D9AF04"/>
<path d="M33.8399 29.2695C33.5099 28.8195 33.1399 28.3995 32.7499 28.0195C32.4199 27.6995 32.0899 27.4095 31.7399 27.1595C31.7199 27.1395 31.6999 27.1295 31.6799 27.1195C30.6699 26.4095 27.82 26.6595 27.72 27.4595C27.71 27.5595 27.6899 27.6695 27.6699 27.7695C27.6599 27.8495 27.6399 27.9395 27.6199 28.0295C27.5399 28.4295 27.4099 28.8595 27.2099 29.3095C27.1699 29.4095 27.1299 29.4995 27.0799 29.5995C26.9999 29.7695 26.9199 29.9395 26.8199 30.1095C26.7799 30.1795 26.7399 30.2495 26.6999 30.3195C26.4599 30.7295 26.1599 31.1595 25.7999 31.5995C25.6899 31.7295 25.58 31.8595 25.47 31.9795C25.19 32.2795 24.8799 32.5895 24.5399 32.9095C24.3799 33.0595 24.22 33.2095 24.03 33.3595C21.44 35.5195 20.8699 36.9095 21.0899 38.2995C21.1799 38.8595 21.3899 39.4295 21.6499 40.0495C22.0299 40.9295 23.2499 41.9595 25.6399 42.8495H34.78L35.0499 40.0895C35.1699 38.8995 35.4399 37.7095 35.8099 36.5295C36.5099 34.3495 35.4999 31.4595 33.8399 29.2695Z" fill="#F2E23D"/>
<path d="M33.8399 29.2695C33.5099 28.8195 33.1399 28.3995 32.7499 28.0195C32.4199 27.6995 32.0899 27.4095 31.7399 27.1595C31.7199 27.1395 31.6999 27.1295 31.6799 27.1195C30.6699 26.4095 27.82 26.6595 27.72 27.4595C27.71 27.5595 27.6899 27.6695 27.6699 27.7695C27.6599 27.8495 27.6399 27.9395 27.6199 28.0295C27.5399 28.4295 27.4099 28.8595 27.2099 29.3095C27.1699 29.4095 27.1299 29.4995 27.0799 29.5995C26.9999 29.7695 26.9199 29.9395 26.8199 30.1095C26.7799 30.1795 26.7399 30.2495 26.6999 30.3195C26.4599 30.7295 26.1599 31.1595 25.7999 31.5995C25.6899 31.7295 25.58 31.8595 25.47 31.9795C25.19 32.2795 24.8799 32.5895 24.5399 32.9095C24.3799 33.0595 24.22 33.2095 24.03 33.3595C21.44 35.5195 20.8699 36.9095 21.0899 38.2995C22.2599 37.4495 23.7 36.4995 25.47 35.4295C27.99 33.9195 31.1399 31.7095 33.8399 29.2695Z" fill="#D9AF04"/>
<path d="M44.5299 43.3195C44.9999 43.1795 44.9999 42.5095 44.5299 42.3695L41.7299 41.5595V42.8495V44.1395L44.5299 43.3195Z" fill="#D9AF04"/>
<path d="M30.0399 36.9995C27.4499 36.9995 25.0399 37.3695 23.0499 37.9995C20.3299 38.8695 17.5399 39.4995 14.6899 39.6895C11.6199 39.8995 8.15989 40.0295 6.55989 39.8095C5.81989 39.7095 5.07988 39.5795 4.35988 39.4295C4.16988 39.3895 3.98989 39.3495 3.80989 39.2995C3.39989 39.1995 2.99987 39.0995 2.59987 38.9795C2.36987 38.9195 2.13987 38.8495 1.90987 38.7695C1.86987 38.7695 1.82987 38.7495 1.78987 38.7395C1.03987 38.4995 0.479883 39.4195 0.989883 39.9895C0.999883 40.0095 1.00992 40.0195 1.02992 40.0395C1.53992 40.5395 1.95989 40.9695 2.30989 41.3295C3.31989 42.3795 3.70991 42.8495 3.70991 42.8495C3.70991 42.8495 3.36991 43.3595 2.44991 44.3595C2.43991 44.3795 2.41987 44.3995 2.40987 44.4095C2.30987 44.5095 2.20988 44.6195 2.10988 44.7295C2.09988 44.7395 2.09991 44.7495 2.07991 44.7595C1.92991 44.9195 1.75991 45.0995 1.57991 45.2795L1.27992 45.5795C0.699922 46.1495 1.26987 47.1095 2.03987 46.8695C2.61987 46.6895 3.20989 46.5295 3.80989 46.3895C4.06989 46.3195 4.33988 46.2595 4.60988 46.2095C5.35988 46.0595 6.10989 45.9395 6.86989 45.8395C8.62989 45.6095 12.9399 45.8895 16.3499 46.2195C18.7199 46.4495 21.0399 46.9995 23.3099 47.6895C25.2499 48.2795 27.5599 48.6195 30.0399 48.6195C36.9099 48.6195 42.4799 46.0195 42.4799 42.8095C42.4799 39.5995 36.9099 36.9995 30.0399 36.9995Z" fill="#F2E23D"/>
<path d="M4.1899 45.5395C4.0499 45.8295 3.91989 46.1195 3.80989 46.3895C3.20989 46.5295 2.61987 46.6895 2.03987 46.8695C1.26987 47.1095 0.699922 46.1495 1.27992 45.5795L1.57991 45.2795C1.75991 45.0995 1.92991 44.9195 2.07991 44.7595C2.09991 44.7495 2.09988 44.7395 2.10988 44.7295C2.19988 44.6395 2.26987 44.5595 2.34987 44.4795C2.36987 44.4595 2.38987 44.4395 2.40987 44.4095C2.41987 44.3995 2.43991 44.3795 2.44991 44.3595C3.17991 43.4695 3.11989 42.1695 2.30989 41.3295C1.95989 40.9695 1.53992 40.5395 1.02992 40.0395C1.00992 40.0195 0.999883 40.0095 0.989883 39.9895C0.479883 39.4195 1.03987 38.4995 1.78987 38.7395C1.82987 38.7495 1.86987 38.7695 1.90987 38.7695C2.13987 38.8495 2.36987 38.9195 2.59987 38.9795C2.99987 39.0995 3.39989 39.1995 3.80989 39.2995C3.91989 39.5795 4.0499 39.8695 4.1899 40.1495C5.0099 41.8595 5.0099 43.8395 4.1899 45.5395Z" fill="#D9AF04"/>
</svg>
