<svg width="46" height="86" viewBox="0 0 46 86" fill="none" xmlns="http://www.w3.org/2000/svg">
<path d="M34.24 61.3095C33.91 61.9195 33.5399 62.4895 33.1499 62.9995C32.8199 63.4295 32.4899 63.8295 32.1399 64.1695C32.1199 64.1895 32.0999 64.2095 32.0799 64.2295C31.0699 65.1995 28.22 64.8595 28.12 63.7695C28.11 63.6295 28.0899 63.4895 28.0699 63.3495C28.0599 63.2395 28.0399 63.1195 28.0199 62.9995C27.9399 62.4595 27.81 61.8695 27.61 61.2595C27.57 61.1295 27.53 60.9995 27.48 60.8595C27.4 60.6295 27.32 60.3995 27.22 60.1695C27.18 60.0795 27.14 59.9795 27.1 59.8895C26.86 59.3295 26.5599 58.7495 26.1999 58.1495C26.0899 57.9795 25.98 57.7995 25.87 57.6295C25.59 57.2195 25.2799 56.7995 24.9399 56.3695C24.7799 56.1595 24.6199 55.9595 24.4299 55.7495C21.8399 52.8095 21.27 50.9295 21.49 49.0395C21.58 48.2695 21.7899 47.4995 22.0499 46.6595C22.4299 45.4695 23.6499 44.0595 26.0399 42.8595H35.1799L35.4499 46.6195C35.5699 48.2395 35.8399 49.8595 36.2099 51.4595C36.9099 54.3995 35.9 58.3395 34.24 61.3095Z" fill="#F2E23D"/>
<path d="M34.24 61.3095C33.91 61.9195 33.5399 62.4895 33.1499 62.9995C32.8199 63.4295 32.4899 63.8295 32.1399 64.1695C32.1199 64.1895 32.0999 64.2095 32.0799 64.2295C31.0699 65.1995 28.22 64.8595 28.12 63.7695C28.11 63.6295 28.0899 63.4895 28.0699 63.3495C28.0599 63.2395 28.0399 63.1195 28.0199 62.9995C27.9399 62.4595 27.81 61.8696 27.61 61.2596C27.57 61.1296 27.53 60.9995 27.48 60.8595C27.4 60.6295 27.32 60.3995 27.22 60.1695C27.18 60.0795 27.14 59.9795 27.1 59.8895C26.86 59.3295 26.5599 58.7495 26.1999 58.1495C26.0899 57.9795 25.98 57.7995 25.87 57.6295C25.59 57.2195 25.2799 56.7995 24.9399 56.3695C24.7799 56.1595 24.6199 55.9595 24.4299 55.7495C21.8399 52.8095 21.27 50.9296 21.49 49.0396C22.66 50.1996 24.1 51.4895 25.87 52.9395C28.39 54.9895 31.54 57.9895 34.24 61.3095Z" fill="#D9AF04"/>
<path d="M34.24 24.3795C33.91 23.7695 33.5399 23.1995 33.1499 22.6895C32.8199 22.2595 32.4899 21.8595 32.1399 21.5195C32.1199 21.4995 32.0999 21.4795 32.0799 21.4595C31.0699 20.4895 28.22 20.8295 28.12 21.9195C28.11 22.0595 28.0899 22.1995 28.0699 22.3395C28.0599 22.4495 28.0399 22.5695 28.0199 22.6895C27.9399 23.2295 27.81 23.8195 27.61 24.4295C27.57 24.5595 27.53 24.6895 27.48 24.8295C27.4 25.0595 27.32 25.2895 27.22 25.5195C27.18 25.6095 27.14 25.7095 27.1 25.7995C26.86 26.3595 26.5599 26.9395 26.1999 27.5395C26.0899 27.7095 25.98 27.8895 25.87 28.0595C25.59 28.4695 25.2799 28.8895 24.9399 29.3195C24.7799 29.5295 24.6199 29.7295 24.4299 29.9395C21.8399 32.8795 21.27 34.7595 21.49 36.6495C21.58 37.4195 21.7899 38.1895 22.0499 39.0295C22.4299 40.2195 23.6499 41.6295 26.0399 42.8295H35.1799L35.4499 39.0695C35.5699 37.4495 35.8399 35.8295 36.2099 34.2295C36.9099 31.2895 35.9 27.3595 34.24 24.3795Z" fill="#F2E23D"/>
<path d="M34.24 24.3795C33.91 23.7695 33.5399 23.1995 33.1499 22.6895C32.8199 22.2595 32.4899 21.8595 32.1399 21.5195C32.1199 21.4995 32.0999 21.4795 32.0799 21.4595C31.0699 20.4895 28.22 20.8295 28.12 21.9195C28.11 22.0595 28.0899 22.1995 28.0699 22.3395C28.0599 22.4495 28.0399 22.5695 28.0199 22.6895C27.9399 23.2295 27.81 23.8195 27.61 24.4295C27.57 24.5595 27.53 24.6895 27.48 24.8295C27.4 25.0595 27.32 25.2895 27.22 25.5195C27.18 25.6095 27.14 25.7095 27.1 25.7995C26.86 26.3595 26.5599 26.9395 26.1999 27.5395C26.0899 27.7095 25.98 27.8895 25.87 28.0595C25.59 28.4695 25.2799 28.8895 24.9399 29.3195C24.7799 29.5295 24.6199 29.7295 24.4299 29.9395C21.8399 32.8795 21.27 34.7595 21.49 36.6495C22.66 35.4895 24.1 34.1995 25.87 32.7495C28.39 30.6995 31.54 27.6995 34.24 24.3795Z" fill="#D9AF04"/>
<path d="M44.9299 43.3195C45.3999 43.1795 45.3999 42.5095 44.9299 42.3695L42.1299 41.5595V42.8495V44.1395L44.9299 43.3195Z" fill="#D9AF04"/>
<path d="M30.4399 36.9995C27.8499 36.9995 25.44 37.3695 23.45 37.9995C20.73 38.8695 17.94 39.4995 15.09 39.6895C12.02 39.8995 8.55997 40.0295 6.95997 39.8095C6.21997 39.7095 5.47989 39.5795 4.75989 39.4295C4.56989 39.3895 4.38997 39.3495 4.20997 39.2995C3.79997 39.1995 3.4 39.0995 3 38.9795C2.77 38.9195 2.53994 38.8495 2.30994 38.7695C2.26994 38.7695 2.22995 38.7495 2.18995 38.7395C1.43995 38.4995 0.879897 39.4195 1.3899 39.9895C1.3999 40.0095 1.40994 40.0195 1.42994 40.0395C1.93994 40.5395 2.35997 40.9695 2.70997 41.3295C3.71997 42.3795 4.10999 42.8495 4.10999 42.8495C4.10999 42.8495 3.76998 43.3595 2.84998 44.3595C2.83998 44.3795 2.81994 44.3995 2.80994 44.4095C2.70994 44.5095 2.60989 44.6195 2.50989 44.7295C2.49989 44.7395 2.49998 44.7495 2.47998 44.7595C2.32998 44.9195 2.15998 45.0995 1.97998 45.2795L1.67994 45.5795C1.09994 46.1495 1.66995 47.1095 2.43995 46.8695C3.01995 46.6895 3.60997 46.5295 4.20997 46.3895C4.46997 46.3195 4.73989 46.2595 5.00989 46.2095C5.75989 46.0595 6.5099 45.9395 7.2699 45.8395C9.0299 45.6095 13.34 45.8895 16.75 46.2195C19.12 46.4495 21.44 46.9995 23.71 47.6895C25.65 48.2795 27.9599 48.6195 30.4399 48.6195C37.3099 48.6195 42.8799 46.0195 42.8799 42.8095C42.8899 39.5995 37.3099 36.9995 30.4399 36.9995Z" fill="#F2E23D"/>
<path d="M4.58997 45.5395C4.44997 45.8295 4.31997 46.1195 4.20997 46.3895C3.60997 46.5295 3.01995 46.6895 2.43995 46.8695C1.66995 47.1095 1.09994 46.1495 1.67994 45.5795L1.97998 45.2795C2.15998 45.0995 2.32998 44.9195 2.47998 44.7595C2.49998 44.7495 2.49989 44.7395 2.50989 44.7295C2.59989 44.6395 2.67 44.5595 2.75 44.4795C2.77 44.4595 2.78994 44.4395 2.80994 44.4095C2.81994 44.3995 2.83998 44.3795 2.84998 44.3595C3.57998 43.4695 3.51997 42.1695 2.70997 41.3295C2.35997 40.9695 1.93994 40.5395 1.42994 40.0395C1.40994 40.0195 1.3999 40.0095 1.3899 39.9895C0.879897 39.4195 1.43995 38.4995 2.18995 38.7395C2.22995 38.7495 2.26994 38.7695 2.30994 38.7695C2.53994 38.8495 2.77 38.9195 3 38.9795C3.4 39.0995 3.79997 39.1995 4.20997 39.2995C4.31997 39.5795 4.44997 39.8695 4.58997 40.1495C5.41997 41.8595 5.41997 43.8395 4.58997 45.5395Z" fill="#D9AF04"/>
</svg>
