<svg width="45" height="86" viewBox="0 0 45 86" fill="none" xmlns="http://www.w3.org/2000/svg">
<path d="M33.49 65.5195C33.16 66.2695 32.7899 66.9695 32.3999 67.5995C32.0699 68.1295 31.7399 68.6195 31.3899 69.0295C31.3699 69.0595 31.3499 69.0795 31.3299 69.0995C30.3199 70.2895 27.47 69.8795 27.37 68.5295C27.36 68.3595 27.3399 68.1895 27.3199 68.0095C27.3099 67.8695 27.2899 67.7195 27.2699 67.5795C27.1899 66.9095 27.06 66.1895 26.86 65.4395C26.82 65.2795 26.78 65.1195 26.73 64.9495C26.65 64.6695 26.57 64.3895 26.47 64.0995C26.43 63.9895 26.39 63.8695 26.35 63.7495C26.11 63.0595 25.8099 62.3395 25.4499 61.6195C25.3399 61.4095 25.23 61.1895 25.12 60.9795C24.84 60.4695 24.5299 59.9595 24.1899 59.4295C24.0299 59.1795 23.8699 58.9295 23.6799 58.6695C21.0899 55.0595 20.52 52.7495 20.74 50.4195C20.83 49.4795 21.0399 48.5295 21.2999 47.4895C21.6799 46.0295 22.8999 44.2995 25.2899 42.8195H34.4299L34.6999 47.4395C34.8199 49.4195 35.0899 51.4195 35.4599 53.3895C36.1599 57.0295 35.15 61.8695 33.49 65.5195Z" fill="#F2E23D"/>
<path d="M33.49 65.5195C33.16 66.2695 32.7899 66.9695 32.3999 67.5995C32.0699 68.1295 31.7399 68.6195 31.3899 69.0295C31.3699 69.0595 31.3499 69.0795 31.3299 69.0995C30.3199 70.2895 27.47 69.8795 27.37 68.5295C27.36 68.3595 27.3399 68.1895 27.3199 68.0095C27.3099 67.8695 27.2899 67.7195 27.2699 67.5795C27.1899 66.9095 27.06 66.1895 26.86 65.4395C26.82 65.2795 26.78 65.1195 26.73 64.9495C26.65 64.6695 26.57 64.3895 26.47 64.0995C26.43 63.9895 26.39 63.8695 26.35 63.7495C26.11 63.0595 25.8099 62.3395 25.4499 61.6195C25.3399 61.4095 25.23 61.1895 25.12 60.9795C24.84 60.4695 24.5299 59.9595 24.1899 59.4295C24.0299 59.1795 23.8699 58.9295 23.6799 58.6695C21.0899 55.0595 20.52 52.7495 20.74 50.4195C21.91 51.8495 23.35 53.4295 25.12 55.2095C27.64 57.7595 30.79 61.4495 33.49 65.5195Z" fill="#D9AF04"/>
<path d="M33.49 20.1695C33.16 19.4195 32.7899 18.7195 32.3999 18.0895C32.0699 17.5595 31.7399 17.0695 31.3899 16.6595C31.3699 16.6295 31.3499 16.6095 31.3299 16.5895C30.3199 15.3995 27.47 15.8095 27.37 17.1595C27.36 17.3295 27.3399 17.4995 27.3199 17.6795C27.3099 17.8195 27.2899 17.9695 27.2699 18.1095C27.1899 18.7795 27.06 19.4995 26.86 20.2495C26.82 20.4095 26.78 20.5695 26.73 20.7395C26.65 21.0195 26.57 21.2995 26.47 21.5895C26.43 21.6995 26.39 21.8195 26.35 21.9395C26.11 22.6295 25.8099 23.3495 25.4499 24.0695C25.3399 24.2795 25.23 24.4995 25.12 24.7095C24.84 25.2195 24.5299 25.7295 24.1899 26.2595C24.0299 26.5095 23.8699 26.7595 23.6799 27.0195C21.0899 30.6295 20.52 32.9395 20.74 35.2695C20.83 36.2095 21.0399 37.1595 21.2999 38.1995C21.6799 39.6595 22.8999 41.3895 25.2899 42.8695H34.4299L34.6999 38.2495C34.8199 36.2695 35.0899 34.2695 35.4599 32.2995C36.1599 28.6595 35.15 23.8195 33.49 20.1695Z" fill="#F2E23D"/>
<path d="M33.49 20.1695C33.16 19.4195 32.7899 18.7195 32.3999 18.0895C32.0699 17.5595 31.7399 17.0695 31.3899 16.6595C31.3699 16.6295 31.3499 16.6095 31.3299 16.5895C30.3199 15.3995 27.47 15.8095 27.37 17.1595C27.36 17.3295 27.3399 17.4995 27.3199 17.6795C27.3099 17.8195 27.2899 17.9695 27.2699 18.1095C27.1899 18.7795 27.06 19.4995 26.86 20.2495C26.82 20.4095 26.78 20.5695 26.73 20.7395C26.65 21.0195 26.57 21.2995 26.47 21.5895C26.43 21.6995 26.39 21.8195 26.35 21.9395C26.11 22.6295 25.8099 23.3495 25.4499 24.0695C25.3399 24.2795 25.23 24.4995 25.12 24.7095C24.84 25.2195 24.5299 25.7295 24.1899 26.2595C24.0299 26.5095 23.8699 26.7595 23.6799 27.0195C21.0899 30.6295 20.52 32.9395 20.74 35.2695C21.91 33.8395 23.35 32.2595 25.12 30.4795C27.64 27.9295 30.79 24.2395 33.49 20.1695Z" fill="#D9AF04"/>
<path d="M44.1799 43.3195C44.6499 43.1795 44.6499 42.5095 44.1799 42.3695L41.3799 41.5595V42.8495V44.1395L44.1799 43.3195Z" fill="#D9AF04"/>
<path d="M29.6899 36.9995C27.0999 36.9995 24.69 37.3695 22.7 37.9995C19.98 38.8695 17.19 39.4995 14.34 39.6895C11.27 39.8995 7.80997 40.0295 6.20997 39.8095C5.46997 39.7095 4.72989 39.5795 4.00989 39.4295C3.81989 39.3895 3.63997 39.3495 3.45997 39.2995C3.04997 39.1995 2.65 39.0995 2.25 38.9795C2.02 38.9195 1.78994 38.8495 1.55994 38.7695C1.51994 38.7695 1.47995 38.7495 1.43995 38.7395C0.689946 38.4995 0.129897 39.4195 0.639897 39.9895C0.649897 40.0095 0.659936 40.0195 0.679936 40.0395C1.18994 40.5395 1.60997 40.9695 1.95997 41.3295C2.96997 42.3795 3.35999 42.8495 3.35999 42.8495C3.35999 42.8495 3.01998 43.3595 2.09998 44.3595C2.08998 44.3795 2.06994 44.3995 2.05994 44.4095C1.95994 44.5095 1.85989 44.6195 1.75989 44.7295C1.74989 44.7395 1.74998 44.7495 1.72998 44.7595C1.57998 44.9195 1.40998 45.0995 1.22998 45.2795L0.929936 45.5795C0.349936 46.1495 0.919946 47.1095 1.68995 46.8695C2.26995 46.6895 2.85997 46.5295 3.45997 46.3895C3.71997 46.3195 3.98989 46.2595 4.25989 46.2095C5.00989 46.0595 5.7599 45.9395 6.5199 45.8395C8.2799 45.6095 12.59 45.8895 16 46.2195C18.37 46.4495 20.69 46.9995 22.96 47.6895C24.9 48.2795 27.2099 48.6195 29.6899 48.6195C36.5599 48.6195 42.1299 46.0195 42.1299 42.8095C42.1299 39.5995 36.5599 36.9995 29.6899 36.9995Z" fill="#F2E23D"/>
<path d="M3.83997 45.5395C3.69997 45.8295 3.56997 46.1195 3.45997 46.3895C2.85997 46.5295 2.26995 46.6895 1.68995 46.8695C0.919946 47.1095 0.349936 46.1495 0.929936 45.5795L1.22998 45.2795C1.40998 45.0995 1.57998 44.9195 1.72998 44.7595C1.74998 44.7495 1.74989 44.7395 1.75989 44.7295C1.84989 44.6395 1.92 44.5595 2 44.4795C2.02 44.4595 2.03994 44.4395 2.05994 44.4095C2.06994 44.3995 2.08998 44.3795 2.09998 44.3595C2.82998 43.4695 2.76997 42.1695 1.95997 41.3295C1.60997 40.9695 1.18994 40.5395 0.679936 40.0395C0.659936 40.0195 0.649897 40.0095 0.639897 39.9895C0.129897 39.4195 0.689946 38.4995 1.43995 38.7395C1.47995 38.7495 1.51994 38.7695 1.55994 38.7695C1.78994 38.8495 2.02 38.9195 2.25 38.9795C2.65 39.0995 3.04997 39.1995 3.45997 39.2995C3.56997 39.5795 3.69997 39.8695 3.83997 40.1495C4.66997 41.8595 4.66997 43.8395 3.83997 45.5395Z" fill="#D9AF04"/>
</svg>
