<svg width="45" height="86" viewBox="0 0 45 86" fill="none" xmlns="http://www.w3.org/2000/svg">
<path d="M33.47 74.3095C33.14 75.3495 32.7699 76.3195 32.3799 77.1995C32.0499 77.9295 31.72 78.6095 31.37 79.1895C31.35 79.2295 31.3299 79.2595 31.3099 79.2895C30.2999 80.9395 27.45 80.3695 27.35 78.4995C27.34 78.2595 27.3199 78.0195 27.2999 77.7795C27.2899 77.5895 27.27 77.3795 27.25 77.1795C27.17 76.2495 27.04 75.2595 26.84 74.2095C26.8 73.9895 26.7599 73.7595 26.7099 73.5295C26.6299 73.1395 26.5499 72.7495 26.4499 72.3595C26.4099 72.1995 26.3699 72.0395 26.3299 71.8695C26.0899 70.9095 25.7899 69.9195 25.4299 68.9095C25.3199 68.6195 25.21 68.3195 25.1 68.0295C24.82 67.3195 24.5099 66.6095 24.1699 65.8795C24.0099 65.5295 23.8499 65.1795 23.6599 64.8295C21.0699 59.8195 20.5 56.6095 20.72 53.3895C20.81 52.0795 21.0199 50.7695 21.2799 49.3295C21.6599 47.2995 22.8799 44.9095 25.2699 42.8495H34.4099L34.6799 49.2595C34.7999 52.0095 35.0699 54.7795 35.4399 57.5195C36.1399 62.5295 35.13 69.2395 33.47 74.3095Z" fill="#F2E23D"/>
<path d="M33.47 74.3095C33.14 75.3495 32.7699 76.3195 32.3799 77.1995C32.0499 77.9295 31.72 78.6095 31.37 79.1895C31.35 79.2295 31.3299 79.2595 31.3099 79.2895C30.2999 80.9395 27.45 80.3695 27.35 78.4995C27.34 78.2595 27.3199 78.0195 27.2999 77.7795C27.2899 77.5895 27.27 77.3795 27.25 77.1795C27.17 76.2495 27.04 75.2595 26.84 74.2095C26.8 73.9895 26.7599 73.7595 26.7099 73.5295C26.6299 73.1395 26.5499 72.7495 26.4499 72.3595C26.4099 72.1995 26.3699 72.0395 26.3299 71.8695C26.0899 70.9095 25.7899 69.9195 25.4299 68.9095C25.3199 68.6195 25.21 68.3195 25.1 68.0295C24.82 67.3195 24.5099 66.6095 24.1699 65.8795C24.0099 65.5295 23.8499 65.1795 23.6599 64.8295C21.0699 59.8195 20.5 56.6095 20.72 53.3895C21.89 55.3695 23.33 57.5695 25.1 60.0395C27.62 63.5395 30.77 68.6595 33.47 74.3095Z" fill="#D9AF04"/>
<path d="M33.47 11.3795C33.14 10.3395 32.7699 9.36948 32.3799 8.48948C32.0499 7.75948 31.72 7.07949 31.37 6.49949C31.35 6.45949 31.3299 6.42948 31.3099 6.39948C30.2999 4.74948 27.45 5.31949 27.35 7.18949C27.34 7.42949 27.3199 7.66949 27.2999 7.90949C27.2899 8.09949 27.27 8.3095 27.25 8.5095C27.17 9.4395 27.04 10.4295 26.84 11.4795C26.8 11.6995 26.7599 11.9295 26.7099 12.1595C26.6299 12.5495 26.5499 12.9395 26.4499 13.3295C26.4099 13.4895 26.3699 13.6495 26.3299 13.8195C26.0899 14.7795 25.7899 15.7695 25.4299 16.7795C25.3199 17.0695 25.21 17.3695 25.1 17.6595C24.82 18.3695 24.5099 19.0795 24.1699 19.8095C24.0099 20.1595 23.8499 20.5095 23.6599 20.8595C21.0699 25.8695 20.5 29.0795 20.72 32.2995C20.81 33.6095 21.0199 34.9195 21.2799 36.3595C21.6599 38.3895 22.8799 40.7795 25.2699 42.8395H34.4099L34.6799 36.4295C34.7999 33.6795 35.0699 30.9095 35.4399 28.1695C36.1399 23.1595 35.13 16.4495 33.47 11.3795Z" fill="#F2E23D"/>
<path d="M33.47 11.3795C33.14 10.3395 32.7699 9.36948 32.3799 8.48948C32.0499 7.75948 31.72 7.07949 31.37 6.49949C31.35 6.45949 31.3299 6.42948 31.3099 6.39948C30.2999 4.74948 27.45 5.31949 27.35 7.18949C27.34 7.42949 27.3199 7.66949 27.2999 7.90949C27.2899 8.09949 27.27 8.3095 27.25 8.5095C27.17 9.4395 27.04 10.4295 26.84 11.4795C26.8 11.6995 26.7599 11.9295 26.7099 12.1595C26.6299 12.5495 26.5499 12.9395 26.4499 13.3295C26.4099 13.4895 26.3699 13.6495 26.3299 13.8195C26.0899 14.7795 25.7899 15.7695 25.4299 16.7795C25.3199 17.0695 25.21 17.3695 25.1 17.6595C24.82 18.3695 24.5099 19.0795 24.1699 19.8095C24.0099 20.1595 23.8499 20.5095 23.6599 20.8595C21.0699 25.8695 20.5 29.0795 20.72 32.2995C21.89 30.3195 23.33 28.1195 25.1 25.6495C27.62 22.1495 30.77 17.0295 33.47 11.3795Z" fill="#D9AF04"/>
<path d="M44.1599 43.3195C44.6299 43.1795 44.6299 42.5095 44.1599 42.3695L41.36 41.5595V42.8495V44.1395L44.1599 43.3195Z" fill="#D9AF04"/>
<path d="M29.6699 36.9995C27.0799 36.9995 24.67 37.3695 22.68 37.9995C19.96 38.8695 17.17 39.4995 14.32 39.6895C11.25 39.8995 7.78997 40.0295 6.18997 39.8095C5.44997 39.7095 4.71002 39.5795 3.99002 39.4295C3.80002 39.3895 3.61997 39.3495 3.43997 39.2995C3.02997 39.1995 2.63001 39.0995 2.23001 38.9795C2.00001 38.9195 1.76994 38.8495 1.53994 38.7695C1.49994 38.7695 1.45995 38.7495 1.41995 38.7395C0.669948 38.4995 0.110021 39.4195 0.620021 39.9895C0.630021 40.0095 0.639938 40.0195 0.659938 40.0395C1.16994 40.5395 1.58997 40.9695 1.93997 41.3295C2.94997 42.3795 3.33999 42.8495 3.33999 42.8495C3.33999 42.8495 2.99998 43.3595 2.07998 44.3595C2.06998 44.3795 2.04994 44.3995 2.03994 44.4095C1.93994 44.5095 1.84002 44.6195 1.74002 44.7295C1.73002 44.7395 1.72999 44.7495 1.70999 44.7595C1.55999 44.9195 1.38999 45.0995 1.20999 45.2795L0.909938 45.5795C0.329938 46.1495 0.899948 47.1095 1.66995 46.8695C2.24995 46.6895 2.83997 46.5295 3.43997 46.3895C3.69997 46.3195 3.97002 46.2595 4.24002 46.2095C4.99002 46.0595 5.74003 45.9395 6.50003 45.8395C8.26003 45.6095 12.57 45.8895 15.98 46.2195C18.35 46.4495 20.67 46.9995 22.94 47.6895C24.88 48.2795 27.1899 48.6195 29.6699 48.6195C36.5399 48.6195 42.11 46.0195 42.11 42.8095C42.11 39.5995 36.5399 36.9995 29.6699 36.9995Z" fill="#F2E23D"/>
<path d="M3.81997 45.5395C3.67997 45.8295 3.54997 46.1195 3.43997 46.3895C2.83997 46.5295 2.24995 46.6895 1.66995 46.8695C0.899948 47.1095 0.329938 46.1495 0.909938 45.5795L1.20999 45.2795C1.38999 45.0995 1.55999 44.9195 1.70999 44.7595C1.72999 44.7495 1.73002 44.7395 1.74002 44.7295C1.83002 44.6395 1.90001 44.5595 1.98001 44.4795C2.00001 44.4595 2.01994 44.4395 2.03994 44.4095C2.04994 44.3995 2.06998 44.3795 2.07998 44.3595C2.80998 43.4695 2.74997 42.1695 1.93997 41.3295C1.58997 40.9695 1.16994 40.5395 0.659938 40.0395C0.639938 40.0195 0.630021 40.0095 0.620021 39.9895C0.110021 39.4195 0.669948 38.4995 1.41995 38.7395C1.45995 38.7495 1.49994 38.7695 1.53994 38.7695C1.76994 38.8495 2.00001 38.9195 2.23001 38.9795C2.63001 39.0995 3.02997 39.1995 3.43997 39.2995C3.54997 39.5795 3.67997 39.8695 3.81997 40.1495C4.63997 41.8595 4.63997 43.8395 3.81997 45.5395Z" fill="#D9AF04"/>
</svg>
