<svg width="201" height="164" viewBox="0 0 201 164" fill="none" xmlns="http://www.w3.org/2000/svg">
<path d="M137.5 134.729C135.15 134.729 133.24 132.819 133.24 130.469V33.7893C133.24 31.4393 135.15 29.5293 137.5 29.5293H154.32C156.67 29.5293 158.58 31.4393 158.58 33.7893V130.469C158.58 132.819 156.67 134.729 154.32 134.729H137.5Z" fill="#7A542D"/>
<path d="M154.32 30.7995C155.97 30.7995 157.3 32.1395 157.3 33.7795V130.46C157.3 132.11 155.96 133.44 154.32 133.44H137.5C135.85 133.44 134.52 132.1 134.52 130.46V33.7795C134.52 32.1295 135.86 30.7995 137.5 30.7995H154.32ZM154.32 28.2495H137.5C134.44 28.2495 131.96 30.7295 131.96 33.7895V130.469C131.96 133.529 134.44 136.01 137.5 136.01H154.32C157.38 136.01 159.86 133.529 159.86 130.469V33.7895C159.86 30.7295 157.38 28.2495 154.32 28.2495Z" fill="#634425"/>
<path d="M145.91 134.039C147.859 134.039 149.44 132.459 149.44 130.51C149.44 128.56 147.859 126.979 145.91 126.979C143.96 126.979 142.38 128.56 142.38 130.51C142.38 132.459 143.96 134.039 145.91 134.039Z" fill="#A67C52"/>
<path d="M145.91 37.2392C147.859 37.2392 149.44 35.6588 149.44 33.7092C149.44 31.7596 147.859 30.1792 145.91 30.1792C143.96 30.1792 142.38 31.7596 142.38 33.7092C142.38 35.6588 143.96 37.2392 145.91 37.2392Z" fill="#A67C52"/>
<path d="M145.9 35.6993C144.76 35.6993 143.77 34.8493 143.62 33.6893L140.69 10.3493C140.53 9.08934 141.43 7.93934 142.69 7.77934C143.95 7.61934 145.1 8.50934 145.26 9.77934L148.19 33.1193C148.35 34.3793 147.45 35.5293 146.19 35.6893C146.1 35.6993 146 35.6993 145.9 35.6993Z" fill="#4A3A2B"/>
<path d="M142.98 156.489C142.88 156.489 142.79 156.479 142.69 156.469C141.43 156.309 140.54 155.159 140.69 153.899L143.62 130.559C143.78 129.299 144.93 128.409 146.19 128.559C147.45 128.719 148.34 129.869 148.19 131.129L145.26 154.469C145.12 155.639 144.13 156.489 142.98 156.489Z" fill="#4A3A2B"/>
<path d="M170.81 134.729C168.46 134.729 166.55 132.819 166.55 130.469V33.7893C166.55 31.4393 168.46 29.5293 170.81 29.5293H193.21C195.56 29.5293 197.47 31.4393 197.47 33.7893V130.469C197.47 132.819 195.56 134.729 193.21 134.729H170.81Z" fill="#7A542D"/>
<path d="M193.21 30.7995C194.86 30.7995 196.19 32.1395 196.19 33.7795V130.46C196.19 132.11 194.85 133.44 193.21 133.44H170.81C169.16 133.44 167.83 132.1 167.83 130.46V33.7795C167.83 32.1295 169.17 30.7995 170.81 30.7995H193.21ZM193.21 28.2495H170.81C167.75 28.2495 165.27 30.7295 165.27 33.7895V130.469C165.27 133.529 167.75 136.01 170.81 136.01H193.21C196.27 136.01 198.75 133.529 198.75 130.469V33.7895C198.75 30.7295 196.27 28.2495 193.21 28.2495Z" fill="#634425"/>
<path d="M182.01 134.039C183.96 134.039 185.54 132.459 185.54 130.51C185.54 128.56 183.96 126.979 182.01 126.979C180.06 126.979 178.48 128.56 178.48 130.51C178.48 132.459 180.06 134.039 182.01 134.039Z" fill="#A67C52"/>
<path d="M182.01 37.2392C183.96 37.2392 185.54 35.6588 185.54 33.7092C185.54 31.7596 183.96 30.1792 182.01 30.1792C180.06 30.1792 178.48 31.7596 178.48 33.7092C178.48 35.6588 180.06 37.2392 182.01 37.2392Z" fill="#A67C52"/>
<path d="M182.01 35.6994C180.83 35.6994 179.83 34.7994 179.72 33.5994L177.79 11.7894C177.68 10.5294 178.61 9.40936 179.88 9.29936C181.14 9.18936 182.26 10.1194 182.37 11.3894L184.3 33.1994C184.41 34.4594 183.48 35.5794 182.21 35.6894C182.15 35.6994 182.08 35.6994 182.01 35.6994Z" fill="#4A3A2B"/>
<path d="M180.08 154.949C180.01 154.949 179.94 154.949 179.87 154.939C178.61 154.829 177.67 153.709 177.78 152.449L179.71 130.639C179.82 129.379 180.94 128.449 182.2 128.549C183.46 128.659 184.4 129.779 184.29 131.039L182.36 152.849C182.26 154.049 181.26 154.949 180.08 154.949Z" fill="#4A3A2B"/>
<path d="M123.46 5.51953L122.94 12.0995C123.43 12.1395 153.74 14.4795 200.78 16.2695V9.66956C154.03 7.87956 123.94 5.55953 123.46 5.51953Z" fill="#8F704D"/>
<path d="M122.94 152.159L123.46 158.74C123.94 158.7 153.89 156.37 200.78 154.58V147.979C153.59 149.769 123.42 152.119 122.94 152.159Z" fill="#8F704D"/>
<path d="M123.2 15.7296C119.39 15.7296 116.28 12.6196 116.28 8.80963C116.28 4.98963 119.38 1.88965 123.2 1.88965C124.38 1.88965 125.54 2.18964 126.56 2.75964C128.55 3.85964 129.87 5.86964 130.09 8.12964C130.11 8.36964 130.12 8.59963 130.12 8.80963C130.12 9.42963 130.04 10.0396 129.88 10.6196C129.07 13.6296 126.32 15.7296 123.2 15.7296Z" fill="#75512B"/>
<path d="M123.2 3.15939C124.16 3.15939 125.11 3.39938 125.95 3.86938C127.57 4.76938 128.64 6.39938 128.82 8.23938C128.84 8.43938 128.85 8.62938 128.85 8.79938C128.85 9.30938 128.78 9.79939 128.65 10.2794C127.99 12.7294 125.75 14.4394 123.2 14.4394C120.09 14.4394 117.56 11.9094 117.56 8.7894C117.56 5.6894 120.09 3.15939 123.2 3.15939ZM123.2 0.609375C118.67 0.609375 115.01 4.27939 115.01 8.80939C115.01 13.3394 118.68 17.0094 123.2 17.0094C126.99 17.0094 130.17 14.4494 131.11 10.9594C131.3 10.2794 131.4 9.55939 131.4 8.80939C131.4 8.53939 131.38 8.26939 131.36 7.99939C131.09 5.25939 129.48 2.9094 127.19 1.6394C126 0.979404 124.64 0.609375 123.2 0.609375Z" fill="#4A3A2B"/>
<path d="M123.2 162.369C119.38 162.369 116.28 159.259 116.28 155.449C116.28 151.639 119.39 148.529 123.2 148.529C127.02 148.529 130.12 151.639 130.12 155.449C130.12 159.259 127.01 162.369 123.2 162.369Z" fill="#75512B"/>
<path d="M123.2 149.799C126.31 149.799 128.84 152.33 128.84 155.44C128.84 158.55 126.31 161.08 123.2 161.08C120.09 161.08 117.56 158.55 117.56 155.44C117.55 152.34 120.09 149.799 123.2 149.799ZM123.2 147.25C118.67 147.25 115 150.92 115 155.45C115 159.98 118.67 163.65 123.2 163.65C127.73 163.65 131.4 159.98 131.4 155.45C131.4 150.92 127.73 147.25 123.2 147.25Z" fill="#4A3A2B"/>
</svg>
