<svg width="105" height="146" viewBox="0 0 105 146" fill="none" xmlns="http://www.w3.org/2000/svg">
<path d="M9.16016 125.73C6.90016 125.73 5.07031 123.89 5.07031 121.64V24.6198C5.07031 22.3598 6.91016 20.5298 9.16016 20.5298H25.7703C28.0303 20.5298 29.8604 22.3698 29.8604 24.6198V121.64C29.8604 123.9 28.0203 125.73 25.7703 125.73H9.16016Z" fill="#7A542D"/>
<path d="M25.77 21.8C27.32 21.8 28.5801 23.06 28.5801 24.61V121.63C28.5801 123.18 27.32 124.44 25.77 124.44H9.15991C7.60991 124.44 6.3501 123.18 6.3501 121.63V24.61C6.3501 23.06 7.60991 21.8 9.15991 21.8H25.77ZM25.77 19.25H9.15991C6.19991 19.25 3.79004 21.65 3.79004 24.62V121.64C3.79004 124.6 6.18991 127.01 9.15991 127.01H25.77C28.73 127.01 31.1399 124.61 31.1399 121.64V24.62C31.1399 21.65 28.74 19.25 25.77 19.25Z" fill="#634425"/>
<path d="M17.4597 125.04C19.4093 125.04 20.9897 123.46 20.9897 121.51C20.9897 119.56 19.4093 117.98 17.4597 117.98C15.5102 117.98 13.9297 119.56 13.9297 121.51C13.9297 123.46 15.5102 125.04 17.4597 125.04Z" fill="#A67C52"/>
<path d="M17.4597 28.2397C19.4093 28.2397 20.9897 26.6593 20.9897 24.7097C20.9897 22.7601 19.4093 21.1797 17.4597 21.1797C15.5102 21.1797 13.9297 22.7601 13.9297 24.7097C13.9297 26.6593 15.5102 28.2397 17.4597 28.2397Z" fill="#A67C52"/>
<path d="M17.4599 26.6999C16.2599 26.6999 15.2499 25.7698 15.1699 24.5598L13.73 3.96985C13.64 2.69985 14.6001 1.59984 15.8601 1.51984C17.1301 1.43984 18.23 2.38984 18.31 3.64984L19.75 24.2398C19.84 25.5098 18.8801 26.6099 17.6201 26.6899C17.5701 26.6999 17.5099 26.6999 17.4599 26.6999Z" fill="#4A3A2B"/>
<path d="M16.0303 144.74C15.9803 144.74 15.9204 144.74 15.8704 144.73C14.6004 144.64 13.6503 143.54 13.7403 142.28L15.1802 121.69C15.2702 120.42 16.3602 119.47 17.6302 119.56C18.9002 119.65 19.8503 120.75 19.7603 122.01L18.3204 142.6C18.2304 143.82 17.2303 144.74 16.0303 144.74Z" fill="#4A3A2B"/>
<path d="M42.0896 125.73C39.8296 125.73 37.9995 123.89 37.9995 121.64V24.6198C37.9995 22.3598 39.8396 20.5298 42.0896 20.5298H58.6995C60.9595 20.5298 62.7896 22.3698 62.7896 24.6198V121.64C62.7896 123.9 60.9495 125.73 58.6995 125.73H42.0896Z" fill="#7A542D"/>
<path d="M58.7095 21.8C60.2595 21.8 61.5195 23.06 61.5195 24.61V121.63C61.5195 123.18 60.2595 124.44 58.7095 124.44H42.0996C40.5496 124.44 39.2896 123.18 39.2896 121.63V24.61C39.2896 23.06 40.5496 21.8 42.0996 21.8H58.7095ZM58.7095 19.25H42.0996C39.1396 19.25 36.7295 21.65 36.7295 24.62V121.64C36.7295 124.6 39.1296 127.01 42.0996 127.01H58.7095C61.6695 127.01 64.0796 124.61 64.0796 121.64V24.62C64.0796 21.65 61.6695 19.25 58.7095 19.25Z" fill="#634425"/>
<path d="M50.4895 125.04C52.4391 125.04 54.0195 123.46 54.0195 121.51C54.0195 119.56 52.4391 117.98 50.4895 117.98C48.5399 117.98 46.9595 119.56 46.9595 121.51C46.9595 123.46 48.5399 125.04 50.4895 125.04Z" fill="#A67C52"/>
<path d="M50.4895 28.2397C52.4391 28.2397 54.0195 26.6593 54.0195 24.7097C54.0195 22.7601 52.4391 21.1797 50.4895 21.1797C48.5399 21.1797 46.9595 22.7601 46.9595 24.7097C46.9595 26.6593 48.5399 28.2397 50.4895 28.2397Z" fill="#A67C52"/>
<path d="M50.4896 26.6999C49.2296 26.6999 48.1995 25.6899 48.1895 24.4199L47.9996 5.44989C47.9896 4.17989 49.0096 3.13988 50.2796 3.12988C50.2896 3.12988 50.2996 3.12988 50.2996 3.12988C51.5596 3.12988 52.5897 4.13988 52.5997 5.40988L52.7896 24.3799C52.7996 25.6499 51.7796 26.6899 50.5096 26.6999C50.5096 26.6999 50.4996 26.6999 50.4896 26.6999Z" fill="#4A3A2B"/>
<path d="M50.3099 143.12C50.2999 143.12 50.2899 143.12 50.2899 143.12C49.0199 143.11 47.9998 142.07 48.0098 140.8L48.1998 121.83C48.2098 120.57 49.2398 119.55 50.4998 119.55C50.5098 119.55 50.5198 119.55 50.5198 119.55C51.7898 119.56 52.8099 120.6 52.7999 121.87L52.6099 140.84C52.5999 142.11 51.5699 143.12 50.3099 143.12Z" fill="#4A3A2B"/>
<path d="M75.4202 125.729C73.0702 125.729 71.1602 123.819 71.1602 121.469V24.7893C71.1602 22.4393 73.0702 20.5293 75.4202 20.5293H97.8203C100.17 20.5293 102.08 22.4393 102.08 24.7893V121.469C102.08 123.819 100.17 125.729 97.8203 125.729H75.4202Z" fill="#7A542D"/>
<path d="M97.8201 21.7995C99.4701 21.7995 100.8 23.1395 100.8 24.7795V121.46C100.8 123.11 99.4601 124.44 97.8201 124.44H75.4199C73.7699 124.44 72.4399 123.1 72.4399 121.46V24.7795C72.4399 23.1295 73.7799 21.7995 75.4199 21.7995H97.8201ZM97.8201 19.2495H75.4199C72.3599 19.2495 69.8799 21.7295 69.8799 24.7895V121.469C69.8799 124.529 72.3599 127.01 75.4199 127.01H97.8201C100.88 127.01 103.36 124.529 103.36 121.469V24.7895C103.36 21.7295 100.88 19.2495 97.8201 19.2495Z" fill="#634425"/>
<path d="M86.6199 125.039C88.5694 125.039 90.1497 123.459 90.1497 121.51C90.1497 119.56 88.5694 117.979 86.6199 117.979C84.6703 117.979 83.0898 119.56 83.0898 121.51C83.0898 123.459 84.6703 125.039 86.6199 125.039Z" fill="#A67C52"/>
<path d="M86.6199 28.2397C88.5694 28.2397 90.1497 26.6593 90.1497 24.7097C90.1497 22.7601 88.5694 21.1797 86.6199 21.1797C84.6703 21.1797 83.0898 22.7601 83.0898 24.7097C83.0898 26.6593 84.6703 28.2397 86.6199 28.2397Z" fill="#A67C52"/>
<path d="M86.6204 26.6996C85.3504 26.6996 84.3203 25.6695 84.3203 24.3995V5.83954C84.3203 4.56954 85.3504 3.53955 86.6204 3.53955C87.8904 3.53955 88.9202 4.56954 88.9202 5.83954V24.3995C88.9202 25.6695 87.8904 26.6996 86.6204 26.6996Z" fill="#4A3A2B"/>
<path d="M86.6204 142.709C85.3504 142.709 84.3203 141.679 84.3203 140.409V121.849C84.3203 120.579 85.3504 119.549 86.6204 119.549C87.8904 119.549 88.9202 120.579 88.9202 121.849V140.409C88.9202 141.679 87.8904 142.709 86.6204 142.709Z" fill="#4A3A2B"/>
<path d="M104.45 2.67966C65.3597 2.67966 29.6196 1.77967 0.389648 0.659668V7.25967C29.6496 8.36967 65.3797 9.27966 104.45 9.27966C104.57 9.27966 104.69 9.27966 104.81 9.27966V2.67966C104.7 2.67966 104.58 2.67966 104.45 2.67966Z" fill="#8F704D"/>
<path d="M104.45 136.969C65.2497 136.969 29.5696 137.859 0.389648 138.969V145.569C29.5296 144.459 65.2197 143.559 104.45 143.559C104.57 143.559 104.69 143.559 104.81 143.559V136.959C104.7 136.969 104.58 136.969 104.45 136.969Z" fill="#8F704D"/>
</svg>
