<svg width="101" height="146" viewBox="0 0 101 146" fill="none" xmlns="http://www.w3.org/2000/svg">
<path d="M9.03955 125.73C6.94955 125.73 5.24951 124.03 5.24951 121.94V24.31C5.24951 22.22 6.94955 20.52 9.03955 20.52H26.7495C28.8395 20.52 30.5396 22.22 30.5396 24.31V121.94C30.5396 124.03 28.8395 125.73 26.7495 125.73H9.03955Z" fill="#7A542D"/>
<path d="M26.7495 21.8C28.1295 21.8 29.2595 22.93 29.2595 24.31V121.94C29.2595 123.32 28.1295 124.45 26.7495 124.45H9.03955C7.65955 124.45 6.52954 123.32 6.52954 121.94V24.31C6.52954 22.93 7.65955 21.8 9.03955 21.8H26.7495ZM26.7495 19.25H9.03955C6.23955 19.25 3.97949 21.52 3.97949 24.31V121.94C3.97949 124.74 6.24955 127 9.03955 127H26.7495C29.5495 127 31.8096 124.73 31.8096 121.94V24.31C31.8196 21.52 29.5495 19.25 26.7495 19.25Z" fill="#634425"/>
<path d="M17.8994 125.04C19.849 125.04 21.4294 123.46 21.4294 121.51C21.4294 119.56 19.849 117.98 17.8994 117.98C15.9498 117.98 14.3696 119.56 14.3696 121.51C14.3696 123.46 15.9498 125.04 17.8994 125.04Z" fill="#A67C52"/>
<path d="M17.8994 28.2397C19.849 28.2397 21.4294 26.6593 21.4294 24.7097C21.4294 22.7601 19.849 21.1797 17.8994 21.1797C15.9498 21.1797 14.3696 22.7601 14.3696 24.7097C14.3696 26.6593 15.9498 28.2397 17.8994 28.2397Z" fill="#A67C52"/>
<path d="M17.8994 26.6999C16.6294 26.6999 15.5996 25.6699 15.5996 24.3999V5.96991C15.5996 4.69991 16.6294 3.66992 17.8994 3.66992C19.1694 3.66992 20.1995 4.69991 20.1995 5.96991V24.3999C20.1995 25.6699 19.1694 26.6999 17.8994 26.6999Z" fill="#4A3A2B"/>
<path d="M17.8994 142.58C16.6294 142.58 15.5996 141.55 15.5996 140.28V121.85C15.5996 120.58 16.6294 119.55 17.8994 119.55C19.1694 119.55 20.1995 120.58 20.1995 121.85V140.28C20.1995 141.55 19.1694 142.58 17.8994 142.58Z" fill="#4A3A2B"/>
<path d="M92.03 125.73C94.29 125.73 96.1201 123.89 96.1201 121.64V24.6198C96.1201 22.3598 94.28 20.5298 92.03 20.5298H75.4199C73.1599 20.5298 71.3301 22.3698 71.3301 24.6198V121.64C71.3301 123.9 73.1699 125.73 75.4199 125.73H92.03Z" fill="#7A542D"/>
<path d="M75.4197 21.8H92.0298C93.5798 21.8 94.8398 23.06 94.8398 24.61V121.63C94.8398 123.18 93.5798 124.44 92.0298 124.44H75.4197C73.8697 124.44 72.6099 123.18 72.6099 121.63V24.61C72.5999 23.07 73.8697 21.8 75.4197 21.8ZM75.4197 19.25C72.4597 19.25 70.0498 21.65 70.0498 24.62V121.64C70.0498 124.6 72.4497 127.01 75.4197 127.01H92.0298C94.9898 127.01 97.3997 124.61 97.3997 121.64V24.62C97.3997 21.66 94.9998 19.25 92.0298 19.25H75.4197Z" fill="#634425"/>
<path d="M83.7297 125.04C85.6793 125.04 87.2598 123.46 87.2598 121.51C87.2598 119.56 85.6793 117.98 83.7297 117.98C81.7802 117.98 80.1997 119.56 80.1997 121.51C80.1997 123.46 81.7802 125.04 83.7297 125.04Z" fill="#A67C52"/>
<path d="M83.7297 28.2397C85.6793 28.2397 87.2598 26.6593 87.2598 24.7097C87.2598 22.7601 85.6793 21.1797 83.7297 21.1797C81.7802 21.1797 80.1997 22.7601 80.1997 24.7097C80.1997 26.6593 81.7802 28.2397 83.7297 28.2397Z" fill="#A67C52"/>
<path d="M83.7295 26.6999C84.9295 26.6999 85.9395 25.7698 86.0195 24.5598L87.4595 3.96985C87.5495 2.69985 86.5896 1.59984 85.3296 1.51984C84.0596 1.43984 82.9594 2.38984 82.8794 3.64984L81.4394 24.2398C81.3494 25.5098 82.3096 26.6099 83.5696 26.6899C83.6196 26.6999 83.6695 26.6999 83.7295 26.6999Z" fill="#4A3A2B"/>
<path d="M85.1597 144.74C85.2097 144.74 85.2699 144.74 85.3199 144.73C86.5899 144.64 87.5397 143.54 87.4497 142.28L86.0098 121.69C85.9198 120.42 84.8299 119.47 83.5599 119.56C82.2899 119.65 81.3397 120.75 81.4297 122.01L82.8699 142.6C82.9499 143.82 83.9597 144.74 85.1597 144.74Z" fill="#4A3A2B"/>
<path d="M59.0898 125.73C61.3498 125.73 63.1797 123.89 63.1797 121.64V24.6198C63.1797 22.3598 61.3398 20.5298 59.0898 20.5298H42.4797C40.2197 20.5298 38.3896 22.3698 38.3896 24.6198V121.64C38.3896 123.9 40.2297 125.73 42.4797 125.73H59.0898Z" fill="#7A542D"/>
<path d="M42.4797 21.8H59.0898C60.6398 21.8 61.8997 23.06 61.8997 24.61V121.63C61.8997 123.18 60.6398 124.44 59.0898 124.44H42.4797C40.9297 124.44 39.6697 123.18 39.6697 121.63V24.61C39.6697 23.07 40.9297 21.8 42.4797 21.8ZM42.4797 19.25C39.5197 19.25 37.1099 21.65 37.1099 24.62V121.64C37.1099 124.6 39.5097 127.01 42.4797 127.01H59.0898C62.0498 127.01 64.4597 124.61 64.4597 121.64V24.62C64.4597 21.66 62.0598 19.25 59.0898 19.25H42.4797Z" fill="#634425"/>
<path d="M50.6897 125.04C52.6393 125.04 54.2197 123.46 54.2197 121.51C54.2197 119.56 52.6393 117.98 50.6897 117.98C48.7401 117.98 47.1597 119.56 47.1597 121.51C47.1597 123.46 48.7401 125.04 50.6897 125.04Z" fill="#A67C52"/>
<path d="M50.6897 28.2397C52.6393 28.2397 54.2197 26.6593 54.2197 24.7097C54.2197 22.7601 52.6393 21.1797 50.6897 21.1797C48.7401 21.1797 47.1597 22.7601 47.1597 24.7097C47.1597 26.6593 48.7401 28.2397 50.6897 28.2397Z" fill="#A67C52"/>
<path d="M50.6898 26.6999C51.9498 26.6999 52.9798 25.6899 52.9898 24.4199L53.1798 5.44989C53.1898 4.17989 52.1697 3.13988 50.8997 3.12988C50.8897 3.12988 50.8797 3.12988 50.8797 3.12988C49.6197 3.12988 48.5899 4.13988 48.5799 5.40988L48.3897 24.3799C48.3797 25.6499 49.3998 26.6899 50.6698 26.6999C50.6798 26.6999 50.6898 26.6999 50.6898 26.6999Z" fill="#4A3A2B"/>
<path d="M50.8797 143.12C50.8897 143.12 50.8997 143.12 50.8997 143.12C52.1697 143.11 53.1898 142.07 53.1798 140.8L52.9898 121.83C52.9798 120.57 51.9498 119.55 50.6898 119.55C50.6798 119.55 50.6698 119.55 50.6698 119.55C49.3998 119.56 48.3797 120.6 48.3897 121.87L48.5799 140.84C48.5899 142.11 49.6197 143.12 50.8797 143.12Z" fill="#4A3A2B"/>
<path d="M100.97 0.819824C73.2897 1.85982 39.1598 2.67981 0.259766 2.67981V9.27982C39.1298 9.26982 73.2497 8.45983 100.97 7.41983V0.819824Z" fill="#8F704D"/>
<path d="M100.97 138.84C73.1797 137.8 39.0198 136.98 0.259766 136.97V143.57C39.0598 143.58 73.2197 144.4 100.97 145.44V138.84Z" fill="#8F704D"/>
</svg>
