<svg width="86" height="164" viewBox="0 0 86 164" fill="none" xmlns="http://www.w3.org/2000/svg">
<path d="M63.29 134.73C65.64 134.73 67.55 132.82 67.55 130.47V33.7898C67.55 31.4398 65.64 29.5298 63.29 29.5298H46.47C44.12 29.5298 42.21 31.4398 42.21 33.7898V130.47C42.21 132.82 44.12 134.73 46.47 134.73H63.29Z" fill="#7A542D"/>
<path d="M46.4697 30.8H63.2898C64.9398 30.8 66.2698 32.14 66.2698 33.78V130.46C66.2698 132.11 64.9298 133.44 63.2898 133.44H46.4697C44.8197 133.44 43.4897 132.1 43.4897 130.46V33.78C43.4797 32.14 44.8197 30.8 46.4697 30.8ZM46.4697 28.25C43.4097 28.25 40.9297 30.73 40.9297 33.79V130.47C40.9297 133.53 43.4097 136.01 46.4697 136.01H63.2898C66.3498 136.01 68.8298 133.53 68.8298 130.47V33.79C68.8298 30.73 66.3498 28.25 63.2898 28.25H46.4697Z" fill="#634425"/>
<path d="M54.8794 134.04C56.829 134.04 58.4094 132.46 58.4094 130.51C58.4094 128.56 56.829 126.98 54.8794 126.98C52.9298 126.98 51.3496 128.56 51.3496 130.51C51.3496 132.46 52.9298 134.04 54.8794 134.04Z" fill="#A67C52"/>
<path d="M54.8794 37.2397C56.829 37.2397 58.4094 35.6593 58.4094 33.7097C58.4094 31.7601 56.829 30.1797 54.8794 30.1797C52.9298 30.1797 51.3496 31.7601 51.3496 33.7097C51.3496 35.6593 52.9298 37.2397 54.8794 37.2397Z" fill="#A67C52"/>
<path d="M54.8795 35.6998C56.0195 35.6998 57.0095 34.8498 57.1595 33.6898L60.0897 10.3498C60.2497 9.08983 59.3497 7.93982 58.0897 7.77982C56.8297 7.61982 55.6796 8.50982 55.5196 9.77982L52.5897 33.1198C52.4297 34.3798 53.3297 35.5298 54.5897 35.6898C54.6897 35.6998 54.7795 35.6998 54.8795 35.6998Z" fill="#4A3A2B"/>
<path d="M57.7997 156.49C57.8997 156.49 57.9897 156.48 58.0897 156.47C59.3497 156.31 60.2397 155.16 60.0897 153.9L57.1596 130.56C56.9996 129.3 55.8497 128.41 54.5897 128.56C53.3297 128.72 52.4397 129.87 52.5897 131.13L55.5197 154.47C55.6697 155.64 56.6597 156.49 57.7997 156.49Z" fill="#4A3A2B"/>
<path d="M29.9695 134.73C32.3195 134.73 34.2295 132.82 34.2295 130.47V33.7898C34.2295 31.4398 32.3195 29.5298 29.9695 29.5298H7.56958C5.21958 29.5298 3.30957 31.4398 3.30957 33.7898V130.47C3.30957 132.82 5.21958 134.73 7.56958 134.73H29.9695Z" fill="#7A542D"/>
<path d="M7.56982 30.8H29.9697C31.6197 30.8 32.9497 32.14 32.9497 33.78V130.46C32.9497 132.11 31.6097 133.44 29.9697 133.44H7.56982C5.91982 133.44 4.58984 132.1 4.58984 130.46V33.78C4.58984 32.14 5.92982 30.8 7.56982 30.8ZM7.56982 28.25C4.50982 28.25 2.02979 30.73 2.02979 33.79V130.47C2.02979 133.53 4.50982 136.01 7.56982 136.01H29.9697C33.0297 136.01 35.5098 133.53 35.5098 130.47V33.79C35.5098 30.73 33.0297 28.25 29.9697 28.25H7.56982Z" fill="#634425"/>
<path d="M18.7698 134.04C20.7193 134.04 22.2998 132.46 22.2998 130.51C22.2998 128.56 20.7193 126.98 18.7698 126.98C16.8202 126.98 15.2397 128.56 15.2397 130.51C15.2397 132.46 16.8202 134.04 18.7698 134.04Z" fill="#A67C52"/>
<path d="M18.7698 37.2397C20.7193 37.2397 22.2998 35.6593 22.2998 33.7097C22.2998 31.7601 20.7193 30.1797 18.7698 30.1797C16.8202 30.1797 15.2397 31.7601 15.2397 33.7097C15.2397 35.6593 16.8202 37.2397 18.7698 37.2397Z" fill="#A67C52"/>
<path d="M18.7696 35.6999C19.9496 35.6999 20.9496 34.7999 21.0596 33.5999L22.9895 11.7899C23.0995 10.5299 22.1695 9.40985 20.8995 9.29985C19.6395 9.18985 18.5195 10.1199 18.4095 11.3899L16.4795 33.1999C16.3695 34.4599 17.2996 35.5799 18.5696 35.6899C18.6396 35.6999 18.7096 35.6999 18.7696 35.6999Z" fill="#4A3A2B"/>
<path d="M20.6997 154.95C20.7697 154.95 20.8396 154.95 20.9096 154.94C22.1696 154.83 23.1097 153.71 22.9997 152.45L21.0698 130.64C20.9598 129.38 19.8398 128.45 18.5798 128.55C17.3198 128.66 16.3797 129.78 16.4897 131.04L18.4196 152.85C18.5196 154.05 19.5297 154.95 20.6997 154.95Z" fill="#4A3A2B"/>
<path d="M77.2996 5.51953C76.8496 5.55953 48.2295 8.01953 0.189453 9.82953V16.4295C48.5695 14.6195 77.4294 12.1295 77.8794 12.0895L77.2996 5.51953Z" fill="#8F704D"/>
<path d="M77.8699 152.16C77.4199 152.12 48.4097 149.65 0.179688 147.84V154.44C48.0697 156.24 76.8498 158.7 77.2998 158.73L77.8699 152.16Z" fill="#8F704D"/>
<path d="M77.5901 162.369C73.7701 162.369 70.6699 159.259 70.6699 155.449C70.6699 151.639 73.7801 148.529 77.5901 148.529C81.4101 148.529 84.51 151.639 84.51 155.449C84.51 159.259 81.4001 162.369 77.5901 162.369Z" fill="#75512B"/>
<path d="M77.5898 149.799C80.6998 149.799 83.2297 152.33 83.2297 155.44C83.2297 158.55 80.6998 161.08 77.5898 161.08C74.4798 161.08 71.9497 158.55 71.9497 155.44C71.9397 152.34 74.4698 149.799 77.5898 149.799ZM77.5898 147.25C73.0598 147.25 69.3896 150.92 69.3896 155.45C69.3896 159.98 73.0598 163.65 77.5898 163.65C82.1198 163.65 85.7898 159.98 85.7898 155.45C85.7898 150.92 82.1098 147.25 77.5898 147.25Z" fill="#4A3A2B"/>
<path d="M77.5901 15.7296C73.7701 15.7296 70.6699 12.6196 70.6699 8.80963C70.6699 4.98963 73.7801 1.88965 77.5901 1.88965C81.4101 1.88965 84.51 4.99963 84.51 8.80963C84.51 12.6196 81.4001 15.7296 77.5901 15.7296Z" fill="#75512B"/>
<path d="M77.5898 3.15961C80.6998 3.15961 83.2297 5.68959 83.2297 8.79959C83.2297 11.9096 80.6998 14.4396 77.5898 14.4396C74.4798 14.4396 71.9497 11.9096 71.9497 8.79959C71.9397 5.68959 74.4698 3.15961 77.5898 3.15961ZM77.5898 0.599609C73.0598 0.599609 69.3896 4.26959 69.3896 8.79959C69.3896 13.3296 73.0598 16.9996 77.5898 16.9996C82.1198 16.9996 85.7898 13.3296 85.7898 8.79959C85.7898 4.27959 82.1098 0.599609 77.5898 0.599609Z" fill="#4A3A2B"/>
</svg>
