<svg width="123" height="93" viewBox="0 0 123 93" fill="none" xmlns="http://www.w3.org/2000/svg">
<path d="M39.1545 29.4253L37.5926 31.3529L27.2356 22.9545L18.6823 16.0252L19.7918 23.4752L22.2648 40.1108L19.8104 40.4764L17.3064 23.6487L15.292 10.0812L30.8677 22.7066L39.1545 29.4253Z" fill="black"/>
<path d="M39.1545 63.5332L30.8615 70.2581H30.8553L15.292 82.8773L17.3064 69.3222L19.8104 52.4883L22.2648 52.8477L19.7918 69.4957L18.6823 76.9396L27.2294 70.0102L37.5926 61.6056L39.1545 63.5332Z" fill="black"/>
<path d="M105.505 49.3582L102.077 65.1881L98.8107 80.2989L97.0008 79.9023L95.1167 80.2741L92.4204 66.5951L89.0239 49.3335L91.4598 48.8562L94.8811 66.2356L96.9946 76.9706L99.4615 65.5724L103.081 48.8314L105.505 49.3582Z" fill="black"/>
<path d="M105.505 43.6065L103.081 44.1333L99.4615 27.3923L96.9946 15.9879L94.8811 26.7291L91.4598 44.1085L89.0239 43.6312L92.4204 26.3697L95.1167 12.6906L97.0008 13.0563L98.8107 12.6658L102.077 27.7766L105.505 43.6065Z" fill="black"/>
<path d="M122.426 37.706V55.2588C122.426 58.8661 120.008 62.0457 116.544 63.0064C116.209 63.1055 115.862 63.1799 115.533 63.2295L102.077 65.1881L99.4618 65.5724L94.8815 66.2356L92.4208 66.5951L57.6807 71.6527C56.9866 71.7581 56.2614 71.8262 55.5176 71.851C55.2697 71.8634 55.0217 71.8696 54.7738 71.8696C54.309 71.8696 53.838 71.851 53.3545 71.82L30.8618 70.2581H30.8556L27.2297 70.0102L19.792 69.4957L17.3066 69.3222L12.9246 69.0185C12.9246 69.0185 12.8998 69.0185 12.8936 69.0185C9.66443 68.7892 7.11079 66.1488 6.96204 62.9382H2.91477C1.545 62.9382 0.435547 61.8288 0.435547 60.459V55.0419C0.435547 53.6721 1.545 52.5627 2.91477 52.5627H6.95591V30.3179C6.95591 26.9771 9.56526 24.1818 12.8936 23.9524L17.3066 23.6487L19.792 23.4752L27.2359 22.9546L30.868 22.7066L53.3545 21.1448C53.8318 21.1076 54.309 21.0952 54.7738 21.0952C55.0217 21.0952 55.2697 21.0952 55.5176 21.1076C56.2614 21.1386 56.968 21.2005 57.6683 21.3059L92.4208 26.3697L94.8815 26.7292L99.4618 27.3924L102.077 27.7767L115.533 29.7353C115.552 29.7353 115.564 29.7415 115.577 29.7415C115.837 29.7849 116.178 29.8468 116.544 29.9584C120.008 30.9191 122.426 34.0987 122.426 37.706Z" fill="#6E0C40"/>
<path d="M6.94971 52.5626V62.9382H2.91477C1.545 62.9382 0.435547 61.8287 0.435547 60.4589V55.0418C0.435547 53.6721 1.545 52.5626 2.91477 52.5626H6.94971Z" fill="#3D3D3D"/>
<path d="M10.2158 55.0419H2.91455V60.459H10.2158V55.0419Z" fill="#737373"/>
<path d="M119.946 37.7059V55.2588C119.946 57.8 118.242 59.9817 115.849 60.6263C115.632 60.6945 115.409 60.744 115.18 60.775L57.315 69.2044C56.689 69.2973 56.0568 69.3531 55.4246 69.3779C54.7924 69.4027 54.1601 69.3903 53.5279 69.3469L13.0671 66.5455C11.0218 66.4029 9.43506 64.6984 9.43506 62.6469V30.3178C9.43506 28.2662 11.0218 26.568 13.0671 26.4254L53.5279 23.6177C54.1601 23.5744 54.7924 23.5619 55.4246 23.5867C56.0568 23.6115 56.6828 23.6673 57.315 23.7603L115.18 32.1896C115.409 32.2268 115.632 32.2702 115.849 32.3384C118.242 32.9892 119.946 35.1647 119.946 37.7059Z" fill="#FF1F97"/>
<path d="M16.0609 26.2209L15.249 26.2767C15.5031 26.2581 15.7696 26.2395 16.0609 26.2209Z" fill="#FF0000"/>
<path d="M119.952 53.6721L55.4307 59.8702V33.0945L119.952 39.2926V53.6721Z" fill="#C7247B"/>
<path d="M16.0609 26.2209L15.249 26.2767C15.5031 26.2581 15.7696 26.2395 16.0609 26.2209Z" fill="#FF0000"/>
<path d="M69.2836 67.4628C64.7343 66.6013 61.4369 62.6283 61.4369 57.9984V46.6435V46.3336V34.9788C61.4369 30.3489 64.7343 26.3697 69.2836 25.5144L57.3214 23.7728C56.6892 23.6798 56.0632 23.624 55.431 23.5992C54.7988 23.5744 54.1666 23.5868 53.5344 23.6301L19.0918 26.0227C18.9493 26.0351 18.8067 26.0412 18.6703 26.0536C18.3914 26.0722 18.1187 26.0908 17.8584 26.1094C17.7221 26.1156 17.5919 26.128 17.4679 26.1342C17.1332 26.159 16.8109 26.1838 16.501 26.2023C16.3522 26.2147 16.2035 26.221 16.061 26.2334L15.2491 26.2891C15.1251 26.2953 15.0073 26.3077 14.8895 26.3139C14.6602 26.3263 14.4494 26.3449 14.2573 26.3573C13.4949 26.4069 13.0735 26.4379 13.0735 26.4379C11.0282 26.5804 9.44141 28.2787 9.44141 30.3303V62.6593C9.44141 64.7109 11.0282 66.4153 13.0735 66.5579C13.0735 66.5579 13.4949 66.5889 14.2573 66.6384C14.4494 66.6508 14.6602 66.6695 14.8895 66.6819C15.0073 66.6881 15.1251 66.7004 15.2491 66.7066C15.5032 66.7252 15.7697 66.7438 16.061 66.7624C16.2035 66.7748 16.3522 66.781 16.501 66.7934C16.8109 66.812 17.1332 66.8368 17.4679 66.8616C17.5919 66.8678 17.7221 66.8802 17.8584 66.8864C18.1187 66.905 18.3914 66.9235 18.6703 66.9421C18.8067 66.9545 18.9493 66.9608 19.0918 66.9732C19.4761 66.9979 19.8728 67.0227 20.2819 67.0537C20.4864 67.0661 20.6971 67.0785 20.9078 67.0971C21.7383 67.1529 22.6123 67.2149 23.5234 67.2769L53.5344 69.3594C54.1666 69.4028 54.7988 69.4152 55.431 69.3904C56.0632 69.3656 56.6954 69.3098 57.3214 69.2168L59.5713 68.8883L69.2836 67.4628Z" fill="#C7247B"/>
<path d="M55.0529 26.9833H45.2475L20.2632 28.9233L15.2861 29.6299C13.6499 29.8654 12.4351 31.26 12.4351 32.9149V46.4824V60.0499C12.4351 61.6986 13.6499 63.0994 15.2861 63.3349L20.2632 64.0415L45.2475 65.9815L55.0529 66.2914C57.7986 66.3781 60.2344 65.1633 60.2344 61.4941V31.3839C60.2344 29.0348 58.5362 26.9771 55.0529 26.9833Z" fill="#8C1956"/>
<path d="M19.3209 60.8432C19.73 60.4838 19.9717 59.9445 19.9717 59.3681V46.4762V33.5842C19.9717 33.014 19.73 32.4686 19.3209 32.1091L18.0813 31.0244L14.2881 27.7023C12.4473 26.0908 9.46605 27.3118 9.43506 29.7662C9.43506 29.7848 9.43506 29.8034 9.43506 29.822V32.4996V46.4762V60.4528V63.1304C9.43506 63.149 9.43506 63.1675 9.43506 63.1861C9.46605 65.6344 12.4473 66.8615 14.2881 65.2501C16.3583 63.4402 18.0813 61.9279 18.0813 61.9279L19.3209 60.8432Z" fill="#FF1F97"/>
<path d="M16.3147 31.4893C15.199 30.51 13.5317 31.3716 13.5317 32.9211V46.4886V60.0561C13.5317 61.6056 15.199 62.461 16.3147 61.4879L17.517 60.4342C17.9137 60.0871 18.1493 59.5603 18.1493 59.0025V46.4886V33.9747C18.1493 33.4169 17.9199 32.8962 17.517 32.5429L16.3147 31.4893Z" fill="#6E0C40"/>
<path d="M45.5574 64.0972L37.4875 60.6759C35.2562 59.7276 32.8515 59.238 30.428 59.238H28.4074C25.3146 59.238 22.3147 60.304 19.9161 62.2502C19.4574 62.6221 19.6868 63.3597 20.2756 63.4093L45.2599 65.3492C45.9851 65.405 46.233 64.3885 45.5574 64.0972Z" fill="#78A4BF"/>
<path d="M45.5574 28.8799L37.4875 32.3013C35.2562 33.2496 32.8515 33.7392 30.428 33.7392H28.4074C25.3146 33.7392 22.3147 32.6731 19.9161 30.727C19.4574 30.3551 19.6868 29.6175 20.2756 29.5679L45.2599 27.6279C45.9851 27.5721 46.233 28.5948 45.5574 28.8799Z" fill="#9AC0D9"/>
<path d="M119.946 37.7059V39.0137C117.523 38.2389 115.775 35.9705 115.775 33.2929C115.775 32.9706 115.8 32.6483 115.849 32.3384C118.242 32.9892 119.946 35.1647 119.946 37.7059Z" fill="#F2D61F"/>
<path d="M119.946 53.9572V55.2588C119.946 57.8 118.242 59.9817 115.849 60.6263C115.8 60.3164 115.775 59.9941 115.775 59.6718C115.775 57.0004 117.523 54.732 119.946 53.9572Z" fill="#F2D61F"/>
<path d="M9.43528 50.4119H6.95605V62.9258H9.43528V50.4119Z" fill="#6E0C40"/>
<path d="M44.9932 31.9975C43.14 32.8094 41.9375 34.6441 41.9375 36.6646V46.6311V56.5976C41.9375 58.6243 43.1338 60.4528 44.9932 61.2647L54.6931 65.5042C57.3086 66.6446 60.2342 64.7294 60.2342 61.8783V46.6249V31.3715C60.2342 28.5204 57.3086 26.6052 54.6931 27.7456L44.9932 31.9975Z" fill="#9AC0D9"/>
<path d="M57.1537 27.5225V41.276V56.5294C57.1537 59.3805 54.2282 61.2957 51.6127 60.1553L41.9375 55.922V56.6038C41.9375 58.6306 43.1338 60.459 44.9932 61.271L54.6931 65.5104C57.3086 66.6508 60.2342 64.7357 60.2342 61.8846V46.6312V31.3777C60.2342 29.4253 58.8582 27.913 57.1537 27.5225Z" fill="#78A4BF"/>
<path d="M45.3093 65.969C45.2721 65.969 45.2411 65.969 45.2039 65.9628L20.2195 64.0228C19.6989 63.9795 19.2589 63.6324 19.1039 63.1304C18.949 62.6283 19.1101 62.0952 19.5191 61.7667C22.0232 59.7338 25.178 58.6182 28.401 58.6182H30.4216C32.9442 58.6182 35.4047 59.1202 37.7228 60.1057L45.7927 63.527C46.3815 63.775 46.6852 64.3823 46.5303 65.0021C46.3939 65.5847 45.8981 65.969 45.3093 65.969ZM28.401 59.8578C25.4569 59.8578 22.581 60.8805 20.3001 62.7337L45.3031 64.7294L45.3402 64.6799L45.3216 64.6737L37.2518 61.2523C35.0825 60.335 32.7892 59.864 30.434 59.864H28.401V59.8578Z" fill="#730E44"/>
<path d="M30.4216 34.359H28.401C25.178 34.359 22.0232 33.2372 19.5191 31.2104C19.1101 30.8819 18.949 30.3426 19.1039 29.8468C19.2589 29.3447 19.6989 28.9977 20.2195 28.9543L45.2039 27.0143C45.8361 26.9585 46.3877 27.3614 46.5365 27.9812C46.6853 28.601 46.3815 29.2084 45.7989 29.4563L37.729 32.8776C35.4047 33.8631 32.9442 34.359 30.4216 34.359ZM45.334 28.2973L20.3125 30.1877C22.581 32.0967 25.4569 33.1194 28.3948 33.1194H30.4154C32.7706 33.1194 35.0701 32.6545 37.2332 31.731L45.3031 28.3097C45.3279 28.3035 45.334 28.2973 45.334 28.2973Z" fill="#730E44"/>
<path d="M56.2795 66.4712C55.6597 66.4712 55.0337 66.3409 54.4449 66.0868L44.7449 61.8474C42.6624 60.9363 41.3174 58.8785 41.3174 56.6101V36.6709C41.3174 34.3962 42.6624 32.3447 44.7449 31.4336L54.4449 27.194C55.8642 26.5742 57.4881 26.7107 58.7835 27.5598C60.0789 28.4089 60.8537 29.8406 60.8537 31.3901V61.897C60.8537 63.4465 60.0789 64.8782 58.7835 65.7274C58.0274 66.217 57.1534 66.4712 56.2795 66.4712ZM56.2795 28.0433C55.827 28.0433 55.3684 28.1362 54.9407 28.3221L45.2407 32.5616C43.6106 33.2744 42.557 34.8858 42.557 36.6647V56.6038C42.557 58.3827 43.6106 59.9942 45.2407 60.707L54.9407 64.9464C55.9758 65.3989 57.1596 65.2997 58.1017 64.6799C59.05 64.0601 59.614 63.0188 59.614 61.8846V31.3777C59.614 30.2497 59.05 29.2023 58.1017 28.5825C57.5501 28.2292 56.9179 28.0433 56.2795 28.0433Z" fill="#730E44"/>
<path d="M9.13189 20.0601H4.80566V0.375061H9.13189L12.5037 2.90384V17.5312L9.13189 20.0601Z" fill="black"/>
<path d="M16.8358 20.0601H12.5034V0.375061H16.8358L20.2076 2.90384V17.5312L16.8358 20.0601Z" fill="black"/>
<path d="M24.5404 20.0601H20.208V0.375061H24.5404L27.9121 2.90384V17.5312L24.5404 20.0601Z" fill="black"/>
<path d="M9.1381 0.375061H4.80566V20.0601H9.1381V0.375061Z" fill="black"/>
<path d="M33.2921 0.375061H27.9121V20.0601H33.2921V0.375061Z" fill="black"/>
<path d="M87.5556 22.9545H83.2231V3.26953H87.5556L90.9274 5.79838V20.4258L87.5556 22.9545Z" fill="black"/>
<path d="M95.2597 22.9545H90.9272V3.26953H95.2597L98.6314 5.79838V20.4258L95.2597 22.9545Z" fill="black"/>
<path d="M102.958 22.9545H98.6313V3.26953H102.958L106.329 5.79838V20.4258L102.958 22.9545Z" fill="black"/>
<path d="M87.5556 3.26953H83.2231V22.9545H87.5556V3.26953Z" fill="black"/>
<path d="M111.709 3.26953H106.329V22.9545H111.709V3.26953Z" fill="black"/>
<path d="M87.5556 89.6952H83.2231V70.0102H87.5556L90.9274 72.539V87.1664L87.5556 89.6952Z" fill="black"/>
<path d="M95.2597 89.6952H90.9272V70.0102H95.2597L98.6314 72.539V87.1664L95.2597 89.6952Z" fill="black"/>
<path d="M102.958 89.6952H98.6313V70.0102H102.958L106.329 72.539V87.1664L102.958 89.6952Z" fill="black"/>
<path d="M87.5556 70.0102H83.2231V89.6952H87.5556V70.0102Z" fill="black"/>
<path d="M111.709 70.0102H106.329V89.6952H111.709V70.0102Z" fill="black"/>
<path d="M9.13189 92.5958H4.80566V72.9108H9.13189L12.5037 75.4397V90.0671L9.13189 92.5958Z" fill="black"/>
<path d="M16.8358 92.5958H12.5034V72.9108H16.8358L20.2076 75.4397V90.0671L16.8358 92.5958Z" fill="black"/>
<path d="M24.5404 92.5958H20.208V72.9108H24.5404L27.9121 75.4397V90.0671L24.5404 92.5958Z" fill="black"/>
<path d="M9.1381 72.9108H4.80566V92.5958H9.1381V72.9108Z" fill="black"/>
<path d="M33.2921 72.9108H27.9121V92.5958H33.2921V72.9108Z" fill="black"/>
</svg>
