<svg width="123" height="93" viewBox="0 0 123 93" fill="none" xmlns="http://www.w3.org/2000/svg">
<path d="M39.6418 29.4253L38.0799 31.3529L27.723 22.9545L19.1697 16.0252L20.2791 23.4752L22.7521 40.1108L20.2977 40.4764L17.7937 23.6487L15.7793 10.0812L31.355 22.7066L39.6418 29.4253Z" fill="black"/>
<path d="M39.6418 63.5332L31.3488 70.2581H31.3426L15.7793 82.8773L17.7937 69.3222L20.2977 52.4883L22.7521 52.8477L20.2791 69.4957L19.1697 76.9396L27.7168 70.0102L38.0799 61.6056L39.6418 63.5332Z" fill="black"/>
<path d="M105.992 49.3582L102.565 65.1881L99.2984 80.2989L97.4886 79.9023L95.6044 80.2741L92.9082 66.5951L89.5117 49.3335L91.9475 48.8562L95.3688 66.2356L97.4824 76.9706L99.9492 65.5724L103.569 48.8314L105.992 49.3582Z" fill="black"/>
<path d="M105.992 43.6065L103.569 44.1333L99.9492 27.3923L97.4824 15.9879L95.3688 26.7291L91.9475 44.1085L89.5117 43.6312L92.9082 26.3697L95.6044 12.6906L97.4886 13.0563L99.2984 12.6658L102.565 27.7766L105.992 43.6065Z" fill="black"/>
<path d="M122.913 37.706V55.2588C122.913 58.8661 120.496 62.0457 117.031 63.0064C116.696 63.1055 116.349 63.1799 116.021 63.2295L102.565 65.1881L99.9491 65.5724L95.3688 66.2356L92.9082 66.5951L58.168 71.6527C57.4739 71.7581 56.7487 71.8262 56.0049 71.851C55.757 71.8634 55.5091 71.8696 55.2612 71.8696C54.7963 71.8696 54.3253 71.851 53.8418 71.82L31.3491 70.2581H31.3429L27.717 70.0102L20.2794 69.4957L17.7939 69.3222L13.4119 69.0185C13.4119 69.0185 13.3871 69.0185 13.3809 69.0185C10.1517 68.7892 7.59817 66.1488 7.44942 62.9382H3.40207C2.0323 62.9382 0.922852 61.8288 0.922852 60.459V55.0419C0.922852 53.6721 2.0323 52.5627 3.40207 52.5627H7.44321V30.3179C7.44321 26.9771 10.0526 24.1818 13.3809 23.9524L17.7939 23.6487L20.2794 23.4752L27.7232 22.9546L31.3553 22.7066L53.8418 21.1448C54.3191 21.1076 54.7963 21.0952 55.2612 21.0952C55.5091 21.0952 55.757 21.0952 56.0049 21.1076C56.7487 21.1386 57.4553 21.2005 58.1556 21.3059L92.9082 26.3697L95.3688 26.7292L99.9491 27.3924L102.565 27.7767L116.021 29.7353C116.039 29.7353 116.052 29.7415 116.064 29.7415C116.324 29.7849 116.665 29.8468 117.031 29.9584C120.496 30.9191 122.913 34.0987 122.913 37.706Z" fill="#6E0C40"/>
<path d="M7.43701 52.5626V62.9382H3.40207C2.0323 62.9382 0.922852 61.8287 0.922852 60.4589V55.0418C0.922852 53.6721 2.0323 52.5626 3.40207 52.5626H7.43701Z" fill="#3D3D3D"/>
<path d="M10.6973 55.0419H3.396V60.459H10.6973V55.0419Z" fill="#737373"/>
<path d="M120.427 37.7059V55.2588C120.427 57.8 118.723 59.9817 116.33 60.6263C116.113 60.6945 115.89 60.744 115.661 60.775L57.796 69.2044C57.17 69.2973 56.5377 69.3531 55.9055 69.3779C55.2733 69.4027 54.6412 69.3903 54.009 69.3469L13.5481 66.5455C11.5027 66.4029 9.91602 64.6984 9.91602 62.6469V30.3178C9.91602 28.2662 11.5027 26.568 13.5481 26.4254L54.009 23.6177C54.6412 23.5744 55.2733 23.5619 55.9055 23.5867C56.5377 23.6115 57.1638 23.6673 57.796 23.7603L115.661 32.1896C115.89 32.2268 116.113 32.2702 116.33 32.3384C118.723 32.9892 120.427 35.1647 120.427 37.7059Z" fill="#FF1F97"/>
<path d="M16.5419 26.2209L15.73 26.2767C15.9841 26.2581 16.2506 26.2395 16.5419 26.2209Z" fill="#FF0000"/>
<path d="M120.433 53.6721L55.9116 59.8702V33.0945L120.433 39.2926V53.6721Z" fill="#C7247B"/>
<path d="M16.5419 26.2209L15.73 26.2767C15.9841 26.2581 16.2506 26.2395 16.5419 26.2209Z" fill="#FF0000"/>
<path d="M69.7645 67.4628C65.2151 66.6013 61.9178 62.6283 61.9178 57.9984V46.6435V46.3336V34.9788C61.9178 30.3489 65.2151 26.3697 69.7645 25.5144L57.8023 23.7728C57.1701 23.6798 56.5441 23.624 55.9119 23.5992C55.2797 23.5744 54.6475 23.5868 54.0153 23.6301L19.5727 26.0227C19.4301 26.0351 19.2876 26.0412 19.1513 26.0536C18.8724 26.0722 18.5996 26.0908 18.3393 26.1094C18.2029 26.1156 18.0728 26.128 17.9488 26.1342C17.6141 26.159 17.2919 26.1838 16.982 26.2023C16.8332 26.2147 16.6844 26.221 16.5418 26.2334L15.7299 26.2891C15.606 26.2953 15.4882 26.3077 15.3705 26.3139C15.1411 26.3263 14.9304 26.3449 14.7383 26.3573C13.9759 26.4069 13.5544 26.4379 13.5544 26.4379C11.5091 26.5804 9.92236 28.2787 9.92236 30.3303V62.6593C9.92236 64.7109 11.5091 66.4153 13.5544 66.5579C13.5544 66.5579 13.9759 66.5889 14.7383 66.6384C14.9304 66.6508 15.1411 66.6695 15.3705 66.6819C15.4882 66.6881 15.606 66.7004 15.7299 66.7066C15.9841 66.7252 16.2505 66.7438 16.5418 66.7624C16.6844 66.7748 16.8332 66.781 16.982 66.7934C17.2919 66.812 17.6141 66.8368 17.9488 66.8616C18.0728 66.8678 18.2029 66.8802 18.3393 66.8864C18.5996 66.905 18.8724 66.9235 19.1513 66.9421C19.2876 66.9545 19.4301 66.9608 19.5727 66.9732C19.957 66.9979 20.3537 67.0227 20.7627 67.0537C20.9673 67.0661 21.178 67.0785 21.3888 67.0971C22.2193 67.1529 23.0932 67.2149 24.0043 67.2769L54.0153 69.3594C54.6475 69.4028 55.2797 69.4152 55.9119 69.3904C56.5441 69.3656 57.1763 69.3098 57.8023 69.2168L60.0522 68.8883L69.7645 67.4628Z" fill="#C7247B"/>
<path d="M55.5338 26.9833H45.7285L20.7442 28.9233L15.7671 29.6299C14.1308 29.8654 12.916 31.26 12.916 32.9149V46.4824V60.0499C12.916 61.6986 14.1308 63.0994 15.7671 63.3349L20.7442 64.0415L45.7285 65.9815L55.5338 66.2914C58.2796 66.3781 60.7154 65.1633 60.7154 61.4941V31.3839C60.7154 29.0348 59.0171 26.9771 55.5338 26.9833Z" fill="#8C1956"/>
<path d="M19.8019 60.8432C20.2109 60.4838 20.4527 59.9445 20.4527 59.3681V46.4762V33.5842C20.4527 33.014 20.2109 32.4686 19.8019 32.1091L18.5623 31.0244L14.7691 27.7023C12.9282 26.0908 9.94701 27.3118 9.91602 29.7662C9.91602 29.7848 9.91602 29.8034 9.91602 29.822V32.4996V46.4762V60.4528V63.1304C9.91602 63.149 9.91602 63.1675 9.91602 63.1861C9.94701 65.6344 12.9282 66.8615 14.7691 65.2501C16.8392 63.4402 18.5623 61.9279 18.5623 61.9279L19.8019 60.8432Z" fill="#FF1F97"/>
<path d="M16.7961 31.4893C15.6805 30.51 14.0132 31.3716 14.0132 32.9211V46.4886V60.0561C14.0132 61.6056 15.6805 62.461 16.7961 61.4879L17.9986 60.4342C18.3952 60.0871 18.6307 59.5603 18.6307 59.0025V46.4886V33.9747C18.6307 33.4169 18.4014 32.8962 17.9986 32.5429L16.7961 31.4893Z" fill="#6E0C40"/>
<path d="M46.0384 64.0972L37.9685 60.6759C35.7372 59.7276 33.3324 59.238 30.9089 59.238H28.8884C25.7955 59.238 22.7957 60.304 20.397 62.2502C19.9384 62.6221 20.1677 63.3597 20.7565 63.4093L45.7409 65.3492C46.4661 65.405 46.714 64.3885 46.0384 64.0972Z" fill="#78A4BF"/>
<path d="M46.0384 28.8799L37.9685 32.3013C35.7372 33.2496 33.3324 33.7392 30.9089 33.7392H28.8884C25.7955 33.7392 22.7957 32.6731 20.397 30.727C19.9384 30.3551 20.1677 29.6175 20.7565 29.5679L45.7409 27.6279C46.4661 27.5721 46.714 28.5948 46.0384 28.8799Z" fill="#9AC0D9"/>
<path d="M120.428 37.7059V39.0137C118.004 38.2389 116.256 35.9705 116.256 33.2929C116.256 32.9706 116.281 32.6483 116.331 32.3384C118.723 32.9892 120.428 35.1647 120.428 37.7059Z" fill="#F2D61F"/>
<path d="M120.428 53.9572V55.2588C120.428 57.8 118.723 59.9817 116.331 60.6263C116.281 60.3164 116.256 59.9941 116.256 59.6718C116.256 57.0004 118.004 54.732 120.428 53.9572Z" fill="#F2D61F"/>
<path d="M9.91623 50.4119H7.43701V62.9258H9.91623V50.4119Z" fill="#6E0C40"/>
<path d="M45.4746 31.9975C43.6214 32.8094 42.4189 34.6441 42.4189 36.6646V46.6311V56.5976C42.4189 58.6243 43.6152 60.4528 45.4746 61.2647L55.1746 65.5042C57.7902 66.6446 60.7156 64.7294 60.7156 61.8783V46.6249V31.3715C60.7156 28.5204 57.7902 26.6052 55.1746 27.7456L45.4746 31.9975Z" fill="#9AC0D9"/>
<path d="M57.6352 27.5225V41.276V56.5294C57.6352 59.3805 54.7097 61.2957 52.0942 60.1553L42.4189 55.922V56.6038C42.4189 58.6306 43.6152 60.459 45.4746 61.271L55.1746 65.5104C57.7902 66.6508 60.7156 64.7357 60.7156 61.8846V46.6312V31.3777C60.7156 29.4253 59.3459 27.913 57.6352 27.5225Z" fill="#78A4BF"/>
<path d="M45.7912 65.969C45.754 65.969 45.723 65.969 45.6858 65.9628L20.7015 64.0228C20.1809 63.9795 19.7408 63.6324 19.5858 63.1304C19.4309 62.6283 19.5921 62.0952 20.0011 61.7667C22.5052 59.7338 25.6599 58.6182 28.8829 58.6182H30.9035C33.4261 58.6182 35.8867 59.1202 38.2048 60.1057L46.2747 63.527C46.8635 63.775 47.1672 64.3823 47.0122 65.0021C46.8759 65.5847 46.38 65.969 45.7912 65.969ZM28.8829 59.8578C25.9388 59.8578 23.063 60.8805 20.7821 62.7337L45.785 64.7294L45.8222 64.6799L45.8036 64.6737L37.7338 61.2523C35.5644 60.335 33.2712 59.864 30.9159 59.864H28.8829V59.8578Z" fill="#730E44"/>
<path d="M30.9035 34.359H28.8829C25.6599 34.359 22.5052 33.2372 20.0011 31.2104C19.5921 30.8819 19.4309 30.3426 19.5858 29.8468C19.7408 29.3447 20.1809 28.9977 20.7015 28.9543L45.6858 27.0143C46.318 26.9585 46.8697 27.3614 47.0184 27.9812C47.1672 28.601 46.8635 29.2084 46.2809 29.4563L38.211 32.8776C35.8867 33.8631 33.4261 34.359 30.9035 34.359ZM45.816 28.2973L20.7945 30.1877C23.063 32.0967 25.9388 33.1194 28.8767 33.1194H30.8973C33.2525 33.1194 35.552 32.6545 37.7151 31.731L45.785 28.3097C45.8098 28.3035 45.816 28.2973 45.816 28.2973Z" fill="#730E44"/>
<path d="M56.7614 66.4711C56.1416 66.4711 55.5156 66.3409 54.9268 66.0868L45.2269 61.8473C43.1443 60.9362 41.7993 58.8785 41.7993 56.61V36.6708C41.7993 34.3961 43.1443 32.3446 45.2269 31.4335L54.9268 27.194C56.3462 26.5742 57.9701 26.7106 59.2655 27.5597C60.5609 28.4089 61.3356 29.8406 61.3356 31.3901V61.8969C61.3356 63.4465 60.5609 64.8782 59.2655 65.7273C58.5093 66.2169 57.6353 66.4711 56.7614 66.4711ZM56.7614 28.0432C56.309 28.0432 55.8504 28.1361 55.4227 28.3221L45.7227 32.5615C44.0926 33.2743 43.0389 34.8858 43.0389 36.6646V56.6038C43.0389 58.3826 44.0926 59.9941 45.7227 60.7069L55.4227 64.9463C56.4578 65.3988 57.6416 65.2997 58.5837 64.6799C59.532 64.0601 60.096 63.0188 60.096 61.8845V31.3777C60.096 30.2496 59.532 29.2022 58.5837 28.5824C58.0321 28.2291 57.3998 28.0432 56.7614 28.0432Z" fill="#730E44"/>
<path d="M12.9839 20.0601H8.65771V0.375122H12.9839L16.3557 2.9039V17.5313L12.9839 20.0601Z" fill="black"/>
<path d="M20.6884 20.0601H16.356V0.375061H20.6884L24.0601 2.90384V17.5312L20.6884 20.0601Z" fill="black"/>
<path d="M28.3925 20.0601H24.0601V0.375061H28.3925L31.7643 2.90384V17.5312L28.3925 20.0601Z" fill="black"/>
<path d="M9.61857 0.375122H5.28613V20.0601H9.61857V0.375122Z" fill="black"/>
<path d="M33.772 0.375122H28.3921V20.0601H33.772V0.375122Z" fill="black"/>
<path d="M91.4076 22.9545H87.0752V3.26953H91.4076L94.7794 5.79838V20.4258L91.4076 22.9545Z" fill="black"/>
<path d="M99.1122 22.9545H94.7798V3.26953H99.1122L102.484 5.79838V20.4258L99.1122 22.9545Z" fill="black"/>
<path d="M106.81 22.9545H102.483V3.26953H106.81L110.181 5.79838V20.4258L106.81 22.9545Z" fill="black"/>
<path d="M88.0365 3.26953H83.7041V22.9545H88.0365V3.26953Z" fill="black"/>
<path d="M112.19 3.26953H106.811V22.9545H112.19V3.26953Z" fill="black"/>
<path d="M12.9839 92.5958H8.65771V72.9108H12.9839L16.3557 75.4397V90.0671L12.9839 92.5958Z" fill="black"/>
<path d="M20.6884 92.5958H16.356V72.9108H20.6884L24.0601 75.4397V90.0671L20.6884 92.5958Z" fill="black"/>
<path d="M28.3925 92.5958H24.0601V72.9108H28.3925L31.7643 75.4397V90.0671L28.3925 92.5958Z" fill="black"/>
<path d="M9.61857 72.9108H5.28613V92.5958H9.61857V72.9108Z" fill="black"/>
<path d="M33.772 72.9108H28.3921V92.5958H33.772V72.9108Z" fill="black"/>
<path d="M91.4076 89.6952H87.0752V70.0102H91.4076L94.7794 72.539V87.1664L91.4076 89.6952Z" fill="black"/>
<path d="M99.1122 89.6952H94.7798V70.0102H99.1122L102.484 72.539V87.1664L99.1122 89.6952Z" fill="black"/>
<path d="M106.81 89.6952H102.483V70.0102H106.81L110.181 72.539V87.1664L106.81 89.6952Z" fill="black"/>
<path d="M88.0365 70.0102H83.7041V89.6952H88.0365V70.0102Z" fill="black"/>
<path d="M112.19 70.0102H106.811V89.6952H112.19V70.0102Z" fill="black"/>
</svg>
