<svg width="122" height="93" viewBox="0 0 122 93" fill="none" xmlns="http://www.w3.org/2000/svg">
<path d="M38.7287 29.4253L37.1668 31.3529L26.8099 22.9545L18.2565 16.0252L19.366 23.4752L21.839 40.1108L19.3846 40.4764L16.8806 23.6487L14.8662 10.0812L30.4419 22.7066L38.7287 29.4253Z" fill="black"/>
<path d="M38.7287 63.5332L30.4357 70.2581H30.4295L14.8662 82.8773L16.8806 69.3222L19.3846 52.4883L21.839 52.8477L19.366 69.4957L18.2565 76.9396L26.8037 70.0102L37.1668 61.6056L38.7287 63.5332Z" fill="black"/>
<path d="M105.079 49.3582L101.651 65.1881L98.3849 80.2989L96.575 79.9023L94.6909 80.2741L91.9947 66.5951L88.5981 49.3335L91.034 48.8562L94.4553 66.2356L96.5688 76.9706L99.0357 65.5724L102.655 48.8314L105.079 49.3582Z" fill="black"/>
<path d="M105.079 43.6065L102.655 44.1333L99.0357 27.3923L96.5688 15.9879L94.4553 26.7291L91.034 44.1085L88.5981 43.6312L91.9947 26.3697L94.6909 12.6906L96.575 13.0563L98.3849 12.6658L101.651 27.7766L105.079 43.6065Z" fill="black"/>
<path d="M122 37.706V55.2588C122 58.8661 119.583 62.0457 116.118 63.0064C115.783 63.1055 115.436 63.1799 115.108 63.2295L101.652 65.1881L99.036 65.5724L94.4557 66.2356L91.995 66.5951L57.255 71.6527C56.5608 71.7581 55.8356 71.8262 55.0918 71.851C54.8439 71.8634 54.596 71.8696 54.348 71.8696C53.8832 71.8696 53.4122 71.851 52.9287 71.82L30.436 70.2581H30.4298L26.8039 70.0102L19.3663 69.4957L16.8808 69.3222L12.4989 69.0185C12.4989 69.0185 12.474 69.0185 12.4678 69.0185C9.23865 68.7892 6.68501 66.1488 6.53626 62.9382H2.48899C1.11922 62.9382 0.00976562 61.8288 0.00976562 60.459V55.0419C0.00976562 53.6721 1.11922 52.5627 2.48899 52.5627H6.53013V30.3179C6.53013 26.9771 9.13948 24.1818 12.4678 23.9524L16.8808 23.6487L19.3663 23.4752L26.8101 22.9546L30.4422 22.7066L52.9287 21.1448C53.406 21.1076 53.8832 21.0952 54.348 21.0952C54.596 21.0952 54.8439 21.0952 55.0918 21.1076C55.8356 21.1386 56.5422 21.2005 57.2426 21.3059L91.995 26.3697L94.4557 26.7292L99.036 27.3924L101.652 27.7767L115.108 29.7353C115.126 29.7353 115.139 29.7415 115.151 29.7415C115.411 29.7849 115.752 29.8468 116.118 29.9584C119.583 30.9191 122 34.0987 122 37.706Z" fill="#6E0C40"/>
<path d="M6.52392 52.5626V62.9382H2.48899C1.11922 62.9382 0.00976562 61.8287 0.00976562 60.4589V55.0418C0.00976562 53.6721 1.11922 52.5626 2.48899 52.5626H6.52392Z" fill="#3D3D3D"/>
<path d="M9.78423 55.0419H2.48291V60.459H9.78423V55.0419Z" fill="#737373"/>
<path d="M119.514 37.7059V55.2588C119.514 57.8 117.81 59.9817 115.417 60.6263C115.2 60.6945 114.977 60.744 114.748 60.775L56.8829 69.2044C56.2569 69.2973 55.6246 69.3531 54.9924 69.3779C54.3602 69.4027 53.7281 69.3903 53.0959 69.3469L12.635 66.5455C10.5896 66.4029 9.00293 64.6984 9.00293 62.6469V30.3178C9.00293 28.2662 10.5896 26.568 12.635 26.4254L53.0959 23.6177C53.7281 23.5744 54.3602 23.5619 54.9924 23.5867C55.6246 23.6115 56.2507 23.6673 56.8829 23.7603L114.748 32.1896C114.977 32.2268 115.2 32.2702 115.417 32.3384C117.81 32.9892 119.514 35.1647 119.514 37.7059Z" fill="#FF1F97"/>
<path d="M15.6288 26.2209L14.8169 26.2767C15.071 26.2581 15.3375 26.2395 15.6288 26.2209Z" fill="#FF0000"/>
<path d="M119.52 53.6721L54.9985 59.8702V33.0945L119.52 39.2926V53.6721Z" fill="#C7247B"/>
<path d="M15.6288 26.2209L14.8169 26.2767C15.071 26.2581 15.3375 26.2395 15.6288 26.2209Z" fill="#FF0000"/>
<path d="M68.8514 67.4628C64.302 66.6013 61.0047 62.6283 61.0047 57.9984V46.6435V46.3336V34.9788C61.0047 30.3489 64.302 26.3697 68.8514 25.5144L56.8892 23.7728C56.257 23.6798 55.631 23.624 54.9988 23.5992C54.3666 23.5744 53.7344 23.5868 53.1021 23.6301L18.6596 26.0227C18.5171 26.0351 18.3745 26.0412 18.2381 26.0536C17.9592 26.0722 17.6865 26.0908 17.4262 26.1094C17.2898 26.1156 17.1597 26.128 17.0357 26.1342C16.701 26.159 16.3787 26.1838 16.0688 26.2023C15.92 26.2147 15.7713 26.221 15.6288 26.2334L14.8168 26.2891C14.6929 26.2953 14.5751 26.3077 14.4573 26.3139C14.228 26.3263 14.0172 26.3449 13.8251 26.3573C13.0627 26.4069 12.6413 26.4379 12.6413 26.4379C10.596 26.5804 9.00928 28.2787 9.00928 30.3303V62.6593C9.00928 64.7109 10.596 66.4153 12.6413 66.5579C12.6413 66.5579 13.0627 66.5889 13.8251 66.6384C14.0172 66.6508 14.228 66.6695 14.4573 66.6819C14.5751 66.6881 14.6929 66.7004 14.8168 66.7066C15.071 66.7252 15.3374 66.7438 15.6288 66.7624C15.7713 66.7748 15.92 66.781 16.0688 66.7934C16.3787 66.812 16.701 66.8368 17.0357 66.8616C17.1597 66.8678 17.2898 66.8802 17.4262 66.8864C17.6865 66.905 17.9592 66.9235 18.2381 66.9421C18.3745 66.9545 18.5171 66.9608 18.6596 66.9732C19.0439 66.9979 19.4406 67.0227 19.8497 67.0537C20.0542 67.0661 20.2649 67.0785 20.4757 67.0971C21.3062 67.1529 22.1801 67.2149 23.0912 67.2769L53.1021 69.3594C53.7344 69.4028 54.3666 69.4152 54.9988 69.3904C55.631 69.3656 56.2632 69.3098 56.8892 69.2168L59.1391 68.8883L68.8514 67.4628Z" fill="#C7247B"/>
<path d="M54.6207 26.9833H44.8154L19.8311 28.9233L14.854 29.6299C13.2177 29.8654 12.0029 31.26 12.0029 32.9149V46.4824V60.0499C12.0029 61.6986 13.2177 63.0994 14.854 63.3349L19.8311 64.0415L44.8154 65.9815L54.6207 66.2914C57.3665 66.3781 59.8023 65.1633 59.8023 61.4941V31.3839C59.8023 29.0348 58.104 26.9771 54.6207 26.9833Z" fill="#8C1956"/>
<path d="M18.8888 60.8432C19.2979 60.4838 19.5396 59.9445 19.5396 59.3681V46.4762V33.5842C19.5396 33.014 19.2979 32.4686 18.8888 32.1091L17.6492 31.0244L13.856 27.7023C12.0152 26.0908 9.03392 27.3118 9.00293 29.7662C9.00293 29.7848 9.00293 29.8034 9.00293 29.822V32.4996V46.4762V60.4528V63.1304C9.00293 63.149 9.00293 63.1675 9.00293 63.1861C9.03392 65.6344 12.0152 66.8615 13.856 65.2501C15.9261 63.4402 17.6492 61.9279 17.6492 61.9279L18.8888 60.8432Z" fill="#FF1F97"/>
<path d="M15.883 31.4893C14.7674 30.51 13.1001 31.3716 13.1001 32.9211V46.4886V60.0561C13.1001 61.6056 14.7674 62.461 15.883 61.4879L17.0854 60.4342C17.4821 60.0871 17.7176 59.5603 17.7176 59.0025V46.4886V33.9747C17.7176 33.4169 17.4883 32.8962 17.0854 32.5429L15.883 31.4893Z" fill="#6E0C40"/>
<path d="M45.1253 64.0972L37.0555 60.6759C34.8242 59.7276 32.4193 59.238 29.9959 59.238H27.9753C24.8825 59.238 21.8826 60.304 19.4839 62.2502C19.0253 62.6221 19.2547 63.3597 19.8435 63.4093L44.8278 65.3492C45.553 65.405 45.8009 64.3885 45.1253 64.0972Z" fill="#78A4BF"/>
<path d="M45.1253 28.8799L37.0555 32.3013C34.8242 33.2496 32.4193 33.7392 29.9959 33.7392H27.9753C24.8825 33.7392 21.8826 32.6731 19.4839 30.727C19.0253 30.3551 19.2547 29.6175 19.8435 29.5679L44.8278 27.6279C45.553 27.5721 45.8009 28.5948 45.1253 28.8799Z" fill="#9AC0D9"/>
<path d="M119.515 37.7059V39.0137C117.091 38.2389 115.343 35.9705 115.343 33.2929C115.343 32.9706 115.368 32.6483 115.418 32.3384C117.81 32.9892 119.515 35.1647 119.515 37.7059Z" fill="#F2D61F"/>
<path d="M119.515 53.9572V55.2588C119.515 57.8 117.81 59.9817 115.418 60.6263C115.368 60.3164 115.343 59.9941 115.343 59.6718C115.343 57.0004 117.091 54.732 119.515 53.9572Z" fill="#F2D61F"/>
<path d="M9.00315 50.4119H6.52393V62.9258H9.00315V50.4119Z" fill="#6E0C40"/>
<path d="M44.5615 31.9975C42.7083 32.8094 41.5059 34.6441 41.5059 36.6646V46.6311V56.5976C41.5059 58.6243 42.7021 60.4528 44.5615 61.2647L54.2614 65.5042C56.877 66.6446 59.8025 64.7294 59.8025 61.8783V46.6249V31.3715C59.8025 28.5204 56.877 26.6052 54.2614 27.7456L44.5615 31.9975Z" fill="#9AC0D9"/>
<path d="M56.7221 27.5225V41.276V56.5294C56.7221 59.3805 53.7966 61.2957 51.181 60.1553L41.5059 55.922V56.6038C41.5059 58.6306 42.7021 60.459 44.5615 61.271L54.2614 65.5104C56.877 66.6508 59.8025 64.7357 59.8025 61.8846V46.6312V31.3777C59.8025 29.4253 58.4266 27.913 56.7221 27.5225Z" fill="#78A4BF"/>
<path d="M44.8781 65.969C44.841 65.969 44.8099 65.969 44.7728 65.9628L19.7884 64.0228C19.2677 63.9795 18.8277 63.6324 18.6728 63.1304C18.5178 62.6283 18.6789 62.0952 19.088 61.7667C21.592 59.7338 24.7469 58.6182 27.9698 58.6182H29.9904C32.513 58.6182 34.9737 59.1202 37.2917 60.1057L45.3615 63.527C45.9504 63.775 46.2541 64.3823 46.0991 65.0021C45.9628 65.5847 45.467 65.969 44.8781 65.969ZM27.9698 59.8578C25.0258 59.8578 22.1498 60.8805 19.8689 62.7337L44.8719 64.7294L44.9091 64.6799L44.8905 64.6737L36.8207 61.2523C34.6514 60.335 32.3581 59.864 30.0028 59.864H27.9698V59.8578Z" fill="#730E44"/>
<path d="M29.9904 34.359H27.9698C24.7469 34.359 21.592 33.2372 19.088 31.2104C18.6789 30.8819 18.5178 30.3426 18.6728 29.8468C18.8277 29.3447 19.2677 28.9977 19.7884 28.9543L44.7728 27.0143C45.405 26.9585 45.9566 27.3614 46.1054 27.9812C46.2541 28.601 45.9504 29.2084 45.3677 29.4563L37.2979 32.8776C34.9736 33.8631 32.513 34.359 29.9904 34.359ZM44.9029 28.2973L19.8814 30.1877C22.1498 32.0967 25.0258 33.1194 27.9636 33.1194H29.9842C32.3395 33.1194 34.6389 32.6545 36.8021 31.731L44.8719 28.3097C44.8967 28.3035 44.9029 28.2973 44.9029 28.2973Z" fill="#730E44"/>
<path d="M55.8483 66.4711C55.2285 66.4711 54.6026 66.3409 54.0137 66.0868L44.3138 61.8473C42.2312 60.9362 40.8862 58.8785 40.8862 56.61V36.6708C40.8862 34.3961 42.2312 32.3446 44.3138 31.4335L54.0137 27.194C55.4331 26.5742 57.057 26.7106 58.3524 27.5597C59.6478 28.4089 60.4225 29.8406 60.4225 31.3901V61.8969C60.4225 63.4465 59.6478 64.8782 58.3524 65.7273C57.5962 66.2169 56.7223 66.4711 55.8483 66.4711ZM55.8483 28.0432C55.3959 28.0432 54.9372 28.1361 54.5095 28.3221L44.8096 32.5615C43.1795 33.2743 42.1258 34.8858 42.1258 36.6646V56.6038C42.1258 58.3826 43.1795 59.9941 44.8096 60.7069L54.5095 64.9463C55.5446 65.3988 56.7284 65.2997 57.6705 64.6799C58.6188 64.0601 59.1829 63.0188 59.1829 61.8845V31.3777C59.1829 30.2496 58.6188 29.2022 57.6705 28.5824C57.1189 28.2291 56.4867 28.0432 55.8483 28.0432Z" fill="#730E44"/>
<path d="M10.0009 20.0601H5.66846V0.375061H10.0009L13.3726 2.90384V17.5312L10.0009 20.0601Z" fill="black"/>
<path d="M17.7055 20.0601H13.373V0.375061H17.7055L21.0773 2.90384V17.5312L17.7055 20.0601Z" fill="black"/>
<path d="M25.4029 20.0601H21.0767V0.375061H25.4029L28.7746 2.90384V17.5312L25.4029 20.0601Z" fill="black"/>
<path d="M8.70597 0.375122H4.37354V20.0601H8.70597V0.375122Z" fill="black"/>
<path d="M32.8599 0.375122H27.48V20.0601H32.8599V0.375122Z" fill="black"/>
<path d="M88.4258 22.9545H84.0933V3.26953H88.4258L91.7975 5.79838V20.4258L88.4258 22.9545Z" fill="black"/>
<path d="M96.1236 22.9545H91.7974V3.26953H96.1236L99.4954 5.79838V20.4258L96.1236 22.9545Z" fill="black"/>
<path d="M103.828 22.9545H99.4951V3.26953H103.828L107.199 5.79838V20.4258L103.828 22.9545Z" fill="black"/>
<path d="M87.1234 3.26953H82.791V22.9545H87.1234V3.26953Z" fill="black"/>
<path d="M111.277 3.26953H105.897V22.9545H111.277V3.26953Z" fill="black"/>
<path d="M88.4258 89.6952H84.0933V70.0102H88.4258L91.7975 72.539V87.1664L88.4258 89.6952Z" fill="black"/>
<path d="M96.1236 89.6952H91.7974V70.0102H96.1236L99.4954 72.539V87.1664L96.1236 89.6952Z" fill="black"/>
<path d="M103.828 89.6952H99.4951V70.0102H103.828L107.199 72.539V87.1664L103.828 89.6952Z" fill="black"/>
<path d="M87.1234 70.0102H82.791V89.6952H87.1234V70.0102Z" fill="black"/>
<path d="M111.277 70.0102H105.897V89.6952H111.277V70.0102Z" fill="black"/>
<path d="M10.0009 92.5958H5.66846V72.9108H10.0009L13.3726 75.4397V90.0671L10.0009 92.5958Z" fill="black"/>
<path d="M17.7055 92.5958H13.373V72.9108H17.7055L21.0773 75.4397V90.0671L17.7055 92.5958Z" fill="black"/>
<path d="M25.4029 92.5958H21.0767V72.9108H25.4029L28.7746 75.4397V90.0671L25.4029 92.5958Z" fill="black"/>
<path d="M8.70597 72.9108H4.37354V92.5958H8.70597V72.9108Z" fill="black"/>
<path d="M32.8599 72.9108H27.48V92.5958H32.8599V72.9108Z" fill="black"/>
</svg>
