<svg width="123" height="93" viewBox="0 0 123 93" fill="none" xmlns="http://www.w3.org/2000/svg">
<path d="M39.1545 29.6533L30.8615 22.9284H30.8553L15.292 10.3092L17.3064 23.8643L19.8104 40.6982L22.2648 40.3388L19.7918 23.6908L18.6823 16.2469L27.2294 23.1764L37.5926 31.5809L39.1545 29.6533Z" fill="black"/>
<path d="M105.505 43.8283L102.077 27.9984L98.8107 12.8876L97.0008 13.2843L95.1167 12.9124L92.4204 26.5915L89.0239 43.8531L91.4598 44.3303L94.8811 26.951L96.9946 16.2159L99.4615 27.6141L103.081 44.3551L105.505 43.8283Z" fill="black"/>
<path d="M39.1545 63.755L30.8615 70.4799H30.8553L15.292 83.0991L17.3064 69.544L19.8104 52.7101L22.2648 53.0696L19.7918 69.7175L18.6823 77.1614L27.2294 70.232L37.5926 61.8274L39.1545 63.755Z" fill="black"/>
<path d="M105.505 49.5801L102.077 65.4099L98.8107 80.5207L97.0008 80.1241L95.1167 80.4959L92.4204 66.8168L89.0239 49.5553L91.4598 49.078L94.8811 66.4573L96.9946 77.1924L99.4615 65.7942L103.081 49.0532L105.505 49.5801Z" fill="black"/>
<path d="M122.426 37.9277V55.4806C122.426 59.0879 120.008 62.2675 116.544 63.2282C116.209 63.3273 115.862 63.4017 115.533 63.4513L102.077 65.4099L99.4618 65.7942L94.8815 66.4573L92.4208 66.8168L57.6807 71.8745C56.9866 71.9798 56.2614 72.048 55.5176 72.0728C55.2697 72.0852 55.0217 72.0914 54.7738 72.0914C54.309 72.0914 53.838 72.0728 53.3545 72.0418L30.8618 70.4799H30.8556L27.2297 70.232L19.792 69.7175L17.3066 69.544L12.9246 69.2403C12.9246 69.2403 12.8998 69.2403 12.8936 69.2403C9.66443 69.011 7.11079 66.3706 6.96204 63.16H2.91477C1.545 63.16 0.435547 62.0506 0.435547 60.6808V55.2637C0.435547 53.8939 1.545 52.7844 2.91477 52.7844H6.95591V30.5396C6.95591 27.1989 9.56526 24.4036 12.8936 24.1742L17.3066 23.8705L19.792 23.697L27.2359 23.1764L30.868 22.9284L53.3545 21.3665C53.8318 21.3293 54.309 21.317 54.7738 21.317C55.0217 21.317 55.2697 21.3169 55.5176 21.3293C56.2614 21.3603 56.968 21.4223 57.6683 21.5277L92.4208 26.5915L94.8815 26.951L99.4618 27.6142L102.077 27.9985L115.533 29.957C115.552 29.957 115.564 29.9632 115.577 29.9632C115.837 30.0066 116.178 30.0686 116.544 30.1802C120.008 31.1409 122.426 34.3205 122.426 37.9277Z" fill="#730000"/>
<path d="M6.94971 52.7844V63.16H2.91477C1.545 63.16 0.435547 62.0506 0.435547 60.6808V55.2637C0.435547 53.8939 1.545 52.7844 2.91477 52.7844H6.94971Z" fill="#3D3D3D"/>
<path d="M10.2158 55.2637H2.91455V60.6808H10.2158V55.2637Z" fill="#737373"/>
<path d="M119.946 37.9277V55.4806C119.946 58.0218 118.242 60.2035 115.849 60.8481C115.632 60.9163 115.409 60.9659 115.18 60.9969L57.315 69.4262C56.689 69.5192 56.0568 69.575 55.4246 69.5998C54.7924 69.6246 54.1601 69.6122 53.5279 69.5688L13.0671 66.7672C11.0218 66.6247 9.43506 64.9202 9.43506 62.8687V30.5396C9.43506 28.4881 11.0218 26.7898 13.0671 26.6473L53.5279 23.8395C54.1601 23.7962 54.7924 23.7838 55.4246 23.8086C56.0568 23.8334 56.6828 23.8891 57.315 23.9821L115.18 32.4115C115.409 32.4487 115.632 32.492 115.849 32.5602C118.242 33.211 119.946 35.3865 119.946 37.9277Z" fill="#FF0000"/>
<path d="M16.0609 26.4427L15.249 26.4985C15.5031 26.4799 15.7696 26.4613 16.0609 26.4427Z" fill="#FF0000"/>
<path d="M119.952 53.8939L55.4307 60.092V33.3164L119.952 39.5144V53.8939Z" fill="#D40000"/>
<path d="M16.0609 26.4427L15.249 26.4985C15.5031 26.4799 15.7696 26.4613 16.0609 26.4427Z" fill="#FF0000"/>
<path d="M69.2836 67.6846C64.7343 66.823 61.4369 62.8501 61.4369 58.2201V46.8653V46.5554V35.2006C61.4369 30.5706 64.7343 26.5915 69.2836 25.7361L57.3214 23.9945C56.6892 23.9015 56.0632 23.8457 55.431 23.821C54.7988 23.7962 54.1666 23.8086 53.5344 23.852L19.0918 26.2444C18.9493 26.2568 18.8067 26.263 18.6703 26.2754C18.3914 26.294 18.1187 26.3126 17.8584 26.3312C17.7221 26.3374 17.5919 26.3498 17.4679 26.356C17.1332 26.3807 16.8109 26.4055 16.501 26.4241C16.3522 26.4365 16.2035 26.4427 16.061 26.4551L15.2491 26.5109C15.1251 26.5171 15.0073 26.5295 14.8895 26.5357C14.6602 26.5481 14.4494 26.5667 14.2573 26.5791C13.4949 26.6287 13.0735 26.6597 13.0735 26.6597C11.0282 26.8022 9.44141 28.5005 9.44141 30.552V62.8811C9.44141 64.9326 11.0282 66.6371 13.0735 66.7796C13.0735 66.7796 13.4949 66.8106 14.2573 66.8602C14.4494 66.8726 14.6602 66.8912 14.8895 66.9036C15.0073 66.9098 15.1251 66.9222 15.2491 66.9284C15.5032 66.947 15.7697 66.9656 16.061 66.9842C16.2035 66.9966 16.3522 67.0028 16.501 67.0152C16.8109 67.0338 17.1332 67.0585 17.4679 67.0833C17.5919 67.0895 17.7221 67.102 17.8584 67.1082C18.1187 67.1268 18.3914 67.1453 18.6703 67.1639C18.8067 67.1763 18.9493 67.1825 19.0918 67.1949C19.4761 67.2197 19.8728 67.2445 20.2819 67.2755C20.4864 67.2879 20.6971 67.3003 20.9078 67.3189C21.7383 67.3747 22.6123 67.4367 23.5234 67.4986L53.5344 69.5812C54.1666 69.6246 54.7988 69.6369 55.431 69.6122C56.0632 69.5874 56.6954 69.5316 57.3214 69.4386L59.5713 69.1101L69.2836 67.6846Z" fill="#D40000"/>
<path d="M55.0529 27.2051H45.2475L20.2632 29.1451L15.2861 29.8517C13.6499 30.0872 12.4351 31.4817 12.4351 33.1366V46.7041V60.2717C12.4351 61.9204 13.6499 63.3211 15.2861 63.5566L20.2632 64.2632L45.2475 66.2032L55.0529 66.5131C57.7986 66.5999 60.2344 65.3851 60.2344 61.7158V31.6057C60.2344 29.2566 58.5362 27.1989 55.0529 27.2051Z" fill="#990000"/>
<path d="M19.3209 61.0651C19.73 60.7056 19.9717 60.1663 19.9717 59.5899V46.698V33.806C19.9717 33.2358 19.73 32.6904 19.3209 32.3309L18.0813 31.2462L14.2881 27.9241C12.4473 26.3126 9.46605 27.5398 9.43506 29.988C9.43506 30.0066 9.43506 30.0252 9.43506 30.0438V32.7214V46.698V60.6746V63.3522C9.43506 63.3707 9.43506 63.3893 9.43506 63.4079C9.46605 65.8561 12.4473 67.0834 14.2881 65.4719C16.3583 63.662 18.0813 62.1497 18.0813 62.1497L19.3209 61.0651Z" fill="#FF0000"/>
<path d="M16.3147 31.7111C15.199 30.7318 13.5317 31.5933 13.5317 33.1428V46.7104V60.2779C13.5317 61.8274 15.199 62.6827 16.3147 61.7096L17.517 60.656C17.9137 60.3089 18.1493 59.782 18.1493 59.2242V46.7041V34.1903C18.1493 33.6325 17.9199 33.1118 17.517 32.7586L16.3147 31.7111Z" fill="#D40000"/>
<path d="M45.5574 64.319L37.4875 60.8977C35.2562 59.9494 32.8515 59.4597 30.428 59.4597H28.4074C25.3146 59.4597 22.3147 60.5258 19.9161 62.472C19.4574 62.8439 19.6868 63.5814 20.2756 63.631L45.2599 65.571C45.9851 65.6268 46.233 64.6103 45.5574 64.319Z" fill="#78A4BF"/>
<path d="M45.5574 29.1017L37.4875 32.523C35.2562 33.4713 32.8515 33.961 30.428 33.961H28.4074C25.3146 33.961 22.3147 32.8949 19.9161 30.9487C19.4574 30.5768 19.6868 29.8393 20.2756 29.7897L45.2599 27.8497C45.9851 27.7939 46.233 28.8166 45.5574 29.1017Z" fill="#9AC0D9"/>
<path d="M119.946 37.9277V39.2355C117.523 38.4607 115.775 36.1923 115.775 33.5147C115.775 33.1924 115.8 32.8701 115.849 32.5602C118.242 33.211 119.946 35.3865 119.946 37.9277Z" fill="#FCB321"/>
<path d="M119.946 54.179V55.4806C119.946 58.0218 118.242 60.2035 115.849 60.8481C115.8 60.5382 115.775 60.2159 115.775 59.8936C115.775 57.2223 117.523 54.9538 119.946 54.179Z" fill="#FCB321"/>
<path d="M9.43528 50.6337H6.95605V63.1476H9.43528V50.6337Z" fill="#730000"/>
<path d="M44.9932 32.2193C43.14 33.0313 41.9375 34.8659 41.9375 36.8865V46.8529V56.8194C41.9375 58.8461 43.1338 60.6746 44.9932 61.4865L54.6931 65.726C57.3086 66.8664 60.2342 64.9512 60.2342 62.1001V46.8467V31.5933C60.2342 28.7422 57.3086 26.827 54.6931 27.9675L44.9932 32.2193Z" fill="#9AC0D9"/>
<path d="M57.1537 27.7443V41.4978V56.7512C57.1537 59.6023 54.2282 61.5175 51.6127 60.377L41.9375 56.1438V56.8256C41.9375 58.8523 43.1338 60.6808 44.9932 61.4927L54.6931 65.7322C57.3086 66.8726 60.2342 64.9574 60.2342 62.1063V46.8529V31.5995C60.2342 29.6471 58.8582 28.1348 57.1537 27.7443Z" fill="#78A4BF"/>
<path d="M45.3093 66.1908C45.2721 66.1908 45.2411 66.1909 45.2039 66.1847L20.2195 64.2447C19.6989 64.2013 19.2589 63.8542 19.1039 63.3522C18.949 62.8501 19.1101 62.3171 19.5191 61.9886C22.0232 59.9556 25.178 58.84 28.401 58.84H30.4216C32.9442 58.84 35.4047 59.342 37.7228 60.3275L45.7927 63.7488C46.3815 63.9967 46.6852 64.6041 46.5303 65.2239C46.3939 65.8066 45.8981 66.1908 45.3093 66.1908ZM28.401 60.0796C25.4569 60.0796 22.581 61.1022 20.3001 62.9555L45.3031 64.9512L45.3402 64.9017L45.3216 64.8955L37.2518 61.4741C35.0825 60.5568 32.7892 60.0858 30.434 60.0858L28.401 60.0796Z" fill="#730000"/>
<path d="M30.4216 34.5808H28.401C25.178 34.5808 22.0232 33.4589 19.5191 31.4322C19.1101 31.1037 18.949 30.5644 19.1039 30.0686C19.2589 29.5666 19.6989 29.2195 20.2195 29.1761L45.2039 27.2361C45.8361 27.1803 46.3877 27.5832 46.5365 28.203C46.6853 28.8228 46.3815 29.4302 45.7989 29.6781L37.729 33.0994C35.4047 34.0849 32.9442 34.5808 30.4216 34.5808ZM45.334 28.5191L20.3125 30.4095C22.581 32.3185 25.4569 33.3412 28.3948 33.3412H30.4154C32.7706 33.3412 35.0701 32.8763 37.2332 31.9528L45.3031 28.5315C45.3279 28.5253 45.334 28.5191 45.334 28.5191Z" fill="#730000"/>
<path d="M56.2795 66.6867C55.6597 66.6867 55.0337 66.5565 54.4449 66.3024L44.7449 62.063C42.6624 61.1518 41.3174 59.0941 41.3174 56.8256V36.8865C41.3174 34.6118 42.6624 32.5602 44.7449 31.6491L54.4449 27.4096C55.8642 26.7898 57.4881 26.9262 58.7835 27.7753C60.0789 28.6245 60.8537 30.0562 60.8537 31.6057V62.1125C60.8537 63.6621 60.0789 65.0938 58.7835 65.9429C58.0274 66.4388 57.1534 66.6867 56.2795 66.6867ZM56.2795 28.265C55.827 28.265 55.3684 28.3579 54.9407 28.5439L45.2407 32.7834C43.6106 33.4961 42.557 35.1076 42.557 36.8865V56.8256C42.557 58.6044 43.6106 60.2159 45.2407 60.9287L54.9407 65.1682C55.9758 65.6206 57.1596 65.5215 58.1017 64.9017C59.05 64.2819 59.614 63.2406 59.614 62.1063V31.5995C59.614 30.4715 59.05 29.424 58.1017 28.8042C57.5501 28.4509 56.9179 28.265 56.2795 28.265Z" fill="#730000"/>
<path d="M9.13189 20.2819H4.80566V0.596848H9.13189L12.5037 3.12566V17.7531L9.13189 20.2819Z" fill="black"/>
<path d="M16.8358 20.2819H12.5034V0.596848H16.8358L20.2076 3.12566V17.7531L16.8358 20.2819Z" fill="black"/>
<path d="M24.5404 20.2819H20.208V0.596848H24.5404L27.9121 3.12566V17.7531L24.5404 20.2819Z" fill="black"/>
<path d="M9.1381 0.596848H4.80566V20.2819H9.1381V0.596848Z" fill="black"/>
<path d="M33.2921 0.596848H27.9121V20.2819H33.2921V0.596848Z" fill="black"/>
<path d="M87.5556 23.1764H83.2231V3.49133H87.5556L90.9274 6.02013V20.6475L87.5556 23.1764Z" fill="black"/>
<path d="M95.2597 23.1764H90.9272V3.49133H95.2597L98.6314 6.02013V20.6475L95.2597 23.1764Z" fill="black"/>
<path d="M102.958 23.1764H98.6313V3.49133H102.958L106.329 6.02013V20.6475L102.958 23.1764Z" fill="black"/>
<path d="M87.5556 3.49133H83.2231V23.1764H87.5556V3.49133Z" fill="black"/>
<path d="M111.709 3.49133H106.329V23.1764H111.709V3.49133Z" fill="black"/>
<path d="M87.5556 89.917H83.2231V70.232H87.5556L90.9274 72.7608V87.3882L87.5556 89.917Z" fill="black"/>
<path d="M95.2597 89.917H90.9272V70.2319H95.2597L98.6314 72.7608V87.3882L95.2597 89.917Z" fill="black"/>
<path d="M102.958 89.917H98.6313V70.2319H102.958L106.329 72.7608V87.3882L102.958 89.917Z" fill="black"/>
<path d="M87.5556 70.232H83.2231V89.917H87.5556V70.232Z" fill="black"/>
<path d="M111.709 70.2319H106.329V89.917H111.709V70.2319Z" fill="black"/>
<path d="M9.13189 92.8177H4.80566V73.1326H9.13189L12.5037 75.6615V90.2888L9.13189 92.8177Z" fill="black"/>
<path d="M16.8358 92.8177H12.5034V73.1326H16.8358L20.2076 75.6615V90.2888L16.8358 92.8177Z" fill="black"/>
<path d="M24.5404 92.8177H20.208V73.1326H24.5404L27.9121 75.6615V90.2888L24.5404 92.8177Z" fill="black"/>
<path d="M9.1381 73.1326H4.80566V92.8177H9.1381V73.1326Z" fill="black"/>
<path d="M33.2921 73.1326H27.9121V92.8177H33.2921V73.1326Z" fill="black"/>
</svg>
