<svg width="123" height="93" viewBox="0 0 123 93" fill="none" xmlns="http://www.w3.org/2000/svg">
<path d="M39.6418 29.6533L31.3488 22.9284H31.3426L15.7793 10.3092L17.7937 23.8643L20.2977 40.6982L22.7521 40.3388L20.2791 23.6908L19.1697 16.2469L27.7168 23.1764L38.0799 31.5809L39.6418 29.6533Z" fill="black"/>
<path d="M105.992 43.8283L102.565 27.9984L99.2984 12.8876L97.4886 13.2843L95.6044 12.9124L92.9082 26.5915L89.5117 43.8531L91.9475 44.3303L95.3688 26.951L97.4824 16.2159L99.9492 27.6141L103.569 44.3551L105.992 43.8283Z" fill="black"/>
<path d="M39.6418 63.755L31.3488 70.4799H31.3426L15.7793 83.0991L17.7937 69.544L20.2977 52.7101L22.7521 53.0696L20.2791 69.7175L19.1697 77.1614L27.7168 70.232L38.0799 61.8274L39.6418 63.755Z" fill="black"/>
<path d="M105.992 49.5801L102.565 65.4099L99.2984 80.5207L97.4886 80.1241L95.6044 80.4959L92.9082 66.8168L89.5117 49.5553L91.9475 49.078L95.3688 66.4573L97.4824 77.1924L99.9492 65.7942L103.569 49.0532L105.992 49.5801Z" fill="black"/>
<path d="M122.913 37.9277V55.4806C122.913 59.0879 120.496 62.2675 117.031 63.2282C116.696 63.3273 116.349 63.4017 116.021 63.4513L102.565 65.4099L99.9491 65.7942L95.3688 66.4573L92.9082 66.8168L58.168 71.8745C57.4739 71.9798 56.7487 72.048 56.0049 72.0728C55.757 72.0852 55.5091 72.0914 55.2612 72.0914C54.7963 72.0914 54.3253 72.0728 53.8418 72.0418L31.3491 70.4799H31.3429L27.717 70.232L20.2794 69.7175L17.7939 69.544L13.4119 69.2403C13.4119 69.2403 13.3871 69.2403 13.3809 69.2403C10.1517 69.011 7.59817 66.3706 7.44942 63.16H3.40207C2.0323 63.16 0.922852 62.0506 0.922852 60.6808V55.2637C0.922852 53.8939 2.0323 52.7844 3.40207 52.7844H7.44321V30.5396C7.44321 27.1989 10.0526 24.4036 13.3809 24.1742L17.7939 23.8705L20.2794 23.697L27.7232 23.1764L31.3553 22.9284L53.8418 21.3665C54.3191 21.3293 54.7963 21.317 55.2612 21.317C55.5091 21.317 55.757 21.3169 56.0049 21.3293C56.7487 21.3603 57.4553 21.4223 58.1556 21.5277L92.9082 26.5915L95.3688 26.951L99.9491 27.6142L102.565 27.9985L116.021 29.957C116.039 29.957 116.052 29.9632 116.064 29.9632C116.324 30.0066 116.665 30.0686 117.031 30.1802C120.496 31.1409 122.913 34.3205 122.913 37.9277Z" fill="#730000"/>
<path d="M7.43701 52.7844V63.16H3.40207C2.0323 63.16 0.922852 62.0506 0.922852 60.6808V55.2637C0.922852 53.8939 2.0323 52.7844 3.40207 52.7844H7.43701Z" fill="#3D3D3D"/>
<path d="M10.6973 55.2637H3.396V60.6808H10.6973V55.2637Z" fill="#737373"/>
<path d="M120.427 37.9277V55.4806C120.427 58.0218 118.723 60.2035 116.33 60.8481C116.113 60.9163 115.89 60.9659 115.661 60.9969L57.796 69.4262C57.17 69.5192 56.5377 69.575 55.9055 69.5998C55.2733 69.6246 54.6412 69.6122 54.009 69.5688L13.5481 66.7672C11.5027 66.6247 9.91602 64.9202 9.91602 62.8687V30.5396C9.91602 28.4881 11.5027 26.7898 13.5481 26.6473L54.009 23.8395C54.6412 23.7962 55.2733 23.7838 55.9055 23.8086C56.5377 23.8334 57.1638 23.8891 57.796 23.9821L115.661 32.4115C115.89 32.4487 116.113 32.492 116.33 32.5602C118.723 33.211 120.427 35.3865 120.427 37.9277Z" fill="#FF0000"/>
<path d="M16.5419 26.4427L15.73 26.4985C15.9841 26.4799 16.2506 26.4613 16.5419 26.4427Z" fill="#FF0000"/>
<path d="M120.433 53.8939L55.9116 60.092V33.3164L120.433 39.5144V53.8939Z" fill="#D40000"/>
<path d="M16.5419 26.4427L15.73 26.4985C15.9841 26.4799 16.2506 26.4613 16.5419 26.4427Z" fill="#FF0000"/>
<path d="M69.7645 67.6846C65.2151 66.823 61.9178 62.8501 61.9178 58.2201V46.8653V46.5554V35.2006C61.9178 30.5706 65.2151 26.5915 69.7645 25.7361L57.8023 23.9945C57.1701 23.9015 56.5441 23.8457 55.9119 23.821C55.2797 23.7962 54.6475 23.8086 54.0153 23.852L19.5727 26.2444C19.4301 26.2568 19.2876 26.263 19.1513 26.2754C18.8724 26.294 18.5996 26.3126 18.3393 26.3312C18.2029 26.3374 18.0728 26.3498 17.9488 26.356C17.6141 26.3807 17.2919 26.4055 16.982 26.4241C16.8332 26.4365 16.6844 26.4427 16.5418 26.4551L15.7299 26.5109C15.606 26.5171 15.4882 26.5295 15.3705 26.5357C15.1411 26.5481 14.9304 26.5667 14.7383 26.5791C13.9759 26.6287 13.5544 26.6597 13.5544 26.6597C11.5091 26.8022 9.92236 28.5005 9.92236 30.552V62.8811C9.92236 64.9326 11.5091 66.6371 13.5544 66.7796C13.5544 66.7796 13.9759 66.8106 14.7383 66.8602C14.9304 66.8726 15.1411 66.8912 15.3705 66.9036C15.4882 66.9098 15.606 66.9222 15.7299 66.9284C15.9841 66.947 16.2505 66.9656 16.5418 66.9842C16.6844 66.9966 16.8332 67.0028 16.982 67.0152C17.2919 67.0338 17.6141 67.0585 17.9488 67.0833C18.0728 67.0895 18.2029 67.102 18.3393 67.1082C18.5996 67.1268 18.8724 67.1453 19.1513 67.1639C19.2876 67.1763 19.4301 67.1825 19.5727 67.1949C19.957 67.2197 20.3537 67.2445 20.7627 67.2755C20.9673 67.2879 21.178 67.3003 21.3888 67.3189C22.2193 67.3747 23.0932 67.4367 24.0043 67.4986L54.0153 69.5812C54.6475 69.6246 55.2797 69.6369 55.9119 69.6122C56.5441 69.5874 57.1763 69.5316 57.8023 69.4386L60.0522 69.1101L69.7645 67.6846Z" fill="#D40000"/>
<path d="M55.5338 27.2051H45.7285L20.7442 29.1451L15.7671 29.8517C14.1308 30.0872 12.916 31.4817 12.916 33.1366V46.7041V60.2717C12.916 61.9204 14.1308 63.3211 15.7671 63.5566L20.7442 64.2632L45.7285 66.2032L55.5338 66.5131C58.2796 66.5999 60.7154 65.3851 60.7154 61.7158V31.6057C60.7154 29.2566 59.0171 27.1989 55.5338 27.2051Z" fill="#990000"/>
<path d="M19.8019 61.0651C20.2109 60.7056 20.4527 60.1663 20.4527 59.5899V46.698V33.806C20.4527 33.2358 20.2109 32.6904 19.8019 32.3309L18.5623 31.2462L14.7691 27.9241C12.9282 26.3126 9.94701 27.5398 9.91602 29.988C9.91602 30.0066 9.91602 30.0252 9.91602 30.0438V32.7214V46.698V60.6746V63.3522C9.91602 63.3707 9.91602 63.3893 9.91602 63.4079C9.94701 65.8561 12.9282 67.0834 14.7691 65.4719C16.8392 63.662 18.5623 62.1497 18.5623 62.1497L19.8019 61.0651Z" fill="#FF0000"/>
<path d="M16.7961 31.7111C15.6805 30.7318 14.0132 31.5933 14.0132 33.1428V46.7104V60.2779C14.0132 61.8274 15.6805 62.6827 16.7961 61.7096L17.9986 60.656C18.3952 60.3089 18.6307 59.782 18.6307 59.2242V46.7041V34.1903C18.6307 33.6325 18.4014 33.1118 17.9986 32.7586L16.7961 31.7111Z" fill="#D40000"/>
<path d="M46.0384 64.319L37.9685 60.8977C35.7372 59.9494 33.3324 59.4597 30.9089 59.4597H28.8884C25.7955 59.4597 22.7957 60.5258 20.397 62.472C19.9384 62.8439 20.1677 63.5814 20.7565 63.631L45.7409 65.571C46.4661 65.6268 46.714 64.6103 46.0384 64.319Z" fill="#78A4BF"/>
<path d="M46.0384 29.1017L37.9685 32.523C35.7372 33.4713 33.3324 33.961 30.9089 33.961H28.8884C25.7955 33.961 22.7957 32.8949 20.397 30.9487C19.9384 30.5768 20.1677 29.8393 20.7565 29.7897L45.7409 27.8497C46.4661 27.7939 46.714 28.8166 46.0384 29.1017Z" fill="#9AC0D9"/>
<path d="M120.428 37.9277V39.2355C118.004 38.4607 116.256 36.1923 116.256 33.5147C116.256 33.1924 116.281 32.8701 116.331 32.5602C118.723 33.211 120.428 35.3865 120.428 37.9277Z" fill="#FCB321"/>
<path d="M120.428 54.179V55.4806C120.428 58.0218 118.723 60.2035 116.331 60.8481C116.281 60.5382 116.256 60.2159 116.256 59.8936C116.256 57.2223 118.004 54.9538 120.428 54.179Z" fill="#FCB321"/>
<path d="M9.91623 50.6337H7.43701V63.1476H9.91623V50.6337Z" fill="#730000"/>
<path d="M45.4746 32.2193C43.6214 33.0313 42.4189 34.8659 42.4189 36.8865V46.8529V56.8194C42.4189 58.8461 43.6152 60.6746 45.4746 61.4865L55.1746 65.726C57.7902 66.8664 60.7156 64.9512 60.7156 62.1001V46.8467V31.5933C60.7156 28.7422 57.7902 26.827 55.1746 27.9675L45.4746 32.2193Z" fill="#9AC0D9"/>
<path d="M57.6352 27.7443V41.4978V56.7512C57.6352 59.6023 54.7097 61.5175 52.0942 60.377L42.4189 56.1438V56.8256C42.4189 58.8523 43.6152 60.6808 45.4746 61.4927L55.1746 65.7322C57.7902 66.8726 60.7156 64.9574 60.7156 62.1063V46.8529V31.5995C60.7156 29.6471 59.3459 28.1348 57.6352 27.7443Z" fill="#78A4BF"/>
<path d="M45.7912 66.1908C45.754 66.1908 45.723 66.1908 45.6858 66.1846L20.7015 64.2447C20.1809 64.2013 19.7408 63.8542 19.5858 63.3521C19.4309 62.8501 19.5921 62.3171 20.0011 61.9886C22.5052 59.9556 25.6599 58.8399 28.8829 58.8399H30.9035C33.4261 58.8399 35.8867 59.342 38.2048 60.3275L46.2747 63.7488C46.8635 63.9967 47.1672 64.6041 47.0122 65.2239C46.8759 65.8065 46.38 66.1908 45.7912 66.1908ZM28.8829 60.0795C25.9388 60.0795 23.063 61.1022 20.7821 62.9555L45.785 64.9512L45.8222 64.9016L45.8036 64.8954L37.7338 61.4741C35.5644 60.5568 33.2712 60.0857 30.9159 60.0857L28.8829 60.0795Z" fill="#730000"/>
<path d="M30.9035 34.5808H28.8829C25.6599 34.5808 22.5052 33.4589 20.0011 31.4322C19.5921 31.1037 19.4309 30.5644 19.5858 30.0686C19.7408 29.5666 20.1809 29.2195 20.7015 29.1761L45.6858 27.2361C46.318 27.1803 46.8697 27.5832 47.0184 28.203C47.1672 28.8228 46.8635 29.4302 46.2809 29.6781L38.211 33.0994C35.8867 34.0849 33.4261 34.5808 30.9035 34.5808ZM45.816 28.5191L20.7945 30.4095C23.063 32.3185 25.9388 33.3412 28.8767 33.3412H30.8973C33.2525 33.3412 35.552 32.8763 37.7151 31.9528L45.785 28.5315C45.8098 28.5253 45.816 28.5191 45.816 28.5191Z" fill="#730000"/>
<path d="M56.7614 66.6867C56.1416 66.6867 55.5156 66.5565 54.9268 66.3024L45.2269 62.0629C43.1443 61.1518 41.7993 59.0941 41.7993 56.8256V36.8865C41.7993 34.6118 43.1443 32.5602 45.2269 31.6491L54.9268 27.4096C56.3462 26.7898 57.9701 26.9262 59.2655 27.7753C60.5609 28.6244 61.3356 30.0562 61.3356 31.6057V62.1125C61.3356 63.662 60.5609 65.0938 59.2655 65.9429C58.5093 66.4388 57.6353 66.6867 56.7614 66.6867ZM56.7614 28.265C56.309 28.265 55.8504 28.3579 55.4227 28.5439L45.7227 32.7833C44.0926 33.4961 43.0389 35.1076 43.0389 36.8865V56.8256C43.0389 58.6044 44.0926 60.2159 45.7227 60.9287L55.4227 65.1682C56.4578 65.6206 57.6416 65.5215 58.5837 64.9017C59.532 64.2818 60.096 63.2406 60.096 62.1063V31.5995C60.096 30.4715 59.532 29.424 58.5837 28.8042C58.0321 28.4509 57.3998 28.265 56.7614 28.265Z" fill="#730000"/>
<path d="M12.9839 20.2819H8.65771V0.596832H12.9839L16.3557 3.12565V17.7531L12.9839 20.2819Z" fill="black"/>
<path d="M20.6884 20.2819H16.356V0.596848H20.6884L24.0601 3.12566V17.7531L20.6884 20.2819Z" fill="black"/>
<path d="M28.3925 20.2819H24.0601V0.596848H28.3925L31.7643 3.12566V17.7531L28.3925 20.2819Z" fill="black"/>
<path d="M9.61857 0.596832H5.28613V20.2819H9.61857V0.596832Z" fill="black"/>
<path d="M33.772 0.596832H28.3921V20.2819H33.772V0.596832Z" fill="black"/>
<path d="M91.4076 23.1764H87.0752V3.49135H91.4076L94.7794 6.02014V20.6476L91.4076 23.1764Z" fill="black"/>
<path d="M99.1122 23.1764H94.7798V3.49135H99.1122L102.484 6.02014V20.6476L99.1122 23.1764Z" fill="black"/>
<path d="M106.81 23.1764H102.483V3.49135H106.81L110.181 6.02014V20.6476L106.81 23.1764Z" fill="black"/>
<path d="M88.0365 3.49135H83.7041V23.1764H88.0365V3.49135Z" fill="black"/>
<path d="M112.19 3.49135H106.811V23.1764H112.19V3.49135Z" fill="black"/>
<path d="M12.9839 92.8177H8.65771V73.1326H12.9839L16.3557 75.6615V90.2888L12.9839 92.8177Z" fill="black"/>
<path d="M20.6884 92.8176H16.356V73.1326H20.6884L24.0601 75.6614V90.2888L20.6884 92.8176Z" fill="black"/>
<path d="M28.3925 92.8176H24.0601V73.1326H28.3925L31.7643 75.6614V90.2888L28.3925 92.8176Z" fill="black"/>
<path d="M9.61857 73.1326H5.28613V92.8176H9.61857V73.1326Z" fill="black"/>
<path d="M33.772 73.1326H28.3921V92.8177H33.772V73.1326Z" fill="black"/>
<path d="M91.4076 89.917H87.0752V70.2319H91.4076L94.7794 72.7608V87.3882L91.4076 89.917Z" fill="black"/>
<path d="M99.1122 89.917H94.7798V70.2319H99.1122L102.484 72.7608V87.3882L99.1122 89.917Z" fill="black"/>
<path d="M106.81 89.917H102.483V70.2319H106.81L110.181 72.7608V87.3882L106.81 89.917Z" fill="black"/>
<path d="M88.0365 70.2319H83.7041V89.917H88.0365V70.2319Z" fill="black"/>
<path d="M112.19 70.2319H106.811V89.917H112.19V70.2319Z" fill="black"/>
</svg>
