<svg width="122" height="93" viewBox="0 0 122 93" fill="none" xmlns="http://www.w3.org/2000/svg">
<path d="M38.7287 29.6533L30.4357 22.9284H30.4295L14.8662 10.3092L16.8806 23.8643L19.3846 40.6982L21.839 40.3388L19.366 23.6908L18.2565 16.2469L26.8037 23.1764L37.1668 31.5809L38.7287 29.6533Z" fill="black"/>
<path d="M105.079 43.8283L101.651 27.9984L98.3849 12.8876L96.575 13.2843L94.6909 12.9124L91.9947 26.5915L88.5981 43.8531L91.034 44.3303L94.4553 26.951L96.5688 16.2159L99.0357 27.6141L102.655 44.3551L105.079 43.8283Z" fill="black"/>
<path d="M38.7287 63.755L30.4357 70.4799H30.4295L14.8662 83.0991L16.8806 69.544L19.3846 52.7101L21.839 53.0696L19.366 69.7175L18.2565 77.1614L26.8037 70.232L37.1668 61.8274L38.7287 63.755Z" fill="black"/>
<path d="M105.079 49.5801L101.651 65.4099L98.3849 80.5207L96.575 80.1241L94.6909 80.4959L91.9947 66.8168L88.5981 49.5553L91.034 49.078L94.4553 66.4573L96.5688 77.1924L99.0357 65.7942L102.655 49.0532L105.079 49.5801Z" fill="black"/>
<path d="M122 37.9277V55.4806C122 59.0879 119.583 62.2675 116.118 63.2282C115.783 63.3273 115.436 63.4017 115.108 63.4513L101.652 65.4099L99.036 65.7942L94.4557 66.4573L91.995 66.8168L57.255 71.8745C56.5608 71.9798 55.8356 72.048 55.0918 72.0728C54.8439 72.0852 54.596 72.0914 54.348 72.0914C53.8832 72.0914 53.4122 72.0728 52.9287 72.0418L30.436 70.4799H30.4298L26.8039 70.232L19.3663 69.7175L16.8808 69.544L12.4989 69.2403C12.4989 69.2403 12.474 69.2403 12.4678 69.2403C9.23865 69.011 6.68501 66.3706 6.53626 63.16H2.48899C1.11922 63.16 0.00976562 62.0506 0.00976562 60.6808V55.2637C0.00976562 53.8939 1.11922 52.7844 2.48899 52.7844H6.53013V30.5396C6.53013 27.1989 9.13948 24.4036 12.4678 24.1742L16.8808 23.8705L19.3663 23.697L26.8101 23.1764L30.4422 22.9284L52.9287 21.3665C53.406 21.3293 53.8832 21.317 54.348 21.317C54.596 21.317 54.8439 21.3169 55.0918 21.3293C55.8356 21.3603 56.5422 21.4223 57.2426 21.5277L91.995 26.5915L94.4557 26.951L99.036 27.6142L101.652 27.9985L115.108 29.957C115.126 29.957 115.139 29.9632 115.151 29.9632C115.411 30.0066 115.752 30.0686 116.118 30.1802C119.583 31.1409 122 34.3205 122 37.9277Z" fill="#730000"/>
<path d="M6.52392 52.7844V63.16H2.48899C1.11922 63.16 0.00976562 62.0506 0.00976562 60.6808V55.2637C0.00976562 53.8939 1.11922 52.7844 2.48899 52.7844H6.52392Z" fill="#3D3D3D"/>
<path d="M9.78423 55.2637H2.48291V60.6808H9.78423V55.2637Z" fill="#737373"/>
<path d="M119.514 37.9277V55.4806C119.514 58.0218 117.81 60.2035 115.417 60.8481C115.2 60.9163 114.977 60.9659 114.748 60.9969L56.8829 69.4262C56.2569 69.5192 55.6246 69.575 54.9924 69.5998C54.3602 69.6246 53.7281 69.6122 53.0959 69.5688L12.635 66.7672C10.5896 66.6247 9.00293 64.9202 9.00293 62.8687V30.5396C9.00293 28.4881 10.5896 26.7898 12.635 26.6473L53.0959 23.8395C53.7281 23.7962 54.3602 23.7838 54.9924 23.8086C55.6246 23.8334 56.2507 23.8891 56.8829 23.9821L114.748 32.4115C114.977 32.4487 115.2 32.492 115.417 32.5602C117.81 33.211 119.514 35.3865 119.514 37.9277Z" fill="#FF0000"/>
<path d="M15.6288 26.4427L14.8169 26.4985C15.071 26.4799 15.3375 26.4613 15.6288 26.4427Z" fill="#FF0000"/>
<path d="M119.52 53.8939L54.9985 60.092V33.3164L119.52 39.5144V53.8939Z" fill="#D40000"/>
<path d="M15.6288 26.4427L14.8169 26.4985C15.071 26.4799 15.3375 26.4613 15.6288 26.4427Z" fill="#FF0000"/>
<path d="M68.8514 67.6846C64.302 66.823 61.0047 62.8501 61.0047 58.2201V46.8653V46.5554V35.2006C61.0047 30.5706 64.302 26.5915 68.8514 25.7361L56.8892 23.9945C56.257 23.9015 55.631 23.8457 54.9988 23.821C54.3666 23.7962 53.7344 23.8086 53.1021 23.852L18.6596 26.2444C18.5171 26.2568 18.3745 26.263 18.2381 26.2754C17.9592 26.294 17.6865 26.3126 17.4262 26.3312C17.2898 26.3374 17.1597 26.3498 17.0357 26.356C16.701 26.3807 16.3787 26.4055 16.0688 26.4241C15.92 26.4365 15.7713 26.4427 15.6288 26.4551L14.8168 26.5109C14.6929 26.5171 14.5751 26.5295 14.4573 26.5357C14.228 26.5481 14.0172 26.5667 13.8251 26.5791C13.0627 26.6287 12.6413 26.6597 12.6413 26.6597C10.596 26.8022 9.00928 28.5005 9.00928 30.552V62.8811C9.00928 64.9326 10.596 66.6371 12.6413 66.7796C12.6413 66.7796 13.0627 66.8106 13.8251 66.8602C14.0172 66.8726 14.228 66.8912 14.4573 66.9036C14.5751 66.9098 14.6929 66.9222 14.8168 66.9284C15.071 66.947 15.3374 66.9656 15.6288 66.9842C15.7713 66.9966 15.92 67.0028 16.0688 67.0152C16.3787 67.0338 16.701 67.0585 17.0357 67.0833C17.1597 67.0895 17.2898 67.102 17.4262 67.1082C17.6865 67.1268 17.9592 67.1453 18.2381 67.1639C18.3745 67.1763 18.5171 67.1825 18.6596 67.1949C19.0439 67.2197 19.4406 67.2445 19.8497 67.2755C20.0542 67.2879 20.2649 67.3003 20.4757 67.3189C21.3062 67.3747 22.1801 67.4367 23.0912 67.4986L53.1021 69.5812C53.7344 69.6246 54.3666 69.6369 54.9988 69.6122C55.631 69.5874 56.2632 69.5316 56.8892 69.4386L59.1391 69.1101L68.8514 67.6846Z" fill="#D40000"/>
<path d="M54.6207 27.2051H44.8154L19.8311 29.1451L14.854 29.8517C13.2177 30.0872 12.0029 31.4817 12.0029 33.1366V46.7041V60.2717C12.0029 61.9204 13.2177 63.3211 14.854 63.5566L19.8311 64.2632L44.8154 66.2032L54.6207 66.5131C57.3665 66.5999 59.8023 65.3851 59.8023 61.7158V31.6057C59.8023 29.2566 58.104 27.1989 54.6207 27.2051Z" fill="#990000"/>
<path d="M18.8888 61.0651C19.2979 60.7056 19.5396 60.1663 19.5396 59.5899V46.698V33.806C19.5396 33.2358 19.2979 32.6904 18.8888 32.3309L17.6492 31.2462L13.856 27.9241C12.0152 26.3126 9.03392 27.5398 9.00293 29.988C9.00293 30.0066 9.00293 30.0252 9.00293 30.0438V32.7214V46.698V60.6746V63.3522C9.00293 63.3707 9.00293 63.3893 9.00293 63.4079C9.03392 65.8561 12.0152 67.0834 13.856 65.4719C15.9261 63.662 17.6492 62.1497 17.6492 62.1497L18.8888 61.0651Z" fill="#FF0000"/>
<path d="M15.883 31.7111C14.7674 30.7318 13.1001 31.5933 13.1001 33.1428V46.7104V60.2779C13.1001 61.8274 14.7674 62.6827 15.883 61.7096L17.0854 60.656C17.4821 60.3089 17.7176 59.782 17.7176 59.2242V46.7041V34.1903C17.7176 33.6325 17.4883 33.1118 17.0854 32.7586L15.883 31.7111Z" fill="#D40000"/>
<path d="M45.1253 64.319L37.0555 60.8977C34.8242 59.9494 32.4193 59.4597 29.9959 59.4597H27.9753C24.8825 59.4597 21.8826 60.5258 19.4839 62.472C19.0253 62.8439 19.2547 63.5814 19.8435 63.631L44.8278 65.571C45.553 65.6268 45.8009 64.6103 45.1253 64.319Z" fill="#78A4BF"/>
<path d="M45.1253 29.1017L37.0555 32.523C34.8242 33.4713 32.4193 33.961 29.9959 33.961H27.9753C24.8825 33.961 21.8826 32.8949 19.4839 30.9487C19.0253 30.5768 19.2547 29.8393 19.8435 29.7897L44.8278 27.8497C45.553 27.7939 45.8009 28.8166 45.1253 29.1017Z" fill="#9AC0D9"/>
<path d="M119.515 37.9277V39.2355C117.091 38.4607 115.343 36.1923 115.343 33.5147C115.343 33.1924 115.368 32.8701 115.418 32.5602C117.81 33.211 119.515 35.3865 119.515 37.9277Z" fill="#FCB321"/>
<path d="M119.515 54.179V55.4806C119.515 58.0218 117.81 60.2035 115.418 60.8481C115.368 60.5382 115.343 60.2159 115.343 59.8936C115.343 57.2223 117.091 54.9538 119.515 54.179Z" fill="#FCB321"/>
<path d="M9.00315 50.6337H6.52393V63.1476H9.00315V50.6337Z" fill="#730000"/>
<path d="M44.5615 32.2193C42.7083 33.0313 41.5059 34.8659 41.5059 36.8865V46.8529V56.8194C41.5059 58.8461 42.7021 60.6746 44.5615 61.4865L54.2614 65.726C56.877 66.8664 59.8025 64.9512 59.8025 62.1001V46.8467V31.5933C59.8025 28.7422 56.877 26.827 54.2614 27.9675L44.5615 32.2193Z" fill="#9AC0D9"/>
<path d="M56.7221 27.7443V41.4978V56.7512C56.7221 59.6023 53.7966 61.5175 51.181 60.377L41.5059 56.1438V56.8256C41.5059 58.8523 42.7021 60.6808 44.5615 61.4927L54.2614 65.7322C56.877 66.8726 59.8025 64.9574 59.8025 62.1063V46.8529V31.5995C59.8025 29.6471 58.4266 28.1348 56.7221 27.7443Z" fill="#78A4BF"/>
<path d="M44.8781 66.1908C44.841 66.1908 44.8099 66.1908 44.7728 66.1846L19.7884 64.2447C19.2677 64.2013 18.8277 63.8542 18.6728 63.3521C18.5178 62.8501 18.6789 62.3171 19.088 61.9886C21.592 59.9556 24.7469 58.8399 27.9698 58.8399H29.9904C32.513 58.8399 34.9737 59.342 37.2917 60.3275L45.3615 63.7488C45.9504 63.9967 46.2541 64.6041 46.0991 65.2239C45.9628 65.8065 45.467 66.1908 44.8781 66.1908ZM27.9698 60.0795C25.0258 60.0795 22.1498 61.1022 19.8689 62.9555L44.8719 64.9512L44.9091 64.9016L44.8905 64.8954L36.8207 61.4741C34.6514 60.5568 32.3581 60.0857 30.0028 60.0857L27.9698 60.0795Z" fill="#730000"/>
<path d="M29.9904 34.5808H27.9698C24.7469 34.5808 21.592 33.4589 19.088 31.4322C18.6789 31.1037 18.5178 30.5644 18.6728 30.0686C18.8277 29.5666 19.2677 29.2195 19.7884 29.1761L44.7728 27.2361C45.405 27.1803 45.9566 27.5832 46.1054 28.203C46.2541 28.8228 45.9504 29.4302 45.3677 29.6781L37.2979 33.0994C34.9736 34.0849 32.513 34.5808 29.9904 34.5808ZM44.9029 28.5191L19.8814 30.4095C22.1498 32.3185 25.0258 33.3412 27.9636 33.3412H29.9842C32.3395 33.3412 34.6389 32.8763 36.8021 31.9528L44.8719 28.5315C44.8967 28.5253 44.9029 28.5191 44.9029 28.5191Z" fill="#730000"/>
<path d="M55.8483 66.6867C55.2285 66.6867 54.6026 66.5565 54.0137 66.3024L44.3138 62.0629C42.2312 61.1518 40.8862 59.0941 40.8862 56.8256V36.8865C40.8862 34.6118 42.2312 32.5602 44.3138 31.6491L54.0137 27.4096C55.4331 26.7898 57.057 26.9262 58.3524 27.7753C59.6478 28.6244 60.4225 30.0562 60.4225 31.6057V62.1125C60.4225 63.662 59.6478 65.0938 58.3524 65.9429C57.5962 66.4388 56.7223 66.6867 55.8483 66.6867ZM55.8483 28.265C55.3959 28.265 54.9372 28.3579 54.5095 28.5439L44.8096 32.7833C43.1795 33.4961 42.1258 35.1076 42.1258 36.8865V56.8256C42.1258 58.6044 43.1795 60.2159 44.8096 60.9287L54.5095 65.1682C55.5446 65.6206 56.7284 65.5215 57.6705 64.9017C58.6188 64.2818 59.1829 63.2406 59.1829 62.1063V31.5995C59.1829 30.4715 58.6188 29.424 57.6705 28.8042C57.1189 28.4509 56.4867 28.265 55.8483 28.265Z" fill="#730000"/>
<path d="M10.0009 20.2819H5.66846V0.596848H10.0009L13.3726 3.12566V17.7531L10.0009 20.2819Z" fill="black"/>
<path d="M17.7055 20.2819H13.373V0.596848H17.7055L21.0773 3.12566V17.7531L17.7055 20.2819Z" fill="black"/>
<path d="M25.4029 20.2819H21.0767V0.596848H25.4029L28.7746 3.12566V17.7531L25.4029 20.2819Z" fill="black"/>
<path d="M8.70597 0.596832H4.37354V20.2819H8.70597V0.596832Z" fill="black"/>
<path d="M32.8599 0.596832H27.48V20.2819H32.8599V0.596832Z" fill="black"/>
<path d="M88.4258 23.1764H84.0933V3.49135H88.4258L91.7975 6.02014V20.6476L88.4258 23.1764Z" fill="black"/>
<path d="M96.1236 23.1764H91.7974V3.49135H96.1236L99.4954 6.02014V20.6476L96.1236 23.1764Z" fill="black"/>
<path d="M103.828 23.1764H99.4951V3.49135H103.828L107.199 6.02014V20.6476L103.828 23.1764Z" fill="black"/>
<path d="M87.1234 3.49135H82.791V23.1764H87.1234V3.49135Z" fill="black"/>
<path d="M111.277 3.49135H105.897V23.1764H111.277V3.49135Z" fill="black"/>
<path d="M88.4258 89.917H84.0933V70.2319H88.4258L91.7975 72.7608V87.3882L88.4258 89.917Z" fill="black"/>
<path d="M96.1236 89.917H91.7974V70.2319H96.1236L99.4954 72.7608V87.3882L96.1236 89.917Z" fill="black"/>
<path d="M103.828 89.917H99.4951V70.2319H103.828L107.199 72.7608V87.3882L103.828 89.917Z" fill="black"/>
<path d="M87.1234 70.2319H82.791V89.917H87.1234V70.2319Z" fill="black"/>
<path d="M111.277 70.2319H105.897V89.917H111.277V70.2319Z" fill="black"/>
<path d="M10.0009 92.8176H5.66846V73.1326H10.0009L13.3726 75.6614V90.2888L10.0009 92.8176Z" fill="black"/>
<path d="M17.7055 92.8176H13.373V73.1326H17.7055L21.0773 75.6614V90.2888L17.7055 92.8176Z" fill="black"/>
<path d="M25.4029 92.8176H21.0767V73.1326H25.4029L28.7746 75.6614V90.2888L25.4029 92.8176Z" fill="black"/>
<path d="M8.70597 73.1326H4.37354V92.8176H8.70597V73.1326Z" fill="black"/>
<path d="M32.8599 73.1326H27.48V92.8177H32.8599V73.1326Z" fill="black"/>
</svg>
